<?xml version="1.0" encoding="UTF-8"?> <svg xmlns="http://www.w3.org/2000/svg" width="519" height="547" viewBox="0 0 519 547" fill="none"> <path fill-rule="evenodd" clip-rule="evenodd" d="M282.427 277.281C282.05 276.929 281.45 276.801 280.987 277.092C273.155 282.045 272.229 298.713 272.135 308.337C268.896 309.177 265.699 310.137 262.665 310.805C256.238 312.236 249.777 313.47 243.324 314.781L238.491 315.775C222.328 319.186 205.866 321.706 189.404 322.974C173.422 324.191 156.968 324.645 141.037 322.58C134.19 321.697 127.386 320.214 120.77 318.243C112.954 315.913 106.733 312.048 99.4572 308.663C81.2553 300.179 66.0014 325.031 83.5177 335.94C98.5573 345.298 119.073 348.674 136.435 350.122C154.174 351.605 171.845 349.977 189.378 347.166C208.325 344.132 226.887 339.47 244.858 332.709C252.459 329.847 259.812 326.376 266.993 322.588L268.947 321.551C270.147 320.909 271.389 320.257 272.641 319.597C273.986 331.604 277.859 343.19 282.547 354.339L282.65 354.142C285.212 362.934 294.467 368.376 303.68 364.485C314.486 359.935 315.309 347.98 309.018 339.488L308.718 339.093C301.323 329.581 296.695 317.772 292.668 306.52C290.602 300.753 288.691 294.84 287.029 288.944C285.829 284.676 285.786 280.383 282.427 277.281ZM3.9145 181.695C10.3246 201.063 24.2931 215.982 43.7547 222.538C63.0449 229.034 84.5031 226.669 104.213 223.155C108.532 222.384 112.903 221.535 117.265 220.541C113.691 222.761 110.538 225.872 107.521 229.171C103.056 234.038 99.0116 239.172 97.7775 245.265C96.5606 251.315 98.4802 255.917 101.985 259.387C107.367 264.726 116.056 267.606 123.418 269.2C139.897 272.756 156.402 272.208 172.796 268.548C176.986 267.623 179.823 265.377 181.417 262.447C183.354 258.882 183.508 254.46 182.402 250.432C181.288 246.404 178.889 242.685 175.41 240.637C172.547 238.94 168.957 238.477 164.895 239.831C156.728 242.548 148.621 244.348 139.991 244.562C136.341 244.639 132.664 244.536 129.022 244.202C126.966 244.013 124.909 243.748 122.861 243.422C124.061 241.82 125.234 240.183 126.374 238.529C127.728 236.575 129.048 234.604 130.299 232.59C133.933 226.771 136.958 220.79 139.614 214.474C140.471 212.452 141.26 210.421 142.014 208.381C142.125 208.09 142.237 207.798 142.339 207.498C142.579 207.31 142.811 207.113 143.042 206.907C148.235 202.408 152.597 196.872 155.682 190.008C164.029 171.412 162.667 148.334 157.602 129.026C153.54 113.549 144.585 99.2358 132.75 89.511C130.685 86.1097 129.322 84.047 127.651 82.3091C120.847 75.2297 111.352 70.4547 102.088 67.5505C81.4009 61.0607 58.8715 65.7166 41.338 78.0731C25.1415 89.4818 12.467 106.592 5.6199 125.623C-0.8673 143.646 -2.13565 163.416 3.9145 181.695ZM285.701 63.9915C261.097 63.7816 236.065 71.0478 216.098 85.5904C196.996 99.5057 182.008 120.05 182.025 144.52C182.042 168.344 194.768 191.773 208.891 210.223C224.745 230.928 245.449 240.911 271.492 241.143C285.032 241.263 298.666 240.063 312.104 238.417L319.319 237.509C329.243 236.232 339.278 234.715 348.687 231.296C393.489 215.04 394.877 156.381 378.287 118.885C365.475 89.9352 333.048 61.7025 300.715 65.091C295.847 64.408 290.842 64.0369 285.701 63.9915ZM244.147 91.578C274.954 77.7441 312.386 81.8866 342.277 96.6495C354.112 109.571 362.767 125.855 366.272 140.801C370.008 156.766 369.46 173.957 363.838 189.416C356.974 208.304 340.075 212.974 321.839 215.879L314.769 216.993L311.795 217.439C293.885 220.113 274.294 222.195 257.078 218.844C237.891 215.117 225.705 199.614 216.115 183.709L215.67 182.964C205.712 166.313 197.374 146.054 205.729 126.965C212.833 110.742 228.344 98.6745 244.147 91.578ZM62.2993 96.3984C72.8742 90.5376 84.9316 89.4724 96.3463 93.3956C101.257 95.0829 105.507 97.8184 109.621 100.885L111.258 102.127C116.322 106.013 121.053 107.982 124.849 113.231L125.337 113.934C127.248 116.796 130.599 117.941 133.658 117.56C137.215 127.372 138.68 137.982 138.714 148.428L138.706 149.808L138.689 151.222C138.457 163.57 136.306 178.67 126.597 186.948C117.745 194.49 104.333 196.306 92.3529 197.352L83.1321 198.123L80.6725 198.312C68.0581 199.186 54.2267 198.886 43.6517 191.413C34.4394 184.909 30.0946 173.854 28.972 162.945C26.3069 137.176 39.3413 109.122 62.2993 96.3984ZM292.445 98.779C275.486 90.1143 255.099 92.2858 240.727 103.146C242.004 103.396 243.264 103.715 244.515 104.343C247.78 105.978 249.802 109.254 250.574 112.738C251.439 116.678 249.4 120.407 245.518 121.649C242.133 122.728 238.122 123.223 234.977 121.167C233.332 120.092 232.183 118.673 231.429 116.887L231.326 116.625L231.189 116.432L231.138 116.342C231.129 116.307 231.189 116.373 231.283 116.52C231.189 116.297 231.095 116.074 231.009 115.848C230.872 115.578 230.752 115.306 230.649 115.025C230.461 114.868 230.298 114.692 230.127 114.516C227.521 118.535 225.465 123.075 224.162 128.124C215.815 160.537 250.068 194.173 280.67 197.54C292.231 198.809 302.78 196.049 311.529 190.625C311.452 190.513 311.367 190.419 311.289 190.308C307.776 190.942 303.577 189.365 302.3 185.44C299.043 175.439 302.386 163.733 313.286 160.46C320.296 158.36 327.477 160.683 332.491 165.481C336.278 156.192 337.632 145.746 335.841 135.282C333.313 120.512 324.41 107.205 310.552 101.061C303.8 98.0677 297.989 97.4387 292.445 98.779ZM113.777 118.776L113.254 117.962C108.018 109.891 97.9918 99.9908 87.6054 102.712C86.1486 103.095 84.7175 103.711 83.432 104.509C77.7247 103.734 71.743 105.031 66.8412 108.05L66.9697 108.389C66.9955 108.446 67.0126 108.503 67.0298 108.563C67.4754 110.526 67.2182 112.341 66.3013 114.145C65.3072 116.099 63.8847 117.952 61.9651 119.074C60.6539 119.841 59.1028 120.245 57.586 120.214C55.3579 120.175 53.4041 119.194 51.793 117.698C50.9189 116.887 50.3104 115.697 49.9762 114.473C49.1792 115.234 48.4079 116.081 47.6795 117.043C35.6392 132.883 37.3018 158.334 51.4245 172.457C51.9987 173.023 52.607 173.537 53.2069 174.068C58.94 181.961 67.7839 187.325 78.4016 188.414C88.231 189.416 98.0603 186.511 105.602 180.547C104.993 180.221 104.427 179.801 103.939 179.253C102.654 177.796 101.591 176.356 100.811 174.574C100.614 174.128 100.425 173.674 100.246 173.22L99.9799 172.534C99.9371 172.406 99.5343 171.249 99.6371 171.455L99.6628 171.497L99.5257 171.163C98.1717 167.795 98.7201 163.948 101.925 161.831L102.277 161.608C103.322 161 104.616 160.708 105.927 160.708C109.201 156.706 114.068 155.789 118.636 156.955L118.799 155.661C118.816 155.446 118.842 155.232 118.859 155.018C122.398 143.278 120.684 129.935 113.777 118.776ZM270.918 0.596106L269.744 0.412712C260.857 -0.871873 254.816 0.607192 249.031 8.20501C246.28 11.8257 247.129 17.2931 249.031 20.9935C255.184 32.9489 272.109 30.4766 283.507 32.8513C294.639 35.1677 305.736 38.3212 316.157 42.9111C326.783 47.5944 336.75 53.1347 346.476 59.4616C355.277 65.187 363.256 73.7918 373.308 77.1228C373.762 77.2727 374.302 76.8674 374.276 76.3875C373.556 64.9531 364.01 54.457 356.614 46.3141C348.062 36.8979 337.667 28.5373 326.835 21.8898C315.651 15.0333 303.568 9.38766 291.057 5.44992C284.475 3.37608 277.731 1.72815 270.918 0.596106ZM135.544 16.1208C124.352 -0.246288 96.535 2.89188 80.1241 7.26666C59.5485 12.7469 37.2503 23.8335 22.819 39.8801C9.89604 54.2556 29.2291 72.933 43.7632 60.8362L47.6452 57.6183L50.1305 55.5788C61.2881 46.4615 72.3343 38.2107 85.9343 32.1323C101.874 25.0084 118.028 21.5385 134.884 17.7421C135.544 17.5939 135.929 16.695 135.544 16.1208Z" fill="black"></path> <path fill-rule="evenodd" clip-rule="evenodd" d="M305.247 382.528C290.585 348.181 258.595 322.935 221.762 313.697C194.708 306.936 166.325 307.158 138.748 309.841C124.309 311.238 108.806 312.377 95.1976 317.742C83.5686 322.327 74.0907 330.999 66.9694 341.171C58.494 353.229 52.7266 367.026 48.6731 381.166C48.099 383.18 47.5591 385.202 47.0535 387.241C48.8103 397.911 52.5552 406.995 62.436 413.696C72.0768 420.252 83.5773 422.934 95.0434 423.885C96.166 423.345 97.2543 422.788 98.2484 422.214C116.116 411.982 128.696 387.799 151.251 391.072C171.381 393.994 184.63 419.335 196.602 434.186C235.019 438.668 273.411 427.116 304.673 405.135C306.259 397.619 306.353 390.027 305.247 382.528ZM20.9419 356.468C24.0184 347.847 27.8833 339.483 32.4766 331.616C47.6448 305.582 70.9286 284.835 98.5741 272.974C163.977 244.969 248.594 264.713 301.408 310.655C319.447 326.363 337.692 349.441 343.211 374.267C344.856 374.593 346.407 375.45 347.693 376.658C385.845 352.62 425.145 329.5 455.893 296.189C478.217 271.98 493.753 243.332 503.266 211.856C504.037 209.268 508.219 209.645 508.09 212.516C508.056 213.184 508.022 213.852 507.979 214.521C508.382 213.287 510.258 213.921 510.404 215.121C515.52 253.358 521.922 293.901 516.026 332.336C512.504 355.277 502.083 372.065 488.166 390.198C473.246 409.634 456.364 427.707 439.096 445.044C428.136 456.047 416.695 468.739 403.275 476.811C387.67 486.186 369.974 493.308 353.314 500.54C336.381 507.919 319.182 514.74 301.665 520.653C266.641 532.505 230.443 540.706 193.611 544.297C164.123 547.159 130.419 550.279 102.156 539.181C80.5008 530.68 63.0102 515.306 49.1445 496.804C34.0449 476.666 22.116 453.716 15.5174 429.524C8.66172 404.389 19.4937 360.521 20.9419 356.468Z" fill="black"></path> </svg> 