<?xml version="1.0" encoding="UTF-8"?> <svg xmlns="http://www.w3.org/2000/svg" width="1334" height="1000" viewBox="0 0 1334 1000" fill="none"> <g clip-path="url(#clip0_955_5454)"> <path d="M0.609375 0H1333.94V1000H0.609375V0Z" fill="white" fill-opacity="0.01"></path> <path fill-rule="evenodd" clip-rule="evenodd" d="M810.267 648.748C808.174 679.442 766.525 695.4 741.263 701.949C746.327 671.838 752.866 640.623 748.797 610.085C747.458 600.027 745.7 590.021 743.812 580.053C743.115 576.367 742.394 572.684 741.648 569.007C741.467 568.113 740.003 564.2 740.469 563.308C741.303 561.713 748.37 561.963 750.171 562.033C754.81 562.21 759.363 563.383 763.608 565.238C772.531 569.133 780.048 575.84 786.241 583.244C800.848 600.701 811.846 625.602 810.267 648.748ZM762.047 440.1C737.868 454.417 708.743 462.101 681.165 465.846C639.154 471.551 596.258 464.984 555.185 455.882C545.1 453.648 535.036 451.239 525.1 448.412C524.652 477.52 532.841 505.201 548.835 529.476C562.057 549.546 579.314 566.32 594.397 584.911C608.439 602.217 619.764 621.739 620.327 644.581C620.561 654.114 619.777 662.837 611.796 669.014C603.775 675.222 592.941 677.524 583.126 678.938C558.551 682.48 532.811 680.566 508.389 676.667C503.647 675.91 498.914 675.048 494.234 673.969C488.921 672.747 487.059 671.304 482.621 675.294C473.044 683.9 468.651 696.809 466.482 709.158C462.417 732.286 463.796 759.265 469.655 782.084C475.301 804.064 501.944 816.247 521.682 821.559C581.219 837.581 646.905 815.454 692.589 776.063C693.583 775.204 694.572 774.334 695.536 773.438C698.781 780.195 702.324 786.833 706.197 793.249C708.891 797.714 711.726 802.201 715.124 806.175C716.35 807.609 717.79 809.548 719.467 810.488C722.59 812.236 725.764 810.951 729.298 810.337C755.372 805.809 781.385 799.855 806.178 790.479C843.87 776.223 877.674 752.739 895.539 715.643C904.564 696.904 909.268 676.373 911.546 655.783C914.159 632.143 914.724 607.976 908.07 584.934C895.88 542.708 864.777 508.476 830.716 482.074C809.641 465.735 786.47 450.972 762.047 440.1Z" fill="url(#paint0_linear_955_5454)"></path> <path fill-rule="evenodd" clip-rule="evenodd" d="M1188.08 160.474C1182.57 162.664 1176.64 163.274 1170.78 163.702C1166.18 164.038 1162.57 165.882 1158.24 165.986C1146.17 166.274 1134.05 166.815 1122.05 168.619C1109.99 170.43 1098.88 168.064 1089.36 177.125C1085.97 180.349 1081.72 184.056 1083.76 189.261C1084.69 191.643 1086.01 193.353 1086.78 195.912C1087.66 198.803 1088.75 201.535 1090.02 204.289C1092.46 209.57 1104.65 229.24 1094.75 231.646C1084.03 234.254 1069.49 231.206 1059.15 228.221C1053.13 226.481 1047.19 224.44 1041.25 222.43C1036.55 220.839 1030.37 219.936 1026.04 217.444C1023.16 215.789 1022.57 212.966 1020.67 210.284C1017.21 205.405 1013.99 201.25 1009.52 197.19C1000.26 188.77 988.674 183.052 977.253 178.027C976.516 177.701 975.17 176.942 974.375 176.866C973.515 176.787 972.569 177.672 972.013 177.564C970.49 177.268 969.959 176.31 968.292 175.363C966.053 174.093 956.924 169.862 955.328 173.188C956.821 168.819 957.912 170.08 961.955 170.714C963.737 170.995 964.928 170.178 966.528 170.261C968.002 170.335 968.608 171.175 969.839 171.401C972.096 171.815 974.197 171.503 976.553 171.486C977.186 170.089 978.084 170.099 979.247 171.516C979.897 171.727 980.546 171.936 981.195 172.149C983.541 172.792 986.049 172.668 988.45 172.857C992.058 173.143 1001.46 177.542 1003.27 173.09C1005.2 168.336 999.336 167.151 998.358 163.833C997.405 160.578 1001.87 158.668 1003.66 156.703C1005.7 154.468 1006.95 152.505 1009.35 150.537C1010.75 149.38 1012.59 148.303 1013.63 146.763C1014.59 145.346 1014.55 143.056 1015.79 141.876C1017.27 140.469 1017.5 141.443 1018.84 140.763C1021.48 139.427 1020.32 139.495 1021.88 137.669C1023.21 136.109 1024.2 136.156 1025.95 134.961C1028.5 133.21 1029.4 129.788 1031.89 127.907C1033.71 126.529 1036.6 126.531 1038.2 125.1C1039.14 124.258 1038.85 122.892 1039.66 122.096C1041.22 120.567 1042.29 121.188 1044.23 120.684C1047.52 119.834 1048.58 118.019 1050.99 115.918C1053.2 114 1054.6 114.008 1057.37 113.212C1061.14 112.126 1063.58 109.281 1066.99 107.609C1070.2 106.037 1073.51 104.934 1076.75 103.259C1079.1 102.049 1081.36 101.298 1083.5 100.063C1084.22 99.6465 1084.28 98.12 1085.21 97.9134C1086.28 97.675 1087.14 99.454 1088.28 99.5472C1090.66 99.7432 1093.38 97.0965 1094.95 95.564C1095.63 94.8983 1096.55 93.0979 1097.43 92.726C1099.26 91.9468 1100.35 93.4898 1101.99 92.8807C1104.28 92.026 1103.37 89.5231 1104.77 88.1431C1106 86.9389 1108.61 87.0204 1110.79 87.4017C1119.58 88.9341 1105.9 95.1439 1103.33 96.4C1099 98.5155 1067.52 113.905 1074.89 121.58C1078.78 125.64 1088.3 122.587 1092.53 121.517C1099.96 119.642 1107.7 116.03 1115.32 115.201C1116.26 115.099 1119.07 115.773 1119.83 115.479C1121.56 114.817 1121.13 113.492 1122.54 112.795C1124.66 111.749 1128.99 111.8 1131.13 112.035C1132.82 112.219 1134.66 113.223 1136.37 113.087C1138.25 112.937 1140.07 111.842 1141.94 111.489C1145.13 110.887 1148.44 111.182 1151.67 111.275C1156.31 111.411 1165.59 112.112 1158.85 118.279C1153.39 123.271 1143.94 125.431 1137.06 127.609C1126.87 130.828 1116.87 133.758 1106.81 137.426C1099.96 139.923 1085.35 144.311 1093.5 153.676C1094.31 152.915 1095.11 152.156 1095.92 151.396C1096.87 152.358 1097.85 154.231 1099.37 154.285C1100.64 154.33 1100.18 152.968 1101.37 152.542C1105.14 151.205 1110.31 151.306 1114.28 151.055C1124.23 150.425 1134.15 149.106 1144.11 148.697C1153.5 148.313 1162.98 148.813 1172.18 150.781C1174.55 151.288 1196.62 157.083 1188.08 160.474ZM1106.7 256.764C1107.2 260.944 1105.35 264.326 1104.83 268.363C1104.21 273.245 1104.67 277.544 1103.28 282.397C1100.59 291.831 1098.68 301.482 1095.79 310.861C1090.69 327.421 1082.46 342.046 1074 357.07C1069.68 364.731 1063.18 371.056 1057.24 377.464C1051.15 384.03 1046.29 390.494 1039.01 395.886C1024.46 406.662 1008.77 416.246 991.549 422.068C973.526 428.163 954.571 430.009 935.639 429.234C927.238 428.891 918.332 429.741 910.063 428.383C901.272 426.936 891.744 425.162 883.104 423.026C867.242 419.111 851.959 412.464 836.468 406.526C819.169 399.895 803.593 391.43 787.819 381.867C783.644 379.337 779.233 378.156 775.32 375.094C772.019 372.514 768.773 370.047 765.303 367.69C761.32 364.987 757.507 362.031 753.438 359.462C751.007 357.926 747.587 356.423 746.311 353.643C744.554 349.819 746.671 345.017 747.765 341.307C749.19 336.479 750.705 331.711 752.418 326.978C755.317 318.964 762.696 306.603 758.638 298.13C750.082 303.431 746.308 313.852 742.651 322.71C738.282 333.293 735.233 343.85 734.574 355.328C733.251 378.417 737.114 402.719 745.49 424.247C746.735 427.444 748.921 430.912 747.315 434.332C745.628 437.921 741.053 440.952 737.536 442.504C726.41 447.412 715.239 448.841 703.619 451.556C700.455 452.294 696.992 454.514 694.023 454.794C692.019 454.983 690.363 454.326 688.067 454.341C685.763 454.357 683.959 455.647 681.897 455.785C680.096 455.908 678.498 454.854 676.781 454.953C672.94 455.177 672.231 461.762 670.326 455.965C669.981 456.203 668.074 458.365 667.834 458.366C667.291 458.367 666.334 456.755 665.816 456.469C664.806 455.909 663.475 455.876 662.346 455.731C659.855 455.406 657.168 455.374 654.714 455.945C650.165 457.005 645.591 456.559 641.7 456.482C640.816 456.465 640.188 457.177 639.088 457.136C638.587 457.115 637.865 456.228 637.333 456.091C634.257 455.298 631.065 455.891 627.933 455.718C620.573 455.311 613.466 455.115 606.28 453.488C591.55 450.154 576.533 449.486 561.746 446.436C554.212 444.882 546.852 444.034 539.434 441.986C536.828 441.266 534.156 440.926 531.846 439.944C529.64 439.005 530.507 437.755 527.084 440.266C525.546 436.496 525.364 436.88 521.652 435.634C520.216 435.151 516.916 433.953 515.847 433.004C515.74 432.909 513.455 427.171 513.259 426.465C512.307 423.038 513.1 419.12 513.497 415.671C514.394 407.895 515.691 400.18 515.768 392.341C515.802 388.884 516.425 388.784 517.501 386.178C517.833 385.371 518.811 385.435 518.892 384.206C519.002 382.567 517.325 381.426 517.506 379.512C517.747 376.936 520.333 374.327 521.24 371.927C522.332 369.038 522.317 365.982 522.968 362.991C523.839 359.012 525.522 355.277 526.369 351.281C527.091 347.897 527.16 345.206 528.962 342.302C530.765 339.404 530.234 337.038 531.67 334.151C532.988 331.504 534.655 330.553 535.557 327.357C537.742 319.624 541.062 311.968 545.765 305.412C549.902 321.85 554.303 338.835 565.821 351.828C570.566 357.179 576.691 362.577 583.845 364.207C591.933 366.05 598.402 361.279 603.669 355.628C616.218 342.16 621.416 327.128 622.174 308.867C622.363 304.328 622.336 299.783 622.274 295.241C622.246 293.22 621.209 288.033 622.595 286.333C624.113 284.47 628.446 285.634 630.701 284.406C633.474 282.893 636.52 278.848 635.283 275.512C642.674 278.858 649.74 283.263 657.959 284.195C661.213 284.565 664.678 284.003 667.588 283.848C667.501 283.852 669.841 284.33 669.981 284.361C670.558 283.695 671.183 283.534 671.855 283.875C672.453 283.939 672.888 284.259 673.161 284.839C684.876 286.009 696.671 280.22 706.699 274.089C712.557 270.505 718.992 265.202 720.636 258.227C721.224 255.738 720.716 253.393 723.289 252.124C725.379 251.09 729.415 252.581 731.621 252.742C739.38 253.311 747.026 252.574 754.601 254.887C759.224 256.298 767.294 266.188 770.518 259.231C771.916 260.543 771.157 262.88 772.645 264.158C773.944 265.271 778.307 266.055 780.101 267.008C782.881 268.482 784.511 270.444 786.945 272.216C789.935 274.395 793.063 274.563 795.958 277.119C805.983 285.97 817.725 292.382 828.918 299.723C842.198 308.431 853.95 318.697 868.2 325.8C882.774 333.063 896.876 339.13 912.802 342.909C920.026 344.624 927.434 346.055 934.851 346.583C938.349 346.831 941.686 346.706 945.059 347.755C947.109 348.393 947.772 348.712 949.785 348.771C950.958 348.805 952.656 348.128 954.101 348.154C957.069 348.207 958.584 348.085 961.263 349.067C964.293 350.177 966.812 350.845 970.263 350.94C974.231 351.052 976.569 349.527 980.174 348.587C983.08 347.83 985.697 348.192 988.298 346.617C999.858 339.625 1009.15 328.947 1015.21 316.824C1022.17 302.912 1027.53 285.951 1028.62 270.359C1029.24 261.435 1027.28 252.732 1023.87 244.538C1022.91 242.227 1017.13 232.382 1018.91 230.594C1020.93 228.561 1027.53 233.219 1029.39 234.231C1035.29 237.439 1045.95 238.466 1050.09 243.863C1051.14 241.841 1057 244.839 1058.88 245.682C1060.44 246.38 1060.88 247.642 1062.84 247.793C1064.68 247.935 1066.58 246.465 1068.28 245.996C1067.04 249.451 1071.2 249.612 1074.05 249.796C1076.11 249.927 1078.32 249.604 1080.15 249.474C1083.65 249.225 1083.7 248.439 1086.9 246.645C1086.78 247.958 1086.92 249.242 1087.33 250.495C1089.38 247.52 1093.3 249.586 1096.08 248.279C1094.08 245.233 1102.64 244.399 1104.64 245.039C1109.66 246.652 1106.26 253.061 1106.7 256.764ZM713.328 466.095C716.643 465.107 719.979 464.203 723.303 463.259C720.785 465.57 718.169 469.741 714.573 470.392C710.234 471.175 708.526 467.526 713.328 466.095ZM549.675 467.751C555.256 468.419 561.333 467.908 566.225 471.203C563.841 473.945 562.293 476.816 558.316 475.244C554.975 473.923 552.225 470.156 549.675 467.751ZM736.121 617.918C732.457 614.632 732.94 613.162 734.66 608.908C735.401 607.077 736.573 601.389 739.352 603.056C740.339 603.647 741.535 609.845 741.712 611.102C742.105 613.909 740.368 621.728 736.121 617.918ZM756.789 598.833C755.494 594.076 755.539 588.896 754.266 584.022C752.924 578.875 751.272 573.711 750.796 568.392C770.16 571.813 781.156 591.029 789.543 607.065C793.998 615.586 798.368 625.01 800.049 634.537C801.688 643.819 798.843 650.867 795.537 659.139C793.852 663.363 791.067 664.828 787.816 667.619C784.934 670.091 783.855 674.263 780.852 676.484C778.635 678.126 775.752 678.978 773.433 680.636C771.142 682.272 768.85 683.895 766.485 685.425C763.781 687.171 755.679 693.541 752.03 692.181C749.297 691.164 750.514 687.82 751.203 685.724C752.652 681.305 753.67 677.05 754.565 672.443C756.954 660.151 758.248 647.935 758.868 635.432C759.472 623.224 760.036 610.751 756.789 598.833ZM740.595 654.276C740.885 654.88 742.095 660.04 739.395 658.981C737.52 658.242 740.32 655.224 740.595 654.276ZM752.002 449.391C754.287 448.447 755.201 451.24 757.212 451.323C759.878 451.434 760.438 448.468 763.237 448.38C770.079 448.165 779.993 454.777 785.557 458.228C782.833 461.672 781.709 465.195 783.063 469.435C784.257 473.171 788.816 477.348 788.649 481.306C788.477 485.275 783.544 487.831 782.006 491.362C780.592 494.606 780.053 501.093 784.418 502.522C791.925 504.982 793.643 490.919 799.332 490.81C801.764 490.764 804.925 495.337 806.674 496.762C810.592 499.951 815.01 502.28 819.566 504.397C822.641 505.826 826.923 508.642 829.203 504.801C831.031 501.725 829.537 496.85 827.761 494.203C825.724 491.167 807.464 477.268 808.617 476.044C809.231 475.391 813.778 477.192 814.423 477.738C815.878 478.97 816.414 480.977 817.872 482.289C820.1 484.293 822.977 485.086 825.731 486.013C831.479 487.944 835.117 494.738 840.687 497.902C843.901 499.727 845.862 503.231 848.58 505.944C852.139 509.496 855.765 513.219 855.23 518.449C854.858 522.074 854.32 530.517 852.27 533.576C850.045 536.895 846.343 535.622 842.962 536.406C839.158 537.288 836.115 540.255 836.873 544.495C837.66 548.902 841.184 549.218 844.867 549.328C855.252 549.642 851.428 556.237 855.049 563.481C857.016 567.414 860.299 568.958 862.557 564.354C864.376 560.65 861.127 554.81 863.101 551.647C865.505 547.792 878.371 548.841 881.054 551.835C883.088 554.106 884.166 557.228 886.195 559.603C889.273 563.208 890.539 568.263 892.386 572.684C894.347 577.378 896.058 582.139 897.559 587.003C898.615 590.418 900.894 595.828 895.438 592.91C891.627 590.874 888.781 586.277 883.953 586.132C879.177 585.988 876.455 590.949 877.851 595.263C879.2 599.438 885.358 601.276 886.07 605.509C886.854 610.139 878.923 614.863 876.515 618.268C870.97 626.107 875.608 634.932 884.696 628.277C887.918 625.919 891.291 621.162 894.925 619.672C900.674 617.313 900.64 626.051 903.394 629.267C904.877 630.996 905.412 629.238 904.535 631.824C904.21 632.777 902.569 633.076 902.384 634.26C902.251 635.129 903.028 635.589 903.056 636.261C903.147 638.539 903.152 638.875 902.639 641.352C902.072 644.096 902.278 647.508 902.108 650.298C901.716 656.675 901.632 662.764 900.962 669.138C900.591 672.685 899.812 679.912 904 681.641C902.509 683.977 900.524 690.474 897.595 689.986C897.833 691.524 897.699 693.488 899.192 694.494C899.55 693.556 899.907 692.619 900.263 691.68C901.084 693.823 900.362 694.07 900.313 695.53C900.375 693.723 898.665 698.05 899.589 697.516C898.803 698.173 897.766 698.548 896.584 699.4C894.933 700.587 894.063 702.228 892.782 703.835C890.463 706.738 890.597 709.672 888.567 712.701C885.687 716.996 881.992 721.237 878.958 725.53C876.488 729.025 871.781 731.039 869.802 734.796C868.543 737.185 868.041 739.964 865.894 741.643C862.817 744.05 858.707 746.317 855.365 748.802C853.264 750.363 851.666 752.531 849.57 754.047C848.507 754.815 845.311 755.594 845.307 757.158C841.285 756.031 838.436 751.922 835.273 749.422C833.16 747.75 828.126 745.58 828.429 742.229C828.679 739.49 832.575 736.09 833.472 733.216C834.234 730.783 835.292 726.241 833.188 724.16C828.772 719.798 823.764 729.162 821.393 731.654C816.502 736.794 814.423 731.611 810.402 727.878C803.979 721.915 799.941 728.102 802.201 735.526C803.347 739.284 807.708 742.635 807.99 746.474C808.302 750.692 803.731 752.811 801.923 756.181C800.216 759.359 799.427 764.943 802.636 767.573C806.177 770.474 809.255 767.042 811.57 764.365C813.368 762.284 815.367 757.707 818.287 757.447C821.946 757.122 827.946 763.768 830.73 765.819C826.501 767.043 823.955 770.585 820.38 772.853C815.766 775.78 809.325 776.473 804.162 778.482C799.298 780.376 794.921 781.918 790.29 784.267C784.794 787.054 778.071 787.75 772.251 789.779C767.056 791.591 762.126 794.133 756.819 795.629C750.837 797.315 744.628 798.33 738.597 799.854C733.44 801.156 727.39 802.409 722.075 802.418C716.699 802.427 716.811 799.099 715.092 794.663C713.049 789.395 709.666 784.77 707.509 779.629C705.455 774.74 708.556 772.883 711.53 769.142C714.33 765.616 713.589 765.064 717.201 767.54C721.957 770.798 725.097 768.594 728.797 764.846C732.088 761.517 733.297 758.747 738.032 761.068C742.772 763.388 747.286 767.164 752.377 768.679C756.389 769.87 759.377 769.004 760.049 764.616C760.774 759.875 758.071 756.51 754.664 753.694C752.07 751.553 746.405 749.012 745.457 745.537C744.458 741.875 749.718 736.534 750.281 732.44C750.989 727.271 748.764 723.471 743.86 727.05C740.303 729.645 737.936 735.274 732.997 735.622C734.368 729.869 737.343 724.755 739.895 719.482C742.035 715.069 743.869 710.057 749.612 709.565C751.474 709.406 752.684 709.6 754.461 709.28C756.806 708.858 759.988 708.522 762.496 707.889C768.394 706.399 773.604 701.844 779.035 699.233C780.281 702.585 782.484 712.13 787.556 706.557C791.307 702.435 787.152 695.34 790.608 690.754C797.737 681.292 813.263 688.24 822.628 683.361C826.705 681.237 830.024 674.464 824.276 672.421C820.916 671.228 811.217 675.633 809.196 672.386C807.755 670.069 813.792 661.022 814.522 658.535C816.792 650.796 816.424 642.76 816.424 634.789C820.981 636.654 826.748 641.018 831.66 641.616C836.709 642.229 837.597 636.3 836.274 632.405C834.45 627.039 828.373 622.642 824.208 619.185C822.371 617.663 817.563 615.21 816.557 612.893C815.518 610.501 817.006 609.343 818.173 607.264C819.996 604.016 824.412 595.619 819.606 592.576C815.186 589.775 812.705 597.624 809.889 599.302C805.11 602.151 803.472 595.625 801.572 592.304C798.123 586.274 793.343 580.892 789.053 575.466C785.147 570.527 782.74 567.185 782.17 560.892C781.738 556.125 780.764 552.435 786.384 551.352C796.347 549.432 810.934 554.163 819.028 546.055C823.273 541.803 820.24 537.408 814.881 537.626C807.841 537.914 801.147 538.262 794.061 537.69C790.294 537.387 782.419 538.302 780.517 534.419C778.069 529.419 782.22 521.387 777.712 517.005C771.958 511.41 770.548 524.055 770.358 527.546C770.217 530.09 770.869 533.962 769.287 536.163C767.81 538.215 765.11 538.185 762.927 538.927C757.427 540.797 754.586 547.556 761.882 548.986C764.337 549.468 767.76 548.767 769.799 550.587C771.936 552.492 771.119 555.878 771.32 558.445C766.209 552.52 755.583 555.146 748.661 552.945C745.015 551.787 744.399 550.242 742.865 546.711C741.01 542.438 736.78 537.034 736.617 532.309C736.48 528.297 739.821 525.277 741.38 521.819C742.718 518.852 743.929 514.022 743.731 510.693C743.253 502.662 728.767 510.859 725.782 513.932C720.367 519.509 713.69 526.723 716.626 534.622C719.244 541.671 720.634 545.668 711.548 545.113C708.222 544.91 701.238 545.569 698.657 544.164C696.742 543.122 697.462 541.253 697.398 538.544C697.345 536.198 697.522 532.642 696.017 530.591C690.717 523.38 689.477 541.326 686.501 543.27C681.852 546.31 672.01 543.124 672.769 552.146C673.435 560.04 684.102 556.817 687.054 563.608C688.475 566.88 688.173 570.689 689.963 573.846C692.514 578.346 695.653 578.107 697.345 573.415C698.532 570.12 696.949 566.733 697.863 563.624C699.182 559.128 705.463 559.544 709.328 559.037C714.024 558.418 718.118 557.236 722.586 555.79C728.097 554.007 727.798 556.935 728.695 561.175C729.737 566.094 731.328 570.836 732.304 575.828C733.213 580.481 735.626 585.491 736.019 590.147C736.319 593.707 735.113 593.382 732.166 595.436C728.944 597.681 725.398 603.517 721.66 604.477C716.036 605.921 710.368 593.063 705.252 599.642C703.054 602.466 703.905 608.481 705.467 611.399C707.531 615.254 711.325 616.234 708.145 620.651C705.755 623.969 702.751 626.539 702.527 631.004C702.317 635.149 705.135 639.069 709.541 637.852C713.101 636.87 715.205 633.223 717.901 631.009C722.554 627.188 726.375 630.728 731.138 632.891C734.886 634.594 741.777 635.705 743.657 639.71C746.045 644.792 742.984 646.757 738.548 645.311C740.277 650.994 738.002 654.294 737.379 660.167C736.873 664.921 735.781 669.27 735.084 673.866C734.16 680.003 734.062 679.337 727.747 679.546C722.382 679.723 717.166 679.58 711.808 679.344C707.088 679.137 703.877 679.564 703.665 673.866C703.571 671.352 705.156 662.827 700.201 663.85C695.838 664.751 697.095 672.541 695.635 675.468C693.524 679.705 689.953 678.409 685.98 679.455C681.938 680.52 678.672 683.504 679.713 688.116C680.828 693.039 685.339 692.697 689.261 693.836C695.3 695.589 693.976 704.474 697.501 709.301C698.94 711.27 700.454 713.259 702.869 711.643C707.298 708.678 703.117 701.436 704.287 697.802C705.518 693.981 709.668 694.763 713.589 694.267C719.38 693.537 725.44 690.744 731.208 690.777C730.102 694.107 727.003 696.042 725.888 699.547C725.29 701.426 725.849 704.935 725.018 706.488C724.126 708.158 721.312 708.658 720.148 710.979C718.625 714.02 718.155 717.276 716.372 720.254C712.158 727.296 708.53 734.495 704.05 741.465C699.425 748.663 694.441 755.513 688.623 761.753C682.979 767.807 681.295 764.875 676.445 759.926C674.471 757.912 670.277 755.58 669.729 752.572C669.186 749.606 671.639 747.186 672.981 744.772C674.763 741.572 677.976 736.065 677.194 732.225C675.724 725.014 669.278 731.654 666.834 734.353C662.566 739.068 660.181 744.026 653.73 740.302C649.601 737.917 644.394 731.389 638.975 733.803C634.041 736.001 635.423 742.35 638.458 745.572C640.158 747.376 642.58 748.409 644.384 750.098C648.267 753.738 646.069 754.727 644.297 758.803C642.846 762.142 642.636 768.703 645.31 771.484C650.571 776.953 654.639 765.921 659.522 765.695C661.837 765.59 671.458 771.904 672.144 774.177C673.347 778.165 662.967 782.928 660.209 784.801C653.794 789.155 646.806 793.594 639.589 796.481C631.074 799.888 637.42 789.151 632.765 785.583C626.711 780.943 626.242 793.656 625.621 796.815C623.97 805.216 615.096 805.435 607.937 807.518C603.38 808.845 598.819 810.254 594.214 811.408C590.307 812.387 585.932 812.363 582.144 813.576C578.823 814.639 576.549 816.797 572.834 816.822C571.626 816.831 570.576 816.421 569.411 816.393C567.062 816.336 564.908 817.68 562.662 817.541C558.928 817.307 560.553 816.13 559.252 813.524C558.032 811.078 554.928 810.18 552.513 809.415C545.587 807.227 539.821 809.145 538.816 800.339C538.506 797.634 538.915 786.53 533.77 787.828C527.763 789.341 533.049 802.539 529.32 805.846C527.505 807.456 524.765 806.652 522.578 807.129C518.987 807.909 517.412 810.621 513.481 810.439C510.165 810.287 507.078 808.814 504.187 807.352C499.879 805.171 494.738 803.727 491.145 800.4C486.221 795.837 484.061 788.736 481.962 782.569C478.873 773.486 477.557 764.435 477.061 754.91C476.888 751.59 475.477 749.249 474.888 746.202C474.261 742.962 476.113 742.313 476.539 739.244C476.953 736.259 476.752 733.072 477.38 729.874C478.282 725.276 478.597 720.573 479.472 715.961C480.92 708.335 483.115 700.761 484.918 693.203C485.477 690.854 486.492 683.328 489.389 682.606C491.527 682.072 496.463 685.255 498.444 686.19C502.362 688.038 505.729 690.59 509.92 691.87C512.083 692.53 514.813 692.465 516.233 694.473C518.476 697.651 516.662 703.875 517.592 707.63C518.73 712.228 522.498 714.184 525.535 709.565C527.153 707.104 526.722 704.168 526.94 701.447C527.25 697.522 527.319 696.573 531.565 696.837C535.866 697.107 540.065 698.731 544.475 698.928C548.451 699.106 552.448 698.996 556.42 698.779C566.067 698.25 574.89 696.681 583.937 693.246C590.066 690.919 597.173 685.832 603.927 686.012C613.461 686.264 610.88 695.091 612.184 701.694C612.98 705.712 619.7 718.05 622.282 708.038C623.558 703.085 619.304 695.865 621.825 691.392C624.802 686.107 635.743 690.492 640.721 689.268C644.75 688.277 651.483 682.565 648.638 677.637C647.29 675.302 644.673 675.745 642.339 675.57C637.916 675.24 633.523 674.636 629.136 673.99C626.642 673.623 622.828 673.408 621.83 670.542C620.984 668.109 624.954 661.802 625.816 659.475C628.665 651.771 629.692 645.505 629.704 637.104C629.707 633.319 629.954 629.324 629.346 625.58C629.122 624.207 627.063 619.727 628.027 618.415C629.324 616.651 631.977 618.891 633.043 620.212C635.158 622.846 634.423 622.635 633.22 625.365C631.449 629.379 628.007 637.798 633.845 640.888C639.949 644.12 642.155 633.198 647.938 634.396C650.635 634.955 653.297 638.5 655.47 640.156C658.014 642.096 660.76 644.154 663.75 645.344C668.655 647.297 674.166 645.833 672.184 639.664C670.622 634.8 665.678 630.731 662.143 627.281C656.511 621.788 656.766 619.479 660.657 613.008C662.286 610.3 668.539 598.8 661.291 597.865C657.455 597.369 653.307 603.589 651.281 605.969C647.803 610.053 645.81 611.807 640.635 608.527C635.578 605.322 633.23 602.642 627.113 602.346C620.075 602.007 616.908 591.431 613.178 586C603.041 571.247 587.523 563.951 574.438 552.647C568.062 547.138 563.756 539.931 558.907 533.15C556.599 529.919 553.617 527.237 551.735 523.718C550.552 521.504 547.345 516.169 548.179 513.557C549.218 510.306 554.826 508.3 557.158 506.003C559.117 504.077 560.162 501.675 563.242 502.41C565.983 503.067 568.453 506.776 570.694 508.406C572.893 510.007 575.375 511.491 577.813 512.688C582.225 514.852 587.55 516.008 587.809 509.427C588.035 503.733 582.842 497.636 579.091 493.794C576.36 490.999 572.225 488.569 572.767 484.13C573.033 481.928 574.903 478.009 575.994 476.163C579.756 469.807 591.24 473.685 597.481 474.093C605.001 474.585 613.291 473.322 619.268 478.642C621.217 480.378 625.735 483.787 626.692 486.202C627.806 489.013 625.987 490.277 624.976 492.999C623.669 496.514 622.77 503.458 626.532 505.883C632.811 509.928 636.084 497.927 642.612 500.552C648.8 503.042 653.127 510.199 660.192 511.332C669.438 512.814 664.173 501.353 660.974 497.981C656.824 493.608 648.777 489.087 651.411 482.622C652.164 480.775 653.884 476.921 655.431 475.774C658.459 473.527 663.341 474.761 666.808 474.797C675.56 474.891 683.821 474.171 692.398 472.641C694.984 472.178 695.571 471.813 697.394 473.74C699.918 476.404 701.242 479.878 704.177 482.498C699.937 487.067 693.653 492.461 696.601 499.495C699.136 505.547 704.696 502.578 708.458 499.345C710.225 497.827 712.049 494.613 714.39 494.004C717.429 493.212 720.845 495.974 723.333 497.375C727.067 499.481 735.053 505.72 739.295 502.037C744.905 497.164 738.267 489.833 734.402 486.824C732.065 485.004 728.951 483.706 726.984 481.46C724.367 478.47 725.902 478.031 727.488 475.337C730.39 470.408 729.326 464.059 733.97 460.208C736.544 458.073 740.225 456.731 743.165 455.165C746.058 453.623 749.164 450.564 752.002 449.391ZM799.309 468.561C798.181 467.87 797.05 467.178 795.923 466.486C798.503 465.228 800.207 465.378 799.309 468.561ZM861.606 528.458C862.061 526.158 863.836 522.042 866.278 524.194C867.851 525.577 866.132 530.771 869.875 529.335C870.067 532.643 867.602 532.362 871.238 535.306C866.652 534.775 860.321 534.982 861.606 528.458ZM683.597 807.382C684.752 804.283 684.743 799.478 688.298 802.31C688.484 798.557 687.596 786.658 694.408 787.141C697.186 787.337 697.155 789.788 697.889 791.91C699.169 795.612 701.33 798.984 703.151 802.435C696.392 802.708 689.627 804.255 683.597 807.382ZM685.811 850.151C689.674 853.07 691.61 849.624 695.257 848.366C698.623 847.206 702.117 847.901 705.846 847.077C710.471 846.056 715.918 846.211 720.436 846.171C721.549 846.162 723.877 846.337 725.002 846.468C727.052 846.702 726.868 847.126 728.99 847.697C729.81 847.508 730.636 847.37 731.472 847.285C732.496 847.24 733.303 847.664 733.894 848.556C735.802 849.191 736.496 848.768 738.323 849.214C742.673 850.276 745.92 852.897 748.761 856.373C754.547 863.445 754.718 874.076 754.586 882.831C754.548 885.324 754.358 887.805 754.634 890.292C754.885 892.573 756.497 896.02 755.839 898.288C754.841 901.719 751.751 900.947 748.152 901.1C746.033 901.191 743.919 902.557 742.233 902.68C740.602 902.797 739.945 902.195 738.295 901.826C733.989 900.862 728.908 902.237 724.661 903.409C720.303 904.612 716.481 905.798 712.062 906.65C709.186 907.203 706.599 907.518 703.698 907.88C701.319 908.179 700.293 909.431 698.217 909.947C696.216 910.443 694.264 909.699 692.244 910.09C689.492 910.622 687.574 912.642 685.066 913.647C681.609 915.034 676.083 912.962 674.55 917.237C673.951 913.115 669.997 914.234 667.053 913.87C662.203 913.268 657.423 911.093 652.757 909.705C648.932 908.568 635.705 898.083 633.173 902.339C633.177 901.909 633.636 899.471 633.237 899.19C631.825 898.198 631.837 898.744 630.317 898.122C627.993 897.172 627.014 896.314 625.352 894.711C621.992 891.473 617.47 889.779 613.931 886.841C605.037 879.46 601.993 864.255 599.824 853.672C596.987 858.702 598.031 852.248 598.522 850.09C599.683 845.001 598.19 842.491 597.852 837.576C597.541 833.052 599.602 832.158 603.686 831.685C608.716 831.102 613.557 830.288 618.484 829.033C623.188 827.833 627.798 826.481 632.044 824.095C635.929 821.913 640.006 821.055 643.979 819.145C648.36 817.037 652.657 814.822 657.078 812.768C659.07 811.844 667.843 805.223 669.367 805.626C672.493 806.455 669.541 811.93 668.588 813.367C666.139 817.057 662.117 818.768 658.489 821.091C655.217 823.184 645.293 833.102 655.368 832.107C662.044 831.448 666.566 824.451 670.837 832.425C672.345 835.241 674.563 837.5 672.83 840.41C670.41 844.47 663.428 846.405 659.768 849.137C656.648 851.465 650.265 862.443 656.698 863.62C658.546 863.957 661.397 863.52 662.772 862.082C663.699 861.113 663.634 859.119 664.571 858.456C665.901 857.514 668.483 858.68 670 858.164C672.161 857.429 672.669 856.249 673.463 854.172C675.772 855.225 675.804 856.638 678.44 855.28C679.313 854.83 679.635 853.176 680.647 852.734C682.006 852.142 682.411 854.085 683.157 853.798C685.178 853.023 685.17 852.15 685.811 850.151ZM547.252 817.865C543.381 818.155 539.153 818.466 535.85 815.999C539.863 816.241 543.403 817.147 547.425 816.318C549.024 815.988 551.584 814.479 553.222 815.004C559.044 816.871 548.802 817.747 547.252 817.865ZM536.501 477.301C536.444 475.939 535.289 457.619 541.546 464.815C543.26 466.784 541.412 469.421 541.169 471.598C540.757 475.267 542.044 478.944 543.976 482.034C545.78 484.915 549.147 487.439 548.643 491.197C548.2 494.494 544.873 497.309 543.234 500.044C539.203 493.69 536.825 484.948 536.501 477.301ZM522.746 285.029C508.244 286.555 493.816 289.255 479.834 293.423C466.106 297.514 453.309 303.912 440.41 310.04C437.751 298.656 434.967 287.302 432.341 275.909C431.078 270.426 429.871 264.928 428.688 259.426C427.846 255.514 424.785 248.22 426.062 244.373C426.74 242.333 427.635 242.324 429.093 241.065C429.984 240.297 431.536 238.417 432.459 238.014C434.708 237.037 440.483 236.18 442.783 236.319C444.881 236.445 445.977 237.279 448.135 236.676C449.972 236.163 451.515 234.749 453.239 233.974C457.626 232.001 463.102 231.34 467.794 230.296C472.31 229.292 476.971 229.068 481.497 228.073C485.461 227.201 487.345 224.283 490.726 224.388C499.526 224.663 509.256 223.632 517.987 221.529C527.782 219.171 538.438 219.626 548.488 219.374C552.492 219.274 555.306 218.372 555.326 222.831C555.35 228.271 553.177 234.379 552.069 239.69C549.609 251.466 547.527 262.913 546.597 274.87C546.132 280.852 543.681 280.434 538.819 282.268C533.408 284.309 528.5 284.425 522.746 285.029ZM446.502 405.846C450.075 406.374 449.665 396.6 449.927 394.613C458.446 410.68 468.04 426.142 475.547 442.736C477.3 446.616 478.894 450.586 480.748 454.419C482.017 457.044 484.855 460.568 484.787 463.621C484.714 466.807 482.142 468 479.429 469.181C476.498 470.457 475.354 471.094 473.287 469.619C470.787 467.831 468.7 462.326 467.156 459.672C464.798 455.62 462.54 451.51 460.23 447.432C456.046 440.038 451.109 432.958 447.671 425.197C444.451 417.925 439.579 411.667 436.108 404.524C432.67 397.449 427.966 390.742 424.014 383.818C427.983 382.167 432.929 378.04 437.438 378.27C442.096 378.507 441.983 383.003 442.184 386.748C442.397 390.724 441.066 405.042 446.502 405.846ZM457.944 478.436C455.819 480.957 451.027 482.439 448.088 483.837C444.018 485.774 439.851 487.496 435.8 489.471C422.51 495.957 409.276 501.893 395.737 507.849C388.738 510.927 381.825 514.199 374.996 517.636C371.418 519.435 363.535 525.742 359.419 525.902C354.7 526.086 354.589 516.557 353.55 512.983C352.677 509.992 351.056 507.664 349.964 504.83C349.52 503.671 349.865 502.793 349.188 501.646C348.418 500.339 346.257 499.285 345.147 498.159C340.431 493.369 336.522 487.271 332.539 481.875C328.89 476.932 322.666 470.744 320.916 464.686C317.475 452.779 337.468 446.188 345.118 441.404C358.511 433.027 371.97 424.423 384.738 415.117C390.553 410.878 396.247 406.47 402.092 402.268C404.82 400.309 412.379 392.682 415.88 395.4C417.183 396.412 417.208 399.211 417.752 400.679C418.941 403.886 420.746 406.685 422.574 409.561C424.198 412.108 426.506 414.742 427.52 417.585C428.73 420.974 428.674 422.893 430.888 425.934C434.914 431.462 436.815 437.841 440.558 443.478C444.168 448.913 447.635 452.922 449.996 458.995C451.35 462.475 453.487 465.563 455.375 468.763C456.264 470.275 457.194 471.761 457.99 473.326C459.418 476.122 459.921 476.086 457.944 478.436ZM343.704 524.945C341.149 526.774 337.389 523.701 334.911 523.659C333.833 523.639 332.763 524.481 332.043 524.457C329.877 524.392 328.108 522.938 326.114 522.261C316.912 519.13 305.941 519.011 298.08 512.654C282.464 500.024 289.91 474.682 292.754 458.266C293.333 454.918 294.376 450.283 291.671 447.54C288.707 444.535 284.247 446.328 281.533 448.761C278.75 451.253 276.856 454.745 274.543 457.656C270.856 462.293 266.833 466.676 262.769 470.979C248.33 486.27 233.04 503.766 215.178 514.987C207.75 519.655 201.026 525.981 192.884 529.538C183.089 533.816 193.144 517.298 194.905 514.615C206.432 497.048 223.214 483.143 237.308 467.723C239.968 464.813 243.746 460.889 243.793 456.697C243.864 450.401 238.304 450.966 233.907 452.714C229.795 454.349 227.735 458.418 224.427 461.198C220.308 464.66 215.496 467.468 210.911 470.261C201.023 476.287 190.527 481.343 180.062 486.272C175.168 488.578 170.25 490.835 165.332 493.091C163.981 493.711 155.914 498.83 156.299 494.442C156.351 493.852 161.498 487.6 162.134 487.369C165.303 486.21 166.875 489.707 169.695 485.124C171.699 481.869 171.976 480.18 174.806 477.71C175.287 477.29 175.618 476.228 176.009 475.539C175.961 475.798 178.11 473.707 177.699 474.07C178.264 473.572 179.084 472.658 179.543 472.059C181.755 469.171 186.006 469.116 187.928 465.815C188.661 464.559 188.246 462.947 189.13 461.699C190.368 459.949 193.092 459.205 194.545 457.665C195.791 456.343 196.819 455.264 197.592 454.456C198.125 453.899 199.06 453.508 199.69 452.87C201.259 451.283 201.135 449.878 203.33 448.543C205.302 447.346 206.208 448.466 206.89 445.501C209.289 447.039 208.988 444.789 209.962 443.177C211.227 441.081 212.836 440.146 214.58 438.629C218.419 435.29 222.018 430.32 225.283 426.117C233.406 415.665 239.975 403.444 242.394 390.331C242.974 387.195 243.293 384.027 243.523 380.848C243.645 379.176 243.1 375.104 244.135 373.466C245.743 370.925 248.794 371.934 251.116 370.822C251.905 370.443 252.683 369.33 253.423 369.077C254.458 368.723 255.725 369.068 256.799 368.727C257.217 368.595 257.313 367.367 258.004 367.21C259.358 366.9 260.703 367.392 262.041 367.41C264.97 367.449 267.86 366.934 270.669 366C273.224 365.151 275.362 363.205 277.911 362.503C277.651 362.576 282.113 362.93 281.872 362.679C282.086 361.58 282.299 360.481 282.513 359.382C284.207 360.565 289.983 362.125 291.774 361.856C294.655 361.421 294.048 358.824 296.489 362.234C297.872 361.029 299.254 359.823 300.635 358.617C301.682 363.011 308.893 360.879 312.161 361.121C316.767 361.465 320.394 360.6 324.591 362.203C329.695 364.156 334.171 366.214 339.669 366.746C343.51 367.117 345.108 368.923 348.871 370.038C353.928 371.534 354.328 373.185 352.746 378.353C351.463 382.543 350.355 385.774 352.229 390.073C355.553 397.697 364.586 400.837 370.41 406.106C356.767 415.681 343.296 425.1 330.109 435.305C324.583 439.578 318.707 443.859 315.559 450.289C312.657 456.224 311.011 463.356 309.265 469.708C305.259 484.274 316.544 494.076 328.136 500.483C330.536 501.807 347.058 522.546 343.704 524.945ZM321.204 542.551C320.388 539.749 320.494 539.001 323.199 537.996C324.222 537.616 328.145 537.119 328.781 538.524C330.218 541.711 322.662 541.671 321.204 542.551ZM436.165 339.555C437.134 345.771 438.087 351.988 438.953 358.219C439.429 361.662 440.511 364.706 437.948 367.302C436.49 368.776 432.957 369.327 431.096 370.112C428.414 371.245 425.799 372.543 423.22 373.895C418.619 376.303 413.812 377.754 409.272 379.927C407.296 380.87 406.126 382.729 404.416 384.012C402.078 385.767 399.233 386.621 396.819 388.29C392.505 391.276 388.552 394.81 384.24 397.815C379.356 401.221 378.338 400.128 375.595 395.095C373.132 390.577 370.177 388.516 366.631 384.974C365.252 383.596 360.317 375.746 364.509 375.07C365.583 374.896 369.294 376.511 370.135 377.027C371.412 377.811 373.454 382.268 374.493 382.344C376.364 382.481 378.76 377.152 379.927 375.75C387.569 366.551 395.975 357.452 404.83 349.405C409.42 345.235 414.242 341.434 419.445 338.067C423.145 335.673 426.375 332.319 430.023 330.048C430.795 329.38 431.669 328.902 432.651 328.616C434.554 327.751 435.269 328.498 434.795 330.854C435.886 333.16 435.768 337.011 436.165 339.555ZM269.006 331.409C270.863 329.518 273.209 328.007 274.829 325.896C275.743 324.706 276.346 322.577 277.392 321.807C279.212 320.466 281.816 321.085 283.933 319.287C285.977 317.548 287.773 315.468 289.77 313.664C294.1 309.758 298.567 306.167 302.815 302.19C305.229 299.93 307.76 296.998 309.905 295.505C310.474 295.109 311.11 294.521 311.714 294.216C313.006 293.565 313.651 294.228 315.536 293.621C316.783 293.221 317.674 291.642 318.674 290.895C321.053 289.119 324.152 288.415 326.441 286.706C328.73 284.996 329.832 282.341 332.983 280.915C336.794 279.192 339.651 280.553 342.406 277.257C343.53 275.913 343.837 274.219 345.601 273.371C347.726 272.349 349.592 273.434 351.622 272.272C352.99 271.488 353.925 269.845 355.338 268.987C357.867 267.457 360.665 267.294 363.03 265.4C365.026 263.802 363.918 263.966 366.281 263.292C367.32 262.995 368.472 262.867 369.582 262.488C373.135 261.276 378.937 259.792 381.041 256.422C382.11 257.981 382.476 258.297 384.209 257.813C385.119 257.072 385.954 256.258 386.714 255.369C387.272 256.073 387.871 256.116 388.509 255.495C392.259 254.206 395.699 251.991 399.393 250.762C399.916 251.044 400.44 251.328 400.962 251.609C401.69 251.65 401.985 251.294 401.847 250.542C403.3 250.276 404.975 249.637 406.313 249.054C408.881 247.935 411.717 245.276 414.742 246.228C419.793 247.817 420.035 258.121 420.906 262.205C423.054 272.268 425.216 282.328 427.373 292.389C428.251 296.484 429.022 300.609 430.177 304.634C430.932 307.264 432.811 311.143 432.132 313.94C431.3 317.369 427.955 318.484 425.158 320.07C421.303 322.255 417.576 324.68 413.928 327.197C398.44 337.88 386.893 352.573 375.911 367.647C373.876 364.69 368.427 360.539 365.03 359.206C362.651 358.274 360.51 359.025 358.142 357.887C356.453 357.074 355.05 355.487 353.453 354.465C343.701 348.219 331.932 343.056 320.629 340.578C297.437 335.491 274.733 343.367 252.246 347.106C256.808 340.832 263.631 336.876 269.006 331.409ZM424.243 161.168C428.212 148.232 434.895 135.708 444.407 126.005C449.203 121.112 454.839 116.837 461.157 114.117C466.653 111.752 473.19 109.484 473.105 117.088C472.919 133.595 469.106 149.915 468.64 166.449C468.187 182.651 470.899 195.656 480.704 208.712C474.492 210.155 468.282 211.619 462.093 213.154C457.393 214.319 452.519 215.626 448.073 216.427C443.677 217.216 439.634 217.732 435.287 219.218C432.358 220.219 427.768 223.28 424.597 222.616C419.328 221.512 420.575 202.607 420.304 198.065C419.544 185.238 420.458 173.513 424.243 161.168ZM520.554 186.074C527.754 177.335 535.234 167.139 547.346 165.517C559.057 163.948 563.373 177.994 562.629 187.465C562.377 190.669 561.901 198.991 559.573 201.587C556.997 204.46 552.425 202.294 549.153 201.852C535.028 199.939 520.548 203.132 506.384 203.132C511.106 197.444 515.854 191.779 520.554 186.074ZM578.51 220.925C583.423 221.629 587.346 222.378 584.974 227.97C580.225 239.172 576.576 249.862 580.738 262.073C583.916 271.399 593.98 282.719 604.036 284.587C607.561 285.242 612.862 284.07 615.027 287.65C616.957 290.839 614.866 300.4 614.64 303.94C613.804 317.129 610.427 330.216 601.89 340.58C594.294 349.801 585.026 357.018 573.979 348.314C564.666 340.978 559.168 327.854 556.412 316.638C554.941 310.651 554.763 304.677 554.481 298.559C554.233 293.147 553.201 289.715 559.32 288.593C560.961 288.293 565.058 288.387 565.063 285.883C565.073 282.518 560.63 283.78 558.931 283.609C552.376 282.956 555.446 275.333 556.057 270.404C557.097 262.009 558.782 253.708 560.329 245.399C561.645 238.32 561.716 229.044 564.575 222.427C566.244 218.563 575.231 220.455 578.51 220.925ZM590.576 245.783C591.321 241.22 591.718 235.518 596.246 232.996C601.22 230.225 603.711 234.74 606.166 238.429C612.677 248.215 619.882 257.373 620.949 269.521C621.076 270.97 621.698 273.879 620.302 274.882C619.678 275.33 618.19 274.149 617.226 274.219C612.069 274.59 608.338 275.971 603.281 273.06C593.386 267.359 588.777 256.793 590.576 245.783ZM629.481 273.111C628.419 262.487 623.511 253.067 618.031 244.098C615.33 239.676 610.082 234.841 608.218 230.169C607.218 227.667 608.987 224.568 612.621 225.641C614.429 226.176 617.915 230.975 619.125 232.636C622.231 236.904 624.807 241.664 627.264 246.324C629.892 251.305 637.359 269.582 629.481 273.111ZM596.908 167.327C597.483 157.332 597.541 145.854 604.014 137.56C609.031 131.128 618.216 128.328 625.668 125.842C635.705 122.491 647.763 121.974 658.261 123.057C667.501 124.011 674.476 130.302 680.177 137.22C685.976 144.255 690.468 153.314 694.457 161.499C695.454 163.547 703.919 176.689 698.194 176.383C695.923 176.261 693.949 171.827 692.209 170.517C690.847 169.492 689.233 169.619 688.011 168.798C686.701 167.919 686.985 167.106 685.97 166.02C678.976 158.551 672.544 162.852 665.001 166.785C664.648 164.18 665.267 159.34 663.087 157.436C660.237 154.944 657.259 158.892 655.213 160.827C653.352 162.591 651.058 165.805 648.713 166.759C645.669 167.997 646.704 166.681 644.06 165.641C638.737 163.547 634.642 169.745 631.95 173.349C630.946 174.693 629.304 178.087 627.506 178.451C625.767 178.801 625.54 177.563 624.041 177.106C619.802 175.813 618.629 178.836 617.278 182.59C615.759 186.811 614.466 190.879 612.216 194.822C608.237 201.798 606.527 204.094 609.674 211.798C605.078 212.481 604.113 213.029 601.833 208.949C599.487 204.745 598.877 201.258 599.024 196.426C599.333 186.32 596.316 177.591 596.908 167.327ZM703.612 215.142C708.424 223.833 711.483 235.928 711.432 245.831C711.406 250.744 711.118 256.785 708.825 261.242C706.625 265.518 702.018 267.659 697.776 269.481C687.548 273.874 676.027 273.823 665.274 271.865C659.694 270.846 654.265 271.504 649.489 268.151C645.895 265.625 641.561 263.173 640.507 258.544C640.067 256.607 640.747 254.983 640.606 253.082C640.781 252.177 640.716 251.296 640.411 250.434C639.783 250.073 639.151 249.721 638.514 249.379C638.011 247.935 638.974 246.326 638.726 244.818C638.429 242.998 636.919 241.516 636.212 239.866C634.267 235.317 635.656 232.772 639.298 229.682C640.169 228.996 641.045 228.318 641.928 227.645C642.72 226.392 643.595 226.387 644.552 227.628C646.286 227.651 646.235 228.186 648.06 227.655C652.054 226.491 655.406 222.24 659.32 220.746C660.841 220.165 663.109 220.659 664.345 219.589C665.448 218.632 664.738 216.624 665.708 215.685C668.803 212.682 673.674 215.529 676.537 211.164C678.875 207.603 678.379 202.551 678.618 198.508C685.793 199.879 688.901 206.755 694.795 210.214C695.961 205.694 696.131 205.83 700.631 204.589C698.592 208.361 701.889 212.031 703.612 215.142ZM709.104 167.164C710.425 168.867 711.434 173.095 709.104 173.503V167.164ZM715.227 182.542C726.182 182.564 733.183 196.413 736.381 204.992C739.858 214.322 743.52 226.766 737.033 235.852C734.545 239.336 731.493 239.655 727.489 239.203C722.665 238.659 720.192 237.961 722.08 232.806C725.617 223.146 722.957 210.865 716.688 202.777C725.31 201.112 719.845 193.203 715.518 190.244C710.463 186.788 706.38 182.522 715.227 182.542ZM465.135 683.21C462.558 690.046 459.938 696.861 457.776 703.904C455.726 710.578 456.914 718.099 454.365 724.517C452.798 723.741 452.349 722.363 450.985 721.526C450.145 721.008 448.682 720.803 447.961 720.233C446.721 719.257 443.714 715.615 442.899 714.202C440.084 709.315 441.962 701.371 443.467 696.349C445.329 690.129 448.511 684.156 452.783 679.255C455.781 675.82 457.434 676.913 461.441 678.606C463.811 679.606 466.251 680.245 465.135 683.21ZM445.612 737.143C443.553 741.307 439.748 744.741 437.488 748.939C435.117 753.346 433.321 758.313 430.296 762.343C427.218 766.452 424.451 765.764 420.212 767.537C418.69 768.172 418.049 769.35 416.825 770.271C414.528 771.992 412.01 773.05 409.596 774.582C407.88 770.369 402.635 749.221 395.961 749.675C390.16 750.068 393.127 761.139 393.875 764.406C394.507 767.166 395.23 769.968 396.192 772.632C397.164 775.322 400.191 779.352 399.071 782.301C397.648 786.048 394.106 785.802 392.333 783.068C390.85 780.781 390.097 777.673 389.004 775.185C388.043 772.997 383.651 761.025 379.854 762.882C376.196 764.669 381.885 776.277 382.837 778.557C385.136 784.063 389.545 789.354 383.718 793.766C374.873 800.464 363.981 805.505 354.073 810.333C348.289 813.151 343.088 816.858 337.017 819.146C331.378 821.271 324.863 821.633 319.411 824.076C318.07 824.677 318.97 825.426 317.01 825.775C315.367 826.067 312.496 825.283 310.734 825.298C307.815 825.326 304.89 825.548 301.977 825.181C300.336 824.975 296.6 823.177 297.191 826.146C294.869 825.501 293.971 823.158 292.277 821.694C290.768 820.388 288.841 819.681 287.156 818.656C283.673 816.537 281.069 814.121 280.023 810.082C277.57 800.598 282.756 790.727 289.157 784.115C292.832 780.322 297.142 777.167 300.51 773.082C301.692 771.65 302.533 769.983 304.033 768.819C305.871 767.392 308.392 767.215 310.17 765.77C311.494 764.695 311.89 762.983 313.278 761.996C315.33 760.539 317.731 761.143 319.67 759.229C320.776 758.137 324.571 752.99 324.306 751.564C325.345 751.912 326.386 752.26 327.424 752.608C328.057 749.436 333.527 745.524 336.225 744.004C337.589 743.236 340.248 743.273 341.264 742.447C342.614 741.345 342.504 739.039 343.575 737.658C346.649 733.699 353.082 731.922 357.153 729.166C362.332 725.658 367.362 721.684 372.04 717.531C381.496 709.139 389.832 699.388 396.642 688.734C399.385 684.443 401.931 680.067 403.884 675.363C405.087 672.469 406.286 667.322 409.256 665.642C412.324 663.909 419.368 666.257 422.803 666.504C427.849 666.869 435.713 666.642 440.235 669.121C445.07 671.774 441.139 673.965 438.651 677.126C435.009 681.751 432.826 687.414 431.007 692.964C429.606 697.232 429.345 701.363 428.428 705.667C427.461 710.216 427.47 716.358 429.712 720.538C431.932 724.676 447.928 732.462 445.612 737.143ZM254.903 821.018C244.041 806.228 253.033 784.578 263.66 772.626C276.48 758.206 294.726 750.096 309.714 738.37C327.045 724.81 344.845 712.214 360.201 696.309C367.985 688.247 374.763 679.559 380.908 670.192C386.125 662.237 389.912 651.641 400.453 650.491C394.235 658.242 393.872 669.41 389.065 678.039C383.975 687.179 376.471 694.779 368.829 701.803C352.694 716.635 335.267 730.224 317.838 743.481C308.942 750.246 300.293 757.318 291.427 764.116C283.487 770.207 275.147 775.415 270.571 784.695C262.677 800.706 262.205 824.425 279.687 834.288C270.679 832.492 260.548 828.701 254.903 821.018ZM1201.96 154.073C1198.75 147.643 1192.73 145.353 1186.68 142.837C1180.76 140.375 1175.35 137.343 1168.79 136.555C1165.87 136.205 1157.63 137.074 1157.25 132.844C1156.93 129.319 1165.53 125.78 1167.51 123.095C1170.45 119.114 1172.45 112.65 1171.31 107.622C1170.23 102.854 1165.59 101.348 1161.26 100.483C1147.8 97.7978 1133.48 99.7728 1119.97 100.877C1121.63 98.5651 1123.96 96.6691 1125.28 93.9006L1127.42 98.3514C1128.64 95.8061 1129.96 93.308 1131.48 90.9245C1132.5 92.0767 1133.53 93.2302 1134.56 94.3824C1132.85 88.3982 1138.58 88.4287 1137.98 83.3843C1137.75 81.4222 1136.42 80.5627 1136.09 78.9855C1135.45 75.85 1137.87 73.889 1135.12 70.9814C1132.05 67.7431 1127.03 69.0276 1123.47 69.3298C1123.02 69.3687 1122.37 70.2553 1121.79 70.3273C1120.99 70.4289 1120.52 69.3239 1119.53 69.3829C1116.87 69.5399 1114.52 71.6071 1111.88 72.2351C1099.62 75.1463 1087.36 80.3385 1075.59 85.1858C1063.61 90.1206 1051.85 95.8663 1041.41 103.611C1030.24 111.899 1022.16 122.555 1013.24 133.053C1009.04 137.987 1004.7 142.725 1001.5 148.409C999.855 151.346 998.363 160.573 995.391 161.914C992.165 163.37 984.053 159.251 980.753 158.491C972.987 156.703 965.256 155.957 957.294 156.317C950.96 156.6 944.278 156.431 937.997 157.206C934.351 157.655 925.265 161.701 924.682 166.225C924.424 168.236 926.727 169.908 927.243 171.792C928.024 174.641 926.734 177.66 927.634 180.516C929.468 186.339 937.983 188.481 943.001 190.314C957.009 195.435 971.209 199.406 985.363 203.99C991.513 205.983 996.77 209.155 1002.34 212.34C1006.96 214.979 1011.18 217.621 1006.51 222.578C1002.09 227.274 1002.64 229.169 1003.96 235.638C1005.35 242.465 1005.83 249.369 1007.64 256.129C1009.44 262.862 1012.81 269.293 1012.15 276.417C1011.49 283.517 1008.56 290.81 1005.81 297.318C1003.03 303.891 999.971 310.387 996.955 316.854C994.166 322.837 991.147 328.904 984.694 331.457C972.372 336.331 956.631 335.559 943.79 333.788C929.216 331.779 914.16 328.372 900.376 323.172C887.123 318.172 872.546 310.503 861.586 301.442C855.73 296.602 849.389 293.016 843.175 288.684C836.877 284.294 832.096 278.375 826.579 273.12C815.766 262.819 802.455 255.721 788.753 250.059C773.351 243.693 757.449 244.354 741.127 243.665C743.696 238.617 747.003 233.793 748.217 228.173C749.481 222.32 748.566 215.961 747.765 210.113C746.211 198.732 743.265 188.715 736.08 179.522C732.795 175.319 728.959 172.042 723.487 171.431C720.172 171.06 714.045 173.607 711.652 170.798C710.599 169.56 710.845 166.956 710.181 165.431C709.593 164.077 708.412 162.714 707.772 161.244C705.032 154.956 701.614 149.399 698.2 143.434C696.842 141.061 695.791 137.56 693.94 135.564C692.932 134.478 691.636 133.984 691.073 133.19C690.018 131.703 689.532 128.986 688.653 127.308C687.148 124.437 685.234 121.769 683.024 119.399C679.493 115.612 674.948 112.27 670.105 110.384C667.416 109.335 665.445 109.087 662.636 109.241C661.813 109.286 660.898 109.76 660.075 109.698C658.105 109.548 658.414 108.842 656.836 108.514C646.274 106.314 632.112 109.4 622.205 113.189C611.77 117.179 603.295 122.441 596.954 131.896C581.377 155.117 585.007 185.1 591.614 210.677C587.618 209.628 583.638 208.387 579.602 207.497C577.132 206.952 573.76 207.055 571.553 205.75C566.643 202.848 570.636 195.401 570.666 190.59C570.742 178.363 564.972 159.245 552.39 154.081C539.28 148.699 523.33 163.803 515.226 172.369C510.027 177.863 505.299 183.785 500.324 189.477C496.847 193.456 492.256 199.798 486.161 198.759C472.868 196.492 476.923 171.201 477.513 162.652C478.446 149.139 480.436 135.409 480.446 121.861C480.453 113.625 479.028 102.515 468.915 101.549C454.997 100.221 441.812 112.882 433.696 122.622C412.291 148.307 407.563 182.258 413.289 214.49C414.129 219.215 416.808 225.044 411.695 227.978C404.977 231.832 396.39 234.165 389.171 236.996C373.028 243.322 358.08 251.759 342.882 260.007C327.836 268.173 313.03 276.279 299.454 286.8C285.921 297.288 272.526 308.401 260.198 320.292C254.054 326.219 248.125 332.402 242.531 338.856C237.268 344.926 233.004 351.82 227.282 357.494C223.388 361.357 216.224 366.537 215.368 372.43C214.677 377.186 222.699 380.484 226.319 382.682C228.8 384.19 230.52 384.143 230.7 386.831C230.921 390.182 227.389 395.554 226.131 398.749C222.927 406.9 218.739 413.652 213.233 420.435C201.037 435.461 186.3 448.201 172.312 461.548C159.316 473.951 146.58 486.158 137.053 501.547C134.718 505.318 128.909 513.061 134.431 516.59C135.859 517.504 140.243 518.227 141.698 517.246C143.501 516.03 142.587 514.198 144.717 512.979C144.183 517.077 162.79 509.07 164.238 508.328C168.148 506.324 171.685 503.975 175.682 502.18C178.027 501.125 178.311 499.658 180.126 498.482C181.097 497.853 181.109 498.697 182.407 498.306C183.576 497.952 186.321 497.818 187.194 496.692C187.217 496.659 188.17 493.932 187.36 494.496C190.53 492.289 192.403 495.629 190.501 498.764C184.875 508.029 177.761 514.845 175.557 525.979C174.756 530.024 173.39 537.531 175.859 541.218C175.949 541.352 176.78 540.961 176.881 541.104C176.975 541.24 177.881 542.499 178.254 542.857C180.434 544.944 180.294 545.874 183.935 545.787C185.549 545.747 188.769 545.54 190.247 544.811C191.359 544.263 191.902 542.91 192.757 542.43C193.622 541.94 193.52 541.686 194.332 541.402C194.498 541.343 194.817 542.763 195.134 542.705C196.868 542.378 197.616 541.341 199.089 540.507C203.336 538.103 207.498 535.46 211.541 533.039C215.612 530.603 218.652 527.206 222.705 524.376C227.013 521.37 230.535 519.065 233.847 514.893C236.14 512.004 238.877 510.952 240.416 509.53C242.243 507.841 245.393 501.323 248.337 500.548C249.678 500.194 250.751 501.382 251.485 500.895C252.312 500.348 251.411 499.3 251.825 498.684C252.6 497.534 252.696 497.343 254.014 496.288C255.7 494.939 257.773 494.577 259.188 492.819C260.763 490.862 260.979 488.669 262.915 486.837C267.574 482.428 271.721 477.784 276.657 473.512C274.751 484.143 272.862 494.699 274.339 505.512C275.77 515.991 280.217 520.684 288.945 526.001C290.867 527.173 292.882 528.876 294.946 529.706C296.2 530.211 298.089 529.91 299.024 530.281C302.19 531.537 301.113 534.106 301.546 537C302.22 541.487 306.343 544.94 309.005 548.436C311.243 551.376 315.28 558.065 319.024 559.081C322.406 559.997 325.596 556.042 328.412 554.357C332.658 551.818 337.285 549.998 341.763 547.922C350.509 543.87 358.959 539.034 367.608 534.747C371.558 532.79 375.548 531.994 379.729 530.729C384.751 529.211 389.036 526.306 393.852 524.324C402.513 520.761 410.811 516.508 419.419 512.766C437.235 505.021 456.666 499.701 472.52 488.081C479.692 482.824 488.927 482.264 495.996 477.156C503.363 471.831 498.845 463.688 495.691 457.152C487.073 439.3 481.929 420.759 470.065 404.495C463.901 396.044 458.205 387.313 452.829 378.33C448.074 370.379 448.17 361.374 446.977 352.393C446.178 346.392 445.429 340.365 444.453 334.389C443.834 330.591 441.836 325.806 444.253 322.365C446.851 318.665 453.022 317.091 456.921 315.139C461.768 312.715 466.461 310.106 471.489 308.052C482.98 303.362 495.083 300.116 507.138 297.25C510.731 296.396 526.118 290.285 529.046 293.865C525.449 296.27 524.399 300.636 522.785 304.379C520.382 309.956 517.902 315.27 516.149 321.113C512.527 333.198 509.446 345.475 506.493 357.737C503.56 369.912 500.065 382.182 499.168 394.725C498.708 401.128 499.023 407.534 499.011 413.943C499 420.783 497.582 427.491 497.834 434.348C498.004 438.908 498.386 444.385 501.057 448.275C503.531 451.879 507.739 452.281 511.406 454.208C516.244 456.751 518.139 457.836 518.183 463.37C518.237 469.819 517.82 476.152 518.423 482.598C520.524 505.042 528.063 531.676 543.112 549.004C544.113 550.156 573.31 586.987 576.541 581.595C578.768 584.232 582.096 585.195 584.836 587.495C589.142 591.107 593.367 593.995 596.927 598.469C603.407 606.611 608.916 616.152 610.537 626.564C611.929 635.524 611.092 646.236 606.04 654.001C600.971 661.792 590.135 666.902 581.955 670.738C571.203 675.779 560.291 676.345 548.617 675.082C542.856 674.458 537.142 673.484 531.423 672.565C529.044 672.182 526.269 672.181 524.017 671.284C521.601 670.324 520.783 669.262 518.372 669.143C516.571 669.055 515.587 669.453 513.683 669.056C511.326 668.564 508.768 667.668 506.418 667.064C503.804 666.391 501.661 665.434 499.254 664.199C497.024 663.056 494.513 662.835 492.367 661.753C488.669 659.886 487.528 656.764 482.526 658.495C477.244 660.32 478.349 664.889 474.977 668.021C471.981 670.806 468.27 668.232 465.289 666.577C460.901 664.139 456.343 662.112 451.671 660.267C446.625 658.275 441.47 656.542 436.217 655.169C430.472 653.669 424.162 653.372 418.628 651.188C413.765 649.27 411.673 645.557 408.149 642.09C404.444 638.443 399.416 637.054 394.28 637.378C384.925 637.97 378.536 648.085 373.595 655.108C359.789 674.731 344.528 691.448 326.074 706.863C317.256 714.225 307.317 720.488 298.79 728.13C295.194 731.354 292.582 734.376 288.323 736.777C282.727 739.93 277.651 743.886 272.302 747.442C251.381 761.345 236.036 781.602 241.821 808.051C244.425 819.956 249.627 828.313 259.346 835.477C263.759 838.728 267.796 841.434 273.418 841.245C278.725 841.068 283.407 840.883 280.281 834.567C284.242 835.793 287.557 838.82 291.881 840.371C296.863 842.155 303.345 843.268 308.634 843.376C317.104 843.55 327.066 839.083 334.483 837.19C336.556 836.663 340.552 835.796 342.914 833.846C344.793 832.297 344.385 830.462 347.229 829.727C350.955 828.762 352.375 829.889 355.944 827.632C361.121 824.353 366.735 822.406 372.106 819.386C379.342 815.315 386.298 810.725 393.466 806.534C394.421 809.168 400.037 824.823 403.506 817.276C406.524 810.706 396.725 805.082 402.682 798.43C408.365 792.087 409.553 798.757 415.066 801.701C422.72 805.789 421.571 798.152 419.346 793.63C418.457 791.822 416.586 789.094 417.136 786.984C418.199 782.91 421.494 785.301 424.086 785.716C428.166 786.372 431.464 785.249 434.528 782.512C437.083 780.228 441.308 778.257 442.852 775.247C443.625 773.741 443.76 771.672 444.402 770.072C445.25 767.964 445.854 768.475 446.162 765.859C445.867 764.507 445.75 763.138 445.809 761.751C446.48 761.616 447.148 761.481 447.816 761.344C447.837 761.249 447.884 758.609 447.614 759.003C448.239 758.095 449.582 757.711 450.354 756.451C451.063 755.292 450.403 753.07 450.688 751.702C451.267 748.932 452.842 746.697 454.13 744.228C456.854 755.755 456.066 767.777 458.669 779.311C460.807 788.78 465.675 797.268 471.355 805.033C473.988 808.632 477.474 811.185 480.229 814.606C482.561 817.499 483.727 820.047 487.169 821.758C489.459 822.893 492.035 823.479 494.394 824.46C495.903 825.089 499.338 827.978 500.754 827.927C499.52 827.973 503.071 828.082 502.248 827.942C502.31 827.952 501.828 826.396 502.256 826.421C507.403 831.296 512.781 831.307 518.738 834.337C521.467 835.725 522.488 835.639 525.397 836.152C529.166 836.818 532.338 838.968 535.948 839.197C541.504 839.55 547.761 840.297 553.554 840.091C555.13 840.034 558.092 839.02 559.328 840.397C560.144 841.307 558.596 847.887 558.498 849.393C557.48 865.193 559.591 881.78 566.256 896.237C571.783 908.224 577.677 922.405 587.451 931.559C598.287 941.705 613.466 948.856 627.958 951.593C644.004 954.621 659.909 952.353 676.004 951.412C692.334 950.456 707.444 948.139 723.192 943.405C737.838 939.003 751.711 933.264 765.725 927.212C775.256 923.096 787.341 917.173 782.345 904.68C781.136 901.659 776.451 893.259 772.306 897.404C768.638 901.07 774.769 908.009 777.544 910.339C756.628 924.926 731.248 929.75 706.776 934.918C693.336 937.755 680.095 937.636 666.424 937.676C654.839 937.708 643.256 938.042 631.747 936.423C621.334 934.96 609.211 932.214 601.462 924.6C593.356 916.634 585.686 907.124 580.153 897.188C574.083 886.281 572.61 874.49 572.119 862.192C571.862 855.716 571.571 849.162 572.248 842.702C572.741 838.013 575.134 837.456 576.321 833.751C579.065 837.595 580.871 836.175 584.239 833.929C586.416 840.008 585.446 846.326 585.071 852.595C584.708 858.703 585.522 864.896 586.269 870.961C587.537 881.272 592.477 892.026 598.744 900.327C601.578 904.081 605.824 905.666 609.665 908.257C614.562 911.561 619.64 914.638 624.752 917.604C634.379 923.189 644.885 927.964 655.735 928.805C659.536 929.1 662.3 931.081 666.829 930.803C669.518 930.639 672.226 929.719 674.91 929.792C677.599 929.865 679.909 930.725 682.67 930.525C694.148 929.694 705.98 925.934 717.345 923.867C729.649 921.632 742.03 919.224 753.776 914.81C758.866 912.896 763.069 910.429 765.91 905.621C767.938 902.186 767.407 896.027 771.188 893.973C768.712 890.777 769.632 890.214 771.772 887.357C772.77 886.025 775.994 882.499 772.084 882.563C773.273 877.415 771.285 872.438 770.437 867.402C770.073 865.228 770.171 861.935 768.826 860.063C768.041 858.971 766.735 858.951 766.033 858.146C765.308 858.13 764.74 857.828 764.334 857.241C764.286 856.382 764.688 855.857 765.54 855.669C765.343 853.968 766.602 854.578 765.343 851.918C763.626 848.285 760.367 845.122 757.281 842.652C754.652 840.548 752.716 836.811 749.681 835.689C745.731 834.227 741.589 832.639 737.44 831.283C728.031 828.206 718.705 827.03 708.833 828.736C704.312 829.517 699.858 830.475 695.492 831.872C692.937 832.692 689.03 834.9 686.767 832.518C685.989 831.702 684.367 824.762 684.468 824.012C684.873 821.001 691.019 819.787 693.261 818.736C696.688 817.13 703.033 815.414 705.209 812.228C706.122 810.892 705.091 805.219 705.24 805.117C706.678 804.149 712.712 817.925 714.355 818.865C716.731 820.223 723.408 818.427 725.864 818.158C733.194 817.352 740.644 816.895 747.823 815.146C761.588 811.793 775.104 806.607 788.5 802.023C813.984 793.306 838.587 781.815 861.497 767.543C872.196 760.876 882.825 752.357 890.967 742.677C894.639 738.311 897.234 733.134 900.983 728.853C905.308 723.914 903.945 719.46 905.884 713.274C909.809 700.754 914.576 689.38 916.713 676.259C918.914 662.75 919.821 648.957 919.212 635.28C918.006 608.249 916.695 582.62 904.817 557.783C893.932 535.021 879.826 512.781 863.057 493.936C859.158 489.557 855.04 485.384 850.251 481.978C845.096 478.309 839.421 475.431 834.755 471.098C830.925 467.542 827.722 463.353 823.717 459.977C818.799 455.836 812.951 454.005 807.192 451.359C801.671 448.826 796.636 445.529 790.99 443.221C787.556 441.819 784.075 440.524 780.493 439.544C777.847 438.82 774.33 438.775 771.91 437.4C768.08 435.224 764.162 428.893 761.661 425.316C758.011 420.099 756.033 414.029 754.298 407.962C752.184 400.582 750.221 393.156 748.156 385.762C747.449 383.236 744.811 374.443 750.072 376.577C751.612 377.201 753.056 379.975 754.242 381.16C756.489 383.41 759.264 385.421 762.052 386.951C766.549 389.418 771.233 392.389 775.545 394.09C779.346 395.589 783.255 398.526 786.798 400.639C787.336 400.961 787.493 402.065 788.187 402.374C789.82 403.099 790.907 401.099 792.45 401.589C794.557 402.258 794.903 404.244 796.072 405.823C797.768 408.113 798.645 408.296 801.235 409.474C804.115 410.785 806.23 413.376 809.037 414.662C812.45 416.22 819.958 415.01 820.471 420.387C825.772 416.923 832.423 423.649 835.731 427.138C839.062 422.024 844.962 428.012 850.002 426.314C847.213 430.191 847.72 429.806 852.121 430.285C855.836 430.692 858.059 433.159 861.731 434.593C864.274 435.585 867.084 437.254 869.727 437.953C872.226 438.615 874.119 437.132 876.295 437.503C877.796 437.758 879.222 439.056 880.649 439.41C882.459 439.861 885.036 440.408 887.082 440.893C889.57 441.484 892.046 440.941 894.528 441.412C897.424 441.96 899.924 443.685 902.864 444.245C906.143 444.869 909.552 444.452 912.811 445.247C915.781 445.971 917.587 446.805 920.664 446.835C925.253 446.88 930.376 447.487 934.907 446.969C937.32 446.693 938.657 445.469 941.389 446.665C943.211 447.464 944.302 449.928 946.785 448.8C944.164 447.749 946.464 443.658 949.354 446.792C950.037 445.034 950.479 444.053 952.38 443.477C952.285 445.197 952.003 446.923 954.196 447.284C954.364 446.086 954.533 444.891 954.701 443.693C959.468 447.323 960.597 448.604 965.096 444.175C964.976 445.625 964.364 447.266 965.838 448.293C966.781 446.724 967.725 445.156 968.669 443.589C970.263 448.649 977.871 446.902 981.558 446.005C982.989 445.658 986.94 445.108 987.873 443.935C988.52 443.123 988.441 442.486 988.681 441.987C988.893 441.544 986.468 440.456 988.532 439.82C990.085 439.34 991.296 442.747 993.121 442.612C994.748 442.491 995.406 439.736 996.576 439.177C996.688 439.125 997.483 440.289 998.033 440.034C998.889 439.638 999.376 438.595 1000.32 438.225C1002.37 437.425 1005.01 437.624 1007.3 436.675C1010.21 435.471 1013.14 434.897 1016.1 433.905C1019.86 432.649 1021.57 430.178 1024.62 428.158C1025.34 427.684 1026.08 427.96 1026.79 427.625C1027.73 427.173 1028.72 426.115 1029.85 425.616C1033.39 424.048 1036.41 422.982 1039.76 420.819C1042.75 418.889 1046.69 417.465 1049.36 415.15C1051.57 413.223 1052.77 410.41 1054.99 408.449C1058.19 405.634 1066.46 402.103 1065.12 396.604C1070.47 397.422 1071.78 393.957 1073.74 390.136C1075.61 386.5 1079.44 385.41 1081.95 382.095C1083.03 380.663 1084.77 378.676 1085.37 377.04C1085.72 376.068 1084.83 375.052 1085.07 374.388C1086.18 371.333 1090.47 370 1092.45 367.245C1094.97 363.74 1095.78 359.307 1097.88 355.707C1098.3 354.999 1099.32 354.578 1099.71 353.823C1099.97 353.337 1099.44 352.134 1099.75 351.658C1100.48 350.526 1101.63 350.136 1102.37 349.087C1104.15 346.55 1104.48 342.942 1106.08 340.064C1106.48 339.356 1107.85 337.376 1108.03 336.955C1108.6 335.538 1108.43 334.607 1108.73 333.03C1108.82 332.556 1109.73 329.813 1109.92 329.421C1110.51 328.197 1111.08 328.016 1111.98 326.672C1114.23 323.309 1115.63 318.026 1115.81 313.943C1115.89 312.211 1115.31 310.421 1115.94 308.768C1116.48 307.34 1118.15 306.458 1118.78 304.962C1120.43 301.039 1120.16 295.492 1120.61 291.296C1121.1 286.721 1122.57 282.212 1122.97 277.672C1123.17 275.474 1122.14 273.527 1122.21 271.457C1122.3 269.086 1123.53 268.643 1124 266.671C1124.54 264.418 1123.75 261.823 1124.24 259.408C1124.69 257.16 1125.34 255.081 1125.53 252.776C1126.01 246.774 1125.33 240.494 1125.07 234.488C1124.96 232.158 1124.65 229.727 1125.27 227.445C1125.77 225.609 1127.79 223.556 1127.73 221.565C1127.52 215.412 1122.6 220.737 1119.77 220.315C1116.48 219.824 1115.87 212.444 1115.01 209.645C1112.89 202.806 1110.77 195.968 1108.65 189.13C1118.75 186.501 1129.25 187.259 1139.55 186.55C1149.68 185.853 1159.57 183.655 1169.39 181.18C1177.68 179.091 1186.75 177.879 1194.2 173.418C1200.46 169.673 1205.62 161.386 1201.96 154.073Z" fill="black"></path> <path fill-rule="evenodd" clip-rule="evenodd" d="M221.598 286.453C225.636 284.354 224.618 281.453 227.584 278.757C244.18 263.674 263.658 250.503 283.179 239.628C303.745 228.17 326.822 223.319 347.843 213.165C350.671 211.799 354.344 209.664 353.289 205.859C352.056 201.414 347.823 203.459 344.806 204.509C334.752 208.005 324.051 209.321 313.853 212.393C292.085 218.949 271.7 230.255 253.259 243.488C242.532 251.184 232.254 259.695 223.093 269.255C219.719 272.773 215.22 276.878 214.343 281.947C213.256 288.221 216.964 288.862 221.598 286.453Z" fill="black"></path> <path fill-rule="evenodd" clip-rule="evenodd" d="M284.465 680.836C284.369 675.291 278.331 677.307 275.226 678.052C262.598 681.083 251.31 683.403 240.136 690.423C219.396 703.449 203.683 723.238 193.516 745.138C192.162 748.052 186.711 757.287 191.08 760.036C193.96 761.85 195.707 756.57 196.783 754.609C202.258 744.632 209.59 735.8 216.963 727.131C233.33 707.884 253.006 695.668 276.546 686.748C279.434 685.655 284.538 684.866 284.465 680.836Z" fill="black"></path> <path fill-rule="evenodd" clip-rule="evenodd" d="M982.354 544.668C977.986 535.88 970.923 525.036 961.151 521.416C955.743 519.414 952.544 522.728 954.149 528.265C955.425 532.669 959.686 534.82 962.867 537.741C971.053 545.256 976.095 556.476 979.084 566.896C982.244 577.91 982.875 589.862 982.819 601.264C982.789 607.285 981.182 612.517 980.309 618.376C979.967 620.679 979.382 625.758 982.03 627.195C987.895 630.383 990.605 613.741 991.204 610.54C993.411 598.737 993.197 587.868 991.339 576.084C989.639 565.308 987.253 554.525 982.354 544.668Z" fill="black"></path> <path fill-rule="evenodd" clip-rule="evenodd" d="M965.577 122.379C967.964 119.161 966.223 114.656 966.934 110.987C967.678 107.141 969.898 103.251 971.774 99.8866C975.831 92.6238 980.355 85.4917 985.175 78.7176C990.153 71.7221 996.224 65.7616 1001.51 59.0405C1003.3 56.7668 1006.47 53.5169 1005.7 50.7803C1004.45 46.3495 1001.72 48.509 999.54 50.3659C987.599 60.5194 977.085 73.0385 968.592 86.1876C964.562 92.4282 960.753 99.2625 959.42 106.665C958.731 110.489 958.724 114.478 959.858 118.221C960.571 120.574 962.71 126.246 965.577 122.379Z" fill="black"></path> <path fill-rule="evenodd" clip-rule="evenodd" d="M229.756 663.985C235.739 663.431 241.756 663.233 247.753 662.926C252.192 662.698 257.186 662.972 261.26 660.834C265.36 658.684 263.578 655.461 260.169 654.985C258.209 654.71 254.902 656.033 252.802 656.124C250.527 656.222 248.24 656.151 245.964 656.161C239.312 656.185 232.144 656.134 225.73 658.345C223.635 659.068 220.462 660.183 219.6 662.578C217.757 667.7 226.981 664.241 229.756 663.985Z" fill="black"></path> <path fill-rule="evenodd" clip-rule="evenodd" d="M282.146 195.312C290.834 194.27 299.233 191.666 307.793 190.006C315.932 188.429 317.318 182.013 307.682 182.3C304.446 182.397 273.254 188.315 282.146 195.312Z" fill="black"></path> <path fill-rule="evenodd" clip-rule="evenodd" d="M1000.12 517.136C994.283 515.675 997.302 522.151 999.108 524.153C1002.45 527.855 1004.28 530.627 1005.27 535.564C1005.85 538.437 1005.3 544.925 1007.74 547.123C1010.14 549.286 1010.31 547.85 1010.74 545.179C1011.94 537.652 1009.54 519.496 1000.12 517.136Z" fill="black"></path> <path fill-rule="evenodd" clip-rule="evenodd" d="M936.039 107.383C937.693 105.63 935.919 98.0071 936.115 95.7731C936.353 93.0663 936.994 90.7757 937.801 88.2356C938.193 87.0039 940.164 82.6565 939.102 81.3067C937.632 79.4356 935.185 82.5974 934.41 83.8421C931.893 87.8927 931.305 94.6466 931.724 99.208C931.874 100.859 932.873 110.736 936.039 107.383Z" fill="black"></path> <path fill-rule="evenodd" clip-rule="evenodd" d="M592.331 750.173C592.606 745.854 596.764 742.861 596.775 738.27C596.791 733.111 593.32 730.877 588.997 734.23C586.39 736.252 584.36 741.178 580.834 741.822C573.762 743.119 570.989 730.416 564.023 731.886C557.993 733.158 561.162 743.516 562.981 747.013C564.909 750.717 568.412 753.316 567.271 757.873C565.917 763.285 561.273 766.404 563.08 772.581C566.437 784.059 573.723 773.328 578.106 769.721C581.228 767.149 583.115 767.606 586.148 770.127C590.301 773.58 593.476 775.925 598.514 778.252C602.956 780.304 607.241 781.735 607.379 774.851C607.489 769.436 603.4 764.048 599.812 760.374C596.833 757.326 592.027 754.979 592.331 750.173Z" fill="black"></path> <path fill-rule="evenodd" clip-rule="evenodd" d="M514.486 733.049C509.288 727.507 502.723 741.642 498.522 743.206C491.714 745.741 490.146 732.153 483.878 732.58C478.999 732.913 479.384 739.905 480.447 743.094C481.59 746.528 485.012 749.334 485.585 752.852C486.466 758.243 476.267 769.02 483.384 774.227C489.461 778.674 491.724 763.652 499.32 769.78C503.05 772.788 513.484 783.985 518.655 778.413C524.764 771.829 510.233 760.584 507.581 755.576C503.992 748.795 522.103 741.17 514.486 733.049Z" fill="black"></path> <path fill-rule="evenodd" clip-rule="evenodd" d="M640.408 540.503C638.917 539.846 636.509 540.933 634.895 540.864C633.163 540.791 631.36 540.003 629.652 539.713C625.939 539.078 619.412 539.996 616.778 536.687C614.091 533.312 616.134 526.536 614.985 522.43C614.36 520.197 613.637 517.442 610.631 518.438C607.141 519.593 607.226 526.001 606.809 528.811C606.196 532.958 605.701 536.121 601.533 537.596C598.447 538.687 595.201 538.137 592.706 540.673C590.878 542.529 589.645 545.921 591.076 548.348C593.225 551.994 597.878 550.106 601.106 551.259C606.029 553.016 604.859 561.059 605.868 565.678C606.514 568.645 607.934 576.955 612.196 576.821C618.006 576.64 615.749 564.966 615.428 561.558C615.101 558.101 614.324 555.169 618.182 554.093C621.441 553.187 625.993 554.871 629.359 554.85C633.61 554.824 638.619 553.756 641.184 549.946C642.649 547.768 643.578 541.902 640.408 540.503Z" fill="black"></path> <path fill-rule="evenodd" clip-rule="evenodd" d="M853.92 684.179C863.158 684.976 857.559 696.36 863.689 700.885C869.538 705.202 870.325 693.286 870.323 689.883C870.319 681.641 880.343 684.688 886.446 683.323C891.653 682.161 897.339 676.752 891.12 672.145C886.632 668.82 879.189 670.363 873.978 669.482C866.917 668.288 869.015 663.573 868.858 658.14C868.802 656.148 868.116 649.046 865.543 648.486C860.831 647.461 860.551 660.689 860.233 663.206C858.89 673.856 851.575 667.368 845.763 672.706C838.167 679.685 848.416 683.704 853.92 684.179Z" fill="black"></path> <path fill-rule="evenodd" clip-rule="evenodd" d="M414.563 485.624C400.13 497.453 383.741 495.758 370.533 483.024C364.947 477.638 361.572 472.211 362.072 464.331C362.52 457.24 364.602 449.404 370.28 444.615C375.061 440.578 384.08 439.13 390.134 438.565C398.62 437.776 406.212 442.396 412.082 448.169C417.194 453.197 423.169 459.602 423.957 467.065C424.787 474.918 420.313 480.909 414.563 485.624ZM416.758 438.55C403.811 426.082 380.854 427.333 367.488 438.703C352.486 451.465 349.921 475.439 364.339 489.421C379.533 504.155 399.59 502.565 415.673 490.343C424.301 483.788 428.982 475.375 430.184 464.582C431.318 454.382 423.837 445.366 416.758 438.55Z" fill="black"></path> <path fill-rule="evenodd" clip-rule="evenodd" d="M667.087 223.951C665.634 228.673 666.641 233.702 666.899 238.512C662.794 235.945 660.24 231.367 655.834 229.239C653.72 235.077 664.25 251.777 670.878 246.303C676.942 241.294 672.466 227.316 667.087 223.951Z" fill="black"></path> <path fill-rule="evenodd" clip-rule="evenodd" d="M688.62 252.745C685.353 253.963 682.316 253.626 679.094 254.249C676.969 254.661 676.694 253.452 676.418 255.886C675.832 261.08 684.211 263.089 687.986 263.016C692.592 262.926 697.641 259.829 697.195 254.786C696.733 249.532 692.172 251.422 688.62 252.745Z" fill="black"></path> <path fill-rule="evenodd" clip-rule="evenodd" d="M691.298 230.919C689.816 229.573 686.401 224.489 683.895 225.359C681.974 226.026 683.331 228.321 683.895 229.47C686.004 233.777 690.145 237.443 693.452 240.898C691.003 241.768 686.284 242.328 687.53 246.099C688.676 249.562 693.867 249.03 696.356 247.571C704.878 242.575 695.562 234.79 691.298 230.919Z" fill="black"></path> <path fill-rule="evenodd" clip-rule="evenodd" d="M699.903 222.737C700.487 225.116 700.799 227.361 699.513 229.592L692.415 216.861C686.707 219.205 696.72 237.546 702.552 235.516C706.586 234.112 704.648 225.491 704.011 222.779C703.67 221.327 702.859 216.71 700.846 216.241C696.886 215.319 699.471 220.984 699.903 222.737Z" fill="black"></path> <path fill-rule="evenodd" clip-rule="evenodd" d="M407.08 479.511C403.789 477.084 398.333 482.767 394.853 482.788C387.817 482.826 391.648 474.575 387.246 471.9C384.95 470.504 375.338 471.912 376.856 466.136C377.769 462.662 381.341 465.17 383.298 463.047C385.754 460.387 382.254 458.265 380.075 457.172C381.031 455.898 386.539 455.338 387.923 456.219C390.311 457.744 390.173 462.317 392.364 464.671C395.208 461.041 393.665 456.48 396.694 453.221C397.869 451.954 401.31 451.002 399.972 448.743C399.196 447.43 395.799 447.864 394.636 446.821C393.622 445.911 393.673 442.976 392.035 442.732C389.359 442.334 389.424 446.422 388.621 447.603C386.203 451.152 375.579 449.928 379.983 457.126C377.049 455.662 369.047 454.504 370.6 459.615C370.997 460.922 372.51 461.722 372.885 463.211C373.211 464.502 372.494 466.342 372.427 467.637C372.299 470.094 372.103 472.967 373.92 474.943C376.419 477.659 379.757 475.683 382.437 476.865C386.09 478.473 384.773 481.818 386.699 484.744C389.221 488.571 393.099 487.395 396.669 486.238C400.927 484.856 401.6 484.731 404.714 488.278C406.139 486.437 410.041 481.695 407.08 479.511Z" fill="black"></path> <path fill-rule="evenodd" clip-rule="evenodd" d="M412.803 464.564C409.368 463.928 410.721 453.691 406.541 458.14C404.974 459.806 406.579 463.06 404.831 464.845C403.656 466.045 402.166 465.337 400.992 466.125C399.935 466.83 399.668 468.185 399.045 469.217C401.255 470.212 402.963 470.341 405.323 469.907C405.323 471.685 404.142 476.916 407.174 476.535C409.995 476.178 409.198 470.927 410.634 469.295C412.091 467.635 417.966 468.405 418.513 466.073C419.189 463.185 414.305 464.841 412.803 464.564Z" fill="black"></path> </g> <defs> <linearGradient id="paint0_linear_955_5454" x1="913.371" y1="607.714" x2="472.065" y2="614.104" gradientUnits="userSpaceOnUse"> <stop stop-color="#ECB300"></stop> <stop offset="0.583333" stop-color="#FFDD00"></stop> <stop offset="0.979167" stop-color="#FCED50"></stop> </linearGradient> <clipPath id="clip0_955_5454"> <rect width="1333.33" height="1000" fill="white" transform="translate(0.603516)"></rect> </clipPath> </defs> </svg> 