<?xml version="1.0" encoding="UTF-8"?> <svg xmlns="http://www.w3.org/2000/svg" width="1253" height="290" viewBox="0 0 1253 290" fill="none"> <path d="M54.6553 41.9305C135.589 41.4545 216.472 38.6715 297.296 37.082C475.774 33.5719 654.49 28.5773 833.195 27.5466C903.432 27.1415 1139.11 27.5466 1209.35 27.5466M48.3607 41.9329C48.3607 93.9042 37.5873 145.677 28.1682 197.503C24.4178 218.138 20.0053 280.157 20.0053 259.475M20.0053 263.634H20.9576C105.909 263.634 190.829 263.634 275.746 262.529C424.277 260.595 572.358 255.579 721.015 254.792C799.459 254.377 877.907 255.496 956.362 255.496C984.923 255.496 1113.52 254.792 1142.09 254.792M1232.99 29.75C1205.17 98.6444 1147.92 166.491 1147.92 236.838M1209.33 28.5857C1176.11 101.573 1172.31 183.444 1145.82 256.835M26.3104 269.805C70.7393 266.634 116.267 265.833 161.297 265.041L163.724 264.998C316.23 262.312 469.07 262.96 621.679 263.288C767.737 263.603 914.383 264.79 1060.31 261.686C1087.27 261.113 1114.24 260.226 1140.86 258.427M70.4117 39.4959C128.664 39.1079 187.136 36.2905 245.166 34.515C413.772 29.3564 582.546 27.0596 751.546 25.0945C842.454 24.0374 933.832 24.3269 1024.65 22.3875C1037.71 22.1086 1050.5 21.6503 1062.85 20.0053" stroke="black" stroke-width="10" stroke-linecap="round"></path> </svg> 