<?xml version="1.0" encoding="UTF-8"?> <svg xmlns="http://www.w3.org/2000/svg" width="1399" height="2001" viewBox="0 0 1399 2001" fill="none"> <path fill-rule="evenodd" clip-rule="evenodd" d="M176.288 1069.88C192.077 1008.66 206.588 982.694 234.626 961.411C260.855 941.499 299.144 924.784 355.005 912.57C413.189 902.396 414.835 872.146 429.424 823.537C433.684 808.922 454.77 805.031 463.873 815.565C465.159 814.185 466.496 812.917 467.876 811.768C466.642 804.799 476.782 784.819 476.448 778.15C472.907 708.566 495.665 673.62 552.469 660.626C564.821 657.805 648.719 656.143 660.762 659.468C713.418 674.031 765.25 720.258 757.321 775.948C773.847 797.556 790.022 810.74 815.522 817.7C872.271 824.908 929.012 831.311 985.774 836.797C1096.88 854.232 1201.06 913.059 1272.26 998.843C1278.83 1006.76 1280.72 1017.51 1274.93 1025.95C1279.47 1045.4 1305.03 1092.59 1284.92 1105.92C1317.98 1185.03 1394.07 1337.93 1394.21 1381.61C1394.81 1565.12 1374.99 1803.98 1193.95 1905.53C1186.7 1912.66 1185.66 1920.55 1182.52 1931.15C1174.56 1964.56 1145.65 1988.43 1114.01 1986.49C958.15 1989.95 807.182 1970.93 651.316 1970.01C582.581 1969.6 499.917 1979.87 440.207 1986.7C380.489 1993.54 320.213 1987.49 262.912 1970.01C258.078 1977.62 248.315 1982.05 238.398 1979.87C178.997 1968.07 130.961 1931.45 89.1148 1891.43C76.3346 1868.16 26.3965 1801.88 46.2483 1778.81C28.2565 1702.73 29.1909 1620.99 61.1629 1548.56C56.6285 1535.28 64.8915 1520.68 61.1629 1506.97C58.4629 1497.05 51.5541 1492.94 48.074 1483.12C43.1797 1469.29 48.5027 1450.74 54.0142 1436.63C56.2771 1429.6 49.8569 1422.03 48.074 1414.85C39.6224 1381.01 58.9856 1383.99 72.9402 1361.36C72.7345 1361.29 69.1002 1345.13 69.1173 1345.22C66.983 1333.68 72.3316 1318.91 77.0031 1309.29C80.1661 1302.78 86.9205 1298.71 93.6407 1299.46C86.8777 1276.49 78.3232 1257.36 69.1173 1235.23C52.8484 1196.22 32.251 1158.86 8.88484 1123.54C-0.689623 1109.08 12.1677 1092.33 27.648 1091.35C77.7746 1088.16 127.344 1080.94 176.288 1069.88Z" fill="white"></path> <path fill-rule="evenodd" clip-rule="evenodd" d="M322.571 1364.93C342.611 1357.06 364.203 1352.71 385.897 1351.02C374.214 1348.98 362.497 1347 350.694 1345.99C342.448 1345.28 334.811 1345.36 328.622 1351.61C324.49 1355.77 322.553 1361.14 319.836 1366.07C320.719 1365.66 321.645 1365.29 322.571 1364.93ZM107.398 1291.41C140.227 1293.08 173.099 1300.89 202.8 1315.03C214.946 1320.83 225.96 1329.2 229.183 1342.97C230.812 1349.99 230.418 1357.26 229.543 1364.36C228.892 1369.74 228.729 1376.61 224.057 1380.25C223.26 1380.86 222.412 1381.33 221.52 1381.68C232.475 1386.63 242.906 1392.57 252.181 1398.69C260.658 1404.29 269.367 1412.91 273.275 1422.64C273.601 1421.53 273.927 1420.5 274.253 1419.53C280.921 1399.81 291.19 1383.67 307.356 1372.82C304.493 1371.53 302.522 1368.49 303.447 1364.29C307.287 1346.74 323.496 1331.48 341.805 1332.57C361.846 1333.74 383.377 1341.05 401.506 1350.27C408.115 1350.12 414.706 1350.21 421.229 1350.5C422.352 1350.53 422.292 1352.06 421.229 1352.19C415.941 1352.86 410.652 1353.6 405.363 1354.47C392.797 1356.48 380.266 1359.04 368.008 1362.21C353.3 1366.01 338.094 1369.83 324.345 1376.48C297.687 1389.4 281.187 1423.17 284.581 1452.55C285.138 1457.37 287.007 1471.93 293.684 1470.43C299.333 1469.17 301.579 1457.37 303.559 1453C308.847 1441.41 318.37 1433.83 329.796 1428.71C343.211 1422.67 357.577 1418.6 371.48 1413.85C379.357 1411.15 387.234 1408.45 395.129 1405.78C403.212 1403 410.884 1399.18 419.489 1401.12C424.684 1402.3 425.284 1408.5 422.37 1412.04C417.93 1417.46 411.338 1419.06 404.943 1421.28C396.509 1424.22 388.092 1427.16 379.666 1430.09C366.646 1434.61 353.008 1438.44 340.322 1443.98L340.717 1444.89C341.745 1444.6 342.962 1445.63 342.765 1446.9C340.862 1458.62 338.214 1472.17 341.154 1483.91C343.468 1493.22 351.637 1503.53 362.248 1500.79C360.577 1499.27 359.968 1496.65 361.091 1494.22C365.291 1485.23 420.338 1449.76 425.249 1462.93C425.412 1463.4 424.907 1463.75 424.504 1463.68C420.321 1462.8 413.318 1469.95 409.966 1472.21C405.132 1475.47 400.221 1478.65 395.438 1482.01C390.209 1485.67 385.1 1489.51 380.12 1493.47C376.212 1496.59 373.254 1499.83 368.771 1501.41C371.12 1502.53 372.989 1504.62 373.786 1507.28C375.809 1514.22 379.726 1520.11 386.515 1523.17C393.629 1526.35 401.652 1524.34 409.152 1525.13C419.361 1526.16 428.275 1531.01 435.715 1537.95C451.341 1552.55 459.184 1578.28 481.042 1585.18C494.097 1589.3 508.582 1586.7 521.808 1584.83C536.56 1582.75 550.943 1581.1 565.806 1583.28C580.044 1585.36 593.501 1590.29 606.504 1596.3C618.684 1601.94 632.159 1608.32 642.976 1616.72C645.196 1609.85 647.442 1603.06 649.148 1596.05C653.168 1579.47 655.337 1562.59 655.868 1545.56C656.357 1529.35 655.448 1513.06 654.059 1496.92C653.365 1488.85 652.276 1480.83 651.591 1472.77C651.411 1470.74 651.051 1468.57 650.776 1466.4C631.473 1455 611.193 1446.26 590.75 1437.28C590.69 1437.26 590.638 1437.23 590.587 1437.21C589.952 1436.92 589.335 1436.64 588.701 1436.37C588.718 1436.34 588.735 1436.3 588.77 1436.27C586.438 1434.84 584.81 1432.93 583.832 1430.79C554.363 1411.25 529.737 1384.56 511.377 1353.44C503.68 1340.39 496.274 1326.86 486.202 1315.43C475.479 1303.24 462.75 1295.99 446.996 1292.22C428.584 1287.81 409.598 1285.16 390.732 1283.65C380.429 1282.84 368.908 1281.57 357.68 1281.63C349.862 1281.68 342.199 1282.35 335.171 1284.28C324.765 1287.15 318.679 1295.07 312.139 1303.07C305.89 1310.75 299.684 1318.46 293.847 1326.47C288.327 1334.05 283.107 1341.89 278.581 1350.12C275.864 1355.05 273.353 1360.13 271.235 1365.35C270.49 1367.21 269.512 1369.31 269.058 1371.23C268.604 1373.16 269.435 1375.21 267.267 1375.21C276.233 1375.34 276.138 1389.67 267.232 1389.14C232.355 1387.12 282.31 1319 289.613 1309.5C299.95 1296.06 310.622 1278.52 327.174 1272.28C327.405 1272.19 327.662 1272.1 327.893 1272.03C323.076 1267.46 319.27 1261.99 315.636 1256.43C311.882 1250.7 307.416 1244.14 306.182 1237.35C305.402 1233.02 310.785 1230.56 313.33 1234.34C317.05 1239.87 318.842 1246.86 321.611 1252.93C324.439 1259.09 327.876 1264.9 330.594 1271.12C337.134 1269.1 344.188 1268.19 351.38 1267.88C342.311 1255.6 326.813 1231.9 324.945 1228.85C316.356 1214.76 308.187 1200.23 300.387 1185.69C291.953 1169.92 284.718 1153.51 276.644 1137.56C272.067 1128.53 267.447 1119.41 262.355 1110.64C260.598 1107.64 258.721 1104.63 256.578 1101.9C256.167 1101.35 255.635 1100.9 255.146 1100.39C254.589 1100.08 254.006 1099.74 253.681 1099.56C250.749 1097.88 249.721 1093.96 247.655 1091.48C244.355 1087.48 240.481 1087.01 235.518 1086.95C224.949 1086.84 214.329 1087.26 203.777 1087.55C188.254 1087.98 172.756 1088.6 157.25 1089.41C152.562 1089.67 147.89 1089.92 143.202 1090.21C120.658 1091.55 98.1237 1093.31 75.6576 1095.47C55.7715 1097.36 35.8854 1100.47 15.9822 1101.95C42.9312 1165.99 72.8118 1228.87 106.644 1289.56C106.987 1290.17 107.235 1290.79 107.398 1291.41ZM256.904 1456.39C261.249 1458.38 265.475 1460.87 269.401 1463.69C268.75 1459.29 268.587 1454.65 268.767 1449.99C265.527 1453.47 261.378 1455.47 256.904 1456.39ZM71.3804 1346.23C71.689 1346.27 71.9718 1346.43 72.1175 1346.74C78.1348 1359.14 75.6148 1373 65.8003 1382.73C60.6574 1387.8 49.4456 1393.53 49.8142 1401.86C50.1228 1408.6 57.4516 1414.26 60.5888 1419.81C63.5031 1425 64.5832 1430.69 62.2517 1436.3C59.2602 1443.49 50.9114 1446.36 48.0571 1453.42C44.4313 1462.38 50.3198 1473.2 54.4427 1481.01C58.2828 1488.24 63.2459 1495.46 66.546 1503.11C88.6178 1514.54 108.375 1532.08 125.364 1549.89C143.956 1569.37 159.916 1592.28 189.445 1591.7C192.402 1591.64 194.648 1593.2 195.985 1595.36C204.205 1595.74 212.443 1595.9 220.672 1595.94C235.123 1596.01 249.566 1595.86 264.001 1595.42C265.021 1591.92 264.275 1587.17 264.327 1584.21C264.507 1574.71 264.601 1565.21 264.995 1555.7C265.107 1553.06 265.218 1550.4 265.321 1547.75C260.127 1557.15 249.986 1561.43 238.432 1560.78C219.857 1559.69 201.163 1556.65 182.768 1553.91C173.082 1552.48 163.405 1550.84 153.753 1549.1C145.825 1547.7 134.63 1548.06 129.093 1541.7C127.79 1540.21 127.713 1537.5 129.761 1536.5C135.247 1533.8 138.71 1535.3 144.736 1536.46C152.09 1537.89 159.462 1539.25 166.851 1540.52C181.028 1542.98 195.24 1545.26 209.494 1547.28C217.612 1548.42 225.737 1549.54 233.872 1550.43C240.969 1551.2 248.975 1552.22 254.692 1546.88C266.229 1536.08 259.767 1517.99 252.464 1507.08C252.326 1506.86 252.327 1506.67 252.378 1506.48C245.495 1504.87 238.629 1502.99 231.789 1501.66C218.623 1499.12 205.363 1496.99 192.094 1495.09C164.819 1491.19 137.364 1488.62 109.952 1486.03C103.164 1485.37 103.087 1474.69 109.952 1475.32C149.339 1478.93 188.922 1482.35 227.786 1489.94C237.532 1491.83 247.201 1493.96 256.818 1496.37C261.361 1497.49 266.229 1499.25 270.995 1499.31C271.287 1499.31 271.578 1499.31 271.861 1499.29C281.187 1499 282.55 1491.01 277.424 1484.36C276.79 1483.55 276.138 1482.73 275.47 1481.95C266.41 1471.15 255.129 1463.95 243.506 1456.48C230.486 1454.7 217.5 1450.75 204.754 1447.86C173.279 1440.68 141.804 1433.51 110.312 1426.35C104.141 1424.94 106.764 1415.45 112.935 1416.84C136.841 1422.26 160.748 1427.68 184.654 1433.1L219.634 1441.03C226.629 1442.6 235.355 1445.77 243.575 1446.91C247.629 1447.48 251.564 1447.55 255.112 1446.72C266.572 1444 267.155 1429.67 262.209 1421.16C256.672 1411.59 246.198 1405.61 236.915 1400.2C220.817 1390.8 203.683 1384.03 186.951 1376.24C183.977 1375.59 181.011 1374.94 178.037 1374.29C160.765 1370.48 141.024 1368.62 124.764 1361.64C119.895 1359.58 122.553 1351.9 127.37 1352.01C139.996 1352.27 153.196 1356.77 165.531 1359.43C178.876 1362.33 192.24 1365.21 205.586 1368.09C206.923 1368.38 214.851 1370.92 216.051 1370.36C216.814 1369.99 217.08 1367.35 217.337 1365.61C218.152 1359.89 218.751 1353.87 217.86 1348.13C215.906 1335.25 205.166 1329.2 194.305 1324.25C170.108 1313.26 143.579 1306.37 117.178 1303.61C111.092 1302.98 105.007 1302.58 98.8866 1302.39C91.6951 1302.16 85.772 1300.9 82.1376 1307.98C76.4118 1319.15 73.2576 1333.49 71.3804 1346.23ZM104.981 1750.84C110.252 1732.6 108.821 1713.13 112.43 1694.52C114.29 1684.92 116.835 1675.41 119.613 1666.03C121.858 1658.46 125.596 1650.41 126.016 1642.52C126.041 1641.99 125.424 1641.69 124.996 1641.93C117.555 1646.19 111.847 1655.4 107.604 1662.63C102.529 1671.27 98.6465 1680.33 95.5265 1689.86C89.2864 1708.83 84.1691 1731.72 92.2092 1750.84C94.6007 1756.54 103.009 1757.67 104.981 1750.84ZM267.892 1509.25C263.444 1508.82 258.987 1507.97 254.529 1506.97C259.509 1511.83 264.112 1517.68 266.667 1524.16C267.061 1519.18 267.575 1514.22 268.244 1509.27C268.132 1509.27 268.004 1509.27 267.892 1509.25ZM776.436 1416.16C785.762 1415.96 785.762 1401.47 776.436 1401.66C768.001 1401.84 759.704 1404.06 751.561 1406.1C742.51 1408.37 746.367 1422.34 755.418 1420.08C762.293 1418.35 769.304 1416.31 776.436 1416.16ZM795.191 1750.59C798.388 1752.14 801.679 1753.54 804.919 1755.03C811.399 1757.99 817.879 1760.97 824.36 1763.94C837.86 1770.14 851.351 1776.36 864.826 1782.6C891.812 1795.09 919.003 1807.15 946.05 1819.51C973.632 1832.11 1001.14 1844.88 1028.62 1857.72C1041.56 1863.77 1054.6 1869.6 1067.62 1875.48C1078.75 1880.52 1092.51 1889.31 1104.73 1890.14C1105.35 1890.18 1105.56 1889.39 1105.21 1888.98C1100.59 1883.73 1093.23 1880.67 1087.16 1877.26C1080.96 1873.77 1074.65 1870.49 1068.37 1867.16C1055.27 1860.22 1042.15 1853.33 1028.92 1846.63C1002.47 1833.23 975.958 1819.94 949.444 1806.66C922.404 1793.11 895.397 1779.48 868.118 1766.42C855.277 1760.26 842.42 1754.13 829.563 1748.02C822.594 1744.71 815.617 1741.4 808.648 1738.1C805.639 1736.68 802.656 1735.13 799.579 1733.86C795.482 1732.17 792.379 1732.51 788.153 1731.46C781.279 1729.77 778.296 1738.52 783.576 1742.33C787.93 1745.47 790.219 1748.16 795.191 1750.59ZM891.905 1899.19C893.391 1895.58 890.279 1891.18 886.845 1890.28C882.732 1889.19 879.435 1891.69 877.934 1895.34C873.962 1905 868.306 1913.87 861.02 1921.36C854.514 1928.05 864.757 1938.3 871.268 1931.61C880.393 1922.22 886.948 1911.24 891.905 1899.19ZM963.056 1666.56C969.66 1659.95 959.414 1649.71 952.812 1656.32L934.037 1675.1C927.432 1681.7 937.68 1691.95 944.28 1685.34L963.056 1666.56ZM1155.68 1635.94C1169.18 1639.9 1184.92 1643.54 1194.13 1655.06C1194.58 1655.62 1195.33 1654.9 1195.06 1654.34C1183.28 1629.91 1149.49 1621.34 1126.1 1612.77C1109.55 1606.71 1092.58 1601.7 1075.46 1597.21C1077.17 1577.67 1072.45 1556.73 1070.81 1537.29C1069.06 1516.53 1067.63 1495.72 1066.9 1474.9C1066.15 1453.66 1065.97 1432.27 1066.67 1411.02C1067.36 1389.86 1070.11 1368.95 1071.31 1347.85C1071.43 1345.81 1068.59 1345.71 1067.98 1347.4C1060.87 1366.97 1057.83 1388.66 1055.52 1409.31C1053.13 1430.58 1052.34 1451.78 1052.65 1473.17C1052.96 1495.16 1054.24 1517.1 1056 1539.02C1056.83 1549.41 1057.79 1559.79 1058.7 1570.17C1059.4 1578.1 1059.72 1585.96 1061.34 1593.63C1051.01 1591.1 1040.66 1588.7 1030.34 1586.36C997.447 1578.94 964.412 1572.05 931.654 1564.02C915.573 1560.08 899.722 1555.36 883.714 1551.17C868.64 1547.22 852.732 1542.43 837.251 1540.67C831.731 1540.04 831.028 1547.59 834.68 1550.17C847.263 1559 863.969 1565.15 878.497 1570.1C893.078 1575.06 908.235 1578.63 923.181 1582.31C954.348 1589.97 985.811 1596.25 1017.23 1602.78C1048.6 1609.3 1080.03 1615.77 1111.05 1623.82C1125.99 1627.7 1140.87 1631.59 1155.68 1635.94ZM1229.65 1248.22C1237.72 1252.95 1245 1240.42 1236.96 1235.7C1226.44 1229.52 1215.24 1224.88 1203.94 1220.36C1195.27 1216.89 1191.54 1230.91 1200.09 1234.34C1210.24 1238.4 1220.2 1242.67 1229.65 1248.22ZM1258.86 1786.65C1266.95 1791.35 1274.23 1778.81 1266.17 1774.13C1254.84 1767.57 1242.44 1763.19 1230.7 1757.44C1222.35 1753.35 1215.02 1765.85 1223.39 1769.96C1235.13 1775.7 1247.53 1780.08 1258.86 1786.65ZM73.8747 1081.12C97.5494 1078.85 121.25 1077.04 144.993 1075.69C146.099 1075.63 147.187 1075.56 148.293 1075.5C148.413 1075.25 148.576 1075.01 148.739 1074.76C156.488 1063.38 162.196 1052 167.142 1039.14C171.865 1026.9 176.451 1014.27 183.728 1003.22C192.034 990.631 203.237 980.773 215.529 972.236C222.977 977.251 229.894 983.122 236.22 989.345C242.88 995.885 253.124 985.642 246.463 979.093C240.841 973.565 234.84 968.456 228.497 963.844C235.817 959.387 243.292 955.204 250.586 951.039C277.913 935.447 305.89 921.021 334.451 907.838C347.72 901.692 361.16 896.241 374.686 890.712C381.972 887.746 389.155 883.923 396.432 880.486C395.909 875.334 397.452 869.574 401.395 866.188C404.309 863.703 406.572 862.777 410.052 861.028C410.832 860.754 411.304 860.591 411.518 860.497C411.355 860.531 410.884 860.677 410.112 860.934C408.261 861.783 408.115 861.534 409.675 860.188C409.761 857.257 415.538 851.06 416.858 848.034C421.461 837.654 422.892 826.673 429.681 817.219C439.05 804.19 454.762 799.27 469.419 803.685C470.936 788.016 471.33 771.661 477.236 757.672C477.399 757.295 477.922 757.132 478.162 757.544C484.316 768.035 484.839 779.718 485.311 791.821C485.765 803.179 485.336 814.793 483.845 826.082C484.788 826.802 485.748 827.496 486.742 828.165C491.414 831.242 496.454 833.617 501.742 835.374C511.805 838.708 522.366 840.157 532.926 840.662C560.175 841.965 588.264 839.214 615.067 834.542C642.171 829.811 683.734 822.705 707.855 809.136C723.772 800.196 738.455 789.267 753.344 778.69C747.953 761.298 746.572 742.595 752.007 727.903C752.658 726.146 755.41 725.82 755.933 727.903C759.336 741.926 760.338 756.027 764.864 769.878C764.933 770.084 765.01 770.298 765.078 770.495C766.493 769.535 767.907 768.592 769.313 767.65C772.579 765.498 777.01 767.11 778.973 770.187C810.242 819.482 859.769 822.311 911.78 831.114C968.699 840.748 1025.9 851.154 1080.63 870.011C1132.96 888.055 1182.98 914.327 1222.6 953.559C1231.57 962.447 1239.96 971.91 1247.88 981.793C1240.22 982.762 1232.62 984.262 1225.12 986.619C1216.24 989.414 1220.06 1003.39 1228.97 1000.6C1238.61 997.565 1248.36 996.065 1258.2 995.319C1285.12 1032.17 1306.11 1073.95 1324.27 1115.06C1359.09 1193.91 1381.75 1277.87 1392.18 1363.36C1386.45 1359.92 1380.62 1356.65 1374.65 1353.61C1366.35 1349.39 1359.02 1361.9 1367.34 1366.13C1376.56 1370.82 1385.53 1376 1394.21 1381.61C1398.01 1419.03 1399.48 1456.68 1398.59 1494.29C1396.47 1583.93 1384.37 1676.19 1357.01 1761.72C1343.59 1803.7 1325.81 1845.33 1299.31 1880.8C1287.32 1896.86 1273.71 1911.36 1257.66 1923.44C1249.89 1929.31 1241.67 1934.55 1233 1938.96C1221.82 1944.69 1207.27 1946.58 1197.63 1954.67C1194.46 1957.33 1192.02 1960.85 1190.17 1964.82C1191.24 1972.35 1191.36 1979.91 1189.3 1987.45C1188.65 1989.8 1186.87 1991.72 1184.68 1992.64C1184.65 1993.29 1184.65 1993.93 1184.65 1994.54C1184.65 1994.83 1184.21 1994.91 1184.16 1994.62C1184.07 1994.05 1183.98 1993.5 1183.89 1992.91C1183.18 1993.15 1182.44 1993.26 1181.68 1993.26C1154.17 1993.37 1126.63 1992.69 1099.08 1991.76C1101.21 1985.23 1103.52 1978.76 1105.73 1972.23C1108.74 1963.37 1094.75 1959.6 1091.77 1968.38C1089.17 1976.01 1086.47 1983.58 1084.05 1991.23C1054.54 1990.14 1025.04 1988.82 995.589 1987.85C932.95 1985.76 870.329 1985.07 807.671 1983.75C710.375 1981.69 612.367 1977.46 514.908 1981.59C511.54 1974.44 507.768 1967.45 504.194 1960.39C499.977 1952.06 487.479 1959.4 491.679 1967.71C494.174 1972.61 496.745 1977.45 499.188 1982.35C479.456 1983.37 459.733 1984.73 440.061 1986.58C406.486 1989.73 373.237 1995.32 339.697 1998.8C305.599 2002.35 272.247 2001.72 238.415 1996.09C232.329 1995.07 228.746 1991.4 227.263 1986.83C227.212 1986.81 227.169 1986.78 227.135 1986.72C225.395 1984.69 223.766 1983.01 222.086 1981.54C220.072 1980.24 217.903 1979.13 215.349 1978.15C210.583 1976.34 205.62 1975.23 200.588 1974.49C195.043 1973.66 189.428 1973.59 183.891 1972.9C179.219 1972.3 174.651 1971.41 170.091 1970.33C161.888 1968.37 154.105 1965.81 146.347 1962.43C139.593 1959.48 133.499 1955.23 127.738 1950.61C115.815 1941.9 105.495 1930.78 96.4779 1919.22C91.2235 1912.46 86.2863 1905.45 81.7948 1898.16C73.969 1885.5 67.3088 1872.37 60.5716 1859.13C58.1201 1855.2 55.8914 1851.18 53.8514 1847.09C67.0173 1843.2 80.312 1840.04 94.2665 1839.82C103.601 1839.66 103.592 1825.17 94.2665 1825.32C78.2634 1825.58 63.1172 1829.32 48.0741 1833.77C47.3455 1831.83 46.6428 1829.87 45.9913 1827.88C44.1999 1823.73 42.7083 1819.47 41.4826 1815.16C40.7626 1813.2 40.0341 1811.25 39.3055 1809.29C37.6769 1802.51 36.0483 1795.73 34.4025 1788.93C31.1196 1778.06 28.531 1767.03 26.6281 1755.85C25.0424 1748.5 23.8081 1741.08 22.9766 1733.58C20.4395 1715.41 18.3737 1697.28 18.228 1678.91C18.4508 1667.59 19.1709 1656.28 20.4052 1645.03C20.928 1637.39 21.8109 1629.78 23.0109 1622.23C24.5709 1610.99 26.1052 1599.87 28.6938 1588.78C30.631 1581.28 32.5683 1573.78 34.5055 1566.28C39.3484 1550.65 45.0484 1535.32 51.6228 1520.34C51.9828 1519.4 53.8171 1517.33 54.9142 1517.31C55.7543 1517.29 56.9115 1518.06 56.5343 1519.08C56.4915 1519.16 56.4571 1519.27 56.4228 1519.36C56.8 1518.51 57.1601 1517.64 57.5458 1516.79C57.8715 1515.99 59.1401 1514.4 60.1173 1514.41C60.1687 1514.41 60.2288 1514.41 60.2974 1514.43C60.0402 1514.25 59.8087 1514.02 59.5687 1513.75C53.0714 1506.05 48.8542 1495.92 44.1999 1487C40.3427 1479.65 36.6998 1471.9 35.654 1463.58C34.7283 1456.28 35.9797 1449.09 40.5569 1443.18C45.777 1436.46 55.5915 1433.31 50.14 1423.6C43.9427 1412.55 34.8311 1402.97 43.9084 1390.41C48.5285 1384.01 55.8401 1380.5 61.2745 1374.94C67.5232 1368.51 70.4974 1359.9 70.326 1351.12C69.9489 1351.33 69.4431 1351.23 69.2631 1350.68C64.0087 1334.81 67.8146 1317.39 73.1889 1301.93C76.1204 1293.55 82.3348 1291.24 89.5607 1290.83C58.2658 1229.68 28.9853 1167.57 2.89343 1104.02C2.01913 1101.93 1.17054 1099.85 0.321954 1097.77C-0.94664 1094.65 1.7362 1090.5 4.83054 1089.81C27.391 1084.87 50.8942 1083.29 73.8747 1081.12Z" fill="black"></path> <path d="M682.525 946.252C691.851 946.055 691.851 960.549 682.525 960.747C675.393 960.901 668.382 962.941 661.507 964.664C652.456 966.927 648.599 952.955 657.65 950.692C665.793 948.652 674.09 946.432 682.525 946.252Z" fill="white"></path> <path d="M755.688 1639.15C765.014 1638.95 765.014 1653.45 755.688 1653.65C748.557 1653.8 741.545 1655.84 734.671 1657.56C725.619 1659.83 721.762 1645.85 730.813 1643.59C738.956 1641.55 747.254 1639.33 755.688 1639.15Z" fill="white"></path> <path d="M546.89 1177.42C543.786 1180.45 538.344 1179.82 536.656 1175.83C535.456 1172.98 536.788 1169.71 539.631 1168.51L541.131 1167.87C544.803 1166.32 546.523 1162.09 544.973 1158.42L516.517 1091.01C514.967 1087.34 510.735 1085.62 507.063 1087.17C503.392 1088.72 499.159 1087 497.609 1083.32L497.412 1082.86C495.754 1078.93 497.594 1074.4 501.523 1072.74L515.62 1066.79C520.643 1064.67 526.271 1068.15 527.036 1073.55C534.771 1128.07 571.979 1171.61 571.979 1171.61C571.979 1171.61 561.44 1163.2 546.89 1177.42Z" fill="white"></path> <path d="M432.268 1106.76C435.372 1103.72 440.814 1104.35 442.502 1108.35C443.702 1111.19 442.37 1114.47 439.527 1115.67L438.026 1116.3C434.355 1117.85 432.635 1122.09 434.185 1125.76L462.641 1193.17C464.191 1196.84 468.423 1198.56 472.095 1197.01C475.766 1195.46 479.999 1197.18 481.549 1200.85L481.746 1201.32C483.404 1205.25 481.563 1209.78 477.634 1211.44L463.538 1217.39C458.515 1219.51 452.887 1216.03 452.122 1210.63C444.387 1156.1 407.179 1112.56 407.179 1112.56C407.179 1112.56 417.717 1120.98 432.268 1106.76Z" fill="white"></path> <path d="M936.02 1433.91C936.242 1434.11 936.443 1434.32 936.623 1434.56C939.463 1438.29 944.217 1443.42 944.405 1446.05C944.598 1448.77 943.708 1451.49 941.735 1454.22C944.915 1453.11 947.78 1453.04 950.33 1454C952.879 1454.97 955.553 1457.32 958.35 1461.08L971.517 1478.75C973.492 1481.4 975.663 1482.93 978.03 1483.34C980.472 1483.7 983.017 1482.89 985.668 1480.91C986.765 1480.09 988.318 1480.32 989.136 1481.42L995.123 1489.45C996.543 1491.36 996.15 1494.06 994.244 1495.48L991.29 1497.68C984.443 1502.78 977.991 1504.95 971.934 1504.2C966.028 1503.47 965.637 1495.66 961.199 1489.33C960.971 1489 960.688 1488.72 960.373 1488.48L941.269 1473.84C940.954 1473.6 940.678 1473.31 940.424 1473C939.26 1471.6 937.981 1470.8 936.589 1470.6C935.12 1470.32 933.613 1470.75 932.067 1471.9L931.874 1472.05C929.968 1473.47 927.272 1473.08 925.852 1471.17L920.955 1464.6C919.535 1462.69 919.929 1460 921.835 1458.58L922.028 1458.43C923.574 1457.28 924.423 1455.96 924.574 1454.47C924.8 1452.93 924.281 1451.31 923.019 1449.62L908.125 1429.63C903.352 1423.23 901.471 1417.02 902.481 1411C903.492 1404.98 907.42 1399.41 914.267 1394.31L917.221 1392.11C919.127 1390.69 921.823 1391.09 923.243 1392.99L929.23 1401.03C930.048 1402.12 929.821 1403.68 928.723 1404.49C926.073 1406.47 924.57 1408.68 924.213 1411.12C923.942 1413.4 925.045 1422.58 926.875 1425.67C927.026 1425.93 927.231 1426.14 927.453 1426.34L936.02 1433.91Z" fill="white"></path> <path d="M677.792 1819.36C677.809 1819.66 677.856 1819.95 677.93 1820.24C679.097 1824.78 680.173 1831.69 682.123 1833.47C684.136 1835.31 686.825 1836.3 690.19 1836.44C687.348 1838.25 685.514 1840.45 684.689 1843.05C683.864 1845.64 684.058 1849.2 685.27 1853.73L690.973 1875.01C691.828 1878.2 691.684 1880.86 690.539 1882.97C689.305 1885.11 687.092 1886.6 683.9 1887.46C682.577 1887.81 681.792 1889.17 682.147 1890.49L684.74 1900.17C685.355 1902.47 687.715 1903.83 690.011 1903.21L693.569 1902.26C701.817 1900.05 707.523 1896.34 710.686 1891.12C713.771 1886.03 707.885 1880.88 705.672 1873.48C705.558 1873.09 705.512 1872.7 705.517 1872.3L705.871 1848.23C705.876 1847.84 705.822 1847.44 705.739 1847.05C705.361 1845.27 705.524 1843.77 706.228 1842.55C706.918 1841.23 708.195 1840.31 710.057 1839.81L710.29 1839.75C712.586 1839.14 713.948 1836.78 713.333 1834.48L711.212 1826.57C710.597 1824.27 708.237 1822.91 705.941 1823.52L705.708 1823.59C703.846 1824.08 702.285 1823.93 701.024 1823.13C699.675 1822.35 698.727 1820.94 698.18 1818.9L691.728 1794.82C689.661 1787.11 685.952 1781.78 680.602 1778.84C675.253 1775.9 668.454 1775.54 660.206 1777.75L656.648 1778.7C654.352 1779.32 652.989 1781.68 653.604 1783.97L656.198 1793.65C656.552 1794.97 657.911 1795.76 659.234 1795.4C662.426 1794.55 665.091 1794.74 667.227 1795.97C669.189 1797.18 675.705 1803.73 676.999 1807.08C677.106 1807.36 677.146 1807.65 677.163 1807.95L677.792 1819.36Z" fill="white"></path> <path d="M894.073 1213.06C895.978 1210.83 899.015 1210.05 901.776 1211.02C906.915 1212.82 908.213 1219.52 904.24 1223.24C868.91 1256.36 849.127 1288.04 841.138 1302.47C838.797 1306.7 833.257 1308.21 828.741 1306.49C826.117 1305.49 823.266 1304.76 820.846 1304.98C815.115 1305.48 879.04 1230.59 894.073 1213.06Z" fill="white"></path> <path d="M416.272 1708.17C417.334 1705.44 419.942 1703.7 422.868 1703.7C428.314 1703.7 431.754 1709.59 429.237 1714.42C406.853 1757.36 398.663 1793.8 395.898 1810.06C395.088 1814.82 390.359 1818.08 385.528 1817.95C382.722 1817.88 379.791 1818.13 377.578 1819.14C372.338 1821.51 407.884 1729.68 416.272 1708.17Z" fill="white"></path> <path d="M1320.05 1441.34C1321.12 1438.62 1323.72 1436.87 1326.65 1436.87C1332.1 1436.87 1335.54 1442.76 1333.02 1447.59C1310.63 1490.54 1302.44 1526.97 1299.68 1543.23C1298.87 1548 1294.14 1551.26 1289.31 1551.13C1286.5 1551.05 1283.57 1551.31 1281.36 1552.31C1276.12 1554.69 1311.67 1462.86 1320.05 1441.34Z" fill="white"></path> <path d="M791.163 1209.87C790.188 1213.04 787.335 1215.27 784.02 1215.44L738.962 1217.83C733.486 1218.13 730.069 1223.77 733.398 1228.13C743.474 1241.32 759.834 1249.26 769.414 1253.04C773.554 1254.67 775.999 1259.21 774.692 1263.47L774.037 1265.6C772.41 1270.89 765.985 1272.92 761.613 1269.52L704.812 1225.3C702.221 1223.28 701.145 1219.87 702.11 1216.73L704.862 1207.77C706.141 1203.61 710.563 1201.24 714.889 1201.72C733.705 1203.84 765.29 1199.54 782.949 1196.7C788.838 1195.75 793.788 1201.33 792.035 1207.03L791.163 1209.87Z" fill="white"></path> <path d="M948.587 1258.26C947.399 1261.36 948.274 1264.88 950.776 1267.06L984.787 1296.71C988.921 1300.31 988.133 1306.86 982.825 1308.24C966.761 1312.42 948.982 1308.6 939.112 1305.66C934.847 1304.4 930.119 1306.47 928.527 1310.63L927.729 1312.71C925.748 1317.88 929.559 1323.44 935.098 1323.45L1007.08 1323.63C1010.37 1323.64 1013.32 1321.62 1014.49 1318.55L1017.84 1309.8C1019.4 1305.73 1017.38 1301.14 1013.68 1298.85C997.55 1288.93 975.324 1266.08 963.171 1252.95C959.117 1248.58 951.783 1249.92 949.649 1255.49L948.587 1258.26Z" fill="white"></path> <path d="M339.947 1772.8C339.485 1769.52 337.02 1766.87 333.774 1766.17L289.659 1756.69C284.298 1755.54 281.815 1749.42 285.791 1745.65C297.823 1734.21 315.233 1728.95 325.288 1726.74C329.634 1725.78 332.766 1721.68 332.147 1717.27L331.837 1715.06C331.067 1709.58 325.042 1706.56 320.189 1709.23L257.117 1743.93C254.239 1745.51 252.638 1748.71 253.095 1751.96L254.398 1761.24C255.004 1765.55 258.995 1768.6 263.344 1768.8C282.259 1769.68 312.768 1778.91 329.756 1784.51C335.421 1786.38 341.189 1781.65 340.36 1775.74L339.947 1772.8Z" fill="white"></path> <path d="M1243.73 1505.97C1243.27 1502.68 1240.8 1500.03 1237.56 1499.33L1193.44 1489.86C1188.08 1488.7 1185.6 1482.59 1189.57 1478.81C1201.6 1467.38 1219.01 1462.12 1229.07 1459.91C1233.42 1458.95 1236.55 1454.85 1235.93 1450.44L1235.62 1448.23C1234.85 1442.74 1228.82 1439.73 1223.97 1442.4L1160.9 1477.09C1158.02 1478.68 1156.42 1481.87 1156.88 1485.13L1158.18 1494.41C1158.79 1498.72 1162.78 1501.76 1167.13 1501.96C1186.04 1502.84 1216.55 1512.08 1233.54 1517.67C1239.2 1519.54 1244.97 1514.82 1244.14 1508.91L1243.73 1505.97Z" fill="white"></path> <path d="M461.065 1772.8C461.527 1769.51 463.992 1766.86 467.238 1766.17L511.352 1756.69C516.714 1755.54 519.196 1749.42 515.221 1745.64C503.188 1734.21 485.779 1728.95 475.724 1726.74C471.377 1725.78 468.245 1721.68 468.864 1717.27L469.174 1715.06C469.945 1709.58 475.969 1706.56 480.823 1709.23L543.895 1743.93C546.773 1745.51 548.373 1748.71 547.917 1751.96L546.613 1761.24C546.008 1765.55 542.017 1768.59 537.668 1768.8C518.753 1769.68 488.244 1778.91 471.256 1784.51C465.59 1786.37 459.822 1781.65 460.652 1775.74L461.065 1772.8Z" fill="white"></path> <path d="M820.695 979.821C821.346 987.706 827.564 993.332 826.392 995.545C825.22 997.759 823.2 999.45 820.332 1000.62C823.353 1001.3 825.622 1002.64 827.142 1004.63C828.661 1006.62 821.183 1039.58 833.789 1042.25C835.324 1042.58 838.014 1047.5 838.5 1048.99C839.046 1050.67 840.163 1052.4 841.327 1053.89C842.637 1055.56 841.652 1058.31 839.531 1058.48L837.824 1058.62C830.002 1059.27 823.913 1057.82 819.556 1054.29C815.199 1050.75 812.719 1045.32 812.115 1038.01L810.229 1015.17C810.069 1013.24 809.443 1011.81 808.35 1010.88C807.342 1009.95 805.954 1009.55 804.188 1009.7L800.025 1010.04C800.025 1010.04 807.677 1002.73 802.917 994.308C802.917 994.308 805.987 993.547 806.829 992.461C807.659 991.482 812.193 987.35 813.012 985.11C813.175 984.664 813.159 984.172 813.203 983.699C814.447 970.168 813.176 959.509 812.053 953.43C811.427 950.045 812.675 946.453 815.707 944.822C819.145 942.971 823.852 940.881 828.073 940.532C832.114 940.199 835.661 943.204 835.995 947.246L836.474 953.049C836.578 954.303 835.645 955.404 834.391 955.507C831.363 955.758 828.533 956.913 824.981 959.619C819.392 964.05 820.695 979.821 820.695 979.821Z" fill="white"></path> <path d="M919.96 936.569C920.553 933.704 922.833 931.552 925.718 931.064C931.087 930.154 935.462 935.386 933.787 940.567C918.89 986.647 916.901 1023.94 916.891 1040.43C916.887 1045.27 912.77 1049.27 907.985 1049.95C905.206 1050.34 902.358 1051.08 900.344 1052.44C895.574 1055.66 915.284 959.185 919.96 936.569Z" fill="white"></path> <path d="M974.886 982.126C975.318 985.418 977.759 988.091 980.998 988.818L1025.02 998.702C1030.37 999.904 1032.8 1006.04 1028.79 1009.78C1016.65 1021.1 999.196 1026.2 989.12 1028.32C984.765 1029.24 981.596 1033.31 982.174 1037.73L982.464 1039.94C983.184 1045.43 989.18 1048.5 994.058 1045.88L1057.45 1011.76C1060.34 1010.21 1061.97 1007.03 1061.54 1003.77L1060.32 994.478C1059.76 990.161 1055.8 987.08 1051.45 986.837C1032.54 985.784 1002.12 976.271 985.185 970.516C979.537 968.596 973.725 973.268 974.501 979.182L974.886 982.126Z" fill="white"></path> <path fill-rule="evenodd" clip-rule="evenodd" d="M326.668 288.438C343.057 219.318 378.886 154.995 436.256 103.01C608.887 -67.7263 925.905 24.9462 924.469 282.234C930.66 312.285 933.173 343.184 931.124 373.831C930.276 386.907 924.619 405.156 932.219 416.925C949.363 438.936 959.327 455.171 953.492 484.452C948.617 510.029 931.222 528.141 907.745 537.775C893.665 541.813 880.306 550.616 875.091 564.039C843.749 621.434 820.537 669.178 771.13 708.298C758.376 718.37 627.625 778.774 584.535 778.774C458.405 778.774 299.436 733.062 296.796 592.119C296.342 561.167 301.767 529.847 305.179 499.135C313.468 429.045 310.545 356.423 326.668 288.438Z" fill="white"></path> <path fill-rule="evenodd" clip-rule="evenodd" d="M329.505 253.873C329.462 253.018 328.237 252.826 328.005 253.67C323.316 270.31 320.659 287.261 316.991 304.16C313.459 320.437 310.125 336.761 307.356 353.182C302.119 384.172 297.705 415.243 293.599 446.392L292.579 454.184C285.447 508.999 273.67 566.103 283.973 621.236C292.759 668.285 322.228 706.197 360.2 733.995C396.149 760.318 439.744 777.213 483.031 786.813C529.489 797.125 584.553 800.202 622.353 766.121C637.482 752.475 616.859 725.397 600.444 737.715C561.898 766.627 512.86 758.098 469.359 746.595L468.048 746.244C429.87 736.078 391.443 720.657 361.134 694.643C327.628 665.885 311.059 625.976 309.148 582.192C308.068 557.6 310.365 533.034 312.833 508.588L313.108 505.871C315.945 477.91 318.928 449.958 321.671 421.989C324.182 396.484 326.342 370.83 327.482 345.209L328.022 332.287C329.128 306.234 330.628 279.801 329.505 253.873ZM781.579 37.4001C718.852 4.73125 646.765 -6.96041 576.958 4.0035C509.851 14.5431 448.264 49.1852 402.226 98.8575C379.752 123.109 359.806 151.162 347.06 181.809C340.725 197.034 335.762 212.916 333.122 229.228C331.768 237.613 330.431 246.302 330.174 254.804C329.942 262.675 332.257 270.058 331.982 278.059C331.94 279.312 333.851 279.552 334.142 278.353C336.328 269.431 341.583 262.684 344.874 254.21C347.343 247.882 350.137 241.704 352.983 235.545L355.426 230.268C362.514 214.929 371 200.22 379.392 185.564C396.286 156.046 417.955 129.22 443.344 106.584C487.908 66.8409 545.08 41.1862 604.747 36.567C666.685 31.7695 729.498 46.5383 782.393 79.2517C835.28 111.964 875.275 162.816 896.039 221.365C906.515 250.911 912.301 281.695 913.647 312.996C914.327 328.841 913.692 344.817 912.582 360.631L912.03 368.172C911.384 377.215 910.941 386.223 912.292 395.048C902.752 392.071 892.752 390.837 882.716 392.31C867.8 394.499 858.895 400.615 852.2 413.94C851.857 414.643 852.552 415.338 853.246 414.986C861.92 410.66 875.953 412.939 885.137 415.209C894.696 417.575 903.304 421.681 911.426 427.235C926.452 437.504 938.23 453.421 941.119 471.679C943.914 489.319 936.676 507.174 924.517 519.817C918.259 526.331 910.778 531.954 902.402 535.46C892.238 539.72 882.177 539.591 873.183 546.62C867.621 550.966 868.966 558.406 872.739 563.232C853.769 584.043 836.943 606.81 817.965 627.707C809.179 637.384 800.454 647.087 792.028 657.082L788.882 660.845C780.465 671.002 767.084 681.734 763.236 694.505C760.844 702.451 769.356 712.849 777.953 709.231C791.145 703.668 800.565 689.217 809.471 678.125L810.054 677.405C819.405 665.919 827.703 653.782 835.289 641.07L837.783 636.887C851.506 613.804 865.109 589.864 873.857 564.5C874.435 565.092 875.047 565.632 875.692 566.095C888.296 575.06 906.619 568.169 919.206 562.34C931.089 556.846 941.983 548.583 950.474 538.614C968.942 516.945 977.455 488.882 971.287 460.758C966.063 436.929 949.556 413.76 927.916 401.705C937.905 390.201 942.042 374.695 944.794 359.533C948.307 340.179 949.008 320.346 948.054 300.721C946.15 261.632 936.095 223.101 920.549 187.307C892.738 123.262 843.569 69.6884 781.579 37.4001ZM913.599 464.778C900.433 462.31 888.164 461.718 875.466 467.29C861.689 473.333 852.003 483.319 842.986 495.019C832.734 508.331 859.015 522.868 865.641 505.202L865.829 504.653C867.603 499.425 870.783 494.368 874.811 489.713C876.019 491.565 877.634 493.193 879.532 494.128C881.83 495.259 885.34 494.479 885.892 491.539C886.504 488.282 885.827 484.33 883.947 481.57L883.69 481.193C892.824 473.847 903.811 468.473 913.599 466.741C914.577 466.57 914.565 464.958 913.599 464.778Z" fill="black"></path> </svg>