<?xml version="1.0" encoding="UTF-8"?> <svg xmlns="http://www.w3.org/2000/svg" width="168" height="228" viewBox="0 0 168 228" fill="none"> <path fill-rule="evenodd" clip-rule="evenodd" d="M70.2199 68.0492L70.2184 68.058L70.2216 68.0511L70.2199 68.0492ZM96.0745 14.6789C81.156 30.3636 73.6927 48.3475 70.2199 68.0492C68.7596 66.4544 67.3301 64.8352 65.9075 63.2237C58.5104 54.8445 51.2997 46.6765 40.9027 43.2643C35.4706 41.4241 28.2573 41.0632 21.0412 41.586C13.8705 42.2367 5.45264 43.2639 -2.49545 47.332C-12.549 52.4417 -21.0484 62.338 -25.6614 70.5934C-30.5393 79.4093 -32.4466 89.6268 -30.7209 100.534C-28.9578 111.806 -23.6855 121.468 -17.6947 132.446C-17.5198 132.767 -17.3443 133.088 -17.1683 133.411C-11.5945 143.878 -6.43161 153.193 0.516071 161.463C11.7726 174.779 24.3814 184.162 37.3083 193.781C39.6775 195.544 42.0572 197.315 44.4413 199.12C47.9746 201.823 51.6663 204.248 55.4834 206.756C59.4496 209.361 63.5513 212.055 67.7513 215.243L67.9509 215.391C71.4444 217.982 75.1704 220.745 79.4431 222.995C87.1373 227.279 94.4178 230.847 106.07 223.753C110.107 221.39 113.987 217.173 117.659 213.182C118.048 212.759 118.435 212.339 118.819 211.924C122.398 208.055 125.168 203.462 127.676 199.304C127.816 199.072 127.956 198.841 128.094 198.611C133.046 190.712 137.104 182.977 140.961 175.627C141.78 174.068 142.588 172.526 143.395 171.003C153.405 152.377 158.939 132.395 163.067 111.084C165.326 100.367 166.683 89.5578 167.122 78.7715C167.162 77.4023 167.207 76.0368 167.252 74.6746C167.588 64.4767 167.919 54.4627 165.846 44.4265C163.032 30.8868 156.731 19.6919 148.847 12.6952C141.819 6.37446 131.154 0.677471 121.438 0.643848C111.721 0.610227 101.724 8.92234 96.0745 14.6789ZM93.263 35.9963C91.4493 39.2485 89.6192 42.5304 87.4781 45.5144C91.7976 33.8414 99.2934 21.5751 111.249 12.2885C109.907 13.3437 109.125 14.8953 108.348 16.438C107.731 17.6622 107.116 18.8809 106.228 19.8413C105.169 20.9852 104.047 21.8561 102.966 22.6952C101.775 23.6195 100.634 24.5052 99.6817 25.6748C97.29 28.775 95.2868 32.3672 93.263 35.9963ZM-13.3011 68.5059C-20.7757 85.1868 -17.6454 106.098 -12.0533 127.888C-24.5898 107.821 -27.652 82.3301 -13.6614 68.3634C-13.3955 68.2522 -13.3489 68.3775 -13.3021 68.5033L-13.3011 68.5059ZM-12.048 127.896L-12.0533 127.888C-12.0515 127.891 -12.0498 127.893 -12.048 127.896ZM-4.32046 131.403C-4.32067 131.407 -4.32088 131.411 -4.32108 131.415L-4.31656 131.414C-4.31786 131.411 -4.31916 131.407 -4.32046 131.403ZM-4.94816 122.652C-4.55537 125.462 -4.15642 128.315 -4.32046 131.403C-12.8852 107.335 -14.2302 84.4972 -5.96412 66.6103C-5.91191 68.0232 -6.00785 69.4367 -6.10443 70.8596C-6.30474 73.8108 -6.50777 76.8021 -5.39737 79.911C-5.20823 80.4436 -4.86456 80.9441 -4.52739 81.4351C-4.13518 82.0063 -3.75176 82.5646 -3.63059 83.146C-3.19887 84.9013 -3.85124 87.5185 -4.51549 90.1834C-4.91039 91.7677 -5.30948 93.3688 -5.48749 94.8157C-6.33927 102.858 -6.32033 110.892 -5.43111 118.782C-5.30842 120.075 -5.12894 121.359 -4.94816 122.652ZM13.0531 85.2899C11.6126 84.2495 9.86037 82.9841 9.27794 81.7032C8.46812 79.976 8.73801 77.2891 9.03364 74.346C9.43277 70.3724 9.87883 65.9318 7.77788 62.7551C12.8222 60.4881 16.4093 61.0459 19.3351 62.7603C20.4233 66.2457 22.529 68.6523 24.528 70.937C26.561 73.2605 28.4837 75.458 29.1138 78.536C24.9858 77.3214 18.5877 80.5923 20.8261 85.9828C20.4999 86.4544 20.3615 87 20.2233 87.5453C20.0582 88.1964 19.8932 88.8471 19.4087 89.3707C18.6324 88.7298 17.709 88.2254 16.7648 87.7096C15.8424 87.2057 14.9001 86.691 14.0558 86.0276C13.7569 85.7981 13.4148 85.5511 13.0531 85.2899ZM61.111 77.8512C60.6413 77.0972 60.1802 76.3571 59.6909 75.7136C53.1338 67.2782 45.303 59.9655 38.007 53.316C49.9029 58.1827 58.9897 71.1499 66.9941 82.8064C64.1687 82.7591 62.5965 80.2356 61.111 77.8512ZM136.368 24.4169C139.437 28.2714 142.561 32.2641 144.644 36.836C150.098 48.2452 152.095 60.3589 150.123 67.8014C149.919 64.9314 147.855 62.7342 145.948 60.7038C144.63 59.3003 143.387 57.9764 142.884 56.5651C142.303 55.1823 142.536 53.0187 142.77 50.8524C142.918 49.4855 143.066 48.1174 143.009 46.9437C142.303 34.584 136.358 22.2091 126.353 19.6369C125.803 19.4974 125.202 19.4935 124.594 19.4895C123.515 19.4825 122.415 19.4753 121.55 18.706C128.002 13.9451 132.735 19.8693 136.342 24.3838L136.368 24.4169ZM89.9345 82.4423C89.5994 82.1978 89.2614 81.9511 88.8579 81.8798C88.8711 71.4324 93.1896 62.7018 97.5069 53.9734C98.1793 52.614 98.8517 51.2546 99.5078 49.8888C98.8287 52.4908 98.078 55.1707 97.3113 57.9074C95.06 65.9445 111.776 92.7171 110.66 101.199C110 101.39 90.4183 82.7955 89.9345 82.4423ZM131.087 57.5993C131.015 58.6053 130.944 59.5952 130.897 60.5627C130.286 57.3106 130.172 53.5857 130.058 49.8499C129.981 47.3193 129.904 44.7837 129.672 42.3867C131.818 47.3487 131.439 52.6675 131.087 57.5993ZM18.9007 104.552C18.873 106.189 18.8452 107.827 19.2035 109.623C18.6673 109.146 18.0894 108.668 17.4958 108.176C14.1035 105.368 10.2002 102.137 10.654 96.4301C11.7376 97.0817 12.8355 97.7032 13.9282 98.3218C15.6016 99.2693 17.2629 100.21 18.8427 101.241C18.9377 102.376 18.9192 103.464 18.9007 104.552ZM50.0744 94.0022C49.4108 93.4243 48.7299 92.8313 48.0076 92.2406C47.3512 91.7001 46.6472 91.2109 45.9418 90.7207C43.5961 89.0905 41.2359 87.4501 40.5631 83.8835C41.086 83.7198 41.5383 83.6693 41.9807 83.6199C42.7122 83.5382 43.4165 83.4596 44.3676 82.8771C48.2451 86.8475 51.4956 92.105 54.6729 97.5385C53.0381 96.5834 51.6025 95.3331 50.0744 94.0022ZM4.12542 126.796C4.77705 128.271 5.43566 129.762 6.29572 130.935C2.8238 130.935 2.30972 126.948 1.8672 123.516C1.81825 123.137 1.77018 122.764 1.71907 122.404C2.68922 123.546 3.40302 125.161 4.12542 126.796ZM21.4454 135.434C21.6674 137.565 21.8865 139.671 22.2659 141.608C18.9108 136.763 17.2993 129.621 15.8925 123.385C15.5758 121.982 15.2696 120.624 14.9561 119.349C20.0875 122.391 20.7789 129.031 21.4454 135.434ZM77.4769 111.727C77.5045 111.843 77.5361 111.959 77.5718 112.075L77.5755 112.072C77.5418 111.958 77.509 111.843 77.4769 111.727ZM89.6262 105.694C86.2452 99.5951 75.9878 105.466 77.4769 111.727C76.7927 109.255 76.4555 106.493 76.1101 103.663C75.7864 101.011 75.4555 98.3003 74.8251 95.7125C76.3531 96.6783 77.6708 95.9713 79.0371 95.2382C79.7973 94.8303 80.5726 94.4143 81.4075 94.2739C85.256 93.8373 88.0721 100.459 89.6262 105.694ZM122.068 85.3787C122.145 84.22 117.064 54.9287 117.045 53.8611C117.678 53.5955 118.436 52.8434 123.905 81.6291C135.21 60.8681 125.33 81.463 126.272 80.8994C125.674 83.9799 124.803 86.8957 123.947 89.7647C123.555 91.0778 123.166 92.381 122.807 93.6857C121.683 91.1405 121.881 88.1841 122.068 85.3787ZM-7.20627 137.187C-4.81422 138.688 -2.45114 144.908 -1.67432 147.087C-2.14661 146.296 -2.63318 145.52 -3.12088 144.742C-4.59289 142.394 -6.0752 140.03 -7.20627 137.187ZM145.985 82.2406C145.976 82.5585 145.968 82.8529 146.007 83.0815C145.414 82.843 145.443 82.2536 145.476 81.5992C145.502 81.0662 145.531 80.4902 145.227 80.0253C146.038 80.4251 146.009 81.4125 145.985 82.2406ZM154.918 98.5837C154.822 97.2063 154.724 95.7982 154.816 94.3993L154.814 94.4004C155.01 92.2471 156.009 89.9965 157.013 87.7339C157.935 85.6549 158.862 83.5657 159.175 81.5327C160.126 105.864 152.642 128.576 145.203 150.094C145.336 146.864 146.537 143.899 147.731 140.954C148.253 139.666 148.774 138.382 149.202 137.082C152.633 126.37 155.063 114.164 155.041 101.958C155.077 100.87 154.998 99.7378 154.918 98.5837ZM16.6798 151.058C17.4113 152.369 18.1409 153.676 18.9542 154.79C15.8374 151.676 13.123 147.956 10.4198 144.238C13.2478 144.909 14.9692 147.993 16.6798 151.058ZM89.4315 142.882C89.409 142.21 89.3862 141.534 89.361 140.854L89.3594 140.843C89.3109 138.682 89.2208 136.607 89.1337 134.601C88.8858 128.894 88.6619 123.739 89.4884 118.71C90.853 122.105 92.5728 124.333 95.0412 125.215C96.0922 127.218 95.406 128.873 94.7296 130.504C94.469 131.133 94.2099 131.758 94.052 132.398C93.1826 136.025 93.2192 140.073 93.2555 144.094C93.2684 145.518 93.2812 146.939 93.2538 148.337C93.2484 148.878 93.2417 149.42 93.235 149.962C93.1741 154.908 93.1128 159.884 94.0289 164.801C89.9436 158.107 89.6977 150.796 89.4315 142.882ZM113.527 113.496C116.701 127.178 113.64 140.236 110.621 152.101C109.336 142.41 110.77 132.793 112.173 123.382C112.669 120.059 113.16 116.762 113.527 113.496ZM37.5142 154.245C36.9426 153.876 36.3733 153.509 35.7878 153.175C35.5904 151.948 35.5538 150.813 35.5175 149.693C35.4845 148.673 35.4519 147.664 35.2987 146.607C37.0454 148.467 38.4627 150.903 39.8924 153.359C40.4928 154.391 41.0953 155.426 41.7253 156.424C40.1575 155.951 38.8295 155.094 37.5142 154.245ZM129.805 112.219C130.811 117.645 132.065 124.408 128.842 127.531C129.155 125.082 128.85 122.385 128.546 119.689C128.098 115.712 127.649 111.736 129.18 108.552C129.328 109.646 129.559 110.892 129.805 112.219ZM60.8105 186.684C60.7944 208.795 13.9113 161.413 13.4852 160.941C11.6054 158.857 34.5522 161.436 34.2104 158.702C35.2385 158.03 36.2738 158.838 37.06 159.452C37.2309 159.586 37.3899 159.71 37.5346 159.808L40.9028 161.483C41.5814 161.905 42.3753 162.296 43.1874 162.696C44.7461 163.463 46.372 164.263 47.3801 165.387C48.7502 166.967 49.9281 169.182 51.1419 171.465C52.0018 173.081 52.8796 174.732 53.8566 176.215C55.3793 178.71 57.1561 181.31 58.7639 183.663C59.4942 184.732 60.1896 185.75 60.8105 186.684ZM57.1853 148.757C61.7682 151.693 79.3942 191.847 78.7615 197.854C77.2643 195.831 50.6159 161.471 49.6303 158.426C48.8621 156.052 58.1794 150.597 57.1853 148.757ZM143.779 128.952C143.394 130.35 143.016 131.727 142.683 133.059C140.565 128.333 142.477 124.347 144.339 120.465C145.114 118.85 145.88 117.253 146.343 115.628C146.297 119.795 145.008 124.483 143.779 128.952ZM78.0532 159.302C78.9029 160.685 79.7563 162.075 80.7023 163.328L80.6905 163.32C78.2078 161.551 73.2752 158.036 73.1047 152.816C75.0671 154.442 76.5543 156.862 78.0532 159.302ZM133.442 154.744C129.907 162.114 126.14 169.733 122.598 176.665C121.759 178.305 120.943 179.943 120.132 181.569C115.851 190.158 111.742 198.403 105.332 204.804C104.695 204.305 105.202 203.652 105.612 203.123C105.752 202.942 105.882 202.775 105.95 202.634C106.865 200.324 107.594 197.721 108.34 195.059C109.645 190.4 111 185.562 113.49 181.804C114.306 180.576 115.126 179.512 115.92 178.481C117.365 176.605 118.728 174.836 119.838 172.377C120.675 170.502 121.275 168.53 121.904 166.465C122.369 164.939 122.849 163.362 123.452 161.734C125.11 157.805 127.192 154.076 129.244 150.401C131.021 147.219 132.776 144.078 134.212 140.883C138.148 145.386 136.298 149.057 134.215 153.188C133.958 153.699 133.697 154.217 133.442 154.744ZM80.3303 177.304C79.7604 177.729 79.203 178.145 79.0928 178.71C77.8775 177.021 76.8186 173.632 76.5425 171.542C77.1955 172.055 77.8164 172.668 78.4401 173.284C79.4475 174.279 80.4625 175.282 81.6325 175.88C81.4573 176.463 80.8878 176.888 80.3303 177.304ZM93.906 191.642C92.6461 189.034 82.8506 174.131 81.0641 172.612C84.2353 170.695 107.158 166.303 107.316 163.29C109.954 168.953 98.0187 197.168 96.5222 202.059C96.0388 201.163 94.3641 192.59 93.906 191.642ZM66.352 199.659C69.8664 201.718 73.0121 204.081 74.9718 209.586L74.9697 209.583C68.8856 205.829 63.2948 201.032 57.7433 196.27C55.908 194.696 60.0769 196.281 58.2338 194.753C62.5538 196.92 61.5853 196.653 66.352 199.659ZM141.844 158.869C139.904 163.8 137.075 169.697 134.233 174.277C135.438 171.591 136.584 168.881 137.73 166.172C139.446 162.115 141.162 158.059 143.072 154.084C143.573 154.755 142.797 156.598 142.153 158.127C142.044 158.386 141.939 158.635 141.844 158.869ZM105.337 213.923C99.7293 220.246 90.6691 218.599 86.0394 215.978L86.0412 215.976C86.0246 213.778 85.8307 211.506 84.7454 208.874C88.0711 211.743 91.4081 214.613 97.1745 212.193C99.6476 213.511 102.033 214.573 105.337 213.923ZM59.1672 134.51C61.8777 137.25 64.6306 140.033 63.6478 143.536C18.515 132.07 24.9715 108.093 33.8413 97.5373C44.6397 105.277 64.4421 123.11 57.2644 132.523C57.8607 133.189 58.5127 133.848 59.1672 134.51Z" fill="url(#paint0_linear_1827_82402)"></path> <defs> <linearGradient id="paint0_linear_1827_82402" x1="231.524" y1="140.375" x2="9.02182" y2="-4.99432" gradientUnits="userSpaceOnUse"> <stop stop-color="#ECB300"></stop> <stop offset="0.583333" stop-color="#FFDD00"></stop> <stop offset="0.979167" stop-color="#FCED50"></stop> </linearGradient> </defs> </svg> 