<?xml version="1.0" encoding="UTF-8"?> <svg xmlns="http://www.w3.org/2000/svg" width="1968" height="2003" viewBox="0 0 1968 2003" fill="none"> <path fill-rule="evenodd" clip-rule="evenodd" d="M881.905 769.611C791.715 763.151 668.07 781.036 641.982 883.908C633.891 921.349 617.955 937.778 591.175 962.259C421.194 1179.9 1014.26 1216.49 1044.75 1004.26C1108.98 1027.66 1178.9 1032.61 1243.16 1056.27C1278.02 1069.15 1309.62 1089.47 1339.91 1110.73C1463.42 1198.48 1585.18 1288.74 1708.25 1377.13C1660.62 1399.06 1570.08 1482.82 1606.97 1539.11C1615.57 1550.08 1628.33 1557.63 1639.61 1565.65L1645.56 1569.9C1658.36 1579.08 1679.92 1594.73 1691.83 1603.22L1694.03 1604.82C1694.89 1605.45 1695.86 1606.15 1696.74 1606.78C1610.8 1732.48 1510.22 1848.46 1398.65 1952.01C1389.15 1960.85 1393.04 1980.59 1406.79 1982.9L1423.17 1985.3C1476.06 1993.01 1529.96 1999.94 1583.26 1995.76C1635.17 1990.11 1666.45 1944.14 1701.93 1910.84C1772.8 1838.39 1838.76 1761.09 1898.85 1679.44L1900.1 1677.72C1918.8 1652.15 1943.62 1626.02 1945.44 1593.02C1948.75 1583.09 1940.03 1568.87 1931.65 1562.11L1928.79 1557.98C1883.86 1493.33 1833.01 1430.99 1769.3 1384.17C1769.54 1377.19 1766.31 1369.86 1759.93 1365.24L1493.67 1172.47C1424.97 1125.18 1361.11 1069.59 1286.65 1031.41C1210.5 994.728 1124.57 993.288 1046.55 962.681C1044.89 940.618 998.533 934.985 999.997 938.391C951.075 908.858 925.894 873.708 918.129 841.406C910.356 809.113 920.015 779.651 881.905 769.611ZM223.462 1461.68C141.133 1337.74 62.6543 1474.86 28.3796 1557.51C-12.1168 1670.6 71.748 1809.71 125.921 1907.22C145.875 1934.29 172.122 1991.4 207.295 1995.54C295.91 1995.18 384.652 1988.94 473.314 1987.08C530.574 1972.87 450.242 1886.8 394.756 1918.23C377.945 1924.53 369.543 1943.62 353.154 1949.75C347.179 1951.02 346.765 1948.36 344.338 1942.41L343.988 1941.58C339.66 1931.28 335.46 1920.93 331.195 1910.6C295.09 1821.67 256.925 1733.52 218.983 1645.41C210.876 1626.28 222.245 1610.52 237.027 1599.13C248.341 1589.81 296.992 1567.06 251.157 1577.07C268.804 1536.09 247.593 1494.5 223.462 1461.68ZM427.869 1292.03C419.945 1291.03 409.761 1299.03 408.544 1306.77C398.432 1370.95 409.697 1434.4 423.207 1497.17L425.689 1508.66C430.67 1531.56 436.239 1554.91 448.658 1574.98C461.34 1595.46 480.522 1610.9 502.537 1620.28C573.178 1648.44 661.029 1620.59 712.99 1567.95C746.231 1522.39 717.008 1465.17 711.431 1415.24C716.706 1401.78 718.647 1386.23 721.694 1372.35L722.068 1370.7L733.915 1318.95C736.532 1307.54 728.218 1291.93 714.55 1293.49C619.3 1304.42 523.016 1303.93 427.869 1292.03Z" fill="white"></path> <path fill-rule="evenodd" clip-rule="evenodd" d="M95.1943 1445.46C95.4807 1444.18 93.9532 1443.21 92.9587 1444.16C76.2032 1460.32 64.3647 1480.98 51.3724 1500.11C39.0008 1518.34 25.5391 1535.86 16.3101 1555.97C7.74139 1574.67 2.21191 1593.63 0.565004 1614.18C-1.0819 1634.58 1.05035 1655.03 4.64649 1675.12C11.7274 1714.7 26.8518 1752.18 43.4561 1788.59C59.6069 1823.98 77.85 1858.36 97.1116 1892.12L104.018 1904.17C112.443 1918.85 120.956 1933.49 130.074 1947.71C141.419 1965.4 151.77 1983.66 166.735 1998.43C177.356 2008.93 197.374 1998.43 192.537 1983.41C190.436 1976.87 188.781 1970.71 185.527 1964.64C183.053 1960.02 180.261 1955.53 177.643 1950.97C172.4 1941.86 167.205 1932.71 161.961 1923.59C150.95 1904.44 139.35 1885.64 128.443 1866.43C109.515 1833.1 91.6459 1799.15 75.8452 1764.21L73.9914 1760.08C59.4478 1727.72 45.6759 1694.21 39.2872 1659.21C32.5643 1622.34 38.587 1587.58 51.6747 1552.92C58.4533 1535 66.0672 1517.48 73.9835 1500.02L75.5032 1496.69C83.149 1480.03 91.256 1463.46 95.1943 1445.46ZM908.979 807.622C908.828 806.97 907.722 806.922 907.619 807.622C902.909 838.937 913.387 872.058 930.445 898.107C939.754 912.332 951.234 925.181 964.767 935.508L965.826 936.304C979.645 946.639 998.318 956.623 1015.48 949.916C1016.02 949.71 1016.52 949.479 1016.99 949.208C1015.06 952.2 1013.28 955.35 1011.46 958.493C1006.07 967.857 1001.23 977.564 995.963 987.008C986.551 1003.91 975.341 1019.02 961.171 1032.26C904.508 1085.17 824.948 1097.74 750.232 1097.14L744.957 1097.09C712.139 1096.86 669.216 1098.54 643.876 1074.77C630.263 1062.01 622.768 1043.86 615.99 1026.83C609.331 1010.13 604.78 992.895 599.25 975.909C610.795 967.993 621.384 958.326 629.706 947.02C638.378 935.253 644.934 922.006 648.713 907.861L649.278 905.752C652.198 894.471 655.142 879.553 650.432 868.9C649.891 867.675 647.878 867.754 647.305 868.9C644.767 874 644.282 879.744 642.714 885.194C640.9 891.535 638.848 897.836 636.142 903.843C630.915 915.483 624.009 926.541 615.719 936.232C608.877 944.252 601.47 951.611 592.997 957.801C588 949.176 576.424 948.015 566.726 950.855C553.726 954.658 540.901 959.535 528.37 964.691L525.864 965.725C513.476 970.865 499.473 975.59 487.873 982.608C480.832 985.965 474.078 989.347 467.721 992.338C436.063 1007.22 404.876 1023.01 373.823 1039.1L367.172 1042.55C354.164 1049.33 341.275 1056.17 329.962 1065.62C318.441 1075.24 309.507 1088.39 301.097 1100.72C281.883 1128.9 263.783 1157.89 244.792 1186.22C206.436 1243.39 168.08 1300.56 129.501 1357.6C120.168 1371.4 109.65 1384.87 101.281 1399.27C93.261 1413.02 93.4758 1427.14 95.0431 1442.5L95.3375 1445.32C98.329 1473.48 103.485 1500.52 119.277 1524.68C144.14 1562.64 183.308 1586.28 224.735 1602.56C219.675 1606.33 214.925 1610.4 208.886 1612.99C199.61 1616.96 189.712 1619.01 179.672 1619.83C168.963 1620.69 156.902 1618.02 148.221 1625.3C144.745 1628.2 144.641 1635.2 148.221 1638.11C156.559 1644.92 167.34 1642.97 177.5 1641.82L178.112 1641.76C187.54 1640.72 196.833 1638.97 205.696 1635.51C207.876 1634.65 210.048 1633.68 212.148 1632.63C212.077 1632.82 212.045 1633.03 212.077 1633.27C213.596 1644.85 216.874 1655.81 220.335 1666.88L222.539 1673.89C227.01 1688.22 231.513 1702.51 236.152 1716.8C244.975 1744.01 254.594 1770.97 264.245 1797.88L272.575 1821.11C281.127 1844.94 289.792 1868.74 299.371 1892.17C305.282 1906.63 311.233 1921.09 317.168 1935.54C322.968 1949.64 327.79 1964.88 334.982 1978.32C340.901 1989.38 357.036 1981.46 354.45 1970.09C351.053 1955.18 344.648 1940.38 339.755 1925.87C334.783 1911.14 329.906 1896.39 324.846 1881.69C316.054 1856.16 306.308 1830.97 296.506 1805.81L286.8 1780.85C277.277 1756.41 267.642 1731.99 257.347 1707.86L256.217 1705.22C245.524 1679.98 234.473 1651.6 215.036 1632.04C214.79 1631.77 214.432 1631.64 214.082 1631.6C218.855 1629.01 223.327 1625.87 227.257 1622.16L227.448 1621.96C229.007 1620.31 235.428 1612.19 237.496 1607.34C240.186 1608.3 242.875 1609.22 245.564 1610.13C250.25 1611.71 254.133 1610.56 256.877 1608.06L262.097 1611.3C267.674 1614.7 273.673 1617.93 279.839 1618.1C287.604 1618.3 293.706 1614.02 297.851 1607.69C301.582 1602.04 303.802 1595.94 308.528 1590.87C313.174 1585.9 318.545 1581.7 324.042 1577.7L330.519 1572.98C342.389 1564.31 353.901 1555.55 363.457 1544.1C368.262 1538.31 374.707 1531.45 377.626 1524.5C378.199 1523.17 378.549 1521.9 378.621 1520.68C379.257 1525.01 379.918 1529.36 380.57 1533.71C389.743 1594.76 397.158 1656.24 399.529 1717.98C400.691 1748.43 401.208 1778.92 399.848 1809.39C399.179 1824.61 398.065 1839.81 396.538 1854.97C395.782 1862.57 394.994 1870.16 394.064 1877.73L393.857 1879.48C393.586 1881.79 393.411 1884.04 393.61 1886.17C386.219 1889.81 381.963 1899.03 379.003 1906.23C376.751 1911.71 378.501 1917.04 382.129 1920.89C377.793 1924.84 373.927 1929.48 370.689 1934.8C370.028 1935.87 371.445 1936.71 372.28 1936.04C377.61 1931.81 383.347 1928.32 389.33 1925.65C392.472 1926.84 395.901 1927.16 399.06 1926.29C402.489 1925.34 405.449 1923.06 407.581 1920.15C424.575 1917.36 442.237 1920.77 457.537 1931.42C460.711 1933.63 463.584 1936.14 466.328 1938.86C466.798 1939.34 467.283 1939.94 467.776 1940.53L464.435 1941.81C463.051 1942.34 461.921 1942.74 461.483 1942.83C458.571 1943.43 455.612 1943.75 452.66 1944L448.221 1944.37C431.195 1945.78 414.224 1946.25 398.384 1953.37C395.058 1954.87 396.22 1960 399.362 1960.86C410.922 1964 422.395 1963.76 434.17 1962.91L436.692 1962.72C447.64 1961.89 459.383 1961.93 470.06 1958.91C467.506 1965.9 470.983 1975.04 481.66 1976.46C513.707 1980.73 545.969 1978.72 578.055 1975.89C610.46 1973.03 642.849 1970.33 675.342 1968.63C780.441 1963.1 885.7 1964.16 990.887 1965.67L1050.33 1966.53C1097.74 1967.19 1145.16 1967.71 1192.56 1967.35L1214.75 1967.15C1224.13 1967.05 1233.51 1966.94 1242.88 1966.66L1248.5 1966.48C1259.66 1966.07 1274.43 1967.75 1284.13 1961.15C1292.13 1955.7 1293.91 1945.71 1289.09 1937.65C1287.69 1935.34 1285.78 1933.27 1283.78 1931.25C1279.68 1896.19 1277.37 1860.96 1275.02 1825.75C1266.85 1702.53 1271.63 1579.95 1290.47 1457.97C1341.03 1473.42 1390.81 1492.81 1439.32 1513.61C1465.56 1524.86 1491.67 1536.53 1517.47 1548.77C1541.02 1559.95 1564.67 1573.93 1589.83 1581.19C1592.12 1583.22 1595.31 1584.19 1598.15 1583.29L1598.52 1583.15H1598.54C1601.12 1583.76 1604 1583.39 1606.82 1581.7C1607.39 1581.35 1607.97 1581 1608.54 1580.64L1609.39 1580.1C1618.25 1574.51 1627.16 1567.64 1633.43 1559.23C1641.04 1566.3 1649.23 1572.76 1657.28 1579.33C1666.02 1586.46 1674.73 1593.62 1683.37 1600.85C1686.8 1603.72 1690.58 1606.47 1693.6 1609.78L1694.04 1610.26C1694.11 1610.34 1694.18 1610.42 1694.24 1610.5C1681.15 1618.97 1669.69 1631.84 1659.42 1643.02C1648.39 1655.02 1637.74 1667.4 1627.18 1679.84L1616.96 1691.9C1544.67 1777.29 1471.64 1865.78 1378.06 1928.54C1363.27 1938.46 1377.37 1962.63 1392.06 1952.48C1419.86 1933.33 1446.17 1912.06 1471.43 1889.68C1515.7 1850.49 1555.54 1806.51 1592.84 1760.69C1611.71 1737.5 1630.03 1713.75 1647.99 1689.83L1654.08 1681.72C1662.2 1670.9 1670.27 1660.05 1678.01 1648.96L1679.62 1646.63C1686.41 1636.84 1693.62 1625.84 1697.99 1614.57C1699.67 1616.27 1701.57 1617.69 1704.35 1618.77C1709.09 1620.62 1714.9 1616.74 1716.06 1612.11C1718.88 1600.9 1709.14 1594.22 1701.2 1588.27C1691.57 1581.07 1681.75 1574.12 1671.92 1567.22L1668.41 1564.74C1656.11 1556.01 1643.75 1547.06 1630.35 1540.16C1629.95 1539.63 1629.46 1539.12 1628.91 1538.68C1628.27 1538.18 1627.65 1537.69 1627.01 1537.2C1643.01 1511.24 1660.56 1486.28 1680.14 1462.71C1694.87 1444.97 1710.5 1428.04 1727.04 1412L1734.47 1404.8C1745.71 1393.94 1757.39 1382.92 1769.87 1373.49L1773.77 1377.92C1778.98 1383.82 1784.25 1389.67 1789.82 1395.22C1800.78 1406.11 1811.58 1417.23 1822.34 1428.34C1840.21 1446.84 1857.47 1465.89 1874.67 1484.98L1883.27 1494.52C1901.19 1514.41 1920.39 1533.94 1936.67 1555.19L1937.49 1556.27C1944.6 1565.81 1949.66 1576.37 1946.36 1588.49C1943.17 1600.17 1935.59 1610.53 1929.05 1620.62L1928.4 1621.63C1901.73 1663.2 1873.15 1703.7 1842.55 1742.47C1781.24 1820.1 1711.32 1893.68 1627.88 1947.66C1616.32 1955.14 1627.13 1973.74 1638.71 1966.18C1687.44 1934.31 1732.2 1896.04 1773.38 1854.94C1811.18 1817.22 1845.44 1775.69 1877.54 1733.06C1893.19 1712.27 1908.18 1691.03 1922.55 1669.32C1936.49 1648.25 1952.61 1626.58 1962.71 1603.34C1968 1591.11 1969.95 1577.88 1965.62 1565C1961.64 1553.16 1953.78 1543.33 1945.59 1534.08L1944.83 1533.21C1926.02 1512.08 1906.87 1491.2 1887.56 1470.51C1868.18 1449.76 1847.91 1429.75 1827.22 1410.33C1810.96 1395.05 1794.02 1381.58 1775.9 1369.1C1777.53 1367.94 1779.16 1366.83 1780.82 1365.76C1785.88 1362.46 1787.16 1355.41 1782.72 1350.94C1770.6 1338.7 1756.64 1328.05 1743.49 1316.91C1731.14 1306.43 1718.78 1295.94 1706.43 1285.45C1681.28 1264.12 1656.14 1242.79 1630.99 1221.45C1585.83 1183.12 1540.92 1144.54 1495.9 1106.05C1477.13 1090 1458.19 1074.16 1439.29 1058.26L1389.3 1016.21C1380.89 1009.16 1372.29 1002.19 1362.73 996.817C1340.22 984.167 1313.15 978.693 1288.35 971.987L1286.7 971.541C1258.88 963.927 1230.91 956.759 1202.79 950.37C1174.64 943.981 1146.36 938.165 1117.98 932.898C1092.46 928.157 1066.34 924.091 1040.33 923.486C1033.87 921.028 1025.77 920.169 1019.41 922.794C1016.79 923.884 1014.05 925.483 1011.61 927.504C998.891 923.025 986.336 920.893 974.45 913.326C962.579 905.776 952.077 895.855 943.238 884.923C924.963 862.296 915.4 835.556 908.979 807.622ZM616.491 1574.05C626.579 1573.34 635.657 1577.51 644.663 1581.95C639.587 1584.15 634.511 1586.34 629.436 1588.5L595.654 1602.93C584.492 1607.69 572.677 1611.83 562.072 1617.69C561.308 1618.11 560.703 1618.62 560.25 1619.21C549.223 1612.15 537.559 1605.85 526.381 1599.13C523.827 1597.6 521.257 1596.08 518.687 1594.54C531.998 1599 545.642 1601.23 560.098 1597.05C579.384 1591.48 596.123 1575.48 616.491 1574.05ZM588.86 1540.22L590.674 1538.98C600.452 1532.27 612.131 1523.64 624.009 1529.67C629.603 1532.51 634.193 1537.11 639.707 1540.16C645.252 1543.26 651.354 1545.63 657.544 1547.06C667.808 1549.43 679.575 1549.78 690.618 1547.49L690.451 1562.42C682.097 1565.87 673.799 1569.41 665.492 1572.97C660.098 1571.13 654.911 1568.91 649.453 1566.48L645.777 1564.83C635.267 1560.11 624.662 1556.95 613.046 1558.44C591.183 1561.25 574.658 1577.51 553.75 1582.92C528.115 1589.58 504.987 1570.45 480.769 1565.72C476.775 1564.94 472.654 1564.47 468.564 1564.4L467.204 1564.39L466.599 1564.04C461.388 1560.98 453.583 1558.05 449.955 1552.91C446.009 1547.33 445.667 1537.97 444.378 1531.42C444.242 1530.76 444.107 1530.09 443.988 1529.44C446.271 1529.44 448.594 1529.55 450.949 1529.99C458.341 1531.35 465.302 1533.97 472.192 1536.9C485.216 1542.44 497.962 1548.74 511.678 1552.42C525.108 1556.03 539.142 1557.75 552.978 1555.75C566.471 1553.8 577.681 1547.71 588.86 1540.22ZM586.759 1487.71L588.78 1486.41C594.126 1483 600.253 1479.46 606.801 1480.72C612.648 1481.85 617.669 1486.5 622.768 1489.38C633.947 1495.69 646.485 1499.13 659.271 1500.01C669.916 1500.73 680.959 1499.43 691.19 1496.27L690.84 1529.33C687.093 1530.53 683.211 1531.38 679.121 1531.69C666.718 1532.61 654.616 1529.63 644.21 1522.79L638.951 1519.3C629.945 1513.37 621.487 1508.68 609.569 1510.83C597.77 1512.99 587.873 1520.56 578.222 1527.14L576.639 1528.21C565.564 1535.53 554.33 1540.25 540.742 1540.37C526.063 1540.48 511.559 1536.4 497.898 1531.37C484.333 1526.39 471.436 1520.42 456.932 1518.59C452.493 1518.03 447.083 1517.87 441.991 1518.74C441.315 1514.99 440.678 1511.26 440.074 1507.51C438.761 1499.45 437.639 1491.41 436.66 1483.36C462.398 1476.43 486.163 1498.84 510.063 1505.76C523.93 1509.76 539.023 1509.71 552.89 1505.85C565.723 1502.26 575.812 1494.83 586.759 1487.71ZM586.696 1432.04C592.193 1430.98 597.619 1433.52 602.289 1436.13C614.208 1442.74 624.495 1451.94 637.996 1455.41C655.356 1459.88 674.347 1456.03 691.596 1448.72C691.524 1458.93 691.445 1469.14 691.358 1479.34C688.119 1480.57 684.786 1481.56 681.389 1482.35C669.327 1485.1 656.534 1484.74 644.647 1481.25C632.53 1477.71 623.238 1468.13 611.081 1465.13C598.654 1462.06 586.942 1468.04 576.926 1474.83L573.91 1476.89C562.469 1484.65 551.363 1491.41 537.042 1492.73C521.893 1494.12 508.734 1489.38 495.201 1483.09L492.05 1481.64C474.921 1473.76 452.684 1464.8 435.586 1473.76C434.242 1461.05 433.263 1448.33 432.611 1435.6C434.966 1434.73 437.4 1434.09 440.209 1434.07C446.916 1434.04 453.957 1436.16 460.21 1438.36C473.871 1443.19 486.601 1450.38 500.126 1455.55C512.951 1460.46 527.16 1463.01 540.837 1460.81C553.511 1458.78 563.026 1452.15 571.786 1443.07L573.059 1441.73C576.894 1437.64 581.007 1433.14 586.696 1432.04ZM576.655 1384.84C582.996 1381.49 590.705 1378.38 598.041 1379.36C605.026 1380.28 609.689 1385.03 613.993 1390.1L616.324 1392.88C624.033 1402 631.616 1409.66 643.486 1413.41C655.794 1417.28 668.834 1415.76 680.283 1410.09C684.348 1408.08 688.135 1405.58 691.93 1403.1L691.731 1429.92C684.133 1433.7 676.4 1437.12 667.911 1439.19C652.246 1443 638.935 1440.18 625.537 1431.54L624.129 1430.62C614.041 1423.99 603.698 1416.1 591.231 1415.36C579.066 1414.63 569.94 1421.38 561.928 1429.63L560.99 1430.61C550.893 1441.27 540.686 1446.47 525.657 1445.24C511.089 1444.05 497.461 1437.61 484.11 1432.07L482.901 1431.57C470.696 1426.56 456.63 1421.39 443.232 1423.31C440.018 1423.76 435.865 1424.76 432.173 1426.49C431.632 1413.95 431.377 1401.38 431.33 1388.81C438.944 1382.2 450.798 1381.11 460.322 1383.82C475.247 1388.05 487.468 1398.98 501.725 1404.92C514.367 1410.18 527.542 1411.36 540.431 1406.38C553.75 1401.23 564.188 1391.43 576.655 1384.84ZM432.173 1332.01C454.474 1332.78 476.297 1347.29 497.588 1352.83C521.384 1359 540.797 1350.58 561.992 1341.24L564.729 1340.03C575.597 1335.25 587.284 1330.96 599.338 1332.91C611.081 1334.83 621.471 1341.34 631.576 1347.23L633.509 1348.34C651.911 1358.82 670.648 1365.99 692.137 1364.2C692.018 1370.95 692.066 1377.67 692.05 1384.27C688.517 1386.29 685.128 1388.57 681.898 1390.66L680.736 1391.39C670.497 1397.8 659.939 1402.01 647.726 1398.06C635.928 1394.22 630.382 1383.95 622.275 1375.49C614.828 1367.72 605.114 1363 594.222 1363.45C582.511 1363.92 571.428 1369.08 561.753 1375.39C552.071 1381.7 542.707 1389.85 531.377 1393.01C505.965 1400.07 484.198 1373.19 460.162 1369C450.074 1367.24 438.944 1369.47 431.33 1375.56C431.417 1361.06 431.736 1346.53 432.173 1332.01ZM624.161 1325.92C627.303 1326.04 630.446 1326.17 633.589 1326.31C645.22 1326.81 656.852 1327.38 668.484 1328.04C676.535 1328.47 686.433 1330.95 694.333 1328.49C694.532 1329.3 694.802 1330.07 695.16 1330.83C693.967 1336.78 693.227 1342.94 692.774 1349.16C685.478 1349.95 678.063 1349.68 670.871 1348.18C653.606 1344.6 639.587 1333.71 624.161 1325.92ZM432.507 1320.92C474.985 1323.85 517.78 1322.85 560.329 1323.76L565.429 1323.88C565.636 1323.88 565.835 1323.91 566.034 1323.91C561.157 1325.79 556.319 1327.96 551.49 1330.17L546.677 1332.38C535.276 1337.62 523.676 1341.91 510.922 1340.99C497.254 1339.99 484.381 1334.41 471.603 1329.91C459.423 1325.6 445.388 1322.71 432.388 1324.59C432.428 1323.37 432.46 1322.16 432.507 1320.92Z" fill="black"></path> <path d="M696.562 1307.04C582.494 1329.53 430.404 1299.54 425.651 1299.54L429.79 1521.55C430.17 1541.88 441.441 1560.45 459.31 1570.17L568.236 1629.42C575.84 1621.42 661.708 1579.44 703.691 1559.44C697.988 1541.45 696.562 1383.68 696.562 1307.04Z" fill="white"></path> <path d="M562.385 1363.72L486.914 1407.29V1494.34L508.467 1506.78L508.326 1419.75L562.244 1388.59L616.162 1419.75V1506.74L637.716 1494.34V1407.22L562.385 1363.72Z" fill="black"></path> <path d="M573.093 1506.78L562.316 1513.02L551.505 1506.82V1419.76L529.951 1432.19L529.987 1519.22L562.316 1537.88L594.646 1519.22V1432.19L573.093 1419.76V1506.78Z" fill="black"></path> <path fill-rule="evenodd" clip-rule="evenodd" d="M523.792 339.138C579.222 260.602 718.501 251.756 806.519 252.253C980.358 250.805 1016.76 450.694 1025.84 590.767C1044.37 593.918 1062.41 600.386 1074.65 614.962C1089.54 632.712 1094.69 663.183 1080.72 683.034C1071.44 696.217 1056.79 700.617 1041.47 701.356C990.725 696.511 980.319 741.757 955.329 775.69C891.195 862.363 780.089 890.48 678.187 890.909C643.571 891.832 601.873 894.434 579.707 861.854C509.702 740.452 508.174 579.446 503.862 441.874C503.265 406.653 503.417 369.368 523.792 339.138Z" fill="white"></path> <path fill-rule="evenodd" clip-rule="evenodd" d="M404.172 407.253C403.472 408.584 402.947 410.056 402.66 411.659C401.753 416.746 403.623 420.635 406.082 424.411C405.763 427.045 405.58 429.597 405.445 431.842C404.657 444.446 407.545 461.724 418.652 466.87C418.827 467.078 419.002 467.285 419.185 467.492C420.044 468.887 421.349 470.095 423.076 470.976C423.497 471.273 423.935 471.556 424.365 471.798C424.484 471.896 424.603 471.983 424.723 472.071C424.818 472.135 424.906 472.199 424.993 472.267C424.754 472.024 424.532 471.77 424.301 471.522C430.451 473.974 436.386 474.48 442.719 473.736C446.633 475.151 450.564 476.209 453.874 477.028C464.216 479.582 477.543 481.627 487.623 477.271C490.559 476.004 492.994 474.324 494.823 472.321C494.672 480.124 494.441 487.924 494.107 495.726C493.415 515.45 493.455 535.158 493.606 554.901C493.773 577.114 494.394 599.344 495.587 621.541C496.144 632.687 497.035 643.818 498.229 654.917C499.231 665.729 500.409 676.525 501.769 687.282C504.983 709.416 510.274 731.708 516.734 753.102C519.535 762.379 522.614 771.783 526.107 780.964C527.586 785.181 529.154 789.35 530.848 793.487C539.807 815.16 550.969 836.084 566.046 854.144C574.28 863.994 583.374 872.857 593.526 880.304C601.681 886.661 610.504 892.039 620.203 896.28C641.048 905.397 664.311 907.442 686.851 907.108C695.451 906.996 704.561 905.477 713.09 904.053L713.607 903.965C720.266 902.875 727.005 901.411 733.68 899.693C739.599 898.316 745.447 896.717 751.207 894.847C758.153 893.018 764.812 890.376 771.145 886.963L782.371 882.746C787.065 880.98 791.616 878.88 796.04 876.469L808.244 870.772C813.304 868.33 818.229 865.657 823.034 862.713C823.536 862.45 824.109 861.997 824.331 861.488C824.849 861.201 825.374 860.923 825.891 860.636C826.623 860.247 827.355 859.849 828.079 859.435C828.278 859.34 828.126 858.751 827.856 858.178C828.079 857.724 828.039 857.215 827.434 856.762C826.981 856.412 826.265 856.515 825.501 856.746C825.572 856.698 825.62 856.65 825.676 856.595C826.511 856.141 827.339 855.704 828.158 855.25C829.001 854.797 829.137 853.619 828.349 852.999C828.126 852.831 827.872 852.744 827.625 852.728C827.625 852.728 827.649 852.72 827.657 852.712H827.673C827.824 852.609 827.705 852.139 827.49 851.622C827.912 851.081 828.039 850.429 827.307 849.856C826.289 849.06 824.013 850.357 822.955 850.97C822.875 851.017 822.796 851.057 822.732 851.097C822.072 851.463 821.404 851.821 820.743 852.171C820.337 852.386 819.94 852.601 819.534 852.816C819.47 852.664 819.335 852.529 819.12 852.394C820.679 851.566 822.223 850.731 823.767 849.888H823.774C824.729 849.379 825.978 848.32 824.713 847.334C823.703 846.522 821.101 847.899 819.86 848.607C819.709 848.487 819.534 848.44 819.335 848.408C819.55 848.289 819.772 848.169 819.995 848.05C820.329 847.867 820.664 847.692 820.982 847.501C822.494 846.658 821.467 844.032 819.908 844.907C819.725 845.027 819.534 845.13 819.351 845.249C818.285 845.154 816.805 845.981 816.041 846.411L815.922 846.475C810.663 849.784 805.181 852.68 799.501 855.171C795.666 856.985 791.823 858.783 787.956 860.533C784.153 862.411 780.239 864.042 776.221 865.426C766.117 869.356 755.917 873.024 745.614 876.421C731.174 880.375 716.232 883.55 701.235 884.799C699.286 884.95 697.337 885.077 695.388 885.149C693.263 885.133 691.131 885.117 689.007 885.109C686.867 885.093 684.734 885.077 682.594 885.061C675.052 884.282 667.51 883.518 659.975 882.754L657.755 882.523C654.867 882.118 652.043 881.616 649.25 881.028C647.786 880.678 646.323 880.304 644.883 879.882C644.54 879.842 644.206 879.779 643.872 879.723C643.705 879.691 643.538 879.659 643.371 879.635C639.822 878.689 636.338 877.567 632.861 876.254C630.673 875.363 628.509 874.416 626.353 873.43C619.248 870.112 612.255 865.744 605.667 860.732C601.538 856.619 597.409 852.513 593.287 848.408C589.158 844.303 585.029 840.189 580.908 836.084L573.358 825.789C563.611 811.85 555.894 796.312 549.489 780.455L539.306 751.097C538.247 747.565 537.237 744.032 536.282 740.484C534.349 732.552 532.416 724.612 530.482 716.695C529.846 713.783 529.217 710.895 528.613 707.999C524.897 689.995 522.853 671.712 521.086 653.437C517.856 620.173 516.981 586.813 516.75 553.421C516.599 533.459 516.766 513.5 517.172 493.557C517.403 481.989 517.57 470.42 517.737 458.851C517.96 446.575 518.19 434.283 518.517 422.009C518.532 421.74 518.429 421.504 518.294 421.302C518.326 419.857 518.341 418.41 518.365 416.947C518.381 415.989 518.007 415.568 517.474 415.485C517.57 406.723 517.641 397.98 517.657 389.236C517.657 388.664 517.387 388.294 517.037 388.075V385.856C518.493 379.769 520.482 373.8 523.051 368.116C523.927 366.065 524.897 364.064 525.979 362.113C527.3 359.187 529.034 356.53 531.151 354.093C532.917 351.116 535.089 348.476 537.611 346.122C538.12 345.752 538.637 345.382 539.154 345.012C539.672 344.642 540.189 344.272 540.698 343.903C541.557 343.448 542.814 342.658 543.928 341.75C544.931 341.137 545.925 340.519 546.92 339.901C547.914 339.283 548.909 338.665 549.911 338.051C551.073 337.445 550.317 335.932 549.489 335.528V335.478C549.672 335.393 549.879 335.293 550.094 335.108C552.521 332.821 555.035 330.668 557.66 328.651C558.13 328.836 558.687 328.768 559.108 328.415C560.652 326.97 562.235 325.574 563.842 324.229C567.462 321.858 571.241 319.688 575.195 317.772C581.528 314.779 588.013 312.206 594.672 310.02C595.969 309.594 597.274 309.208 598.57 308.825L598.992 308.7C599.78 308.663 600.559 308.623 601.347 308.584C602.604 308.52 603.869 308.457 605.126 308.402C681.289 305.059 757.66 306.464 833.648 312.596C852.368 314.108 871.065 315.908 889.73 317.995C893.255 318.389 896.922 318.695 900.662 319.008C914.386 320.154 929.081 321.382 940.943 327.296C941.588 327.615 942.192 327.953 942.789 328.301C941.763 334.86 939.304 341.286 936.918 347.527C936.56 348.476 936.194 349.421 935.843 350.361C931.706 361.352 927.991 372.554 928.365 384.455C928.619 392.755 930.402 400.736 932.971 408.534C934.284 419.654 937.753 430.394 941.429 440.946C959.529 492.86 969.378 546.014 968.368 601.126C968.344 602.598 968.678 603.886 969.267 604.984L969.235 605.199C968.917 607.538 968.591 609.877 968.217 612.209C966.705 621.493 978.949 626.116 983.174 619.958C983.452 620.236 983.85 620.427 984.208 620.459C985.29 620.562 987.049 618.796 987.558 617.993C988.21 616.775 988.902 615.598 989.642 614.476C989.738 614.428 989.825 614.389 989.913 614.357C989.69 614.818 989.459 615.28 989.237 615.741C989.006 616.218 988.775 616.704 988.544 617.165C987.804 618.645 990.653 619.369 991.488 618.008C992.244 616.815 993 615.669 993.756 614.579C994.193 614.898 994.686 614.977 995.005 614.46C997.71 609.989 1000.84 606.154 1004.27 602.892C1009.66 598.484 1015.56 595.811 1022.26 594.244C1027.54 593.488 1032.96 593.456 1038.18 594.061C1044.18 594.769 1050.51 596.265 1055.93 599.001C1060.36 602.049 1064.8 605.096 1069.23 608.135C1070.32 609.281 1071.37 610.474 1072.34 611.715C1075.42 615.701 1077.88 619.958 1079.92 624.477C1080 624.763 1080.09 625.05 1080.17 625.32C1081.42 629.123 1082.22 633.022 1082.58 637.023C1082.6 639.553 1082.62 642.084 1082.64 644.606C1082.66 647.136 1082.68 649.658 1082.71 652.188C1082.04 658.767 1080.36 665.156 1077.79 671.227C1076.58 674.807 1074.68 678.005 1072.11 680.83C1070.72 683.216 1069.16 685.38 1067.41 687.401C1063.86 689.756 1060 691.761 1055.88 693.336H1055.88C1054.87 693.607 1053.86 693.877 1052.84 694.076C1047.55 696.113 1042.06 697.203 1036.4 697.354C1029.24 697.848 1022.23 697.219 1015.37 695.493C1011.14 694.737 1007.03 693.504 1003.07 691.809C999.269 689.891 995.689 687.584 992.347 684.895C991.973 684.664 991.424 684.8 990.82 685.102C990.08 684.561 989.34 684.036 988.616 683.447C988.282 683.216 987.979 683.503 987.828 683.805L987.621 683.654C986.293 682.747 982.649 685.587 984.296 687.266C983.588 687.704 982.88 688.229 982.243 688.762C979.323 688.881 973.42 694.259 974.526 695.103C976.173 696.535 977.907 697.848 979.673 699.089C978.106 700.25 976.061 702.048 977.016 702.772C978.735 704.403 980.596 705.811 982.577 707.029C983.922 708.047 985.306 709.026 986.746 709.917C988.314 710.84 989.913 711.635 991.56 712.375C988.68 717.937 985.943 723.554 983.389 729.274C981.686 733.324 979.721 737.246 977.454 741.009C974.566 746.745 971.097 752.124 967.047 757.136C963.753 762.681 959.887 767.781 955.471 772.436C950.005 778.657 944.142 784.513 937.904 789.923C935.414 791.689 932.876 793.408 930.242 794.983C923.496 800.067 916.319 804.419 908.705 808.047C907.814 808.54 907.114 809.614 908.148 810.458C908.188 810.474 908.22 810.473 908.252 810.505C905.762 811.921 903.263 813.314 900.741 814.69L900.654 814.738C899.635 815.287 897.758 816.305 899.23 817.499C900.2 818.31 903.208 816.862 905.006 815.923C904.894 815.987 904.767 816.051 904.648 816.122C904.504 816.194 904.361 816.273 904.218 816.361C904.194 816.369 904.162 816.385 904.123 816.409C903.383 816.807 900.558 818.318 902.436 819.297C903.43 819.472 904.369 819.297 905.276 818.811C906.223 818.461 907.162 818.071 908.085 817.666C908.053 817.968 908.22 818.254 908.705 818.493C909.095 818.557 909.461 818.557 909.835 818.525C907.782 819.687 905.73 820.832 903.661 821.954C903.057 822.28 900.2 823.855 902.086 824.834C903.009 825.017 903.9 824.866 904.759 824.397C906.319 823.808 907.87 823.116 909.366 822.36C909.716 822.161 910.066 821.97 910.424 821.771C910.694 821.771 910.957 821.739 911.227 821.692C909.581 822.583 907.918 823.434 906.239 824.277C905.245 824.818 903.582 825.908 905.006 827.022C906 827.778 908.673 826.409 910.257 825.518C910.352 825.638 910.472 825.773 910.639 825.908C911.673 826.688 914.123 825.28 915.357 824.564C915.532 824.46 915.683 824.373 915.802 824.309C924.14 819.838 932.192 815.215 939.941 809.916C944.675 806.877 949.297 803.679 953.824 800.194C962.48 793.503 970.341 785.722 977.557 777.511C982.482 771.894 985.155 768.736 989.929 761.926C997.59 750.962 1003.37 739.529 1008.94 727.404C1009.02 727.221 1008.86 726.752 1008.6 726.282C1009.75 723.474 1010.85 720.626 1011.96 717.69C1014.86 718.072 1017.76 718.342 1020.64 718.509C1027.41 718.899 1033.98 718.295 1040.35 716.894C1048.06 715.9 1055.7 713.72 1062.46 710.291C1066.51 708.254 1070.4 706.082 1074.1 703.663C1077.41 701.897 1080.61 699.876 1083.67 697.521C1096.69 687.568 1103.77 672.118 1105.5 656.078C1106.83 649.013 1107.11 641.749 1106.33 634.74C1105.75 629.64 1104.61 624.596 1102.94 619.735C1099.87 608.962 1094.14 598.986 1085.84 591.435C1084.44 590.011 1082.97 588.651 1081.42 587.37C1076.79 583.583 1071.55 580.543 1065.96 578.324C1064.89 577.799 1063.8 577.313 1062.71 576.86L1064.03 573.797C1064.51 573.932 1066.14 573.661 1066.34 573.097C1066.66 572.197 1066.98 571.283 1067.3 570.376C1067.5 569.803 1067.7 569.238 1067.9 568.673C1068.2 568.856 1068.59 568.959 1069.01 568.975V570.67C1069 571.155 1069.92 574.187 1070.42 572.603C1070.74 571.72 1071.04 570.821 1071.34 569.93C1071.53 569.357 1071.72 568.784 1071.92 568.219C1072.34 567.949 1072.66 567.631 1072.78 567.257C1072.82 567.106 1072.88 566.954 1072.94 566.803C1072.97 566.787 1073.01 566.787 1073.04 566.779L1073.06 566.771V567.289C1073.05 567.615 1073.88 570.033 1074.03 569.564C1076.94 561.56 1079.31 553.381 1081.16 545.075C1082.43 540.509 1083.41 535.88 1084.17 531.19C1085 526.969 1085.72 522.732 1086.34 518.46L1086.49 517.401C1086.5 517.359 1086.51 517.321 1086.52 517.283C1086.52 517.246 1086.53 517.208 1086.54 517.165C1086.59 516.711 1086.64 516.241 1086.71 515.787C1087.38 510.96 1087.94 506.118 1088.35 501.241C1089.24 491.22 1089.6 481.148 1089.5 471.092C1089.63 471.144 1089.77 471.211 1089.9 471.277C1089.98 471.316 1090.06 471.357 1090.14 471.394C1094.5 473.254 1099.12 474.775 1103.81 475.985C1111.89 487.662 1124.78 495.563 1140.23 496.394C1145.47 496.676 1150.96 496.039 1156.04 494.561C1156.56 494.682 1157.11 494.78 1157.67 494.854C1160.32 495.2 1162.46 494.632 1164.68 494.044C1165.91 493.714 1167.17 493.378 1168.57 493.194C1169.07 493.127 1169.56 493.063 1170.05 493.001C1175.6 492.287 1180.34 491.678 1184.02 488.369C1185.26 488.398 1186.45 488.218 1187.57 487.882C1198.21 490.433 1209.51 484.81 1213.25 473.026C1219.62 469.286 1224.71 463.739 1228.13 457.302C1234.71 448.86 1239.97 438.511 1243.23 427.637C1243.25 427.595 1243.28 427.555 1243.3 427.515C1243.33 427.454 1243.36 427.393 1243.39 427.329C1245.04 423.738 1245.83 419.885 1245.9 416.021C1247.66 405.014 1247.2 393.993 1243.85 384.306C1243.99 379.054 1242.76 373.581 1240.5 368.616C1237.76 362.594 1233.58 355.671 1228.17 351.656C1228.15 345.485 1225.5 338.691 1222.03 334.087C1215.09 324.891 1205.04 320.03 1194.16 319.327C1188.62 305.137 1171.86 301.822 1157.4 306.546C1151.39 300.405 1142.59 297.472 1133.81 298.516C1126.38 299.399 1120.03 302.953 1114.78 307.849C1113.39 308.244 1112.01 308.656 1110.64 309.085C1106.03 307.065 1100.67 306.608 1095.76 307.874C1087.25 310.069 1081.69 316.519 1077.85 323.918C1076.63 324.762 1075.43 325.633 1074.26 326.542C1072.98 327.118 1071.82 327.886 1070.76 328.791C1069.23 329.609 1067.92 330.956 1067.13 332.91C1064.95 335.147 1062.94 337.512 1061.15 340.05C1059.81 336.958 1058.44 333.887 1057.01 330.839C1054.7 331.536 1051.9 330.633 1050.73 327.536L1050.43 326.748C1042.98 306.955 1029.7 271.716 1017.19 255.36C1031.99 265.445 1050.07 270.76 1068.03 270.225C1068.79 270.202 1069.57 270.17 1070.35 270.128C1080 271.792 1089.8 271.947 1098.81 270.141C1104.86 267.94 1110.77 265.317 1116.49 262.349C1117.89 261.626 1119.26 260.866 1120.64 260.099C1121.07 259.735 1121.48 259.342 1121.89 258.949C1122.05 258.794 1122.21 258.639 1122.37 258.486C1123.55 258.572 1124.79 258.48 1126.11 258.13C1131.06 256.82 1135.65 253.522 1138.52 249.285C1139.06 248.497 1139.49 247.684 1139.87 246.866C1142.99 243.815 1145.69 240.36 1147.67 236.319C1150.01 231.594 1151.44 226.28 1151.59 220.967C1152.57 215.754 1152.49 210.39 1150.68 205.413C1150.55 205.074 1150.42 204.741 1150.28 204.407C1150.2 204.211 1150.11 204.014 1150.03 203.815C1149.99 203.678 1149.95 203.537 1149.92 203.396C1149.86 203.192 1149.81 202.988 1149.74 202.79C1149.21 201.016 1148.53 199.435 1147.71 197.938C1147.41 196.4 1146.91 194.874 1146.21 193.39C1146.13 192.672 1146.03 191.954 1145.92 191.239C1151.26 181.158 1149.37 167.976 1141.37 159.782C1142.48 154.485 1141.35 148.868 1138.13 144.169C1135.76 140.715 1132.47 137.989 1128.75 136.097C1128.36 135.901 1127.33 135.563 1126.1 135.175C1124.72 133.955 1123.26 132.801 1121.67 131.786C1121.3 121.932 1111.47 116.249 1102.95 111.327C1102.54 111.089 1102.13 110.854 1101.73 110.619C1098.96 109.009 1096.95 106.695 1094.93 104.38C1092.82 101.949 1090.7 99.5179 1087.71 97.8964C1082.46 95.0641 1076.01 94.4125 1069.97 93.8007C1068.63 93.6662 1067.31 93.5325 1066.03 93.3782C1049.34 91.3677 1031.57 89.8139 1014.81 91.631C1005.49 92.6399 997.781 97.1382 994.599 104.506C986.587 105.453 979.451 111.235 973.802 117.18C966.753 124.601 960.746 132.501 958.677 142.251C957.301 142.997 956.052 143.908 954.914 144.937C954.962 151.794 955.853 158.663 957.746 165.135C957.19 169.004 958.351 172.698 960.324 176.049C960.022 179.22 960.237 182.342 960.905 185.454C957.07 192.257 960.658 202.535 966.029 209.28L966.069 213.083C965.75 212.917 965.432 212.721 965.146 212.473C949.703 199.328 933.99 195.704 917.011 191.791C907.21 189.53 896.986 187.173 886.158 182.83C859.465 177.676 832.224 174.396 804.887 173.304C805.253 173.251 805.611 173.212 805.969 173.153C819.749 170.896 832.98 165.228 844.357 157.084C847.372 156.321 850.228 154.96 852.782 152.686C855.265 150.476 856.991 147.926 857.977 145.193C858.423 144.71 858.869 144.224 859.306 143.73C867.851 141.631 874.359 134.237 873.269 124.518C878.679 118.114 880.668 110.205 878.838 101.971C881.862 96.8645 882.124 90.4257 879.865 85.0331C884.614 79.2617 884.988 71.0694 881.265 64.5407C884.662 59.7058 885.41 53.2996 881.217 47.5736C879.236 44.8701 876.491 43.1651 873.508 42.3409C872.664 39.2253 870.946 36.3317 868.249 34.0968C866.864 32.948 865.408 32.0959 863.929 31.4602C863.372 28.2435 861.55 25.1932 858.057 22.7936C856.466 21.7053 854.843 21.0027 853.236 20.6129C851.708 16.829 849.035 13.5113 845.288 11.3576C840.761 8.75916 835.494 8.41466 830.696 9.77674C824.427 0.303463 810.679 -3.36905 801.147 3.65774C793.207 -1.25593 783.222 -0.22005 776.094 5.75495C767.469 0.65432 756.753 2.71257 749.99 9.82369C739.146 3.89802 724.841 8.27543 719.041 19.503C708.101 18.2889 697.79 25.4518 694.87 35.8201C694.401 36.2052 693.932 36.6014 693.462 36.9976L693.343 37.1018C686.787 37.4161 680.558 39.9851 676.882 46.0826C675.052 49.1274 674.201 52.706 674.328 56.2123C670.406 58.331 667.247 61.8062 665.887 66.3109C664.614 70.5348 665.099 74.7133 666.77 78.354C661.312 84.1603 659.872 93.2103 663.73 100.503C662.131 103.247 661.304 106.491 661.431 109.862C661.63 114.855 663.937 118.879 667.088 122.314C663.134 129.461 664.677 138.628 671.106 143.639C674.805 156.748 684.162 165.47 698.49 170.821C705.691 173.508 713.225 175.578 720.903 177.097C690.184 181.232 659.967 188.5 630.936 199.335C629.352 199.926 628.016 199.696 626.989 199.008C626.711 199.156 626.432 199.298 626.154 199.441C625.796 199.623 625.43 199.805 625.08 199.998C617.076 204.387 609.247 209.146 601.617 214.241C601.617 213.4 601.602 212.559 601.562 211.701C601.713 204.782 600.981 197.967 599.143 191.398C601.554 188.12 603.352 184.384 604.331 180.533C606.773 170.925 602.127 157.253 593.781 153.97C590.853 145.855 584.202 139.983 576.047 137.673C575.402 137.09 574.718 136.523 573.946 135.996C572.228 134.816 570.35 134.011 568.425 133.543C567.422 129.146 564.972 125.098 560.898 122.259C555.162 118.248 548.376 117.813 542.408 120C541.271 119.618 540.125 119.287 538.963 119C529.361 110.824 514.395 111.427 505.946 120.992C500.146 118.34 493.312 118.223 487.376 121.791C482.627 124.646 479.667 129.25 478.513 134.303C469.523 134.579 461.297 140.548 458.703 149.457C450.413 150.395 443.634 156.883 442.194 165.048C436.911 165.785 432.026 168.269 429.059 173.212C427.682 175.497 426.942 177.997 426.743 180.501C424.07 181.784 421.675 183.726 419.869 186.264C416.695 190.709 416.082 195.901 417.252 200.785C417.14 201.007 417.029 201.226 416.918 201.445C416.751 201.762 416.583 202.079 416.432 202.402C415.573 204.239 414.881 206.208 414.26 208.207C411.476 212.228 410.187 217.143 410.441 222.08C409.853 224.169 409.28 226.262 408.802 228.365C406.925 236.621 406.217 245.416 407.506 253.823C408.15 257.893 409.073 261.895 410.386 265.779C410.521 266.519 410.736 267.208 410.99 267.864C411.714 270.925 412.637 273.935 413.815 276.877C416.639 280.627 419.591 284.276 422.702 287.807C425.327 291.742 428.319 295.374 431.7 298.703C434.135 301.108 436.808 303.344 439.648 305.362C445.289 309.883 451.598 313.409 458.329 315.703C459.53 315.451 460.74 315.254 461.949 315.061C469.595 319.271 481.624 319.747 488.976 319.718C497.083 319.688 504.506 317.64 510.68 313.771C509.964 315.195 509.248 316.621 508.532 318.051C508.707 318.153 508.906 318.246 509.057 318.365C510.393 316.154 511.881 314.19 513.631 312.778C516.034 310.845 519.893 310.672 521.556 313.798C521.588 313.852 521.611 313.907 521.643 313.963C522.526 315.629 522.399 317.228 521.731 318.533C521.476 318.888 521.238 319.246 520.991 319.602C520.903 319.703 520.816 319.812 520.72 319.905L520.768 319.91C518.469 321.758 516.209 326.285 514.069 330.686C512.621 333.256 511.245 335.864 509.948 338.518C509.2 339.631 507.855 340.608 506.431 340.893C506.71 343.011 505.739 345.202 504.132 346.288C503.718 345.441 503.201 344.573 502.549 343.679C495.325 333.862 481.131 329.626 470.438 334.113C468.306 333.753 466.166 333.455 464.01 333.285C456.953 332.82 449.8 333.374 442.831 334.836C440.666 336.133 438.598 337.595 436.673 339.261C435.042 340.674 433.53 342.154 432.114 343.684C431.024 344.502 429.95 345.37 428.899 346.275C424.627 348.573 421.484 352.983 418.851 357.371C416.759 360.329 414.929 363.472 413.353 366.801C406.018 379.345 397.568 394.919 404.172 407.253ZM991.926 649.666C989.237 652.776 987.136 656.245 985.624 660.064C985.02 661.289 985.76 662.029 987.001 661.807C987.558 661.727 988.314 661.321 989.085 660.78C989.03 660.923 988.966 661.059 988.902 661.194C988.839 661.329 988.775 661.464 988.719 661.608C988.067 662.904 988.616 663.827 990.112 663.342C990.199 663.286 990.279 663.239 990.35 663.191C989.579 664.567 988.871 665.983 988.266 667.463C987.606 668.768 988.194 669.675 989.674 669.174C990.454 668.736 991.186 668.235 991.894 667.678C991.806 667.869 991.719 668.06 991.631 668.251C991.401 668.76 991.162 669.269 990.955 669.794C990.279 671.123 991.058 671.815 992.363 671.513C993.493 670.892 994.535 670.152 995.506 669.293C995.609 669.214 995.705 669.134 995.792 669.047C995.84 669.007 995.88 668.959 995.928 668.919C995.49 670.017 996.317 670.686 997.407 670.471C998.959 670.168 1001.86 667.559 1002.57 666.182C1002.62 666.095 1002.65 666.015 1002.71 665.928C1003.53 665.371 1004.42 664.599 1005.09 663.859C1005.63 664.631 1006.67 665.204 1007.14 664.265C1008.55 660.414 1010.76 657.12 1013.77 654.344C1015.48 651.838 1017.56 649.705 1020 647.939C1021.31 646.825 1022.68 645.767 1024.07 644.757C1026.53 643.635 1029.11 642.776 1031.8 642.203C1032.1 642.107 1032.41 642.036 1032.72 641.964C1032.96 641.901 1033.19 641.845 1033.43 641.781L1033.63 641.749C1034.75 641.543 1035.87 641.336 1037 641.176C1041.85 640.508 1046.73 640.389 1051.6 640.826C1052.47 640.858 1053.31 640.182 1053.68 639.41C1054.78 639.466 1055.85 639.514 1056.94 639.617C1058.74 639.681 1058.36 637.143 1057 636.888C1055.28 636.57 1053.57 636.331 1051.88 636.132C1051.92 635.981 1051.94 635.814 1051.9 635.679C1054.98 635.528 1058.04 635.591 1061.13 635.918C1062.47 635.981 1060.88 633.491 1060.14 633.356C1059.97 633.324 1059.79 633.3 1059.62 633.268C1059.45 633.244 1059.28 633.22 1059.11 633.189C1059.15 633.141 1059.16 633.109 1059.18 633.053H1059.27C1061.11 633.141 1062.38 630.197 1060.16 629.791C1059.89 629.744 1059.62 629.704 1059.37 629.664C1059.08 629.624 1058.8 629.577 1058.53 629.521C1058.63 629.242 1058.65 628.988 1058.54 628.749C1059.5 628.733 1060.44 628.733 1061.4 628.733C1061.15 628.717 1060.93 628.184 1060.7 627.627C1060.45 627.031 1060.19 626.41 1059.87 626.362L1058.39 626.163C1058.36 625.543 1057.41 624.095 1057.01 624.007C1053.82 623.474 1050.69 623.1 1047.6 622.981C1047.3 622.281 1046.86 621.334 1046.44 621.334C1042.92 621.286 1039.55 621.318 1036.19 621.668C1036.05 621.573 1035.91 621.517 1035.8 621.541C1035.6 621.581 1035.41 621.628 1035.23 621.676C1034.89 621.756 1034.55 621.835 1034.2 621.923C1032.33 622.193 1030.47 622.583 1028.57 623.132C1024.08 624.461 1019.6 626.561 1015.71 629.171C1012.05 631.629 1008.4 634.183 1005.2 637.246C1004.08 638.201 1003.02 639.243 1002.01 640.317C1000.38 641.662 998.808 643.046 997.288 644.407C995.442 646.101 993.644 647.852 991.926 649.666Z" fill="black"></path> <path fill-rule="evenodd" clip-rule="evenodd" d="M677.803 764.962C689.1 760.356 699.181 752.662 706.556 742.836C709.118 739.415 709.778 735.811 709.245 732.509C708.64 728.802 706.444 725.436 703.453 723.185C700.454 720.925 696.698 719.803 693.07 720.376C689.912 720.87 686.777 722.596 684.287 726.176L683.77 726.892C679.386 732.828 673.681 737.689 667.173 740.831C660.904 743.855 653.887 745.263 646.631 744.443C632.803 742.884 623.28 735.405 613.152 725.245C611.895 723.965 610.638 722.644 609.381 721.299C608.585 720.082 607.471 719.294 606.246 718.889C604.885 718.427 603.342 718.459 601.926 718.952C600.565 719.422 599.348 720.329 598.529 721.53C597.757 722.668 597.311 724.076 597.454 725.699C598.385 736.217 603.883 745.613 611.696 752.988C620.376 761.183 631.88 766.848 642.708 768.837C654.635 771.025 666.791 769.457 677.803 764.962ZM637.076 602.595C624.386 610.312 605.045 628.309 618.697 647.443C634.776 664.318 657.912 644.977 669.314 636.225C679.887 629.447 691.773 646.886 681.964 654.803C599.563 715.833 566.115 604.616 630.655 593.525C637.768 592.3 640.401 600.208 637.076 602.595ZM784.74 531.602C783.34 514.188 756.83 510.233 754.189 527.466C751.834 542.901 754.61 557.078 761.564 570.978C768.199 584.256 784.891 578.066 786.156 565.973C787.851 549.767 785.615 542.431 784.74 531.602ZM582.935 523.892C579.235 519.05 573.897 515.743 567.508 517.612C547.53 523.452 553.418 551.827 560.435 565.631C564.246 573.134 576.57 575.035 582.139 568.432C591.217 557.667 595.561 536.159 584.025 525.552C583.706 525.004 583.356 524.451 582.935 523.892ZM761.842 455.403L758.684 454.85C748.922 453.161 736.789 451.538 729.883 459.39C726.215 463.553 724.958 471.291 729.883 475.277C738.539 482.288 748.118 479.571 758.493 480.165C767.046 480.656 775.264 482.072 783.499 484.428C801.575 489.595 816.302 499.028 831.736 509.387C833.757 510.745 835.826 508.153 834.863 506.258C825.952 488.799 808.688 474.458 791.391 465.716C782.154 461.05 772.058 457.178 761.842 455.403ZM601.146 447.582L598.727 448.076C572.441 453.572 538.293 464.552 525.85 490.379C525.372 494.031 525.874 494.813 526.279 495.325L526.415 495.495C526.757 495.932 527.019 496.534 528.603 497.031C529.04 496.926 529.486 496.815 529.931 496.697C535.644 495.202 540.155 493.141 544.523 491.003L549.265 488.668C554.762 485.972 560.308 483.373 566.187 481.455C578.726 477.362 591.631 474.479 604.726 472.94C607.567 472.607 610.303 471.648 612.459 470.004C614.504 468.445 616.072 466.285 616.788 463.415C617.711 459.701 617.44 456.888 615.451 453.537C613.955 451.021 611.807 449.276 609.349 448.274C606.843 447.254 603.986 447.013 601.146 447.582Z" fill="black"></path> </svg> 