<?xml version="1.0" encoding="UTF-8"?> <svg xmlns="http://www.w3.org/2000/svg" width="2016" height="2325" viewBox="0 0 2016 2325" fill="none"> <path fill-rule="evenodd" clip-rule="evenodd" d="M95.5848 1697.43C98.453 1693.11 101.388 1688.84 104.403 1684.61C100.844 1688.47 97.3336 1692.4 93.9212 1696.36C94.5144 1696.67 95.0711 1697.04 95.5848 1697.43ZM427.549 1419.56C428.105 1419.14 428.735 1418.77 429.457 1418.48C431.12 1417.79 432.79 1417.07 434.453 1416.38C437.609 1412.02 440.575 1407.53 443.351 1402.95C437.548 1409.01 431.664 1414.88 425.317 1420.39C426.056 1420.11 426.809 1419.84 427.549 1419.56ZM482.184 1396.19C509.233 1381.8 536.495 1367.79 563.819 1354.05C566.179 1352.87 568.467 1352.9 570.411 1353.69C582.159 1347.65 593.968 1341.69 605.905 1336.04C613.171 1332.62 620.491 1329.38 627.786 1326.12C628.343 1325.29 628.857 1324.42 629.291 1323.49C633.663 1314.16 629.517 1302.57 626.692 1293.39C625.976 1291.09 626.276 1289.09 627.193 1287.52C625.652 1274.12 626.227 1260.64 628.875 1248.49C635.155 1219.54 650.689 1193.16 665.464 1167.84C680.642 1141.86 693.943 1115.77 702.547 1086.84C719.842 1028.77 721.169 967.98 719.921 907.896C718.545 841.152 714.681 774.42 712.002 707.725C711.201 687.844 710.418 667.957 709.776 648.057C708.223 648.987 706.975 649.946 704.651 650.631C700.866 651.738 697.001 652.65 693.173 653.549C685.529 655.341 677.774 656.588 670.001 657.664C655.385 659.682 640.812 660.594 626.068 660.386C624.258 660.355 622.448 660.306 620.65 660.239C629.181 703.451 628.636 749.206 629.419 792.883C630.349 843.39 632.82 894.399 627.193 944.735C621.696 993.934 607.141 1040.91 591.259 1087.6C574.912 1135.66 558.083 1183.59 542.201 1231.79C533.242 1258.99 524.252 1286.19 515.244 1313.37C510.92 1326.47 506.572 1339.57 502.249 1352.65C497.503 1366.97 495.131 1383.84 483.114 1393.86C481.781 1394.96 480.288 1395.81 478.686 1396.4C478.417 1396.97 478.16 1397.51 477.873 1398.07C479.316 1397.44 480.741 1396.82 482.184 1396.19ZM661.195 1288.54C663.085 1297.4 666.289 1306.16 670.662 1312.96C670.662 1313.73 670.827 1314.54 671.206 1315.38C675.566 1324.87 685.987 1330.39 694.995 1334.67C705.844 1339.82 717.047 1344.26 727.994 1349.22C744.371 1356.63 761.164 1362.39 778.379 1366.51C778.697 1366.64 779.021 1366.79 779.357 1366.91C807.39 1378.15 836.09 1387.65 865.194 1395.73C924.177 1412.14 984.708 1422.63 1045.51 1429.48C1104.41 1436.1 1163.74 1439.9 1222.98 1441.69C1276.74 1443.34 1331.37 1442.16 1384.38 1432.34C1422.35 1425.32 1459.66 1413.69 1493.87 1396.04C1496.63 1391.71 1500.5 1388.01 1503.73 1383.96C1503.33 1377.44 1507.27 1370.18 1513.23 1367.87C1515.55 1362.73 1517.36 1357.39 1518.63 1351.89C1517.24 1338.45 1515.37 1325.06 1512.63 1311.61C1507.22 1285.26 1500.17 1259.28 1493.09 1233.34C1478.31 1179.21 1466.5 1125.26 1464.53 1068.99C1462.52 1011.99 1468.27 955.186 1476.12 898.82C1484.08 841.586 1493.65 784.56 1503.93 727.704C1509.76 695.384 1515.38 662.997 1521.55 630.72C1527.79 598.075 1532.71 564.789 1540.83 532.549C1541.09 531.509 1542.79 531.699 1542.74 532.818C1541.62 561.799 1537.61 590.841 1534.81 619.706C1532.83 639.954 1530.71 660.178 1528.54 680.395C1532.93 679.386 1537.68 679.979 1542.8 680.077C1551.22 680.255 1559.63 680.157 1568.05 680.206C1584.86 680.267 1601.69 680.346 1618.52 680.426C1647.44 680.554 1676.49 680.989 1705.36 683.068C1707.14 682.64 1708.94 682.206 1710.75 681.661C1717.65 679.582 1719.87 674.647 1720.31 667.749C1721.49 650.43 1719 632.463 1718.7 615.077C1718.38 596.602 1718.49 578.127 1719.07 559.664C1719.43 547.58 1718.25 532.757 1725.24 522.25C1724.56 512.68 1723.75 503.103 1722.74 493.563C1718.95 457.733 1712.49 421.743 1701.39 387.405C1693.36 362.589 1680.18 339.821 1661.24 321.731C1624.08 286.286 1572.68 272.257 1524.66 258.204C1466.63 241.203 1408.81 220.258 1356.48 189.583C1357.12 190.977 1356.72 192.806 1354.83 193.185C1351.78 193.815 1349.54 195.46 1347.87 197.717C1347.13 201.465 1346.04 205.165 1344.57 208.779C1344.26 209.519 1343.88 210.174 1343.45 210.749C1342.71 216.148 1342.63 221.671 1342.25 225.56C1340.96 238.751 1338.58 251.636 1334.96 264.381C1327.66 290.017 1316.24 314.656 1301.14 336.635C1270.82 380.727 1225.54 414.393 1173.53 428.005C1121.03 441.722 1062.81 435.974 1015.61 408.503C971.951 383.094 938.12 341.038 928.213 291.026C922.942 264.448 923.792 237.393 928.757 210.846C929.558 206.59 930.439 202.217 931.436 197.814C898.15 226.392 855.452 243.925 814.264 257.452C770.239 271.909 725.107 283.785 684.99 307.752C666.516 318.784 648.982 332.519 636.14 349.985C620.209 371.664 613.336 396.896 609.024 423.119C603.239 458.344 599.025 493.881 595.05 529.344C593.063 547.177 591.222 565.046 589.534 582.915C588.654 592.376 587.804 601.837 587.021 611.316C586.446 618.006 585.804 623.338 583.621 628.414C596.219 631.778 608.975 634.303 621.83 636.578C637.009 639.281 652.456 640.853 667.842 641.795C675.774 642.278 683.724 642.437 691.675 642.565C695.631 642.633 699.594 642.535 703.55 642.565C705.813 642.584 707.654 643.189 709.623 643.593C707.862 587.282 707.287 530.928 710.699 474.703C710.779 473.278 713.084 472.764 713.341 474.354C724.624 540.474 730.587 607.567 735.173 674.439C739.674 740.015 744.402 805.59 748.377 871.215C752.015 931.513 753.379 992.393 743.075 1052.16C738.042 1081.33 729.737 1109.62 717.958 1136.79C706.358 1163.57 689.962 1187.78 676.612 1213.67C664.4 1237.38 655.728 1263.21 661.195 1288.54ZM744.842 1896.84C768.655 1889.94 791.13 1880.04 813.31 1869.03C834.714 1858.42 857.409 1847.12 875.541 1831.44C875.932 1831.11 875.517 1830.39 875.027 1830.56C852.669 1838.54 831.473 1850.38 809.69 1859.92C787.057 1869.82 763.91 1878.49 741.197 1888.2C736.164 1890.35 739.839 1898.29 744.842 1896.84ZM792.518 2013.69C798.37 2017.63 804.797 2021.2 811.463 2023.52C820.52 2026.71 829.687 2027.53 838.805 2026.6C840.169 2010.18 841.833 1993.78 843.838 1977.41C823.309 1987.75 801.832 1996.35 780.385 2004.97C784.635 2007.51 788.286 2010.83 792.518 2013.69ZM876.623 1929.14C877.241 1935.77 886.084 1935.62 886.842 1929.14C890.279 1899.8 891.997 1870.22 894.945 1840.82C900.18 1788.7 908.827 1737.39 920.728 1686.37C923.73 1673.49 926.862 1660.64 930.329 1647.88C932.121 1641.26 938.23 1629.63 934.121 1622.86C929.069 1614.53 922.079 1626.32 927.473 1626.99C928.024 1627.06 928.017 1626.27 927.595 1626.1C931.791 1627.77 928.874 1631.54 927.773 1634.53C926.715 1637.39 925.626 1640.26 924.575 1643.13C922.471 1648.87 920.416 1654.63 918.422 1660.42C914.099 1672.94 910.044 1685.52 906.454 1698.27C899.446 1723.19 893.282 1748.42 888.536 1773.88C879.082 1824.65 871.847 1877.45 876.623 1929.14ZM1480.64 2080.21C1484.02 2078.46 1488.09 2077.84 1491.68 2078.56C1503.51 2080.92 1508.21 2087.75 1518.35 2092.89C1524.31 2095.92 1534.62 2098.43 1540.87 2098.82C1551.27 2099.44 1557.28 2098.72 1566.82 2095.69C1573.76 2093.48 1581.32 2089.39 1586.48 2084.63C1600.21 2072 1607 2054.51 1613.01 2036.76C1619.62 2017.18 1625.31 1996.93 1635.51 1978.82C1640.64 1969.72 1647.14 1960.94 1654.9 1953.91C1662.27 1947.23 1674.15 1942.38 1679.16 1933.53C1684.34 1924.4 1684.77 1911.18 1686.31 1900.92C1687.85 1890.62 1688.97 1880.26 1689.71 1869.89C1692.57 1829.52 1689.88 1785.23 1667.39 1750.24C1639.13 1706.32 1587.97 1693.58 1540.55 1681.28C1539.83 1688.84 1538.96 1696.38 1537.92 1703.9C1536.66 1713.12 1535.11 1722.31 1533.34 1731.45C1541.88 1738.27 1549.39 1746.98 1554.64 1753.35C1567.37 1768.87 1576.88 1786.56 1583.43 1805.51C1589.75 1823.78 1592.86 1843.15 1592.3 1862.48C1592.01 1872.09 1590.53 1881.45 1587.82 1890.67C1587.07 1893.21 1586.18 1895.97 1585.1 1898.74C1588.45 1904.55 1589.08 1912.06 1585.18 1917.74C1550.39 1968.51 1515.59 2019.27 1480.8 2070.03C1479.2 2072.37 1477.59 2074.72 1475.99 2077.07C1477.56 2078.07 1479.1 2079.12 1480.64 2080.21ZM1540.79 1678.7C1543.21 1678.73 1545.63 1678.8 1548.07 1678.86C1545.69 1678.21 1543.32 1677.55 1540.95 1676.89C1540.9 1677.5 1540.85 1678.09 1540.79 1678.7ZM1542.18 1660.63C1563.74 1666.52 1585.26 1672.59 1606.15 1680.57C1618.36 1685.25 1632.77 1690.28 1644.98 1697.65C1648.59 1699.37 1652.1 1701.23 1655.53 1703.26C1655.04 1700.73 1655.06 1698.06 1655.67 1695.37C1658.49 1682.77 1660.59 1670.03 1662.95 1657.33C1663.2 1655.97 1663.51 1653.21 1664.02 1650.05C1661.71 1645.86 1659.98 1641.32 1658.02 1636.79C1654.47 1628.57 1650.91 1620.34 1647.33 1612.13C1640.64 1596.65 1633.94 1581.17 1627.24 1565.7C1613.5 1533.99 1599.83 1502.19 1586.66 1470.24C1577.73 1448.56 1568.79 1426.87 1560.18 1405.04C1557.8 1407.85 1554.09 1409.77 1549.06 1409.96C1524.78 1410.83 1521.56 1442.91 1523.56 1460.73C1525.09 1474.29 1528.72 1487.63 1531.27 1501.03C1533.87 1514.71 1536.01 1528.47 1537.87 1542.27C1543.11 1581.5 1544.62 1621.18 1542.18 1660.63ZM1745.44 1979.47C1774.85 1977.75 1804.46 1980.57 1833.18 1987.04C1860.94 1993.28 1887.91 2002.61 1915.7 2008.83C1929.25 2011.85 1942.95 2013.93 1956.86 2014.25C1963.54 2014.4 1970.29 2014.22 1976.94 2013.47C1977.77 2013.37 1978.83 2013.08 1979.91 2012.81C1978 2006.97 1974.59 2002.06 1969.7 1997.14C1962.9 1990.3 1957.18 1986.52 1948.74 1981.11C1931.73 1970.23 1914.02 1960.36 1899.93 1945.64C1881.9 1926.76 1873.36 1902.55 1868.91 1877.27C1864.13 1850.19 1861.06 1822.81 1856.47 1795.69C1852.7 1773.29 1848.38 1750.89 1843.07 1728.76C1836.85 1709.28 1828.74 1690.43 1819.53 1672.07C1812.46 1658.02 1804.64 1644.41 1797.01 1630.67C1790.63 1636.58 1781.11 1635.49 1775.71 1627.86C1773.21 1624.32 1770.25 1620.89 1769.08 1616.63C1767.95 1612.58 1768.32 1607.91 1768.29 1603.76C1768.23 1595.97 1768.16 1588.17 1768.1 1580.35C1767.95 1564.23 1767.78 1548.1 1767.56 1531.98C1767.12 1500.76 1766.48 1469.54 1765.42 1438.32C1763.29 1375.54 1759.88 1312.8 1752.79 1250.37C1738.9 1127.78 1703.61 1009.04 1688.4 886.669C1686.52 871.619 1684.89 856.391 1683.68 841.06C1677.07 794.002 1675.93 746.247 1680.39 698.84C1628.73 698.393 1577.09 700.986 1525.73 706.606C1519.53 764.256 1512.44 821.747 1505.12 879.239C1497.94 935.482 1491.78 992.203 1492.44 1048.98C1492.76 1076.91 1494.67 1104.92 1499.27 1132.48C1503.71 1159.12 1510.45 1185.3 1517.63 1211.31C1524.85 1237.4 1532.6 1263.35 1538.97 1289.65C1548.61 1313.83 1559.11 1337.65 1569.91 1361.32C1597.16 1421.06 1625.34 1480.34 1652.02 1540.33C1659.71 1557.65 1667.32 1575.01 1674.98 1592.35C1678.82 1601.03 1682.64 1609.7 1686.47 1618.36C1690.78 1628.13 1696.36 1637.66 1696.32 1648.57C1696.28 1655.09 1692.4 1659.81 1687.36 1661.91C1689.5 1674.51 1690.21 1687.28 1690.36 1700.06C1690.43 1707.68 1685.42 1713.96 1678.78 1716.4C1678.8 1718.06 1678.85 1719.69 1678.93 1721.34C1679.02 1721.43 1679.12 1721.53 1679.21 1721.61C1714.04 1756.8 1723.51 1807.82 1723.23 1855.55C1723.08 1880.51 1720.53 1905.68 1716.27 1930.25C1713.65 1945.33 1707.07 1957.77 1694.98 1967.32C1686.44 1974.05 1676.73 1980.57 1671.17 1988.77C1670.03 1990.46 1668.96 1992.18 1667.93 1993.92C1691.81 1983.91 1720.32 1980.92 1745.44 1979.47ZM1348.92 185.027C1348.95 186.177 1348.95 187.345 1348.92 188.501C1350.37 188.097 1351.91 187.877 1353.61 187.889C1352.02 186.959 1350.49 185.969 1348.92 185.027ZM3.40056 1881.42C7.22882 1846.23 13.0142 1810.82 25.563 1777.58C37.1029 1747.02 54.3607 1719.43 74.9269 1694.15C95.6154 1668.71 119.337 1645.95 143.615 1623.96C169.227 1600.79 195.187 1577.94 221.392 1555.43C272.981 1511.11 326.803 1468.69 386.05 1435.13C386.068 1435.1 386.08 1435.06 386.117 1435.03C386.208 1434.98 386.306 1434.95 386.422 1434.91C396.054 1429.46 405.827 1424.21 415.765 1419.26C418.186 1418.06 420.51 1418.14 422.479 1418.97C422.528 1418.91 422.558 1418.83 422.626 1418.78C429.726 1412.14 437.193 1406.22 444.917 1400.32C451.313 1389.39 456.664 1377.88 460.749 1365.76C461.153 1364.58 461.795 1363.62 462.547 1362.8C464.15 1358.41 465.941 1354.06 467.531 1349.69C471.855 1337.69 476.087 1325.67 480.368 1313.67C488.923 1289.65 497.466 1265.62 506.059 1241.62C523.225 1193.64 539.712 1145.42 556.352 1097.24C571.977 1052 588.006 1006.56 595.937 959.222C604.156 910.232 602.285 859.822 602.94 810.348C603.306 781.789 603.484 753.144 604.957 724.634C606.083 702.827 607.526 681.087 611.483 659.713C600.31 658.894 589.192 657.407 578.16 655.499C566.033 653.39 540.69 651.855 541.222 634.53C541.43 627.998 546.433 623.448 552.487 621.785C553.9 621.388 555.324 621.229 556.768 621.21C555.483 610.288 558.162 598.442 559.202 587.655C560.773 571.357 562.473 555.06 564.314 538.793C568.02 506.002 572.283 473.266 577.022 440.603C581.333 410.956 585.743 381.124 599.625 354.149C610.168 333.644 625.823 315.793 643.87 301.544C718.906 242.292 820.404 240.818 899.287 189.234C919.688 175.884 937.943 159.183 951.134 138.562C958.668 126.765 963.719 114.051 967.309 100.555C969.633 91.8461 971.81 83.3273 974.599 74.7657C977.338 66.3936 978.109 59.52 983.283 52.1448C983.845 51.3437 985.05 51.631 985.111 52.6217C985.607 60.2415 984.23 66.938 983.845 74.5212C983.46 82.4345 983.717 90.2317 982.916 98.1879C982.726 100.188 982.482 102.187 982.243 104.175C982.518 104.652 982.738 105.184 982.916 105.759C986.585 117.445 984.585 130.11 978.347 140.213C978.427 141.271 978.347 142.341 978.06 143.411C974.917 155.086 969.211 165.874 964.949 177.193C960.912 187.938 957.482 198.921 954.821 210.094C949.807 231.18 947.85 252.859 949.947 274.471C954.467 320.802 981.986 360.283 1020.51 385.436C1063.29 413.353 1117.54 420.3 1166.78 408.197C1216.98 395.857 1258.51 363.836 1287.84 321.872C1304.14 298.566 1316.61 272.386 1324.38 245.044C1327.36 234.556 1329.12 223.542 1331.98 212.974C1329.19 211.458 1327.51 208.461 1329.12 204.523C1333.35 194.212 1334.03 184.048 1330.9 173.481C1302.42 154.205 1275.97 131.664 1253.41 105.698C1230.99 79.8721 1207.76 48.5061 1198.07 15.336C1194.28 2.30398 1213.85 -6.40448 1220.32 5.96704C1227.4 19.5005 1233.21 33.4437 1240.94 46.6652C1248.72 59.9847 1257.61 72.6375 1267.47 84.4953C1287.09 108.125 1309.9 129.23 1334.8 147.221C1390.33 187.345 1454.52 213.121 1519.6 233.278C1570 248.884 1622.73 262.497 1664.58 296.31C1710.72 333.595 1726.6 392.224 1735.27 448.51C1738.94 472.318 1741.08 496.272 1742.04 520.3C1743.05 522.22 1743.28 524.476 1742.26 526.592C1743.69 571.675 1741.09 616.954 1736.78 661.841C1736.8 666.599 1736.44 671.289 1735.38 675.742C1734.87 680.683 1734.34 685.63 1733.8 690.565C1733.67 691.813 1733.06 692.663 1731.87 693.091C1727.32 694.724 1722.77 695.702 1718.17 696.008C1717.39 696.277 1716.58 696.522 1715.78 696.742C1714.5 698.393 1712.48 699.5 1709.71 699.415C1708.13 699.372 1706.54 699.335 1704.96 699.292C1703.15 699.8 1701.39 700.423 1699.72 701.304C1698.48 701.964 1697.24 702.252 1696.07 702.283C1694.06 725.191 1693.35 748.167 1693.94 771.075C1695.72 803.334 1699.71 835.452 1706.01 867.613C1717.69 927.3 1734.66 985.929 1750.16 1044.7C1782.15 1165.91 1796.94 1289.91 1802.67 1414.94C1804.29 1450.27 1805.06 1485.68 1805.63 1521.04C1805.92 1538.22 1806.13 1555.38 1806.3 1572.56C1806.38 1581.39 1806.46 1590.23 1806.54 1599.09C1806.59 1603.21 1806.88 1607.45 1806.61 1611.56C1806.54 1612.58 1806.4 1613.52 1806.22 1614.45C1806.24 1614.48 1806.25 1614.52 1806.27 1614.57C1823.04 1637.38 1835.81 1663.7 1847 1689.59C1858.44 1716.04 1868.17 1743.22 1875.68 1771.05C1883.22 1798.92 1888.68 1827.06 1893.94 1855.43C1898.33 1879.08 1903.42 1905.29 1921.7 1922.51C1935.49 1935.51 1954.73 1944.27 1971.02 1954.83C1989.61 1966.86 2006.27 1981.58 2013.59 2003.09C2018.69 2018.01 2016.22 2035.13 2001.12 2042.94C1988.13 2049.67 1969.7 2049.15 1955.42 2048.5C1925.24 2047.09 1895.88 2038.92 1866.96 2030.73C1835.18 2021.71 1803.69 2013.48 1770.49 2012.59C1753.85 2012.14 1737.03 2012.92 1720.59 2015.52C1703.51 2018.19 1687.13 2023.89 1670.13 2026.61C1664.47 2027.54 1658.81 2026.34 1655.04 2022.49C1644.23 2053.04 1638.03 2086.33 1613.23 2109.88C1594.16 2127.97 1567.04 2137.21 1540.87 2135.69C1526.75 2134.85 1513.35 2131.41 1500.62 2125.23C1494.54 2122.27 1489.04 2118.45 1483.76 2114.2C1480.53 2111.61 1478.27 2108.81 1476.7 2105.7C1471.95 2102.82 1467.28 2099.84 1462.66 2096.78C1436.55 2135.56 1410.6 2174.65 1381.45 2211.11C1348.47 2252.35 1308.64 2286.08 1259.01 2305.33C1212.74 2323.26 1161.55 2326.79 1112.46 2322.62C1060.66 2318.2 1009.76 2306.43 960.093 2291.41C935.833 2284.08 910.637 2277.31 887.619 2266.54C863.053 2255.04 846.046 2234.8 840.279 2208.17C834.604 2181.97 835.277 2153.97 835.087 2127.31C834.892 2099.81 835.564 2072.24 837.423 2044.8C837.442 2044.72 837.442 2044.66 837.442 2044.58C828.403 2048.22 818.582 2050.16 808.883 2050.66C799.141 2051.15 789.008 2049.92 779.877 2046.43C768.973 2042.28 753.911 2035.45 751.924 2022.49C751.618 2020.6 751.606 2018.61 751.844 2016.64C745.209 2019.44 738.604 2022.32 732.097 2025.34C711.715 2034.79 691.393 2044.43 671.39 2054.66C661.391 2059.77 651.563 2065.39 641.405 2070.18C638.678 2071.45 635.938 2072.88 633.168 2074.32C623.053 2081.06 613.036 2087.95 603.068 2094.96C574.876 2114.79 547.02 2135.09 518.705 2154.72C489.584 2174.91 459.899 2194.84 427.61 2209.64C394.464 2224.83 359.24 2234.5 322.522 2233.14C283.335 2231.7 245.144 2220.63 207.418 2210.92C188.57 2206.08 169.722 2201.23 150.875 2196.38C148.245 2197.55 145.058 2197.37 142.398 2194.76C142.141 2194.5 141.885 2194.25 141.628 2194C138.919 2193.3 136.21 2192.6 133.501 2191.91C132.314 2190.28 131.164 2188.61 129.99 2186.97C109.271 2177.2 91.9155 2159.64 78.7368 2140.16C77.7461 2139.31 76.737 2138.49 75.7585 2137.62C52.4526 2117.19 34.4428 2091.85 22.3403 2063.37C-1.84009 2006.44 -3.19188 1942.06 3.40056 1881.42Z" fill="black"></path> <path fill-rule="evenodd" clip-rule="evenodd" d="M95.5848 1697.43C98.453 1693.11 101.388 1688.84 104.403 1684.61C100.844 1688.47 97.3336 1692.4 93.9212 1696.36C94.5144 1696.67 95.0711 1697.04 95.5848 1697.43ZM427.549 1419.56C428.105 1419.14 428.735 1418.77 429.457 1418.48C431.12 1417.79 432.79 1417.07 434.453 1416.38C437.609 1412.02 440.575 1407.53 443.351 1402.95C437.548 1409.01 431.664 1414.88 425.317 1420.39C426.056 1420.11 426.809 1419.84 427.549 1419.56ZM482.184 1396.19C509.233 1381.8 536.495 1367.79 563.819 1354.05C566.179 1352.87 568.467 1352.9 570.411 1353.69C582.159 1347.65 593.968 1341.69 605.905 1336.04C613.171 1332.62 620.491 1329.38 627.786 1326.12C628.343 1325.29 628.857 1324.42 629.291 1323.49C633.663 1314.16 629.517 1302.57 626.692 1293.39C625.976 1291.09 626.276 1289.09 627.193 1287.52C625.652 1274.12 626.227 1260.64 628.875 1248.49C635.155 1219.54 650.689 1193.16 665.464 1167.84C680.642 1141.86 693.943 1115.77 702.547 1086.84C719.842 1028.77 721.169 967.98 719.921 907.896C718.545 841.152 714.681 774.42 712.002 707.725C711.201 687.844 710.418 667.957 709.776 648.057C708.223 648.987 706.975 649.946 704.651 650.631C700.866 651.738 697.001 652.65 693.173 653.549C685.529 655.341 677.774 656.588 670.001 657.664C655.385 659.682 640.812 660.594 626.068 660.386C624.258 660.355 622.448 660.306 620.65 660.239C629.181 703.451 628.636 749.206 629.419 792.883C630.349 843.39 632.82 894.399 627.193 944.735C621.696 993.934 607.141 1040.91 591.259 1087.6C574.912 1135.66 558.083 1183.59 542.201 1231.79C533.242 1258.99 524.252 1286.19 515.244 1313.37C510.92 1326.47 506.572 1339.57 502.249 1352.65C497.503 1366.97 495.131 1383.84 483.114 1393.86C481.781 1394.96 480.288 1395.81 478.686 1396.4C478.417 1396.97 478.16 1397.51 477.873 1398.07C479.316 1397.44 480.741 1396.82 482.184 1396.19ZM744.842 1896.84C768.655 1889.94 791.13 1880.04 813.31 1869.03C834.714 1858.42 857.409 1847.12 875.541 1831.44C875.932 1831.11 875.517 1830.39 875.027 1830.56C852.669 1838.54 831.473 1850.38 809.69 1859.92C787.057 1869.82 763.91 1878.49 741.197 1888.2C736.164 1890.35 739.839 1898.29 744.842 1896.84ZM792.518 2013.69C798.37 2017.63 804.797 2021.2 811.463 2023.52C820.52 2026.71 829.687 2027.53 838.805 2026.6C840.169 2010.18 841.833 1993.78 843.838 1977.41C823.309 1987.75 801.832 1996.35 780.385 2004.97C784.635 2007.51 788.286 2010.83 792.518 2013.69ZM876.623 1929.14C877.241 1935.77 886.084 1935.62 886.842 1929.14C890.279 1899.8 891.997 1870.22 894.945 1840.82C900.18 1788.7 908.827 1737.39 920.728 1686.37C923.73 1673.49 926.862 1660.64 930.329 1647.88C932.121 1641.26 938.23 1629.63 934.121 1622.86C929.069 1614.53 922.079 1626.32 927.473 1626.99C928.024 1627.06 928.017 1626.27 927.595 1626.1C931.791 1627.77 928.874 1631.54 927.773 1634.53C926.715 1637.39 925.626 1640.26 924.575 1643.13C922.471 1648.87 920.416 1654.63 918.422 1660.42C914.099 1672.94 910.044 1685.52 906.454 1698.27C899.446 1723.19 893.282 1748.42 888.536 1773.88C879.082 1824.65 871.847 1877.45 876.623 1929.14ZM1480.64 2080.21C1484.02 2078.46 1488.09 2077.84 1491.68 2078.56C1503.51 2080.92 1508.21 2087.75 1518.35 2092.89C1524.31 2095.92 1534.62 2098.43 1540.87 2098.82C1551.27 2099.44 1557.28 2098.72 1566.82 2095.69C1573.76 2093.48 1581.32 2089.39 1586.48 2084.63C1600.21 2072 1607 2054.51 1613.01 2036.76C1619.62 2017.18 1625.31 1996.93 1635.51 1978.82C1640.64 1969.72 1647.14 1960.94 1654.9 1953.91C1662.27 1947.23 1674.15 1942.38 1679.16 1933.53C1684.34 1924.4 1684.77 1911.18 1686.31 1900.92C1687.85 1890.62 1688.97 1880.26 1689.71 1869.89C1692.57 1829.52 1689.88 1785.23 1667.39 1750.24C1639.13 1706.32 1587.97 1693.58 1540.55 1681.28C1539.83 1688.84 1538.96 1696.38 1537.92 1703.9C1536.66 1713.12 1535.11 1722.31 1533.34 1731.45C1541.88 1738.27 1549.39 1746.98 1554.64 1753.35C1567.37 1768.87 1576.88 1786.56 1583.43 1805.51C1589.75 1823.78 1592.86 1843.15 1592.3 1862.48C1592.01 1872.09 1590.53 1881.45 1587.82 1890.67C1587.07 1893.21 1586.18 1895.97 1585.1 1898.74C1588.45 1904.55 1589.08 1912.06 1585.18 1917.74C1550.39 1968.51 1515.59 2019.27 1480.8 2070.03C1479.2 2072.37 1477.59 2074.72 1475.99 2077.07C1477.56 2078.07 1479.1 2079.12 1480.64 2080.21ZM1540.79 1678.7C1543.21 1678.73 1545.63 1678.8 1548.07 1678.86C1545.69 1678.21 1543.32 1677.55 1540.95 1676.89C1540.9 1677.5 1540.85 1678.09 1540.79 1678.7ZM1542.18 1660.63C1563.74 1666.52 1585.26 1672.59 1606.15 1680.57C1618.36 1685.25 1632.77 1690.28 1644.98 1697.65C1648.59 1699.37 1652.1 1701.23 1655.53 1703.26C1655.04 1700.73 1655.06 1698.06 1655.67 1695.37C1658.49 1682.77 1660.59 1670.03 1662.95 1657.33C1663.2 1655.97 1663.51 1653.21 1664.02 1650.05C1661.71 1645.86 1659.98 1641.32 1658.02 1636.79C1654.47 1628.57 1650.91 1620.34 1647.33 1612.13C1640.64 1596.65 1633.94 1581.17 1627.24 1565.7C1613.5 1533.99 1599.83 1502.19 1586.66 1470.24C1577.73 1448.56 1568.79 1426.87 1560.18 1405.04C1557.8 1407.85 1554.09 1409.77 1549.06 1409.96C1524.78 1410.83 1521.56 1442.91 1523.56 1460.73C1525.09 1474.29 1528.72 1487.63 1531.27 1501.03C1533.87 1514.71 1536.01 1528.47 1537.87 1542.27C1543.11 1581.5 1544.62 1621.18 1542.18 1660.63ZM1745.44 1979.47C1774.85 1977.75 1804.46 1980.57 1833.18 1987.04C1860.94 1993.28 1887.91 2002.61 1915.7 2008.83C1929.25 2011.85 1942.95 2013.93 1956.86 2014.25C1963.54 2014.4 1970.29 2014.22 1976.94 2013.47C1977.77 2013.37 1978.83 2013.08 1979.91 2012.81C1978 2006.97 1974.59 2002.06 1969.7 1997.14C1962.9 1990.3 1957.18 1986.52 1948.74 1981.11C1931.73 1970.23 1914.02 1960.36 1899.93 1945.64C1881.9 1926.76 1873.36 1902.55 1868.91 1877.27C1864.13 1850.19 1861.06 1822.81 1856.47 1795.69C1852.7 1773.29 1848.38 1750.89 1843.07 1728.76C1836.85 1709.28 1828.74 1690.43 1819.53 1672.07C1812.46 1658.02 1804.64 1644.41 1797.01 1630.67C1790.63 1636.58 1781.11 1635.49 1775.71 1627.86C1773.21 1624.32 1770.25 1620.89 1769.08 1616.63C1767.95 1612.58 1768.32 1607.91 1768.29 1603.76C1768.23 1595.97 1768.16 1588.17 1768.1 1580.35C1767.95 1564.23 1767.78 1548.1 1767.56 1531.98C1767.12 1500.76 1766.48 1469.54 1765.42 1438.32C1763.29 1375.54 1759.88 1312.8 1752.79 1250.37C1738.9 1127.78 1703.61 1009.04 1688.4 886.669C1686.52 871.619 1684.89 856.391 1683.68 841.06C1677.07 794.002 1675.93 746.247 1680.39 698.84C1628.73 698.393 1577.09 700.986 1525.73 706.606C1519.53 764.256 1512.44 821.747 1505.12 879.239C1497.94 935.482 1491.78 992.203 1492.44 1048.98C1492.76 1076.91 1494.67 1104.92 1499.27 1132.48C1503.71 1159.12 1510.45 1185.3 1517.63 1211.31C1524.85 1237.4 1532.6 1263.35 1538.97 1289.65C1548.61 1313.83 1559.11 1337.65 1569.91 1361.32C1597.16 1421.06 1625.34 1480.34 1652.02 1540.33C1659.71 1557.65 1667.32 1575.01 1674.98 1592.35C1678.82 1601.03 1682.64 1609.7 1686.47 1618.36C1690.78 1628.13 1696.36 1637.66 1696.32 1648.57C1696.28 1655.09 1692.4 1659.81 1687.36 1661.91C1689.5 1674.51 1690.21 1687.28 1690.36 1700.06C1690.43 1707.68 1685.42 1713.96 1678.78 1716.4C1678.8 1718.06 1678.85 1719.69 1678.93 1721.34C1679.02 1721.43 1679.12 1721.53 1679.21 1721.61C1714.04 1756.8 1723.51 1807.82 1723.23 1855.55C1723.08 1880.51 1720.53 1905.68 1716.27 1930.25C1713.65 1945.33 1707.07 1957.77 1694.98 1967.32C1686.44 1974.05 1676.73 1980.57 1671.17 1988.77C1670.03 1990.46 1668.96 1992.18 1667.93 1993.92C1691.81 1983.91 1720.32 1980.92 1745.44 1979.47ZM1348.92 185.027C1348.95 186.177 1348.95 187.345 1348.92 188.501C1350.37 188.097 1351.91 187.877 1353.61 187.889C1352.02 186.959 1350.49 185.969 1348.92 185.027ZM3.40056 1881.42C7.22882 1846.23 13.0142 1810.82 25.563 1777.58C37.1029 1747.02 54.3607 1719.43 74.9269 1694.15C95.6154 1668.71 119.337 1645.95 143.615 1623.96C169.227 1600.79 195.187 1577.94 221.392 1555.43C272.981 1511.11 326.803 1468.69 386.05 1435.13C386.068 1435.1 386.08 1435.06 386.117 1435.03C386.208 1434.98 386.306 1434.95 386.422 1434.91C396.054 1429.46 405.827 1424.21 415.765 1419.26C418.186 1418.06 420.51 1418.14 422.479 1418.97C422.528 1418.91 422.558 1418.83 422.626 1418.78C429.726 1412.14 437.193 1406.22 444.917 1400.32C451.313 1389.39 456.664 1377.88 460.749 1365.76C461.153 1364.58 461.795 1363.62 462.547 1362.8C464.15 1358.41 465.941 1354.06 467.531 1349.69C471.855 1337.69 476.087 1325.67 480.368 1313.67C488.923 1289.65 497.466 1265.62 506.059 1241.62C523.225 1193.64 539.712 1145.42 556.352 1097.24C571.977 1052 588.006 1006.56 595.937 959.222C604.156 910.232 602.285 859.822 602.94 810.348C603.306 781.789 603.484 753.144 604.957 724.634C606.083 702.827 607.526 681.087 611.483 659.713C600.31 658.894 589.192 657.407 578.16 655.499C566.033 653.39 540.69 651.855 541.222 634.53C541.43 627.998 546.433 623.448 552.487 621.785C553.9 621.388 555.324 621.229 556.768 621.21C555.483 610.288 558.162 598.442 559.202 587.655C560.773 571.357 562.473 555.06 564.314 538.793C568.02 506.002 572.283 473.266 577.022 440.603C581.333 410.956 585.743 381.124 599.625 354.149C610.168 333.644 625.823 315.793 643.87 301.544C718.906 242.292 820.404 240.818 899.287 189.234C919.688 175.884 937.943 159.183 951.134 138.562C958.668 126.765 963.719 114.051 967.309 100.555C969.633 91.8461 971.81 83.3273 974.599 74.7657C977.338 66.3936 978.109 59.52 983.283 52.1448C983.845 51.3437 985.05 51.631 985.111 52.6217C985.607 60.2415 984.23 66.938 983.845 74.5212C983.46 82.4345 983.717 90.2317 982.916 98.1879C982.726 100.188 982.482 102.187 982.243 104.175C982.518 104.652 982.738 105.184 982.916 105.759C986.585 117.445 984.585 130.11 978.347 140.213C978.427 141.271 978.347 142.341 978.06 143.411C974.917 155.086 969.211 165.874 964.949 177.193C960.912 187.938 957.482 198.921 954.821 210.094C949.807 231.18 947.85 252.859 949.947 274.471C954.467 320.802 981.986 360.283 1020.51 385.436C1063.29 413.353 1117.54 420.3 1166.78 408.197C1216.98 395.857 1258.51 363.836 1287.84 321.872C1304.14 298.566 1316.61 272.386 1324.38 245.044C1327.36 234.556 1329.12 223.542 1331.98 212.974C1329.19 211.458 1327.51 208.461 1329.12 204.523C1333.35 194.212 1334.03 184.048 1330.9 173.481C1302.42 154.205 1275.97 131.664 1253.41 105.698C1230.99 79.8721 1207.76 48.5061 1198.07 15.336C1194.28 2.30398 1213.85 -6.40448 1220.32 5.96704C1227.4 19.5005 1233.21 33.4437 1240.94 46.6652C1248.72 59.9847 1257.61 72.6375 1267.47 84.4953C1287.09 108.125 1309.9 129.23 1334.8 147.221C1390.33 187.345 1454.52 213.121 1519.6 233.278C1570 248.884 1622.73 262.497 1664.58 296.31C1710.72 333.595 1726.6 392.224 1735.27 448.51C1738.94 472.318 1741.08 496.272 1742.04 520.3C1743.05 522.22 1743.28 524.476 1742.26 526.592C1743.69 571.675 1741.09 616.954 1736.78 661.841C1736.8 666.599 1736.44 671.289 1735.38 675.742C1734.87 680.683 1734.34 685.63 1733.8 690.565C1733.67 691.813 1733.06 692.663 1731.87 693.091C1727.32 694.724 1722.77 695.702 1718.17 696.008C1717.39 696.277 1716.58 696.522 1715.78 696.742C1714.5 698.393 1712.48 699.5 1709.71 699.415C1708.13 699.372 1706.54 699.335 1704.96 699.292C1703.15 699.8 1701.39 700.423 1699.72 701.304C1698.48 701.964 1697.24 702.252 1696.07 702.283C1694.06 725.191 1693.35 748.167 1693.94 771.075C1695.72 803.334 1699.71 835.452 1706.01 867.613C1717.69 927.3 1734.66 985.929 1750.16 1044.7C1782.15 1165.91 1796.94 1289.91 1802.67 1414.94C1804.29 1450.27 1805.06 1485.68 1805.63 1521.04C1805.92 1538.22 1806.13 1555.38 1806.3 1572.56C1806.38 1581.39 1806.46 1590.23 1806.54 1599.09C1806.59 1603.21 1806.88 1607.45 1806.61 1611.56C1806.54 1612.58 1806.4 1613.52 1806.22 1614.45C1806.24 1614.48 1806.25 1614.52 1806.27 1614.57C1823.04 1637.38 1835.81 1663.7 1847 1689.59C1858.44 1716.04 1868.17 1743.22 1875.68 1771.05C1883.22 1798.92 1888.68 1827.06 1893.94 1855.43C1898.33 1879.08 1903.42 1905.29 1921.7 1922.51C1935.49 1935.51 1954.73 1944.27 1971.02 1954.83C1989.61 1966.86 2006.27 1981.58 2013.59 2003.09C2018.69 2018.01 2016.22 2035.13 2001.12 2042.94C1988.13 2049.67 1969.7 2049.15 1955.42 2048.5C1925.24 2047.09 1895.88 2038.92 1866.96 2030.73C1835.18 2021.71 1803.69 2013.48 1770.49 2012.59C1753.85 2012.14 1737.03 2012.92 1720.59 2015.52C1703.51 2018.19 1687.13 2023.89 1670.13 2026.61C1664.47 2027.54 1658.81 2026.34 1655.04 2022.49C1644.23 2053.04 1638.03 2086.33 1613.23 2109.88C1594.16 2127.97 1567.04 2137.21 1540.87 2135.69C1526.75 2134.85 1513.35 2131.41 1500.62 2125.23C1494.54 2122.27 1489.04 2118.45 1483.76 2114.2C1480.53 2111.61 1478.27 2108.81 1476.7 2105.7C1471.95 2102.82 1467.28 2099.84 1462.66 2096.78C1436.55 2135.56 1410.6 2174.65 1381.45 2211.11C1348.47 2252.35 1308.64 2286.08 1259.01 2305.33C1212.74 2323.26 1161.55 2326.79 1112.46 2322.62C1060.66 2318.2 1009.76 2306.43 960.093 2291.41C935.833 2284.08 910.637 2277.31 887.619 2266.54C863.053 2255.04 846.046 2234.8 840.279 2208.17C834.604 2181.97 835.277 2153.97 835.087 2127.31C834.892 2099.81 835.564 2072.24 837.423 2044.8C837.442 2044.72 837.442 2044.66 837.442 2044.58C828.403 2048.22 818.582 2050.16 808.883 2050.66C799.141 2051.15 789.008 2049.92 779.877 2046.43C768.973 2042.28 753.911 2035.45 751.924 2022.49C751.618 2020.6 751.606 2018.61 751.844 2016.64C745.209 2019.44 738.604 2022.32 732.097 2025.34C711.715 2034.79 691.393 2044.43 671.39 2054.66C661.391 2059.77 651.563 2065.39 641.405 2070.18C638.678 2071.45 635.938 2072.88 633.168 2074.32C623.053 2081.06 613.036 2087.95 603.068 2094.96C574.876 2114.79 547.02 2135.09 518.705 2154.72C489.584 2174.91 459.899 2194.84 427.61 2209.64C394.464 2224.83 359.24 2234.5 322.522 2233.14C283.335 2231.7 245.144 2220.63 207.418 2210.92C188.57 2206.08 169.722 2201.23 150.875 2196.38C148.245 2197.55 145.058 2197.37 142.398 2194.76C142.141 2194.5 141.885 2194.25 141.628 2194C138.919 2193.3 136.21 2192.6 133.501 2191.91C132.314 2190.28 131.164 2188.61 129.99 2186.97C109.271 2177.2 91.9155 2159.64 78.7368 2140.16C77.7461 2139.31 76.737 2138.49 75.7585 2137.62C52.4526 2117.19 34.4428 2091.85 22.3403 2063.37C-1.84009 2006.44 -3.19188 1942.06 3.40056 1881.42Z" fill="black"></path> </svg> 