<?xml version="1.0" encoding="UTF-8"?> <svg xmlns="http://www.w3.org/2000/svg" width="1233" height="256" viewBox="0 0 1233 256" fill="none"> <path d="M1212.99 35.6865C1174.27 34.0111 1135.61 31.5365 1096.8 31.5365C1061.91 31.5365 1027.74 35.9082 993.021 36.724C933.173 38.1302 872.979 38.0209 813.094 38.0209L811.785 38.0209C753.416 38.0207 694.642 38.0206 636.39 40.874C591.805 43.0581 546.914 40.9202 502.311 40.2905L501.315 40.2764C462.739 39.7317 424.239 39.1881 385.637 39.1881C340.175 39.1881 295.12 36.6393 249.624 37.7616C192.079 39.181 134.564 35.86 77.0298 35.6866M31.2877 222.994C33.875 191.419 62.9298 137.917 67.0188 106.307C68.7575 92.8654 77.5854 81.4731 75.7706 68.3366M1120.19 225.8C1042.71 224.822 903.131 219.105 825.694 220.961C681.1 224.426 536.473 226.299 391.868 228.953C280.998 230.988 130.864 235.239 20.0064 235.239M1133.1 207.801C1149.69 180.157 1186.28 54.9403 1201.21 26.9149M80.6741 122.654C88.8948 103.296 98.6479 84.1515 109.138 65.7093M72.6528 167.08C92.7603 146.785 113.237 126.432 131.742 105.021C139.648 95.8742 144.254 84.7207 151.818 75.302C154.166 72.377 170.24 54.198 173.088 55.8386M73.4221 219.303C103.352 186.97 124.241 150.243 148.517 115.054C155.786 104.516 163.589 98.4427 173.672 90.353C185.329 80.9997 196.382 68.3222 208.094 60.0329M303.716 219.303C333.646 186.97 354.535 150.243 378.811 115.054C386.08 104.516 393.883 98.4427 403.966 90.353C415.623 80.9997 426.676 68.3222 438.388 60.0329M513.943 219.303C543.873 186.97 564.763 150.243 589.038 115.054C596.308 104.516 604.111 98.4427 614.193 90.353C625.85 80.9997 636.904 68.3222 648.615 60.0329M739.779 219.296C769.709 186.962 790.598 150.236 814.873 115.047C822.143 104.509 829.946 98.4349 840.028 90.3452C851.685 80.9919 862.739 68.3144 874.45 60.0251M977.317 217.282C1007.73 184.839 1066.46 55.2876 1091.14 20.0064M122.567 220.301C135.138 210.587 147.496 200.709 158.574 189.62C174.238 173.94 185.206 154.788 197.98 137.462C211.058 119.724 227.118 103.865 239.75 85.9493C242.69 81.7785 246.954 78.2607 250.941 74.7922C255.81 70.557 260.732 63.7017 266.28 60.7384M352.862 220.063C365.248 210.39 377.424 200.554 388.334 189.503C403.762 173.876 414.549 154.765 427.122 137.484C439.993 119.793 455.81 103.988 468.242 86.1174C471.136 81.9572 475.336 78.4536 479.264 74.9984C484.061 70.7795 488.905 63.9418 494.374 60.9963M567.528 219.81C579.729 210.179 591.723 200.383 602.466 189.37C617.657 173.796 628.262 154.726 640.634 137.49C653.299 119.845 668.874 104.096 681.104 86.27C683.952 82.1202 688.089 78.6308 691.958 75.189C696.682 70.9864 701.448 64.1662 706.838 61.2386M791.142 219.802C803.343 210.171 815.336 200.375 826.079 189.362C841.27 173.789 851.876 154.718 864.247 137.482C876.912 119.838 892.487 104.088 904.718 86.2621C907.565 82.1124 911.702 78.623 915.571 75.1812C920.295 70.9786 925.061 64.1584 930.451 61.2308M1050.76 218.31C1065.95 202.737 1089.84 154.615 1102.21 137.38C1114.87 119.735 1132.71 66.8081 1144.94 48.9824M207.443 222.282C226.924 203.277 246.392 182.781 262.246 161.446C279.385 138.382 295.579 114.723 316.494 94.1571C324.609 86.1775 330.386 75.4477 341.181 70.1429C344.787 68.371 350.415 66.7018 353.592 63.9134M437.758 222.028C456.949 203.089 476.125 182.659 491.732 161.379C508.605 138.375 524.545 114.773 545.148 94.2776C553.142 86.3252 558.824 75.6168 569.468 70.346C573.024 68.5854 578.574 66.9336 581.705 64.1557M647.949 222.274C667.431 203.269 686.898 182.773 702.752 161.438C719.891 138.374 736.086 114.715 757.001 94.1493C765.116 86.1696 770.893 75.4399 781.688 70.1351C785.294 68.3631 790.921 66.694 794.098 63.9056M873.796 222.028C892.987 203.089 912.163 182.659 927.77 161.379C944.643 138.375 960.583 114.773 981.186 94.2776C989.18 86.3252 994.862 75.6168 1005.51 70.346C1009.06 68.5854 1014.61 66.9336 1017.74 64.1557" stroke="black" stroke-width="10" stroke-linecap="round"></path> </svg> 