<?xml version="1.0" encoding="UTF-8"?> <svg xmlns="http://www.w3.org/2000/svg" width="1997" height="2364" viewBox="0 0 1997 2364" fill="none"> <path fill-rule="evenodd" clip-rule="evenodd" d="M1560.26 1450.38C1592.07 1529.76 1630.15 1619.87 1665.19 1697.2C1662.38 1721.7 1651.85 1746.75 1660.09 1771.29C1623.78 1747.69 1582.96 1732.88 1541.29 1721.69L1538.94 1737.36C1534.3 1737.21 1525.95 1737.13 1521.25 1737.07C1521.98 1730.83 1522.97 1719.71 1523.42 1713.43L1523.43 1713.43C1529.24 1645.87 1518.39 1576.69 1505.13 1510.66C1501.89 1486.84 1509.79 1449.82 1539.84 1449.21C1544.31 1449.89 1551.67 1437.82 1554.38 1435.48L1560.26 1450.38ZM1139.86 2363.59C1291.31 2372.07 1377.91 2248.28 1451.13 2132.46C1458.84 2137.56 1467.38 2143.26 1475.16 2147.88C1487.14 2167.11 1511.52 2172.93 1532.57 2175.06C1607.58 2178.89 1623.64 2111.6 1642.27 2053.71C1645.82 2056.2 1653.75 2068.86 1659.71 2066.08C1693.4 2058.62 1726.2 2049.7 1761.91 2051.93C1802.9 2043.19 2015.3 2136.65 1995.7 2055.14C1986.12 2019.7 1933.43 2002.9 1906.29 1978.44C1866.82 1933.58 1876.43 1875.87 1857.58 1822.46C1841.9 1768.87 1823.59 1718.4 1789.69 1669.14C1786.63 1485.02 1779.73 1259.68 1732.02 1095.94C1701.6 981.035 1663.91 862.23 1678.4 741.652L1686.62 741.431C1690.23 739.389 1695.76 737.853 1700.17 738.532C1703.9 734.416 1710.8 735.67 1715.87 734.006C1724.99 648.836 1728.51 575.94 1716.93 498.678C1706.18 371.103 1625.58 318.918 1507.87 291.131C1378.52 248.745 1290.74 205.545 1223.72 100.147C1211.05 78.7582 1203.34 53.4363 1186.45 35.3991C1144.52 -17.6238 1023.91 -8.88348 992.758 46.9469C979.155 79.6083 977.987 117.726 967.638 151.678C926.964 295.896 739.876 278.905 640.827 357.757C597.224 390.058 583.174 439.925 577.522 490.684C570.403 554.521 556.794 615.985 558.544 679.43C553.993 680.292 543.577 677.051 541.809 683.571C545.956 697.271 599.065 697.222 613.878 699.65C594.398 802.712 612.062 906.207 596.404 1009.59C572.269 1125.76 524.775 1233.64 487.471 1345.86C473.116 1382.95 463.507 1422.7 442.149 1456.48L442.534 1456.77C439.158 1462.38 435.458 1467.83 431.61 1473.07C427.653 1474.5 423.53 1476.82 419.622 1478.25L418.753 1476.79L416.643 1479.61L410.447 1477C401.346 1481.54 391.456 1486.81 381.743 1492.35C262.4 1564.7 184.3 1638.11 90.7257 1729.02L103.142 1739.07C98.6222 1745.36 93.1481 1753.67 88.7565 1760.3C85.0928 1757.06 77.2696 1751.63 72.7618 1749.76C-7.02025 1844.5 -16.7756 2008.73 22.0818 2108.57C34.443 2138.49 53.997 2163.05 77.6123 2183.74C87.3679 2198.38 104.891 2218.61 127.29 2228.32C127.29 2228.32 130.115 2232.32 130.207 2232.45C131.406 2232.61 138.739 2234.29 139.167 2236C198.79 2246.04 258.572 2272.26 320.353 2272.64C421.115 2271.76 507.698 2190.04 588.514 2136.06C639.64 2099.64 699.208 2074.63 754.414 2050.28C750.298 2071.27 751.466 2078.47 774.311 2086.41C794.666 2094.5 819.15 2088.17 838.081 2079.28C837.591 2114.07 834.815 2148.82 835.769 2185.93C835.775 2230.85 834.276 2286.08 882.73 2306.82C965.24 2339.29 1058.47 2362.61 1139.86 2363.59Z" fill="white"></path> </svg> 