<?xml version="1.0" encoding="UTF-8"?> <svg xmlns="http://www.w3.org/2000/svg" width="571" height="497" viewBox="0 0 571 497" fill="none"> <path fill-rule="evenodd" clip-rule="evenodd" d="M11.6931 266.495C22.7183 266.956 31.7171 273.505 40.1482 279.897C50.6466 287.871 60.7826 296.089 70.0476 305.508C89.5086 325.3 105.778 348.804 118.702 373.328C131.048 396.734 142.202 423.694 145.497 450.154C146.376 457.231 144.734 463.677 144.903 470.6C145.016 475.252 147.921 481.117 150.449 484.95C154.073 490.446 159.091 486.521 163.513 483.991C169.969 480.294 176.43 476.614 182.865 472.889C207.127 458.847 229.801 440.819 255.703 430.187C255.755 437.985 256.591 444.802 254.01 452.346C251.598 459.402 247.522 466.168 247.301 473.788C247.117 480.139 249.33 488.219 253.3 493.303C257.469 498.638 262.847 496.97 268.681 495.813C285.083 492.556 301.459 490.065 317.65 485.721C321.129 484.784 324.667 484.049 327.83 482.296C330.376 480.882 332.016 479.446 334.929 479.053C338.786 478.53 342.568 479.233 346.514 478.371C350.228 477.562 353.812 476.26 357.371 474.943C370.525 470.08 384.006 467.2 396.913 461.53C400.674 459.879 407.25 455.283 411.609 456.313C416.215 457.402 414.761 463.123 417.738 465.754C421.659 469.211 429.586 464.182 433.69 462.581C439.552 460.298 444.499 457.507 448.944 453.001C457.935 443.891 465.281 433.278 470.203 421.43C475.359 409.032 477.694 395.763 479.971 382.594C482.349 368.868 484.828 355.408 485.455 341.449C486.091 327.187 486.505 312.557 484.86 298.355C483.219 284.173 480.513 270.108 478.706 255.938C476.823 241.157 472.648 226.832 468.731 212.493C464.67 197.627 460.28 183.149 454.569 168.821C448.962 154.745 442.756 141.17 436.392 127.443C434.764 123.934 433.748 120.081 431.982 116.656C430.793 114.357 428.772 112.466 427.824 110.046C425.938 105.235 429.4 100.61 427.605 95.5203C423.429 83.7001 409.312 83.4179 398.965 83.6549C385.516 83.9621 371.134 86.2036 358.641 91.316C331.763 102.316 303.706 111.796 280.892 130.403C259.762 111.65 238.913 90.6251 211.442 81.6182C208.344 80.5977 205.225 80.2336 202.719 78.0527C200.574 76.1799 199.201 74.0477 196.668 72.5575C190.434 68.8933 184.624 70.09 178.707 73.5224C165.826 80.9885 153.656 88.5323 142.253 98.0736C137.189 102.309 131.366 105.429 126.26 109.621C121.352 113.646 116.871 118.15 112.337 122.586C102.42 132.3 91.8081 141.266 81.9159 151.023C62.0472 170.623 42.6377 190.703 25.7293 212.96C17.5645 223.712 7.93324 235.219 2.01688 247.409C-0.586066 252.777 -0.686431 258.504 1.81411 263.915C4.41372 269.543 6.66395 266.282 11.6931 266.495Z" fill="white"></path> <path fill-rule="evenodd" clip-rule="evenodd" d="M44.2136 230.425C49.67 224.794 55.3446 219.389 60.9796 213.939C72.9104 202.386 84.4723 190.436 96.6748 179.165C102.2 174.065 108.366 169.946 114.221 165.264C120.442 160.294 126.071 154.578 131.796 149.059C143.829 137.453 156.493 126.7 169.5 116.213C173.484 113 177.483 109.815 181.494 106.633C184.572 104.192 188.017 100.313 191.519 98.6934C197.072 96.1233 203.341 100.59 208.438 102.843C235.94 114.997 260.223 138.422 278.127 162.231C287.9 175.222 295.11 189.58 302.734 203.873C310.548 218.521 318.423 232.784 323.71 248.551C329.083 264.581 335.923 279.877 340.49 296.213C342.195 302.306 346.816 312.751 345.231 319.069C343.613 325.472 335.7 329.705 330.941 333.435C304.9 353.835 279.16 375.045 252.269 394.3C224.29 414.327 196.428 434.498 168.625 454.783C166.993 445.518 165.576 436.19 163.662 426.984C161.853 418.315 158.318 409.888 155.491 401.507C149.279 383.091 142.654 364.923 132.998 347.988C115.459 317.238 93.9356 288.355 66.3588 265.887C59.8958 260.624 52.8037 256.217 45.7359 251.831C43.209 250.261 35.44 247.132 34.5634 243.729C33.4203 239.266 41.6052 233.119 44.2136 230.425ZM397.64 110.625C404.561 108.702 409.49 108.822 412.356 115.969C416.011 125.077 418.971 134.545 422.361 143.763C428.848 161.392 435.337 179.027 440.719 197.035C450.145 228.58 457.053 260.9 457.271 293.928C457.379 309.891 456.493 325.909 455.075 341.806C453.704 357.232 449.481 372.082 446.393 387.2C444.868 394.636 442.525 401.041 439.317 407.919C437.801 411.18 437.165 412.861 434.003 414.371C430.794 415.897 426.296 416.412 422.855 417.273C406.659 421.32 390.331 424.933 374.232 429.363C358.276 433.757 342.714 439.591 326.786 444.004C319.302 446.074 311.571 445.956 303.941 447.164C296.255 448.38 288.708 450.281 281.095 451.86C277.171 452.672 277.556 453.536 275.854 450.283C274.946 448.55 274.696 446.009 274.182 444.098C273.184 440.421 272.185 436.741 271.22 433.057C270.358 429.764 267.846 424.307 268.151 420.821C268.427 417.721 270.772 416.429 273.142 414.862C286.439 406.064 298.929 396.474 311.125 386.201C323.573 375.722 336.297 365.507 348.449 354.682C353.688 350.018 359.781 345.32 362.766 338.782C365.212 333.418 365.659 327.409 365.61 321.592C365.349 289.589 351.505 257.144 339.017 228.183C326.18 198.412 311.473 168.362 290.783 143.201C326.139 131.613 361.783 120.58 397.64 110.625ZM11.6931 266.495C22.7183 266.956 31.7171 273.505 40.1482 279.897C50.6466 287.871 60.7826 296.089 70.0476 305.508C89.5086 325.3 105.778 348.804 118.702 373.328C131.048 396.734 142.202 423.694 145.497 450.154C146.376 457.231 144.734 463.677 144.903 470.6C145.016 475.252 147.921 481.117 150.449 484.95C154.073 490.446 159.091 486.521 163.513 483.991C169.969 480.294 176.43 476.614 182.865 472.889C207.127 458.847 229.801 440.819 255.703 430.187C255.755 437.985 256.591 444.802 254.01 452.346C251.598 459.402 247.522 466.168 247.301 473.788C247.117 480.139 249.33 488.219 253.3 493.303C257.469 498.638 262.847 496.97 268.681 495.813C285.083 492.556 301.459 490.065 317.65 485.721C321.129 484.784 324.667 484.049 327.83 482.296C330.376 480.882 332.016 479.446 334.929 479.053C338.786 478.53 342.568 479.233 346.514 478.371C350.228 477.562 353.812 476.26 357.371 474.943C370.525 470.08 384.006 467.2 396.913 461.53C400.674 459.879 407.25 455.283 411.609 456.313C416.215 457.402 414.761 463.123 417.738 465.754C421.659 469.211 429.586 464.182 433.69 462.581C439.552 460.298 444.499 457.507 448.944 453.001C457.935 443.891 465.281 433.278 470.203 421.43C475.359 409.032 477.694 395.763 479.971 382.594C482.349 368.868 484.828 355.408 485.455 341.449C486.091 327.187 486.505 312.557 484.86 298.355C483.219 284.173 480.513 270.108 478.706 255.938C476.823 241.157 472.648 226.832 468.731 212.493C464.67 197.627 460.28 183.149 454.569 168.821C448.962 154.745 442.756 141.17 436.392 127.443C434.764 123.934 433.748 120.081 431.982 116.656C430.793 114.357 428.772 112.466 427.824 110.046C425.938 105.235 429.4 100.61 427.605 95.5203C423.429 83.7001 409.312 83.4179 398.965 83.6549C385.516 83.9621 371.134 86.2036 358.641 91.316C331.763 102.316 303.706 111.796 280.892 130.403C259.762 111.65 238.913 90.6251 211.442 81.6182C208.344 80.5977 205.225 80.2336 202.719 78.0527C200.574 76.1799 199.201 74.0477 196.668 72.5575C190.434 68.8933 184.624 70.09 178.707 73.5224C165.826 80.9885 153.656 88.5323 142.253 98.0736C137.189 102.309 131.366 105.429 126.26 109.621C121.352 113.646 116.871 118.15 112.337 122.586C102.42 132.3 91.8081 141.266 81.9159 151.023C62.0472 170.623 42.6377 190.703 25.7293 212.96C17.5645 223.712 7.93324 235.219 2.01688 247.409C-0.586066 252.777 -0.686431 258.504 1.81411 263.915C4.41372 269.543 6.66395 266.282 11.6931 266.495Z" fill="black"></path> <path fill-rule="evenodd" clip-rule="evenodd" d="M550.04 172.577C549.551 178.831 550.357 185.063 555.986 188.941C566.206 195.978 570.589 170.889 570.363 164.361C569.883 150.206 570.322 135.643 568.05 121.606C565.732 107.29 559.913 92.9873 555.73 79.0766C549.224 63.0737 541.691 47.4524 532.563 32.8019C524.472 19.8079 516.026 6.44714 501.399 0.696991C495.315 -1.69541 493.011 2.37703 494.187 8.2489C495.487 14.6894 499.152 20.3964 503.758 24.9028C514.55 35.4753 519.445 50.367 525.594 64.1257C537.825 91.4863 548.732 119.183 550.422 149.406C550.855 157.154 550.646 164.865 550.04 172.577Z" fill="black"></path> <path d="M157.615 204.16L127.395 263.833L163.934 319.784L183.003 318.728L146.389 262.859L167.96 220.198L215.694 217.6L252.203 273.505L260.852 256.492L224.284 200.496L157.615 204.16Z" fill="black"></path> <path d="M224.537 291.603L220.228 300.132L210.678 300.686L174.139 244.736L165.505 261.771L202.051 317.685L230.663 316.112L243.607 290.547L207.083 234.619L188.014 235.675L224.537 291.603Z" fill="black"></path> </svg> 