<?xml version="1.0" encoding="UTF-8"?> <svg xmlns="http://www.w3.org/2000/svg" width="222" height="191" viewBox="0 0 222 191" fill="none"> <path d="M150.756 67.8911L144.724 71.1622L144.772 71.2496L144.822 71.3356L150.756 67.8911ZM83.6867 39.5539L86.9746 45.5767L87.0004 45.5626L87.0261 45.5483L83.6867 39.5539ZM63.0975 104.508L69.9561 104.297L69.954 104.229L69.9505 104.16L63.0975 104.508ZM160.611 148.046L165.423 152.938L165.462 152.9L165.5 152.861L160.611 148.046ZM78.71 89.0187C81.9193 87.0034 82.8872 82.7679 80.8719 79.5586C78.8565 76.3492 74.621 75.3813 71.4117 77.3967L78.71 89.0187ZM35.6503 96.7362L34.8123 89.9258L35.6503 96.7362ZM16.1294 89.9098L10.6357 94.0213L10.6357 94.0213L16.1294 89.9098ZM16.7239 76.8472C15.7859 73.1755 12.0489 70.9594 8.37717 71.8975C4.70545 72.8356 2.48938 76.5725 3.42745 80.2443L16.7239 76.8472ZM91.1152 132.316C94.2207 130.144 94.9774 125.865 92.8054 122.76C90.6334 119.655 86.3552 118.898 83.2497 121.07L91.1152 132.316ZM4.26004 164.661C0.75384 166.099 -0.922698 170.107 0.515389 173.613C1.95348 177.119 5.96161 178.796 9.46782 177.358L4.26004 164.661ZM118.738 66.1466C116.883 69.4511 118.058 73.6339 121.362 75.4892C124.667 77.3445 128.849 76.1697 130.705 72.8652L118.738 66.1466ZM138.983 40.7723L132.609 38.2304V38.2304L138.983 40.7723ZM144.858 20.06L138.01 19.6246L144.858 20.06ZM143.545 11.6194L137.916 15.5441L143.545 11.6194ZM139.558 0.963827C136.298 -0.96916 132.089 0.106288 130.156 3.36591C128.223 6.62552 129.298 10.835 132.558 12.7679L139.558 0.963827ZM146.757 85.7596C143.783 88.1081 143.276 92.423 145.624 95.3973C147.973 98.3716 152.288 98.8789 155.262 96.5304L146.757 85.7596ZM192.348 66.1598C195.213 63.6787 195.524 59.3452 193.042 56.4806C190.561 53.616 186.228 53.3052 183.363 55.7862L192.348 66.1598ZM151.465 114.329C147.853 115.476 145.855 119.333 147.001 122.945C148.148 126.557 152.006 128.556 155.618 127.409L151.465 114.329ZM168.596 115.279L171.183 121.634L168.596 115.279ZM185.466 111.728L186.263 118.544L185.466 111.728ZM208.763 111.317L207.522 118.066L208.763 111.317ZM209.367 117.959C211.418 121.146 215.664 122.067 218.851 120.016C222.037 117.965 222.958 113.719 220.907 110.532L209.367 117.959ZM109.824 157.776C113.321 156.314 114.971 152.295 113.51 148.799C112.048 145.302 108.029 143.652 104.532 145.113L109.824 157.776ZM82.3097 163.761L86.2846 169.354L86.6367 169.104L86.9546 168.812L82.3097 163.761ZM70.7654 183.603C70.6507 187.391 73.6284 190.554 77.4164 190.669C81.2043 190.784 84.368 187.806 84.4827 184.018L70.7654 183.603ZM70.9122 54.7056C74.482 55.9776 78.4071 54.1149 79.6791 50.5451C80.9511 46.9753 79.0883 43.0502 75.5185 41.7782L70.9122 54.7056ZM70.2911 39.7462C67.81 36.8816 63.4765 36.5707 60.6119 39.0518C57.7473 41.5329 57.4365 45.8664 59.9175 48.7309L70.2911 39.7462ZM81.9815 46.5413C83.457 50.0319 87.4829 51.6653 90.9735 50.1898C94.4641 48.7142 96.0976 44.6883 94.622 41.1977L81.9815 46.5413ZM86.0569 34.092L79.3017 32.8872L86.0569 34.092ZM81.3704 27.1546C78.5058 29.6357 78.1949 33.9692 80.676 36.8338C83.1571 39.6983 87.4906 40.0092 90.3552 37.5281L81.3704 27.1546ZM156.788 64.62C149.443 51.0746 137.84 39.4421 124.386 33.0473C110.807 26.593 95.0191 25.3862 80.3474 33.5595L87.0261 45.5483C97.0737 39.951 108.086 40.4943 118.495 45.4419C129.029 50.4492 138.601 59.8705 144.724 71.1622L156.788 64.62ZM80.3989 33.5311C66.648 41.0377 60.4227 53.8874 57.7362 66.9287C55.0824 79.8112 55.6834 93.7966 56.2445 104.855L69.9505 104.16C69.3799 92.9155 68.9277 80.6188 71.1775 69.6976C73.3946 58.9353 78.0297 50.4597 86.9746 45.5767L80.3989 33.5311ZM56.2389 104.718C57.0429 130.955 74.5158 152.604 96.1681 162.93C117.959 173.322 145.246 172.788 165.423 152.938L155.798 143.155C140.6 158.108 119.842 159.015 102.075 150.543C84.1706 142.004 70.5745 124.481 69.9561 104.297L56.2389 104.718ZM165.5 152.861C178.837 139.317 180.359 123.374 176.666 107.962C173.084 93.0146 164.451 77.8173 156.691 64.4466L144.822 71.3356C152.763 85.017 160.285 98.4944 163.32 111.16C166.243 123.361 164.842 133.97 155.721 143.232L165.5 152.861ZM71.4117 77.3967C60.8684 84.0176 47.4471 88.3712 34.8123 89.9258L36.4882 103.547C50.8109 101.784 66.2157 96.8648 78.71 89.0187L71.4117 77.3967ZM34.8123 89.9258C28.756 90.671 24.143 89.1656 21.623 85.7984L10.6357 94.0213C17.2732 102.89 27.8564 104.609 36.4882 103.547L34.8123 89.9258ZM21.623 85.7984C19.2068 82.5699 17.4333 79.6236 16.7239 76.8472L3.42745 80.2443C4.83072 85.7368 7.97292 90.4633 10.6357 94.0213L21.623 85.7984ZM83.2497 121.07C58.5782 138.325 32.0275 153.272 4.26004 164.661L9.46782 177.358C38.2814 165.54 65.7169 150.079 91.1152 132.316L83.2497 121.07ZM130.705 72.8652C136.004 63.4259 141.183 53.7776 145.356 43.3142L132.609 38.2304C128.788 47.8104 123.982 56.806 118.738 66.1466L130.705 72.8652ZM145.356 43.3142C147.868 37.0167 151.173 28.877 151.706 20.4953L138.01 19.6246C137.64 25.4384 135.288 31.5127 132.609 38.2304L145.356 43.3142ZM151.706 20.4953C151.792 19.143 151.893 17.1273 151.682 15.0309C151.478 13.0102 150.924 10.2056 149.174 7.69466L137.916 15.5441C137.743 15.2957 137.928 15.4185 138.027 16.4061C138.119 17.318 138.088 18.3912 138.01 19.6246L151.706 20.4953ZM149.174 7.69466C147.401 5.1521 144.819 3.66904 143.303 2.86161C142.469 2.41753 141.598 2.0013 140.983 1.70115C140.287 1.3614 139.861 1.14337 139.558 0.963827L132.558 12.7679C133.398 13.2657 134.285 13.7031 134.965 14.0348C135.726 14.4061 136.294 14.6774 136.853 14.975C137.396 15.2642 137.736 15.4784 137.945 15.6341C138.158 15.793 138.078 15.7762 137.916 15.5441L149.174 7.69466ZM155.262 96.5304C167.754 86.6667 180.233 76.6529 192.348 66.1598L183.363 55.7862C171.491 66.0692 159.21 75.9272 146.757 85.7596L155.262 96.5304ZM155.618 127.409C161.059 125.682 166.141 123.687 171.183 121.634L166.009 108.923C161.046 110.943 156.372 112.771 151.465 114.329L155.618 127.409ZM171.183 121.634C175.493 119.88 180.484 119.22 186.263 118.544L184.668 104.913C179.159 105.558 172.318 106.356 166.009 108.923L171.183 121.634ZM186.263 118.544C194.1 117.627 201.055 116.877 207.522 118.066L210.004 104.569C201.167 102.944 192.135 104.039 184.668 104.913L186.263 118.544ZM207.522 118.066C207.968 118.148 208.396 118.233 208.807 118.334C209.223 118.436 209.56 118.539 209.817 118.637C210.087 118.739 210.156 118.794 210.098 118.755C210.041 118.717 209.703 118.482 209.367 117.959L220.907 110.532C219.108 107.738 216.331 106.431 214.694 105.809C212.885 105.121 211.074 104.766 210.004 104.569L207.522 118.066ZM104.532 145.113C102.626 145.91 100.595 146.675 98.3573 147.528C96.1662 148.363 93.8095 149.269 91.4721 150.28C86.8425 152.281 81.835 154.875 77.6648 158.71L86.9546 168.812C89.4501 166.517 92.812 164.651 96.9178 162.876C98.9482 161.999 101.051 161.188 103.243 160.352C105.389 159.535 107.666 158.677 109.824 157.776L104.532 145.113ZM78.3347 158.168C74.9138 160.599 72.5007 163.453 71.0234 166.633C69.555 169.795 69.1917 172.889 69.2842 175.548C69.3744 178.144 69.9075 180.439 70.2879 181.979C70.5047 182.857 70.6262 183.311 70.7249 183.767C70.833 184.266 70.7509 184.082 70.7654 183.603L84.4827 184.018C84.5219 182.725 84.2828 181.533 84.1377 180.863C83.9831 180.149 83.7551 179.272 83.6111 178.689C83.2702 177.308 83.0375 176.167 82.9995 175.072C82.9636 174.041 83.1096 173.19 83.4699 172.415C83.8212 171.658 84.5562 170.583 86.2846 169.354L78.3347 158.168ZM75.5185 41.7782C74.725 41.4955 73.8256 41.2071 73.2016 40.9993C72.499 40.7654 71.9454 40.57 71.464 40.3704C70.4532 39.9512 70.2567 39.7064 70.2911 39.7462L59.9175 48.7309C61.9032 51.0235 64.354 52.2787 66.2068 53.0471C67.7806 53.6998 70.1578 54.4368 70.9122 54.7056L75.5185 41.7782ZM94.622 41.1977C94.0919 39.9438 93.5443 38.5752 93.1784 37.2688C92.7669 35.7999 92.8255 35.2216 92.8121 35.2967L79.3017 32.8872C78.7604 35.922 79.394 38.9376 79.9633 40.9702C80.5781 43.1652 81.4168 45.2055 81.9815 46.5413L94.622 41.1977ZM92.8121 35.2967C92.8719 34.9612 93.0773 33.8424 93.0839 32.772C93.0858 32.4652 93.0751 31.9604 92.9792 31.3694C92.9081 30.9313 92.6742 29.6276 91.7279 28.3048C90.4589 26.531 88.0976 25.0817 85.2064 25.4338C83.1154 25.6885 81.7792 26.8005 81.3704 27.1546L90.3552 37.5281C90.0848 37.7623 88.863 38.8135 86.8657 39.0568C85.7149 39.1969 84.3978 39.0513 83.1222 38.4372C81.8896 37.8438 81.0706 36.9945 80.5666 36.29C79.6758 35.0449 79.48 33.8585 79.4329 33.5678C79.3608 33.1241 79.3599 32.7966 79.3606 32.6875C79.3623 32.4075 79.3879 32.4038 79.3017 32.8872L92.8121 35.2967Z" fill="white"></path> </svg> 