<?xml version="1.0" encoding="UTF-8"?> <svg xmlns="http://www.w3.org/2000/svg" width="3492" height="1362" viewBox="0 0 3492 1362" fill="none"> <path fill-rule="evenodd" clip-rule="evenodd" d="M3012.23 792.473C2947.76 784.364 2882.82 779.239 2818.15 773.032C2810.87 772.334 2810.76 772.666 2806.37 766.814C2794.45 750.896 2782.03 735.333 2769.27 720.074C2730.79 674.051 2688.82 632.685 2640.18 597.458C2605.7 572.489 2569.79 549.21 2532.96 527.863C2531.97 541.701 2534.5 557.575 2540.53 570.053C2545.2 579.725 2553.79 587.461 2561.47 594.746C2584.27 616.403 2609.66 635.379 2631.52 658.035C2653.82 681.144 2660.81 713.201 2654.16 744.398C2652.92 750.234 2652.52 751.039 2646.94 751.971C2640.68 753.019 2633.86 752.35 2627.58 751.988C2577.12 749.086 2526.6 739.402 2477.04 729.953C2450.73 724.938 2424.48 719.542 2398.45 713.218C2382.3 709.295 2364.97 705.792 2349.86 698.607C2285.13 667.814 2277.88 572.932 2280.14 511.668C2207.05 519.794 2129.89 512.627 2058.73 495.386C1972.43 474.48 1869.65 433.524 1829.68 347.445C1810.65 306.447 1807.54 260.139 1809.53 215.58C1856.18 230.02 1903.81 241.482 1951.29 252.797C1959.58 254.773 1967.88 256.725 1976.18 258.655C1979.52 259.431 1985.06 259.627 1988.08 261.398C1992.66 264.083 1996.81 271.922 2000.17 276.016C2025.96 307.403 2053.48 337.754 2083.84 364.799C2100.1 379.289 2117.42 393.294 2136.77 403.485C2157.52 414.42 2181.46 418.99 2204.49 422.191C2262.27 430.22 2326.19 430.064 2383.01 415.507C2387.48 434.982 2402.5 453.041 2423.77 453.157C2447.06 453.283 2466.73 436.798 2484.49 423.879C2490.95 419.175 2498.34 422.125 2506.37 423.223C2528.79 426.29 2551.08 430.416 2573.17 435.303C2645.72 451.35 2717.09 475.783 2782.37 511.542C2846.07 546.436 2903.12 594.722 2948.9 651.065C2968.82 675.575 2987.15 702.049 3000.26 730.884C3008.53 749.095 3017.48 772.163 3012.23 792.473Z" fill="#FFDD00"></path> <path fill-rule="evenodd" clip-rule="evenodd" d="M2988.32 272.074C2964.48 270.578 2941.37 273.212 2918 277.719C2906.61 279.916 2894.82 283.107 2883.18 283.21C2872.84 283.299 2862.52 281.054 2852.21 280.39C2806.04 277.414 2760.8 262.216 2724.72 232.404C2687.95 202.013 2663.74 158.983 2623.76 132.339C2584.78 106.353 2540.75 90.7211 2493.51 89.9275C2470.56 89.5418 2448.6 95.6347 2426.58 101.31C2405.48 106.748 2383.65 111.698 2364.57 122.652C2345.84 133.408 2330.76 150.135 2317.58 167.004C2309.98 176.733 2303.92 187.506 2299.5 199.041C2296.4 207.11 2297.5 216.563 2291.86 223.291C2283.96 232.725 2275.64 238.637 2272.04 251.252C2269.15 261.413 2270.17 271.595 2274.31 281.233C2278.56 291.12 2285.09 299.379 2293.31 306.259C2299.53 311.462 2302.03 311.799 2308.72 307.252C2316.08 322.514 2318.98 339.205 2330.74 352.085C2336.58 358.482 2343.31 363.157 2351.08 366.903C2356.97 369.74 2362.44 372.165 2366.05 377.912C2369.84 383.945 2382.44 409.104 2372.2 412.83C2366.22 415.004 2355.71 411.648 2349.23 411.66C2340.16 411.676 2331.1 412.532 2322.2 414.223C2289.6 420.413 2259.68 420.379 2226.79 415.718C2192.65 410.879 2159.69 402.379 2127.66 389.508C2098.57 377.818 2069.03 363.252 2046.87 340.552C2036.23 329.656 2026.79 317.102 2020.02 303.434C2013.26 289.795 2012.06 274.159 2004.75 261.051C2000.02 252.567 2010.03 246.529 2015.34 239.676C2026.14 225.735 2036.79 209.196 2044.73 193.473C2052.45 178.198 2061.02 163.324 2070.18 148.827C2079.89 133.458 2092.35 120.545 2103.31 106.134C2111.38 95.5069 2120.32 82.815 2121.53 69.1044C2122.13 62.3026 2120.6 54.2401 2115.92 48.9774C2111.74 44.2698 2107.51 45.4265 2102.93 43.2445C2089.5 36.847 2076.59 38.1437 2062.48 43.1079C2054.85 45.7902 2046.59 47.4947 2039.14 50.5204C2033.34 52.8718 2029.71 58.9916 2023.82 60.774C2024.08 39.2509 2026.05 12.5504 1997.06 13.149C1974.12 13.6248 1958.79 44.1791 1942.63 56.7937C1939.09 50.2487 1942 41.3695 1942.41 34.419C1942.83 27.2252 1941.93 19.0806 1938.66 12.5409C1931.51 -1.74385 1916.35 -3.32827 1903.94 5.26656C1897.31 9.8614 1896.83 18.0325 1890.26 22.5617C1883.74 27.0527 1882.09 34.7228 1877.55 41.1909C1871.79 49.389 1865.65 57.2781 1860.26 65.743C1857.76 69.6563 1854.7 73.9658 1853.13 78.3859C1852.49 80.2187 1852.69 83.9045 1851.52 85.4983C1849.99 87.5848 1846.38 88.5545 1844.43 90.4432C1841.82 92.9791 1841.41 95.4306 1839.96 98.5546C1837.35 104.177 1833.91 108.26 1829.96 113.257C1820.01 125.843 1813.73 144.333 1814.39 160.343C1814.73 168.642 1814.89 174.644 1812.8 182.526C1811.44 187.614 1813.3 193.505 1810.97 198.619C1807.72 205.735 1783.82 209.036 1797.16 220.048C1802.73 224.647 1804.53 224.155 1803.31 232.158C1802.1 240.104 1801.2 247.947 1801.24 255.999C1801.31 273.087 1804.9 289.814 1807.89 306.561C1811.13 324.688 1815.02 342.514 1824.09 358.735C1832.5 373.777 1843.49 387.697 1854.8 400.659C1878.63 427.966 1908.56 449.959 1942.54 462.807C1978.79 476.507 2013.82 494.68 2051.86 503.027C2090.81 511.572 2130.53 515.668 2169.61 523.465C2187.17 526.967 2203.74 529.738 2221.68 528.069C2239.89 526.38 2258.12 524.509 2275.92 520.154C2276.18 546.722 2271.66 572.475 2276.77 598.894C2281.22 621.95 2288.57 644.91 2300.77 665.1C2312.68 684.825 2331.15 703.458 2352.36 713.026C2358.83 715.944 2370.11 717.164 2372.81 724.03C2374.17 727.467 2372.41 732.488 2372.05 736.049C2371.45 742.111 2371.61 748.331 2370.66 754.353C2369.22 763.484 2361.33 760.432 2353.09 761.031C2342.04 761.836 2331.04 763.147 2320.07 764.642C2308.86 766.173 2297.75 768.66 2286.56 770.104C2276.95 771.342 2267.49 771.47 2257.93 773.413C2235.35 778.009 2212.66 777.978 2189.76 779.576C2165.24 781.289 2140.82 784.388 2116.38 786.927C2067.97 791.959 2019.11 797.743 1971.39 807.464C1949.11 812.001 1927.32 817.295 1904.85 821.016C1883.9 824.49 1859.85 828.757 1842.32 841.297C1828.64 851.077 1814.14 852.452 1797.46 854.033C1787.62 854.964 1782.28 853.726 1778.5 844.131C1774.78 834.714 1771.27 825.422 1767.08 816.171C1749.87 778.246 1737.73 739.449 1726.81 699.389C1718.7 669.647 1706.02 632.737 1672.17 624.789C1662.02 622.408 1653.88 624.275 1644.29 627.657C1637.78 629.953 1628.01 629.213 1622.58 633.406C1619.45 635.828 1617.03 639.577 1613.83 642.149C1610.47 644.838 1606.68 647.249 1603.83 650.525C1599.03 656.07 1599.61 668.218 1592.76 671.542C1587.74 673.977 1587.29 684.322 1586.47 689.042C1584.95 697.773 1583.13 706.516 1582.74 715.383C1582.44 722.362 1581.18 731.586 1583.82 738.203C1586.17 744.106 1591.13 745.632 1587.08 752.553C1592.09 752.876 1591.59 764.991 1591.76 768.164C1592.19 776.686 1593.46 784.057 1596.44 792.183C1603.97 812.726 1615.45 829.218 1629.25 845.937C1634.28 852.034 1645.68 862.305 1643.92 870.959C1642.22 879.268 1635.26 883.752 1635.01 893.264C1634.48 913.05 1641.62 937.036 1647.82 955.69C1653.4 972.468 1660.34 984.985 1678.58 988.985C1694.74 992.532 1712.83 990.891 1728.88 987.446C1748.2 983.295 1767.4 982.065 1787.07 980.53C1796.76 979.776 1806.32 979.332 1815.65 976.385C1824.31 973.645 1832.4 969.879 1841.53 968.941C1848.04 968.272 1855.85 969.098 1860.65 963.676C1865.89 957.763 1863.19 951.651 1861.42 945.169C1860.23 940.817 1859.04 939.733 1862.31 937.956C1864.93 936.54 1870.46 936.686 1873.4 936.371C1880.52 935.608 1887.47 935.237 1892.31 941.217C1897.72 947.887 1899.25 957.764 1902.13 965.657C1905.57 975.109 1910.04 984.264 1914.33 993.354C1922.86 1011.39 1933.21 1028.65 1941.3 1046.85C1943.15 1051.01 1946.12 1060.86 1951.7 1061.49C1955.83 1061.96 1954.77 1058.97 1957.37 1058.05C1960.16 1057.07 1961.91 1057.75 1965.34 1056.85C1973.87 1054.61 1979.68 1046.03 1988.6 1043.74C1997.77 1041.39 2008 1041.18 2017.37 1039.99C2060.17 1034.56 2102.69 1027.23 2144.37 1015.96C2165.27 1010.31 2185.71 1003.26 2206.35 996.795C2216.07 993.752 2226.13 990.175 2236.2 988.587C2245.4 987.14 2254.87 987.366 2264.12 986.155C2283.95 983.563 2304.04 983.571 2323.83 980.618C2333.14 979.229 2341.12 975.528 2350.1 973.421C2357.97 971.578 2364.1 971.081 2371.2 966.629C2371.43 972.264 2379.88 968.465 2382.61 967.878C2384.77 967.412 2387.26 967.478 2389.35 966.799C2391.46 966.116 2393.61 963.56 2395.17 963.126C2398.64 962.163 2401.53 963.875 2405.6 964.043C2411.03 964.268 2419.13 962.274 2424.19 960.291C2427.68 958.922 2422.8 959.133 2428.26 957.929C2430.8 957.367 2434.35 958.382 2437.17 957.838C2443.86 956.553 2450.51 954.114 2457.11 952.375C2469.06 949.228 2483.44 947.788 2492.99 939.193C2511.61 973.465 2528.47 1009.31 2553.57 1039.49C2577.82 1068.65 2610.59 1090.72 2639.02 1115.59C2668.27 1141.18 2697.84 1166.96 2728.4 1190.99C2743.25 1202.66 2759.18 1213.19 2775.05 1223.45C2791.32 1233.97 2809.12 1240.03 2826.05 1249.12C2834.37 1253.58 2843.2 1256.82 2851.56 1261.19C2859.25 1265.22 2866.19 1270.41 2873.71 1274.7C2880.35 1278.48 2888.57 1280.9 2894.54 1285.55C2898.92 1288.95 2903.44 1296.56 2909.68 1291.58C2910.72 1296.63 2912.33 1295.1 2915.89 1296.25C2919.68 1297.48 2920.73 1298.09 2924.06 1300.24C2929.47 1303.75 2935.77 1306.81 2942.63 1304.22C2941.55 1313.41 2966.69 1314.87 2971.54 1310.47C2970.96 1320.43 3000.86 1323.78 3004.58 1315.72C3007.73 1308.91 3007.17 1297.04 3007.92 1289.74C3009.13 1277.82 3009.51 1265.84 3009.68 1253.87C3009.86 1241.21 3009.92 1228.54 3009.96 1215.87C3009.98 1210.31 3010.13 1204.71 3009.83 1199.16C3009.68 1196.43 3008.26 1191.88 3009.38 1189.25C3012.65 1181.58 3026.72 1186.65 3033.36 1187.11C3038.37 1187.44 3043.49 1187.73 3048.52 1187.42C3052.17 1187.19 3057.19 1185.31 3060.76 1186.22C3068.94 1188.29 3063.63 1196.33 3062.28 1202.06C3060.55 1209.42 3062.92 1214.53 3070.23 1217.56C3078.78 1221.1 3109.19 1216.28 3109.24 1229.39C3109.27 1235.53 3104.58 1245.38 3103.08 1251.35C3100.61 1261.15 3096.36 1270.16 3091.34 1278.88C3083.07 1293.25 3068.38 1309.71 3070.2 1327.43C3073.83 1362.84 3134.55 1367.05 3159.1 1355.66C3195.25 1338.88 3210.95 1298.12 3212.15 1260.53C3212.74 1242.24 3211.16 1221.75 3205.29 1204.31C3202.69 1196.56 3195.55 1187.2 3197.12 1178.64C3198.43 1171.54 3205.97 1167.58 3207.62 1160.43C3209.58 1151.95 3204.8 1144.39 3200.99 1137.21C3197.02 1129.74 3193.4 1121.88 3188.13 1115.21C3175.93 1099.76 3155.74 1097.9 3137.29 1098.11C3117.12 1098.35 3096.67 1101.34 3076.98 1105.65C3067.24 1107.78 3058.87 1109.86 3048.8 1108.72C3041.09 1107.84 3033.31 1106.91 3025.61 1105.9C3018.34 1104.95 3012.29 1103.98 3009.98 1096.43C3007.45 1088.12 3006.79 1084.91 2998.12 1081.08C2988.88 1077 2979.31 1073.72 2969.82 1070.28C2967.82 1069.55 2963.59 1067.12 2961.36 1068.13C2959.38 1069.03 2960.15 1072.91 2958.48 1073.31C2955.84 1073.95 2950.9 1052.88 2944.53 1065.72C2946.51 1059.03 2938.5 1059.41 2934.39 1058.73C2932.9 1058.48 2931.38 1058.29 2929.91 1058.04C2928.63 1056.95 2927.26 1056.83 2925.79 1057.68C2924.11 1057.38 2923.3 1056.36 2923.37 1054.63C2907.11 1047.76 2890.2 1042.09 2873.84 1035.35C2854.93 1027.55 2835.94 1019.62 2818.28 1009.26C2811.74 1005.41 2805.35 1001.18 2798.72 997.5C2795.69 995.815 2792.87 995.066 2789.67 994.008C2788.45 993.762 2787.23 993.813 2786.01 994.166C2785.91 993.036 2785.49 992.039 2784.75 991.175C2774.24 982.841 2762.93 975.491 2752.05 967.521C2744.43 961.944 2737.99 957.409 2729.79 953.378L2728.23 952.627L2724.43 952.249C2724.43 950.837 2724 949.565 2723.16 948.434C2720.86 946.188 2718.7 944.802 2715.86 943.295C2704.54 937.294 2692.9 932.713 2682.44 926.453C2676.93 923.155 2656.8 911.1 2650.47 915.322C2650.31 906.989 2624.51 907.771 2619.81 900.976C2635.25 891.454 2645.48 878.706 2654.95 863.453C2665.27 846.838 2674.82 828.833 2677.51 809.202C2679.99 791.114 2677.72 770.593 2669.96 754.01C2662.45 737.971 2665.05 723.484 2662.61 706.46C2657.53 670.989 2637.09 642.279 2610.68 619.232C2596.31 606.682 2581.26 594.986 2566.54 582.844C2554.59 572.983 2545.62 562.172 2544.04 546.206C2602.36 569.887 2650.82 610.635 2695.31 654.26C2717.44 675.959 2739.27 698.054 2760.77 720.388C2771.71 731.754 2782.34 743.474 2791.68 756.208L2794.26 759.73C2797.27 763.843 2800.23 768.006 2802.81 772.389C2803.42 773.436 2807.14 778.256 2807.04 779.321C2806.27 787.606 2789.18 794.494 2783.43 799.531C2775.59 806.391 2767.25 814.747 2762.77 824.249C2757.42 835.614 2762.47 844.44 2774.86 846.692C2790.01 849.447 2805.32 842.1 2819.69 838.51C2819.15 846.942 2812.49 854.189 2807.82 860.725C2801.41 869.689 2794.96 878.809 2789.18 888.196C2781.01 901.466 2776.18 918.223 2787.31 931.436C2815.7 965.106 2854.47 922.421 2871.97 900.341C2875.48 905.926 2869.58 918.786 2868.27 924.631C2865.74 935.877 2863.16 948.003 2863.91 959.577C2864.49 968.44 2867.06 979.564 2875.7 984.003C2885.07 988.816 2896.3 983.639 2903.79 977.693C2916.73 967.424 2924.53 953.287 2931.19 938.591C2932.66 935.354 2944.08 904.497 2947.76 904.98C2950.42 926.474 2947.97 948.173 2952.67 969.55C2956.79 988.283 2967.91 1004.37 2988.4 992.963C3020.13 975.301 3028.77 934.666 3032.11 901.656C3034.06 882.46 3033.87 863.307 3030.88 844.223C3029.65 836.308 3026.96 829.655 3024.49 822.118C3022.46 815.903 3021.84 813.12 3025.69 808.473C3027.93 805.763 3028.91 806.028 3029.43 802.234C3029.8 799.513 3029.14 795.711 3028.99 792.982C3028.56 785.183 3027.94 777.409 3026.66 769.698C3023.93 753.224 3017.37 737.779 3009.93 722.903L3009.18 721.413L3009.21 721.486C3009.68 722.475 3005.94 716.151 3006.06 716.186L3006.08 716.211L3005.97 716.068C3004.51 713.951 3005.49 709.349 3001.66 712.258L3001.38 712.477C3003.31 706.695 2999.87 701.563 2997.08 696.752C2996.04 694.959 2995.19 692.709 2993.63 691.258C2992.55 690.248 2989.37 689.519 2988.72 688.458C2987.46 686.398 2987.64 683.41 2986.56 681.15C2985.48 678.888 2983.41 677.194 2981.94 675.207C2978.33 670.337 2975.39 664.969 2971.98 659.953C2964.74 649.298 2956.79 639.12 2948.38 629.369C2930.68 608.853 2910.7 590.015 2890.27 572.257C2872.26 556.605 2853.27 541.171 2833.9 527.233C2814.02 512.926 2790.31 504.847 2768.68 493.502C2724.6 470.375 2675.78 451.605 2628.07 437.452C2604.7 430.516 2580.94 424.869 2557.02 420.154C2533.83 415.58 2509.53 411.23 2485.86 414.719C2480.81 415.462 2470.34 420.161 2465.68 417.94C2461.76 416.071 2461.28 407.242 2460.58 403.554C2458.91 394.794 2455.86 386.128 2455.02 377.268C2453.98 366.359 2455.69 355.262 2456 344.354C2471.46 353.258 2488.05 361.703 2506.31 361.811C2522.85 361.909 2537.05 354.451 2551.93 348.286C2567.61 341.792 2582.64 339.18 2599.07 344.668C2617.7 350.893 2631.44 364.066 2645.68 376.928C2675.78 404.102 2705.35 432.54 2737.75 456.977C2753.59 468.921 2770.33 480.07 2788.39 488.384C2797.58 492.614 2807.24 496.043 2815.8 501.536C2819.35 503.811 2820.26 504.878 2823.99 504.415C2823.48 504.48 2830.65 499.102 2830.37 502.216C2830.11 505.217 2827.92 506.759 2829.44 509.719C2831.23 513.196 2837.66 514.467 2840.95 515.486C2845.88 517.015 2850.33 516.94 2855.36 517.726C2863.12 518.943 2870.63 523.266 2878.22 525.292C2881.75 526.233 2884.53 526.376 2887.93 526.673C2891.49 526.985 2889.4 526.28 2892.83 527.189C2895.87 527.994 2897.35 529.038 2901.3 529.321C2904.84 529.574 2908.02 530.047 2911.52 530.6C2914.72 531.109 2917.58 530.843 2920.63 531.152C2916.8 530.765 2925.87 530.841 2925.2 531.528L2925.15 531.569L2925.19 531.552C2926.43 530.941 2928.19 529.417 2929.99 529.803L2930.35 529.904C2921.38 536.145 2949.32 537.046 2951.13 537.21C2966.22 538.578 2983.74 534.889 2998.12 539.734C3012.16 544.463 3021.65 559.195 3029.87 570.598C3039.8 584.37 3049.63 598.185 3059.47 612.021C3081.22 642.602 3106.2 672.199 3134.5 696.912C3148.27 708.932 3162.88 720.021 3177.18 731.396C3183.63 736.523 3191.26 740.655 3197 746.587C3200.88 750.596 3205.16 759.615 3212.19 756.019C3212.15 761.644 3221.59 765.192 3225.49 766.951C3226.09 767.221 3224.64 767.985 3226.08 768.454C3228.19 769.143 3229.55 767.372 3231.34 767.612C3234.96 768.101 3234.79 769.505 3237.54 772.083C3241.1 775.432 3240.87 773.693 3244.77 774.826C3247 775.474 3248.79 777.57 3250.9 778.508C3251.76 778.89 3253.5 777.903 3254.75 778.436C3255.95 778.951 3258.2 781.553 3259.71 782.444C3263.48 784.681 3268.38 786.2 3272.5 787.665C3278.41 789.76 3338.59 808.165 3339.35 794.331C3343.72 803.616 3364.21 799.66 3372.85 799.27C3376.07 799.126 3376.74 797.987 3378.83 797.202C3379.1 795.343 3380.13 794.884 3381.92 795.822C3382.34 795.939 3382.76 796.057 3383.17 796.173C3387.04 795.841 3388.16 796.341 3391.87 794.515C3396.82 792.076 3404.48 791.163 3408.26 786.902C3409.28 785.757 3409.71 783.247 3410.62 782.393C3411.78 781.296 3413.34 782.109 3414.15 781.169C3414.44 780.84 3414.83 778.082 3414.89 778.06C3418.83 776.793 3422.5 779.642 3427.11 778.071C3439.83 773.726 3452.16 759.651 3459.59 749.118C3479.03 721.57 3493.87 691.961 3491.81 657.603C3490.81 640.899 3488.04 624.271 3484.12 608.015C3483.03 603.519 3482.28 597.86 3480.29 593.626C3479.39 591.725 3477.63 590.693 3477.25 589.62C3475.23 583.892 3475.5 577.688 3472.18 571.559C3468.47 564.733 3464.9 557.812 3460.3 551.541C3456.07 545.784 3449.96 540.696 3446.12 535.354C3445.06 533.887 3446.12 532.68 3445.01 530.996C3443.83 529.212 3441.76 528.268 3440.13 526.972C3438.2 525.436 3435.96 523.142 3433.77 522.022C3429.67 519.927 3427.74 520.565 3423.31 522.282C3428.03 510.666 3407.3 500.363 3398.65 496.828C3394.66 495.196 3375.33 485.259 3373.23 491.531C3371.11 483.634 3355.39 482.487 3348.62 481.844C3340.48 481.071 3333.73 484.522 3326.78 488.309C3326.64 486.159 3326.51 484.008 3326.38 481.858C3324.68 482.244 3319.6 481.965 3320.05 484.983C3316.69 478.25 3318.1 483.244 3313.29 482.247C3311.17 481.809 3309.77 480.394 3307.8 479.308C3306.52 481.971 3307.35 483.338 3308.27 485.929C3304.18 484.359 3289.26 476.414 3298.72 486.191C3296.06 488.322 3289.14 484.385 3286.42 483.712C3284.98 483.354 3281.55 482.047 3280.34 482.713C3279.53 483.151 3279.74 485.347 3279.55 485.459C3277.85 486.502 3279.82 488.195 3277.39 487.71C3276.79 487.591 3275.76 485.117 3275.35 484.962C3272.41 483.82 3274.7 484.072 3271.42 483.26C3270.26 482.973 3267.65 483.368 3266.13 483.086C3243.19 478.819 3223.92 451.997 3213.66 433.123C3201.39 410.57 3191.93 387.946 3173.8 369.176C3156.26 351.021 3135.46 333.878 3114.93 319.231C3076.97 292.145 3035.29 275.02 2988.32 272.074ZM2061.28 1020.09C2060.45 1020.17 2059.62 1020.26 2058.8 1020.34C2058.03 1019.46 2057.25 1018.57 2056.49 1017.69C2059.8 1017.5 2060.22 1017 2061.28 1020.09ZM1859.94 868.339C1863.73 873.624 1865.15 882.662 1867.85 888.807C1871.65 897.432 1875.85 905.874 1880.03 914.312C1871.44 913.866 1856.21 920.006 1850 911.903C1846.93 907.889 1847.21 899.873 1846.16 895.133C1844.53 887.794 1842.1 880.536 1839.55 873.472C1836.93 866.191 1855.97 862.799 1859.94 868.339ZM2382.21 952.499C2379.85 952.525 2373.45 955.604 2374.8 958.144C2377.86 956.585 2381.36 955.981 2382.21 952.499ZM3062.04 1138.7C3064.43 1143.38 3065.89 1151.73 3066.76 1156.96C3067.73 1162.85 3066.87 1165.27 3061.17 1166.63C3050.16 1169.25 3037.04 1166 3025.98 1164.82C3020.08 1164.19 3011.99 1165.35 3009.46 1158.71C3006.95 1152.13 3010.55 1143.24 3010.95 1136.51C3011.28 1131.06 3011.48 1125.6 3011.73 1120.15C3020.68 1124.87 3030.04 1128.75 3040.07 1130.39C3047.34 1131.58 3058.22 1131.22 3062.04 1138.7ZM3004.44 818.107C3007.82 831.401 3010.14 844.971 3011.5 858.62C3013.75 881.21 3013.35 904.062 3009.87 926.506C3007.4 942.407 3004.11 964.84 2990.64 975.586C2961.3 998.998 2962.29 897.421 2960.73 886.123C2959.81 879.396 2957.31 871.568 2949.06 876.385C2942.3 880.339 2940 890.145 2937.04 896.835C2928.25 916.72 2921.27 941.972 2905.53 957.646C2900.36 962.791 2889.72 968.928 2882.97 962.896C2876.91 957.487 2878.33 943.854 2878.69 936.682C2879.83 913.994 2884.79 887.704 2893.1 866.581C2894.77 862.337 2909.91 835.943 2897.62 838.154C2889.59 839.598 2881.89 859.315 2878.66 865.48C2866.05 889.564 2843.81 930.128 2810.99 921.716C2803.77 919.865 2796.67 915.097 2795.16 907.311C2793.29 897.637 2802.48 889.385 2807.49 882.053C2816.13 869.413 2825.34 856.507 2831.43 842.358C2835.17 833.685 2840.21 818.792 2826.56 817.178C2810.1 815.232 2795.97 832.06 2779.07 825.955C2780.64 822.05 2784.09 819.749 2787.24 817.235C2797.43 809.11 2811.87 804.471 2820.25 794.306C2822.99 790.971 2824.08 784.72 2827.74 782.496C2831.2 780.398 2836.56 781.676 2840.21 782.366C2864.51 786.949 2889.08 789.774 2913.56 793.623C2939.73 797.739 2964.34 800.696 2990.72 799.944C3002.6 799.604 3001.87 808.017 3004.44 818.107ZM2404.81 757.539C2400.88 757.765 2396.95 758.069 2393.01 758.195C2389.58 758.308 2388.86 756.818 2388.81 753.637C2391.08 754.055 2404.56 754.653 2404.81 757.539ZM2684.24 475.39C2726.46 493.997 2768.02 511.509 2806.85 536.726C2825.42 548.787 2843.34 561.302 2860.86 574.834C2868.26 580.551 2874.63 585.964 2880.02 593.562C2882.03 596.386 2886.99 604.711 2890.6 598.967C2892.8 603.876 2895.54 617.25 2903.67 613.738C2902.96 618.375 2906.16 619.521 2908.65 622.204C2909.52 623.148 2909.41 625.106 2910.55 626.294C2910.83 626.592 2911.93 624.223 2912.46 624.389C2914.35 624.989 2914.23 629.435 2914.88 630.847C2916.46 634.237 2918.39 636.281 2921.41 638.503C2922.67 639.583 2924.04 640.504 2925.52 641.264C2927.02 642.737 2928.32 642.644 2929.41 640.985C2931.88 642.037 2933.33 643.681 2935.46 645.921C2929.31 644.926 2938.2 650.19 2939.4 650.844C2937.85 655.113 2935.34 650.988 2932.66 650.917C2931.59 656.632 2939.74 664.634 2942.72 668.858C2944 667.674 2945.28 666.49 2946.56 665.308C2947.24 666.836 2947.6 668.425 2947.65 670.077C2947.37 671.942 2948.34 673.019 2950.55 673.305C2951.81 675.544 2952.37 674.971 2952.67 677.523C2952.98 680.165 2947.76 682.948 2953.59 683.205C2950.68 690.383 2959.11 688.74 2958.7 686.403C2963.94 687.963 2962.34 698.069 2960.32 701.441C2963.7 700.032 2965.05 700.934 2966.72 703.785L2966.87 704.039L2966.78 703.897C2965.42 701.879 2965.25 707.814 2965.1 707.687L2965.09 707.656C2967.47 716.485 2970.06 708.732 2970.09 704.107C2973 706.907 2972.12 710.938 2974.05 714.193C2975.76 717.091 2976.81 716.496 2978.83 717.645C2981.94 719.414 2982.05 716.309 2982.02 720.514C2982 722.295 2979.96 724.668 2979.28 726.342C2978.65 723.816 2980.44 720.954 2978.32 718.794C2976.8 724.749 2979.9 748.593 2989.15 739.041C2992.38 743.983 2986.04 745.392 2987.29 750.766C2990.34 749.542 2992.23 746.392 2993.15 743.412C2993.79 745.802 2992.8 748.097 2993.13 750.387C2993.47 752.775 2994.58 753.409 2994.27 755.729C2993.8 759.25 2991.63 756.548 2991.74 760.532C2991.79 762.533 2994.67 765.434 2995.66 766.947C2999.1 772.245 3002.38 778.095 2995.46 781.765C2984.62 787.508 2964.98 780.693 2954.06 777.961C2930.76 772.136 2907.18 768.601 2883.53 764.589C2869.28 762.175 2855.17 760.196 2840.79 758.848C2830.46 757.878 2817.04 754.436 2808.31 761.994C2792.62 727.041 2763.6 700.346 2737.9 672.772C2710.07 642.907 2680.66 613.726 2648.64 588.321C2620.26 565.793 2588.67 548.791 2556.7 532.02C2548.28 527.6 2535.65 519.911 2525.65 522.125C2519.47 523.492 2517.2 528.438 2519.09 534.389C2520.11 537.611 2522.52 537.863 2522 542.657C2521.6 546.364 2520.06 548.67 2517.86 551.607C2520.78 550.771 2524.33 553.42 2526.72 550.814L2526.97 550.516L2526.92 550.922C2526.01 557.526 2515.09 554.054 2515.42 562.551L2515.45 563.075C2515.68 565.724 2518.54 558.69 2519.55 559.04C2522.29 559.991 2521.95 567.158 2522.35 569.345C2517.35 567.317 2517.78 571.722 2519.71 574.645C2521.09 576.732 2524.17 578.423 2525.95 580.407C2529.51 584.37 2532.12 589.124 2535.83 593.034C2539.89 597.316 2544.21 599.234 2548.62 602.584C2549.3 603.102 2551.87 605.473 2552.17 605.625C2552.57 605.832 2552.15 607.154 2552.48 607.348C2555.46 609.079 2559.05 607.114 2561.62 609.553C2562.61 610.488 2560.84 613.103 2561.59 614.164C2562.42 615.336 2565.97 615.713 2567.36 616.188C2570.7 617.327 2571.38 617.099 2573.35 619.666C2576.75 624.076 2577.59 628.513 2583.33 631.589C2587.83 633.995 2591.21 634.337 2594.96 637.911C2598.76 641.526 2602.88 643.659 2606.81 646.641C2607.3 647.02 2606.68 648.991 2607.08 649.308C2608.36 650.331 2610.23 650.71 2611.45 651.703C2614.25 653.986 2616.49 655.917 2618.75 658.889C2628.65 671.951 2638.29 689.432 2643.98 704.773C2646.59 711.776 2654.4 729.931 2647.15 735.595C2642.5 739.229 2632.14 737.71 2626.64 737.806C2618.42 737.95 2610.29 737.185 2602.09 737.078C2591.89 736.946 2581.73 739.051 2571.53 738.402C2561.69 737.776 2552.19 734.581 2542.61 732.49C2501.16 723.442 2458.85 718.775 2417.39 709.7C2394.65 704.724 2371.18 700.273 2350.98 688.063C2333.19 677.301 2318.39 661.487 2307.97 643.558C2289 610.934 2282.07 572.732 2285.94 535.379C2286.75 527.664 2293.34 510.225 2288.59 503.379C2284.64 497.678 2278.67 504.283 2273.94 505.928C2266.25 508.6 2257.16 507.15 2249.18 507.217C2229.44 507.383 2211.08 508.567 2191.3 506.071C2171.24 503.536 2151.36 499.861 2131.44 496.402C2091.08 489.39 2052.59 482.627 2014.41 467.27C1976.64 452.071 1938.19 438.113 1903.71 416.015C1873.54 396.686 1847.46 366.754 1832.22 334.305C1824.52 317.919 1820.86 299.685 1816.69 282.163C1814.45 272.764 1812.69 263.248 1811.88 253.615C1811.28 246.534 1809.6 235.953 1811.78 229.084C1813.73 222.948 1816.86 225.204 1823.05 227.009C1832.56 229.787 1841.98 232.921 1851.51 235.694C1870.72 241.292 1890.08 246.343 1909.31 251.869C1928.93 257.507 1948.72 262.383 1969.02 264.82C1975.09 265.55 1979.89 265.311 1981.6 272.186C1982.69 276.614 1979.48 284.394 1987 280.776C1991.86 297.426 2003.39 310.895 2013.81 324.339C2025.09 338.884 2035.6 354.12 2048.43 367.378C2076.08 395.945 2113.68 409.839 2151.37 419.587C2189.66 429.489 2229.01 438.185 2268.76 438.222C2286.99 438.241 2304.36 434.058 2322.14 430.555C2330.51 428.906 2338.82 428.124 2347.31 427.363C2356.88 426.506 2364.17 422.434 2373.24 420.634C2371.68 438.303 2388.05 451.239 2402.42 457.891C2420.36 466.199 2438.7 463.469 2455.57 453.784C2469.56 445.745 2478.51 428.851 2495.39 428.193C2514.65 427.445 2534.91 432.267 2553.71 435.917C2597.87 444.492 2643.06 457.242 2684.24 475.39ZM2536.83 582.165C2533.77 582.957 2534.94 582.311 2533.05 586.959C2535.74 588.189 2536.84 584.276 2536.83 582.165ZM2529.17 574.371C2529.21 576.538 2524.76 577.307 2523.49 577.129C2523.66 576.505 2529.05 568.226 2529.17 574.371ZM2986.42 728.609C2987.32 732.667 2985.3 734.108 2982.33 731.45L2982.08 731.223L2986.42 728.609ZM2954.84 680.286L2956.57 682.011C2957.17 683.349 2957.77 684.683 2958.37 686.018C2955.73 684.299 2953.57 683.922 2954.84 680.286ZM2945.12 671.15C2947.74 668.809 2950.31 676.608 2949.87 678.01C2949 676.863 2942.07 673.877 2945.12 671.15ZM2944.69 658.943C2945.2 661.113 2944.41 662.364 2942.32 662.696C2941.68 660.261 2941.44 657.788 2941.62 655.277C2944.04 654.679 2944.68 657.075 2944.69 658.943ZM2086.38 67.3375C2089.33 70.421 2085.18 75.2292 2083.6 78.1067C2076.08 91.8126 2067.64 104.974 2060.15 118.686C2049.62 137.973 2040.98 158.313 2029.04 176.819C2018.15 193.695 2005.1 209.078 1994.56 226.193C1987.51 237.643 1985.68 253.44 1969.51 251.216C1954.97 249.216 1939.87 243.296 1925.76 239.283C1907.58 234.113 1889.77 227.966 1871.94 221.713C1863.5 218.752 1854.93 215.393 1846.22 213.32C1841.1 212.098 1833.79 212.859 1831.89 206.883C1830.04 201.072 1834.52 190.013 1835.65 184.009C1837.13 176.083 1838.78 168.18 1841.08 160.442C1846.27 142.922 1855.47 127.223 1864.48 111.447C1874.18 94.439 1883.36 77.1285 1893.14 60.1721C1899.45 49.2428 1906.86 30.467 1918.62 24.3556C1917.08 49.0068 1909.69 72.8461 1900.82 95.7475C1898.91 100.665 1890.71 130.035 1904.76 119.8C1908.67 116.952 1909.59 114.794 1914.57 113.066C1919.7 111.285 1922.1 109.17 1925.42 104.667C1931.43 96.5108 1935.05 88.6618 1943.39 82.517C1960.36 70.01 1972.87 51.0748 1993.52 43.8038C1987.33 59.4899 1982.72 77.3057 1973.55 91.5594C1967.79 100.516 1954.63 111.437 1956.91 123.537C1958.04 129.572 1960.4 128.867 1965 127.934C1967.94 127.335 1967.88 126.473 1971.42 126.114C1974.8 125.772 1976.96 126.73 1980.42 125.745C1992.69 122.259 1998.55 109.931 2005.84 100.713C2021.93 80.3608 2050.95 75.5391 2074.54 68.4875C2077.11 67.7205 2083.94 64.7947 2086.38 67.3375ZM2418.45 256.651C2429.88 267.636 2443.1 275.422 2458.84 278.23C2457.54 281.41 2450.84 284.719 2453.65 287.991C2454.32 288.771 2460 288.641 2461.03 288.779C2466.81 289.547 2474.8 290.076 2479.82 293.407C2485.12 296.931 2483.4 300.595 2477.9 303.302C2470.18 307.102 2456.77 301.938 2452.6 311.756C2450.81 316.002 2451.27 322.423 2450.04 327.057C2448.21 333.987 2446.47 340.896 2445.39 347.994C2443.54 360.198 2443.55 372.528 2444.54 384.814C2445.39 395.398 2447.05 406.739 2452.95 415.826C2456.8 421.749 2455.42 419.22 2452.12 424.309C2449.92 427.718 2448.92 430.518 2454.06 431.544C2455.09 431.634 2456.11 431.725 2457.14 431.814C2438.5 445.607 2405.51 445.674 2391.1 425.57C2401.95 422.303 2395.52 406.32 2392.81 399.556C2388.76 389.423 2384.82 378.055 2380 368.35C2372.63 353.493 2355.55 352.331 2343.67 342.517C2331.65 332.585 2325.59 318.732 2321.12 304.182C2317.14 291.223 2311.46 275.036 2315.73 261.422C2316.57 258.756 2319.05 256.24 2319.59 253.614C2320.14 250.938 2318.76 250.002 2318.63 248.053C2318.39 244.047 2319.4 240.437 2320.7 236.494C2324.95 223.629 2329.73 223.278 2342.81 224.82C2350.43 225.716 2357.98 227.057 2365.6 228.001C2372.86 228.905 2380.08 227.893 2387.31 228.63C2402.53 230.179 2408.41 247.005 2418.45 256.651ZM2351.43 321.134C2337.95 323.304 2353.3 334.433 2360.77 334.088C2370.87 333.621 2358.96 319.922 2351.43 321.134ZM2353.22 258.285C2338.63 266.03 2318.03 285.445 2337.58 299.004C2343.61 303.189 2352.9 309.766 2360.32 310.651C2370.91 311.912 2373.47 298.46 2364.19 294.052C2358.68 291.441 2343.94 290.648 2343.26 282.744C2342.88 278.458 2349.3 274.496 2351.36 271.209C2354.02 266.979 2354.76 263.037 2353.22 258.285ZM2925.15 531.569L2925.14 531.579C2925.08 531.612 2925 531.648 2924.9 531.684L2924.85 531.7L2924.95 531.661L2925.15 531.569ZM2332.06 254.581C2325.25 251.796 2322.74 267.655 2325.12 271.504C2329.4 278.41 2340.66 258.096 2332.06 254.581ZM2372.58 283.759C2380.11 287.933 2386.02 268.27 2379.04 264.761C2369.89 260.153 2363.89 278.936 2372.58 283.759ZM2316.89 224.528C2317.05 226.843 2308.7 245.338 2306.29 244.773C2307.54 239.936 2309.75 235.458 2311.69 230.875L2312.17 229.715C2312.09 229.766 2316.43 217.999 2316.89 224.528Z" fill="black"></path> <path d="M2428.98 536.214C2444.03 547.659 2452.19 566.976 2443.69 586.912C2445.35 579.79 2444.54 571.667 2441.4 564.237C2440.7 563.951 2440.49 563.456 2440.28 562.96C2436.16 553.902 2426.66 547.992 2418 544.063C2414.27 542.138 2409.89 540.773 2405.73 539.904C2402.63 539.464 2399.88 539.167 2396.63 539.08C2396.13 539.289 2395.29 539.355 2394.79 539.564C2389.41 542.713 2383.95 547.062 2379.56 549.792C2374.67 552.732 2369.01 554.538 2363.09 552.954C2357.87 551.655 2352.81 547.957 2351.21 542.795C2347.94 533.67 2355.26 524.743 2361.85 519.623C2362.35 519.414 2363.05 519.7 2363.96 520.481C2370.06 515.571 2377.28 511.938 2384.78 509.647C2385.27 509.438 2386.12 509.372 2386.62 509.163C2387.61 508.744 2389.09 508.117 2390.29 508.194C2397.15 506.465 2407.53 506.166 2414.45 507.332C2430.32 509.675 2444.48 516.244 2454.51 528.934C2462.29 539.071 2467.58 554.349 2464.66 573.678C2463.88 559.413 2460 544.707 2450.32 534.208C2435.78 518.458 2418.92 516.534 2407.12 518.307C2414.81 518.56 2422.85 521.002 2429.75 524.215C2462.01 539.776 2456.85 567.636 2456.36 580.977C2456.62 571.236 2454.42 560.493 2450.51 551.929C2445.13 539.899 2432.75 531.997 2419.77 529.599C2417.86 529.236 2415.46 529.083 2413.42 529.072C2419.13 530.161 2424.27 532.659 2428.98 536.214ZM2377.45 546.887C2375.19 548.428 2372.71 549.474 2370.03 550.025C2365.15 550.917 2359.64 550.323 2356.13 546.845C2355.01 545.569 2354.24 544.435 2353.75 542.597C2354.86 547.968 2359.01 550.885 2364.8 550.774C2369.6 551.081 2374.2 548.846 2378.09 546.325C2377.95 546.677 2377.6 546.534 2377.45 546.887ZM2408.85 538.297C2412.87 539.518 2416.74 541.092 2420.83 543.16C2425.82 546.011 2431.38 549.499 2435.95 553.406C2432.73 549.224 2428.51 545.46 2423.51 542.61C2418.58 540.607 2413.86 539.1 2408.85 538.297Z" fill="black"></path> <path d="M2458.62 607.749C2457.75 611.909 2455.12 615.355 2452.14 618.658C2451.57 620.067 2450.64 621.333 2449.86 622.247C2449.72 622.599 2449.01 622.313 2448.66 622.17C2443.41 627.014 2436.89 630.933 2430.45 633.653C2429.96 633.862 2429.11 633.928 2428.47 634.49C2427.34 635.26 2426.35 635.679 2425.01 635.954C2418.36 638.178 2408.25 639.82 2401.05 639.358C2384.96 638.568 2370.23 633.407 2359.27 621.983C2350.36 612.617 2343.58 597.967 2344.46 578.627C2346.58 592.617 2351.8 607.047 2362.76 616.424C2378.86 630.346 2395.45 630.927 2407.33 627.954C2399.34 628.406 2391.37 626.811 2384.19 624.302C2350.5 612.265 2352.55 583.964 2351.84 570.546C2352.43 580.222 2355.98 590.689 2360.73 599.187C2367.1 610.799 2380.41 617.434 2393.61 618.28C2395.65 618.291 2397.7 618.302 2399.75 618.312C2394.04 617.223 2388.75 615.078 2383.75 612.227C2367.64 602.4 2357.85 584.063 2364.1 563.621C2362.33 578.085 2370.07 596.411 2388.81 604.841C2394.44 607.129 2400.16 608.218 2406.09 607.755C2401.64 607.591 2397.13 606.579 2392.55 604.719C2382.68 600.714 2372.62 594.166 2368.08 584.116C2367.67 583.126 2368.72 583.555 2369.07 583.698C2369.78 583.984 2370.69 584.765 2370.9 585.261C2375.23 594.815 2385.79 601.154 2395.73 603.959C2405.67 606.765 2415.71 604.276 2424.56 599.662C2428.31 597.494 2431.86 594.829 2435.61 592.66C2437.88 591.119 2440.43 588.873 2442.97 588.675C2445.87 588.619 2448.54 590.116 2450.93 592.317C2452.34 592.889 2453.75 593.462 2454.66 594.243C2458.96 596.807 2459.92 602.531 2458.62 607.749ZM2447.91 590.677C2446.5 590.105 2445.15 590.381 2444.16 590.799C2445.01 590.733 2446.56 590.953 2447.91 590.677Z" fill="black"></path> <path fill-rule="evenodd" clip-rule="evenodd" d="M1353.51 389.771C1346.93 391.145 1340.41 392.777 1333.87 394.361C1320.01 397.708 1306.06 400.612 1292.27 404.281C1286.04 405.943 1280.19 408.508 1274.09 410.595C1267.61 412.816 1260.89 414.275 1254.26 415.892C1240.32 419.288 1226.68 423.521 1213.07 428.12C1208.9 429.529 1204.74 430.961 1200.58 432.402C1197.39 433.509 1193.01 434.231 1190.19 436.011C1185.73 438.835 1185.91 445.343 1185.08 450.013C1180.58 475.211 1185.6 503.181 1193.92 526.751C1198.46 539.614 1205.19 551.256 1211.67 563.165C1218.31 575.371 1224.66 587.446 1233.3 598.344C1242.08 609.422 1249.64 621.222 1259.03 631.86C1262.53 635.829 1267.72 643.85 1272.94 645.562C1278.24 647.288 1285 643.523 1289.91 641.792C1316.74 632.315 1344 623.42 1370.42 612.819C1397.9 601.784 1425.44 590.899 1453.02 580.107C1447.25 574.761 1441.32 569.541 1435.72 564.018C1430.45 558.813 1426.17 552.481 1421.58 546.675C1411.51 533.921 1401.81 520.981 1394.43 506.424C1381.02 479.987 1370.83 451.535 1368.06 421.634C1367.41 414.628 1367.67 407.556 1367.93 400.511C1368.02 397.992 1369.51 391.011 1367.52 388.848C1364.9 386.017 1356.66 389.115 1353.51 389.771ZM1100.52 589.182C1095.87 593.278 1093.61 596.866 1097.3 602.142C1102 608.869 1107.29 615.259 1112.2 621.844C1121.58 634.442 1130.97 647.044 1141.15 659.021C1158.98 679.998 1178.56 699.52 1201.82 714.564C1213.07 721.837 1224.82 728.422 1236.74 734.571C1248.31 740.541 1260.83 744.207 1272.99 748.807C1278.98 751.066 1284.63 752.273 1291.02 753.074C1294.05 753.456 1295.54 753.757 1298.11 752.171C1300.72 750.558 1303.23 747.565 1305.47 745.486C1316.04 735.698 1326.37 725.619 1337.17 716.072C1347.87 706.612 1359.41 698.084 1370.11 688.652C1375.14 684.219 1378.74 678.623 1383.22 673.697C1387.74 668.734 1392.68 664.18 1397.42 659.432C1399.86 656.985 1400.29 657.65 1398.8 654.964C1398.01 653.532 1396.33 652.207 1395.22 650.977C1393.09 648.604 1390.96 646.229 1388.82 643.876C1386.9 641.774 1384.23 637.513 1381.62 636.161C1379.3 634.961 1377.27 636.06 1375.03 637.053C1362.48 642.622 1349.75 647.254 1336.67 651.368C1323.33 655.569 1310.05 660.088 1296.61 663.922C1290.81 665.577 1284.59 667.828 1278.54 667.021C1273.58 666.357 1269.12 663.969 1265.03 661.311C1242.51 646.699 1226.14 622.147 1211.6 600.139C1196.65 577.515 1182.39 553.424 1174.43 527.247C1149.4 547.375 1124.63 567.959 1100.52 589.182ZM1394.51 382.712C1389.59 390.825 1389.94 400.229 1390.45 409.156C1391.09 420.278 1392.08 431.25 1394.34 442.139C1399.07 465.014 1407.96 487.275 1419.16 507.595C1429.84 526.998 1443.61 547.148 1460.76 561.438C1465.35 565.258 1470.69 566.986 1475.51 570.228C1478.74 572.406 1481.51 577.133 1483.02 580.673C1485.18 585.749 1480.02 587.578 1476.12 589.608C1470.43 592.57 1464.75 595.544 1459.06 598.479C1437.57 609.546 1414.02 617.677 1394.17 631.457C1399.67 635.009 1404.09 638.682 1410.66 640.231C1416.8 641.683 1423.52 641.81 1429.02 645.086C1433.6 647.817 1438.26 653.046 1439.97 658.184C1441.76 663.578 1438.02 666.682 1434.43 670.344C1424.31 680.636 1414.76 691.255 1403.98 700.906C1401.66 702.978 1399.45 705.184 1396.71 706.662C1394.5 707.85 1392.7 708.378 1391.03 710.29C1388.83 712.82 1387.53 715.848 1385.04 718.289C1382.7 720.587 1380.07 722.571 1377.44 724.528C1367.74 731.768 1359.29 740.136 1349.13 746.835C1346.17 748.788 1339.79 751.43 1338.45 755.02C1337.02 758.814 1341.76 760.35 1342.21 763.67C1342.79 768.04 1335.46 771.457 1332.37 773.678C1327.96 776.852 1323.63 779.141 1318.33 780.297C1307.61 782.637 1296.6 783.121 1285.88 781.31C1274.65 779.418 1264.15 775.111 1253.75 770.807C1242.91 766.325 1232.2 762.036 1222.03 756.193C1211.64 750.221 1201.09 743.922 1191.82 736.341C1182.57 728.772 1173.91 720.492 1164.74 712.809C1155.18 704.795 1147.03 695.345 1138.75 686.073C1130.17 676.46 1122.02 666.787 1114.6 656.233C1107.31 645.868 1100.66 635.299 1093.97 624.548C1092.27 621.799 1090.02 619.334 1088.44 616.524C1087.38 614.635 1087.01 612.334 1085.74 610.563C1083.24 607.043 1078.32 607.44 1075.57 603.859C1069.2 595.536 1075.72 585.287 1080.81 577.975C1087.43 568.47 1095.86 559.168 1105.42 552.515C1126 538.202 1146.06 522.358 1170.09 514.387C1166.88 490.783 1161.93 466.357 1168.63 442.6C1169.38 439.918 1170.61 437.518 1170.26 434.738C1169.96 432.356 1169.1 430.41 1169.25 427.923C1169.63 421.801 1173.24 418.174 1178.48 415.479C1189.9 409.609 1201.03 404.283 1213.21 400.408C1218.61 398.686 1223.59 395.918 1228.99 394.145C1234.17 392.441 1239.49 391.258 1244.79 390.007C1256.38 387.275 1267.78 383.707 1279.39 381.013C1302.71 375.601 1326.16 370.736 1349.95 368.645C1361.45 367.637 1374.17 365.918 1385.61 367.171C1390.65 367.724 1394.75 370.234 1397.39 374.466C1400.13 378.867 1396.75 379.01 1394.51 382.712Z" fill="black"></path> <path fill-rule="evenodd" clip-rule="evenodd" d="M1071.81 726.381C1076.47 728.849 1080.49 732.236 1080.56 738.02C1080.67 748.52 1060.83 740.354 1056.32 737.249C1046.54 730.524 1036.02 724.275 1027.17 716.318C1018.15 708.203 1010.8 697.584 1002.95 688.314C994.724 676.436 987.257 663.993 981.237 650.844C975.895 639.186 970.463 627.107 973.357 614.027C974.561 608.587 978.539 608.77 982.133 612.261C986.071 616.096 988.364 621.296 989.36 626.63C991.703 639.134 999.909 649.356 1006.72 659.967C1020.25 681.069 1034.66 701.375 1055.23 716.21C1060.51 720.013 1066.06 723.339 1071.81 726.381Z" fill="black"></path> <path d="M1280.95 459.242L1337.55 464.473L1359.75 515.892L1349.92 529.089L1327.82 477.652L1287.37 473.889L1262.81 506.944L1284.99 558.321L1268.83 556.854L1246.62 505.393L1280.95 459.242Z" fill="black"></path> <path d="M1310.96 546.643L1319.05 547.397L1323.99 540.8L1301.79 489.38L1317.96 490.869L1340.12 542.276L1325.39 562.082L1301.14 559.84L1278.96 508.442L1288.78 495.244L1310.96 546.643Z" fill="black"></path> <path fill-rule="evenodd" clip-rule="evenodd" d="M617.778 509.288C625.729 527.637 638.511 542.262 651.565 557.155C658.471 565.037 665.522 572.194 673.897 578.536C681.693 584.437 689.583 590.199 697.454 595.995C689.556 606.139 680.682 615.414 671.882 624.792C663.751 633.454 655.648 642.308 650.291 653.007C649.736 647.886 646.41 644.72 641.927 642.631C636.331 640.027 631.187 637.193 626.326 633.352C616.012 625.201 606.414 615.487 597.63 605.738C579.764 585.908 568.379 560.968 555.964 537.645C576.568 528.194 597.175 518.743 617.778 509.288ZM551.743 555.576C554.76 564.052 559.134 572.213 563.134 580.266C567.076 588.202 571.162 596.089 575.768 603.668C584.518 618.073 595.215 631.497 608.857 641.601C615.534 646.546 622.693 651.475 630.122 655.244C633.634 657.021 637.486 658.376 641.482 658.148C643.929 658.008 647.316 655.842 649.214 657.775C651.157 659.753 650.512 663.714 654.594 661.794C657.943 660.214 660.889 656.854 663.353 654.221C669.625 647.519 675.924 640.778 681.945 633.853C687.781 627.14 692.575 619.492 697.502 612.109C700.221 608.034 702.912 603.94 705.609 599.848C707.539 596.92 710.286 593.99 710.142 590.282C709.867 583.047 700.989 578.141 695.945 574.118C689.762 569.185 684.021 564.119 678.755 558.218C673.153 551.937 666.098 546.678 660.037 540.781C653.454 534.383 647.51 527.424 641.612 520.41C636.928 514.841 632.287 509.134 628.32 503.038C625.22 498.272 621.722 494.617 615.523 495.499C610.673 496.622 605.809 497.419 601.134 499.201C596.434 500.991 591.91 503.253 587.341 505.357C579.063 509.165 571.446 513.983 563.404 518.217C561.581 519.177 559.775 520.168 558.121 521.402C557.209 522.08 556.284 523.39 555.313 523.876C554.595 524.235 554.1 524.154 553.277 524.386C550.018 525.3 548.791 527.117 547.16 529.976C544.542 534.573 544.615 537.044 547.012 541.753C549.202 546.058 550.125 551.035 551.743 555.576Z" fill="black"></path> <path fill-rule="evenodd" clip-rule="evenodd" d="M42.9904 840.797C40.4878 841.155 36.7949 844.661 34.6387 846.067C31.696 847.987 28.7331 849.85 25.6922 851.611C20.1747 854.8 20.9322 859.096 22.3148 864.742C24.8629 875.171 31.5527 881.9 41.3738 885.611C44.1582 886.883 48.4947 889.733 51.7603 888.612C54.888 887.544 56.588 883.173 58.3559 880.701C60.6739 877.466 67.5838 874.111 67.9211 869.836C68.2149 866.087 61.941 864.645 59.5147 863.248C54.9871 860.631 51.1024 856.989 48.5773 852.35C47.2803 849.965 46.4116 847.415 45.8004 844.765C45.3301 842.74 45.4762 840.441 42.9904 840.797ZM63.7121 833.073C62.8756 836.355 62.8779 840.127 62.7548 843.491C62.6732 845.722 62.2817 848.516 62.9546 850.651C64.0729 854.194 68.0881 854.762 70.7732 856.674C72.3434 857.793 73.431 859.345 75.5089 859.51C77.9345 859.706 79.2789 857.673 81.4763 857.323C84.6945 856.812 87.2692 860.489 88.7613 862.847C91.3513 866.938 87.9772 869.422 85.738 872.935C83.0393 877.166 80.7686 881.738 77.3207 885.431C74.5132 888.442 70.3781 890.129 72.9012 894.518C73.8448 896.156 74.9835 896.916 73.5668 898.672C72.3881 900.132 69.3888 900.807 67.7286 901.428C57.3856 905.294 46.8386 902.59 37.1281 898.372C26.2495 893.899 17.9218 885.479 11.3376 875.884C9.95315 873.867 8.27721 871.714 7.57648 869.315C6.89332 866.979 7.31307 864.524 6.31547 862.241C4.82918 858.835 -0.489018 857.083 0.0363581 852.95C0.585225 848.597 7.69767 845.172 10.9861 843.165C15.6153 840.335 20.3223 837.648 25.0832 835.065C35.2835 829.525 45.6516 822.881 56.41 818.563C60.0603 817.1 64.9347 818.022 66.7471 821.945C68.5596 825.872 64.6373 829.435 63.7121 833.073Z" fill="black"></path> <path fill-rule="evenodd" clip-rule="evenodd" d="M439.938 582.651C441.02 586.881 442.241 591.08 443.801 595.163C446.818 603.049 450.718 610.626 455.537 617.564C463.485 629.016 473.977 639.894 485.364 647.947C489.118 650.603 498.232 658.026 503.111 655.549C509.784 652.16 500.854 643.512 498.144 640.981C492.553 635.754 486.993 630.487 481.339 625.325C475.668 620.148 471.449 613.514 466.976 607.312C462.471 601.065 458.067 594.74 453.988 588.204C451.875 584.824 450.035 581.278 447.937 577.896C446.123 574.968 443.433 572.961 441.097 570.492C439.151 571.419 439.379 571.256 438.878 573.019C438.662 573.777 438.729 575.317 438.744 576.011C438.782 578.301 439.374 580.446 439.938 582.651Z" fill="black"></path> </svg> 