<?xml version="1.0" encoding="UTF-8"?> <svg xmlns="http://www.w3.org/2000/svg" width="47" height="32" viewBox="0 0 47 32" fill="none"> <path fill-rule="evenodd" clip-rule="evenodd" d="M45.1741 6.2959H1.39551V17.6625H5.40675V12.2354C5.40675 10.8868 6.49999 9.79354 7.84858 9.79354C9.19717 9.79354 10.2904 10.8868 10.2904 12.2354V17.6625H13.081V12.2354C13.081 10.8868 14.1742 9.79354 15.5228 9.79354C16.8714 9.79354 17.9647 10.8868 17.9647 12.2354V17.6625H20.7557V12.2354C20.7557 10.8868 21.8489 9.79354 23.1975 9.79354C24.5461 9.79354 25.6393 10.8868 25.6393 12.2354V17.6625H28.4299V12.2354C28.4299 10.8868 29.5232 9.79354 30.8718 9.79354C32.2203 9.79354 33.3136 10.8868 33.3136 12.2354V17.6625H36.1042V12.2354C36.1042 10.8868 37.1974 9.79354 38.546 9.79354C39.8946 9.79354 40.9879 10.8868 40.9879 12.2354V17.6625H45.1741V6.2959Z" fill="white"></path> <path fill-rule="evenodd" clip-rule="evenodd" d="M45.1741 20.6348H1.39551V32.0014H5.40675V26.5742C5.40675 25.2256 6.49999 24.1324 7.84858 24.1324C9.19717 24.1324 10.2904 25.2256 10.2904 26.5742V32.0014H13.081V26.5742C13.081 25.2256 14.1742 24.1324 15.5228 24.1324C16.8714 24.1324 17.9647 25.2256 17.9647 26.5742V32.0014H20.7557V26.5742C20.7557 25.2256 21.8489 24.1324 23.1975 24.1324C24.5461 24.1324 25.6393 25.2256 25.6393 26.5742V32.0014H28.4299V26.5742C28.4299 25.2256 29.5232 24.1324 30.8718 24.1324C32.2203 24.1324 33.3136 25.2256 33.3136 26.5742V32.0014H36.1042V26.5742C36.1042 25.2256 37.1974 24.1324 38.546 24.1324C39.8946 24.1324 40.9879 25.2256 40.9879 26.5742V32.0014H45.1741V20.6348Z" fill="white"></path> <path d="M0.87207 18.3613H45.6971L45.1739 19.9352H1.39532L0.87207 18.3613Z" fill="white"></path> <path d="M0.87207 2.27344H45.6971L45.1739 5.59599H1.39532L0.87207 2.27344Z" fill="white"></path> <path d="M0 0H46.7437L45.8716 1.57384H0.872083L0 0Z" fill="white"></path> </svg> 