<?xml version="1.0" encoding="UTF-8"?> <svg xmlns="http://www.w3.org/2000/svg" width="335" height="477" viewBox="0 0 335 477" fill="none"> <path fill-rule="evenodd" clip-rule="evenodd" d="M62.0585 347.168C62.1391 341.201 62.3108 335.235 62.5362 329.272C72.7152 328.356 82.8949 327.439 93.0739 326.522C95.6734 326.288 98.2722 326.054 100.871 325.82C103.693 325.566 106.514 325.312 109.335 325.058C109.628 325.032 110.024 325.025 110.465 325.018C111.87 324.994 113.728 324.964 114.146 324.258C114.757 323.227 114.444 320.511 114.208 318.451C114.113 317.63 114.032 316.914 114.024 316.451C113.984 313.883 113.943 311.315 113.902 308.748C113.862 306.18 113.822 303.612 113.781 301.045L113.781 301.004C113.484 282.124 113.188 263.243 112.891 244.362C115.329 244.442 117.766 244.514 120.203 244.583C121.783 244.627 123.364 244.675 124.946 244.723C133.981 244.994 143.042 245.266 152.068 244.989C157.386 244.826 162.426 243.392 167.447 241.699C170.117 240.8 172.76 239.82 175.382 238.79C175.623 238.696 175.999 238.499 176.435 238.271C177.492 237.717 178.895 236.982 179.526 237.104C180.597 237.311 182.182 239.605 183.346 241.289C183.774 241.908 184.144 242.445 184.412 242.764C187.571 246.548 190.73 250.332 193.889 254.115L194.027 254.279C194.427 254.759 194.883 255.246 195.348 255.744C196.373 256.839 197.444 257.984 198.072 259.206C198.55 260.136 198.815 261.303 199.066 262.417C199.186 262.942 199.302 263.456 199.436 263.926C204.648 282.135 209.745 300.462 213.541 319.027C214.358 323.022 215.133 327.046 215.588 331.102C215.622 331.411 215.665 331.743 215.71 332.09C215.958 333.991 216.266 336.352 215.527 337.991C214.603 340.041 211.754 340.965 209.705 341.631C209.571 341.675 209.441 341.717 209.314 341.758C205.309 343.076 201.115 343.861 196.966 344.565C186.969 346.261 176.846 347.246 166.742 348.043C165.592 348.134 164.429 348.19 163.264 348.246C161.303 348.341 159.335 348.437 157.411 348.697C156.597 348.807 156.371 348.735 156.251 348.817C156.156 348.883 156.128 349.048 155.923 349.485C155.478 350.433 155.546 352.094 155.604 353.521C155.63 354.153 155.654 354.74 155.63 355.198C155.54 356.951 155.451 358.705 155.361 360.459C155.271 362.212 155.181 363.966 155.092 365.72C154.601 375.286 154.111 384.853 153.621 394.419C153.455 397.652 153.29 400.885 153.124 404.118C152.793 410.584 152.461 417.051 152.13 423.516C152.038 425.306 151.947 427.095 151.855 428.884C151.758 430.77 151.662 432.655 151.566 434.542C151.533 435.178 151.543 435.875 151.552 436.591C151.572 438.084 151.594 439.659 151.237 440.944C151.042 441.648 151.1 441.906 151.002 441.996C150.9 442.089 150.631 442 149.73 442.043C146.999 442.175 144.202 441.998 141.428 441.823C140.05 441.735 138.678 441.649 137.322 441.6C135.085 441.52 132.849 441.44 130.613 441.36C128.213 441.275 125.813 441.189 123.413 441.103C123.089 441.091 122.755 441.105 122.429 441.119C121.421 441.16 120.479 441.199 120.076 440.482C119.617 439.666 119.728 437.843 119.818 436.387C119.855 435.781 119.888 435.239 119.875 434.859L119.489 424.073L118.429 394.464C118.197 387.974 117.964 381.484 117.732 374.995C117.483 368.023 117.233 361.052 116.984 354.08C111.831 355.117 106.679 356.153 101.526 357.19L101.516 357.192C93.8976 358.724 86.2787 360.257 78.6599 361.788C77.7176 361.978 76.7275 362.233 75.7137 362.495C72.9668 363.202 70.043 363.956 67.4082 363.578C63.8245 363.064 62.3429 361.534 62.1417 358.134C61.9484 354.871 61.9956 351.584 62.0428 348.313C62.048 347.931 62.0533 347.55 62.0585 347.168ZM166.022 289.385L164.743 286.922L164.187 289.64L158.77 316.121L158.512 317.383L159.798 317.298L178.334 316.071L179.835 315.971L179.141 314.638L166.022 289.385ZM160.954 315.253L165.557 292.753L176.704 314.209L160.954 315.253Z" fill="url(#paint0_linear_2212_5834)"></path> <path d="M179.5 237.399L154.5 157.899L271 153.399L321 82.8989C322.5 74.7323 324.6 56.5989 321 49.3989C316.5 40.3989 316 25.3989 303 23.8989C292.6 22.6989 267.667 15.3989 256.5 11.8989H247L239.5 8.39893L205.5 34.3989L251 98.8989L287 75.8989L291 86.8989L271 135.899L148 142.899L143 141.899L142.5 135.399L157 123.899V114.399L128 80.3989L100.5 95.8989L98.5 117.399V136.399L114.5 132.899L121 140.899L122.5 147.899L114.5 149.399L83 181.399L64.5 190.899L68.5 170.899L70 157.899L85 149.399L95.5 140.899L86.5 136.399H79.5L66.5 97.8989L61 91.3989L59 97.8989L66.5 126.399L51.5 100.399L46 96.8989L44.5 104.399L49.5 126.399L34 104.399L26 100.399L31 122.399L38 159.399L39 164.899L35 174.399L26.5 246.399L44.5 245.399L99.5 196.899L113.5 278.399L116.5 321.899L113.5 323.399L63 328.899L54 331.399L35.5 339.899L33.5 352.899L42.5 387.899L55 391.399H59.5L58.5 358.399L65.5 363.899L116.5 352.899L119.5 439.399V461.399L146 469.899L178 472.899L182 465.899L151 447.899L155.5 347.899L201 343.899L216 337.399V324.899L203.5 270.899L192 242.399L179.5 240.899L177.5 239.899L165.5 244.399L137.5 245.399L126 249.399L127 244.399L165.5 240.899L179.5 237.399Z" fill="white"></path> <path fill-rule="evenodd" clip-rule="evenodd" d="M184.465 13.5939C185.919 14.8421 192.185 19.2391 194.208 18.17C196.706 16.8501 192.752 12.8743 191.688 11.8941C190.333 10.6471 185.493 6.87455 183.64 7.22475C179.936 7.92515 183.157 12.4704 184.465 13.5939Z" fill="black"></path> <path fill-rule="evenodd" clip-rule="evenodd" d="M187.56 58.7237C188.381 57.1079 190.566 56.5139 191.576 54.9505C192.791 53.0708 193.35 51.4259 192.902 49.1208C189.791 50.1675 186.252 53.3354 184.171 55.8125C182.431 57.8827 179.96 62.2087 184.5 62.2198C184.46 61.6042 184.42 60.9872 184.38 60.3722C185.742 60.57 186.942 59.9412 187.56 58.7237Z" fill="black"></path> <path fill-rule="evenodd" clip-rule="evenodd" d="M172.742 31.8446C174.747 32.4207 176.402 32.3391 178.451 32.3842C179.938 32.4173 181.97 33.2342 183.175 32.3135C182.106 31.6945 183.457 31.6603 183.192 31.0568C182.97 30.5537 182.548 30.7185 182.204 30.3112C180.98 28.86 179.916 28.8777 177.975 28.5759C176.471 28.3409 174.259 27.799 172.814 28.5463C171.294 29.3329 170.705 31.2593 172.742 31.8446Z" fill="black"></path> <path fill-rule="evenodd" clip-rule="evenodd" d="M201.289 76.3552C202.586 75.268 204 72.1203 204.262 70.4961C204.365 69.8595 203.906 69.3722 203.96 68.9039C204.065 68.0112 205.901 66.2861 203.978 65.5538C202.297 64.9126 200.716 69.8929 200.289 70.9794C199.851 72.0909 198.657 74.2561 199.023 75.3309C199.327 76.2229 200.413 77.0888 201.289 76.3552Z" fill="black"></path> <path fill-rule="evenodd" clip-rule="evenodd" d="M216.805 8.94819C217.978 7.8596 218.721 6.62496 218.599 5.12794C218.503 3.94871 217.62 -0.116947 216.625 0.00258125C213.323 0.400921 214.808 10.802 216.805 8.94819Z" fill="black"></path> <path fill-rule="evenodd" clip-rule="evenodd" d="M147.1 190.717C146.828 189.722 145.84 183.645 144.132 184.059C142.835 184.373 144.183 189.722 144.243 190.426C144.369 191.898 141.538 191.85 140.222 191.651C138.135 191.336 138.303 190.114 137.99 188.217C137.873 187.501 137.422 184.262 135.926 185.448C134.916 186.25 135.638 190.243 135.722 191.154C136.013 194.31 136.356 199.699 138.233 202.565C138.982 203.708 139.655 204.272 140.441 202.806C141.237 201.323 139.436 196.802 139.121 195.285C140.606 195.43 144.882 194.948 145.778 196.491C146.595 197.898 145.287 201.92 147.909 202.246C149.464 202.44 149.182 200.64 149.033 199.255C148.719 196.35 147.866 193.523 147.1 190.717Z" fill="black"></path> <path fill-rule="evenodd" clip-rule="evenodd" d="M151.081 189.315C149.359 190.092 151.521 201.428 154.041 201.062C156.981 200.635 152.722 188.574 151.081 189.315Z" fill="black"></path> <path fill-rule="evenodd" clip-rule="evenodd" d="M149.164 185.557C148.952 188.109 152.27 189.06 152.427 186.287C152.548 184.147 149.388 182.874 149.164 185.557Z" fill="black"></path> <path fill-rule="evenodd" clip-rule="evenodd" d="M130.947 117.889C132.462 123.532 146.251 125.932 144.394 118.322C143.463 114.511 139.577 117.897 136.865 117.453C135.109 117.166 129.88 113.909 130.947 117.889Z" fill="black"></path> <path fill-rule="evenodd" clip-rule="evenodd" d="M127.485 107.823C128.133 104.804 121.525 101.471 119.127 102.302C115.619 103.519 115.634 111.297 118.31 113.364C118.662 113.636 119.741 114.285 120.27 113.768C121.104 112.95 120.193 113.173 119.998 112.356C119.689 111.057 118.678 109.39 119.685 107.912C121.588 105.12 126.556 112.15 127.485 107.823Z" fill="black"></path> <path fill-rule="evenodd" clip-rule="evenodd" d="M107.334 122.482C104.952 122.348 102.998 126.044 106.504 125.735C107.175 125.675 108.618 125.506 109.007 124.801C109.652 123.634 108.382 122.541 107.334 122.482Z" fill="black"></path> <path fill-rule="evenodd" clip-rule="evenodd" d="M222.926 34.3622C222.11 33.1832 220.4 31.2856 218.929 32.4683C217.625 33.517 217.853 36.1055 218.353 37.3918C219.699 40.8546 222.879 43.9395 226.477 41.9444C225.226 39.4416 224.523 36.6704 222.926 34.3622Z" fill="black"></path> <path fill-rule="evenodd" clip-rule="evenodd" d="M319.975 75.0768C319.597 78.0221 319.867 81.2333 316.54 82.01C313.461 82.7292 310.083 82.5275 306.945 82.7789C303.417 83.0625 299.9 83.449 296.38 83.798C291.943 84.2375 292.576 82.5327 291.605 78.7445C290.719 75.285 289.304 71.8328 288.127 68.4592C287.58 66.8912 286.927 65.4484 286.181 63.9708C285.505 62.6327 285.826 60.8133 285.098 59.6888C282.614 55.8521 270.496 66.343 269.371 64.2754C271.421 62.6799 274.97 60.8945 275.598 58.1647C276.338 54.9561 274.298 53.9979 271.735 55.1709C265.428 58.0592 258.148 60.3162 251.27 61.3687C253.495 59.8826 273.616 48.1675 266.863 44.6925C265.341 43.9094 263.309 45.3836 261.936 45.9412C259.757 46.8268 257.482 47.4203 255.208 48.0005C252.812 48.6118 250.41 49.1998 248 49.7557C246.31 50.1457 243.298 51.5309 241.651 51.189C239.98 50.8417 242.941 49.8044 243.426 49.5601C245.54 48.4954 247.621 47.3514 249.684 46.1929C253.346 44.1373 256.728 41.7563 259.513 38.5781C261.615 36.18 265.085 30.9432 263.622 27.6272C262.774 25.7051 260.916 23.9286 259.825 22.1077C258.55 19.9807 257.521 17.7137 256.415 15.4977C258.267 16.312 260.346 16.5204 262.237 17.2511C264.128 17.9824 266.049 18.5741 268.016 19.1177C271.964 20.208 275.898 20.4018 279.81 21.2861C284.237 22.2868 288.851 23.4057 293.349 23.9841C297.266 24.4869 300.787 25.5582 304.143 27.6925C310.996 32.0523 315.75 38.3155 318.154 46.0607C319.563 50.5979 319.905 55.3321 320.071 60.0529C320.246 65.0299 320.614 70.1214 319.975 75.0768ZM281.516 75.4429C276.731 78.9298 271.152 81.6544 266.017 84.6207C263.078 86.317 260.077 87.9033 257.08 89.4935C254.953 90.6219 252.368 92.6994 250.027 93.2784C248.545 93.6445 248.656 93.6727 247.718 92.3229C246.823 91.0339 246.04 89.6461 245.202 88.3185C243.656 85.871 242.096 83.4326 240.535 80.9942C237.036 75.5287 233.544 70.0638 229.868 64.7142C226.18 59.3462 222.643 53.8794 219.071 48.4356C217.41 45.9047 215.759 43.3639 213.998 40.9025C212.652 39.023 209.203 36.1562 210.841 33.9433C212.362 31.8878 215.829 30.1801 217.879 28.6243C220.384 26.7247 222.905 24.8446 225.403 22.9352C230.774 18.8307 236.005 14.5477 241.371 10.4377C245.926 18.4218 251.284 25.9068 256.688 33.3297C251.801 36.4469 246.864 39.41 241.713 42.0786C237.91 44.0496 232.091 46.7128 229.689 50.4516C227.322 54.1335 229.646 58.3808 233.865 58.4483C236.388 58.4889 238.903 57.8208 241.377 57.4397C243.162 57.1639 246.422 55.8776 248.032 56.7841C245.139 58.6297 234.64 64.0075 240.299 68.7231C244.344 72.0935 251.183 67.1748 255.553 68.1874C254.221 70.7423 252.836 74.8174 256.533 76.2065C259.61 77.3632 263.636 75.2078 266.406 74.0649C268.406 73.239 270.394 72.3849 272.361 71.4837C273.925 70.7665 275.799 69.3132 277.47 69.0041C279.421 68.6426 283.392 74.0753 281.516 75.4429ZM192.556 263.74C195.293 263.241 196.699 262.109 197.562 265.432C198.334 268.408 199.1 271.275 200.095 274.196C195.818 274.565 192.046 276.606 188.927 279.477C186.706 281.523 182.289 286.406 183.384 289.832C186.044 298.157 199.48 279.481 201.077 277.485C203.032 280.34 203.751 284.078 204.722 287.344C205.414 289.668 207.98 294.123 204.588 294.687C199.825 295.481 190.89 297.253 191.455 303.995C192.122 311.952 202.25 311.907 207.932 312.265C211.135 312.466 211.15 315.031 211.606 317.903C211.81 319.186 212.448 320.922 211.357 321.862C210.388 322.696 207.422 322.72 206.162 322.99C202.487 323.778 198.814 324.582 195.14 325.37C190.968 326.264 188.763 325.011 184.863 323.869C183.42 323.447 181.97 323.625 181.863 322.01C181.798 321.018 182.769 319.485 183.087 318.504C184.345 314.625 185.417 310.631 185.778 306.558C186.305 300.638 185.647 291.763 178.355 290.608C174.885 290.058 174.218 289.879 172.652 286.625C170.958 283.106 168.268 279.847 168.919 275.793C169.389 272.855 168.595 267.297 170.472 264.86C171.338 263.734 173.029 263.062 174.183 262.235C175.653 261.181 177.069 260.052 178.44 258.872C179.592 257.88 180.997 255.94 182.304 255.223C183.901 254.347 183.949 254.944 185.096 256.313C186.788 258.334 189.479 264.301 192.556 263.74ZM200.294 276.891C199.345 278.805 197.152 280.585 195.756 282.182C194.351 283.79 193.021 285.488 191.454 286.945C189.729 288.548 183.604 292.421 184.953 287.208C186.003 283.154 189.933 279.87 193.392 277.847C194.062 277.454 201.9 273.652 200.294 276.891ZM206.996 296.193C207.603 298.907 207.93 301.704 208.449 304.437C208.714 305.835 210.184 309.21 209.585 310.554C208.57 312.832 199.43 310.136 197.536 309.352C193.025 307.486 190.955 302.695 195.114 299.284C196.692 297.992 206.388 293.48 206.996 296.193ZM212.988 328.785C213.497 331.376 214.986 333.778 212.524 335.736C210.48 337.362 207.131 338.472 204.612 339.051C201.178 339.839 200.075 337.917 198.258 335.444C196.304 332.784 194.223 330.215 192.065 327.718C198.843 326.201 205.62 324.685 212.399 323.168C212.394 325.056 212.623 326.936 212.988 328.785ZM196.747 340.809C193.213 340.626 189.41 341.689 185.825 341.969C181.348 342.318 176.885 342.827 172.404 343.127C173.552 339.466 175.613 336.201 177.227 332.743C178.845 329.273 179.981 328.898 183.703 328.631C187.152 328.382 189.585 327.196 192.13 330.121C194.779 333.162 197.177 336.468 199.595 339.692C198.773 340.242 197.79 340.863 196.747 340.809ZM171.482 341.555C170.61 342.191 167.921 340.386 167.014 340.036C165.252 339.355 164.86 339.135 163.94 337.417C163.15 335.939 161.892 334.26 161.645 332.573C161.318 330.349 162.302 327.422 162.661 325.212C163.615 327.513 166.748 327.78 168.865 328.156C170.466 328.441 175.208 327.987 176.415 329.126C177.749 330.385 175.294 333.896 174.654 335.219C173.891 336.797 172.948 340.489 171.482 341.555ZM169.773 343.38C168.724 343.55 165.703 344.593 165.763 342.677C165.832 340.489 169.987 342.85 169.773 343.38ZM164.451 343.266C164.259 345.108 160.292 344.955 160.201 343.334C160.046 340.595 164.756 340.322 164.451 343.266ZM159.914 293.568C158.9 296.456 152.721 297.489 150.349 298.377C148.182 299.189 141.709 302.937 139.474 301.578C147.038 296.382 154.788 291.291 161.196 284.657C161.458 286.296 161.059 287.665 160.575 289.216C160.139 290.616 160.363 292.289 159.914 293.568ZM158.033 304.098C156.945 311.171 155.877 318.337 154.404 325.34C151.598 324.482 149.283 322.745 146.335 322.14C143.644 321.588 140.865 321.574 138.152 321.978C132.371 322.837 127.217 325.695 122.173 328.481C121.707 323.63 120.743 318.439 120.857 313.571C120.951 309.528 127.874 308.331 131.014 306.66C132.914 305.65 134.631 304.229 136.796 303.876C139.023 303.513 141.172 303.525 143.372 302.846C148.574 301.242 153.468 298.699 158.565 296.803C158.981 299.231 158.402 301.705 158.033 304.098ZM153.173 334.032C152.942 335.64 153.233 338.509 152.007 339.735C150.853 340.889 148.387 340.927 146.865 341.24C142.228 342.193 137.595 343.156 132.965 344.14C130.893 344.58 128.821 345 126.741 345.393C125.748 345.581 123.26 346.532 122.424 345.742C121.631 344.993 122.222 342.599 122.264 341.595C122.35 339.589 122.464 337.576 122.337 335.569C122.096 331.719 122.31 330.245 125.895 328.253C129.704 326.137 133.637 324.689 137.923 323.904C142.263 323.11 146.398 323.544 150.53 325.21C151.679 325.673 153.403 326.244 153.938 327.483C154.666 329.168 153.418 332.324 153.173 334.032ZM147.952 396.086C146.253 397.151 142.554 396.969 140.601 397.186C137.448 397.534 134.276 397.335 131.143 396.849C128.786 396.483 125.267 395.976 123.46 394.322C120.892 391.971 123.855 391.863 125.82 392.029C131.533 392.509 137.317 392.174 143.023 391.761C144.135 391.681 147.121 390.706 148.192 391.162C149.562 391.745 149.142 395.34 147.952 396.086ZM144.713 434.075C134.07 433.042 127.9 424.233 124.041 415.228C121.969 410.393 122.716 405.32 122.511 400.208C122.475 399.274 121.888 396.957 122.848 396.259C123.751 395.604 127.402 397.63 128.389 397.872C133.451 399.112 139.05 399.231 144.123 398.026C146.321 397.504 147.551 396.534 148.25 398.711C148.812 400.465 147.889 403.695 147.789 405.533C147.615 408.711 148.113 434.405 144.713 434.075ZM123.452 434.085C123.412 432.542 122.633 416.95 123.389 416.903C125.634 421.744 127.94 426.074 132.028 429.636C134.116 431.456 136.464 433.096 139.075 434.073C140.056 434.44 145.616 434.719 145.888 435.935C146.365 438.065 142.57 437.205 141.444 437.032C140.541 436.893 139.728 436.508 138.842 436.347C137.153 436.041 135.559 436.453 133.863 436.487C131.287 436.539 128.757 436.269 126.18 436.492C123.825 436.695 123.515 436.425 123.452 434.085ZM125.024 364.148C134.135 361.204 141.749 366.779 146.557 374.075C149.299 378.236 149.912 381.145 149.433 386.072C149.261 387.835 149.578 389.029 147.956 389.748C146.35 390.46 142.702 389.932 140.965 390.013C135.968 390.246 130.991 390.557 125.994 390.26C122.749 390.068 122.291 389.519 122.346 386.37C122.414 382.579 122.098 378.806 121.884 375.009C121.651 370.901 120.24 365.693 125.024 364.148ZM122.042 358.688C122.047 355.903 121.88 353.045 122.051 350.264C122.22 347.508 123.394 347.644 125.998 347.174C131.637 346.154 137.269 345.014 142.832 343.633C145.032 343.087 147.519 342.038 149.811 342.03C152.216 342.021 152.088 343.257 151.928 345.386C151.571 350.101 150.707 354.746 150.444 359.436C150.161 364.498 150.012 369.626 150.035 374.693C150.043 376.404 150.459 377.671 149 376.07C147.539 374.466 146.824 371.911 145.519 370.109C142.848 366.419 138.877 363.45 134.471 362.2C132.034 361.509 129.472 361.389 126.988 361.89C126.234 362.041 122.459 363.842 121.979 363.486C121.654 363.245 122.042 358.801 122.042 358.688ZM155.373 455.218C158.987 457.804 162.989 459.894 167.04 461.708C169.32 462.729 178.343 464.877 178.63 467.174C178.784 468.4 177.289 469.774 176.309 469.919C175.067 470.103 173.02 469.292 171.755 469.138C167.153 468.58 162.56 468.576 158.07 467.296C149.105 464.739 139.811 464.018 130.753 461.789C128.598 461.259 126.438 460.762 124.271 460.281C122.214 459.825 121.292 459.903 121.219 457.705C121.059 452.881 122.443 447.94 122.454 443.057C129.782 443.892 137.135 443.882 144.483 444.57C147.631 444.864 147.558 445.46 148.938 448.21C150.37 451.063 152.807 453.381 155.373 455.218ZM119.645 298.506C119.552 296.72 119.479 294.93 119.318 293.149C119.209 291.952 118.116 288.609 118.732 287.677C119.465 286.571 120.203 287.246 121.513 287.214C123.241 287.174 124.688 286.48 126.112 285.571C128.81 283.851 130.816 281.587 132.567 278.945C134.107 276.619 133.82 273.442 133.802 270.658C133.753 263.457 134.277 256.434 133.838 249.202C133.636 245.88 136.473 247.918 138.764 248.348C142.512 249.051 146.585 248.564 150.393 248.573C150.252 249.459 142.464 251.657 141.206 252.494C137.984 254.635 136.106 258.06 136.4 261.965C136.991 269.822 145.648 271.135 151.974 271.15C146.726 275.789 141.571 280.211 137.446 285.933C134.405 290.152 129.048 298.47 134.021 303.138C129.626 305.633 125.269 308.408 120.299 309.609C120.076 305.909 119.837 302.208 119.645 298.506ZM117.649 155.086C119.439 156.235 120.191 154.61 121.553 153.769C123.471 152.584 124.106 152.701 124.349 150.054C124.799 145.145 122.733 140.701 120.139 136.684C118.96 134.858 117.784 132.684 116.119 131.257C114.602 129.956 113.068 130.403 111.663 129.058C111.111 128.53 111.229 127.783 110.317 127.804C109.716 127.818 108.256 129.678 107.76 130.089C106.192 131.386 104.275 132.373 102.222 131.303C99.2308 129.747 100.191 124.098 102.514 122.268C104.303 120.858 106.417 121.076 108.453 120.848C109.979 120.679 110.297 120.745 109.669 118.998C109.229 117.775 108.214 116.821 107.713 115.625C106.749 113.328 106.959 110.536 106.543 108.105C106.17 105.927 105.295 103.571 105.327 101.359C105.369 98.5416 106.289 97.81 108.731 97.0201C111.097 96.2552 113.056 94.5687 115.071 93.152C117.351 91.548 119.849 90.489 122.193 89.0245C123.784 88.0297 124.811 86.019 126.56 86.9582C128.64 88.0742 130.838 91.3051 132.606 92.9555C130.019 94.5968 129.417 95.3147 129.774 98.5278C130.101 101.473 130.701 104.098 132.954 106.15C133.819 106.939 135.433 107.57 136.104 108.479C136.887 109.538 136.378 108.605 136.279 109.8C136.227 110.445 135.716 110.867 135.827 111.612C136.324 114.922 140.128 112.969 141.696 111.819C147.298 107.71 136.838 104.447 134.354 102.951C132.639 101.916 131.79 98.6156 134.508 99.4926C136.317 100.075 140.401 105.02 140.816 100.513C145.299 103.116 148.066 108.647 151.826 112.144C154.537 114.666 158.179 117.463 156.027 121.49C153.284 126.624 147.847 128.955 142.883 131.17C138.068 133.318 139.068 139.398 141.641 143.119C143.129 145.27 145.078 146.531 147.424 147.576C149.82 148.644 150.318 149.899 150.841 152.377C151.422 155.126 150.805 156.233 148.424 157.653C146.099 159.04 143.668 160.384 141.186 161.469C135.819 163.816 130.251 163.965 124.542 164.765C122.542 165.045 120.623 165.629 119.531 163.647C118.304 161.415 118.213 157.573 117.649 155.086ZM116.786 144.409C115.443 143.701 112.2 146.051 110.502 146.155C107.754 146.321 105.951 146.258 103.512 147.715C98.9012 150.468 95.0758 154.013 91.3787 157.858C87.2151 162.187 83.0751 166.54 78.9252 170.883C77.0439 172.85 75.1535 174.807 73.2434 176.744C71.7375 178.272 70.2651 180.419 68.4016 181.509C68.4985 180.215 69.2927 179.299 69.5745 178.099C69.7383 177.397 69.452 176.802 69.5581 176.13C69.5928 175.912 70.1786 175.154 70.2678 174.905C70.5056 174.249 70.7966 173.601 71.079 172.919C71.3424 172.283 71.3038 171.623 71.5711 170.959C71.8457 170.274 72.5986 169.821 72.8594 169.146C73.6247 167.172 72.3581 166.256 70.3326 166.302C71.1249 162.352 71.4715 160.419 75.6043 159.026C79.553 157.695 83.4106 156.201 87.0375 154.12C90.2582 152.274 92.9448 149.612 96.041 147.555C98.8128 145.712 102.263 143.781 102.235 140.002C103.806 141.067 105.279 141.964 107.076 140.903C108.594 140.008 108.795 139.287 110.549 139.118C111.981 138.981 112.868 138.944 114.146 139.573C115.65 140.314 115.855 140.828 116.731 138.649C117.727 139.486 120.242 142.974 120.158 144.355C120.112 145.115 119.997 145.458 119.054 145.659C117.717 145.943 117.769 144.926 116.786 144.409ZM110.522 350.819C109.868 351.82 107.112 351.636 106.048 351.623C102.803 351.58 101.669 348.859 100.246 346.229C98.0016 342.083 94.6479 333.471 98.3292 329.119C101.235 325.685 106.895 330.012 108.878 332.606C110.589 334.847 110.081 338.207 110.24 340.897C110.374 343.163 111.813 348.843 110.522 350.819ZM101.659 352.321C100.361 353.617 96.1517 353.342 94.4329 353.621C91.3656 354.117 88.3153 354.714 85.339 355.62C83.1236 356.294 80.9337 358.107 80.3498 355.021C79.859 352.426 80.1034 349.313 80.15 346.693C80.2004 343.867 80.4966 341.077 80.7423 338.264C80.9088 336.362 80.492 332.862 82.0463 331.401C83.385 330.143 86.6411 330.022 88.3795 329.605C91.2346 328.92 94.2173 328.022 97.1844 328.328C95.4532 333.025 95.3064 337.951 97.1628 342.631C97.6923 343.967 102.459 351.52 101.659 352.321ZM79.842 333.61C79.1186 340.674 78.3912 347.784 79.0878 354.885C79.1297 355.308 79.6362 357.248 79.416 357.551C79.1887 357.866 77.3867 358.029 76.9778 358.125C75.3534 358.51 73.7309 358.918 72.096 359.261C68.914 359.925 68.4985 357.916 67.8741 354.968C66.5366 348.652 69.1296 341.805 70.7009 335.739C71.4663 332.786 72.0331 332.445 74.9392 332.2C76.9614 332.03 80.1493 330.607 79.842 333.61ZM67.5543 359.968C66.3381 361.074 65.1226 355.858 65.0151 355.326C64.5905 353.215 64.827 351.074 64.8329 348.93C64.8434 345.581 64.5872 342.248 64.582 338.915C64.5793 337.112 63.2275 333.426 65.3624 332.472C65.9888 332.192 68.4769 332.309 69.0411 332.677C70.214 333.443 69.7521 333.938 69.4041 335.27C68.6263 338.259 67.9533 341.262 67.2758 344.275C66.6114 347.23 65.9554 350.073 66.2719 353.124C66.3761 354.134 68.3288 359.263 67.5543 359.968ZM106.336 327.049C109.3 326.214 109.459 328.484 109.454 330.656C109.002 330.311 104.79 327.484 106.336 327.049ZM66.6834 167.57C65.9567 168.766 61.3561 169.093 60.0416 169.408C57.4552 170.027 54.8675 170.642 52.2877 171.287C47.4551 172.495 42.741 173.857 37.7865 174.489C40.5072 170.136 41.3538 166.377 40.8473 160.943C40.2091 154.083 39.3972 147.293 37.8173 140.579C36.2597 133.957 34.4564 127.38 32.7193 120.803C31.8661 117.572 30.9435 114.402 29.8086 111.258C28.899 108.738 27.4778 105.566 29.0222 102.983C32.9408 105.84 36.0841 108.919 38.3193 113.26C40.7136 117.914 42.8046 122.691 45.5836 127.143C46.8542 129.179 48.3384 131.035 49.6974 133.005C50.506 134.177 51.0951 135.869 52.1252 136.858C53.3126 137.998 54.5786 138.535 55.2574 136.612C55.9854 134.547 53.6625 130.463 52.9771 128.524C51.3212 123.845 49.6797 119.174 48.4026 114.374C47.3699 110.494 45.6623 105.802 46.2664 101.708C46.8647 97.6548 49.6162 100.556 51.0086 102.44C53.8787 106.326 55.5975 110.854 57.4834 115.258C59.2166 119.305 61.2381 123.163 63.1561 127.116C63.8231 128.491 64.7025 132.044 66.4501 132.453C68.9906 133.048 68.7757 129.472 68.5326 128.021C66.9226 118.402 62.7197 109.192 61.8475 99.4068C61.8056 98.9391 61.1981 95.3035 61.687 94.9996C62.6338 94.4108 63.9116 98.0995 64.3198 99.0033C66.4456 103.704 67.9252 108.659 69.2835 113.624C70.4388 117.847 71.4833 122.102 72.7794 126.285C73.4917 128.584 74.3082 130.845 75.1135 133.113C75.8415 135.168 76.5807 138.678 78.4797 140.032C81.1741 141.952 90.8152 137.387 91.7922 141.468C92.4874 144.37 83.5475 146.706 81.6433 147.587C79.1369 148.747 76.6783 150.017 74.1706 151.178C72.2723 152.057 69.5437 152.417 68.1702 154.069C66.7155 155.82 66.4823 158.279 66.439 160.451C66.4056 162.094 67.5451 166.151 66.6834 167.57ZM60.59 199.252C60.4629 200.164 59.7375 201.372 59.4112 202.239C58.7474 204.007 58.1826 206.119 57.2586 207.771C56.4644 209.194 55.2915 210.466 54.5235 211.909C53.7955 213.279 53.6985 214.859 52.848 216.23C51.8742 217.798 50.2655 218.926 49.299 220.483C48.8226 221.252 48.3305 222.13 47.6575 222.948C45.2737 225.847 42.9068 228.582 40.9895 231.688C40.4993 232.483 38.1043 235.954 37.1516 236.142C35.1589 236.533 37.4779 233.702 37.8678 233.116C40.6907 228.882 43.1978 224.424 45.9224 220.123C48.5618 215.96 51.2629 211.829 53.8027 207.602C55.8747 204.157 57.3071 199.21 60.6739 196.782C60.6864 197.608 60.6595 198.431 60.59 199.252ZM152.64 160.336C154.279 167.074 156.24 173.603 158.089 180.281C159.804 186.477 162.087 193.108 162.798 199.495C163.502 205.823 165.121 212.225 167.297 218.231C168.303 221.01 169.339 223.799 170.431 226.546C171.03 228.055 171.701 229.53 172.383 231.003C172.912 232.148 174.309 234.002 174.363 235.215C174.405 236.187 174.743 235.799 173.783 236.529C172.79 237.285 171.069 237.011 169.913 237.144C166.895 237.493 163.952 238.627 161.011 239.362C155.337 240.779 148.575 241.904 142.761 240.918C140.316 240.503 137.776 240.143 135.358 239.603C132.382 238.938 131.771 237.707 131.16 234.784C129.825 228.394 128.675 222.021 127.572 215.589C126.261 207.937 124.842 200.294 123.83 192.595C122.808 184.807 122.074 177.01 120.472 169.306C126.933 170.386 133.016 171.606 139.495 169.837C145.232 168.27 149.374 165.207 152.64 160.336ZM177.927 243.755C179.371 246.729 175.891 249.404 174.204 251.696C171.979 254.717 169.901 257.872 167.314 260.604C166.537 257.499 165.856 254.006 163.785 251.456C161.14 248.2 158.052 249.531 154.812 247.99C158.21 246.338 162.55 246.968 166.155 245.495C169.711 244.042 173.302 242.901 176.611 241.012C177.051 241.926 177.485 242.842 177.927 243.755ZM165.323 313.167C163.151 313.288 164.604 308.709 164.745 307.571C165.133 304.444 165.525 301.317 165.865 298.184C167.657 302.908 169.449 307.631 171.24 312.355C169.271 312.636 167.314 313.057 165.323 313.167ZM161.79 335.811C162.086 336.47 163.468 338.663 162.377 339.068C160.882 339.622 160.702 335.988 161.79 335.811ZM159.198 284.924C152.278 290.446 145.407 295.982 137.919 300.736C136.279 301.778 134.627 302.213 133.54 300.148C132.686 298.524 133.588 296.694 134.137 295.105C135.534 291.051 137.969 287.527 140.668 284.228C146.057 277.64 152.472 272.014 160.657 269.416C161.997 268.991 164.064 267.709 164.533 269.48C164.809 270.521 163.64 273.123 163.403 274.1C162.425 278.137 162.639 282.18 159.198 284.924ZM179.117 325.195C179.27 329.884 166.445 326.103 164.847 325.264C166.524 324.702 179.048 323.088 179.117 325.195ZM183.879 325.225C184.641 325.428 187.563 325.685 186.472 326.684C185.495 327.578 181.071 327.219 179.898 327.329C180.686 324.742 181.284 324.535 183.879 325.225ZM181.504 318.944C181.217 319.987 181.1 321.579 180.165 322.293C178.999 323.185 176.523 322.643 175.204 322.65C172.964 322.662 170.725 322.777 168.496 322.999C167.643 323.084 164.187 324.125 163.387 323.415C162.8 322.893 163.019 320.446 163.447 319.896C164.325 318.766 166.347 319.158 167.615 319.112C172.252 318.947 176.864 318.933 181.504 318.944ZM178.526 301.613C177.872 300.64 177.755 300.651 177.476 299.182C177.177 297.61 176.418 296.266 175.972 294.747C174.99 291.405 178.127 291.702 180.429 292.927C186.399 296.107 184.958 307.216 183.482 312.417C181.335 310.839 180.543 310.124 179.805 307.579C179.524 306.611 179.209 305.662 178.917 304.7C178.702 303.992 178.852 302.097 178.526 301.613ZM179.043 247.545C180.71 247.344 182.235 252.513 181.759 253.632C180.784 255.92 177.06 257.964 175.163 259.425C173.901 260.398 172.646 261.512 171.297 262.36C170.044 263.147 169.323 262.706 168.157 263.083C166.471 263.629 166.062 265.412 164.337 266.179C161.908 267.257 158.965 267.559 156.429 268.533C153.352 269.715 150.531 269.747 147.304 269.187C142.664 268.382 137.225 266.081 137.644 260.445C138.381 250.502 158.137 245.407 163.526 253.838C164.928 256.032 164.906 258.591 165.816 260.948C166.803 263.499 167.759 262.496 169.242 260.618C171.182 258.159 172.985 255.569 174.849 253.052C175.453 252.238 177.84 247.692 179.043 247.545ZM57.9663 344.357C57.8713 346.048 57.9729 347.764 57.3844 349.377C56.7914 351.004 55.5896 352.32 54.8977 353.902C53.4941 357.107 53.5046 360.984 53.5609 364.418C53.6913 372.409 55.5844 380.169 56.5856 388.064C53.2529 388.056 49.8075 388.093 46.5777 387.141C43.6925 386.29 43.2318 384.183 42.416 381.527C40.1245 374.068 37.6502 366.641 36.9104 358.829C36.5585 355.106 36.4104 351.353 36.242 347.619C36.0953 344.343 36.8311 342.914 39.7897 341.292C46.2212 337.766 52.888 334.83 59.2533 331.136C58.6026 335.519 58.214 339.935 57.9663 344.357ZM332.523 82.5628C330.957 82.2753 329.376 82.0958 327.796 81.9072C326.972 81.809 324.402 81.9459 323.785 81.4088C323.051 80.7696 324.322 75.9361 324.387 74.8986C324.785 68.6615 324.323 62.2313 323.75 56.0178C322.715 44.7687 319.175 34.3474 311.009 26.2475C306.945 22.2155 302.375 19.0166 296.824 17.4729C293.589 16.5734 290.257 16.0938 287.016 15.2217C284.401 14.5172 281.962 13.7109 279.246 13.4318C273.828 12.8748 268.876 10.8289 263.589 9.64537C259.699 8.77455 253.444 6.70917 250.922 11.0989C248.937 8.77206 246.941 7.02486 244.437 5.28918C242.039 3.62666 241.647 1.96597 238.711 3.88569C233.006 7.61601 227.662 12.1666 222.334 16.4107C217.357 20.3744 212.541 24.5253 207.325 28.1702C202.006 31.8884 203.015 38.1978 205.516 43.4286C210.223 53.2742 217.482 61.6909 223.837 70.1299C227.817 75.4167 231.81 80.7106 235.775 86.0078C239.565 91.0706 242.843 96.9304 247.272 101.479C250.064 104.346 253.397 100.597 255.917 98.8645C259.045 96.7123 262.117 94.4802 265.249 92.3346C271.77 87.8653 278.748 83.6789 285.632 79.7885C286.133 81.2071 286.633 82.6257 287.134 84.045C285.622 84.1583 283.58 83.8203 282.81 85.4452C281.711 87.7657 284.408 88.0703 284.881 89.4011C285.304 90.5892 283.572 93.7277 283.059 94.7986C281.907 97.2114 280.299 99.2915 278.526 101.277C271.515 109.137 262.643 114.759 253.641 120.118C244.008 125.852 233.684 129.352 223.138 133.047C217.775 134.925 212.209 135.798 206.675 137.001C201.343 138.16 196.015 139.683 190.567 140.12C179.419 141.014 167.59 141.684 156.576 139.281C155.371 139.019 154.095 138.449 152.869 138.341C151.885 138.254 151.157 138.666 150.229 138.719C148.236 138.833 147.094 137.051 145.511 138.706C144.719 139.534 144.705 140.924 143.601 139.379C142.196 137.413 145.786 137.034 147.116 136.474C151.594 134.588 155.194 130.793 158.04 126.955C160.884 123.121 161.292 119.026 159.561 114.537C157.83 110.05 153.894 107.009 150.938 103.365C149.509 101.6 148.194 99.7336 146.624 98.0864C145.786 97.2068 144.436 96.3645 144.383 95.4771C144.322 94.4455 144.94 93.9334 144.571 92.6798C144.475 92.3536 144.065 92.1683 143.978 91.81C143.84 91.2389 144.054 90.749 143.981 90.1923C143.816 88.9165 143.315 88.1148 142.606 87.0695C142.165 86.4159 141.519 85.1079 140.911 84.6187C139.847 83.7607 138.395 84.1105 137.312 83.2407C135.599 81.8653 134.997 78.9672 133.481 77.297C131.348 74.9471 130.893 77.3213 128.633 76.5727C126.701 75.9315 126.723 73.0248 125.161 72.0417C122.962 70.6572 121.109 73.2049 119.156 73.7721C116.586 74.5187 117.573 71.6206 115.282 71.3567C113.214 71.1183 110.349 75.3119 109.317 76.8012C108.266 75.5771 107.117 73.4911 105.226 74.2384C103.241 75.0231 102.888 78.675 101.437 79.9777C100.931 80.431 101.038 80.765 100.416 80.9739C99.6129 81.2424 98.5428 80.0773 97.5042 80.4323C95.4093 81.1494 95.6648 83.9435 95.6609 85.7537C93.1892 85.3929 91.4652 85.2088 90.6376 87.8712C89.8277 90.4772 89.5204 89.3271 86.9143 90.174C84.6681 90.9029 84.3535 93.0354 83.9826 95.1208C83.7533 96.4176 83.9656 96.9474 84.3149 98.1296C84.7552 99.619 84.7552 99.6006 84.037 101.022C82.7861 103.503 82.7114 106.235 82.5115 108.965C82.2992 111.878 81.7894 114.53 82.6177 117.375C83.1295 119.135 83.1688 121.531 84.8941 122.517C85.5782 122.908 86.7407 122.693 87.3232 123.081C88.4346 123.821 88.0964 124.947 88.8369 126.028C89.3913 126.837 90.2864 126.915 90.9076 127.57C91.5832 128.284 91.6238 129.153 92.0084 130.024C93.1473 132.603 94.2187 133.851 90.5059 133.998C88.215 134.09 85.7715 134.776 83.4899 134.565C80.798 134.317 80.1283 132.813 79.2712 130.523C74.9523 118.981 72.6313 106.472 66.9436 95.4967C65.6946 93.0865 60.5684 83.242 58.4014 90.415C56.5745 96.4647 58.9715 103.848 59.8909 109.87C57.007 107.272 55.9402 102.592 53.7503 99.4205C52.1331 97.0771 47.0685 91.3227 44.0994 94.6204C41.7601 97.2192 42.3446 102.731 42.7764 105.838C43.4586 110.754 45.0306 115.491 46.153 120.313C44.7396 118.464 44.0424 116.208 43.0615 114.127C41.8315 111.518 40.2969 109.042 38.548 106.749C37.0199 104.746 35.3109 102.883 33.4578 101.175C32.0417 99.8685 29.5058 97.009 27.4948 96.8544C22.3188 96.4575 23.9465 105.947 24.7348 108.66C26.369 114.283 28.1402 119.751 29.4088 125.487C31.8884 136.695 34.8915 147.644 36.7184 158.994C37.1227 161.51 37.6096 163.519 36.6142 165.938C35.7362 168.07 34.826 170.618 33.2068 172.257C29.5419 175.968 26.4988 179.93 23.7591 184.401C20.8248 189.19 17.804 194.035 15.4089 199.119C14.3074 201.457 13.4064 203.988 12.1404 206.237C10.9976 208.268 9.62418 209.872 8.81164 212.121C4.9298 222.863 2.05578 233.418 0.739989 244.793C-0.340557 254.132 0.665941 266.555 11.9471 268.74C17.1297 269.744 21.7828 267.447 26.4562 265.551C31.2895 263.59 34.7847 260.403 38.7268 257.015C43.6256 252.807 48.7119 248.858 53.6625 244.719C58.6157 240.578 63.1908 235.986 68.1172 231.801C72.9826 227.665 77.3847 223.274 81.5922 218.472C85.7669 213.709 89.1573 208.432 93.1984 203.602C93.1833 209.855 92.2548 216.052 91.994 222.297C91.7561 228.022 91.7503 233.742 91.9816 239.465C92.2129 245.184 90.7011 250.628 90.6887 256.336C90.6756 261.903 90.4548 267.438 90.3329 272.999C90.2785 275.493 89.789 278.292 90.7215 280.699C91.418 282.496 93.6066 283.058 95.4742 283.542C98.36 284.291 107.042 282.849 108.331 285.931C109.034 287.612 108.325 290.673 108.38 292.531C108.472 295.593 108.584 298.654 108.689 301.716C108.798 304.877 108.903 308.039 109.019 311.2C109.121 313.985 109.663 317.089 109.327 319.846C109.04 322.21 107.661 321.9 105.476 322.022C102.178 322.204 98.879 322.35 95.579 322.494C90.7385 322.706 85.6877 322.609 81.047 323.18C79.0982 323.42 76.9686 323.318 74.913 323.709C72.3345 324.199 69.9532 324.323 67.3381 324.453C65.23 324.557 62.5198 324.404 60.8633 325.962C60.2893 326.502 60.1602 327.147 59.7533 327.748C58.9899 328.875 59.4145 328.578 58.1622 328.832C53.2726 329.822 48.6287 330.939 43.8472 332.604C41.4534 333.438 39.2327 334.558 36.8279 335.342C34.7205 336.03 33.176 336.876 32.1341 338.943C30.2732 342.637 30.7443 347.98 30.8793 351.96C31.0916 358.169 32.4716 364.081 33.9597 370.086C35.5081 376.334 36.7224 382.748 39.7347 388.488C40.7241 390.374 41.7929 392.78 43.8144 393.763C46.4243 395.032 50.4385 394.263 53.287 394.268C55.1984 394.271 60.3194 394.927 61.7486 393.325C63.1318 391.774 61.74 387.398 61.5448 385.472C60.86 378.725 59.6274 371.915 59.6438 365.122C61.2034 367.425 63.907 371.4 66.6133 367.872C67.2791 367.003 67.0189 366.6 68.2017 366.096C68.8557 365.818 70.235 365.647 70.9473 365.695C71.9164 365.76 72.2749 366.15 73.1647 365.959C73.953 365.79 74.839 365.085 75.7426 364.871C86.9438 362.21 98.0795 359.342 109.329 356.972C112.303 356.344 111.88 358.627 112.077 361.197C112.294 364.039 111.88 366.91 112.274 369.721C112.617 372.166 112.885 374.55 112.401 377.01C111.831 379.912 112.198 382.332 112.766 385.206C114.954 396.287 114.563 408.306 115.056 419.568C115.313 425.434 114.762 431.423 115.314 437.257C115.522 439.461 116.753 440.679 117.252 442.683C117.824 444.985 116.263 447.915 115.788 450.145C114.833 454.621 113.156 461.027 116.223 464.921C117.88 467.025 120.051 467.33 122.504 468.041C125.438 468.892 128.331 469.885 131.279 470.691C142.052 473.638 153.693 474.214 164.734 475.839C167.438 476.236 169.945 476.199 172.666 476.011C174.344 475.894 178.474 476.446 179.869 475.443C180.616 474.906 180.238 474.233 180.617 473.577C181.156 472.645 181.81 472.266 182.728 471.686C184.249 470.725 186.008 470.164 186.265 468.18C186.893 463.323 180.819 460.749 177.572 458.649C173.422 455.964 168.409 454.928 164.005 452.736C161.575 451.527 159.23 450.157 156.889 448.785C155.874 448.19 153.816 447.517 153.108 446.58C152.386 445.625 153.093 444.26 153.392 442.895C154.626 437.252 154.209 431.482 154.848 425.78C155.486 420.068 155.312 414.321 155.523 408.58C155.74 402.668 156.228 396.771 156.603 390.867C156.949 385.415 157.297 379.874 157.354 374.416C157.409 369.355 158.099 364.39 158.262 359.295C158.318 357.566 158.008 354.43 159.156 352.965C160.163 351.681 163.499 351.842 165.054 351.617C169.247 351.009 173.238 350.475 177.384 350.108C187.248 349.236 198.226 348.594 207.554 345.157C211.401 343.74 216.52 341.804 217.797 337.389C219.264 332.313 217.348 326.075 217.285 320.886C217.217 315.345 215.61 309.94 214.405 304.571C213.108 298.792 212.29 292.914 210.888 287.156C209.602 281.873 207.515 277.194 205.542 272.179C204.741 270.144 200.183 263.135 201.597 261.406C202.358 260.475 205.102 260.239 206.215 259.813C208.614 258.896 211.018 257.852 213.23 256.546C216.183 254.801 222.651 251.915 222.949 248.038C223.233 244.333 219.59 240.589 217.738 237.679C214.756 232.99 210.992 228.891 208.151 224.109C202.409 214.446 197.843 203.862 193.656 193.449C191.466 188.001 190.751 182.871 190.391 177.055C196.75 177.07 203.223 177.852 209.542 176.964C216.419 175.996 223.305 174.367 230.122 173.024C242.536 170.579 254.455 167.817 265.955 162.311C276.723 157.154 287.651 151.51 296.567 143.325C301.178 139.093 305.881 134.779 309.861 129.939C313.952 124.967 317.028 119.318 320.184 113.737C323.667 107.576 326.438 101.101 328.63 94.3624C329.071 93.0073 329.074 91.2821 329.638 90.0024C330.274 88.5576 331.432 88.5196 332.642 87.7585C334.343 86.6877 335.475 83.1045 332.523 82.5628Z" fill="black"></path> <defs> <linearGradient id="paint0_linear_2212_5834" x1="215.99" y1="325.943" x2="64.6948" y2="327.359" gradientUnits="userSpaceOnUse"> <stop stop-color="#ECB300"></stop> <stop offset="0.583333" stop-color="#FFDD00"></stop> <stop offset="0.979167" stop-color="#FCED50"></stop> </linearGradient> </defs> </svg> 