<?xml version="1.0" encoding="UTF-8"?> <svg xmlns="http://www.w3.org/2000/svg" width="1183" height="1685" viewBox="0 0 1183 1685" fill="none"> <path fill-rule="evenodd" clip-rule="evenodd" d="M218.301 1228.56C218.586 1207.45 219.194 1186.34 219.992 1165.23C256.034 1161.99 292.078 1158.75 328.12 1155.5C337.324 1154.68 346.526 1153.85 355.728 1153.02C365.719 1152.12 375.707 1151.22 385.696 1150.32C386.735 1150.23 388.137 1150.21 389.698 1150.18C394.675 1150.1 401.253 1149.99 402.733 1147.49C404.895 1143.84 403.789 1134.23 402.951 1126.94C402.617 1124.04 402.327 1121.5 402.301 1119.86C402.158 1110.77 402.014 1101.69 401.87 1092.6C401.728 1083.52 401.585 1074.43 401.441 1065.34L401.438 1065.2C400.39 998.385 399.341 931.569 398.29 864.753C406.921 865.036 415.55 865.293 424.179 865.534C429.773 865.692 435.371 865.861 440.974 866.03C472.963 866.99 505.047 867.954 537.005 866.974C555.838 866.397 573.683 861.321 591.463 855.332C600.915 852.149 610.272 848.682 619.558 845.036C620.409 844.703 621.743 844.005 623.284 843.198C627.029 841.237 631.996 838.637 634.231 839.068C638.022 839.803 643.635 847.92 647.755 853.878C649.27 856.069 650.584 857.969 651.53 859.1C662.716 872.49 673.901 885.879 685.087 899.269L685.574 899.849C686.992 901.547 688.607 903.272 690.254 905.033C693.883 908.909 697.674 912.96 699.899 917.285C701.591 920.574 702.528 924.706 703.419 928.647C703.841 930.505 704.252 932.322 704.728 933.987C723.182 998.427 741.229 1063.28 754.67 1128.98C757.563 1143.12 760.308 1157.36 761.918 1171.71C762.039 1172.8 762.192 1173.98 762.352 1175.21C763.229 1181.94 764.32 1190.29 761.702 1196.09C758.431 1203.34 748.343 1206.62 741.09 1208.97C740.614 1209.13 740.152 1209.28 739.705 1209.42C725.524 1214.09 710.674 1216.86 695.983 1219.35C660.584 1225.36 624.741 1228.84 588.966 1231.66C584.894 1231.98 580.776 1232.18 576.65 1232.38C569.706 1232.72 562.738 1233.06 555.924 1233.98C553.045 1234.37 552.242 1234.11 551.82 1234.4C551.481 1234.63 551.383 1235.22 550.657 1236.76C549.08 1240.12 549.321 1246 549.527 1251.05C549.62 1253.29 549.704 1255.36 549.62 1256.98C549.302 1263.19 548.984 1269.39 548.667 1275.6C548.349 1281.8 548.031 1288.01 547.713 1294.22C545.975 1328.07 544.24 1361.93 542.506 1395.78C541.919 1407.22 541.332 1418.66 540.745 1430.1C539.574 1452.98 538.4 1475.87 537.226 1498.75C536.901 1505.08 536.578 1511.41 536.253 1517.74C535.91 1524.42 535.569 1531.09 535.228 1537.77C535.112 1540.02 535.147 1542.48 535.179 1545.02C535.251 1550.3 535.328 1555.87 534.066 1560.42C533.374 1562.91 533.578 1563.83 533.233 1564.14C532.873 1564.48 531.917 1564.16 528.727 1564.31C519.058 1564.78 509.156 1564.15 499.332 1563.53C494.453 1563.22 489.597 1562.92 484.794 1562.74C476.875 1562.46 468.956 1562.18 461.037 1561.9C452.541 1561.59 444.042 1561.29 435.545 1560.98C434.397 1560.94 433.216 1560.99 432.06 1561.04C428.492 1561.19 425.155 1561.32 423.729 1558.79C422.104 1555.9 422.499 1549.45 422.814 1544.29C422.947 1542.15 423.065 1540.23 423.016 1538.89L417.898 1395.94C417.077 1372.97 416.253 1350.01 415.431 1327.04C414.547 1302.37 413.661 1277.7 412.779 1253.03C394.536 1256.7 376.292 1260.36 358.048 1264.03L358.011 1264.04C331.037 1269.46 304.06 1274.88 277.083 1280.3C273.746 1280.98 270.24 1281.88 266.651 1282.8C256.925 1285.31 246.572 1287.98 237.243 1286.64C224.553 1284.82 219.307 1279.4 218.595 1267.37C217.911 1255.82 218.078 1244.19 218.245 1232.62C218.263 1231.27 218.282 1229.92 218.301 1228.56ZM581.887 1015.37L559.824 1123.16L635.323 1118.17L581.887 1015.37ZM568.472 1115.62L584.769 1036L624.24 1111.93L568.472 1115.62Z" fill="#FFDD00"></path> <path fill-rule="evenodd" clip-rule="evenodd" d="M1131.53 265.683C1130.19 276.106 1131.15 287.47 1119.37 290.219C1108.47 292.763 1096.51 292.05 1085.39 292.94C1072.9 293.943 1060.45 295.311 1047.99 296.546C1032.28 298.101 1034.52 292.068 1031.08 278.662C1027.94 266.42 1022.93 254.203 1018.76 242.264C1016.83 236.716 1014.51 231.61 1011.87 226.381C1009.48 221.646 1010.62 215.207 1008.04 211.228C999.243 197.65 956.338 234.776 952.352 227.459C959.611 221.813 972.178 215.494 974.403 205.834C977.022 194.48 969.799 191.089 960.723 195.24C938.391 205.461 912.616 213.448 888.261 217.173C896.138 211.914 967.384 170.456 943.472 158.158C938.085 155.387 930.887 160.604 926.027 162.577C918.312 165.711 910.256 167.812 902.205 169.865C893.72 172.028 885.214 174.109 876.683 176.076C870.699 177.456 860.033 182.358 854.203 181.149C848.284 179.919 858.771 176.249 860.486 175.384C867.973 171.616 875.34 167.568 882.646 163.468C895.611 156.194 907.588 147.768 917.449 136.521C924.89 128.034 937.178 109.502 931.997 97.7675C928.994 90.9654 922.416 84.6787 918.551 78.2347C914.038 70.7079 910.395 62.6852 906.477 54.8434C913.036 57.7248 920.398 58.4623 927.094 61.0482C933.79 63.6362 940.591 65.7303 947.556 67.654C961.533 71.5123 975.465 72.1982 989.315 75.3276C1004.99 78.8686 1021.33 82.8283 1037.25 84.8751C1051.12 86.6544 1063.59 90.4458 1075.47 97.9984C1099.74 113.427 1116.57 135.591 1125.08 163C1130.07 179.057 1131.29 195.81 1131.87 212.516C1132.49 230.129 1133.79 248.147 1131.53 265.683ZM995.356 266.979C978.412 279.318 958.66 288.96 940.477 299.457C930.071 305.46 919.444 311.074 908.832 316.701C901.3 320.695 892.149 328.046 883.859 330.095C878.613 331.391 879.006 331.491 875.685 326.714C872.514 322.152 869.743 317.241 866.776 312.543C861.3 303.882 855.776 295.253 850.249 286.624C837.861 267.282 825.497 247.943 812.481 229.012C799.423 210.015 786.898 190.669 774.249 171.405C768.369 162.448 762.525 153.457 756.288 144.746C751.522 138.095 739.309 127.95 745.109 120.119C750.497 112.845 762.77 106.802 770.028 101.296C778.9 94.5737 787.824 87.9203 796.671 81.1634C815.69 66.6384 834.209 51.4812 853.212 36.9367C869.337 65.1912 888.309 91.6793 907.444 117.947C890.14 128.979 872.66 139.465 854.423 148.909C840.957 155.883 820.351 165.308 811.845 178.539C803.464 191.568 811.694 206.599 826.634 206.838C835.567 206.981 844.472 204.617 853.23 203.268C859.551 202.293 871.096 197.741 876.797 200.948C866.551 207.48 829.376 226.511 849.416 243.198C863.739 255.126 887.952 237.719 903.426 241.303C898.709 250.344 893.806 264.765 906.896 269.681C917.79 273.774 932.048 266.146 941.853 262.102C948.936 259.179 955.976 256.157 962.941 252.968C968.479 250.43 975.113 245.287 981.032 244.193C987.939 242.913 1002 262.139 995.356 266.979ZM680.364 933.327C690.058 931.561 695.037 927.556 698.09 939.316C700.826 949.848 703.536 959.993 707.06 970.33C691.916 971.637 678.559 978.859 667.515 989.02C659.652 996.259 644.011 1013.54 647.891 1025.66C657.308 1055.12 704.884 989.032 710.538 981.97C717.459 992.073 720.005 1005.3 723.443 1016.86C725.893 1025.08 734.979 1040.85 722.968 1042.85C706.104 1045.65 674.468 1051.93 676.468 1075.78C678.83 1103.94 714.691 1103.78 734.807 1105.05C746.151 1105.76 746.204 1114.84 747.819 1125C748.541 1129.54 750.798 1135.68 746.935 1139.01C743.506 1141.96 733.002 1142.05 728.541 1143C715.529 1145.79 702.524 1148.64 689.515 1151.42C674.745 1154.59 666.935 1150.16 653.127 1146.11C648.016 1144.62 642.881 1145.25 642.505 1139.53C642.273 1136.03 645.712 1130.6 646.837 1127.13C651.292 1113.4 655.088 1099.27 656.366 1084.85C658.232 1063.9 655.902 1032.5 630.083 1028.41C617.798 1026.46 615.436 1025.83 609.89 1014.31C603.893 1001.86 594.368 990.328 596.672 975.981C598.336 965.586 595.526 945.915 602.169 937.293C605.238 933.307 611.224 930.929 615.31 928.004C620.517 924.272 625.531 920.279 630.382 916.102C634.463 912.591 639.438 905.725 644.065 903.19C649.719 900.089 649.891 902.202 653.951 907.044C659.944 914.197 669.471 935.314 680.364 933.327ZM707.766 979.868C704.406 986.64 696.64 992.94 691.696 998.593C686.721 1004.28 682.014 1010.29 676.464 1015.45C670.357 1021.12 648.668 1034.82 653.445 1016.38C657.164 1002.03 671.079 990.409 683.327 983.249C685.698 981.861 713.45 968.406 707.766 979.868ZM731.494 1048.17C733.645 1057.78 734.803 1067.68 736.638 1077.35C737.578 1082.29 742.784 1094.24 740.661 1099C737.067 1107.06 704.705 1097.51 697.998 1094.74C682.028 1088.14 674.698 1071.18 689.424 1059.11C695.009 1054.54 729.343 1038.57 731.494 1048.17ZM752.71 1163.51C754.513 1172.68 759.784 1181.18 751.067 1188.11C743.831 1193.86 731.972 1197.79 723.053 1199.84C710.896 1202.63 706.988 1195.83 700.554 1187.08C693.635 1177.66 686.269 1168.57 678.628 1159.74C702.626 1154.37 726.622 1149 750.624 1143.63C750.608 1150.31 751.42 1156.97 752.71 1163.51ZM695.206 1206.06C682.691 1205.41 669.227 1209.18 656.533 1210.17C640.682 1211.4 624.876 1213.2 609.011 1214.26C613.076 1201.31 620.375 1189.76 626.088 1177.52C631.816 1165.24 635.839 1163.91 649.018 1162.96C661.232 1162.09 669.846 1157.89 678.858 1168.24C688.236 1179 696.728 1190.7 705.29 1202.11C702.378 1204.06 698.898 1206.25 695.206 1206.06ZM605.746 1208.7C602.658 1210.95 593.136 1204.56 589.927 1203.33C583.686 1200.92 582.301 1200.14 579.043 1194.06C576.245 1188.83 571.79 1182.89 570.916 1176.92C569.758 1169.05 573.243 1158.69 574.512 1150.87C577.892 1159.01 588.983 1159.95 596.48 1161.28C602.148 1162.29 618.941 1160.69 623.215 1164.72C627.937 1169.17 619.245 1181.6 616.978 1186.28C614.275 1191.86 610.937 1204.93 605.746 1208.7ZM599.695 1215.16C595.981 1215.76 585.285 1219.45 585.498 1212.67C585.739 1204.93 600.454 1213.28 599.695 1215.16ZM580.851 1214.75C580.171 1221.27 566.124 1220.73 565.802 1215C565.254 1205.3 581.93 1204.34 580.851 1214.75ZM564.786 1038.88C561.196 1049.1 539.319 1052.76 530.918 1055.9C523.245 1058.78 500.326 1072.04 492.414 1067.23C519.194 1048.84 546.635 1030.83 569.326 1007.35C570.254 1013.15 568.839 1017.99 567.127 1023.48C565.584 1028.44 566.377 1034.36 564.786 1038.88ZM558.127 1076.15C554.273 1101.18 550.491 1126.54 545.277 1151.32C535.34 1148.28 527.145 1142.14 516.704 1140C507.177 1138.04 497.338 1137.99 487.732 1139.42C467.261 1142.46 449.012 1152.58 431.154 1162.43C429.504 1145.27 426.089 1126.9 426.493 1109.67C426.827 1095.36 451.34 1091.13 462.458 1085.22C469.184 1081.64 475.265 1076.61 482.929 1075.36C490.815 1074.08 498.426 1074.12 506.215 1071.72C524.632 1066.04 541.964 1057.04 560.008 1050.33C561.484 1058.93 559.433 1067.68 558.127 1076.15ZM540.918 1182.08C540.099 1187.77 541.131 1197.92 536.79 1202.26C532.704 1206.35 523.973 1206.48 518.584 1207.59C502.163 1210.96 485.76 1214.37 469.365 1217.85C462.029 1219.41 454.692 1220.89 447.326 1222.29C443.813 1222.95 435.001 1226.31 432.042 1223.52C429.235 1220.87 431.326 1212.4 431.476 1208.84C431.78 1201.74 432.182 1194.62 431.734 1187.52C430.88 1173.9 431.639 1168.68 444.333 1161.63C457.818 1154.14 471.743 1149.01 486.922 1146.24C502.289 1143.43 516.929 1144.97 531.558 1150.86C535.628 1152.5 541.732 1154.52 543.628 1158.9C546.203 1164.87 541.786 1176.03 540.918 1182.08ZM522.433 1401.68C516.414 1405.45 503.317 1404.8 496.402 1405.57C485.24 1406.8 474.006 1406.1 462.915 1404.38C454.567 1403.08 442.107 1401.29 435.711 1395.43C426.618 1387.12 437.11 1386.73 444.066 1387.32C464.293 1389.02 484.774 1387.83 504.98 1386.37C508.915 1386.09 519.488 1382.64 523.282 1384.25C528.133 1386.32 526.646 1399.04 522.433 1401.68ZM510.964 1536.11C473.279 1532.46 451.432 1501.28 437.766 1469.42C430.43 1452.31 433.075 1434.36 432.351 1416.26C432.221 1412.96 430.142 1404.76 433.544 1402.29C436.739 1399.97 449.667 1407.14 453.163 1408C471.087 1412.39 490.911 1412.81 508.874 1408.54C516.655 1406.7 521.013 1403.26 523.486 1410.97C525.477 1417.17 522.21 1428.6 521.853 1435.11C521.238 1446.35 523.001 1537.28 510.964 1536.11ZM435.683 1536.15C435.539 1530.69 432.783 1475.51 435.458 1475.34C443.407 1492.48 451.574 1507.8 466.047 1520.4C473.442 1526.85 481.755 1532.65 491.001 1536.11C494.474 1537.41 514.159 1538.39 515.124 1542.7C516.811 1550.23 503.375 1547.19 499.389 1546.58C496.189 1546.09 493.312 1544.72 490.175 1544.15C484.196 1543.07 478.549 1544.53 472.546 1544.65C463.425 1544.83 454.467 1543.88 445.342 1544.67C437.001 1545.39 435.906 1544.43 435.683 1536.15ZM441.247 1288.65C473.507 1278.24 500.467 1297.96 517.493 1323.78C527.201 1338.51 529.372 1348.8 527.674 1366.24C527.066 1372.48 528.189 1376.7 522.444 1379.25C516.76 1381.77 503.843 1379.9 497.69 1380.19C479.999 1381.01 462.374 1382.11 444.683 1381.06C433.191 1380.38 431.569 1378.44 431.766 1367.29C432.005 1353.88 430.887 1340.52 430.128 1327.09C429.305 1312.55 424.309 1294.12 441.247 1288.65ZM430.69 1269.33C430.708 1259.48 430.117 1249.36 430.72 1239.52C431.321 1229.77 435.476 1230.25 444.697 1228.58C464.664 1224.98 484.604 1220.94 504.303 1216.06C512.094 1214.12 520.897 1210.41 529.013 1210.38C537.53 1210.35 537.078 1214.72 536.509 1222.26C535.247 1238.94 532.187 1255.38 531.256 1271.98C530.252 1289.89 529.725 1308.04 529.806 1325.97C529.834 1332.03 531.307 1336.51 526.14 1330.84C520.969 1325.17 518.437 1316.13 513.818 1309.75C504.358 1296.69 490.298 1286.19 474.697 1281.76C466.07 1279.32 456.996 1278.89 448.2 1280.66C445.532 1281.2 432.165 1287.57 430.465 1286.31C429.314 1285.46 430.688 1269.73 430.69 1269.33ZM548.709 1610.93C561.505 1620.09 575.674 1627.48 590.018 1633.9C598.09 1637.51 630.039 1645.12 631.057 1653.25C631.603 1657.59 626.308 1662.45 622.839 1662.96C618.44 1663.61 611.192 1660.74 606.712 1660.19C590.417 1658.22 574.157 1658.21 558.257 1653.68C526.514 1644.63 493.604 1642.08 461.532 1634.19C453.901 1632.31 446.254 1630.55 438.583 1628.85C431.298 1627.24 428.033 1627.51 427.776 1619.74C427.21 1602.67 432.11 1585.18 432.149 1567.9C458.096 1570.86 484.131 1570.82 510.147 1573.25C521.296 1574.29 521.036 1576.4 525.922 1586.14C530.994 1596.23 539.621 1604.43 548.709 1610.93ZM422.2 1056.36C421.873 1050.04 421.616 1043.7 421.045 1037.4C420.66 1033.17 416.787 1021.33 418.97 1018.04C421.564 1014.12 424.177 1016.51 428.817 1016.4C434.933 1016.26 440.056 1013.8 445.101 1010.58C454.653 1004.5 461.755 996.486 467.954 987.136C473.409 978.906 472.393 967.662 472.328 957.81C472.154 932.328 474.013 907.475 472.456 881.88C471.741 870.125 481.788 877.335 489.899 878.858C503.168 881.347 517.591 879.623 531.076 879.655C530.574 882.789 502.999 890.567 498.544 893.529C487.138 901.106 480.488 913.228 481.528 927.049C483.62 954.852 514.275 959.499 536.672 959.553C518.089 975.967 499.839 991.616 485.233 1011.87C474.465 1026.8 455.497 1056.23 473.103 1072.75C457.541 1081.58 442.117 1091.4 424.516 1095.65C423.727 1082.56 422.882 1069.46 422.2 1056.36ZM415.135 548.821C421.472 552.886 424.135 547.138 428.957 544.162C435.748 539.967 437.996 540.38 438.857 531.014C440.451 513.642 433.135 497.916 423.95 483.701C419.776 477.24 415.611 469.545 409.718 464.494C404.346 459.889 398.915 461.474 393.938 456.714C391.984 454.843 392.402 452.201 389.172 452.275C387.045 452.326 381.875 458.909 380.119 460.362C374.569 464.951 367.78 468.444 360.508 464.659C349.919 459.152 353.318 439.159 361.543 432.683C367.877 427.695 375.362 428.467 382.571 427.661C387.977 427.06 389.103 427.295 386.88 421.113C385.321 416.786 381.727 413.409 379.952 409.174C376.541 401.046 377.283 391.168 375.81 382.564C374.488 374.856 371.393 366.519 371.504 358.689C371.652 348.721 374.912 346.132 383.557 343.337C391.933 340.629 398.871 334.661 406.005 329.648C414.08 323.972 422.924 320.224 431.223 315.042C436.857 311.521 440.493 304.405 446.688 307.729C454.05 311.679 461.834 323.112 468.094 328.953C458.934 334.761 456.804 337.301 458.066 348.672C459.224 359.095 461.349 368.384 469.326 375.646C472.391 378.437 478.105 380.671 480.481 383.888C483.252 387.636 481.451 384.333 481.101 388.563C480.915 390.846 479.108 392.338 479.5 394.976C481.259 406.69 494.73 399.776 500.282 395.706C520.117 381.167 483.08 369.62 474.284 364.324C468.21 360.662 465.205 348.983 474.829 352.086C481.233 354.149 495.695 371.648 497.163 355.697C513.038 364.91 522.837 384.481 536.148 396.856C545.746 405.781 558.642 415.68 551.022 429.932C541.312 448.101 522.059 456.347 504.481 464.186C487.433 471.788 490.973 493.304 500.085 506.473C505.354 514.085 512.256 518.546 520.563 522.246C529.045 526.026 530.809 530.467 532.66 539.235C534.718 548.962 532.533 552.881 524.101 557.906C515.869 562.815 507.263 567.569 498.474 571.409C479.47 579.716 459.755 580.242 439.541 583.072C432.458 584.064 425.664 586.132 421.799 579.116C417.453 571.219 417.133 557.624 415.135 548.821ZM412.079 511.037C407.323 508.531 395.84 516.85 389.827 517.216C380.098 517.805 373.713 517.582 365.077 522.737C348.752 532.481 335.207 545.024 322.116 558.629C307.374 573.952 292.715 589.356 278.021 604.725C271.359 611.685 264.666 618.61 257.902 625.466C252.571 630.871 247.357 638.471 240.758 642.328C241.102 637.748 243.914 634.505 244.912 630.259C245.492 627.777 244.478 625.67 244.854 623.292C244.977 622.52 247.051 619.839 247.366 618.958C248.209 616.636 249.239 614.341 250.239 611.928C251.171 609.678 251.035 607.344 251.981 604.994C252.953 602.569 255.619 600.965 256.543 598.578C259.253 591.59 254.768 588.35 247.596 588.514C250.401 574.534 251.629 567.694 266.262 562.764C280.244 558.055 293.903 552.766 306.745 545.404C318.149 538.871 327.661 529.451 338.624 522.169C348.439 515.647 360.657 508.814 360.555 495.441C366.119 499.212 371.334 502.385 377.699 498.63C383.072 495.462 383.785 492.91 389.996 492.312C395.066 491.827 398.207 491.698 402.731 493.925C408.056 496.544 408.783 498.366 411.885 490.655C415.409 493.617 424.316 505.959 424.019 510.845C423.857 513.535 423.448 514.75 420.11 515.459C415.376 516.465 415.56 512.868 412.079 511.037ZM389.898 1241.49C387.583 1245.03 377.824 1244.38 374.056 1244.33C362.569 1244.18 358.553 1234.55 353.513 1225.24C345.566 1210.57 333.692 1180.09 346.726 1164.69C357.017 1152.54 377.056 1167.85 384.077 1177.03C390.137 1184.96 388.337 1196.85 388.901 1206.37C389.376 1214.39 394.472 1234.49 389.898 1241.49ZM358.515 1246.8C353.921 1251.39 339.016 1250.42 332.931 1251.4C322.07 1253.16 311.269 1255.27 300.731 1258.47C292.886 1260.86 285.132 1267.28 283.065 1256.35C281.327 1247.17 282.193 1236.15 282.357 1226.89C282.536 1216.88 283.585 1207.01 284.455 1197.06C285.044 1190.32 283.568 1177.94 289.072 1172.77C293.812 1168.32 305.341 1167.89 311.497 1166.41C321.606 1163.99 332.167 1160.81 342.673 1161.89C336.543 1178.51 336.023 1195.95 342.597 1212.51C344.471 1217.24 361.351 1243.97 358.515 1246.8ZM281.267 1180.58C278.705 1205.59 276.13 1230.74 278.596 1255.87C278.745 1257.37 280.538 1264.24 279.759 1265.31C278.953 1266.42 272.573 1267 271.125 1267.34C265.373 1268.7 259.629 1270.15 253.84 1271.36C242.573 1273.71 241.102 1266.6 238.891 1256.17C234.155 1233.82 243.336 1209.59 248.9 1188.12C251.61 1177.67 253.617 1176.46 263.907 1175.6C271.067 1175 282.355 1169.96 281.267 1180.58ZM237.758 1273.86C233.452 1277.77 229.148 1259.32 228.768 1257.43C227.264 1249.96 228.102 1242.39 228.123 1234.8C228.16 1222.95 227.252 1211.15 227.234 1199.36C227.225 1192.98 222.438 1179.94 229.997 1176.56C232.215 1175.57 241.025 1175.98 243.023 1177.28C247.176 1179.99 245.54 1181.75 244.308 1186.46C241.554 1197.04 239.171 1207.66 236.772 1218.33C234.42 1228.78 232.097 1238.85 233.218 1249.64C233.587 1253.22 240.501 1271.37 237.758 1273.86ZM375.077 1157.37C385.574 1154.41 386.135 1162.45 386.116 1170.13C384.518 1168.91 369.601 1158.91 375.077 1157.37ZM234.675 592.999C232.102 597.234 215.812 598.39 211.157 599.505C202 601.695 192.837 603.872 183.702 606.155C166.591 610.429 149.899 615.25 132.356 617.486C141.99 602.08 144.988 588.776 143.194 569.548C140.934 545.272 138.059 521.244 132.465 497.483C126.95 474.05 120.565 450.776 114.414 427.501C111.393 416.065 108.127 404.849 104.108 393.722C100.888 384.806 95.855 373.579 101.324 364.437C115.199 374.55 126.329 385.445 134.243 400.807C142.721 417.275 150.125 434.181 159.964 449.937C164.463 457.14 169.719 463.709 174.531 470.68C177.394 474.829 179.48 480.816 183.127 484.316C187.331 488.349 191.814 490.251 194.218 483.444C196.795 476.139 188.57 461.685 186.143 454.825C180.28 438.264 174.468 421.737 169.946 404.75C166.289 391.017 160.243 374.415 162.382 359.927C164.5 345.583 174.243 355.85 179.173 362.518C189.336 376.267 195.422 392.292 202.099 407.879C208.236 422.198 215.394 435.852 222.185 449.839C224.547 454.707 227.661 467.28 233.849 468.726C242.844 470.833 242.083 458.178 241.222 453.045C235.522 419.004 220.64 386.412 217.552 351.782C217.403 350.128 215.252 337.262 216.983 336.186C220.336 334.103 224.86 347.156 226.306 350.355C233.833 366.989 239.072 384.525 243.881 402.096C247.972 417.041 251.67 432.097 256.26 446.9C258.782 455.036 261.673 463.036 264.524 471.063C267.102 478.334 269.719 490.757 276.443 495.547C285.984 502.343 320.121 486.186 323.58 500.63C326.042 510.898 294.387 519.168 287.645 522.285C278.77 526.39 270.065 530.884 261.185 534.993C254.464 538.101 244.802 539.376 239.939 545.224C234.789 551.419 233.963 560.12 233.809 567.805C233.691 573.623 237.726 587.979 234.675 592.999ZM213.099 705.118C212.649 708.344 210.081 712.618 208.925 715.689C206.575 721.945 204.575 729.419 201.303 735.265C198.491 740.299 194.338 744.8 191.619 749.908C189.041 754.757 188.698 760.347 185.686 765.201C182.238 770.749 176.542 774.738 173.12 780.25C171.433 782.971 169.691 786.076 167.308 788.971C158.867 799.232 150.486 808.911 143.698 819.902C141.962 822.715 133.482 834.997 130.108 835.662C123.052 837.046 131.264 827.029 132.644 824.957C142.64 809.972 151.517 794.196 161.164 778.977C170.51 764.243 180.074 749.623 189.067 734.667C196.403 722.473 201.475 704.967 213.396 696.377C213.44 699.298 213.345 702.211 213.099 705.118ZM539.029 567.4C544.834 591.245 551.779 614.35 558.324 637.982C564.398 659.908 572.479 683.373 574.999 705.978C577.491 728.369 583.222 751.025 590.93 772.279C594.491 782.113 598.157 791.984 602.025 801.705C604.148 807.045 606.524 812.265 608.937 817.48C610.809 821.531 615.756 828.093 615.946 832.385C616.097 835.825 617.292 834.45 613.895 837.034C610.378 839.709 604.285 838.738 600.19 839.208C589.505 840.444 579.085 844.458 568.67 847.059C548.581 852.074 524.637 856.056 504.052 852.566C495.393 851.096 486.4 849.824 477.839 847.912C467.303 845.557 465.138 841.202 462.975 830.86C458.247 808.246 454.175 785.692 450.27 762.929C445.627 735.851 440.602 708.805 437.019 681.56C433.402 653.998 430.801 626.407 425.131 599.144C448.005 602.966 469.546 607.281 492.486 601.021C512.802 595.477 527.468 584.639 539.029 567.4ZM628.568 862.604C633.682 873.131 621.357 882.597 615.385 890.706C607.507 901.396 600.15 912.563 590.988 922.23C588.238 911.244 585.828 898.881 578.493 889.858C569.127 878.337 558.194 883.044 546.721 877.593C558.753 871.745 574.12 873.977 586.886 868.762C599.477 863.619 612.192 859.581 623.909 852.899C625.466 856.133 627.002 859.375 628.568 862.604ZM583.939 1108.24C576.247 1108.67 581.394 1092.47 581.892 1088.44C583.266 1077.37 584.654 1066.31 585.858 1055.22C592.203 1071.94 598.547 1088.65 604.89 1105.37C597.918 1106.36 590.99 1107.85 583.939 1108.24ZM571.428 1188.38C572.477 1190.71 577.37 1198.47 573.507 1199.9C568.213 1201.86 567.577 1189 571.428 1188.38ZM562.252 1008.29C537.751 1027.84 513.419 1047.43 486.908 1064.25C481.101 1067.94 475.252 1069.48 471.4 1062.17C468.377 1056.42 471.572 1049.95 473.514 1044.32C478.463 1029.98 487.085 1017.51 496.639 1005.83C515.723 982.519 538.438 962.607 567.419 953.415C572.162 951.911 579.482 947.373 581.141 953.64C582.12 957.325 577.981 966.531 577.141 969.989C573.679 984.276 574.435 998.583 562.252 1008.29ZM632.781 1150.81C633.322 1167.4 587.913 1154.02 582.254 1151.05C588.192 1149.06 632.538 1143.35 632.781 1150.81ZM649.642 1150.91C652.341 1151.63 662.686 1152.54 658.823 1156.07C655.364 1159.24 639.698 1157.97 635.545 1158.36C638.336 1149.2 640.454 1148.47 649.642 1150.91ZM641.232 1128.69C640.215 1132.38 639.802 1138.01 636.491 1140.54C632.364 1143.69 623.596 1141.78 618.925 1141.8C610.992 1141.84 603.067 1142.25 595.173 1143.04C592.152 1143.34 579.918 1147.02 577.085 1144.51C575.006 1142.66 575.781 1134 577.296 1132.06C580.405 1128.05 587.565 1129.44 592.053 1129.28C608.473 1128.69 624.802 1128.65 641.232 1128.69ZM630.689 1067.35C628.373 1063.91 627.958 1063.95 626.969 1058.75C625.911 1053.19 623.224 1048.43 621.644 1043.06C618.166 1031.23 629.276 1032.28 637.426 1036.62C658.566 1047.87 653.464 1087.18 648.236 1105.59C640.635 1100 637.83 1097.47 635.215 1088.47C634.222 1085.04 633.106 1081.68 632.074 1078.28C631.313 1075.77 631.842 1069.07 630.689 1067.35ZM632.519 876.017C638.422 875.305 643.821 893.599 642.136 897.558C638.684 905.656 625.498 912.89 618.781 918.058C614.31 921.5 609.87 925.445 605.09 928.446C600.654 931.23 598.101 929.668 593.974 931.005C588.004 932.936 586.556 939.247 580.447 941.959C571.848 945.776 561.426 946.844 552.447 950.291C541.551 954.472 531.563 954.586 520.138 952.604C503.709 949.756 484.449 941.613 485.931 921.669C488.542 886.481 558.496 868.451 577.575 898.288C582.54 906.052 582.463 915.105 585.686 923.447C589.178 932.474 592.563 928.926 597.816 922.279C604.686 913.578 611.069 904.411 617.67 895.504C619.807 892.625 628.259 876.536 632.519 876.017ZM203.809 1218.62C203.473 1224.6 203.832 1230.67 201.749 1236.38C199.649 1242.14 195.394 1246.8 192.944 1252.4C187.974 1263.74 188.011 1277.46 188.211 1289.61C188.672 1317.89 195.375 1345.35 198.921 1373.29C187.12 1373.26 174.92 1373.39 163.484 1370.02C153.268 1367.01 151.637 1359.55 148.749 1350.16C140.635 1323.76 131.874 1297.48 129.254 1269.83C128.008 1256.66 127.484 1243.38 126.888 1230.16C126.368 1218.57 128.974 1213.51 139.449 1207.77C162.222 1195.29 185.828 1184.9 208.366 1171.83C206.062 1187.34 204.686 1202.97 203.809 1218.62ZM1175.96 292.175C1170.42 291.157 1164.82 290.522 1159.23 289.855C1156.31 289.507 1147.21 289.991 1145.02 288.091C1142.42 285.829 1146.93 268.724 1147.16 265.053C1148.56 242.981 1146.93 220.225 1144.9 198.237C1141.23 158.428 1128.7 121.549 1099.79 92.885C1085.39 78.6165 1069.21 67.2961 1049.56 61.8332C1038.11 58.65 1026.31 56.9527 1014.83 53.8664C1005.57 51.3735 996.934 48.5201 987.317 47.5323C968.134 45.5613 950.6 38.3213 931.88 34.1329C918.108 31.0513 895.957 23.7423 887.029 39.2767C880.001 31.0425 872.931 24.8594 864.066 18.7172C855.576 12.8338 854.189 6.95693 843.792 13.7505C823.59 26.9514 804.671 43.0551 785.803 58.0741C768.181 72.1011 751.13 86.7902 732.661 99.6891C713.826 112.847 717.399 135.175 726.255 153.686C742.921 188.528 768.624 218.313 791.126 248.177C805.219 266.886 819.358 285.62 833.395 304.366C846.815 322.282 858.423 343.019 874.103 359.116C883.992 369.263 895.792 355.994 904.713 349.863C915.79 342.247 926.669 334.348 937.758 326.755C960.848 310.939 985.554 296.124 1009.93 282.357C1011.7 287.377 1013.47 292.397 1015.25 297.42C1009.89 297.821 1002.66 296.625 999.939 302.375C996.046 310.587 1005.6 311.665 1007.27 316.374C1008.77 320.579 1002.63 331.685 1000.82 335.475C996.742 344.013 991.046 351.375 984.769 358.402C959.946 386.217 928.53 406.113 896.658 425.076C862.548 445.366 825.991 457.754 788.65 470.829C769.661 477.476 749.954 480.566 730.36 484.821C711.48 488.923 692.615 494.312 673.322 495.86C633.851 499.024 591.964 501.395 552.969 492.891C548.7 491.962 544.182 489.945 539.841 489.563C536.359 489.255 533.781 490.713 530.495 490.9C523.437 491.304 519.393 484.999 513.788 490.856C510.983 493.786 510.934 498.704 507.024 493.237C502.052 486.281 514.762 484.937 519.472 482.955C535.328 476.282 548.076 462.851 558.152 449.271C568.22 435.703 569.667 421.213 563.537 405.327C557.407 389.448 543.47 378.684 533.006 365.789C527.946 359.545 523.287 352.939 517.73 347.11C514.762 343.997 509.98 341.017 509.795 337.876C509.579 334.226 511.767 332.413 510.458 327.977C510.119 326.823 508.669 326.167 508.361 324.899C507.871 322.878 508.628 321.144 508.372 319.174C507.785 314.659 506.013 311.822 503.502 308.123C501.941 305.81 499.653 301.182 497.502 299.45C493.732 296.414 488.59 297.652 484.757 294.574C478.692 289.706 476.56 279.45 471.194 273.54C463.641 265.224 462.029 273.626 454.026 270.977C447.184 268.708 447.263 258.421 441.734 254.943C433.945 250.043 427.386 259.059 420.469 261.066C411.369 263.708 414.866 253.452 406.755 252.518C399.432 251.674 389.286 266.515 385.634 271.786C381.912 267.454 377.843 260.072 371.147 262.716C364.119 265.493 362.868 278.417 357.731 283.027C355.94 284.63 356.318 285.813 354.116 286.552C351.272 287.502 347.483 283.379 343.805 284.635C336.388 287.173 337.293 297.061 337.279 303.467C328.527 302.19 322.422 301.538 319.492 310.96C316.624 320.182 315.536 316.112 306.309 319.109C298.355 321.689 297.241 329.235 295.928 336.615C295.116 341.204 295.868 343.079 297.104 347.263C298.664 352.533 298.664 352.469 296.121 357.498C291.691 366.278 291.427 375.947 290.719 385.608C289.967 395.915 288.162 405.299 291.095 415.367C292.907 421.598 293.046 430.076 299.155 433.564C301.578 434.948 305.694 434.19 307.756 435.562C311.691 438.181 310.494 442.165 313.116 445.989C315.079 448.852 318.248 449.128 320.448 451.448C322.84 453.974 322.984 457.05 324.346 460.132C328.378 469.26 332.172 473.675 319.026 474.196C310.914 474.519 302.262 476.948 294.183 476.201C284.652 475.325 282.281 470.001 279.246 461.896C263.953 421.053 255.735 376.784 235.596 337.946C231.174 329.416 213.023 294.578 205.35 319.962C198.881 341.371 207.368 367.499 210.624 388.808C200.412 379.616 196.635 363.056 188.881 351.831C183.155 343.538 165.222 323.175 154.709 334.844C146.426 344.041 148.496 363.545 150.025 374.54C152.44 391.937 158.006 408.702 161.981 425.765C156.976 419.224 154.507 411.24 151.034 403.876C146.679 394.642 141.245 385.881 135.052 377.767C129.642 370.677 123.591 364.085 117.029 358.04C112.015 353.416 103.036 343.297 95.9154 342.75C77.5881 341.346 83.3515 374.927 86.1427 384.528C91.9293 404.428 98.2007 423.779 102.693 444.077C111.472 483.739 122.106 522.484 128.574 562.651C130.006 571.556 131.73 578.664 128.206 587.226C125.096 594.768 121.874 603.786 116.141 609.585C103.164 622.717 92.3887 636.74 82.6879 652.563C72.2981 669.51 61.602 686.655 53.1216 704.645C49.2214 712.922 46.0311 721.875 41.5485 729.836C37.502 737.021 32.6389 742.7 29.7619 750.657C16.017 788.672 5.84066 826.023 1.18171 866.277C-2.6443 899.326 0.919516 943.289 40.864 951.021C59.2145 954.574 75.6902 946.446 92.2379 939.736C109.352 932.799 121.728 921.518 135.686 909.531C153.032 894.637 171.041 880.664 188.57 866.018C206.109 851.363 222.308 835.111 239.751 820.3C256.979 805.666 272.566 790.126 287.464 773.134C302.246 756.277 314.251 737.603 328.559 720.51C328.506 742.64 325.218 764.568 324.295 786.668C323.453 806.929 323.432 827.17 324.251 847.423C325.07 867.663 319.717 886.928 319.673 907.125C319.627 926.826 318.845 946.413 318.413 966.093C318.221 974.922 316.487 984.825 319.789 993.343C322.255 999.703 330.005 1001.69 336.617 1003.4C346.836 1006.05 377.576 1000.95 382.14 1011.86C384.632 1017.81 382.121 1028.64 382.316 1035.22C382.641 1046.05 383.038 1056.88 383.409 1067.72C383.794 1078.9 384.168 1090.09 384.576 1101.28C384.938 1111.14 386.857 1122.12 385.669 1131.88C384.65 1140.24 379.768 1139.15 372.031 1139.58C360.353 1140.22 348.673 1140.74 336.989 1141.25C319.849 1142 301.965 1141.66 285.534 1143.68C278.633 1144.52 271.093 1144.16 263.814 1145.55C254.684 1147.28 246.253 1147.72 236.993 1148.18C229.529 1148.55 219.932 1148.01 214.067 1153.52C212.034 1155.43 211.577 1157.71 210.136 1159.84C207.433 1163.83 208.937 1162.78 204.503 1163.68C187.19 1167.18 170.746 1171.13 153.816 1177.03C145.34 1179.98 137.477 1183.94 128.962 1186.71C121.5 1189.15 116.032 1192.14 112.342 1199.46C105.753 1212.53 107.421 1231.44 107.899 1245.52C108.651 1267.5 113.537 1288.42 118.806 1309.67C124.289 1331.78 128.588 1354.48 139.254 1374.79C142.758 1381.46 146.542 1389.98 153.7 1393.46C162.941 1397.95 177.155 1395.23 187.241 1395.24C194.009 1395.25 212.141 1397.58 217.201 1391.91C222.099 1386.42 217.171 1370.93 216.48 1364.12C214.055 1340.24 209.691 1316.14 209.749 1292.1C215.271 1300.25 224.844 1314.32 234.427 1301.83C236.784 1298.76 235.863 1297.33 240.051 1295.55C242.366 1294.56 247.25 1293.96 249.772 1294.13C253.204 1294.36 254.473 1295.74 257.624 1295.06C260.415 1294.47 263.552 1291.97 266.752 1291.21C306.413 1281.8 345.842 1271.65 385.673 1263.26C396.205 1261.04 394.708 1269.12 395.404 1278.21C396.172 1288.27 394.706 1298.43 396.103 1308.38C397.318 1317.03 398.265 1325.46 396.553 1334.17C394.534 1344.44 395.833 1353.01 397.845 1363.18C405.592 1402.39 404.207 1444.92 405.954 1484.78C406.864 1505.53 404.912 1526.73 406.866 1547.37C407.604 1555.17 411.961 1559.48 413.727 1566.57C415.755 1574.72 410.226 1585.09 408.544 1592.98C405.163 1608.82 399.226 1631.49 410.086 1645.27C415.952 1652.72 423.641 1653.8 432.323 1656.31C442.715 1659.33 452.957 1662.84 463.395 1665.69C501.539 1676.12 542.76 1678.16 581.853 1683.91C591.426 1685.31 600.306 1685.18 609.939 1684.52C615.879 1684.1 630.505 1686.06 635.443 1682.51C638.088 1680.61 636.749 1678.23 638.092 1675.9C640.002 1672.6 642.317 1671.26 645.568 1669.21C650.953 1665.81 657.181 1663.82 658.09 1656.81C660.313 1639.62 638.807 1630.51 627.31 1623.08C612.614 1613.58 594.865 1609.91 579.271 1602.15C570.667 1597.87 562.366 1593.02 554.076 1588.17C550.482 1586.06 543.194 1583.68 540.688 1580.37C538.131 1576.99 540.635 1572.16 541.693 1567.33C546.064 1547.36 544.586 1526.94 546.848 1506.76C549.108 1486.54 548.493 1466.21 549.238 1445.89C550.006 1424.97 551.737 1404.1 553.064 1383.21C554.287 1363.91 555.519 1344.31 555.723 1324.99C555.916 1307.08 558.361 1289.51 558.939 1271.48C559.136 1265.36 558.036 1254.26 562.103 1249.08C565.67 1244.54 577.479 1245.11 582.988 1244.31C597.835 1242.16 611.965 1240.27 626.645 1238.97C661.573 1235.88 700.443 1233.61 733.471 1221.45C747.093 1216.43 765.218 1209.58 769.738 1193.96C774.935 1176 768.151 1153.92 767.926 1135.56C767.687 1115.95 761.996 1096.82 757.729 1077.82C753.135 1057.37 750.241 1036.57 745.276 1016.19C740.722 997.499 733.332 980.941 726.346 963.191C723.51 955.993 707.371 931.186 712.378 925.069C715.074 921.773 724.789 920.939 728.731 919.43C737.225 916.185 745.736 912.493 753.569 907.869C764.026 901.695 786.926 891.481 787.982 877.762C788.986 864.65 776.088 851.4 769.532 841.102C758.97 824.509 745.645 810.005 735.585 793.083C715.253 758.887 699.086 721.432 684.262 684.58C676.508 665.301 673.974 647.146 672.698 626.567C695.216 626.62 718.135 629.388 740.508 626.243C764.859 622.819 789.242 617.053 813.379 612.301C857.335 603.647 899.537 593.875 940.256 574.388C978.387 556.14 1017.08 536.168 1048.65 507.201C1064.97 492.224 1081.63 476.959 1095.72 459.831C1110.2 442.237 1121.1 422.247 1132.27 402.495C1144.6 380.692 1154.42 357.778 1162.18 333.931C1163.74 329.136 1163.75 323.031 1165.75 318.502C1168 313.389 1172.1 313.255 1176.38 310.561C1182.41 306.772 1186.42 294.091 1175.96 292.175Z" fill="black"></path> <path fill-rule="evenodd" clip-rule="evenodd" d="M651.721 48.1164C656.87 52.5338 679.055 68.0939 686.22 64.3105C695.062 59.6397 681.065 45.5701 677.297 42.1014C672.499 37.6884 655.362 24.338 648.8 25.5773C635.684 28.0558 647.09 44.1405 651.721 48.1164Z" fill="black"></path> <path fill-rule="evenodd" clip-rule="evenodd" d="M662.679 207.814C665.589 202.096 673.324 199.994 676.9 194.461C681.204 187.809 683.18 181.988 681.593 173.831C670.579 177.535 658.048 188.746 650.679 197.511C644.519 204.838 635.769 220.146 651.844 220.186C651.704 218.007 651.563 215.824 651.421 213.647C656.243 214.347 660.491 212.122 662.679 207.814Z" fill="black"></path> <path fill-rule="evenodd" clip-rule="evenodd" d="M610.206 112.682C617.306 114.721 623.167 114.432 630.422 114.591C635.687 114.709 642.882 117.599 647.149 114.341C643.362 112.151 648.146 112.03 647.209 109.894C646.422 108.114 644.928 108.697 643.712 107.256C639.378 102.12 635.61 102.183 628.738 101.115C623.411 100.283 615.58 98.3654 610.464 101.01C605.079 103.794 602.995 110.611 610.206 112.682Z" fill="black"></path> <path fill-rule="evenodd" clip-rule="evenodd" d="M711.287 270.202C715.879 266.354 720.886 255.215 721.814 249.467C722.178 247.214 720.554 245.49 720.747 243.833C721.118 240.673 727.617 234.569 720.81 231.977C714.856 229.708 709.26 247.332 707.747 251.178C706.195 255.111 701.967 262.773 703.264 266.577C704.341 269.733 708.185 272.797 711.287 270.202Z" fill="black"></path> <path fill-rule="evenodd" clip-rule="evenodd" d="M766.221 31.666C770.376 27.8137 773.007 23.4445 772.576 18.1469C772.234 13.9738 769.107 -0.413854 765.585 0.00913457C753.893 1.41879 759.151 38.2264 766.221 31.666Z" fill="black"></path> <path fill-rule="evenodd" clip-rule="evenodd" d="M519.409 674.92C518.446 671.402 514.949 649.893 508.9 651.358C504.306 652.47 509.079 671.399 509.293 673.891C509.74 679.101 499.715 678.93 495.056 678.225C487.666 677.11 488.26 672.785 487.153 666.076C486.738 663.54 485.139 652.079 479.844 656.276C476.267 659.113 478.824 673.244 479.121 676.468C480.153 687.638 481.367 706.708 488.014 716.848C490.664 720.895 493.046 722.89 495.831 717.703C498.647 712.454 492.272 696.454 491.156 691.086C496.415 691.599 511.557 689.895 514.726 695.353C517.62 700.334 512.991 714.567 522.274 715.722C527.78 716.408 526.782 710.036 526.253 705.137C525.142 694.855 522.121 684.849 519.409 674.92Z" fill="black"></path> <path fill-rule="evenodd" clip-rule="evenodd" d="M533.514 669.942C527.417 672.693 535.071 712.809 543.992 711.516C554.403 710.002 539.324 667.321 533.514 669.942Z" fill="black"></path> <path fill-rule="evenodd" clip-rule="evenodd" d="M526.721 656.661C525.969 665.693 537.719 669.058 538.275 659.243C538.702 651.671 527.512 647.165 526.721 656.661Z" fill="black"></path> <path fill-rule="evenodd" clip-rule="evenodd" d="M462.222 417.184C467.587 437.154 516.413 445.649 509.835 418.717C506.54 405.232 492.781 417.212 483.176 415.643C476.96 414.628 458.445 403.102 462.222 417.184Z" fill="black"></path> <path fill-rule="evenodd" clip-rule="evenodd" d="M449.96 381.564C452.257 370.879 428.858 359.084 420.366 362.025C407.946 366.332 407.999 393.855 417.475 401.172C418.721 402.134 422.542 404.431 424.415 402.6C427.368 399.705 424.141 400.495 423.452 397.605C422.357 393.009 418.779 387.108 422.343 381.877C429.081 371.998 446.672 396.875 449.96 381.564Z" fill="black"></path> <path fill-rule="evenodd" clip-rule="evenodd" d="M378.611 433.429C370.175 432.956 363.256 446.037 375.669 444.941C378.047 444.73 383.154 444.132 384.532 441.638C386.815 437.506 382.321 433.638 378.611 433.429Z" fill="black"></path> <path fill-rule="evenodd" clip-rule="evenodd" d="M787.891 121.593C785.003 117.421 778.949 110.706 773.741 114.891C769.123 118.603 769.929 127.763 771.701 132.315C776.467 144.569 787.724 155.486 800.465 148.426C796.038 139.569 793.546 129.762 787.891 121.593Z" fill="black"></path> </svg> 