<?xml version="1.0" encoding="UTF-8"?> <svg xmlns="http://www.w3.org/2000/svg" width="899" height="1872" viewBox="0 0 899 1872" fill="none"> <path fill-rule="evenodd" clip-rule="evenodd" d="M157.153 165.301C204.253 100.531 290.974 81.9071 366.178 97.6561C513.204 124.433 653.668 236.505 679.649 388.919C720.181 481.126 694.297 626.367 576.427 637.217C559.644 638.158 543.02 634.299 526.213 636.385C423.609 652.758 302.368 722.855 211.55 640.189C206.993 643.449 201 645.027 195.899 643.051C157.239 628.128 155.422 584.948 152.125 549.456C147.868 503.591 143.875 457.708 140.15 411.8C138.823 332.632 107.416 233.704 157.153 165.301Z" fill="white"></path> <path fill-rule="evenodd" clip-rule="evenodd" d="M442.202 0.260706C380.3 -3.02978 266.246 25.3003 212.241 58.511C124.254 112.621 117.434 220.558 121.025 239.219C122.388 246.344 126.743 252.937 133.556 250.741C127.776 299.781 128.229 327.811 127.257 377.132L126.59 410.061C126.162 432.012 125.789 453.963 125.691 475.926C123.465 475.1 121.275 476.115 120.456 478.244C120.254 478.764 120.957 479.045 121.306 478.745C125.22 475.332 122.431 483.112 121.085 484.696C119.22 486.874 116.119 488.923 113.942 490.788L102.107 501.014C94.4681 507.601 87.0735 514.201 79.9421 521.295L78.0036 523.246C65.0129 536.427 48.7315 549.185 40.6459 566.237C32.9212 582.524 35.3003 600.983 48.1381 613.961C52.8047 618.677 58.2606 622.279 64.181 625.001C53.6368 642.352 52.1015 665.288 63.1044 683.135C74.1196 701.049 95.306 710.431 115.709 708.988C116.339 711.538 117.306 714.027 118.596 716.394C126.682 731.244 142.78 733.177 158.039 732.382L158.633 732.351C192.981 730.376 226.033 721.783 256.124 705.073C266.558 705.777 275.867 697.214 277.903 687.82C283.39 687.618 288.906 687.159 294.533 686.517C311.224 684.597 328.331 681.006 343.047 672.535C345.303 671.239 344.258 667.808 341.75 667.746C323.824 667.337 305.879 668.578 287.983 666.633C271.555 664.866 254.05 660.34 238.742 654.187C211.225 643.105 187.623 624.297 174.602 598.243C157.739 564.518 159.275 524.011 157.44 487.375C155.409 446.819 152.908 406.3 150.235 365.786L148.938 346.368C146.345 308.515 144.192 288.264 137.617 248.974C157.44 250.741 239.794 221.133 265.402 172.693C314.001 275.738 560.249 233.567 571.173 392.208C571.265 393.554 573.399 393.18 573.479 391.896L573.68 388.275C573.778 386.489 573.864 384.734 573.925 382.991L573.974 381.248L577.846 381.297C577.846 381.78 578.537 381.951 578.708 381.437C582.359 371.083 599.754 374.422 607.325 376.881C614.145 379.101 620.567 382.514 626.334 386.728C637.912 395.18 646.897 406.569 649.869 420.795C655.527 447.822 638.303 475.351 615.441 488.39C601.026 496.611 585.228 501.919 571.405 511.234C559.197 519.454 547.821 529.087 537.962 540.029C498.911 583.386 475.938 649.147 494.415 706.37C495.828 710.743 499.553 715.734 504.495 716.443C512.654 717.618 520.819 716.425 525.4 708.657C527.185 705.624 528.029 702.162 527.84 698.749C531.008 709.612 541.271 720.358 550.739 724.394C563.632 729.905 578.164 728.26 589.54 721.153L590.977 722.217C609.478 735.819 630.145 748.223 653.851 745.721C671.025 743.905 687.887 735.165 697.386 721.391C710.015 728.48 723.508 734.131 737.428 737.984L738.908 738.388C758.052 743.599 782.473 748.376 800.345 737.795C817.507 727.636 823.207 705.446 819.183 686.927C818.693 684.719 818.082 682.572 817.329 680.492C830.247 681.177 843.14 679.942 855.396 676.156C867.916 672.285 879.861 664.847 885.861 652.792C892.632 639.153 890.827 623.655 885.781 609.765C877.714 587.484 864.736 567.662 848.583 550.396C833.042 533.772 814.302 519.674 794.822 507.919L791.538 505.956C774.009 495.51 752.859 483.265 732.143 484.072C732.205 483.803 732.254 483.553 732.284 483.29C735.422 460.226 735.061 436.709 735.795 413.455C736.468 392.067 737.238 370.679 737.74 349.279C738.553 312.888 738.29 276.344 733.538 240.209C729.324 208.142 721.74 176.871 707.899 147.513C693.373 116.669 671.496 90.3516 644.481 69.6546C587.784 26.2055 512.892 4.01602 442.202 0.260706ZM634.781 427.657C628.604 416.024 614.548 412.361 602.218 414.459C584.928 417.4 573.179 432.495 563.087 445.473C552.494 459.082 574.585 471.901 580.273 458.721L581.625 455.608C586.188 445.155 591.582 434.128 600.897 427.315C610.805 420.079 624.781 419.015 633.527 428.63C634.151 429.333 635.203 428.422 634.781 427.657Z" fill="black"></path> <path fill-rule="evenodd" clip-rule="evenodd" d="M311.117 589.676C321.655 585.382 331.049 578.22 337.924 569.07C340.315 565.89 340.933 562.532 340.431 559.462C339.868 556.006 337.82 552.875 335.031 550.777C332.236 548.667 328.731 547.627 325.349 548.159C322.407 548.618 319.484 550.227 317.166 553.566L316.682 554.233C312.597 559.756 307.276 564.282 301.209 567.205C295.361 570.019 288.823 571.333 282.053 570.569C269.166 569.113 260.285 562.153 250.842 552.697C249.674 551.499 248.5 550.269 247.325 549.016C246.585 547.884 245.551 547.156 244.408 546.771C243.135 546.349 241.698 546.373 240.377 546.832C239.111 547.273 237.973 548.117 237.209 549.23C236.487 550.294 236.078 551.603 236.212 553.113C237.074 562.911 242.2 571.657 249.484 578.526C257.576 586.153 268.303 591.431 278.395 593.284C289.52 595.321 300.854 593.859 311.117 589.676ZM410.822 372.387C409.513 356.167 384.798 352.485 382.339 368.534C380.137 382.907 382.731 396.112 389.208 409.054C395.397 421.414 410.963 415.647 412.137 404.387C413.715 389.299 411.636 382.473 410.822 372.387ZM222.671 365.207C219.222 360.693 214.273 357.617 208.28 359.36C189.686 364.797 195.13 391.213 201.674 404.075C205.221 411.054 216.72 412.827 221.925 406.681C230.39 396.65 234.444 376.626 223.686 366.748C223.392 366.241 223.069 365.727 222.671 365.207Z" fill="black"></path> <path d="M260.457 492.333C254.182 490.468 248.598 487.477 244.365 483.092C240.555 479.141 237.834 474.065 236.714 467.63C235.717 461.887 236.8 456.261 239.344 451.123C242.09 445.594 246.549 440.646 251.889 436.793C262.58 429.08 276.738 425.845 287.686 430.744C288.457 431.087 288.971 431.612 289.295 432.212C289.643 432.854 289.766 433.606 289.668 434.353C289.57 435.08 289.27 435.802 288.805 436.389C288.34 436.988 287.717 437.447 287.007 437.686C284.854 438.395 282.72 438.995 280.61 439.582C275.014 441.141 269.601 442.615 264.53 446.316C260.934 448.946 256.659 452.75 254.53 457.129C253.111 460.034 252.671 463.202 254.268 466.407C257.295 472.493 263.142 474.841 269.79 475.331C280.781 476.149 294.017 471.981 302.195 469.406L302.414 469.337C302.714 469.239 303.007 469.147 303.295 469.055C305.441 468.383 308.108 468.578 310.457 469.532C312.72 470.45 314.64 472.058 315.588 474.126L315.596 474.144C315.936 474.897 316.281 475.661 316.56 476.438C317.557 479.202 317.117 481.912 315.808 484.217C314.371 486.743 311.876 488.756 309.203 489.746C296.328 494.517 276.219 497.012 260.457 492.333Z" fill="black"></path> <path d="M381.667 296.349L384.647 296.558C394.288 297.226 404.027 299.845 413.032 303.289C429.903 309.736 447.29 321.368 457.217 336.688C458.292 338.354 456.623 340.949 454.613 339.883C439.31 331.762 424.758 324.431 407.503 321.369C399.637 319.978 391.879 319.448 383.899 319.809C374.217 320.252 365.6 323.685 356.9 318.014C351.951 314.798 352.387 307.504 355.385 303.303C361.043 295.367 372.453 295.711 381.667 296.349Z" fill="black"></path> <path d="M238.895 297.274L241.191 297.32C243.892 297.38 246.438 298.184 248.516 299.622C250.549 301.037 252.14 303.055 252.992 305.653C254.117 309.103 253.788 311.712 252.19 314.895C250.954 317.357 249.094 319.001 246.913 320.004C244.615 321.055 241.93 321.368 239.278 321.092C227.047 319.814 214.727 319.8 202.482 320.957C196.72 321.495 191.177 322.733 185.615 324.054L180.841 325.215C176.408 326.257 171.87 327.206 166.372 327.402C165.991 327.423 165.551 327.431 165.112 327.432C163.78 326.663 163.664 326.061 163.456 325.594L163.37 325.418C163.116 324.872 162.798 324.055 163.961 320.83C180.567 299.904 213.837 296.897 238.895 297.274Z" fill="black"></path> <path d="M27.9179 932.111C36.5866 931.928 36.5866 945.401 27.9179 945.584C21.2889 945.727 14.7714 947.624 8.38137 949.225C-0.0324106 951.329 -3.61779 938.342 4.79599 936.238C12.3652 934.342 20.0778 932.278 27.9179 932.111Z" fill="white"></path> <path d="M211.273 1191.26C225.074 1204.52 216.381 1213.41 202.58 1200.14C192.025 1190 180.514 1181.18 169.395 1172.37C154.758 1160.76 157.478 1146.66 172.115 1158.27C185.286 1168.71 198.791 1179.26 211.273 1191.26Z" fill="white"></path> <path d="M891.353 911.224C905.153 924.491 896.46 933.375 882.66 920.107C872.104 909.963 860.594 901.148 849.475 892.334C834.837 880.726 837.558 866.626 852.195 878.234C865.365 888.674 878.87 899.225 891.353 911.224Z" fill="white"></path> <path d="M378.565 1599.56C388.386 1592.27 395.656 1602.35 385.835 1609.64C378.327 1615.22 371.892 1622.02 365.444 1628.49C356.951 1637.01 345.84 1630.25 354.333 1621.73C361.972 1614.07 369.684 1606.16 378.565 1599.56Z" fill="white"></path> <path d="M619.456 1364.19C631.685 1363.98 631.722 1376.41 619.492 1376.62C610.14 1376.78 600.949 1378.55 591.938 1380.06C580.074 1382.03 574.98 1370.07 586.845 1368.09C597.519 1366.31 608.395 1364.37 619.456 1364.19Z" fill="white"></path> <path d="M271.415 1364.19C283.645 1363.98 283.681 1376.41 271.451 1376.62C262.099 1376.78 252.909 1378.55 243.898 1380.06C232.033 1382.03 226.94 1370.07 238.805 1368.09C249.478 1366.31 260.354 1364.37 271.415 1364.19Z" fill="white"></path> <path d="M179.404 1556.21C191.634 1556.01 191.67 1568.43 179.44 1568.64C170.088 1568.8 160.898 1570.58 151.887 1572.08C140.022 1574.05 134.929 1562.09 146.794 1560.11C157.468 1558.33 168.343 1556.4 179.404 1556.21Z" fill="white"></path> <path d="M811.478 1676.22C823.708 1676.02 823.744 1688.45 811.514 1688.65C802.162 1688.81 792.972 1690.59 783.961 1692.09C772.096 1694.07 767.003 1682.1 778.868 1680.13C789.542 1678.35 800.417 1676.41 811.478 1676.22Z" fill="white"></path> <path d="M574.59 1557.23C576.448 1545.14 588.706 1547.2 586.848 1559.29C585.429 1568.53 585.632 1577.89 585.596 1587.02C585.544 1599.05 572.891 1602.06 572.943 1590.03C572.986 1579.21 572.911 1568.16 574.59 1557.23Z" fill="white"></path> <path d="M54.5291 1745.25C56.3875 1733.16 68.6452 1735.22 66.7867 1747.31C65.3686 1756.55 65.5713 1765.91 65.5355 1775.05C65.4836 1787.07 52.8305 1790.08 52.8824 1778.05C52.9255 1767.23 52.8497 1756.18 54.5291 1745.25Z" fill="white"></path> <path d="M344.938 1050.36C353.797 1041.92 362.242 1051.04 353.383 1059.48C346.611 1065.93 341.053 1073.46 335.441 1080.67C328.05 1090.16 316.198 1084.8 323.59 1075.31C330.237 1066.77 336.927 1057.98 344.938 1050.36Z" fill="white"></path> <path d="M249.01 819.252C260.436 814.887 264.711 826.558 253.285 830.923C244.549 834.264 236.516 839.069 228.559 843.557C218.08 849.462 209.21 839.952 219.688 834.047C229.114 828.731 238.677 823.201 249.01 819.252Z" fill="white"></path> <path d="M617.226 863.593C627.144 870.752 619.732 880.729 609.814 873.57C602.227 868.099 593.803 864.019 585.685 859.828C575 854.307 578.084 841.673 588.77 847.195C598.386 852.159 608.255 857.121 617.226 863.593Z" fill="white"></path> <path d="M824.475 1390.79C840.642 1378.92 847.912 1389 831.745 1400.87C819.384 1409.95 808.179 1420.19 797.053 1430.03C782.401 1442.99 768.665 1438.13 783.317 1425.17C796.497 1413.5 809.855 1401.52 824.475 1390.79Z" fill="white"></path> <path d="M16.7987 1405.53C6.97783 1398.24 -0.292501 1408.32 9.52836 1415.61C17.0367 1421.19 23.4714 1427.99 29.9194 1434.46C38.4123 1442.98 49.5232 1436.22 41.0302 1427.7C33.392 1420.03 25.6799 1412.13 16.7987 1405.53Z" fill="white"></path> <path d="M372.537 1787.33C386.337 1800.59 377.644 1809.48 363.844 1796.21C353.288 1786.07 341.778 1777.25 330.659 1768.44C316.022 1756.83 318.742 1742.73 333.379 1754.34C346.55 1764.78 360.054 1775.33 372.537 1787.33Z" fill="white"></path> <path fill-rule="evenodd" clip-rule="evenodd" d="M258.547 1387.7C256.268 1393.14 234.981 1391.31 234.516 1384.9C233.822 1375.32 262.507 1378.26 258.547 1387.7ZM281.157 1384.15C293.219 1385.13 313.038 1393.32 324.663 1388.37C342.406 1380.82 323.774 1369.22 314.257 1365.75C304.571 1362.23 290.145 1364.1 285.166 1353.98C281.419 1346.36 290.677 1325.11 279.192 1328.52C267.14 1332.11 270.645 1362.56 251.733 1352.29C242.713 1347.4 246.393 1317.56 231.284 1332.81C227.149 1336.97 226.788 1344.63 221.311 1347.74C215.723 1350.91 208.713 1347.61 202.813 1347.88C187.192 1348.61 182.216 1363.22 198.043 1369.02C203.901 1371.16 225.982 1373.78 212.606 1383.35C204.178 1389.38 185.455 1376.73 178.218 1387.23C168.27 1401.64 194.917 1401.97 202.074 1406.28C214.203 1413.58 204.185 1430.64 205.152 1442.79C206.633 1461.35 217.418 1457.47 221.336 1441.76C224.659 1428.44 220.541 1409.25 240.636 1414.55C273.362 1423.17 222.439 1464.71 246.411 1475.34C261.695 1482.12 263.859 1445.48 265.046 1439.17C269.44 1415.89 282.522 1421.32 302.341 1422.04C325.493 1422.87 331.082 1405.75 306.564 1400.84C298.741 1399.28 287.981 1401.26 281.188 1396.27C277.168 1393.33 271.643 1383.38 281.157 1384.15Z" fill="white"></path> <path fill-rule="evenodd" clip-rule="evenodd" d="M634.049 1805.11C630.653 1800.29 643.506 1783.22 649.185 1786.23C657.67 1790.73 639.953 1813.48 634.049 1805.11ZM625.058 1826.15C617.823 1835.86 600.358 1848.3 598.38 1860.78C595.361 1879.83 615.079 1870.19 623.069 1863.97C631.199 1857.63 637.272 1844.41 648.495 1845.57C656.937 1846.44 670.034 1865.57 673.237 1854.02C676.598 1841.91 648.934 1828.71 667.674 1818.13C676.613 1813.09 699.94 1832.05 695.046 1811.15C693.709 1805.43 687.413 1801.06 687.686 1794.77C687.963 1788.35 694.489 1784.17 697.387 1779.02C705.061 1765.4 695.324 1753.42 682.01 1763.76C677.081 1767.58 663.138 1784.9 662.13 1768.49C661.497 1758.14 682.159 1749 677.108 1737.29C670.174 1721.21 655.75 1743.61 648.295 1747.39C635.666 1753.79 626.529 1736.24 615.722 1730.61C599.207 1722.01 596.768 1733.21 607.998 1744.87C617.527 1754.76 635.97 1761.46 620.812 1775.68C596.126 1798.83 587.967 1733.62 566.232 1748.29C552.374 1757.64 582.269 1778.93 586.985 1783.28C604.382 1799.37 592.832 1807.57 581.703 1823.99C568.704 1843.16 580.246 1856.99 597.421 1838.82C602.9 1833.02 606.938 1822.85 614.766 1819.74C619.395 1817.9 630.763 1818.5 625.058 1826.15Z" fill="white"></path> </svg> 