<?xml version="1.0" encoding="UTF-8"?> <svg xmlns="http://www.w3.org/2000/svg" width="2380" height="1859" viewBox="0 0 2380 1859" fill="none"> <path fill-rule="evenodd" clip-rule="evenodd" d="M561.801 920.258C612.577 956.344 670.817 980.995 723.877 1013.49C737.158 1021.63 778.535 1038.52 778.135 1053.61C777.901 1062.43 765.467 1073.49 760.022 1079.6C750.694 1090.08 741.919 1100.66 733.311 1111.74C693.911 1162.48 656.806 1213.7 614.104 1261.89C607.674 1269.13 588.307 1303.74 582.054 1286.55C579.22 1278.76 581.555 1270 574.168 1262.74C570.367 1258.99 555.676 1256.93 559.956 1248.9C562.807 1250.19 565.663 1251.47 568.518 1252.75C566.3 1246.34 566.463 1239.31 563.14 1233.24C561.075 1229.48 557.04 1227.69 555.641 1223.45C553.707 1217.59 556.987 1210.78 556.438 1204.73C555.896 1198.71 552.775 1193.01 550.911 1187.33C539.862 1153.63 535.898 1119.65 530.241 1084.88C524.643 1050.48 515.925 1017.15 512.503 982.36C508.886 945.615 504.454 908.944 498.542 872.494C509.095 873.975 517.208 885.449 524.672 891.935C536.405 902.129 549.144 911.263 561.801 920.258ZM521.997 1276C519.574 1274.1 517.679 1271.76 516.311 1268.98C541.198 1256.65 526.181 1277.69 521.997 1276ZM506.863 1249.69C496.016 1252.68 488.222 1253.29 479.858 1248.82C479.065 1248.4 479.979 1245.14 478.548 1244.47C477.297 1243.89 475.388 1244.61 474.318 1244.06C470.676 1242.21 464.299 1246.27 463.679 1239.17C477.524 1234.93 491.138 1227.11 505.754 1225.79C526.067 1223.96 525.129 1244.65 506.863 1249.69ZM459.336 1208.79C444.536 1212.25 432.342 1220.34 416.617 1218.23C401.855 1216.25 389.027 1208.59 377.383 1199.77C406.513 1191.52 437.061 1190.03 466.166 1182.04C475.643 1179.45 488.095 1172.59 498.308 1175.36C509.655 1178.43 510.37 1189.06 513.771 1198.73C495.612 1202 477.315 1204.59 459.336 1208.79ZM366.766 1167.73C352.546 1171.13 338.011 1178.56 326.122 1165.74C324.202 1163.67 322.523 1165.73 322.749 1159.36C322.987 1152.63 329.087 1148.3 334.334 1145.93C346.669 1140.37 363.96 1143.97 377.06 1143.15C397.958 1141.85 419.228 1137.5 439.898 1134.16C454.21 1131.84 468.993 1126.7 483.621 1127.72C494.914 1128.5 508.539 1138.13 492.08 1145.15C477.092 1151.56 454.618 1150.57 438.379 1153.35C414.374 1157.44 390.455 1162.07 366.766 1167.73ZM352.875 1100.8C353.796 1101.74 354.717 1102.68 355.638 1103.62C355.486 1103.58 361.09 1099.04 362.575 1098.91C369.784 1098.28 377.036 1098.78 384.255 1098.37C400.891 1097.43 417.658 1094.53 433.996 1091.34C447.306 1088.74 460.863 1084.25 474.562 1085.38C486.423 1086.35 487.67 1088.78 488.445 1100.23C458.171 1100.23 426.986 1099.59 397.232 1106.01C377.861 1110.18 356.513 1122.6 346.81 1100.2C348.833 1100.4 350.853 1100.6 352.875 1100.8ZM371.803 1052.32C379.31 1058.04 399.775 1048.52 408.773 1047.57C418.544 1046.54 427.737 1045.46 437.206 1043.03C445.602 1040.87 473.379 1030.07 479.819 1040.4C489.693 1056.21 449.715 1059.12 443.377 1059.9C416.797 1063.19 389.219 1066.1 363.354 1073.08C366.171 1066.16 368.987 1059.24 371.803 1052.32ZM408.263 998.586C410.205 1005.9 470.315 978.954 471.409 998.536C472.252 1013.56 411.937 1021.05 401.093 1019.73C403.633 1012.81 410.389 1006.61 408.263 998.586ZM428.445 952.626C429.724 937.877 431.701 937.963 443.522 936.573C452.538 935.513 464.93 930.225 462.585 946.302C460.576 960.069 427.159 967.509 428.445 952.626ZM449.931 901.88C452.775 893.962 459.177 904.62 459.311 908.647C459.669 919.362 451.55 917.043 443.735 917.043C445.91 912.039 447.979 906.977 449.931 901.88ZM548.864 842.444C547.27 840.523 538.321 839.79 535.774 838.857C529.511 836.561 530.4 831.666 522.387 836.493C521.986 836.089 522.748 832.46 522.312 832.293C522.093 832.208 516.478 830.089 514.653 828.919C510.25 826.098 506.282 823.336 502.237 819.796C497.936 816.035 493.628 810.577 488.715 807.582C486.642 806.32 484.949 804.53 482.451 804.144C475.972 803.144 477.828 807.66 472.164 808.556C468.674 809.109 466.134 805.033 461.572 806.791C457.629 808.308 455.34 813.841 453.583 817.134C447.196 829.117 442.268 842.016 436.016 854.127C404.041 916.058 367.697 975.639 336.725 1038.15C321.807 1068.26 306.241 1098.58 295.741 1130.59C288.171 1153.67 271.074 1187.39 285.783 1210.45C296.478 1227.22 317.893 1234.46 334.978 1242.56C360.687 1254.75 384.386 1270.69 410.378 1282.51C441.372 1296.61 471.47 1311.35 501.681 1327.09C514.565 1333.8 526.192 1343.47 539.033 1349.83C546.887 1353.72 559.017 1347.09 561.575 1356C571.419 1344.07 587.354 1352.02 598.743 1343.62C605.442 1338.68 610.338 1328.95 615.924 1322.86C624.306 1313.74 633.404 1305.28 641.955 1296.31C675.897 1260.71 707.238 1223.63 738.118 1185.39C767.613 1148.87 802.072 1114.37 826.987 1074.39C836.881 1058.53 838.674 1041.88 832.145 1024.35C827.376 1011.57 815.891 992.256 799.486 1000.72C805.707 990.388 781.709 979.351 774.429 977.33C774.32 977.302 772.885 985.241 770.855 985.043C771.577 985.114 764.755 967.452 761.758 965.187C752.859 958.449 742.032 950.588 732.322 945.041C723.416 939.954 714.018 937.434 705.392 931.742C694.934 924.845 685.334 916.664 674.837 909.813C664.702 903.199 653.405 895.38 642.203 890.833C632.49 886.888 623.768 886.115 615.028 879.65C604.216 871.65 594.786 866.224 582.316 860.712C571.529 855.945 556.58 851.78 548.864 842.444Z" fill="black"></path> <path fill-rule="evenodd" clip-rule="evenodd" d="M82.5169 1271.54C80.2377 1276.98 58.9541 1275.15 58.4884 1268.74C57.7952 1259.16 86.4767 1262.09 82.5169 1271.54ZM105.124 1267.99C117.185 1268.97 137.002 1277.16 148.626 1272.21C166.366 1264.65 147.736 1253.06 138.22 1249.6C128.536 1246.07 114.111 1247.94 109.133 1237.82C105.386 1230.21 114.643 1208.95 103.16 1212.37C91.1087 1215.95 94.6133 1246.4 75.7035 1236.14C66.6846 1231.24 70.3644 1201.41 55.2569 1216.65C51.1221 1220.82 50.7614 1228.47 45.2856 1231.58C39.6977 1234.76 32.6884 1231.45 26.7889 1231.73C11.1703 1232.46 6.19515 1247.06 22.0204 1252.86C27.8778 1255 49.956 1257.62 36.5816 1267.19C28.1544 1273.22 9.43376 1260.57 2.19688 1271.06C-7.74989 1285.48 18.8938 1285.8 26.0502 1290.12C38.1782 1297.42 28.1615 1314.47 29.1278 1326.62C30.6088 1345.18 41.3924 1341.3 45.3101 1325.6C48.6327 1312.27 44.5153 1293.09 64.6084 1298.38C97.3301 1307.01 46.413 1348.54 70.3819 1359.17C85.6645 1365.94 87.828 1329.31 89.0149 1323.01C93.4089 1299.72 106.489 1305.16 126.306 1305.87C149.455 1306.7 155.043 1289.58 130.528 1284.68C122.706 1283.11 111.947 1285.09 105.155 1280.11C101.136 1277.17 95.6111 1267.22 105.124 1267.99Z" fill="black"></path> <path fill-rule="evenodd" clip-rule="evenodd" d="M1202.93 418.136C1201.03 449.275 1199.13 480.41 1197.23 511.55C1209.45 508.021 1287.17 485.081 1282.37 508.339C1278.92 525.022 1257.07 543.068 1245.94 554.682C1235.7 565.375 1225.14 575.79 1214.33 585.9C1234.21 578.263 1254.26 571.032 1274.46 564.268C1289.74 559.148 1305.13 554.153 1320.79 550.315C1326.6 548.89 1342.3 543.076 1347.79 547.04C1362.21 557.458 1283.93 634.181 1273.2 644.996C1288.37 637.921 1303.9 631.495 1319.69 625.98C1331.09 622 1366.31 606.784 1376.4 619.778C1387.2 633.679 1360.45 665.599 1353.03 675.72C1342.4 690.223 1330.88 704.135 1318.79 717.44C1369.03 762.708 1428.07 803.002 1490.91 828.044C1536.98 846.409 1582.24 851.083 1630.85 841.006C1680.8 830.653 1728.69 810.797 1774.23 788.096C1800.97 774.762 1827.36 760.334 1852.49 744.127C1842.13 731.481 1832.07 718.571 1822.29 705.464C1808.34 686.751 1791.19 666.304 1783.24 644.027C1775.45 622.224 1804.66 626.48 1818.67 627.666C1838.96 629.38 1859.2 633.018 1879.08 637.37C1865.03 627.56 1851.22 617.358 1837.69 606.825C1820.06 593.096 1796.54 577.575 1785 557.825C1774.85 540.459 1797.13 544.844 1807.43 547.118C1831.98 552.546 1855.87 561.792 1879.29 570.811C1896.44 577.416 1913.49 584.334 1930.37 591.619C1919.89 582.481 1909.76 572.906 1900.03 562.98C1886.95 549.638 1869.31 533.341 1863.44 514.968C1851.5 477.548 1931.84 505.774 1945.56 511.55C1943.03 472.787 1940.5 434.024 1937.96 395.261C1831.58 423.658 1725.19 452.059 1618.8 480.459C1607.3 483.529 1592.92 490.212 1580.92 490.568C1570.06 490.895 1556.95 485.989 1546.36 483.961L1353.84 447.061C1303.54 437.418 1253.23 427.778 1202.93 418.136Z" fill="#FFDD00"></path> <path fill-rule="evenodd" clip-rule="evenodd" d="M2346.37 1751.39C2334.88 1757.99 2321.43 1763.08 2308.67 1766.49C2301.17 1768.5 2288.79 1774.7 2282.21 1769.02C2279.05 1766.29 2278.32 1760.1 2276.46 1756.51C2273.51 1750.82 2269.31 1745.92 2265.38 1740.89C2255.85 1728.72 2245.94 1716.98 2235.57 1705.53C2230.66 1700.1 2221.68 1687.44 2213.02 1688.27C2202.22 1689.31 2202.48 1704.29 2205.19 1711.95C2213.8 1736.33 2239.87 1757.58 2256.9 1775.95C2252.57 1782.63 2228.79 1781.84 2222.19 1780.27C2212.11 1777.89 2211.09 1770.68 2206.49 1762.45C2195.72 1743.2 2173.89 1732.42 2155.94 1721.11C2149.4 1716.98 2135.49 1705.54 2126.97 1708.42C2118.89 1711.15 2119.23 1721.5 2121.81 1728.26C2125.7 1738.48 2136.76 1745.57 2144.94 1752.03C2155.84 1760.64 2165.82 1770.01 2174.9 1780.55C2161.8 1781.62 2148.75 1783.48 2135.68 1784.56C2119.88 1785.86 2106.71 1777.16 2092.16 1772.23C2078.64 1767.65 2065.17 1763.78 2051.88 1758.5C2036.96 1752.57 2021.32 1750.5 2006.27 1745.3C1947.18 1724.89 1889.29 1699.22 1832.36 1673.34C1805.23 1661 1778.66 1648.67 1750.39 1639.01C1729.79 1631.98 1697.42 1617.96 1692.49 1593.34C1689.89 1580.34 1699.36 1566.35 1700.76 1553.36C1702.4 1538.07 1701.11 1521.25 1696.47 1506.58C1692.37 1493.66 1685.59 1481.69 1680.25 1469.28C1674.02 1454.82 1679.6 1455.06 1691.69 1453.41C1706.17 1451.45 1723.06 1443.27 1736.67 1437.95C1752.34 1431.81 1767.88 1423.24 1782.24 1414.42C1795.22 1406.45 1806.52 1396.17 1816.86 1385.01C1827.38 1373.66 1834.18 1360.21 1844.35 1348.58C1881.87 1394.87 1917.54 1441.86 1957.41 1486.15C1976.22 1507.06 1996.69 1524.34 2019.88 1540.24C2029.56 1546.88 2039.17 1554.46 2049.72 1559.71C2062.91 1566.28 2077.66 1570.35 2091.22 1576.35C2143.21 1599.33 2192.82 1624.45 2241.33 1654.1C2264.79 1668.44 2284.48 1684.88 2305.14 1702.88C2311.58 1708.48 2364.26 1741.12 2346.37 1751.39ZM1736.49 1372.16C1728.08 1375.98 1720.08 1380.94 1711.11 1383.39C1713.65 1367.88 1728.08 1344.48 1746.58 1347.06C1753.65 1348.04 1758.98 1353.55 1755.88 1361.14C1753.05 1368.03 1742.47 1369.45 1736.49 1372.16ZM1151.68 951.475C1142.15 956.751 1133.28 959.821 1127.69 948.499C1131.83 947.667 1150.62 945.153 1151.68 951.475ZM1135.82 919.463C1128.46 917.224 1134.34 914.869 1136.88 912.169C1138.85 910.065 1145.38 902.688 1147.67 901.47C1157.77 896.105 1165.57 916.068 1170.4 922.549C1158.97 921.528 1146.94 922.849 1135.82 919.463ZM1214.52 988.585C1200.57 990.958 1202.12 973.447 1202.53 964.576C1205.48 968.179 1225.4 986.738 1214.52 988.585ZM1260.76 958.341C1243.75 961.22 1232.51 931.741 1235.56 918.847C1238.24 907.487 1251.42 901.144 1261.92 899.469C1272.09 897.844 1286.25 900.061 1289.27 911.829C1291.94 922.228 1272.09 956.422 1260.76 958.341ZM1663.38 1403.36C1651.16 1407.13 1639.18 1407.6 1626.9 1411.3C1612.96 1415.5 1600.06 1415.12 1586.09 1417.98C1580.41 1419.14 1565.08 1427.45 1559.54 1425.59C1554.04 1423.75 1546.1 1406.66 1542.94 1402.22C1567.65 1391.91 1588.74 1378.61 1605.02 1356.9C1617.98 1339.63 1631.86 1313.76 1623.72 1291.48C1614.53 1266.35 1582.85 1260.9 1561.73 1271.4C1551.74 1276.36 1541.83 1282.53 1533.59 1290.09C1524.18 1298.74 1520.47 1308.18 1514.37 1318.84C1508.2 1329.62 1503.87 1323.62 1497.7 1314.47C1492.43 1306.64 1493.12 1298.73 1486.54 1291.01C1483.18 1287.07 1477.97 1283.26 1476.22 1278.17C1475.11 1274.95 1477.45 1269.22 1475.34 1266.68C1472.38 1263.11 1468.77 1267.31 1466.29 1264.12C1464.48 1261.81 1465.07 1256.53 1463.21 1253.63C1461.59 1251.98 1459.8 1250.58 1457.81 1249.41C1455.4 1248.22 1454.96 1246.72 1456.49 1244.92C1454.57 1241.36 1456.42 1240.16 1452.31 1235.83C1445.91 1229.08 1440.07 1222.61 1435.52 1214.64C1433.44 1210.99 1433.64 1205.58 1431.05 1202.42C1427.5 1198.09 1421.59 1198.74 1418.54 1193.37C1415.82 1188.59 1417.64 1180.23 1413.15 1175.89C1410.79 1175.21 1408.42 1174.54 1406.06 1173.89C1404.28 1172.15 1403.24 1170.05 1402.94 1167.57C1400.45 1163.72 1399.96 1159.21 1396.81 1155.14C1390.8 1147.37 1382.7 1140.19 1377.38 1132C1371.8 1123.38 1374.76 1121.93 1384.47 1118.85C1393.22 1116.07 1401.22 1113.49 1409.33 1108.75C1446.85 1086.85 1482.41 1028.75 1422.87 1011C1400.77 1004.42 1382.61 986.703 1358.11 993.664C1347.49 996.686 1337.41 1003.11 1329.49 1010.74C1324.01 1016.01 1318.94 1030.11 1312.22 1032.81C1300.13 1037.66 1305.24 1025.53 1301.81 1019.96C1300.17 1017.3 1293.58 1014.23 1291.14 1011.81C1288.27 1008.97 1285.5 1005.39 1283.51 1001.88C1279.81 995.365 1277.55 991.733 1272.22 986.427C1270.21 984.424 1260.18 974.076 1269.23 975.429C1265.56 964.225 1270.91 962.54 1278.3 954.356C1286.98 944.745 1295.94 931.39 1295.99 917.923C1296.09 892.068 1265.55 880.484 1246.37 895.829C1242.46 898.954 1219.38 929.1 1224.1 909.874C1226.65 899.507 1250.23 872.437 1261.16 879.441C1248.91 861.53 1220.77 905.021 1214.2 913.919C1208.61 903.59 1208.21 895.508 1198.96 887.51C1191.42 899.631 1195.4 886.384 1193.74 883.692C1190.15 877.875 1192.12 884.526 1190.18 882.46C1187.75 879.887 1183.94 877.859 1181.36 874.451C1176.94 880.462 1178.71 873.995 1177.35 871.751C1174.19 866.499 1175.41 863.458 1169.99 858.892C1166.05 855.573 1158.27 850.418 1152.96 849.946C1146.84 849.4 1145.14 851.755 1138.9 850.013C1130.96 847.799 1120.97 844.397 1124.82 857.717C1127.61 867.395 1138.95 872.896 1141.43 882.784C1143.94 892.738 1134.12 902.769 1129.36 910.93C1123.25 921.399 1118.25 920.545 1107.18 922.905C1100.1 924.415 1090.66 927.642 1096.73 936.253C1101.06 942.407 1111.22 941.111 1116.94 944.756C1124.96 949.865 1124.85 962.465 1135.09 964.657C1146.37 967.072 1152.83 954.475 1162.34 951.431C1169.1 949.268 1190.05 949.509 1195.37 954.604C1202.63 961.541 1196.36 974.802 1198.18 983.422C1200.9 996.208 1209.52 996.988 1220.43 997.399C1233.85 997.901 1238.57 1010.83 1245.79 1021.09C1262.7 1045.11 1277.4 1070.72 1294.72 1094.42C1302.39 1104.92 1313.6 1114.26 1319.88 1125.65C1327.63 1139.71 1316.87 1147.83 1307.58 1157.92C1295.45 1171.12 1286.38 1186.13 1275.86 1200.55C1266.5 1213.37 1254.88 1210.18 1239.93 1210.18C1243.26 1203.29 1247.27 1198.99 1255.46 1199.83C1246.89 1189.33 1240.04 1201.34 1234.48 1207.99C1226.44 1217.61 1215.95 1219.93 1205.62 1226.25C1201.97 1228.49 1182.06 1243 1188.11 1247.95C1188.79 1248.51 1221.75 1226.76 1225.5 1224.77C1225.5 1232.8 1223.75 1241.14 1224.87 1249.12C1225.69 1254.98 1229.8 1261.08 1228.92 1267.17C1227.27 1278.66 1212.46 1287.71 1206.11 1296.66C1201.33 1303.4 1202.48 1308.71 1200.05 1315.94C1197.83 1322.54 1198.99 1320.54 1193.46 1322.58C1182.2 1326.73 1163.24 1324.49 1153.04 1318.59C1146.71 1314.93 1141.86 1309.14 1136.71 1304.04C1132.84 1300.19 1123.1 1293.62 1122.02 1288.24C1120.17 1278.97 1138.51 1261.76 1142.14 1252.2C1152.39 1225.22 1134.81 1204.25 1107.46 1202.72C1115.89 1196.2 1126.34 1201.11 1135.22 1203.6C1120.03 1182.49 1094.09 1199.86 1081.2 1214.21C1072.4 1191.89 1068.15 1168.33 1062.77 1145.05C1059.11 1129.19 1045.16 1100.9 1051.38 1084.58C1054.39 1076.68 1062.88 1072.28 1068.75 1066.81C1075.43 1060.59 1081.14 1053.16 1086.02 1045.46C1097.51 1027.33 1104.15 1004.44 1088.32 986.576C1093.13 985.782 1097.94 984.991 1102.75 984.197C1094.93 976.825 1082.59 980.416 1072.44 978.232C1066 976.844 1047.47 977.743 1043.17 974.087C1038 969.691 1041.31 949.466 1041.5 943.479C1041.93 929.491 1043.09 916.041 1044.63 902.135C1046.09 889 1045.8 874.808 1048.5 861.903C1050.7 851.431 1057.72 848.239 1065.82 842.069C1085.18 827.312 1100.95 809.363 1094.34 783.932C1096.69 783.559 1099.03 783.186 1101.37 782.814C1093.79 777.319 1083.99 779.317 1075.57 776.411C1083.3 754.566 1100.42 716.162 1128.2 714.094C1129.16 723.861 1128.5 735.475 1135.07 743.559C1142.55 752.762 1155.67 753.691 1165.8 748.822C1175 744.399 1183.62 735.029 1187.86 725.773C1190.73 719.505 1190.21 708.909 1195.24 703.943C1201.99 697.279 1248.5 701.3 1247.08 712.544C1246.24 719.154 1233.8 730.266 1230.33 736.125C1223.96 746.848 1218.87 758.446 1216.53 770.762C1212.99 789.464 1215.04 814.153 1233.97 823.985C1255.51 835.17 1281.75 820.95 1299.4 808.664C1309.1 801.918 1318.49 794.474 1327.35 786.654C1332.07 782.495 1336.81 778.207 1340.97 773.476C1344.04 769.984 1346.49 764.352 1350.27 761.735C1359.2 755.557 1367.95 766.039 1375.51 771.335C1387.81 779.962 1400.06 788.152 1413.27 795.332C1440.07 809.898 1464.58 829.194 1488.29 848.353C1512.12 867.625 1536.71 887.45 1556.02 911.461C1544.32 918.677 1546.41 920.553 1541.2 933.428C1537.51 942.564 1532.42 950.34 1531.84 960.494C1530.82 978.013 1542.03 992.943 1559.05 996.823C1568.57 998.992 1577.64 997.255 1586.45 993.351C1593.3 990.318 1600.13 982.849 1607.29 980.994C1620.6 977.551 1631.25 1002.77 1638.71 1011.66C1671.84 1051.11 1706.86 1089.01 1738.06 1130.07C1741.51 1134.62 1751.78 1143.5 1752.61 1149.53C1753.81 1158.17 1740.25 1166.42 1734.63 1171.37C1731.67 1173.97 1700.35 1203.53 1710.86 1208.23C1713.86 1209.57 1722.64 1191.43 1724.83 1189.88C1733.05 1184.08 1726.84 1195.46 1726.35 1201.21C1725.12 1215.51 1734.91 1223.31 1748.68 1221.49C1763.37 1219.56 1776.44 1207.93 1785.53 1196.94C1796.92 1210.17 1814.73 1230.18 1818.02 1247.86C1820.12 1259.15 1810.38 1286.8 1828.57 1289.1C1831.34 1289.45 1841.39 1281.97 1843.26 1286.22C1844.82 1289.76 1833.97 1295.82 1832.4 1296.99C1825.71 1302 1821.66 1307.37 1816.26 1313.44C1809.92 1320.57 1801.25 1326.57 1794.12 1333.39C1786.6 1340.59 1771.72 1360.12 1761.81 1350.68C1756.82 1345.94 1758.13 1339.74 1750.14 1336.96C1742.87 1334.42 1733.66 1337.63 1726.9 1340.45C1719.29 1343.61 1694.23 1355.16 1691.45 1364.66C1687.62 1377.77 1708.33 1362.01 1712.01 1359.71C1707.81 1370.4 1705.49 1385.89 1694.79 1392.12C1685.91 1397.31 1673.13 1400.35 1663.38 1403.36ZM1521.34 1322.47C1528.45 1299.55 1570.39 1258.66 1596.89 1271.45C1566 1277.94 1541.49 1299.15 1521.34 1322.47ZM1537.02 1388.14C1526.68 1382.36 1527.24 1365.57 1523.63 1355.75C1521.56 1350.12 1517.42 1346 1518.64 1339.75C1520.06 1332.42 1529.38 1324.27 1534.34 1318.99C1549.96 1302.34 1577.43 1279.6 1602.56 1283.42C1634.55 1288.28 1612.87 1331.36 1601.97 1346.19C1592.69 1358.84 1556.92 1399.27 1537.02 1388.14ZM1462.4 1360.1C1427.8 1357.78 1393.33 1354.68 1359.21 1348.31C1347.11 1346.05 1336.97 1346.38 1343.9 1332.43C1346.18 1327.82 1359.96 1298.96 1363.07 1299.79C1364.92 1300.28 1364.5 1320.12 1365.04 1322.39C1367.48 1332.6 1374.34 1342.12 1385.9 1341.47C1404.82 1340.41 1417.02 1315.87 1426.98 1302.7C1434.96 1313.46 1440.74 1325.42 1448.76 1336.01C1452.6 1341.07 1465.95 1352.84 1462.4 1360.1ZM1259.59 1223.88C1253.78 1237.24 1242.11 1249.94 1233.99 1262.05C1229.4 1252.3 1226.18 1229.93 1237.06 1222.72C1241.18 1220 1263.26 1215.43 1259.59 1223.88ZM1379.56 1263.66C1381.16 1258.52 1382.93 1253.41 1384.9 1248.41C1388.29 1259.09 1390.02 1259.41 1379.56 1263.66ZM1409.17 1274.6C1413.37 1281.74 1420.37 1288.76 1419.27 1297.73C1418.44 1304.53 1412.32 1311.49 1407.95 1316.22C1400.71 1324.05 1384.69 1339.09 1374.21 1328.69C1365.45 1320 1368.5 1296.11 1372.57 1286.34C1378.39 1272.37 1399.17 1257.6 1409.17 1274.6ZM1388.63 1259.97C1391.04 1259.01 1385.98 1243.43 1390.67 1241.88C1394.77 1251.24 1398.62 1253.77 1388.63 1259.97ZM1322.53 1050.26C1320.97 1044.51 1317.4 1044.75 1318.68 1037.64C1319.53 1032.98 1323.22 1028.01 1326.01 1024.32C1331.59 1016.95 1338.94 1010.89 1346.89 1006.29C1363.68 996.599 1386.74 992.573 1401.77 1007.75C1387.72 1009.97 1344.64 1023.89 1344.36 1043.17C1359.99 1040.15 1372.28 1024.4 1387.95 1019.44C1400.81 1015.37 1414.76 1015.66 1427.56 1019.96C1462.59 1031.72 1448.02 1062.1 1428.25 1081.82C1416.52 1093.54 1402.44 1102.28 1387.06 1108.32C1379.94 1111.11 1375.57 1111.42 1368.57 1110.01C1367.26 1109.75 1365.73 1107.31 1364.16 1106.79C1360.25 1105.49 1361.38 1109.89 1358.17 1107.91C1355.36 1106.19 1349.37 1095.08 1347.46 1091.9C1344.43 1086.83 1343.01 1081.91 1339.28 1077.29C1335.55 1072.66 1333.73 1066.46 1330.27 1062.28C1328.62 1060.26 1324.07 1060.35 1322.85 1058.38C1321.02 1055.43 1323.35 1053.28 1322.53 1050.26ZM1268.73 1276.77C1276.7 1262.89 1290.32 1251.11 1300.86 1238.98C1301.5 1258.91 1287.25 1272.56 1268.73 1276.77ZM1279.49 1283.17C1295.93 1277.37 1304.99 1263.49 1306.67 1246.65C1308.8 1225.33 1322.15 1214.14 1330.18 1194.98C1333.26 1187.64 1336.85 1163.48 1348.8 1170.39C1352.89 1172.76 1355.32 1181.69 1357.46 1185.71C1362.63 1195.46 1368.5 1204.92 1373.98 1214.49C1378.44 1222.28 1385.12 1230.12 1383.16 1239.5C1381.44 1247.68 1375.92 1256.4 1372.68 1264.11C1365.05 1282.33 1355.01 1299.11 1346.63 1316.93C1343.25 1324.12 1339.25 1341.14 1328.92 1341.06C1320.75 1340.99 1321.66 1332.02 1316.28 1328.95C1309.49 1325.07 1301.77 1332.45 1296.19 1335.51C1302.61 1324.63 1313.84 1318.46 1326.47 1320.51C1311.35 1305.41 1301.14 1325.79 1288.16 1330.33C1275.87 1334.63 1254.06 1314.35 1243.71 1308.6C1247.67 1301.87 1251.25 1293.65 1258.06 1289.22C1264.51 1285.02 1272.44 1285.66 1279.49 1283.17ZM1145.82 1421.19C1147.62 1412.5 1152.71 1407.36 1155.94 1399.46C1159.67 1409.04 1150.92 1414.68 1145.82 1421.19ZM1407.04 1474.56C1406.16 1503.84 1403.78 1533.05 1402.91 1562.34C1402.52 1575.85 1400.13 1588.74 1398.55 1602.09C1397.21 1613.38 1397.89 1624.47 1390.81 1634.12C1379.64 1649.33 1357.92 1653.7 1341.06 1659.34C1328.67 1663.47 1316.15 1667.23 1303.92 1671.82C1292.91 1675.96 1284.05 1682.23 1273.58 1687.14C1264.23 1691.54 1254.12 1694.15 1244.81 1698.84C1235.17 1703.69 1227.55 1709.59 1217.66 1713.91C1205.81 1719.08 1196.04 1728.27 1185.51 1735.56C1176.23 1741.99 1166.41 1746.95 1158.43 1755.03C1150.95 1762.6 1141.48 1765.93 1133 1772.66C1124.03 1779.78 1114.65 1784.41 1104.74 1789.99C1084.45 1801.43 1057.07 1820.97 1032.64 1809.85C1039.63 1800.9 1053.93 1792.3 1055.01 1779.97C1056.43 1763.91 1042.49 1769.82 1034.42 1774.95C1022.2 1782.72 1015.44 1792.1 1006.13 1802.45C995.252 1814.56 981.51 1806.41 968.199 1803.01C977.3 1794.79 986.328 1786.49 995.413 1778.26C1003.08 1771.31 1014.82 1763.8 1019.49 1754.19C1022.83 1747.32 1022.66 1737.9 1014.61 1734.33C1005.6 1730.34 995.405 1738.76 988.729 1743.76C971.012 1757.06 959.343 1773.93 947.709 1792.44C941.52 1802.28 938.669 1801.52 927.283 1799.55C915.218 1797.47 903.153 1795.25 890.989 1793.79C907.102 1777.18 925.111 1759.2 937.838 1739.77C941.962 1733.48 947.34 1716.89 934.777 1715.37C929.601 1714.74 919.294 1725.36 915.302 1728.22C897.85 1740.73 881.072 1756.51 869.508 1774.78C865.688 1780.81 864.491 1787.52 857.096 1788.02C847.43 1788.67 829.47 1779.42 820.145 1776.56C837.965 1754.02 855.661 1731.32 876.483 1711.45C895.614 1693.19 914.696 1679.92 937.07 1665.92C961.049 1650.9 983.386 1633.62 1005.4 1615.88C1026.47 1598.9 1048.49 1582.88 1067.89 1563.92C1106.63 1526.05 1141.15 1482.5 1169.73 1436.45C1176.41 1425.67 1182.71 1414.62 1188.15 1403.15C1193.26 1392.38 1195.62 1379.5 1202.51 1369.71C1204.9 1366.33 1208.26 1363.81 1210.38 1360.28C1212.38 1356.96 1211.7 1352.94 1214.76 1350C1221.83 1343.19 1234.69 1347.29 1241.3 1352.06C1251.92 1359.73 1260.51 1369.04 1272.18 1375.47C1283.93 1381.92 1296.63 1386.62 1309.63 1389.79C1340.01 1397.2 1370.14 1403.28 1401.09 1407.79C1397.91 1419.64 1405.73 1421.5 1408.32 1432.17C1411.47 1445.11 1407.44 1461.38 1407.04 1474.56ZM1114.46 1276.94C1107.57 1266.68 1101.42 1255.94 1094.65 1245.6C1090.52 1239.31 1085.41 1232.55 1088.94 1224.85C1094.87 1211.87 1115.82 1209.56 1127.18 1215.22C1153.02 1228.08 1129.02 1264.86 1114.46 1276.94ZM1046.07 1042.1C1043.69 1022.03 1051.34 1007.79 1069.44 997.272C1082.34 989.77 1092.72 1000.02 1090.96 1013.69C1088.28 1034.52 1066.09 1057.69 1049.16 1068.56C1048.05 1059.75 1047.11 1050.92 1046.07 1042.1ZM1043.31 984.68C1048.64 980.427 1062.94 985.852 1069.13 986.222C1060.62 993.68 1052.11 1001.14 1043.61 1008.59C1043.05 1003.47 1038.38 988.604 1043.31 984.68ZM1072.01 790.858C1115.06 785.244 1065.51 831.587 1053.03 838.85C1055.06 828.989 1060.05 792.421 1072.01 790.858ZM1186.61 709.722C1180.83 733.474 1135.9 759.386 1135.43 720.48C1135.25 705.982 1143.37 707.157 1155.22 705.763C1161.98 704.972 1189.92 696.145 1186.61 709.722ZM1031.4 746.505C1026.35 759.788 1022.3 773.414 1017.36 786.713C1015.17 792.602 1012.59 796.647 1008.51 801.313C1005.1 805.215 1001.03 806.201 1001.17 812.366C1005.45 811.537 1008.79 808.977 1012.25 806.512C1011.41 818.736 1007.11 831.892 1005.02 844.076C1002.52 858.687 1000.44 873.304 999.669 888.12C997.995 920.34 997.981 952.441 998.687 984.68C999.047 1001.11 999.209 1017.54 1000.09 1033.95C1000.53 1042.11 1001.03 1050.31 1002.04 1058.42C1002.45 1061.7 1004.82 1068.67 1003.35 1071.74C997.602 1083.79 972.132 1050.69 961.071 1055.55C962.662 1046.38 958.993 1048.39 952.863 1043.88C949.894 1041.69 947.962 1037.97 944.866 1036.02C943.929 1035.01 942.898 1034.11 941.773 1033.32C940.494 1031.57 939.143 1031.76 937.725 1033.88C925.261 1026.41 922.042 1010.48 915.353 999.767C911.913 994.258 908.588 993.399 908.001 985.782C907.493 979.145 908.489 972.383 908.219 965.719C907.915 958.201 907.476 949.911 905.374 942.631C902.935 934.179 899.579 934.87 893.04 930.366C895.054 929.481 896.383 927.998 897.027 925.913C894.938 926.286 888.593 928.881 887.016 927.015C883.915 923.351 891.231 922.862 893.153 921.399C884.951 917.745 886.717 914.742 889.678 908.048C890.515 906.153 891.315 903.323 892.028 901.727C893.584 898.235 894.48 900.447 894.994 896.11C895.482 891.976 891.829 883.848 890.752 879.444C888.949 872.056 887.95 865.672 889.57 857.974C890.884 851.742 894.418 846.098 894.663 839.69C894.733 837.889 892.001 837.292 891.963 835.556C891.91 833.015 894.273 831.9 894.887 829.553C896.456 823.548 895.748 817.197 898.432 811.499C900.846 806.379 905.724 799.758 909.175 795.289C911.568 792.195 917.439 788.706 918.082 784.62C918.508 781.912 914.306 782.225 914.491 780.184C914.747 777.421 917.057 776.527 917.689 774.475C919.436 768.845 919.875 763.431 924.389 759.116C930.077 753.683 932.546 755.959 932.782 746.997C932.895 742.625 929.41 741.953 931.278 736.911C932.292 734.176 935.286 732.561 937.2 730.62C942.885 724.868 946.718 719.759 950.767 712.649C954.347 706.371 960.056 702.715 963.725 697.292C968.5 690.223 961.359 686.718 971.052 684.723C969.674 680.335 968.21 676.786 971.836 673.071C974.124 670.727 979.924 672.161 981.949 669.452C984.269 666.339 980.84 658.964 984.336 656.945C987.179 655.305 991.435 660.363 995.903 657.86C999.306 655.951 1004.45 645.414 1003.35 641.542C1012.15 646.508 1009.96 643.087 1014.17 636.714C1015.12 635.285 1017.98 634.969 1018.79 633.528C1020.42 630.644 1020.05 627.706 1022.39 625.362C1026.29 621.463 1032.68 622.464 1036.98 619.678C1040.53 617.377 1040.34 614.895 1043.17 612.724C1045.59 610.869 1049.57 610.513 1051.92 608.59C1056.53 604.823 1056.57 600.848 1062.34 597.605C1069.17 593.766 1075.22 590.498 1081.43 585.408C1085.48 582.092 1089.32 576.211 1094.06 574.021C1100.61 570.994 1105.72 570.781 1112.13 566.46C1116.76 563.339 1121.14 558.186 1125.68 555.554C1129.12 553.572 1131.52 553.998 1135.85 552.77C1143.63 550.555 1145.52 543.2 1151.87 540.205C1156.23 538.15 1162.57 540.032 1167.36 538.952C1182.25 535.598 1196.96 528.364 1211.91 524.357C1230.15 519.469 1248.52 515.187 1266.9 510.864C1250.01 533.83 1228.49 554.552 1206.67 572.792C1199.51 578.779 1160.26 606.076 1181.42 617.733C1189.91 622.41 1208.36 607.299 1215.21 603.605C1229.02 596.166 1243.32 590.212 1257.78 584.196C1281.16 574.467 1311.61 557.163 1337.6 558.556C1321.78 578.023 1302.03 593.649 1283.94 610.848C1267.32 626.65 1242.27 641.474 1250.11 667.341C1226.75 661.381 1205.78 654.336 1181.5 655.897C1170.62 656.596 1159.74 655.284 1148.92 656.812C1137.14 658.481 1126.06 662.434 1114.74 665.901C1105.79 668.642 1095.9 668.858 1087.67 673.419C1083.69 675.625 1078.77 678.774 1075.2 681.509C1070.43 685.157 1069.35 687.574 1065.6 692.381C1052.25 709.533 1039.33 725.61 1031.4 746.505ZM958.357 1071.13C957.628 1068.16 956.966 1065.46 956.129 1062.07C963.561 1066.66 963.561 1066.66 958.357 1071.13ZM902.187 976.587C901.272 977.857 897.422 978.264 896.305 977.168C894.914 975.804 898.572 970.495 899.159 969.367C900.61 970.482 903.947 974.141 902.187 976.587ZM886.276 942.177C887.258 938.551 888.246 934.93 889.229 931.303C890.437 934.662 895.885 938.378 896.007 941.581C896.082 943.7 887.352 942.645 886.276 942.177ZM889.433 947.149C897.961 952.781 898.854 959.427 899.108 969.148C888.903 965.756 890.367 955.846 889.433 947.149ZM1037.74 563.547C1036.88 565.882 1033.23 573.165 1030.55 568.072C1029.69 566.441 1035.96 564.216 1037.74 563.547ZM1035.29 555.608C1037.4 553.701 1041.65 556.072 1044.03 554.533C1045.7 553.453 1045.15 552.356 1045.94 551.716C1046.09 551.59 1048.36 546.975 1049.3 545.927C1050.94 544.088 1054.53 542.94 1056.52 541.277C1062.11 536.635 1065.26 530.527 1068.78 524.317C1072.97 516.901 1074.31 516.043 1081.07 512.646C1085.73 510.307 1089.34 507.442 1093.13 503.462C1097.51 498.88 1097.19 495.599 1100.77 490.59C1102.55 488.119 1105.1 487.811 1107.16 485.818C1109.64 483.434 1110.9 480.096 1113.19 477.69C1114.18 476.648 1117.35 476.651 1117.95 475.76C1118.72 474.631 1119.31 470.119 1120.03 469.287C1121.39 471.139 1122.76 472.992 1124.13 474.844C1129.52 465.337 1133.45 457.481 1142.46 451.155C1151.92 444.509 1160.09 434.788 1169.88 428.839C1172.08 427.503 1176.55 426.941 1178.23 424.97C1181.07 421.635 1178.61 418.67 1180.69 415.837C1183.04 412.629 1187.59 415.227 1190.58 413.844C1194.36 412.092 1195.44 406.978 1200.31 407.539C1184.3 426.541 1184.5 456.104 1183.65 479.837C1183.28 490.063 1189.7 495.218 1180.23 502.722C1172.16 509.106 1160.8 507.21 1151.27 511.412C1139.29 516.688 1126.49 519.494 1114.28 524.092C1101.65 528.848 1091.49 537.173 1079.34 542.681C1068.61 547.536 1061.3 554.438 1051.49 560.433C1047.84 562.661 1042.2 565.896 1037.85 563.233C1035.13 561.565 1031.74 558.824 1035.29 555.608ZM1216.12 396.29C1216.81 393.592 1230.48 386.496 1233.84 384.182C1238.88 380.701 1246.35 372.206 1251.99 375.581C1253.94 367.74 1261.55 359.015 1268.28 357.354C1275.74 355.507 1288.55 349.088 1295.89 343.483C1298.03 341.846 1298.74 339.454 1301.26 337.92C1305.66 335.244 1310.02 336.705 1314.25 333.059C1314.9 332.503 1320.76 322.801 1320.99 322.896C1321.29 323.935 1321.56 324.988 1321.8 326.047C1326.24 323.573 1330.2 321.608 1332.97 318.454C1333.6 317.738 1329.53 315.877 1330.81 314.46C1332.39 312.724 1335.9 314.665 1337.49 313.018C1332.54 337.655 1336.23 369.368 1361.14 381.859C1331.51 385.07 1302.57 376.135 1272.57 381.622C1258.21 384.252 1243.62 388.564 1230.56 395.191C1222.55 399.252 1212.32 413.793 1204.35 406.732C1207.51 402.503 1212.34 399.876 1216.12 396.29ZM1359.89 325.41C1370.98 311.814 1387.78 306.435 1404.71 311.303C1424.53 317.004 1416.17 330.894 1413.18 346.318C1407.46 337.907 1395.07 329.565 1384.52 329.311C1369.56 328.955 1375.22 341.455 1384.2 345.935C1392.36 350.001 1406.36 351.135 1412.21 358.537C1417.9 365.736 1415.72 377.512 1416.63 386.004C1412.21 385.343 1407.79 384.684 1403.37 384.025C1407.08 364.208 1390.74 363.249 1375.51 357.659C1360.12 352.018 1347.28 340.882 1359.89 325.41ZM1409.53 276.61V295.001C1403.37 291.478 1397.2 287.954 1391.04 284.43C1397.2 281.824 1403.37 279.215 1409.53 276.61ZM1459.06 423.566C1479.63 429.161 1500.07 435.077 1519.85 442.794C1527.03 445.597 1534.9 446.588 1541.94 449.753C1548.64 452.764 1549.65 452.451 1547.26 458.343C1540.58 474.852 1524.76 472.001 1510.9 469.476C1489.21 465.523 1467.96 460.041 1446.54 454.884C1425.59 449.848 1404.21 446.545 1383.58 440.229C1362.42 433.754 1341.79 427.619 1320.02 423.341C1313.67 422.094 1263.41 417.468 1263.79 412.2C1295.44 408.074 1328.03 412.138 1359.83 412.567C1392.87 413.013 1427.01 414.852 1459.06 423.566ZM1431.13 359.706C1431.52 348.354 1431.68 336.967 1433.09 325.685C1442.5 337.345 1451 340.834 1462.87 329.906C1474.24 319.442 1476.77 313.987 1491.18 323.824C1503.67 332.355 1515.49 331.96 1528.76 324.494C1536.85 319.939 1549.86 301.328 1558.36 305.16C1562.41 306.985 1565.38 314.346 1569.48 317.055C1574.61 320.446 1582.51 322.801 1588.49 324.119C1602.63 327.224 1611.05 318.105 1619.92 308.349C1632.79 294.205 1632.41 302.419 1644.34 312.229C1657.64 323.168 1668.77 317.824 1680.82 308.487C1688.16 330.059 1690.9 353.617 1692.98 376.232C1693.67 383.868 1696.29 394.71 1689.45 400.111C1684.63 403.918 1674.41 404.067 1668.6 406.17C1647.86 413.693 1627.93 424.368 1610.58 438.031C1603.82 443.353 1597.93 449.872 1588.7 448.659C1579.89 447.504 1571.34 440.113 1564.26 435.231C1556.58 429.941 1548.81 423.93 1539.83 420.979C1534.57 419.25 1526.15 419.877 1521.55 416.709C1512.99 410.817 1523.06 395.366 1520.93 384.994C1519.32 377.12 1514.8 360.702 1503.99 365.317C1487.9 372.184 1497.26 398.993 1506.11 407.361C1488.01 404.137 1467.97 399.428 1450.52 393.446C1437.03 388.823 1430.65 373.553 1431.13 359.706ZM1734.68 414.995C1771.83 404.528 1806.6 397.473 1845.26 395.566C1862.38 394.721 1878.95 395.256 1895.87 395.409C1905.62 395.499 1913.04 387.616 1905.26 378.549C1894.49 365.995 1861.62 370.775 1847.06 370.21C1808.04 368.698 1772.25 373.148 1735.29 386.053C1739.2 378.83 1748.59 377.893 1755.03 374.158C1762.92 369.573 1768.29 362.02 1771.66 353.639C1780.44 331.842 1771.6 311.3 1762.42 291.386C1780.45 296.252 1799.11 306.907 1817.23 309.613C1821.04 310.18 1823.47 309.815 1826.83 311.203C1828.9 312.054 1829.55 314.997 1832.11 315.64C1833.34 315.953 1836.31 313.15 1837.71 313.547C1843.23 315.113 1838.86 315.529 1842.36 317.795C1845.13 319.593 1844.9 321.91 1849.98 321.059C1852.23 320.687 1854.68 317.19 1855.87 317.095C1857.38 316.971 1857.03 315.124 1859.34 315.664C1863.55 316.644 1863.18 322.085 1864.58 324.764C1866.08 327.616 1863.95 331.407 1868.5 332.965C1871.89 334.134 1872.75 330.535 1875.63 330.794C1877.39 330.951 1881.03 333.486 1882.57 335.028C1887.56 340.002 1894.39 345.492 1901.1 348.729C1900.44 348.062 1904.27 346.461 1903.35 346.086C1902.74 345.835 1906.75 346.807 1906.69 346.793C1910.56 347.676 1912.61 353.641 1914.56 355.818C1918.17 359.803 1923.76 364.013 1928.8 365.774C1937.53 368.817 1937.26 365.177 1940.45 375.578C1946.65 365.795 1949.03 382.178 1956.72 383.982C1960.7 384.916 1960.24 383.204 1963.86 385.297C1966.34 386.731 1968 391.121 1969.87 393.241C1970.68 390.184 1971.48 387.125 1972.28 384.074C1977.82 394.602 1989.78 411.298 2002.9 408.279C2002.9 411.152 2001.71 414.587 2003.93 417.039C2005.48 418.754 2007.99 416.807 2009.2 417.803C2010.26 418.673 2012.79 422.134 2013.6 422.704C2015.2 423.827 2018.09 424.648 2019.48 425.766C2020.7 426.752 2021.31 431.459 2022.66 433.157C2025.21 436.354 2029.61 436.989 2031.69 440.823C2032.17 437.043 2032.64 433.26 2033.12 429.479C2037.25 432.682 2037.6 435.169 2038.61 439.851C2040.06 446.521 2038.14 444.957 2042.73 447.774C2047.24 450.542 2049.59 450.231 2053.72 455.035C2057.77 459.744 2057.8 462.647 2063.65 457.741C2064.74 461.37 2065.09 466.063 2067.99 468.844C2070.18 470.948 2079.26 471.037 2080.12 476C2063.07 461.57 2074.29 483.488 2080.13 476.038C2081.36 484.012 2087.18 486.588 2093.83 492.269C2100.02 497.559 2101.04 497.176 2103.15 506.068C2103.11 505.873 2106.27 507.839 2106.5 508.234C2100.46 509.098 2109.82 515.865 2111.4 517.104C2112.56 518.006 2114.06 515.848 2115.98 517.309C2118.17 518.983 2119.96 522.785 2121.74 525.078C2126.58 531.294 2130.16 536.635 2135.26 541.688C2140.75 547.142 2143.42 554.039 2148.7 560.414C2154.55 567.494 2157.72 575.636 2162.62 583.321C2167.27 590.63 2173.45 596.498 2178.84 603.192C2187.43 613.845 2190.35 637.303 2206.36 637.921C2205.42 638.896 2206.73 646.165 2206.88 647.507C2207.64 654.109 2207.14 660.463 2211.03 666.444C2211.92 659.621 2215.48 662.251 2218.57 665.834C2223.71 671.796 2219.2 670.295 2219.47 676.338C2219.8 683.661 2220.63 677.996 2223.41 684.39C2225.59 689.399 2226.78 692.651 2227.95 698.208C2218.91 698.929 2214.76 691.514 2211.42 684.331C2210.02 681.326 2209.54 676.387 2207.06 674.037C2204.43 671.537 2200.81 671.34 2198.11 668.55C2192.92 663.19 2190.67 654.833 2184.54 649.616C2177.63 643.724 2176.1 640.94 2170.38 633.895C2164.06 626.102 2155.32 620.628 2148.69 613.092C2142.05 605.539 2142.59 609.662 2134.24 606.93C2125.37 604.019 2111.02 576.027 2099.83 586.81C2100.28 579.756 2089.75 573.122 2084.43 570.567C2082.13 569.463 2079.45 570.462 2077.15 568.807C2074.65 567.011 2074.47 563.549 2071.95 561.394C2071.95 561.397 2068.09 562.334 2067.31 561.937C2065.71 561.127 2065.7 558.259 2064.29 557.317C2060.4 554.703 2055.75 551.965 2051.62 549.74C2041.56 544.331 2032.68 537.672 2022.98 531.162C2014.67 525.583 2004.62 515.508 1995.01 512.568C1986.62 510 1981.35 511.309 1974.48 506.165C1970.74 503.365 1971.84 502.422 1965.83 500.681C1960.1 499.023 1956.89 499.876 1953.86 493.787C1948.55 483.132 1951.9 462.334 1950.87 450.385C1949.78 437.704 1948.49 424.708 1945.19 412.378C1941.3 397.805 1936.15 390.187 1920.56 393.619C1889.69 400.427 1859.19 406.905 1828.17 412.88C1766.37 424.791 1705.62 444.226 1645.18 461.48C1640.58 462.798 1614.89 468.696 1620.14 455.372C1622.55 449.227 1638.81 446.937 1644.25 445.006C1674.13 434.399 1704.14 423.593 1734.68 414.995ZM1724.29 387.876C1719.78 389.601 1715.27 391.327 1710.75 393.055V380.463C1715.27 382.934 1719.78 385.402 1724.29 387.876ZM1705.54 321.297C1709.46 324.513 1717.43 316.774 1720.77 315.205C1726.46 312.529 1733.72 310.231 1740.08 310.779C1751.82 311.8 1760.4 323.392 1758.25 335.144C1754.61 355.029 1726.37 364.432 1710.8 372.206C1710.3 365.158 1708.03 356.687 1712.95 350.593C1717.23 345.3 1725.52 345.683 1729.47 340.053C1739.4 325.906 1712.49 324.624 1706.47 335.873C1704.09 328.682 1701.72 321.494 1699.35 314.306C1705.08 313.353 1702.56 318.861 1705.54 321.297ZM1733.31 282.375C1727.71 286.009 1722.11 289.644 1716.5 293.279C1713.73 280.698 1723.19 279.043 1733.31 282.375ZM2243.92 720.232C2236.59 723.745 2234.75 715.355 2229.47 714.993C2235.71 711.148 2235.71 711.148 2243.92 720.232ZM2273.77 903.431C2274.68 915.49 2273.97 927.688 2275.57 939.699C2276.79 948.836 2280.48 957.34 2280.87 966.58C2281.73 986.819 2274.92 1007.43 2261.16 1022.26C2248.15 1036.3 2229.53 1048.37 2211.96 1054.28C2204.04 1056.93 2195.78 1062.82 2188.09 1065C2179.59 1067.41 2171.5 1062.17 2164.49 1071.57C2159.81 1031.22 2163.23 989.063 2162.86 948.461C2162.49 907.77 2162.93 867.066 2156.06 826.815C2149.95 790.966 2137.91 750.642 2115.7 721.314C2106.68 709.406 2095.58 699.653 2083.86 690.52C2077.79 685.784 2071.71 680.718 2064.94 676.978C2054.52 671.218 2045.65 672.015 2034.32 670.376C2018.11 668.027 2003.04 666.042 1986.76 670.622C1971.61 674.888 1954.93 679.743 1941.36 687.153C1927.84 694.535 1912.14 697.579 1898.11 704.189C1888.56 708.688 1868.74 723.715 1858.14 721.009C1847.89 718.387 1832.72 700.935 1826.17 693.115C1817.8 683.124 1810.88 671.542 1803.46 660.793C1800.86 657.018 1795.54 651.182 1794.87 646.338C1793.69 637.924 1797.05 640.673 1805.06 641.615C1825.66 644.037 1845.03 647.872 1864.78 654.377C1874.6 657.612 1893.81 670.705 1903.64 662.858C1918.64 650.88 1895.85 630.29 1887.5 623.374C1873.27 611.588 1856.73 602.836 1841.57 592.361C1825.46 581.234 1804.16 569.385 1793.79 552.248C1824.06 561.213 1854.31 571.483 1883.7 583.04C1897.15 588.327 1910.44 593.914 1923.07 600.946C1930.16 604.893 1944.5 615.576 1953.04 610.459C1971.61 599.339 1928.96 567.041 1922.8 560.441C1913.24 550.185 1903.87 540.027 1893.36 530.722C1886.27 524.443 1875.13 520.028 1871.83 510.769C1883.6 515.044 1893.12 523.415 1904.14 529.101C1909.91 532.083 1915.17 533.797 1921.54 534.71C1928.34 535.685 1929.15 536.77 1934.5 539.479C1938.67 541.593 1942.95 544.415 1947.63 545.851C1950.96 546.878 1956.79 547.053 1959.7 548.951C1961.19 551.082 1962.73 553.18 1964.32 555.24C1966.1 555.764 1967.85 556.366 1969.57 557.055C1972.16 559.366 1973.69 562.556 1976.21 564.94C1994.46 582.254 2018.87 594.646 2039.34 609.152C2058.7 622.875 2079.24 635.288 2097.83 650.264C2119.23 667.503 2141.44 686.029 2159.64 706.7C2169.92 718.382 2178.38 731.627 2187.02 744.545C2193.28 753.899 2202.37 761.657 2207.78 771.302C2219.57 792.33 2229.36 815.058 2242.05 835.748C2254.98 856.826 2271.83 877.773 2273.77 903.431ZM2099.83 1025.43C2103.36 1010.84 2123.25 993.802 2135.97 987.367C2129.56 1003.27 2112.49 1014.11 2099.83 1025.43ZM2132.64 1076.34C2121.79 1098.91 2074.12 1101.49 2080.59 1068.09C2083.75 1051.73 2097.21 1041.69 2108.76 1030.98C2114.09 1026.03 2127.17 1008.33 2135.43 1011.18C2135.04 1023.91 2134.3 1036.69 2134.33 1049.42C2134.34 1057.92 2136.48 1068.35 2132.64 1076.34ZM2118.86 816.233C2123.26 826.143 2127.64 834.398 2119.48 843.265C2115.79 847.267 2103.79 856.022 2098.36 854.077C2080.94 847.842 2114.16 820.691 2118.86 816.233ZM2013.45 728.044C2017.65 727.814 2021.72 728.44 2025.87 728.184C2030 727.927 2030.44 727.193 2034.27 727.717C2034.67 728.305 2035.07 728.894 2035.48 729.485C2036 733.439 2038.07 733.868 2041.69 730.776C2046.72 731.897 2049.99 732.647 2054.79 735.372C2041.82 744.758 2026.02 755.673 2010.11 758.824C1984.97 763.801 1991.91 729.234 2013.45 728.044ZM1627.95 939.132C1625.34 944.394 1617.84 931.247 1615.99 928.797C1619.45 928.787 1630.59 933.823 1627.95 939.132ZM1830 800.622C1849.53 789.186 1872.74 779.144 1893.72 770.63C1897.41 788.463 1879.42 811.483 1868.33 823.685C1859.37 833.555 1848.57 843.789 1836.41 849.468C1823.28 855.608 1808.92 852.911 1809.56 835.683C1809.79 829.386 1811.22 819.254 1813.77 813.5C1817.07 806.079 1823.3 804.538 1830 800.622ZM1565.9 476.235C1568.81 476.065 1600.39 471.968 1600.23 475.911C1599.73 487.763 1569.07 478.457 1565.9 476.235ZM1342.53 705.053C1359.21 684.404 1386.14 662.113 1386.54 633.252C1387.12 590.782 1340.13 611.971 1316.51 613.737C1329 601.426 1391.77 549.778 1354.64 531.435C1343.97 526.161 1328.8 531.313 1318.1 534.075C1299.1 538.976 1281.43 547.466 1262.77 553.372C1276.11 539.13 1299.15 522.945 1298.4 501.377C1297.47 475.122 1275.99 481.471 1257.41 485.321C1250.27 486.804 1218.38 499.53 1212.39 490.889C1210.2 487.725 1213.75 483.704 1214.5 480.885C1215.83 475.9 1215.42 474.158 1215.46 469.066C1215.55 458.791 1222.36 445.595 1216.81 436.038C1215.54 438.209 1214.45 440.469 1213.55 442.816C1211.72 437.256 1212.95 431.356 1211.12 425.796C1257.5 437.694 1304.68 444.207 1351.34 454.362C1374.97 459.504 1397.2 468.355 1421.15 472.341C1445.31 476.356 1469.04 482.505 1493.24 486.337C1515.32 489.828 1536.47 495.647 1558.33 500.108C1579.65 504.458 1601.5 494.926 1622.31 490.098C1668.9 479.289 1715.48 468.215 1762.13 457.727C1815.97 445.619 1871.97 435.266 1923.5 415.073C1924.5 441.987 1926.65 468.85 1929.93 495.58C1907.17 484.787 1873.4 470.713 1850.39 490.025C1841.18 497.751 1838.34 511.093 1841.98 522.437C1845.94 534.788 1858.08 540.524 1866.08 549.821C1841.72 543.553 1778.86 499.376 1767.67 544.031C1759.77 575.571 1798.32 595.942 1817.16 613.694C1798.45 610.019 1773.38 595.008 1762.39 619.132C1752.9 639.989 1764.34 662.683 1776.05 679.884C1782.4 689.205 1789.54 697.976 1796.3 707.005C1799.86 711.782 1803.35 716.627 1807.1 721.263C1810.86 725.913 1817.96 730.782 1820.6 735.785C1825.91 745.876 1815.19 746.492 1806.86 750.137C1796.46 754.69 1787.53 762.335 1778.02 768.426C1756.24 782.376 1737.2 795.332 1711.47 799.79C1684.97 804.378 1659.45 809.171 1633.31 815.574C1607.24 821.955 1585.96 828.084 1559.31 819.838C1547.16 816.079 1537.27 812.736 1524.38 813.443C1510.85 814.186 1502.93 813.481 1491.81 805.072C1443.92 768.894 1391.95 739.207 1342.53 705.053ZM1256.2 668.734C1274.7 659.418 1293.33 650.059 1312.45 642.055C1328.27 635.426 1352.3 627.706 1369.62 630.611C1364.74 643.195 1355.83 653.518 1346.27 662.783C1337.82 670.978 1327.26 683.345 1317.03 689.065C1307.74 694.255 1296.94 686.032 1287.78 682.587C1277.71 678.803 1263.86 677.04 1256.2 668.734ZM1260.85 715.725C1270.07 711.882 1289.89 724.782 1298.28 728.135C1314.76 734.729 1331.34 741.615 1345.87 752.017C1328.13 772.582 1308.04 791.384 1284.17 804.592C1268.46 813.284 1241.99 823.251 1227.17 807.47C1208.56 787.642 1230.94 747.24 1244.11 730.247C1244.55 733.155 1244.99 736.058 1245.43 738.966C1249.63 732.215 1252.84 719.065 1260.85 715.725ZM1599.42 891.73C1587.91 894.161 1584 891.965 1576.41 883.114C1571.27 877.133 1566.23 870.919 1560.44 865.54C1554.53 860.05 1539.94 846.814 1558.53 854.436C1575.47 861.382 1589.99 864.854 1608.63 862.132C1629.95 859.024 1649.82 849.981 1670.84 845.407C1659.32 855.519 1647.88 865.735 1636.34 875.82C1624.14 886.473 1614.91 888.455 1599.42 891.73ZM1602.05 973.072C1576.83 992.106 1526.07 990.046 1543.16 948.167C1545.75 941.805 1549.38 935.818 1553.59 930.399C1554.99 928.589 1557.48 924.841 1559.48 923.626C1565.05 920.232 1563.51 919.822 1568.87 925.479C1573.49 930.361 1609.64 970.234 1602.05 973.072ZM1594.57 900.301C1596.88 899.548 1606.61 893.888 1608.83 897.02C1611.08 900.19 1592 911.159 1594.57 900.301ZM1778.13 1190.59C1772.46 1204.2 1727.09 1223.9 1735.54 1196.47C1739.28 1184.32 1742.81 1175.12 1756.94 1174.2C1765.09 1173.67 1783.12 1178.61 1778.13 1190.59ZM1859.51 1006.19C1866.98 995.279 1891.65 980.527 1902.18 996.796C1907.25 1004.64 1894.94 1008.65 1887.49 1006.64C1883.5 1005.55 1880.23 1003.15 1875.88 1002.97C1870.29 1002.74 1864.83 1007.14 1859.51 1006.19ZM1879.31 1017.02C1874.23 1022.18 1843.6 1048.03 1838.64 1044.04C1848.65 1029.7 1860.13 1013.68 1879.31 1017.02ZM1829.29 1278.67C1818.65 1279.28 1823.96 1263.19 1824.99 1256.77C1827.56 1261.25 1841.1 1278 1829.29 1278.67ZM1856.31 1249.85C1852.87 1243.71 1843.6 1234.57 1845.7 1226.66C1847.3 1220.62 1861.77 1212.5 1867.83 1215.96C1875.88 1220.57 1864.21 1250.87 1856.31 1249.85ZM2108.7 1185.44C2104.16 1201.17 2099.44 1197.11 2085.17 1200.16C2070.86 1203.22 2060.96 1215.41 2048.36 1221.95C2052.74 1212.66 2055.45 1201.35 2062.78 1193.82C2064.48 1192.08 2074.86 1188.64 2068.95 1184.62C2063.77 1181.09 2056.33 1192.52 2054.11 1195.64C2043.2 1210.97 2035.56 1229.69 2029.26 1247.33C2026.16 1255.99 2023.68 1264.82 2022.21 1273.91C2020.9 1282.02 2022.32 1290.51 2020.98 1298.4C2018.84 1311.12 2001.62 1311.18 1991.26 1314.46C1981.89 1317.43 1972.55 1320.65 1962.82 1322.25C1954.39 1323.64 1945.63 1321.11 1937.46 1322.78C1928.6 1324.58 1924.63 1329.85 1914.56 1328.66C1906.36 1327.69 1898.68 1323.9 1890.37 1323.52C1882.59 1323.17 1874.83 1325.87 1867.09 1323.68C1859.28 1321.46 1859.66 1320.6 1861.44 1312.9C1862.55 1314.98 1863.66 1317.06 1864.77 1319.13C1867.88 1316.68 1870.04 1309.22 1871.94 1305.72C1874.9 1300.29 1877.31 1298.41 1876.21 1291.65C1874.6 1281.67 1865.62 1274.57 1863.59 1265.07C1861.46 1255.16 1868.77 1247.06 1873.09 1238.79C1878.99 1227.46 1878.91 1219.07 1873.96 1207.36C1877.69 1208.34 1881.42 1209.33 1885.15 1210.32C1880.04 1199.19 1862.7 1203.7 1854.01 1207C1849.64 1208.66 1842.72 1215.17 1838.02 1215.01C1831.56 1214.78 1828.19 1206.26 1825.41 1201.57C1817.38 1187.99 1808.21 1174.59 1798.7 1161.98C1796.09 1158.52 1792.67 1156.29 1793.57 1152.34C1794.34 1148.99 1801.83 1144.24 1804.26 1142.17C1813.38 1134.44 1824.98 1130.15 1833.54 1122.01C1846.48 1109.72 1861.4 1100.91 1874.63 1088.85C1888.41 1076.29 1902.61 1064.76 1916.97 1052.89C1931.51 1040.87 1944.11 1026.71 1958.56 1014.57C1962.3 1021.37 1969.55 1045.73 1977.84 1047.61C1987.5 1049.81 1987.21 1038.34 1986.73 1031.43C1986.05 1021.59 1980.6 1012.03 1980 1002.65C1979.35 992.603 1988.98 988.112 1996.25 982.304C2007.48 973.328 2032.33 952.889 2018.97 936.064C2007.46 921.574 1970.04 949.357 1959.73 957.712C1950.96 964.811 1944.19 971.233 1934.32 976.833C1927.38 980.767 1915.73 995.905 1907.51 994.507C1897.72 992.846 1893.9 982.126 1881.93 982.479C1870.23 982.822 1860.3 991.274 1853.04 999.761C1836.64 1018.94 1831.01 1044.61 1816.06 1064.6C1808.7 1074.46 1799.14 1082.6 1791.15 1091.93C1782.37 1102.16 1780.51 1113.95 1771.85 1123.97C1747.09 1090.88 1720.11 1059.54 1693.99 1027.53C1680.95 1011.55 1668.18 995.371 1655.42 979.163C1650.63 973.088 1645.24 967.387 1640.86 961.007C1634.86 952.268 1635.94 945.25 1633.58 935.505C1632.54 931.184 1627.65 926.011 1628.96 921.882C1630.72 916.336 1643.08 911.98 1647.54 909.712C1665.75 900.442 1682.26 888.854 1699.24 877.527C1730.67 856.556 1762.47 836.893 1795.91 818.979C1795.33 826.696 1790.33 834.695 1793.69 842.436C1795.25 837.984 1797.73 818.139 1803.66 817.288C1802.52 817.451 1803.46 842.733 1804.38 846.344C1807.11 857.115 1815.05 864.482 1826.41 864.409C1848.04 864.268 1867.43 840.662 1879.44 825.025C1887.57 814.437 1895.38 802.124 1898.24 788.87C1900.82 776.973 1897.99 768.699 1910.31 762.656C1935.61 750.262 1961.11 740.162 1988.17 733.59C1986.96 745.285 1983.58 759.686 1994.18 768.097C2005.87 777.383 2021.18 769.107 2032.19 762.964C2043.1 756.88 2059.92 740.168 2072.74 745.023C2085.34 749.797 2094.11 765.653 2101.17 776.182C2107.38 785.463 2114.15 792.154 2106.95 802.499C2098.88 814.091 2093.63 825.406 2087.16 837.997C2084.68 842.839 2082.31 845.995 2084.06 850.953C2084.63 852.565 2091.11 862.146 2092.87 863.52C2104.1 872.283 2119.25 855.614 2127.27 849.287C2130.09 876.536 2130.73 903.663 2131.86 930.995C2132.7 951.013 2140.43 970.722 2124.05 985.355C2107.68 999.985 2094.01 1015 2084.03 1034.81C2078.7 1045.39 2073.92 1056.25 2068.16 1066.62C2064.31 1073.54 2056.18 1083.69 2061.15 1091.84C2066.4 1086.85 2067.96 1079.25 2072.33 1073.62C2074.95 1085.31 2077.59 1098.28 2089.91 1103.23C2104.09 1108.93 2118.19 1099.07 2130.75 1093.58C2126.24 1124.83 2117.46 1155.19 2108.7 1185.44ZM2094.21 1221.36C2084.48 1242.22 2075.69 1267.38 2057.72 1282.74C2053.77 1286.12 2037 1299.29 2030.62 1297.08C2025.21 1295.21 2028.19 1284.23 2029.13 1279.53C2033.92 1255.65 2042.21 1240.63 2061.51 1225.39C2069.49 1219.09 2079.75 1211.03 2090.05 1209.47C2101.14 1207.8 2097.95 1213.34 2094.21 1221.36ZM2368.71 1716.61C2343.48 1682.19 2307.81 1655.45 2274.11 1629.59C2258.85 1617.88 2242.03 1609.09 2226.6 1597.38C2209.17 1584.13 2191.46 1571.35 2171.92 1561.37C2134.9 1542.44 2094.5 1529.25 2059.55 1506.87C2042.51 1495.95 2023.87 1485.4 2007.85 1473.15C2000.81 1467.76 1994.59 1460.88 1988.23 1454.71C1982.32 1448.98 1969.64 1440.67 1967.29 1432.28C1977.12 1430.67 1982.71 1421.1 1991.49 1420.12C1994.38 1419.8 2012.5 1424.61 2010.02 1415.79C2016.59 1415.62 2017.35 1415.53 2022.86 1414.08C2025.14 1413.49 2027.84 1414.42 2030.15 1413.6C2033.68 1412.35 2036.08 1408.74 2039.64 1407.36C2042.18 1406.38 2051.58 1407.47 2053.01 1406.25C2056.9 1402.92 2052.77 1403.21 2050.44 1399.04C2058.01 1398.85 2063.2 1402.68 2070.79 1398.61C2073.1 1397.36 2075.05 1394.5 2077.29 1393.02C2081.26 1390.39 2082.7 1394.47 2085.41 1389C2087.96 1396.54 2087.89 1394.46 2094.02 1392.24C2100.13 1390.03 2104.54 1388.44 2111.5 1387.88C2128.12 1386.57 2144.79 1388.59 2161.34 1387.41C2167.39 1386.97 2172.56 1385.59 2178.57 1386.39C2183.86 1387.08 2182.27 1390.78 2186.67 1385.8C2187.69 1384.65 2184.39 1381.48 2185.97 1379.82C2186.67 1379.09 2188.95 1379.6 2189.81 1379.22C2197.55 1375.84 2197.58 1380.57 2198.95 1386.73C2203.49 1385.67 2208.12 1384.7 2212.06 1382.04C2210.07 1380.25 2206.74 1378.28 2208.66 1375.03C2215.2 1377.52 2219.48 1376.37 2216.21 1383.57C2222.79 1385.75 2224.02 1382.91 2229.93 1382.29C2233.43 1381.92 2238.31 1384.1 2241.22 1381.3C2244.4 1378.24 2239.38 1374.91 2245.22 1372.28C2246.42 1372.9 2247.31 1373.82 2247.89 1375.05C2251.05 1376.01 2250.48 1377.26 2246.19 1378.79C2257.68 1384.77 2254.98 1378.09 2259.81 1371.02C2260.92 1369.39 2265.91 1364.33 2268.18 1366.78C2271.63 1370.48 2264.59 1371.66 2266.1 1375.34C2268.72 1381.73 2277.85 1373.55 2280.65 1370.31C2282.77 1367.87 2283.63 1363.18 2285.92 1361.35C2289.09 1358.82 2293.66 1362.74 2297.63 1362.03C2315.79 1358.84 2332.93 1334.35 2319.26 1317.96C2315.58 1313.56 2312.47 1314.43 2308.09 1311.65C2303.76 1308.91 2301.33 1304.15 2297.86 1300.22C2289.92 1291.26 2280.21 1284.55 2269.12 1280.26C2243.39 1270.3 2215.67 1263.04 2188.66 1257.7C2176.15 1255.23 2162.83 1251.44 2150.02 1251.47C2142.47 1251.48 2131.11 1257.37 2124.05 1254.55C2110.33 1249.07 2130.47 1221 2133.79 1211.93C2143.56 1185.3 2150.92 1156.9 2155.75 1128.94C2156.69 1123.46 2156.33 1116.38 2158.3 1111.16C2160.55 1105.17 2161.04 1106.02 2165.86 1105.53C2174.58 1104.64 2184.12 1109.23 2193.2 1107.65C2203.27 1105.89 2214.15 1106.71 2224.31 1103.58C2228.98 1102.15 2233.31 1100.59 2236.38 1096.63C2237.35 1095.4 2236.27 1094.32 2236.89 1093.45C2237.08 1093.17 2240.55 1089.41 2240.66 1089.2C2240.63 1087.25 2240.8 1085.32 2241.17 1083.41C2244.69 1086.35 2242.95 1092.5 2248.89 1092.64C2249.95 1086.08 2249.96 1084.76 2254.25 1081.07C2253.92 1081.35 2257.48 1078.32 2257.02 1078.64C2257.24 1077.48 2257.67 1076.38 2258.31 1075.37C2260.31 1074.4 2262.43 1073.88 2264.66 1073.83C2269.3 1069.04 2267.37 1066.49 2267.37 1060.05C2271.12 1062 2274.86 1063.95 2278.6 1065.9C2279.51 1046.82 2291.09 1036.37 2298.78 1020.91C2302.06 1014.32 2305.4 1009.17 2306.19 1001.23C2306.64 996.643 2305.46 992.597 2307.35 988.277C2309.07 984.356 2312.91 982.245 2314.51 977.973C2317.67 969.569 2315.31 958.841 2315.49 950.114C2315.73 938.011 2316.93 925.946 2317.33 913.849C2318.1 890.099 2315.72 865.694 2312.18 842.22C2310.48 830.992 2307.65 820.099 2305.42 808.99C2303.59 799.858 2299.21 791.293 2297.65 782.8C2297 779.268 2298 776.101 2296.94 772.196C2295.54 767.066 2293.21 762.019 2291.47 756.98C2287.41 745.207 2283.4 733.452 2278.83 721.862C2269.98 699.401 2259.63 677.615 2249.79 655.586C2240.32 634.402 2232.49 612.562 2220.23 592.78C2208.15 573.297 2195.15 554.141 2181.84 535.493C2167.98 516.07 2150.46 499.382 2137.01 479.78C2111.77 442.978 2076.57 412.651 2039.74 387.608C1963.73 335.93 1881.6 284.333 1790.46 266.613C1776.73 263.945 1762.81 262.093 1748.82 261.747C1740.13 261.531 1725.74 265.744 1717.52 262.795C1708.3 259.492 1709.15 249.115 1706.84 240.974C1703.88 230.51 1697.19 223.654 1689.59 216.255C1681.6 208.47 1674.34 199.373 1664.37 194.078C1654.27 188.715 1642.35 186.709 1631.15 185.088C1621.16 183.638 1606.23 184.991 1597.09 180.622C1588.78 176.642 1592.88 172.497 1600.67 175.905C1601.24 172.459 1601.7 170.234 1603.9 167.571C1605.01 166.232 1610.23 164.355 1610.36 163.108C1610.51 161.645 1606.13 157.48 1605.5 155.595C1604.15 151.534 1604.92 145.91 1606.52 142.1C1614.37 149.101 1616.64 152.202 1625.41 145.509C1629.11 142.683 1630.25 141.437 1634.54 140.012C1635.7 139.624 1638.31 140.82 1639.32 140.149C1643.19 137.59 1639.63 138.193 1641.47 135.168C1641.01 135.932 1644.26 127.892 1644.11 129.573C1644.5 125.29 1645.77 126.607 1643.19 121.345C1638.14 111.052 1625.29 110.631 1631.84 98.8842C1634.41 94.2623 1636.68 94.7227 1637.41 88.0214C1637.8 84.4184 1637.32 80.2875 1637.3 76.6226C1637.27 69.1274 1638.68 63.8796 1631.67 60.0633C1624.94 56.3928 1618.74 60.4197 1616 51.3165C1613.14 41.7641 1616.03 29.5177 1605.71 22.9765C1598.17 18.1975 1587.29 22.2833 1578.96 19.946C1570.61 17.6056 1562.94 9.0381 1554.46 15.616C1548.45 20.2911 1545.25 31.7852 1533.91 25.5696C1528.79 22.7662 1525.98 13.3543 1522.75 8.07571C1517.6 -0.337353 1513.48 -3.37628 1505.57 4.81779C1500.69 9.87168 1490.4 22.174 1489.77 29.1699C1489.08 36.8925 1495.8 40.1196 1487.37 44.688C1478.98 49.2342 1474.27 45.9005 1467.46 55.1271C1460.71 64.2809 1465.94 69.3377 1458.12 78.0959C1448.33 89.0429 1443.13 93.7684 1443.27 108.518C1443.36 118.634 1434.45 127.373 1439.65 136.97C1445.47 147.726 1462.48 152.199 1472.78 156.577C1469.34 162.955 1464.62 167.045 1468.64 173.609C1472.28 179.555 1482.56 180.792 1488.94 179.712C1493.23 178.988 1493.38 179.639 1496.76 176.612C1498.97 174.633 1495.94 172.159 1500.49 171.063C1505.34 169.888 1513.08 179.42 1516.22 181.802C1509.19 190.959 1489.87 192.671 1479.65 197.313C1473.43 200.143 1467.7 204.331 1461.36 206.861C1455.61 209.156 1448.6 208.624 1443.39 212.175C1434.38 218.31 1430.63 233.507 1425.11 242.443C1418.86 252.558 1412.8 257.254 1400.81 259.355C1385.85 261.971 1373.8 263.024 1359.85 269.559C1342.82 277.541 1326.02 285.969 1309.29 294.572C1282.3 308.449 1257.23 322.693 1232.17 339.475C1205.95 357.038 1180.45 375.368 1155.15 393.716C1130.13 411.865 1109.12 434.191 1087.38 456.139C1069.81 473.88 1054.39 493.028 1036.89 510.764C1016.23 531.707 1001.03 558.138 981.873 580.356C971.391 592.507 961.362 604.459 954.785 618.776C949.456 630.384 940.185 641.772 933.996 653.947C926.091 669.515 918.607 684.836 909.73 699.887C906.088 706.063 901.759 711.364 897.915 717.261C892.989 724.811 893.28 732.105 891.955 740.811C890.572 738.685 889.191 736.56 887.807 734.44C885.298 739.936 882.267 745.339 880.095 750.966C878.709 754.555 878.927 759.651 877.535 762.791C875.788 766.733 873.662 766.209 871.484 769.493C869.156 773.003 868.405 777.721 865.952 781.485C855.344 797.763 851.263 818.414 845.812 836.987C838.501 861.903 839.653 890.54 840.051 916.23C840.474 943.366 841.952 970.504 846.019 997.353C849.704 1021.67 857.581 1044.99 869.912 1066.31C880.658 1084.89 895.474 1095.71 914.454 1105.23C923.17 1109.6 931.259 1108.25 940.406 1108.95C950.427 1109.71 957.262 1112.44 967.865 1110.04C972.95 1108.89 975.359 1105.17 979.4 1103.93C981.9 1103.17 983.249 1104.42 985.65 1104.13C989.085 1103.71 996.229 1102.02 999.954 1102.43C1011.55 1103.7 1009.6 1121.28 1010.74 1130.25C1012.5 1144.08 1013.78 1158.06 1016.15 1171.79C1021.13 1200.69 1031.88 1227.69 1038.23 1256.09C1008.79 1259.69 983.537 1265.2 955.946 1276.38C928.266 1287.59 900.279 1291.39 871.147 1296.97C843.895 1302.18 817.682 1311.92 795.868 1329.58C785.644 1337.84 775.022 1347.52 782.53 1361.14C787.332 1369.85 795.986 1372.07 803.456 1377.13C804.966 1375.21 800.6 1371.15 799.8 1370.03C806.081 1371.32 805.889 1374.26 810.476 1376.82C814.484 1379.06 817.766 1378.98 822.153 1380.56C832.867 1384.42 838.132 1394.05 848.722 1396.76C852.054 1397.61 856.412 1399.64 859.818 1400.22C863.912 1400.92 866.975 1399.12 871.123 1399.88C873.36 1401.36 875.783 1402.42 878.383 1403.05C880.09 1402.26 881.775 1401.42 883.436 1400.53C889.395 1401.15 893.075 1404.91 897.918 1408C898.241 1404.11 897.775 1400.07 901.447 1397.53C902.882 1401.31 900.564 1403.71 904.478 1406.31C909.436 1409.62 915.948 1405.5 920.387 1403.41C921.644 1415.99 950.68 1415.25 959.884 1415.07C972.63 1414.82 985.362 1409.75 998.221 1412.58C1004.78 1414.02 1011.78 1415.53 1018.31 1417.4C1026.18 1419.65 1035.68 1421.67 1043.42 1424.51C1046.5 1425.64 1050.27 1429.27 1053.54 1429.02C1056.15 1428.83 1056.85 1424.97 1059.89 1425.08C1063.32 1425.2 1064.48 1429.04 1067.45 1430.2C1071.9 1431.92 1075.99 1428.64 1080.22 1430.3C1081.74 1430.89 1083.8 1433.45 1085.75 1434.28C1088.7 1435.55 1094.55 1435.56 1097.83 1436.17C1102.49 1437.04 1106.67 1436.45 1110.66 1436.74C1113.88 1436.97 1113.81 1439.15 1115.35 1439.29C1117.12 1439.45 1120.19 1433.35 1122.57 1432.46C1126.02 1431.16 1132.3 1434.26 1135.82 1434.8C1110.28 1469.53 1079.48 1500.23 1046.1 1527.11C1010.09 1556.1 973.216 1585.06 934.602 1610.49C899.541 1633.59 865.602 1653.56 838.42 1686.16C815.499 1713.64 779.014 1743.05 784.637 1782.89C790.258 1822.7 833.346 1838.9 867.872 1846.5C911.296 1856.05 955.997 1852.21 999.537 1857.58C1018.11 1859.87 1038.74 1858.65 1057.43 1856.7C1079.5 1854.39 1098.42 1839.94 1117.4 1829.49C1151.54 1810.69 1180.73 1785.54 1214.35 1766.15C1256.46 1741.88 1298.12 1716.16 1344.27 1699.9C1365.74 1692.34 1387.85 1683.71 1405.17 1668.15C1407.75 1665.84 1409.67 1662.35 1412.58 1660.44C1417.53 1657.2 1418.86 1660.48 1421.74 1659.5C1423.95 1658.75 1426.09 1656.35 1428 1655.63C1432.84 1653.81 1435 1654.56 1440.43 1654.56C1435.77 1651.87 1431.51 1644.93 1436.34 1639.28C1444.61 1629.59 1446.04 1645.07 1449.15 1648.65C1451.78 1645.26 1450.77 1642.24 1450.1 1638.38C1452.32 1639.85 1454.55 1641.32 1456.78 1642.8C1455.24 1635.33 1456.7 1628.45 1460.65 1621.95C1464.28 1615.95 1465.18 1616.79 1466.18 1608.48C1477.48 1618.83 1479.69 1593.72 1480.71 1584.57C1481.69 1575.69 1480.72 1569.32 1486.54 1561.55C1492.78 1553.22 1502.28 1547.95 1510.21 1541.48C1522.74 1531.25 1536.53 1518.33 1553.85 1528.14C1567.52 1535.89 1574.97 1554.88 1587.8 1564.63C1595.58 1570.55 1603.8 1571.15 1608.76 1580.33C1612.77 1587.75 1614.07 1596.63 1617.86 1604.25C1627.03 1622.72 1640.24 1643.85 1655.31 1658.02C1669.33 1671.21 1687.33 1671.14 1703.74 1679.31C1719.99 1687.41 1736.87 1696.19 1754.07 1702.05C1772.85 1708.46 1793.1 1711.19 1811.39 1718.95C1820.79 1722.95 1829.21 1728.96 1838.69 1732.79C1848.93 1736.91 1859.71 1739.82 1870.08 1743.59C1911.17 1758.57 1951.37 1776.92 1994.54 1785.22C2013.68 1788.9 2031.41 1798.9 2050.69 1801C2058.96 1801.91 2065.71 1803.05 2073.8 1805.12C2086.5 1808.38 2083.81 1810.11 2088.49 1820.73C2096.19 1838.22 2114.98 1827.86 2129.47 1828.3C2152.66 1829 2175.5 1825.24 2198.65 1825.06C2239.14 1824.75 2278.13 1820.18 2317.29 1806.84C2356.62 1793.45 2401.39 1761.19 2368.71 1716.61Z" fill="black"></path> <path fill-rule="evenodd" clip-rule="evenodd" d="M1900.67 350.43C1902.53 351.324 1901.22 350.987 1900.67 350.43V350.43Z" fill="black"></path> <path fill-rule="evenodd" clip-rule="evenodd" d="M1187.44 1095.17C1196.24 1086.23 1233.66 1088.03 1236.48 1104.03C1239.64 1121.88 1206.2 1148.84 1193.97 1156.4C1178.22 1166.13 1159 1167.95 1161.79 1143.53C1163.9 1125.08 1174.92 1107.9 1187.44 1095.17ZM1218.34 1076.76C1219.49 1081.71 1211.08 1080.03 1208.76 1078.85C1207.67 1076.61 1217.2 1071.8 1218.34 1076.76ZM1153.82 1109.5C1161.28 1110.17 1169.83 1098.16 1175.47 1094.07C1177.95 1097.93 1161.54 1119.14 1159.74 1123.98C1155.23 1136.07 1152.72 1151.35 1158.87 1163.41C1176.83 1198.66 1222.81 1148.32 1234.31 1130.74C1242.36 1118.45 1247.92 1103.2 1236.56 1091.15C1232.51 1086.86 1225.83 1085.67 1222.07 1081.59C1217.12 1076.22 1221.02 1069.3 1211.07 1070.47C1204.21 1071.28 1195.97 1077.49 1189.29 1079.74C1181.25 1082.44 1174.02 1085.25 1167 1090.27C1165.42 1091.4 1144.6 1108.67 1153.82 1109.5Z" fill="black"></path> <path fill-rule="evenodd" clip-rule="evenodd" d="M1681.28 1121.33C1676.59 1145.55 1652.67 1170.39 1627.5 1171.35C1602.43 1172.31 1594.31 1145.97 1598.74 1124.97C1602.51 1107.06 1617.94 1075.95 1639.96 1079.38C1657.26 1082.07 1685.3 1100.57 1681.28 1121.33ZM1665.32 1080.85C1649.42 1068.52 1627.47 1062.81 1609.05 1072.6C1603 1075.81 1578.9 1089.96 1586.23 1099.55C1596.12 1091.86 1604.66 1081.18 1617.52 1078.63C1615.35 1088.62 1603.01 1097.61 1598.66 1107.35C1593.58 1118.72 1590.79 1131.74 1591.63 1144.23C1593.11 1166.47 1607.96 1183.75 1630.95 1180.7C1652 1177.9 1670.4 1161.71 1680.44 1143.52C1693.85 1119.23 1686.3 1097.14 1665.32 1080.85Z" fill="black"></path> <path fill-rule="evenodd" clip-rule="evenodd" d="M1517.73 1176.38C1506.41 1193.18 1489.16 1208.99 1469.21 1214.19C1443.38 1220.91 1450.64 1199.49 1458.36 1184.13C1465.18 1170.54 1476.89 1147.18 1494.71 1147.3C1500.77 1147.34 1512.03 1150.28 1517.34 1153.52C1527.79 1159.92 1523.69 1167.53 1517.73 1176.38ZM1493.62 1139.44C1497.69 1134.9 1515.67 1115.45 1518.08 1130.61C1523.24 1124.6 1519.17 1119.62 1512.56 1118.99C1504.58 1118.22 1495.86 1127.13 1490.11 1131.56C1478.26 1140.66 1469.15 1149.99 1461.3 1162.75C1452.64 1176.83 1430.58 1208.64 1449.89 1222.6C1470.76 1237.7 1501.14 1209.82 1514.21 1195.44C1522.57 1186.24 1533.64 1172.74 1530.46 1159.26C1526.56 1142.69 1507.35 1140.95 1493.62 1139.44Z" fill="black"></path> <path fill-rule="evenodd" clip-rule="evenodd" d="M1404.56 868.567C1392.88 881.937 1369.16 901.414 1349.6 899.119C1331.77 897.026 1338.74 876.949 1345.04 867.233C1354.53 852.63 1367.23 838.921 1385.58 838.121C1393.5 837.779 1403.76 837.94 1409.9 843.957C1418.28 852.177 1410.73 861.506 1404.56 868.567ZM1403.32 831.425C1389.64 826.683 1384.26 824.876 1370.96 832.416C1360.29 838.47 1350.82 847.027 1343.49 856.743C1332.52 871.287 1321.46 904.001 1349.62 908.092C1380.51 912.582 1453.98 848.998 1403.32 831.425Z" fill="black"></path> <path fill-rule="evenodd" clip-rule="evenodd" d="M1445.42 914.891C1436.53 923.996 1425.44 931.424 1412.78 933.96C1418.14 921.973 1430.1 895.778 1444.28 892.13C1450.81 890.445 1458.26 892.651 1457.72 900.117C1457.33 905.515 1448.93 911.296 1445.42 914.891ZM1456.86 883.2C1449.5 879.5 1451.82 876.973 1443.26 879.876C1436.52 882.16 1428.01 886.127 1422.39 890.696C1419.33 893.191 1409.78 902.032 1410.95 906.53C1413.07 914.707 1420.18 902.178 1422.06 899.769C1425.26 902.391 1408.87 925.924 1407.89 929.799C1404.25 944.221 1415.54 945.747 1426.6 941.027C1441.52 934.668 1485.69 897.69 1456.86 883.2Z" fill="black"></path> <path fill-rule="evenodd" clip-rule="evenodd" d="M1675.55 1271.31C1676.66 1261.75 1678.22 1251.64 1686.97 1246.27C1694.85 1241.43 1703.01 1242.14 1704.18 1252.06C1705.27 1261.28 1696.26 1277.65 1688.98 1282.68C1678.84 1289.68 1676.88 1280.95 1675.55 1271.31ZM1688.58 1293.07C1709.4 1280.85 1722.53 1224.8 1684.15 1240.51C1662.34 1249.44 1670.36 1303.77 1688.58 1293.07Z" fill="black"></path> <path fill-rule="evenodd" clip-rule="evenodd" d="M1510.76 1060.65C1514.04 1053.89 1517.8 1051.66 1524.46 1048.7C1520.02 1052.9 1515.48 1056.79 1510.76 1060.65ZM1515.56 1044.01C1510.85 1048.76 1500.04 1055.99 1501.55 1064.14C1502.94 1071.59 1508.6 1071.16 1513.74 1068.84C1524.52 1063.98 1530.51 1042.7 1541.79 1040.71C1529.28 1032.76 1526.37 1033.13 1515.56 1044.01Z" fill="black"></path> <path fill-rule="evenodd" clip-rule="evenodd" d="M1517.22 621.463C1517.82 644.121 1518.35 666.777 1518.85 689.435C1519.02 697.398 1517.13 708.75 1519.51 716.378C1520.56 719.738 1530.07 734.303 1533.45 735.245C1545.26 738.542 1541.04 708.842 1541.12 701.529C1541.41 676.857 1541.05 652.157 1540.95 627.484C1540.89 614.769 1544.47 508.155 1528.02 508.677C1525.19 508.766 1518.21 520.955 1517.16 523.399C1513.86 531.073 1515.07 542.449 1515.15 550.631C1515.37 574.232 1516.59 597.865 1517.22 621.463Z" fill="black"></path> <path fill-rule="evenodd" clip-rule="evenodd" d="M1616.8 687.512C1617.72 693.776 1617.24 704.221 1624.27 707.47C1630.38 710.294 1632.73 706.935 1635.02 701.686C1640.28 689.61 1638.38 671.148 1638.28 658.662C1638.09 633.916 1635.31 609.276 1633.39 584.625C1632.55 573.807 1634.3 562.944 1632.95 551.624C1632.36 546.659 1631.77 526.676 1622.59 527.608C1614.29 528.448 1615.04 549.389 1614.59 554.784C1610.82 599.701 1610.17 642.676 1616.8 687.512Z" fill="black"></path> <path fill-rule="evenodd" clip-rule="evenodd" d="M2008.51 1203.3C2004.99 1221.33 1947.61 1284.15 1933.16 1249.02C1924.58 1228.17 1943.17 1205.48 1957.66 1193.42C1966.63 1185.95 1977.83 1178.62 1990.06 1180.88C2000.43 1182.81 2010.74 1191.84 2008.51 1203.3ZM1978.88 1170.94C1974.82 1171.9 1940.95 1195.77 1940.64 1195.45C1937.69 1192.49 1959.06 1160.54 1961.26 1157.74C1979.38 1134.72 1991.4 1152.15 2002.73 1170.25C2000.32 1159.44 1993.68 1143.75 1982.59 1139.18C1968.58 1133.4 1957.66 1147.65 1950.92 1157.89C1941.4 1172.37 1936.15 1188.09 1930.86 1204.42C1928.33 1212.21 1925.46 1219.28 1921.18 1226.3C1916.97 1233.23 1909.59 1240.87 1910.68 1249.64C1916.67 1246.3 1919.86 1239.75 1923.63 1234.36C1927.85 1236.07 1926.4 1249.55 1927.26 1252.98C1929.41 1261.61 1935.28 1268.36 1944.36 1269.84C1961.29 1272.6 1979.57 1256.89 1990.89 1246.22C2002.81 1234.97 2015.65 1219.56 2015.55 1202.25C2015.44 1184.17 1997.71 1166.47 1978.88 1170.94Z" fill="black"></path> <path fill-rule="evenodd" clip-rule="evenodd" d="M2024.78 881.08C2015.17 895.827 1998.32 913.503 1980.48 916.93C1967.39 919.443 1958.76 909.712 1964.02 896.575C1968.46 885.471 1983.59 878.458 1993.51 873.573C2001.38 869.699 2038.07 860.674 2024.78 881.08ZM2017.71 856.961C1998.03 856.216 1982.16 870.484 1967.49 881.874C1970.81 868.791 1978.3 854.558 1988.86 846.044C2003.22 834.454 2016.83 841.651 2031.95 847.445C2028.22 835.637 2011.48 831.389 2000.81 833.058C1987.32 835.17 1977.63 846.719 1970.81 857.893C1962.67 871.221 1959.89 886.929 1950.31 899.432C1945.93 905.154 1918.78 926.57 1924.93 935.321C1935.07 924.523 1945.21 913.727 1955.35 902.928C1957.98 915.69 1960.88 930.223 1977.12 928.981C1990.09 927.987 2004.89 916.927 2014.37 908.472C2026.62 897.552 2050.73 858.214 2017.71 856.961Z" fill="black"></path> <path fill-rule="evenodd" clip-rule="evenodd" d="M1742.1 982.876C1733.77 986.719 1715.42 991.944 1710.76 980.395C1704.28 964.352 1725.11 936.215 1735.03 925.525C1741.13 918.949 1745.26 915.547 1753.77 919.803C1760.56 923.202 1770.53 932.859 1773.14 940.285C1778.73 956.224 1755.14 976.86 1742.1 982.876ZM1761.22 905.829C1768.01 907.365 1768.84 916.011 1760.35 912.69C1753.99 910.203 1752.52 903.86 1761.22 905.829ZM1769.74 918.007C1767.21 910.252 1772.36 898.087 1759.88 897.528C1752.81 897.212 1739.85 904.424 1733.68 907.357C1725.12 911.418 1717.07 917.621 1712.6 926.356C1708.46 934.449 1711.41 936.582 1717.72 929.867C1718.49 930.393 1703.45 969.315 1703.32 973.215C1702.73 991.037 1715.31 1002.77 1732.97 999.616C1749.21 996.71 1763.84 983.392 1772.77 969.953C1777.29 963.148 1781 955.36 1781.34 947.027C1781.86 934.247 1773.36 929.108 1769.74 918.007Z" fill="black"></path> <path fill-rule="evenodd" clip-rule="evenodd" d="M1870.84 882.482C1856.63 875.969 1840.76 898.238 1847.61 911.47C1856.59 928.819 1900.43 896.046 1870.84 882.482ZM1853.89 907.376C1850.94 902.102 1871.01 894.325 1874.19 894.196C1872.6 897.107 1857.95 914.61 1853.89 907.376Z" fill="black"></path> <path fill-rule="evenodd" clip-rule="evenodd" d="M903.678 869.739C902.884 864.101 890.292 872.286 890.364 875.915C892.448 871.735 905.331 881.483 903.678 869.739Z" fill="black"></path> <path fill-rule="evenodd" clip-rule="evenodd" d="M1592.41 443.853C1608.44 442.67 1588.01 361.531 1576.33 368.706C1563.66 376.483 1577.7 444.936 1592.41 443.853Z" fill="black"></path> <path fill-rule="evenodd" clip-rule="evenodd" d="M1622.35 405.965C1637.37 408.122 1634.98 373.523 1626.91 367.332C1611.99 355.901 1604.11 403.345 1622.35 405.965Z" fill="black"></path> </svg> 