<?xml version="1.0" encoding="UTF-8"?> <svg xmlns="http://www.w3.org/2000/svg" width="596" height="624" viewBox="0 0 596 624" fill="none"> <g opacity="0.2"> <path d="M254.354 109.447C169.364 132.463 100.31 201.511 102.08 302.428C107.392 268.789 125.099 235.15 151.658 208.593C155.199 208.593 156.97 206.823 158.74 205.052C192.382 173.184 243.73 164.332 287.996 162.561C307.472 160.791 328.72 162.561 348.197 166.102C362.362 169.643 374.756 173.184 388.921 178.495C390.692 180.266 394.233 182.036 396.004 183.807C413.71 206.823 429.645 235.15 443.81 254.625C459.746 275.871 480.993 293.576 509.323 297.116C534.112 300.657 562.442 293.576 578.378 274.101C608.478 240.462 592.542 189.118 573.066 155.479C571.295 153.709 567.754 153.709 562.442 155.479C544.736 123.611 519.947 95.2836 491.617 72.2675C489.846 70.4971 486.305 68.7265 484.535 66.9561C480.993 63.4151 475.682 58.1038 470.37 56.3333C443.81 36.8582 399.545 17.3831 367.674 10.3012C295.078 -7.4034 222.483 -3.86255 156.97 33.3172C105.622 63.4151 56.0443 120.07 34.7969 208.593C63.1268 148.397 105.622 91.7426 165.823 63.4152C256.125 20.924 332.261 42.1696 380.068 70.4971C346.426 58.1038 307.473 54.5628 272.06 56.3333C105.622 66.9561 79.0624 196.2 57.8149 254.625C73.7505 212.134 102.081 169.643 133.952 139.545C178.217 97.0539 245.501 84.6608 305.702 97.054C314.555 98.8245 325.179 102.365 334.032 105.906C307.473 100.595 280.913 102.365 254.354 109.447ZM457.975 245.773C465.058 256.396 473.911 265.248 484.535 272.33C504.011 284.723 528.8 291.805 550.048 282.953C557.13 279.412 562.442 275.871 567.754 268.789C553.589 290.035 530.571 295.346 505.782 284.723C484.535 277.641 468.599 259.937 456.205 242.232C456.205 244.003 457.975 244.003 457.975 245.773ZM337.573 153.709C318.096 151.938 298.619 151.938 277.372 153.709C250.813 157.25 220.712 162.561 194.153 171.414C215.4 159.02 240.189 150.168 266.748 146.627C291.537 146.627 314.555 148.397 337.573 153.709Z" fill="white"></path> <path d="M1.12718 366.166C-2.41407 385.641 2.8978 405.116 9.98028 424.591C9.98028 431.673 11.7508 438.755 13.5215 444.066C13.5215 445.837 17.0628 445.837 18.8334 445.837C32.9984 475.935 54.2458 504.262 77.2639 527.278C79.0345 529.048 82.5757 530.819 84.3463 534.36C87.8876 539.671 91.4288 543.212 96.7407 546.753C121.529 567.999 162.254 592.785 194.125 603.408C264.95 628.195 337.545 631.736 404.829 601.638C459.718 576.851 514.607 525.507 544.708 440.525C511.066 497.18 463.259 550.294 399.517 571.54C305.674 603.408 233.079 576.851 187.042 543.212C220.684 559.146 257.867 566.228 293.28 567.999C459.718 575.081 500.442 449.378 527.002 392.723C507.525 433.443 473.883 472.394 438.471 500.721C390.664 539.671 321.61 544.983 263.179 525.508C254.326 521.967 245.473 518.426 236.62 514.885C263.179 520.196 289.738 520.196 316.298 516.655C403.058 502.491 477.424 440.525 486.277 341.379C468.571 406.886 403.058 472.394 307.445 475.934C279.115 475.934 252.555 470.623 227.767 458.23C247.243 465.312 268.491 468.853 291.509 468.853C341.086 468.853 395.976 458.23 433.159 422.82C436.7 419.28 431.388 419.28 429.617 419.28C426.076 419.28 420.764 421.05 418.994 422.82C383.581 456.459 326.921 465.312 279.115 460C231.308 454.689 192.354 426.361 162.254 390.952C149.859 375.018 139.236 357.313 126.841 341.379C119.759 330.756 112.676 316.593 102.053 311.281C89.6582 305.97 75.4932 307.74 61.3283 313.052C54.2458 313.052 47.1633 313.052 41.8514 314.822C18.8334 318.363 4.66842 341.379 1.12718 366.166ZM77.2639 311.281C84.3464 311.281 89.6582 314.822 93.1994 318.363C89.6582 316.593 82.5757 314.822 77.2639 311.281Z" fill="white"></path> </g> </svg> 