<?xml version="1.0" encoding="UTF-8"?> <svg xmlns="http://www.w3.org/2000/svg" width="1334" height="1000" viewBox="0 0 1334 1000" fill="none"> <path fill-rule="evenodd" clip-rule="evenodd" d="M395.195 548.281C401.374 594.624 407.553 640.968 413.732 687.312L418.722 724.736C419.352 729.459 418.757 738.774 421.157 743.002C422.004 744.493 424.232 745.201 425.87 746.08C431.508 749.107 437.148 752.135 442.786 755.162C490.481 780.769 538.176 806.376 585.869 831.982C631.643 856.557 677.416 881.132 723.188 905.706C727.925 908.251 735.587 914.886 740.7 913.137C745.561 911.476 750.528 907.377 754.941 904.792C763.412 899.827 771.882 894.864 780.353 889.899C831.611 859.86 882.868 829.82 934.126 799.781C955.274 787.387 976.421 774.994 997.57 762.6C1003.35 759.209 1009.14 755.818 1014.93 752.426C1017.96 750.653 1018.35 750.715 1019.54 747.705C1023.99 736.451 1026.06 723.559 1029.21 711.882C1032.68 699.014 1036.15 686.145 1039.62 673.277C1041.17 667.534 1040.45 666.794 1037.92 661.251C1032.92 650.279 1027.93 639.309 1022.93 628.339C1011.84 603.99 1000.74 579.641 989.65 555.292C985.165 545.446 974.36 538.518 966.581 531.275L845.804 418.829C842.736 415.972 839.669 413.117 836.601 410.26C836.096 427.426 832.704 445.881 837.679 462.464C845.844 489.679 854.008 516.894 862.173 544.109C866.119 557.264 870.064 570.417 874.011 583.571C874.744 586.015 879.208 595.706 878.015 597.856C877.354 599.048 871.716 600.253 870.494 600.717C865.248 602.713 860.002 604.709 854.755 606.705C840.137 612.266 825.52 617.827 810.903 623.387C797.756 628.39 784.609 633.391 771.462 638.393C767.003 640.089 761.768 643.23 757.059 642.968C752.847 642.734 748.058 640.649 743.982 639.6C736.817 637.755 729.65 635.908 722.485 634.062C708.409 630.437 694.333 626.812 680.257 623.186C664.421 619.106 651.047 607.126 637.505 598.258C614.226 583.016 590.947 567.774 567.67 552.533C562.34 549.044 562.321 547.053 560.197 540.682C555.425 526.364 550.652 512.046 545.88 497.729C543.331 490.084 540.197 482.407 538.273 474.58C535.098 461.663 533.215 448.292 530.701 435.232C529.943 431.292 529.184 427.351 528.426 423.411C518.678 427.367 508.929 431.324 499.179 435.281C497.766 435.854 490.881 437.563 490.269 438.968C489.881 439.856 491.929 443.886 492.222 444.752C500.305 468.693 508.389 492.633 516.473 516.574C519.016 524.105 521.558 531.635 524.101 539.166C518.025 529.618 511.949 520.068 505.872 510.52C501.098 526.579 496.324 542.639 491.549 558.697C480.265 545.676 468.98 532.656 457.695 519.635C453.788 532.656 449.882 545.676 445.976 558.697C433.823 542.639 421.671 526.579 409.517 510.52C408.073 518.9 406.628 527.281 405.183 535.661C404.747 538.191 404.834 545.447 403.15 547.45C401.764 549.098 397.771 548.281 395.195 548.281Z" fill="url(#paint0_linear_955_6185)"></path> <path fill-rule="evenodd" clip-rule="evenodd" d="M1164.64 648.458C1163.96 670.273 1164.43 698.592 1152.49 717.773C1150.57 720.868 1144.04 730.511 1143.31 722.028C1142.59 713.7 1144.64 705.452 1142.61 697.028C1141.53 692.52 1137.88 682.674 1131.63 686.745C1128.45 688.821 1127.61 693.945 1126.37 697.179C1124.53 701.964 1122.46 706.674 1120.53 711.422C1113.75 727.999 1106.74 747.782 1091.69 758.752C1093.66 744.458 1099.03 729.195 1095.42 714.745C1094.19 709.821 1090.46 700.829 1084.05 703.714C1077.79 706.525 1073.74 719.069 1070.79 724.655C1061.84 741.592 1052.69 758.209 1042.62 774.512C1037.56 782.713 1032.09 790.207 1025.46 797.222C1021.31 801.61 1016.14 809.025 1009.61 809.679C1009.61 797.175 1013.73 785.094 1017.48 773.319C1021.52 760.658 1025.21 747.888 1029.17 735.204C1032.61 724.2 1035.44 713.28 1037.73 701.997C1038.68 697.33 1039.43 692.498 1043.4 689.484C1046.98 686.775 1052.63 685.486 1056.62 683.495C1067.08 678.265 1077.85 672.622 1087.58 666.12C1091.57 663.451 1095.01 660.003 1099.19 657.609C1103.95 654.881 1108.4 652.585 1112.81 649.261C1131.83 634.916 1148.97 617.27 1160.52 596.265C1162.4 604.704 1164.88 612.95 1165.16 621.649C1165.44 630.568 1164.92 639.543 1164.64 648.458ZM1008.12 748.73C1005.08 743.593 1000.44 745.697 996.36 748.174C990.024 752.016 983.671 755.831 977.303 759.625C964.343 767.347 951.623 775.472 938.962 783.67C913.187 800.353 886.514 814.008 859.341 828.131C833.078 841.778 807.852 858.019 783.246 874.435C777.332 878.381 771.459 882.418 765.781 886.697C760.74 890.495 756.709 895.829 751.403 899.21C745.877 902.731 742.079 899.874 736.794 897.278C730.184 894.03 723.296 891.309 716.54 888.381C689.276 876.56 661.933 864.291 635.411 850.874C609.049 837.541 584.071 822.176 558.812 806.917C546.782 799.65 534.958 791.922 523.092 784.388C510.464 776.372 497.39 770.366 484.144 763.55C478.283 760.533 473.092 756.438 467.073 753.696C460.744 750.814 454.059 748.747 448.393 744.589C445.852 742.724 443.709 740.497 440.806 739.178C438.421 738.096 435.716 737.913 433.362 736.763C428.573 734.425 427.201 729.679 426.274 724.743C420.309 693.054 417.139 660.487 413.682 628.446C411.739 610.428 409.571 592.48 406.886 574.556C405.675 566.476 408.11 560.215 409.389 552.355C410.881 543.174 411.471 533.8 412.471 524.556C417.19 533.299 421.27 542.473 427.274 550.451C431.7 556.33 439.26 564.667 447.41 564.471C460.076 564.165 459.497 542.439 460.007 533.816C465.777 538.965 467.527 547.355 472.316 553.336C476.688 558.797 482.639 565.573 489.354 568.019C503.492 573.168 502.131 546.925 501.354 539.482C500.963 535.749 498.855 529.843 503.856 531.545C508.462 533.112 512.944 539.611 516.815 542.592C523.506 547.745 530.846 552.028 537.711 556.947C546.227 563.051 555.418 567.463 564.101 573.148C569.532 576.704 575.457 577.502 581.377 580.116C590.052 583.948 597.714 589.659 605.971 594.253C622.321 603.346 640.459 611.499 658.343 616.981C664.13 618.754 671.841 623.754 676.23 618.616C678.933 615.455 680.709 610.625 683.003 607.081C685.906 602.594 688.988 598.226 692.188 593.946C703.566 578.736 716.192 564.374 730.214 551.546C746.528 536.623 764.367 523.193 783.448 512.008C791.645 507.202 825.877 485.662 833.402 500.822C827.218 500.437 821.859 502.698 816.571 505.53C815.281 506.222 808.626 510.974 810.183 506.786C808.25 507.148 806.554 509.668 805.091 510.79C802.561 512.727 798.724 514.964 795.794 516.568C792.898 518.153 789.32 518.541 786.681 520.463C785.717 521.165 785.132 522.303 784.213 523.062L781.578 523.083C781.183 524.542 780.789 526.001 780.394 527.46C778.905 522.685 776.78 528.895 774.291 530.912C772.795 532.124 770.427 533.373 768.665 534.155C767.349 534.74 767.145 533.381 765.867 534.415C764.731 535.333 764.007 537.355 762.786 538.506C761.287 539.915 759.369 541.01 757.699 542.213C754.498 544.517 751.113 546.327 747.871 548.512C743.509 551.452 741.221 556.508 736.987 559.583C734.98 561.038 731.864 561.209 730.778 562.141C728.056 564.482 728.953 568.029 723.875 568.185C724.337 568.925 724.614 569.727 724.709 570.593C723.5 570.385 722.424 569.883 721.483 569.088C721.694 574.153 716.713 575.961 713.727 579.08C712.006 580.877 709.862 583.404 708.648 585.567C708.446 585.929 708.061 588.816 707.977 588.855C707.517 589.076 704.711 586.611 704.976 586.817C704.194 591.497 699.665 595.921 697.682 600.253C696.638 602.536 695.576 606.205 693.518 607.81C692.958 608.247 691.235 607.791 689.812 609.308C688.768 610.42 687.563 612.476 687.139 613.951C686.856 614.937 687.196 617.486 686.79 618.077C686.045 619.158 684.886 618.072 683.72 618.872C681.563 620.348 681.509 622.655 678.354 622.959C680.528 628.243 693.659 629.872 698.431 631.374C711.927 635.622 726.086 639.864 738.701 646.369C741.964 648.051 745.052 649.438 745.63 653.314C746.436 658.708 743.687 665.879 743.162 671.327C741.742 686.04 741.451 701.185 741.748 715.96C742.03 729.955 742.483 744.081 743.135 758.059C743.739 771.019 746.352 783.722 747.763 796.59C748.149 800.123 747.891 816.05 753.964 815.248C759.035 814.579 755.833 803.7 755.738 800.581C755.526 793.679 756.979 786.632 756.918 779.668C756.889 776.321 758.352 773.437 758.493 770.234C758.632 767.068 757.06 764.567 757.531 761.286C757.984 758.137 767.291 740.028 758.352 742.149C758.876 739.56 759.334 736.95 760.026 734.399C760.981 735.258 761.752 736.262 762.333 737.408C763.128 731.846 762.863 726.293 763.356 720.728C763.578 718.206 764.6 715.444 764.251 712.903C764.317 711.849 764.183 710.816 763.85 709.803C763.3 709.221 762.619 708.915 761.811 708.885C761.385 707.493 761.276 707.11 762.031 705.744C762.355 704.818 762.998 704.24 763.961 704.011C765.794 703.793 766.003 702.74 764.588 700.851C765.326 697.122 765.421 694.767 764.889 691.046C764.441 687.92 766.088 681.866 764.41 679.083C762.45 675.829 761.476 678.985 761.112 674.474C761.033 673.52 760.971 671.53 761.355 670.579C761.776 669.542 763.04 669.967 763.201 669.598C764.299 667.092 764.372 662.157 760.488 662.585C760.64 660.795 760.793 659.004 760.944 657.214C763.75 660.445 762.769 657.71 764.36 655.915C766.503 653.495 768.6 653.079 771.664 652.122C779.829 649.575 787.696 645.743 795.675 642.633C812.571 636.049 829.781 630.17 846.182 622.389C880.678 606.02 914.489 588.256 949.196 572.32C946.717 567.718 948.259 567.494 950.071 563.174C952.49 564.853 951.981 563.681 953.703 563.579C953.546 562.137 953.994 561.702 955.046 562.274C955.884 562.53 956.742 562.622 957.622 562.546C959.77 562.915 961.526 564.097 963.479 564.546C964.119 565.019 964.824 565.373 965.592 565.611C966.282 565.454 966.871 565.112 967.358 564.586C970.519 565.172 971.584 567.554 971.724 571.002C971.747 571.602 969.911 572.217 970.437 573.023C971.355 574.431 973.826 574.096 975.24 574.275C974.931 575.739 974.621 577.201 974.312 578.663C980.516 575.8 978.898 584.762 980.78 587.706C981.304 588.528 982.472 587.872 983.08 588.823C983.872 590.066 983.634 591.825 984.309 593.062C985.837 595.86 987.365 595.52 988.888 598.724C996.842 615.455 1007.42 631.042 1015.06 648.132C1018.69 656.266 1021.97 664.54 1025.77 672.602C1029.26 680.023 1031.26 686.331 1028.77 694.434C1022.99 713.232 1016.82 732.373 1009.25 750.53C1008.88 749.93 1008.5 749.33 1008.12 748.73ZM605.394 889.045C604.852 889.967 604.311 890.888 603.769 891.812C602.566 884.891 605.772 888.101 605.394 889.045ZM579.928 876.086C578.192 875.567 578.942 872.732 578.998 871.52C580.096 872.888 581.173 874.283 582.087 875.786C581.367 875.886 580.647 875.986 579.928 876.086ZM510.132 849.482C511.955 848.46 513.267 847.726 515.333 846.567C513.233 850.661 513.233 850.661 510.132 849.482ZM400.329 488.887C397.544 495.723 406.036 537.932 398.13 539.309C396.996 535.605 396.854 525.404 392.16 524.187C386.336 522.675 386.91 533.176 386.114 536.424C374.157 528.105 368.846 512.04 363.134 499.308C355.852 483.08 350.123 466.201 344.652 449.292C339.974 434.835 336.105 420.123 331.377 405.689C328.407 396.624 325.205 387.537 323.208 378.193C322.774 376.163 321.067 371.016 322.518 369.086C324.626 366.28 332.214 369.494 334.66 370.231C350.523 375.004 366.979 377.059 383.277 379.833C401.385 382.912 419.453 386.096 437.67 388.484C442.222 389.08 446.777 389.645 451.334 390.195C454.29 390.551 458.764 390.195 461.571 391.52C467.254 394.201 468.463 404.461 470.574 409.784C478.448 429.644 487.714 448.875 496.005 468.555C503.474 486.283 509.135 505.144 519.871 521.286C511.864 517.736 501.717 498.971 492.77 509.787C488.924 514.438 489.894 520.566 490.201 526.132C490.647 534.179 490.786 542.286 490.786 550.346C482.031 548.071 476.148 538.132 471.552 531.092C465.273 521.476 461.319 512.415 458.539 501.391C457.334 496.618 454.142 496.499 451.304 493.642C449.481 491.806 448.565 489.333 445.95 492.003C442.664 495.36 444.85 504.655 445.418 508.619C446.765 518.05 451.186 532.564 446.889 541.426C441.089 553.386 425.549 523.293 423.729 518.947C422.803 516.735 406.269 474.307 400.329 488.887ZM389.472 283.926C390.451 284.076 391.429 284.226 392.408 284.376C391.619 285.072 389.977 287.515 388.636 286.869C388.915 285.889 389.194 284.908 389.472 283.926ZM441.334 272.797C441.028 273.135 440.72 273.471 440.412 273.808C439.009 272.053 439.506 269.494 439.506 267.464C441.362 268.585 441.815 270.827 441.334 272.797ZM445.526 292.271V298.008C441.638 296.323 441.561 295.454 445.526 292.271ZM450.247 299.566C447.523 298.818 447.198 298.215 447.58 294.029C448.709 296.374 449.453 297.92 450.247 299.566ZM465.927 342.053C464.785 344.99 458.112 337.99 458.356 335.895C458.589 333.896 459.614 333.3 461.028 334.585C461.496 335.011 460.802 336.549 461.1 337.083C462.177 339.015 464.347 340.596 465.927 342.053ZM466.001 359.751C464.329 363.925 461.349 357.351 465.717 357.171C466.004 358.011 466.099 358.87 466.001 359.751ZM462.757 353.168C462.11 352.305 461.481 351.43 460.871 350.54C463.121 350.994 464.907 354.273 467.281 352.085C467 355.421 464.63 355.514 462.757 353.168ZM317.256 298.945C313.638 294.995 337.233 292.223 340.079 291.545C360.735 286.619 380.238 279.491 399.552 270.745C408.765 266.573 417.932 262.351 426.929 257.726C430.815 255.73 436.14 254.037 439.385 251.04C441.701 248.9 441.609 247.282 444.619 246.007C447.175 244.928 447.303 245.947 448.474 243.994C449.177 242.822 449.972 238.528 449.561 237.257C448.44 233.79 446.782 236.601 444.455 234.211C442.78 232.489 443.186 227.59 443.643 225.562C444.237 226.528 444.578 227.577 444.669 228.708C447.194 227.463 446.175 223.188 448.937 222.487C451.847 221.751 451.546 224.017 452.306 226.335C454.505 223.106 452.742 220.352 451.552 217.198C457.602 216.066 464.104 214.968 470.101 216.981C474.438 218.435 478.151 222.012 482.73 222.704C487.214 223.379 488.076 221.253 491.382 219.096C494.066 217.344 496.371 219.407 497.752 218.084C496.901 222.55 489.579 221.939 490.48 227.52C490.886 230.032 493.964 232.288 495.366 234.243C497.125 236.696 498.527 239.408 499.725 242.172C504.385 252.925 506.377 265.403 508.333 276.902C513.158 305.284 513.769 334.227 518.308 362.701C520.471 376.264 522.639 389.834 523.763 403.529C524.044 406.954 526.135 414.721 524.424 418.015C522.977 420.796 519.759 420.804 516.933 421.477C511.405 422.791 506.213 424.576 500.91 426.554C496.156 428.326 494.774 429.413 491.722 424.941C488.77 420.612 487.311 415.454 485.199 410.709C482.509 404.663 479.259 398.83 476.139 392.998C482.268 392.998 485.795 389.689 485.632 383.461C485.455 376.563 479.782 374.926 477.444 369.257C475.169 372.211 474.977 372.295 473.356 369.49C471.502 366.283 470.251 360.415 469.117 356.777C469.928 357.642 470.739 358.508 471.55 359.373C473.596 356.558 470.392 352.12 469.32 349.469C467.666 345.375 467.375 340.95 465.806 336.868C464.95 334.64 462.968 332.886 462.483 330.562C462.158 329.006 463.458 327.525 463.149 325.946C462.613 323.196 459.502 320.245 458.535 317.448C457.046 313.146 455.431 309.359 453.584 305.167C451.086 299.494 451.666 293.541 451.209 287.503C450.735 281.243 448.73 275.253 448.022 269.02C447.532 264.714 449.065 259.292 445.807 255.843C445.425 261.576 447.069 261.488 441.682 262.519C435.549 263.692 431.101 268.261 425.303 269.624C424.108 269.905 423.237 264.684 423.703 271.807C420.921 269.753 414.985 272.303 417.2 273.521C415.522 275.317 412.216 274.075 411.664 276.765C405.959 271.219 396.812 290.096 390.019 280.249C388.898 286.922 384.066 290.868 377.579 291.751C374.317 292.193 372.307 293.28 369.412 294.258C368.825 294.455 368.609 295.3 367.914 295.528C366.851 295.874 365.291 294.829 364.526 295.032C362.967 295.446 361.234 297.497 359.058 297.904C356.563 298.372 353.842 298.157 351.345 297.868C348.222 297.506 346.849 297.136 343.791 298.165C341.041 299.09 338.096 301.683 335.544 298.86C331.535 305.796 321.976 304.101 317.256 298.945ZM502.6 215.243C499.566 214.879 501.673 212.27 503.078 211.486C506.895 209.359 505.876 215.636 502.6 215.243ZM334.605 240.133C352.412 214.443 382.871 196.792 409.67 181.941C424.308 173.829 439.25 165.965 454.619 159.326C462.261 156.027 469.992 152.855 477.795 149.956C481.962 148.408 486.179 147.001 490.399 145.599C491.566 145.213 493.688 144.025 494.91 144.141C494.699 144.12 497.945 145.003 497.307 145.28C499.398 144.37 500.393 141.997 502.851 141.047C505.614 139.98 509.134 139.538 512.093 139.442C514.712 139.356 516.979 140.438 519.474 140.523C521.113 140.577 522.506 139.799 524.112 139.684C524.933 139.627 524.86 140.856 525.355 140.928C525.57 140.959 527.757 140.137 527.778 140.152C528.575 140.663 529.281 142.661 530.001 143.441C532.066 145.678 535.097 147.236 537.851 148.413C541.203 149.846 549.379 151.286 545.589 156.585C548.281 156.198 549.533 158.631 546.164 159.247C544.338 159.581 543.558 157.909 542.203 156.769C539.071 154.139 531.47 150.394 526.959 150.563C524.421 150.658 522.461 152.584 520.121 153.283C517.817 153.971 516.677 152.904 514.656 153.073C512.294 153.27 510.773 155.269 508.522 155.624C506.414 155.958 505.239 154.52 503.355 154.62C501.116 154.739 498.946 156.684 496.808 157.338C493.407 158.377 490.91 159.085 487.589 160.808C481.155 164.148 473.968 165.416 467.337 168.291C462.035 170.589 456.023 171.799 451.117 174.34C445.661 177.165 440.181 179.978 434.838 183.047C430.979 185.265 423.132 186.028 418.877 185.464C418.816 193.3 414.959 187.807 411.073 191.239C411.992 192.05 413.036 192.646 414.201 193.028C409.989 194.71 406.096 196.804 402.015 198.737C397.798 200.737 393.298 201.178 390.527 204.96C387.975 208.446 388.839 206.648 385.031 208.02C383.283 208.65 381.764 210.572 380.505 211.862C378.341 214.081 377.862 217.441 376.626 212.881C376.265 213.437 374.846 216.977 374.57 217.067C373.022 215.424 372.799 217.372 371.933 218.068C372.389 219.583 371.738 220.575 369.98 221.045C369.091 221.706 368.19 222.355 367.28 222.989C363.977 225.279 359.774 227.244 357.449 230.657C355.734 229.645 355.099 227.899 356.143 226.116C352.865 229.137 348.955 232.24 348.069 236.89C347.661 236.497 347.186 236.213 346.647 236.038C345.316 236.937 347.049 239.614 347.893 240.217C351.573 238.787 346.974 239.305 349.446 239.536C350.151 239.601 350.875 240.128 351.652 240.137C353.932 240.167 356.074 240.058 358.334 239.71C363.319 238.942 368.217 237.511 373.043 236.076C378.298 234.514 383.554 232.954 388.694 231.037C392.925 229.459 397.087 227.7 401.247 225.947C402.908 225.247 404.569 224.537 406.233 223.842C409.393 222.521 411.059 220.352 410.618 224.068C413.135 223.65 415.316 220.093 417.248 218.641C419.967 216.601 423.024 215.079 426.246 214.037C427.55 213.615 428.509 213.079 429.858 213.075C430.519 213.073 430.915 214.938 431.332 214.836C434.222 214.136 432.905 212.534 434.204 210.227C437.046 205.184 444.703 202.395 449.405 199.53C452.389 197.711 454.507 195.265 457.263 193.251C458.552 192.309 459.488 191.892 460.838 191.494C461.872 191.188 463.14 193.563 463.811 191.176C461.406 190.193 459.423 188.981 457.109 188.264C455.472 187.754 457.436 186.014 454.842 187.05C453.8 187.467 453.442 189.482 453.059 190.326C450.162 187.739 442.017 190.42 438.579 191.503C438.342 191.577 437.281 191.017 436.781 191.051C434.796 191.184 433.415 193.855 432.109 195.006C428.636 198.064 424.869 199.343 420.593 201.089C421.731 194.872 430.095 192.325 434.976 189.943C442.112 186.461 448.755 182.017 456.567 180.145C461.77 178.896 468.665 177.892 470.912 183.942C472.257 187.568 472.427 196.577 467.876 198.251C467.395 196.558 468.935 195.111 469.398 193.642C464.868 195.372 464.122 200.813 460.682 203.653C458.748 205.248 458.057 205.76 457.122 207.301C456.194 208.833 455.748 210.261 453.573 211.89C450.017 204.336 450.618 214.683 448.815 215.981C449.54 215.459 445.876 216.984 446.313 216.822C446.144 216.885 444.548 214.299 443.513 214.353C441.628 214.452 441.99 216.527 441.083 217.571C438.006 221.105 434.031 223.422 429.079 222.866C428.963 225.381 429.739 228.385 426.306 228.614L425.855 223.04C423.987 224.93 421.527 226.726 420.006 228.915C418.276 231.405 418.461 232.939 415.589 234.599C412.589 236.335 406.207 239.754 402.636 240.05C403.519 238.797 403.363 237.666 402.17 236.658C400.375 238.51 397.724 238.692 395.812 240.364C402.448 243.136 390.714 242.993 389.226 243.307C388.23 243.517 387.36 244.425 386.351 244.629C385.011 244.902 384.838 243.493 383.684 243.939C381.997 244.593 382.682 246.438 380.916 247.365C379.648 248.032 377.497 248.023 376.066 248.655C372.656 250.166 365.392 253.511 363.087 249.454C361.919 256.415 349.99 252.178 345.575 251.709C339.528 251.067 328.996 248.228 334.605 240.133ZM360.004 168.912C360.859 168.182 361.716 168.235 362.573 169.073C361.38 162.774 370.605 159.715 374.63 157.037C379.968 153.485 386.252 146.593 393.238 147.139C392.046 148.021 390.858 148.904 389.668 149.787C391.367 150.007 393.065 150.227 394.761 150.447C393.804 151.853 392.846 153.258 391.886 154.663C390.319 146.023 382.139 156.932 379.772 158.521C377.388 160.122 375.01 161.314 372.892 163.266C370.793 165.2 368.898 168.682 365.428 166.942C365.112 171.877 361.144 170.538 358.401 173.271C358.286 171.557 359.268 170.344 360.004 168.912ZM396.246 144.278C404.69 141.115 412.041 135.267 419.998 131.09C427.599 127.1 435.352 123.517 443.079 119.794C446.998 117.905 454.178 113.019 458.658 115.509C464.704 118.871 456.381 119.955 454.22 121.12C453.42 115.942 450.619 120.633 452.293 123.513C447.679 121.521 437.618 129.315 433.217 131.464C432.221 131.951 432.668 132.232 431.535 132.805C431.256 132.946 428.368 133.603 427.541 133.881C423.398 135.267 420.668 134.166 418.882 139.167C418.509 137.99 418.135 136.812 417.761 135.633C415.168 141.458 407.283 144.007 402.242 147.451C400.942 148.339 397.231 151.783 395.583 151.071C393.289 150.079 394.209 145.04 396.246 144.278ZM548.573 161.838C552.138 162.073 548.7 163.736 549.679 164.835C549.569 164.711 551.826 166.637 551.531 166.109C551.929 166.82 552.886 166.793 553.376 168.239C555.062 173.209 547.699 178.344 545.216 181.165C540.388 186.65 537.597 193.597 532.566 198.907C530.294 201.305 528.033 202.961 524.884 203.856C522.679 204.482 520.347 203.812 518.321 205.932C516.69 207.639 517.06 208.609 515.256 209.516C512.079 211.116 510.679 209.713 507.588 213.171C504.928 205.939 512.571 205.951 516.559 201.909C522.065 196.33 528.097 190.701 533.26 184.732C537.846 179.429 539.683 174.779 541.86 168.336C542.546 166.305 543.294 161.95 545.186 160.675C548.132 158.691 546.364 161.691 548.573 161.838ZM566.104 349.702C575.454 339.244 587.053 329.853 599.626 323.554C604.119 321.301 610.517 318.346 615.174 321.813C619.742 325.211 618.759 331.991 616.918 336.603C615.153 335.911 616.819 329.429 615.903 327.827C613.906 324.333 609.596 326.188 606.664 327.36C603.229 328.732 600.164 330.248 597.444 332.739C596.339 333.748 594.226 334.653 593.519 335.347C592.457 334.905 591.83 335.227 591.643 336.31C591.862 336.974 591.836 337.628 591.563 338.271C591.408 338.476 590.027 337.637 589.83 337.805C588.934 338.572 588.096 339.474 587.214 340.187C585.445 341.618 583.94 342.295 582.311 344.29C579.165 348.145 575.004 350.404 571.843 354.077C571.13 354.908 570.274 357.037 570.114 357.223C568.517 359.088 566.148 360.563 564.346 362.537C561.23 365.947 557.903 368.236 554.308 371.161C552.76 372.418 550.954 373.774 549.924 375.524C549.455 376.322 549.191 380.697 549.174 380.715C545.648 384.58 546.334 376.812 546.6 375.838C549.463 365.357 559.144 357.489 566.104 349.702ZM546.858 420.571C547.296 422.217 547.657 423.577 548.102 425.248C545.307 422.955 545.307 422.955 546.858 420.571ZM543.838 425.961C542.811 426.997 541.778 428.025 540.738 429.047C538.45 426.629 544.257 425.547 543.838 425.961ZM542.386 384.344C541.293 388.769 537.289 394.132 534.536 397.624C534.839 397.239 532.187 398.014 531.885 398.189C530.905 398.757 533.252 402.437 529.855 400.792C528.649 401.474 531.023 404.253 529.385 405.497C524.651 394.709 537.578 385.362 542.583 377.355C545.031 379.602 543.001 381.864 542.386 384.344ZM511.635 442.67C515.087 443.558 516.882 442.999 519.213 439.609C520.614 437.572 521.126 433.965 524.33 437.012L524.895 433.094C529.47 434.971 529.086 441.752 531.084 445.51C532.057 441.258 534.36 429.382 541.414 431.287C549.332 433.426 536.153 447.043 534.929 450.379C532.238 446.202 533.296 450.088 531.243 450.676C529.481 451.183 526.729 449.886 524.588 450.003C518.075 450.357 512.354 453.287 506.405 455.767C504.898 451.706 503.393 447.645 501.886 443.584C505.389 443.853 512.631 434.53 513.66 441.306C511.062 440.855 510.33 440.969 509.065 443.334C509.873 442.924 510.73 442.702 511.635 442.67ZM526.255 495.679C526.244 495.646 532.992 496.063 533.593 495.843C538.211 494.157 536.504 488.92 537.448 485.218C539.351 486.968 538.342 490.162 538.929 492.426C539.618 495.088 541.613 497.356 541.798 500.202C542.218 506.633 536.941 505.206 532.941 507.287C529.523 509.066 529.144 511.303 526.257 506.51C525.476 505.213 523.796 501.834 523.968 500.175C524.138 498.532 526.741 497.166 526.255 495.679ZM531.692 523.507L529.826 521.417C535.386 523.119 532.108 520.56 533.386 517.062C537.653 519.903 541.134 522.823 544.51 517.135L550.343 540.663C546.425 541.585 541.371 535.532 538.683 533.452C537.131 532.25 528.518 527.622 533.69 526.273C533.023 525.351 532.358 524.429 531.692 523.507ZM569.77 449.624C566.532 452.704 563.27 454.428 559.744 456.848C556.652 458.973 557.717 461.412 555.036 463.782C553.256 465.357 549.083 466.961 546.884 468.163C542.966 470.304 539.457 470.711 535.427 468.316C536.523 477.145 530.476 477.836 522.949 479.585C519.359 480.42 517.234 481.695 514.647 478.407C512.875 476.157 512.181 472.083 514.385 470.024C517.886 466.753 527.214 467.882 531.707 465.825C535.115 464.265 538.588 455.474 542.794 458.674C540.623 455.217 543.151 454.286 545.037 451.821C547.104 449.119 548.373 445.96 550.511 443.28C554.574 438.187 560.811 433.063 566.58 429.991C571.657 427.29 574.323 429.202 575.083 434.877C575.466 437.73 575.451 441.98 573.854 444.511C573.345 445.318 571.664 445.327 571.155 446.085C570.268 447.409 571.082 448.377 569.77 449.624ZM629.345 381.144C633.395 384.279 633.001 390.868 633.639 395.355C634.539 401.679 633.886 407.799 633.79 414.24C633.688 420.989 630.377 425.385 628.819 431.71C627.087 438.747 624.851 442.473 620.966 448.378C625.179 449.041 618.908 461.624 617.875 463.253C616.752 465.021 607.701 473.17 611.582 473.17C609.441 475.993 607.11 478.89 604.977 481.635C604.138 482.715 602.665 483.14 602.004 483.903C600.656 485.454 600.574 486.836 599.609 488.646C598.144 491.392 597.662 490.659 595.737 492.652C594.407 494.028 593.535 495.844 592.229 497.163C588.02 501.412 587.484 497.931 585.131 494.659C584.77 495.536 584.13 496.085 583.209 496.308C582.472 492.605 587.545 488.864 589.678 486.614C593.171 482.926 596.364 478.864 599.453 474.831C606.067 466.191 612.011 457.011 616.701 447.178C621.691 436.713 625.677 425.387 627.747 413.971C629.325 405.269 630.825 390.342 619.198 388.128C610.741 386.519 601.418 391.657 594.446 395.817C590.198 398.351 585.925 400.87 581.879 403.721C577.485 406.812 573.688 411.187 568.92 413.667C571.528 412.31 562.923 416.394 564.241 415.245C563.623 415.782 564.156 417.421 563.748 418.161C563.217 419.123 561.371 420.073 560.543 420.696C558.355 422.339 554.86 424.02 553.865 426.734C539.99 416.835 567.583 399.262 574.656 394.787C588.686 385.911 613.099 368.567 629.345 381.144ZM666.772 284.877C666.639 277.749 672.444 268.019 676.364 262.206C678.282 259.361 681.346 259.474 682.47 256.119C683.118 254.187 682.268 252.161 682.461 250.221C682.721 247.597 683.859 245.493 685.171 243.238C697.037 222.851 711.454 204.807 726.81 187.02C734.381 178.252 741.56 169.146 749.725 160.909C753.136 157.469 762.304 145.102 767.549 146.339C770.326 146.994 771.942 151.232 773.196 153.395C775.269 156.972 777.549 160.322 780.069 163.611C786.718 172.295 794.389 179.917 803.447 186.072C809.104 189.918 814.819 193.657 820.35 197.687C824.903 201.003 831.787 204.795 835.039 209.451C838.291 214.109 833.515 218.053 830.905 221.92C826.847 227.934 823.115 234.166 819.041 240.174C817.423 239.01 817.841 236.645 816.731 235.154C815.747 233.833 814.355 233.295 812.996 232.478C810.39 230.917 807.833 229.008 805.48 231.624C801.362 236.202 807.024 247.024 813.128 245.836C813.847 250.355 801.658 257.796 798.604 260.283C789.229 267.911 779.558 274.542 767.174 275.232C762.162 275.511 756.948 275.131 752.186 273.454C749.905 272.65 747.382 271.547 745.634 269.796C743.54 267.7 743.006 264.58 740.975 262.504C739.213 260.704 736.794 260.426 735.033 258.619C733.27 256.81 732.399 253.954 731.685 251.611C730.286 247.034 730.022 242.208 728.678 237.62C727.869 234.861 727.205 231.172 724.569 233.823C720.739 237.675 722.662 249.786 723.643 254.4C725.045 260.984 728.333 266.291 731.777 271.955C735.511 278.099 736.89 283.799 737.559 290.908C738.812 304.217 742.631 316.987 748.574 328.961C751.075 334.003 754.071 338.744 756.772 343.67C758.033 345.968 760.86 353.809 764.291 353.767C769.773 353.7 761.964 337.714 760.881 335.03C754.876 320.167 749.14 304.545 747.854 288.451C756.462 290.668 765.845 292.773 774.759 291.368C769.005 304.235 775.015 317.046 774.28 330.291C773.912 336.933 773.647 343.06 773.783 349.683C773.905 355.49 771.282 361.295 769.015 366.546C764.513 376.974 758.845 389.839 750.483 397.827C743.492 404.506 734.14 405.028 725.006 403.49C704.227 399.99 690.575 384.017 681.855 365.877C676.252 354.223 671.97 341.783 669.311 329.127C666.233 314.48 667.045 299.734 666.772 284.877ZM693.756 186.165C674.365 172.135 702.543 156.202 716.885 158.372C720.25 158.879 726.44 160.27 726.125 164.661C725.867 168.249 719.881 172.249 717.583 174.464C711.03 180.784 704.36 193.835 693.756 186.165ZM834.816 497.905C834.151 497.309 828.724 498.773 830.873 495.562C832.66 492.894 837.613 496.237 839.412 496.924C837.929 497.948 836.639 499.536 834.816 497.905ZM754.075 667.592C752.408 667.797 750.666 663.303 756.674 666.661C755.808 666.971 754.941 667.282 754.075 667.592ZM753.903 740.848C754.11 742.862 754.726 744.191 753.295 745.655C752.086 744.165 751.929 742.062 753.903 740.848ZM756.342 771.116C756.165 772.213 755.988 773.309 755.813 774.404C754.425 773.702 753.04 773 751.652 772.297C753.214 771.904 754.78 771.511 756.342 771.116ZM758.04 745.593C760.108 746.366 759.145 743.894 760.647 743.546C761.185 746.12 760.522 748.325 759.044 750.448C758.903 749.946 758.145 745.631 758.04 745.593ZM810.884 562.943C807.983 562.573 807.544 565.638 805.381 566.827C803.985 567.596 799.735 567.019 798.942 568.489C799.989 568.791 801.037 569.094 802.084 569.396C799.687 570.688 797.29 571.981 794.893 573.273C800.658 573.273 806.666 570.519 812.393 571.327C814.813 571.67 816.588 572.487 818.106 574.456C819.028 575.652 819.838 577.575 819.987 579.038C820.147 580.622 818.912 581.715 819.131 582.471C821.712 582.541 821.407 586.774 820.828 588.499C819.571 592.24 814.58 598.098 810.108 595.726C811.979 598.381 811.502 599.896 808.735 601.437C808.987 600.559 809.171 599.024 807.757 599.176C807.394 600.648 807.533 602.981 806.332 604.09C804.987 605.331 803.786 603.881 802.5 604.688C800.975 605.646 801.433 607.15 800.234 608.189C798.648 609.562 798.421 608.586 796.526 608.853C793.654 609.26 795.487 607.476 793.187 609.801C792.391 610.603 792.526 612.691 791.237 613.865C788.76 616.119 782.152 618.468 779.779 615.577C774.075 624.618 756.977 626.787 749.019 619.65C736.326 608.269 759.993 585.122 767.807 577.786C775.649 570.424 784.36 564.064 793.174 557.926C798.182 554.439 803.321 551.274 808.569 548.167C811.806 546.249 815.871 542.748 819.849 543.084C823.416 543.386 826.464 546.154 830.221 546.702C832.937 547.098 838.214 547.752 834.787 551.437C833.184 553.158 826.89 555.942 824.747 556.361C823.488 556.607 822.161 556.136 820.914 556.391C818.802 556.825 817.351 558.607 815.053 558.381C815.781 561.791 814.453 563.396 810.884 562.943ZM848.447 436.342C848.449 439.01 843.579 438.344 842.562 437.438C840.888 435.947 840.829 431.489 840.208 429.461C843.039 430.174 848.445 432.78 848.447 436.342ZM809.218 348.323C819.447 339.916 830.203 332.208 841.572 325.418C845.644 322.987 851.393 318.084 856.45 318.696C858.571 318.954 862.957 321.39 861.359 324.076C861.061 324.579 858.7 324.78 857.971 325.145C857.144 325.558 856.496 326.696 855.729 327.258C850.416 331.155 844.033 333.55 838.704 337.541C834.324 340.818 830.239 344.485 825.524 347.297C821.001 349.994 816.274 351.701 811.98 354.688C812.065 354.628 806.394 356.667 807.506 357.038C802.528 355.373 807.786 349.502 809.218 348.323ZM877.419 345.192C883.496 342.77 889.441 339.831 895.803 338.204C898.977 337.391 902.237 336.78 905.523 337.146C906.082 336.168 906.825 335.952 907.755 336.498C908.48 337.613 909.436 338.468 910.623 339.066C912.436 340.459 919.109 342.28 917.776 345.357C916.894 347.392 910.203 347.562 908.367 348.019C902.832 349.398 897.67 352.499 891.968 353.261C891.433 353.333 889.686 352.684 889.666 352.688C887.441 353.174 885.589 355.482 883.678 356.589C879.563 358.971 873.652 359.37 870.697 363.481C880.265 369.967 888.566 363.534 896.977 358.637C902.016 355.705 907.425 353.589 912.932 351.709C915.809 350.727 918.713 349.706 921.63 348.844C922.837 348.404 924.078 348.088 925.351 347.894C926.536 347.658 927.384 348.089 927.895 349.188C931.421 349.071 931.723 346.859 933.846 350.985C936.838 356.803 932.26 356.507 927.958 357.222C921.992 358.211 915.924 360.441 910.045 361.918C908.69 362.26 896.8 365.016 896.786 365.114C896.247 368.866 930.369 365.391 933.299 364.829C938.468 363.834 944.013 361.01 949.364 361.691C953.474 362.213 962.834 368.241 956.279 372.247C954.989 366.07 950.559 371.171 948.247 373.256C945.166 376.03 940.752 375.764 936.527 376.851C930.748 378.335 915.955 383.905 911.851 376.804C913.149 383.028 889.569 379.865 886.326 379.659C883.166 379.458 879.087 380.129 876.032 379.228C874.04 378.641 872.932 377.346 871.057 377.054C870.597 377.549 870.046 377.886 869.406 378.064C868.455 377.584 867.597 376.972 866.832 376.231C860.516 373.329 850.746 371.724 854.255 362.478C857.565 353.758 869.391 348.392 877.419 345.192ZM936.61 350.581C936.768 350.038 936.925 349.495 937.082 348.951C937.101 350.616 941.072 351.327 940.614 353.485C939.597 358.262 935.014 351.084 934.621 350.301C935.285 350.395 935.946 350.487 936.61 350.581ZM960.858 358.519C961.317 360.476 966.599 364.642 965.29 365.603C963.208 362.773 957.453 364.058 960.858 358.519ZM871.773 537.086C873.707 533.252 879.552 539.782 878.934 533.235C882.113 533.523 880.128 535.941 883.937 534.878C885.364 534.48 886.329 532.898 888.069 532.533C888.532 532.435 890.536 532.594 891.227 532.573C893.518 532.503 902.494 532.248 896.316 529.244C899.774 526.958 900.2 528.118 903.321 530.213C902.52 525.882 907.113 528.34 909.251 528.881C907.726 526.411 911.51 523.783 912.738 522.114C912.298 524.685 912.529 527.564 916.251 525.92C917.178 525.511 916.97 523.693 917.705 523.396C919.052 522.853 919.804 523.842 920.287 523.786C920.763 523.732 921.764 523.999 922.763 523.623C924.061 523.135 923.434 521.392 925.08 521.133C926.152 520.965 926.934 522.541 928.243 522.554C928.915 522.56 930.036 521.878 930.546 521.915C930.636 521.921 931.276 520.379 932.061 520.342C933.209 520.286 933.677 523.362 934.096 523.96C936.106 526.812 938.78 528.671 941.863 530.192C936.285 535.306 925.032 534.765 918.018 536.489C914.218 537.424 910.977 538.771 907.501 540.508C906.662 541.054 905.94 541.723 905.335 542.516C904.843 542.189 904.35 541.862 903.858 541.536C901.953 541.653 900.151 540.71 898.006 541.072C891.382 542.189 886.196 547.152 879.464 548.257C876.44 548.754 873.954 549.448 871.984 546.826C870.255 544.527 870.541 539.532 871.773 537.086ZM862.691 506.523C864.192 507.792 862.386 511.925 865.292 511.476C867.355 511.157 866.944 507.958 868.563 507.279C870.691 506.39 871.975 508.501 873.975 508.305C877.703 507.938 877.489 504.683 874.339 503.253C877.614 502.389 878.664 506.261 881.563 506.226C885.372 506.18 884.463 501.687 887.704 500.942C889.108 500.619 888.639 502.68 889.549 502.937C891.372 503.448 892.641 502.569 894.253 501.796C895.696 501.105 896.724 499.769 898.3 499.316C899.018 499.109 900.841 499.487 901.367 499.103C902.428 498.33 903.378 495.317 904.423 494.918C904.209 494.999 907.634 496.715 908.125 496.877C907.824 498.149 907.127 498.3 906.033 497.331C906.033 500.202 914.013 501.097 912.376 497.549C916.691 499.335 913.477 500.254 913.046 502.748C912.875 503.751 912.291 503.723 912.464 504.783C912.544 505.271 914.806 504.851 914.777 505.516C914.587 509.801 900.929 511.119 898.342 511.497C892.985 512.279 887.916 513.596 882.752 515.217C878.907 516.424 872.279 519.881 868.188 519.666C862.304 519.357 861.537 511.68 862.691 506.523ZM849.544 462.796C848.109 458.029 852.712 448.183 858.707 449.413C860.181 449.715 860.544 450.937 861.687 451.478C863.283 452.236 865.88 451.838 867.264 452.62C870.367 454.377 868.803 458.852 871.912 460.469C867.003 461.659 851.824 470.373 849.544 462.796ZM855.225 481.317C857.339 480.18 860.768 480.034 862.209 477.848C862.928 478.346 864.286 481.365 865.574 480.903C866.175 480.688 866.796 479.051 866.753 479.053C867.901 479.02 868.128 477.467 869.882 477.641C871.492 477.803 873.294 479.737 874.727 480.459C874.481 475.662 875.711 475.204 879.6 472.636C880.453 472.073 881.165 469.961 881.951 469.107C881.199 474.141 883.096 474.168 887.115 474.925C892.154 475.873 895.294 478.579 897.313 483.447C893.019 482.61 887.48 483.618 885.787 488.234C882.36 481.972 869.904 490.612 865.875 492.382C862.884 493.696 859.404 495.461 856.897 492.4C855.131 490.244 856.143 487.65 856.181 485.735C856.191 485.133 856.812 485.098 856.755 484.202C856.682 483.059 855.194 482.602 855.225 481.317ZM901.071 579.782C899.937 580.211 894.1 580.452 894.062 578.519C894.031 576.81 904.364 578.532 901.071 579.782ZM891.589 573.527C887.173 576.249 882.231 566.655 880.608 563.892C885.24 564.485 887.502 560.61 890.231 557.665C892.828 563.353 896.77 560.347 900.917 558.447C905.808 556.206 911.168 556.189 916.178 554.391C917.742 553.83 919.183 552.995 920.709 552.353C921.938 551.894 923.164 551.422 924.384 550.939C925.25 550.158 925.558 549.196 925.306 548.055C924.895 547.097 925.175 546.491 926.145 546.241C927.299 546.585 928.476 546.786 929.679 546.839C931.61 546.456 934.385 544.635 932.054 542.671C934.552 540.403 937.053 542.658 939.458 543.652C938.886 542.023 938.317 540.394 937.746 538.765C938.938 539.271 942.48 544.219 942.841 544.192C945.13 544.02 944.891 540.948 946.207 539.709C946.966 540.645 947.183 547.626 950.168 545.274C951.444 544.269 948.696 540.844 948.019 540.064C951.433 540.835 954.414 544.911 955.337 548.075C953.716 548.309 952.217 547.984 950.841 547.096C949.96 551.502 958.117 549.717 959.437 552.019C962.023 556.525 945.203 559.655 943.011 560.073C938.626 560.909 933.45 561.221 929.43 563.165C925.579 565.025 924.668 565.558 920.168 565.907C915.031 566.305 910.019 567.998 905.05 569.316C900.737 570.459 895.414 571.17 891.589 573.527ZM985.47 412.21C989.526 410.751 1003.19 403.176 1006.66 406.545C1006.3 406.188 1009.17 412.128 1009.14 411.754C1009.39 414.844 1009.31 416.088 1005.51 417.568C1002.79 418.628 1000.41 416.376 997.964 417.27C995.273 418.253 997.156 419.993 995.77 421.208C994.252 422.54 991.325 423.115 989.436 423.698C984.811 425.127 980.149 426.321 975.546 427.86C966.18 430.991 956.263 433.905 946.638 436.12C939.445 437.775 927.237 441.889 920.609 437.03C919.962 439.792 918.381 439.415 916.186 439.817C914.463 440.132 911.349 440.985 909.817 441.029C907.269 441.103 900.184 440.435 901.16 436.861C900.891 437.846 906.67 434.476 905.67 434.266C908.125 434.783 907.329 433.547 909.339 432.86C911.966 431.963 914.711 432.011 917.391 431.06C924.151 428.665 929.82 425.555 936.954 424.054C953.25 420.625 969.748 417.868 985.47 412.21ZM332.218 781.471C330.898 781.506 329.871 777.754 333.888 780.433C333.332 780.779 332.776 781.124 332.218 781.471ZM300.487 776.616C298.691 777.076 297.975 776.073 298.341 773.611C300.845 772.622 301.56 773.623 300.487 776.616ZM275.989 771.592C275.53 769.396 277.157 768.901 278.632 767.916C278.484 770.825 278.484 770.825 275.989 771.592ZM214.351 753.527C211.868 752.981 208.56 750.553 207.991 754.629C207.575 753.685 205.455 749.245 206.366 748.218C206.841 747.68 208.64 750.167 208.449 749.921C210.622 745.525 214.368 750.83 216.462 752.399C215.759 752.775 215.054 753.152 214.351 753.527ZM859.945 267.724C860.802 265.912 861.813 265.336 862.975 265.999C861.149 270.239 854.967 272.537 859.945 267.724ZM902.901 227.928C904.432 230.799 902.128 232.012 900.484 234.399C901.446 231.825 902.113 230.041 902.901 227.928ZM1089.59 508.193C1095.12 508.192 1106.88 505.277 1110.21 511.59C1112.42 507.3 1114.92 515.346 1116.83 516.636C1117.05 516.782 1118.43 515.728 1119.07 516.116C1120.03 516.701 1120.87 518.293 1121.42 519.24C1123.09 522.094 1123.81 525.487 1124.73 528.628C1115.08 528.628 1105.19 526.382 1095.55 525.566C1089.22 525.029 1083.02 525.014 1076.69 525.355C1075.43 525.422 1072.93 525.007 1071.85 525.244C1070.76 525.485 1068.77 527.713 1067.57 527.355C1069.44 530.872 1093.44 539.386 1095.27 535.491C1093.1 534.179 1088.28 533.171 1088.28 529.999C1088.29 526.446 1092.8 526.452 1095.2 526.556C1100.43 526.786 1109.2 528.528 1111.34 533.971C1112.26 536.304 1112.55 542.179 1111.53 544.431C1110.88 545.886 1109.78 547.635 1108.03 547.93C1107.31 548.051 1106.28 547.097 1106.17 547.12C1102.58 547.882 1095.93 550.766 1092.01 546.7C1089.19 550.355 1075.58 546.362 1071.42 544.984C1064.13 542.572 1054.1 539.261 1049.68 532.464C1044.29 524.18 1055.25 517.179 1061.55 513.812C1070.15 509.21 1079.99 508.197 1089.59 508.193ZM1126.35 527.347C1128.05 527.825 1129.74 528.304 1131.43 528.782C1130.98 531.75 1124.3 529.402 1126.35 527.347ZM1177.53 635.26C1178.06 623.365 1174.62 612.89 1172.63 601.386C1172.14 598.534 1172.64 593.549 1170.47 591.204C1168.41 588.961 1163.79 590.784 1163.6 586.821C1161.57 589.208 1161.77 589.706 1159.26 586.961C1159.72 588.139 1159.78 589.335 1159.46 590.554C1157.9 589.661 1152.25 586.695 1152.73 590.75C1148.08 589.723 1149.43 586.818 1146.78 584.601C1146.4 584.286 1144.89 585.404 1144.3 584.928C1143.24 584.064 1142.71 583.28 1141.81 582.168C1140.67 583.549 1139.11 584.546 1137.72 585.637C1136.91 583.87 1135.33 582.573 1133.43 582.144C1135.2 585.857 1139.59 590.667 1133.57 592.78C1129.98 594.041 1124.1 592.495 1120.29 592.79C1106.19 593.883 1090.74 590.809 1077.11 587.45C1063.1 583.999 1048.94 579.128 1036.34 572.008C1033.66 570.49 1031.97 568.693 1029.65 566.81C1027.41 564.98 1025.77 564.691 1023.07 563.52C1018.21 561.413 1013.76 558.034 1010.06 554.269C1002.11 546.171 994.716 535.581 996.931 523.726C999.139 511.909 1007.26 502.675 1015.95 494.894C1026.22 485.704 1037.81 478.03 1050.11 471.844C1055.61 469.08 1069.67 458.692 1075.11 464.77C1078.58 468.653 1076.63 473.607 1071.88 474.471C1070.71 474.684 1069.49 473.899 1068.31 474.437C1066.6 475.213 1067.2 476.129 1066.5 476.777C1065.27 477.9 1063.97 479.653 1062.15 480.627C1055.77 484.027 1049.61 486.721 1043.51 490.861C1040.7 492.769 1038 493.589 1035.52 495.254C1033.06 496.909 1032.5 499.649 1029.18 497.959C1030.36 502.777 1023.28 507.935 1020.5 510.887C1016.2 515.458 1011.05 521.291 1013.05 528.053C1016.98 541.29 1034.73 551.343 1046.09 557.162C1060.26 564.422 1075.9 570.202 1091.68 572.594C1099.52 573.783 1107.63 574.517 1115.54 575.271C1121.69 575.859 1131.14 573.709 1135.57 579.252C1135.7 572.788 1155.89 573.359 1160.19 572.532C1151.57 543.085 1134.66 516.904 1116.58 492.443C1107.7 480.435 1098.98 468.086 1088.87 457.079C1077.79 445.028 1065.14 434.258 1053.12 423.17C1029.54 401.421 1002.87 382.011 975.729 364.912C948.653 347.853 920.613 331.064 890.95 318.902C857.071 305.011 821.403 295.874 785.696 288.093C790.54 281.921 798.419 278.911 804.621 274.395C806.792 272.814 809.727 269.02 812.548 268.502C815.602 267.939 818.007 271.226 820.182 272.876C826.423 277.61 830.739 275.599 837.888 275.314C842.165 275.144 852.294 277.525 854.097 271.74C856.496 274.933 853.018 277.493 851.238 279.834C852.533 281.641 853.578 279.766 854.858 279.484C855.252 279.157 855.645 278.829 856.04 278.502C856.675 277.583 857.248 277.577 857.757 278.484C858.52 279.632 859.289 279.378 860.062 277.721C860.274 277.588 860.485 277.454 860.697 277.321C861.622 276.829 862.514 276.05 863.373 275.437C869.869 270.795 875.658 266.84 882.829 263.421C888.851 260.551 885.613 255.06 889.583 251.183C890.481 250.305 891.993 250.745 892.954 250.002C893.894 249.271 894.036 248.443 894.722 247.661C896.372 245.779 894.408 243.596 898.617 245.899L897.099 237.356C905.35 245.361 905.317 222.325 906.445 218.916C906.296 219.366 907.186 215.878 907.184 215.908C907.427 208.995 908.371 203.985 900.274 203.584C903.339 201.655 904.277 205.421 905.692 201.523C906.401 199.57 904.188 196.213 907.714 197.472C908.458 193.321 907.724 189.961 906.799 185.928C905.851 181.799 906.408 179.043 906.451 174.915C906.5 170.231 904.307 165.524 903.605 160.912C903.056 157.3 903.622 151.603 898.953 152.93C898.296 151.903 900.602 148.743 900.509 147.18C900.363 144.753 897.729 142.287 896.983 139.956C895.885 141.089 894.338 141.467 892.845 140.955C894.247 137.788 892.931 136.724 891.588 133.994C890.819 132.43 891.283 130.704 889.636 129.583C888.692 128.94 887.083 130.023 886.343 129.269C884.757 127.655 885.343 125.513 884.252 123.385C882.884 120.717 879.757 118.679 877.604 116.677C865.493 105.42 852.339 96.8174 836.23 92.419C819.979 87.9815 801.032 86.3917 784.836 91.5102C778.362 93.5557 772.614 93.3461 766.787 97.1664C764.898 98.406 764.695 98.074 763.735 100.14C763.514 100.622 765.526 101.905 764.294 102.692C762.955 103.548 761.477 101.808 760.795 100.364C752.365 106.466 744.467 114.6 739.666 123.927C734.895 133.195 734.458 144.083 732.636 154.154C724.234 144.555 712.869 139.954 700.514 144.568C689.744 148.589 681.399 157.428 679.293 168.878C678.007 175.859 679.411 182.928 682.582 189.226C683.953 191.947 685.613 194.96 688.134 196.792C690.127 198.24 693.541 198.037 694.48 200.649C695.919 204.65 687.609 213.292 685.451 216.795C681.549 223.133 677.923 229.679 675.162 236.602C665.265 222.622 655.791 207.352 644.537 194.461C633.916 182.295 621.255 171.383 608.837 161.099C583.063 139.756 556.264 119.704 527.433 102.7C500.588 86.8669 468.161 78.0766 436.875 81.1846C406.306 84.2224 382.902 103.556 363.208 125.854C325.341 168.727 302.148 229.835 299.882 286.907C299.201 304.051 300.507 320.972 304.742 337.601C306.759 345.519 306.466 353.307 307.638 361.326C308.961 370.373 311.248 379.387 313.461 388.249C321.888 422.008 332.625 455.741 344.673 488.382C350.937 505.356 358.517 521.95 368.77 536.917C373.506 543.831 379.642 549.24 384.738 555.805C389.682 562.172 390.988 569.987 392.075 577.8C394.682 596.533 396.411 615.346 397.979 634.188C398.644 642.174 399.421 650.089 400.479 658.019C401.401 664.933 399.082 664.593 393.265 666.941C394.445 660.728 366.656 664.955 364.032 665.379C361.177 665.84 358.153 665.847 355.905 666.214C353.39 666.623 350.929 667.215 348.033 667.132C343.777 667.01 335.807 665.922 334.182 671.356C333.063 665.056 325.675 671.944 331.142 670.775C325.531 671.403 319.806 670.359 314.127 670.887C307.619 671.491 301.056 672.067 294.593 673.046C290.095 673.727 285.802 675.46 281.295 675.963C275.528 676.607 269.51 676.547 263.687 677.06C242.209 678.955 219.948 683.64 199.07 689.004C194.341 690.219 188.907 691.083 184.389 693.033C183.179 693.554 182.091 694.721 180.932 695.168C178.989 695.918 179.255 695.4 177.53 695.744C167.192 697.81 156.528 701.185 146.192 703.834C140.459 705.304 131.134 706.629 126.457 710.631C124.361 712.422 122.529 715.601 125.888 717.637C128.572 719.263 132.402 716.667 134.574 715.263C132.639 720.306 128.99 722.82 130.961 728.557C132.517 733.09 136.03 738.678 141.435 735.753C142.158 737.437 142.451 740.786 144.583 741.404C146.498 741.96 147.885 739.533 149.761 740.105C150.433 740.309 150.178 741.579 150.78 741.911C151.816 742.481 152.867 742.723 154.054 743.125C155.075 743.472 156.718 744.183 157.783 744.258C158.459 744.306 160.052 743.15 160.046 743.15C161.599 743.386 162.433 746.356 163.55 747.214C165.001 748.329 166.199 748.583 168.015 748.986C171.791 749.825 176.658 751.262 179.151 747.396C178.58 750.157 182.334 749.886 183.991 750.236C183.807 748.782 183.004 747.45 181.764 746.652C185.467 746.896 183.966 750.577 186.703 751.55C188.653 752.241 188.432 750.484 189.924 750.288C191.89 750.032 193.382 751.459 196.453 750.142C197.118 753.099 197.362 756.081 200.993 756.523C203.125 756.782 208.095 752.933 207.813 756.136C212.575 754.74 214.382 755.684 216.871 759.881C217.291 757.304 219.326 758.051 221.194 757.892C224.153 757.64 224.229 757.878 226.523 756.202C226.733 756.05 228.537 751.916 229.339 754.485C229.7 755.636 227.316 758.344 226.433 759.033C227.53 759.588 231.122 761.529 232.504 761.172C233.699 760.864 233.703 758.821 235.139 758.715C234.787 759.89 234.437 761.066 234.084 762.24C236.879 762.646 239.213 760.776 241.42 759.407C243.524 764.727 249.539 761.73 252.81 765.734C254.54 767.852 254.621 769.461 257.918 770.015C261.291 770.581 264.238 769.101 267.105 771.883C266.196 770.157 263.932 768.724 266.182 766.869C267.713 769.042 268.504 771.659 270.269 773.68C270.513 772.653 270.756 771.625 271 770.597C275.602 775.52 281.397 775.563 287.293 778.292V774.689C291.514 781.132 291.739 777.055 296.782 774.424C296.44 776.318 296.096 778.213 295.754 780.106C299.382 779.832 302.773 784.132 305.752 780.48C307.552 783.498 309.733 782.012 312.682 782.971C314.359 783.516 315.608 785.167 317.239 785.765C319.686 786.661 320.416 786.619 322.72 787.399C324.768 788.092 325.932 789.441 328.496 789.873C330.161 790.154 331.671 790.133 333.265 790.056C333.881 790.026 333.678 788.641 335.046 788.964C337.162 789.465 338.738 792.119 340.261 793.48C342.553 787.719 348.97 795.435 352.071 796.463C352.368 794.986 352.315 793.206 353.384 791.993C354.639 794.743 355.118 797.054 357.724 798.825C359.227 799.847 361.436 800.579 363.173 800.952C364.27 801.188 366.265 800.905 366.955 801.244C368.132 801.821 368.566 803.361 369.755 803.506C370.454 803.59 371.49 801.75 372.014 801.894C374.41 802.547 375.74 805.457 378.16 807.032C385.359 811.715 394.419 812.17 402.44 813.197C404.453 813.454 404.744 812.904 406.38 814.085C407.252 814.717 406.856 816.636 407.929 817.174C411.972 819.2 411.975 814.877 412.823 812.191C414.16 813.955 414.39 816.284 416.22 817.688C417.218 817.659 418.218 817.681 419.216 817.756C419.778 818.398 420.148 819.138 420.32 819.978C422.742 821.614 425.485 821.045 427.987 822.273C428.807 822.675 430.26 825.109 431.27 825.808C433.079 827.06 435.876 827.73 437.942 828.274C442.276 829.414 448.489 827.899 451.067 832.424C454.49 828.754 453.166 833.136 455.49 834.056C456.863 834.599 458.927 832.439 460.449 832.654C463.19 833.039 464.177 836.007 465.054 838.164C466.724 837.792 465.578 833.069 465.531 832.034C467.605 831.789 468.066 837.252 468.424 838.452C471.699 836.875 466.324 831.968 469.845 830.394C469.522 834.575 472.854 838.017 466.903 838.616C467.725 841.135 486.918 843.931 488.251 841.709C488.546 845.818 491.307 841.98 492.325 840.573C492.44 842.971 491.623 846.373 494.313 847.487C496.142 848.244 500.264 846.287 500.981 844.495C501.8 847.232 503.173 847.144 504.879 848.882C506.05 850.076 506.823 852.146 508.052 853.146C510.313 854.986 514.52 854.705 517.156 854.293C522.312 853.489 521.703 852.5 523.54 857.86C523.955 855.826 525.257 851.572 527.528 854.735C528.974 856.744 525.897 861.172 525.007 862.937C526.994 861.846 528.967 860.551 531.227 860.081C531.354 860.778 531.47 862.256 531.136 862.9C531.204 862.77 533.616 864.387 534.51 864.835C534.295 864.727 535.217 860.701 535.191 860.832C538.372 862.796 536.165 866.55 538.983 868.486C539.711 868.987 541.419 868.403 542.299 868.707C543.832 869.239 545.157 870.675 546.519 871.515C545.432 870.056 545.588 867.609 545.662 865.925C546.355 866.308 546.85 867.74 547.549 867.853C547.813 867.896 550.554 868.26 550.536 868.247C553.389 870.244 552.802 870.495 550.352 872.898C551.227 874.273 554.885 871.883 555.875 871.486C556.082 872.024 556.135 873.977 556.524 874.326C556.76 874.904 556.997 875.482 557.234 876.06C557.964 875.516 558.748 875.334 559.584 875.515C560.113 875.698 564.239 877.377 564.519 876.802C563.617 876.511 562.798 876.063 562.066 875.46C564.448 873.319 566.014 872.181 568.208 875.273C568.484 875.662 567.535 877.06 567.816 877.568C568.864 879.459 571.018 880.963 572.48 882.503C573.086 880.377 571.677 875.052 575.039 875.247C577.725 875.4 579.768 881.908 578.838 883.931C579.906 882.763 586.281 881.603 587.484 881.968C590.886 882.999 589.932 886.145 594.118 881.536C596.972 883.506 594.457 884.252 594.971 886.653C595.725 886.81 596.438 886.624 597.114 886.094C596.609 896.299 604.139 888.502 609.028 890.06C610.948 890.672 611.438 892.851 613.498 893.487C614.588 893.823 615.8 893.028 616.86 893.222C617.709 893.101 618.553 892.951 619.392 892.773C620.454 892.24 620.953 892.835 620.888 894.559C622.596 895.444 621.95 895.791 623.948 895.963C625.234 896.075 626.418 894.736 627.88 894.964C630.402 895.36 630.069 897.296 631.681 898.308C633.131 899.219 634.767 899.189 636.553 899.013C637.463 898.924 640.019 897.75 640.326 897.747C642.235 897.721 641.2 897.314 643.492 898.954C645.276 900.232 646.024 901.06 648.214 901.649C650.726 902.322 655.182 903.795 656.872 901.98C659.155 905.401 660.942 902.89 663.955 903.116C665.497 903.233 665.742 903.834 667.114 904.073C669.338 904.461 672.113 904.125 674.479 904.885C678.207 906.082 678.627 906.684 682.437 906.845C683.125 906.577 683.812 906.308 684.498 906.039C684.704 907.187 685.244 908.123 686.121 908.848C688.252 909.295 689.652 908.219 691.41 907.041C692.72 911.12 696.97 911.477 700.605 912.013C706.471 912.879 712.08 913.352 717.737 915.28C722.514 916.908 727.3 918.736 731.895 920.821C735.94 922.655 739.756 925.399 744.332 924.111C754.699 921.192 764.746 910.55 773.419 904.439C783.692 897.202 794.772 891.239 805.506 884.732C848.24 858.829 893.388 836.916 935.523 810.049C958.527 795.381 979.872 777.952 1004.58 766.085C1001.06 780.618 995.072 795.37 996.154 810.585C996.589 816.717 998.395 823.96 1003.15 828.24C1009.03 833.533 1015.58 830.163 1021.2 826.382C1033.25 818.282 1041.28 806.461 1050.3 795.362C1060.96 782.232 1069.24 768.125 1077.07 753.161C1078.94 755.795 1077.52 760.207 1077.55 763.128C1077.58 766.855 1078.59 770.446 1080.31 773.773C1084.78 782.358 1093.27 784.441 1100.94 778.558C1115.7 767.236 1124.27 747.073 1132.18 730.836C1136.69 739.23 1143.09 749.795 1153.93 743.8C1162.87 738.853 1168.12 727.8 1170.85 718.438C1178.84 691.11 1176.31 663.273 1177.53 635.26Z" fill="black"></path> <path fill-rule="evenodd" clip-rule="evenodd" d="M1163.98 471.102C1162.96 468.626 1162.51 469.031 1164.38 466.63C1165.85 468.068 1164.68 469.257 1163.98 471.102ZM1209.16 620.989C1206.29 612.838 1208.06 603.986 1206.32 595.626C1205.52 591.79 1204.26 588.068 1203.81 584.163C1203.6 582.43 1202.06 574.63 1203.11 573.402C1199.88 571.443 1199.87 569.994 1199.12 566.154C1200.27 564.932 1200.13 563.889 1198.69 563.023C1197.74 561.882 1196.8 560.74 1195.85 559.6C1199.98 561.616 1197.54 556.454 1197.12 553.478C1196.79 551.127 1196.56 548.674 1195.78 546.42C1194.81 543.649 1192.67 542.248 1197.13 542.248C1195.66 540.577 1193.47 538.853 1192.73 536.808C1191.68 533.864 1193.42 529.973 1191.27 527.373C1190.07 525.922 1183.91 525.355 1184.99 522.222C1185.54 520.626 1188.04 521.817 1188.81 520.699C1191.85 516.303 1182.88 514.481 1182.44 512.611C1181.87 510.187 1185.11 509.645 1185.31 507.378C1185.5 505.159 1182.05 501.514 1181.14 499.529C1179.9 499.831 1178.54 501.796 1177.11 500.857C1176.85 500.68 1177.25 492.999 1176.93 491.98C1176.61 490.977 1175.96 488.318 1175.73 487.826C1174.81 485.872 1172.17 484.92 1171.76 482.611C1171.51 481.234 1176.9 479.148 1170.71 479.083C1172.94 475.163 1168.86 472.782 1167.38 469.433C1165.47 465.127 1164.35 460.476 1162.39 456.148C1160.49 451.941 1158.36 447.949 1155.61 444.228C1153.13 440.86 1152.06 437.62 1150.07 434.063C1149.67 433.751 1149.28 433.438 1148.88 433.126C1147.22 433.365 1146.69 432.611 1147.28 430.863C1146.02 428.986 1145.08 426.984 1143.96 425.024C1142.66 422.747 1140.91 420.89 1139.57 418.675C1137.79 415.739 1137.26 412.428 1135.25 409.482C1132.78 405.859 1130 402.663 1127.7 398.904C1124.83 394.195 1121.65 391.268 1118.04 387.62C1116.32 385.883 1116.11 381.545 1114 379.079C1111.7 376.393 1109.44 375.665 1107.85 372.139C1105.78 367.551 1102.74 365.361 1099.78 361.396C1097.34 358.126 1096.15 354.366 1093.46 351.202C1091.15 348.485 1088.53 346.002 1086.06 343.425C1082.95 340.171 1080.65 336.217 1077.4 333.123C1077.87 333.57 1074.58 330.963 1074.75 331.046C1074.02 330.675 1071.67 330.377 1072.01 330.579C1067.12 327.702 1060.99 317.175 1053.63 322.753C1049.75 325.687 1051.61 331.067 1054.31 333.989C1055.48 335.244 1061.51 341.432 1062.81 338.822C1064.22 340.817 1068.56 350.46 1072.16 347.697C1071.79 350.993 1073.7 349.899 1074.96 352.127C1075.79 353.597 1075.39 354.318 1075.99 356.613C1077.66 362.92 1084 369.08 1087.38 374.58C1095.79 388.269 1105.07 401.252 1113.48 414.956C1121.51 428.018 1130.49 440.411 1138.19 453.648C1146.94 468.7 1157.85 482.908 1164.44 499.135C1164.67 499.68 1166.5 500.544 1166.95 501.363C1167.75 502.786 1167.57 505.247 1168.08 506.859C1169.85 512.447 1172.72 517.948 1175.99 522.577C1178.86 526.639 1179.07 532.158 1181.04 536.922C1183.82 543.637 1186.76 550.282 1189.46 557.031C1193.67 567.534 1196.52 577.602 1199.43 588.568C1201.31 595.675 1202.81 602.778 1203.41 610.116C1203.96 616.865 1204.1 623.895 1206.6 630.284C1208.3 627.654 1210.31 624.247 1209.16 620.989Z" fill="black"></path> <path fill-rule="evenodd" clip-rule="evenodd" d="M246.741 765.604C243.718 764.993 240.873 764.178 240.232 760.707C239.793 762.344 239.356 763.98 238.917 765.617C242.598 766.451 246.28 767.285 249.961 768.119C249.102 766.604 248.474 765.954 246.741 765.604Z" fill="black"></path> <path fill-rule="evenodd" clip-rule="evenodd" d="M254.853 195.892C255.083 194.912 255.38 193.953 255.745 193.017C255.994 193.929 257.213 195.903 256.503 196.764C255.6 197.856 254.686 197.238 254.853 195.892ZM269.675 167.691C270.667 168.129 272.814 168.213 274.046 168.583C270.851 171.332 270.288 170.523 266.157 170.204C265.973 167.423 267.103 166.56 269.675 167.691ZM241.978 236.543C242.407 236.554 242.837 236.565 243.268 236.575C243.294 235.364 243.262 234.155 243.171 232.946C247.528 233.898 245.062 226.285 243.693 224.707C247.943 224.849 250.014 211.393 251.36 208.8C252.555 206.498 253.909 205.608 254.783 202.8C255.547 200.343 256.374 198.132 257.477 195.808C260.011 190.464 263.335 185.612 262.722 179.384C264.869 184.057 266.757 179.392 268.119 177.157C270.313 173.557 275.666 168.963 276.235 164.687C276.738 160.923 273.941 160.724 275.592 157.233C277.261 153.699 278.633 154.053 281.558 152.923C283.503 152.17 283.89 153.084 285.262 150.629C286.152 149.039 285.838 147.854 286.977 146.55C287.447 146.959 287.982 147.129 288.581 147.058C289.506 145.838 290.113 144.479 290.4 142.98C291.154 140.957 291.519 139.099 292.654 137.171C293.731 135.346 295.643 130.462 296.656 129.582C297.731 128.647 303.831 129.122 303.805 129.156C306.325 125.986 301.701 122.829 308.103 123.497C306.839 121.143 311.281 118.221 312.57 116.911C315.79 113.641 316.046 112.128 316.726 108.016C317.071 105.92 314.818 106.162 317.838 105.684C319.087 105.488 320.284 107.084 321.186 106.85C325.163 105.818 321.002 106.015 322.1 104.394C322.446 103.88 324.215 101.804 324.199 101.826C324.113 101.93 324.597 100.02 324.998 99.5294C325.758 99.4643 326.507 99.3315 327.243 99.131C327.617 98.3758 327.947 97.6023 328.234 96.8107C331.113 94.4096 335.42 93.3354 337.411 90.6974C338.699 88.9917 338.313 87.3211 339.977 85.6206C341.562 84.0008 343.658 85.174 343.972 81.5151C344.372 76.8602 339.372 74.7885 337.326 79.4865C331.779 72.6544 308.594 97.7208 305.916 100.996C294.282 115.212 282.847 129.779 273.304 145.5C264.006 160.817 256.374 176.935 250.409 193.829C247.533 201.975 245.782 210.084 244.025 218.51C243.436 221.332 239.028 233.906 240.863 236.72C241.234 236.661 241.606 236.601 241.978 236.543Z" fill="black"></path> <path fill-rule="evenodd" clip-rule="evenodd" d="M1157.74 585.163C1159.7 583.855 1159.7 583.855 1160.04 581.385C1157.42 581.864 1157.42 581.864 1157.74 585.163Z" fill="black"></path> <path fill-rule="evenodd" clip-rule="evenodd" d="M191.805 751.342C191.83 751.339 191.848 751.346 191.862 751.36C191.821 751.307 191.672 751.152 191.805 751.342Z" fill="black"></path> <path fill-rule="evenodd" clip-rule="evenodd" d="M190.492 752.668C191.097 753.977 192.07 754.302 193.412 753.642C193.94 754.397 188.825 748.929 190.492 752.668Z" fill="black"></path> <path fill-rule="evenodd" clip-rule="evenodd" d="M278.938 155.402C275.868 161.42 279.713 157.043 279.516 158.998C279.645 157.714 280.178 155.884 278.938 155.402Z" fill="black"></path> <path fill-rule="evenodd" clip-rule="evenodd" d="M777.883 248.531C779.213 259.32 793.973 254.217 797.294 247.691C799.712 242.94 805.817 224.165 799.248 220.199C794.378 217.259 793.338 229.931 792.137 232.762C790.126 237.503 788.554 234.143 784.081 235.359C779.145 236.702 777.334 244.057 777.883 248.531Z" fill="black"></path> <path fill-rule="evenodd" clip-rule="evenodd" d="M761.756 228.785C767.032 229.957 772.204 229.353 775.952 225.186C778.027 222.879 780.789 218.302 777.052 216.069C773.665 214.047 769.825 218.783 766.259 217.803C761.409 216.471 763.906 211.271 762.242 207.836C756.127 211.357 752.716 226.777 761.756 228.785Z" fill="black"></path> <path fill-rule="evenodd" clip-rule="evenodd" d="M767.227 256.031C762.141 256.021 762.099 262.276 764.754 264.957C767.294 267.522 773.719 270.119 777.163 268.124C783.957 264.186 771.343 256.438 767.227 256.031Z" fill="black"></path> <path fill-rule="evenodd" clip-rule="evenodd" d="M471.306 504.775C472.392 505.303 475.592 508.016 476.941 506.791C475.038 504.873 473.133 502.955 471.229 501.037C470.177 502.191 469.456 503.877 471.306 504.775Z" fill="black"></path> <path fill-rule="evenodd" clip-rule="evenodd" d="M447.27 230.344C446.73 230.747 446.188 231.15 445.648 231.552C447.472 233.072 447.427 233.524 449.266 232.085C448.72 231.366 448.056 230.787 447.27 230.344Z" fill="black"></path> <path fill-rule="evenodd" clip-rule="evenodd" d="M791.971 588.308C790.948 586.472 789.017 589.858 787.711 590.409C785.586 591.303 783.843 586.563 784.452 592.244C779.649 590.045 776.734 595.091 773.636 597.718C769.26 601.432 763.907 603.446 760.988 608.72C774.728 611.935 789.826 600.088 800.072 592.307C801.744 591.036 810.101 584.626 804.437 584.006C802.12 583.754 793.689 591.394 791.971 588.308Z" fill="black"></path> <path fill-rule="evenodd" clip-rule="evenodd" d="M787.895 577.183C790.588 575.063 784.781 574.869 783.863 574.646C783.942 576.333 784.019 578.018 784.098 579.705C785.398 578.917 786.664 578.075 787.895 577.183Z" fill="black"></path> <path fill-rule="evenodd" clip-rule="evenodd" d="M777.781 584.259C778.586 583.756 780.83 582.187 779.303 581.018C777.924 581.895 776.938 583.328 776.722 584.962C777.075 584.728 777.428 584.493 777.781 584.259Z" fill="black"></path> <path fill-rule="evenodd" clip-rule="evenodd" d="M555.241 447.527C553.52 448.202 552.749 449.268 552.93 450.73C555.574 450.189 555.07 447.693 555.241 447.527Z" fill="black"></path> <defs> <linearGradient id="paint0_linear_955_6185" x1="1040.43" y1="628.346" x2="406.589" y2="638.478" gradientUnits="userSpaceOnUse"> <stop stop-color="#ECB300"></stop> <stop offset="0.583333" stop-color="#FFDD00"></stop> <stop offset="0.979167" stop-color="#FCED50"></stop> </linearGradient> </defs> </svg> 