<?xml version="1.0" encoding="UTF-8"?> <svg xmlns="http://www.w3.org/2000/svg" width="1753" height="1835" viewBox="0 0 1753 1835" fill="none"> <path d="M749.058 322.314C498.77 390.094 295.41 593.436 300.625 890.627C316.268 791.563 368.411 692.499 446.627 614.291C457.055 614.291 462.269 609.077 467.484 603.864C566.556 510.014 717.772 483.944 848.131 478.73C905.489 473.516 968.061 478.73 1025.42 489.158C1067.13 499.586 1103.63 510.014 1145.35 525.655C1150.56 530.869 1160.99 536.083 1166.21 541.297C1218.35 609.077 1265.28 692.499 1306.99 749.852C1353.92 812.419 1416.49 864.558 1499.92 874.985C1572.92 885.413 1656.35 864.558 1703.28 807.205C1791.93 708.141 1745 556.938 1687.64 457.875C1682.43 452.661 1672 452.661 1656.35 457.875C1604.21 364.025 1531.21 280.603 1447.78 212.822C1442.57 207.608 1432.14 202.394 1426.92 197.181C1416.49 186.753 1400.85 171.111 1385.21 165.897C1306.99 108.545 1176.63 51.1919 1082.78 30.3364C868.988 -21.8024 655.2 -11.3749 462.27 98.1166C311.054 186.753 165.052 353.597 102.48 614.291C185.909 437.019 311.054 270.175 488.341 186.753C754.273 61.6197 978.489 124.186 1119.28 207.609C1020.2 171.111 905.489 160.683 801.202 165.897C311.054 197.181 232.838 577.794 170.266 749.852C217.195 624.719 300.625 499.586 394.483 410.95C524.842 285.816 722.987 249.32 900.274 285.817C926.346 291.031 957.632 301.458 983.704 311.886C905.489 296.245 827.274 301.458 749.058 322.314ZM1348.71 723.783C1369.57 755.066 1395.64 781.135 1426.92 801.991C1484.28 838.488 1557.28 859.344 1619.85 833.275C1640.71 822.847 1656.35 812.419 1672 791.563C1630.28 854.13 1562.5 869.772 1489.5 838.488C1426.92 817.633 1379.99 765.494 1343.49 713.355C1343.49 718.569 1348.71 718.569 1348.71 723.783ZM994.133 452.661C936.775 447.447 879.417 447.447 816.845 452.661C738.63 463.089 649.986 478.73 571.771 504.8C634.343 468.303 707.344 442.233 785.559 431.805C858.56 431.805 926.346 437.019 994.133 452.661Z" fill="white"></path> <path d="M3.31945 1078.32C-7.10924 1135.67 8.53379 1193.02 29.3912 1250.38C29.3912 1271.23 34.6054 1292.09 39.8197 1307.73C39.8197 1312.94 50.2485 1312.94 55.4629 1312.94C97.1776 1401.58 159.75 1485 227.536 1552.78C232.751 1557.99 243.179 1563.21 248.393 1573.64C258.822 1589.28 269.251 1599.71 284.894 1610.13C357.895 1672.7 477.825 1745.69 571.683 1776.98C780.257 1849.97 994.045 1860.4 1192.19 1771.76C1353.83 1698.77 1515.48 1547.57 1604.12 1297.3C1505.05 1464.14 1364.26 1620.56 1176.55 1683.13C900.187 1776.98 686.399 1698.77 550.826 1599.71C649.898 1646.63 759.399 1667.49 863.686 1672.7C1353.83 1693.56 1473.76 1323.37 1551.98 1156.53C1494.62 1276.45 1395.55 1391.15 1291.26 1474.57C1150.47 1589.28 947.116 1604.92 775.042 1547.57C748.971 1537.14 722.899 1526.71 696.827 1516.28C775.042 1531.93 853.258 1531.93 931.473 1521.5C1186.98 1479.79 1405.98 1297.3 1432.05 1005.32C1379.91 1198.24 1186.98 1391.15 905.401 1401.58C821.971 1401.58 743.756 1385.94 670.755 1349.44C728.113 1370.29 790.685 1380.72 858.472 1380.72C1004.47 1380.72 1166.12 1349.44 1275.62 1245.16C1286.05 1234.73 1270.4 1234.73 1265.19 1234.73C1254.76 1234.73 1239.12 1239.95 1233.9 1245.16C1129.62 1344.23 962.759 1370.3 821.971 1354.65C681.184 1339.01 566.469 1255.59 477.825 1151.31C441.324 1104.39 410.038 1052.25 373.538 1005.32C352.68 974.04 331.823 932.329 300.537 916.687C264.037 901.045 222.322 906.259 180.607 921.901C159.75 921.901 138.892 921.901 123.249 927.115C55.4629 937.542 13.7481 1005.32 3.31945 1078.32ZM227.536 916.687C248.394 916.687 264.037 927.115 274.465 937.543C264.037 932.329 243.179 927.115 227.536 916.687Z" fill="white"></path> </svg> 