<?xml version="1.0" encoding="UTF-8"?> <svg xmlns="http://www.w3.org/2000/svg" width="135" height="134" viewBox="0 0 135 134" fill="none"> <path fill-rule="evenodd" clip-rule="evenodd" d="M108.869 29.5325C87.4123 21.8494 51.5154 23.5095 46.2063 51.2222C43.9848 62.8229 48.3114 75.0933 56.3233 83.5222C65.6143 93.2944 80.4109 94.2007 79.621 77.1825C79.0716 65.4053 67.8639 55.1759 87.5688 52.802C99.8312 51.3264 117.968 60.4971 118.578 74.0427C119.957 104.574 67.106 106.968 47.6297 101.687C8.97393 91.2134 19.476 50.725 46.0217 32.2472C52.8787 27.4714 72.5555 20.1172 73.4537 10.2006C74.6487 -2.95195 58.3844 -0.265453 50.4126 1.46684C-8.18458 14.2224 -20.9562 112.386 40.2715 130.892C68.0764 139.292 107.233 130.619 123.991 105.437C139.702 81.8261 139.914 40.648 108.869 29.5325Z" fill="black"></path> </svg> 