<?xml version="1.0" encoding="UTF-8"?> <svg xmlns="http://www.w3.org/2000/svg" width="190" height="97" viewBox="0 0 190 97" fill="none"> <path fill-rule="evenodd" clip-rule="evenodd" d="M6.46762 60.3042C16.2072 62.4191 22.564 43.5298 28.6598 38.7382C38.7726 30.7964 56.3056 29.1952 66.6031 37.1892C86.7124 52.7919 79.7816 86.4772 108.415 95.2577C134.006 103.107 146.061 69.4018 167.603 61.0106C180.128 56.1307 193.876 52.9363 188.988 35.4275C185.613 23.3202 175.669 20.21 164.858 24.8611C146.278 32.8471 139.969 65.3807 117.942 65.9626C95.1516 66.5646 92.6797 33.7099 82.896 19.3994C67.9795 -2.41139 37.3159 -7.68047 19.8913 13.1752C14.6303 19.4677 -12.0806 56.2872 6.46762 60.3042Z" fill="black"></path> </svg> 