<?xml version="1.0" encoding="UTF-8"?> <svg xmlns="http://www.w3.org/2000/svg" width="741" height="1000" viewBox="0 0 741 1000" fill="none"> <path fill-rule="evenodd" clip-rule="evenodd" d="M526.393 559.013C520.729 556.995 515.272 554.661 510.3 551.232C495.964 540.556 486.618 524.495 477.788 509.276C465.346 487.14 456.485 463.553 450.359 438.948C447.726 428.377 446.831 416.118 440.85 406.748C427.294 387.121 387.538 389.664 366.427 393.109C352.291 395.612 349.368 411.439 346.158 423.149C343.485 432.881 341.735 442.72 340.266 452.692C336.769 454.992 332.825 456.859 329.063 458.485C288.076 471.059 280.872 494.368 265.217 530.374C238.775 582.711 167.026 603.201 156.188 665.137C149.205 706.029 169.062 744.498 189.534 778.492C208.601 815.621 235.219 833.442 277.609 824.671C317.368 815.748 355.578 800.822 394.64 789.288C413.556 784.637 432.445 772.532 452.346 776.751C493.35 785.964 535.479 790.297 577.504 789.1C636.504 791.489 636.495 734.837 630.439 690.967C626.198 622.695 591.776 578.856 526.393 559.013Z" fill="white"></path> <path fill-rule="evenodd" clip-rule="evenodd" d="M530.339 657.805C535.271 661.068 539.416 666.012 542.746 671.219C528.848 669.771 514.974 668.105 501.135 666.207C502.947 665.046 504.774 663.913 506.644 662.845C513.471 658.997 522.718 652.765 530.339 657.805ZM299.454 698.901C296.907 697.904 295.922 694.018 294.93 691.793C291.818 684.811 288.978 677.713 286.024 670.66C297.242 667.463 308.151 663.913 319.771 662.21C332.268 660.376 344.947 659.932 357.558 660.345C383.101 661.179 408.41 665.355 433.521 669.833C458.607 674.305 483.687 678.602 508.95 681.975C533.697 685.281 558.521 687.697 583.394 689.821C588.228 690.234 596.283 691.972 600.169 688.166C603.246 685.154 603.348 679.598 599.496 677.148C597.098 675.62 593.623 675.598 590.885 675.247C587.434 674.802 583.968 674.506 580.496 674.277C579.082 674.182 577.669 674.095 576.252 674.012C587.61 669.728 599.471 667.392 611.783 668.043C612.481 672.274 615.616 676.626 617.336 680.117C620.332 686.21 622.669 692.376 624.203 699C627.41 712.848 627.552 727.219 626.644 741.342C625.814 753.12 624.024 766.145 614.792 774.484C607.802 780.799 597.937 783.135 588.789 783.873C578.153 784.725 567.354 783.815 556.808 782.389C542.018 780.385 527.157 777.74 512.657 774.194C484.57 767.327 457.65 756.401 432.814 741.586C420.703 734.361 409.144 726.231 396.866 719.284C384.357 712.2 371.042 706.706 357.064 703.293C341.422 699.475 325.067 697.845 308.99 698.787C306.199 698.95 302.167 699.963 299.454 698.901ZM281.324 691.811C282.968 697.148 284.226 703.24 287.735 707.725C291.21 712.169 296.453 713.737 301.885 714.132C308.435 714.608 315.061 714.302 321.626 714.546C335.086 715.049 348.363 717.234 361.234 721.247C373.224 724.987 384.357 730.821 395.082 737.29C404.999 743.274 414.623 749.7 424.542 755.666C421.903 756.876 419.292 758.188 416.669 759.327C411.163 761.719 405.626 764.024 400.061 766.274C389.092 770.71 378.073 775.04 366.944 779.061C344.502 787.166 321.69 794.25 298.603 800.284C287.593 803.163 276.426 806.524 264.986 807.003C254.843 807.429 245.448 804.558 237.267 798.524C220.299 786.012 206.799 767.95 195.886 750.132C189.403 739.546 183.745 728.426 179.065 716.926C176.698 711.111 174.552 705.207 172.62 699.231C171.713 696.426 170.854 693.605 170.04 690.771C169.682 689.527 169.339 688.277 168.999 687.024C186.35 681.728 203.907 676.947 221.875 674.293C231.469 672.876 241.191 672.157 250.89 672.262C255.704 672.315 260.515 672.574 265.304 673.071C267.882 673.339 270.449 673.682 273.005 674.111C274.061 674.284 275.147 674.546 276.236 674.737C277.899 680.438 279.576 686.135 281.324 691.811ZM639.987 669.142C640.922 667.25 641.314 665.386 641.65 663.327C641.907 661.756 642.586 659.543 641.99 657.503C641.326 655.219 639.515 653.176 638.212 651.225C636.777 649.071 635.342 646.916 633.907 644.759C631.039 640.447 628.178 636.129 625.323 631.811C613.66 614.173 602.076 596.481 590.474 578.802C580.178 563.114 570.055 547.284 559.447 531.805C550.373 518.571 540.487 505.552 528.067 495.259C512.366 482.244 493.672 476.114 474.141 471.33C472.008 469.114 469.16 467.904 466.116 468.151C461.814 463.268 458.394 459.861 456.845 453.651C456.101 450.679 456.332 442.324 453.44 440.565C450.002 438.475 448.206 441.24 447.258 444.361C444.086 454.79 447.724 468.815 456.104 479.262C452.573 491.466 447.894 508.814 439.545 518.592C430.604 529.061 418.24 532.321 404.897 532.537C379.456 532.944 354.039 523.487 334.635 507.092C328.734 502.111 323.258 496.546 318.302 490.626C314.582 486.185 310.187 479.333 307.278 474.154C307.278 472.135 304.896 470.024 329.147 468.395C353.4 466.762 355.24 433.543 355.78 429.021C356.218 425.352 358.079 419.651 355.493 416.657C354.397 415.385 352.144 415.182 350.752 416.046C348.129 417.676 347.268 421.845 346.444 424.676C345.286 428.639 341.508 453.25 334.351 456.098C331.002 457.432 327.157 457.456 323.613 457.703C319.237 458.012 314.851 458.234 310.49 458.744C308.882 458.932 307.128 459.453 305.541 459.466C304.509 459.478 303.445 458.975 302.447 458.623C299.079 457.432 295.715 458.327 292.246 458.793C261.576 462.916 229.996 472.327 203.835 489.259C180.777 504.185 164.532 525.648 153.813 550.744C142.876 576.358 136.607 604.052 131.353 631.315C129.593 640.45 128.057 649.629 126.736 658.836C125.46 667.734 123.864 676.833 123.482 685.821C123.33 689.376 124.18 692.682 125.487 695.929C126.96 699.586 130.44 701.027 133.778 702.734C141.105 706.484 148.834 709.392 156.798 711.45C161.663 720.305 165.757 729.506 169.048 739.052C167.827 741.472 167.802 745.086 167.567 747.438C166.984 753.293 166.735 759.179 166.683 765.061C166.578 776.852 167.287 788.632 167.843 800.404C168.406 812.342 170.279 859.453 170.584 865.206C170.821 869.676 170.502 875.926 172.855 879.895C176.471 885.994 185.397 885.787 189.531 880.842C292.246 902.932 485.32 896.277 563.082 885.163C573.2 883.719 570.024 885.321 572.595 882.765C574.527 880.845 576.169 877.555 576.703 874.913C577.419 871.385 576.265 868.194 574.246 865.339C572.126 862.339 571.737 857.478 570.95 853.91C569.086 845.475 568.16 808.432 567.286 804.327C567.018 803.046 566.752 801.694 566.437 800.342C580.7 801.694 595.564 801.694 609.132 796.919C616.829 794.213 624.005 789.963 629.53 783.892C636.218 776.543 639.937 767.29 641.854 757.632C644.323 745.179 644.845 732.281 644.36 719.62C643.687 704.66 641.206 689.487 635.048 675.75C637.076 673.867 638.774 671.598 639.987 669.142Z" fill="black"></path> <path fill-rule="evenodd" clip-rule="evenodd" d="M501.802 230.708C480.299 200.242 426.268 196.81 392.123 197.002C324.685 196.441 310.564 273.985 307.043 328.324C299.85 329.546 292.855 332.055 288.109 337.71C282.329 344.595 280.333 356.416 285.751 364.117C289.35 369.231 295.033 370.938 300.977 371.225C320.663 369.345 324.7 386.898 334.395 400.061C359.274 433.685 402.376 444.592 441.907 444.759C455.336 445.117 471.512 446.126 480.111 433.487C507.268 386.392 507.861 323.932 509.534 270.563C509.765 256.9 509.706 242.435 501.802 230.708Z" fill="white"></path> <path fill-rule="evenodd" clip-rule="evenodd" d="M548.209 257.135C548.481 257.651 548.685 258.222 548.796 258.844C549.148 260.817 548.422 262.326 547.469 263.791C547.592 264.812 547.663 265.803 547.716 266.674C548.021 271.563 546.901 278.266 542.592 280.262C542.524 280.343 542.456 280.423 542.385 280.503C542.052 281.044 541.546 281.513 540.876 281.855C540.712 281.97 540.543 282.08 540.376 282.174C540.33 282.212 540.283 282.245 540.237 282.279C540.2 282.304 540.166 282.329 540.132 282.356C540.225 282.261 540.311 282.163 540.401 282.067C538.015 283.018 535.713 283.214 533.256 282.925C531.737 283.474 530.212 283.885 528.929 284.203C524.916 285.193 519.746 285.986 515.836 284.297C514.697 283.805 513.753 283.153 513.043 282.377C513.101 285.403 513.191 288.429 513.321 291.456C513.589 299.108 513.574 306.753 513.515 314.412C513.45 323.029 513.209 331.653 512.746 340.264C512.53 344.588 512.185 348.906 511.722 353.211C511.333 357.406 510.876 361.594 510.348 365.767C509.101 374.353 507.049 383.002 504.543 391.301C503.456 394.9 502.262 398.548 500.907 402.11C500.333 403.745 499.725 405.363 499.067 406.968C495.592 415.375 491.262 423.492 485.413 430.499C482.219 434.319 478.691 437.758 474.753 440.647C471.589 443.113 468.166 445.199 464.404 446.844C456.317 450.381 447.293 451.174 438.549 451.045C435.213 451.002 431.679 450.412 428.37 449.86L428.169 449.826C425.586 449.403 422.972 448.835 420.382 448.168C418.086 447.634 415.817 447.014 413.583 446.289C410.888 445.579 408.305 444.554 405.848 443.23L401.493 441.594C399.672 440.909 397.907 440.094 396.191 439.159L391.456 436.949C389.493 436.002 387.583 434.965 385.719 433.823C385.524 433.721 385.302 433.545 385.216 433.347C385.015 433.236 384.811 433.128 384.611 433.017C384.327 432.866 384.043 432.711 383.762 432.551C383.685 432.514 383.743 432.286 383.848 432.063C383.762 431.887 383.777 431.69 384.012 431.514C384.188 431.378 384.466 431.418 384.762 431.508C384.734 431.489 384.716 431.471 384.694 431.449C384.37 431.273 384.049 431.103 383.731 430.927C383.404 430.752 383.351 430.295 383.657 430.054C383.743 429.989 383.842 429.955 383.938 429.949C383.935 429.949 383.929 429.946 383.925 429.943C383.922 429.943 383.922 429.943 383.919 429.943C383.861 429.903 383.907 429.721 383.99 429.52C383.827 429.31 383.777 429.057 384.061 428.835C384.456 428.526 385.339 429.029 385.75 429.267C385.78 429.286 385.811 429.301 385.836 429.316C386.092 429.458 386.351 429.597 386.608 429.733C386.765 429.816 386.919 429.9 387.077 429.983C387.101 429.924 387.154 429.872 387.237 429.819C386.632 429.499 386.033 429.174 385.435 428.847H385.432C385.061 428.65 384.577 428.239 385.067 427.857C385.459 427.542 386.469 428.076 386.95 428.35C387.009 428.304 387.077 428.286 387.154 428.273C387.071 428.227 386.984 428.181 386.898 428.134C386.768 428.063 386.638 427.995 386.515 427.921C385.929 427.594 386.327 426.576 386.932 426.915C387.003 426.961 387.077 427.002 387.148 427.048C387.561 427.011 388.135 427.332 388.432 427.499L388.478 427.523C390.518 428.807 392.645 429.931 394.848 430.897C396.336 431.6 397.827 432.298 399.327 432.977C400.802 433.705 402.321 434.338 403.879 434.875C407.799 436.4 411.756 437.823 415.753 439.14C421.354 440.674 427.151 441.906 432.969 442.39C433.725 442.449 434.481 442.499 435.237 442.526C436.061 442.52 436.888 442.514 437.712 442.511C438.543 442.505 439.37 442.499 440.2 442.492C443.126 442.19 446.052 441.894 448.975 441.597L449.836 441.508C450.956 441.35 452.052 441.156 453.135 440.927C453.703 440.792 454.271 440.647 454.83 440.483C454.962 440.468 455.092 440.443 455.222 440.421C455.287 440.409 455.351 440.397 455.416 440.387C456.793 440.02 458.145 439.585 459.493 439.076C460.342 438.73 461.182 438.363 462.018 437.98C464.774 436.693 467.487 434.999 470.043 433.054C471.645 431.458 473.246 429.866 474.845 428.273C476.447 426.681 478.049 425.085 479.648 423.492L482.577 419.499C486.358 414.091 489.351 408.063 491.836 401.912L495.787 390.523C496.197 389.153 496.589 387.782 496.959 386.406C497.709 383.329 498.459 380.249 499.209 377.178C499.456 376.048 499.7 374.927 499.935 373.804C501.376 366.819 502.169 359.727 502.854 352.637C504.108 339.733 504.447 326.792 504.537 313.838C504.595 306.094 504.53 298.351 504.373 290.615C504.283 286.127 504.219 281.639 504.154 277.151C504.067 272.389 503.978 267.62 503.851 262.859C503.845 262.754 503.885 262.663 503.938 262.585C503.925 262.024 503.919 261.463 503.91 260.895C503.904 260.524 504.049 260.36 504.256 260.328C504.219 256.929 504.191 253.537 504.185 250.145C504.185 249.923 504.29 249.78 504.425 249.695V248.834C503.861 246.473 503.089 244.157 502.092 241.952C501.753 241.156 501.376 240.38 500.956 239.623C500.444 238.488 499.771 237.457 498.95 236.512C498.265 235.357 497.422 234.333 496.444 233.42C496.246 233.276 496.046 233.133 495.845 232.989C495.645 232.846 495.444 232.702 495.246 232.559C494.913 232.382 494.425 232.076 493.993 231.724C493.604 231.486 493.219 231.246 492.833 231.007C492.447 230.767 492.061 230.527 491.672 230.289C491.222 230.054 491.515 229.467 491.836 229.31V229.29C491.765 229.258 491.685 229.219 491.601 229.147C490.66 228.26 489.685 227.425 488.666 226.642C488.484 226.714 488.268 226.688 488.104 226.551C487.506 225.99 486.892 225.449 486.268 224.927C484.864 224.007 483.398 223.165 481.864 222.422C479.407 221.261 476.892 220.262 474.308 219.415C473.805 219.249 473.299 219.1 472.796 218.951L472.632 218.903C472.327 218.888 472.024 218.873 471.719 218.857C471.231 218.833 470.74 218.808 470.253 218.787C440.706 217.49 411.08 218.035 381.601 220.414C374.339 221 367.086 221.699 359.845 222.508C358.478 222.661 357.055 222.78 355.604 222.901C350.28 223.346 344.58 223.822 339.978 226.116C339.728 226.24 339.493 226.371 339.262 226.507C339.66 229.051 340.614 231.544 341.54 233.965C341.679 234.333 341.821 234.699 341.956 235.064C343.561 239.328 345.003 243.674 344.858 248.29C344.759 251.51 344.067 254.606 343.071 257.632C342.561 261.945 341.216 266.112 339.79 270.205C332.768 290.344 328.947 310.965 329.339 332.344C329.348 332.915 329.219 333.415 328.99 333.841L329.003 333.924C329.126 334.832 329.253 335.739 329.398 336.644C329.984 340.245 325.234 342.039 323.595 339.65C323.487 339.758 323.333 339.832 323.194 339.844C322.774 339.884 322.092 339.199 321.895 338.887C321.642 338.415 321.373 337.958 321.086 337.523C321.049 337.505 321.015 337.489 320.981 337.477C321.067 337.656 321.157 337.835 321.243 338.014C321.333 338.199 321.422 338.387 321.512 338.566C321.799 339.14 320.694 339.421 320.37 338.894C320.077 338.431 319.783 337.986 319.49 337.563C319.321 337.687 319.129 337.718 319.006 337.517C317.956 335.782 316.743 334.295 315.413 333.029C313.321 331.319 311.033 330.282 308.43 329.674C306.383 329.381 304.283 329.369 302.255 329.603C299.927 329.878 297.475 330.458 295.37 331.52C293.654 332.702 291.933 333.884 290.212 335.063C289.788 335.508 289.383 335.971 289.005 336.452C287.812 337.999 286.854 339.65 286.065 341.403C286.032 341.514 285.999 341.625 285.967 341.73C285.484 343.205 285.171 344.718 285.034 346.27C285.025 347.252 285.017 348.233 285.008 349.211C285 350.193 284.992 351.171 284.982 352.153C285.243 354.705 285.895 357.184 286.893 359.539C287.362 360.927 288.099 362.168 289.097 363.264C289.631 364.19 290.238 365.029 290.916 365.813C292.292 366.727 293.792 367.505 295.389 368.116H295.39C295.781 368.221 296.172 368.326 296.569 368.403C298.623 369.193 300.749 369.616 302.946 369.674C305.724 369.866 308.443 369.622 311.104 368.952C312.746 368.659 314.339 368.181 315.876 367.523C317.351 366.779 318.74 365.884 320.037 364.841C320.182 364.752 320.395 364.804 320.629 364.921C320.916 364.711 321.203 364.508 321.484 364.279C321.614 364.19 321.731 364.301 321.79 364.418L321.87 364.36C322.385 364.008 323.799 365.11 323.16 365.761C323.435 365.931 323.709 366.134 323.956 366.341C325.089 366.387 327.379 368.474 326.95 368.801C326.311 369.357 325.638 369.866 324.953 370.347C325.561 370.798 326.354 371.495 325.984 371.776C325.317 372.409 324.595 372.955 323.827 373.427C323.305 373.823 322.768 374.202 322.209 374.548C321.601 374.906 320.981 375.215 320.342 375.502C321.459 377.659 322.521 379.838 323.512 382.057C324.172 383.628 324.935 385.15 325.814 386.61C326.935 388.835 328.28 390.921 329.851 392.866C331.129 395.017 332.629 396.995 334.342 398.801C336.463 401.215 338.737 403.486 341.157 405.585C342.123 406.27 343.108 406.937 344.129 407.548C346.746 409.52 349.53 411.208 352.484 412.616C352.83 412.807 353.101 413.224 352.7 413.551C352.685 413.557 352.672 413.557 352.66 413.569C353.626 414.119 354.595 414.659 355.574 415.193L355.608 415.211C356.003 415.424 356.731 415.819 356.16 416.282C355.783 416.597 354.617 416.036 353.919 415.671C353.963 415.696 354.012 415.721 354.058 415.748C354.114 415.776 354.169 415.807 354.225 415.841C354.234 415.844 354.246 415.85 354.262 415.86C354.549 416.014 355.645 416.6 354.916 416.98C354.53 417.048 354.166 416.98 353.814 416.792C353.447 416.656 353.083 416.505 352.725 416.347C352.737 416.465 352.672 416.576 352.484 416.668C352.333 416.693 352.191 416.693 352.046 416.681C352.842 417.131 353.638 417.576 354.441 418.011C354.675 418.137 355.783 418.748 355.052 419.128C354.694 419.199 354.348 419.14 354.015 418.958C353.41 418.73 352.808 418.461 352.228 418.168C352.092 418.091 351.956 418.017 351.817 417.94C351.713 417.94 351.611 417.928 351.506 417.909C352.145 418.255 352.79 418.585 353.441 418.912C353.827 419.122 354.472 419.545 353.919 419.977C353.533 420.27 352.496 419.739 351.882 419.394C351.845 419.44 351.799 419.492 351.734 419.545C351.333 419.847 350.382 419.301 349.904 419.023C349.836 418.983 349.777 418.949 349.731 418.924C346.496 417.19 343.373 415.397 340.367 413.341C338.53 412.162 336.737 410.921 334.981 409.569C331.623 406.974 328.574 403.955 325.774 400.77C323.864 398.591 322.827 397.366 320.975 394.724C318.003 390.471 315.759 386.036 313.601 381.332C313.567 381.261 313.632 381.079 313.731 380.897C313.287 379.807 312.858 378.702 312.429 377.563C311.305 377.711 310.179 377.816 309.061 377.881C306.435 378.032 303.885 377.798 301.414 377.255C298.421 376.869 295.461 376.023 292.839 374.693C291.268 373.903 289.755 373.06 288.321 372.122C287.036 371.437 285.797 370.653 284.61 369.739C279.557 365.878 276.812 359.884 276.14 353.662C275.625 350.921 275.514 348.103 275.821 345.384C276.042 343.406 276.486 341.449 277.131 339.563C278.325 335.384 280.548 331.514 283.769 328.585C284.311 328.032 284.878 327.505 285.484 327.008C287.277 325.539 289.312 324.36 291.477 323.499C291.894 323.295 292.318 323.107 292.742 322.931L292.226 321.742C292.044 321.795 291.412 321.69 291.333 321.471C291.205 321.122 291.082 320.767 290.959 320.415C290.882 320.193 290.805 319.974 290.727 319.755C290.609 319.826 290.459 319.866 290.296 319.872V320.529C290.303 320.718 289.944 321.894 289.749 321.279C289.625 320.937 289.509 320.588 289.392 320.242C289.319 320.02 289.244 319.798 289.168 319.579C289.005 319.474 288.881 319.35 288.836 319.205H288.836C288.816 319.147 288.797 319.088 288.771 319.029C288.761 319.023 288.747 319.023 288.735 319.02C288.732 319.02 288.728 319.017 288.725 319.017V319.218C288.732 319.344 288.405 320.282 288.347 320.1C287.219 316.995 286.299 313.823 285.582 310.6C285.093 308.829 284.708 307.033 284.415 305.214C284.095 303.576 283.815 301.932 283.574 300.275L283.515 299.865C283.512 299.848 283.508 299.834 283.505 299.819C283.502 299.804 283.499 299.79 283.496 299.773C283.476 299.597 283.456 299.415 283.43 299.238C283.169 297.366 282.954 295.487 282.791 293.596C282.446 289.708 282.309 285.801 282.348 281.9C282.295 281.92 282.245 281.946 282.193 281.971C282.163 281.987 282.132 282.003 282.1 282.017C280.406 282.739 278.616 283.328 276.795 283.798C273.662 288.328 268.66 291.393 262.665 291.715C260.636 291.825 258.507 291.578 256.537 291.004C256.332 291.051 256.121 291.089 255.902 291.118C254.872 291.252 254.044 291.032 253.186 290.803C252.706 290.676 252.216 290.545 251.677 290.474C251.482 290.448 251.29 290.423 251.1 290.399C248.946 290.122 247.108 289.886 245.679 288.602C245.198 288.613 244.739 288.544 244.303 288.413C240.177 289.403 235.793 287.221 234.342 282.65C231.868 281.199 229.896 279.047 228.571 276.55C226.017 273.275 223.975 269.261 222.709 265.042C222.701 265.026 222.693 265.01 222.685 264.995C222.673 264.971 222.66 264.947 222.649 264.923C222.007 263.529 221.701 262.035 221.675 260.536C220.992 256.266 221.171 251.99 222.471 248.232C222.416 246.195 222.895 244.072 223.771 242.146C224.833 239.81 226.453 237.124 228.555 235.566C228.56 233.173 229.588 230.537 230.936 228.751C233.626 225.183 237.526 223.298 241.748 223.025C243.895 217.52 250.399 216.234 256.009 218.067C258.34 215.685 261.753 214.547 265.16 214.952C268.041 215.294 270.503 216.673 272.542 218.572C273.079 218.726 273.614 218.886 274.149 219.052C275.933 218.268 278.016 218.091 279.92 218.582C283.221 219.433 285.375 221.936 286.865 224.806C287.341 225.133 287.805 225.471 288.258 225.824C288.756 226.047 289.208 226.345 289.618 226.696C290.214 227.014 290.72 227.536 291.028 228.295C291.869 229.162 292.652 230.08 293.344 231.064C293.862 229.865 294.397 228.674 294.95 227.491C295.849 227.761 296.936 227.411 297.388 226.21L297.504 225.904C300.396 218.226 305.545 204.555 310.401 198.21C304.658 202.122 297.645 204.184 290.68 203.977C290.382 203.968 290.081 203.955 289.778 203.939C286.034 204.585 282.23 204.645 278.739 203.944C276.387 203.09 274.096 202.073 271.876 200.921C271.336 200.641 270.8 200.346 270.267 200.049C270.1 199.907 269.942 199.755 269.783 199.602C269.721 199.542 269.659 199.482 269.596 199.423C269.137 199.456 268.657 199.42 268.145 199.285C266.224 198.777 264.446 197.497 263.33 195.853C263.123 195.548 262.956 195.232 262.808 194.915C261.598 193.732 260.55 192.391 259.78 190.824C258.874 188.99 258.319 186.929 258.261 184.868C257.883 182.846 257.908 180.765 258.613 178.834C258.662 178.703 258.716 178.574 258.771 178.444C258.804 178.368 258.836 178.291 258.867 178.214C258.883 178.161 258.897 178.106 258.911 178.052C258.931 177.973 258.951 177.893 258.978 177.816C259.184 177.128 259.446 176.515 259.764 175.934C259.882 175.337 260.075 174.746 260.348 174.17C260.379 173.891 260.417 173.613 260.461 173.336C258.389 169.425 259.123 164.311 262.225 161.132C261.796 159.077 262.233 156.899 263.483 155.075C264.401 153.736 265.677 152.678 267.123 151.944C267.274 151.868 267.673 151.737 268.15 151.586C268.684 151.113 269.249 150.665 269.866 150.272C270.013 146.449 273.827 144.244 277.129 142.335C277.289 142.243 277.447 142.151 277.604 142.06C278.68 141.436 279.46 140.538 280.241 139.64C281.061 138.697 281.881 137.754 283.044 137.125C285.079 136.026 287.58 135.773 289.927 135.536C290.445 135.484 290.956 135.432 291.453 135.372C297.926 134.592 304.819 133.989 311.324 134.694C314.938 135.086 317.929 136.831 319.163 139.689C322.271 140.056 325.04 142.299 327.231 144.606C329.966 147.484 332.296 150.549 333.098 154.332C333.632 154.621 334.117 154.974 334.558 155.374C334.54 158.033 334.194 160.698 333.459 163.209C333.675 164.71 333.225 166.143 332.459 167.443C332.577 168.673 332.493 169.884 332.234 171.091C333.722 173.73 332.33 177.718 330.246 180.334L330.231 181.81C330.354 181.745 330.478 181.669 330.589 181.573C336.58 176.474 342.675 175.068 349.262 173.549C353.064 172.673 357.03 171.758 361.231 170.073C371.586 168.074 382.154 166.801 392.759 166.378C392.617 166.357 392.478 166.342 392.339 166.319C386.993 165.444 381.861 163.245 377.447 160.086C376.277 159.79 375.169 159.262 374.179 158.379C373.216 157.522 372.546 156.533 372.163 155.473C371.99 155.285 371.817 155.097 371.648 154.905C368.333 154.091 365.808 151.223 366.231 147.452C364.132 144.968 363.361 141.9 364.071 138.705C362.898 136.724 362.796 134.227 363.672 132.135C361.83 129.896 361.685 126.718 363.129 124.185C361.811 122.309 361.521 119.824 363.148 117.603C363.916 116.554 364.981 115.893 366.138 115.573C366.466 114.364 367.132 113.242 368.179 112.375C368.716 111.929 369.28 111.599 369.854 111.352C370.071 110.104 370.777 108.921 372.132 107.99C372.75 107.568 373.379 107.295 374.003 107.144C374.595 105.676 375.632 104.389 377.086 103.553C378.842 102.545 380.885 102.412 382.746 102.94C385.179 99.2652 390.512 97.8405 394.209 100.566C397.29 98.6602 401.163 99.0621 403.929 101.38C407.274 99.4013 411.432 100.2 414.055 102.958C418.262 100.66 423.811 102.358 426.061 106.713C430.305 106.242 434.305 109.021 435.438 113.043C435.62 113.193 435.802 113.346 435.984 113.5L436.03 113.54C438.574 113.662 440.99 114.659 442.416 117.024C443.126 118.206 443.456 119.594 443.407 120.954C444.929 121.776 446.154 123.124 446.682 124.872C447.175 126.51 446.987 128.131 446.339 129.544C448.456 131.796 449.015 135.307 447.518 138.136C448.138 139.2 448.459 140.459 448.41 141.767C448.333 143.703 447.438 145.265 446.216 146.597C447.75 149.37 447.151 152.926 444.657 154.87C443.222 159.955 439.592 163.339 434.033 165.415C431.24 166.457 428.317 167.26 425.339 167.849C437.256 169.453 448.978 172.273 460.24 176.476C460.854 176.705 461.373 176.616 461.771 176.349C461.879 176.407 461.987 176.462 462.095 176.517C462.234 176.588 462.376 176.658 462.512 176.733C465.617 178.436 468.654 180.282 471.614 182.259C471.614 181.932 471.62 181.606 471.635 181.274C471.577 178.589 471.861 175.945 472.574 173.397C471.638 172.125 470.941 170.676 470.561 169.182C469.614 165.455 471.416 160.151 474.654 158.878C475.79 155.729 478.37 153.452 481.533 152.555C481.783 152.329 482.049 152.109 482.348 151.905C483.015 151.447 483.743 151.135 484.49 150.953C484.879 149.248 485.83 147.677 487.41 146.576C489.635 145.02 492.268 144.851 494.583 145.699C495.024 145.551 495.469 145.423 495.919 145.311C499.645 142.14 505.45 142.374 508.728 146.084C510.978 145.056 513.629 145.01 515.932 146.394C517.774 147.502 518.922 149.288 519.37 151.248C522.858 151.355 526.049 153.671 527.055 157.127C530.271 157.491 532.901 160.007 533.459 163.175C535.509 163.461 537.404 164.425 538.555 166.342C539.089 167.228 539.376 168.199 539.453 169.17C540.49 169.668 541.419 170.421 542.12 171.405C543.351 173.13 543.589 175.144 543.135 177.039C543.179 177.125 543.222 177.21 543.265 177.295C543.33 177.418 543.395 177.54 543.453 177.666C543.787 178.378 544.055 179.142 544.296 179.918C545.376 181.478 545.876 183.384 545.777 185.3C546.006 186.11 546.228 186.922 546.413 187.738C547.142 190.941 547.416 194.353 546.916 197.614C546.666 199.193 546.308 200.745 545.799 202.252C545.746 202.539 545.663 202.807 545.564 203.061C545.283 204.248 544.925 205.416 544.469 206.557C543.373 208.012 542.228 209.428 541.021 210.797C540.003 212.324 538.842 213.733 537.53 215.024C536.586 215.957 535.549 216.825 534.447 217.607C532.259 219.361 529.811 220.729 527.2 221.619C526.734 221.521 526.265 221.445 525.796 221.37C522.83 223.003 518.163 223.188 515.311 223.177C512.166 223.165 509.287 222.371 506.892 220.87C507.169 221.422 507.447 221.975 507.725 222.53C507.657 222.57 507.58 222.606 507.521 222.652C507.003 221.794 506.425 221.032 505.746 220.484C504.814 219.735 503.317 219.668 502.672 220.88C502.66 220.901 502.651 220.923 502.638 220.944C502.296 221.59 502.345 222.211 502.604 222.717C502.703 222.855 502.796 222.994 502.891 223.132C502.925 223.171 502.959 223.213 502.996 223.249L502.978 223.251C503.87 223.968 504.746 225.724 505.577 227.432C506.138 228.429 506.672 229.44 507.175 230.47C507.466 230.902 507.987 231.281 508.54 231.391C508.432 232.213 508.808 233.063 509.432 233.484C509.592 233.156 509.793 232.819 510.046 232.472C512.848 228.664 518.354 227.02 522.503 228.761C523.33 228.621 524.16 228.506 524.996 228.44C527.734 228.259 530.509 228.474 533.212 229.041C534.052 229.545 534.854 230.112 535.601 230.758C536.234 231.306 536.821 231.88 537.37 232.474C537.793 232.791 538.209 233.128 538.617 233.479C540.274 234.371 541.493 236.081 542.515 237.784C543.327 238.931 544.037 240.15 544.648 241.442C547.493 246.308 550.771 252.35 548.209 257.135ZM320.2 351.174C321.243 352.381 322.058 353.727 322.645 355.208C322.879 355.684 322.592 355.971 322.111 355.884C321.895 355.853 321.601 355.696 321.302 355.486C321.324 355.542 321.348 355.594 321.373 355.647C321.398 355.699 321.422 355.752 321.444 355.807C321.697 356.31 321.484 356.668 320.904 356.48C320.87 356.458 320.839 356.44 320.811 356.421C321.111 356.955 321.385 357.505 321.62 358.079C321.876 358.585 321.648 358.937 321.074 358.742C320.771 358.573 320.487 358.378 320.212 358.162C320.246 358.236 320.28 358.31 320.314 358.384C320.404 358.582 320.496 358.779 320.577 358.983C320.839 359.498 320.537 359.767 320.03 359.65C319.592 359.409 319.188 359.122 318.811 358.789C318.771 358.758 318.734 358.727 318.7 358.693C318.682 358.678 318.666 358.659 318.648 358.644C318.817 359.069 318.496 359.329 318.074 359.245C317.472 359.128 316.345 358.116 316.071 357.582C316.052 357.548 316.04 357.517 316.018 357.483C315.7 357.267 315.354 356.968 315.092 356.681C314.885 356.98 314.481 357.202 314.299 356.838C313.75 355.344 312.895 354.066 311.728 352.989C311.064 352.017 310.256 351.19 309.308 350.505C308.801 350.073 308.273 349.662 307.731 349.27C306.773 348.835 305.775 348.502 304.732 348.279C304.614 348.242 304.493 348.215 304.373 348.187C304.281 348.162 304.19 348.14 304.1 348.116L304.023 348.103C303.586 348.023 303.154 347.943 302.717 347.881C300.833 347.622 298.942 347.576 297.051 347.745C296.712 347.758 296.386 347.495 296.242 347.196C295.818 347.218 295.401 347.236 294.977 347.276C294.279 347.301 294.429 346.316 294.958 346.218C295.623 346.094 296.288 346.002 296.94 345.924C296.927 345.866 296.92 345.801 296.933 345.749C295.74 345.69 294.553 345.715 293.354 345.841C292.832 345.866 293.451 344.9 293.738 344.847C293.806 344.835 293.874 344.826 293.942 344.813C294.006 344.804 294.07 344.795 294.136 344.782C294.123 344.764 294.117 344.752 294.11 344.73H294.077C293.36 344.764 292.871 343.622 293.732 343.465C293.835 343.446 293.937 343.431 294.038 343.415C294.147 343.4 294.256 343.381 294.364 343.36C294.325 343.252 294.319 343.153 294.358 343.06C293.986 343.054 293.621 343.054 293.249 343.054C293.346 343.048 293.432 342.841 293.521 342.625C293.617 342.394 293.717 342.153 293.842 342.134L294.416 342.057C294.429 341.816 294.795 341.255 294.951 341.221C296.19 341.014 297.403 340.869 298.603 340.823C298.72 340.551 298.889 340.184 299.053 340.184C300.415 340.165 301.726 340.178 303.03 340.313C303.082 340.276 303.134 340.255 303.18 340.264C303.255 340.279 303.329 340.298 303.401 340.316C303.534 340.347 303.664 340.378 303.8 340.412C304.523 340.517 305.247 340.668 305.984 340.881C307.725 341.397 309.466 342.211 310.972 343.224C312.395 344.178 313.808 345.168 315.049 346.357C315.484 346.727 315.895 347.131 316.287 347.548C316.919 348.069 317.53 348.607 318.12 349.134C318.836 349.792 319.533 350.471 320.2 351.174Z" fill="black"></path> <path fill-rule="evenodd" clip-rule="evenodd" d="M457.991 395.408C453.185 396.8 448.031 396.923 443.133 395.485C438.694 394.183 434.133 391.312 430.864 387.516C427.96 384.143 426.08 380.044 426.154 375.67C426.164 375.17 426.343 374.754 426.617 374.43C426.91 374.081 427.324 373.84 427.768 373.738C428.222 373.63 428.704 373.667 429.114 373.855C429.484 374.022 429.802 374.309 430 374.729C430.503 375.389 431.003 376.038 431.506 376.67C435.543 381.661 439.457 385.389 445.528 386.726C448.824 387.451 452.114 387.13 455.136 386.022C458.367 384.837 461.29 382.754 463.58 380.087C464.614 378.88 465.836 378.389 467.031 378.38C468.383 378.371 469.722 379.001 470.728 380.007C471.719 380.994 472.383 382.34 472.444 383.744C472.497 384.976 472.096 386.266 471.025 387.414C467.5 391.201 462.932 393.976 457.991 395.408ZM457.843 332.92C462.765 335.914 470.268 342.896 464.972 350.318C458.738 356.865 449.759 349.362 445.336 345.967C441.234 343.337 436.626 350.102 440.432 353.173C472.398 376.849 485.37 333.704 460.333 329.402C457.577 328.926 456.552 331.994 457.843 332.92ZM411.781 319.747C410.201 318.732 408.336 318.386 406.275 319.325C404.663 320.059 401.833 322.504 399.867 325.72C398.521 327.917 397.565 330.497 397.765 333.186C397.812 333.809 397.58 334.269 397.216 334.609C396.929 334.877 396.515 335.075 396.028 335.136C395.614 335.189 395.151 335.143 394.775 335.025C394.059 334.8 393.679 334.337 393.537 333.957C392.157 330.297 392.753 326.21 394.296 322.525C396.38 317.55 400.167 313.383 402.645 312.041C406.889 309.741 411.895 309.636 416.145 311.979C419.762 313.973 422.022 317.192 424.272 320.473C424.75 321.17 425.225 321.862 425.716 322.544C426.697 323.905 426.796 325.257 426.417 326.417C425.994 327.701 424.92 328.784 423.574 329.352C422.33 329.874 420.889 329.948 419.611 329.411C418.534 328.954 417.543 328.068 416.917 326.565C415.864 324.028 414.105 321.232 411.781 319.747ZM492.157 325.386C491.074 325.951 490.225 326.121 489.021 325.76C488.358 325.559 487.701 325.176 487.185 324.664C486.676 324.152 486.309 323.519 486.167 322.815C485.815 321.078 484.864 319.451 483.509 318.393C482.355 317.488 480.892 317.007 479.275 317.278C477.525 317.568 475.861 318.692 474.713 320.013C474.33 320.454 474.031 320.957 473.728 321.457C473.164 322.389 472.614 323.257 471.833 323.942C471.54 324.204 471.092 324.383 470.663 324.383C470.488 324.383 470.309 324.355 470.139 324.303C468.401 322.556 468.065 321.232 468.12 319.917C468.182 318.538 468.722 317.143 469.602 315.84C471.66 312.788 475.571 310.281 478.207 309.717C481.821 308.939 485.407 309.871 488.284 311.889C491.244 313.967 493.438 317.192 494.12 320.825C494.287 321.701 494.216 322.646 493.883 323.464C493.559 324.266 492.991 324.951 492.157 325.386ZM419.75 287.184C417.58 289.297 415.015 289.625 412.42 289.916C410.975 290.079 409.824 290.211 408.691 290.467C405.577 291.17 402.5 292.229 399.691 293.755C396.753 295.349 393.555 297.272 391.253 299.736C390.704 300.323 390.188 300.938 389.673 301.555C389.201 302.117 388.747 302.658 388.268 303.18C387.719 303.779 387.197 304.408 386.679 305.034C386.358 305.563 386.296 305.693 386.231 305.828C386.133 306.032 386.022 306.259 385.892 306.504C385.713 306.838 385.506 307.204 385.29 307.536C384.929 308.143 384.734 308.31 384.568 308.385C384.29 308.509 384.028 308.57 383.772 308.537C383.531 308.506 383.305 308.39 383.083 308.202C381.969 307.261 381.642 305.717 381.676 304.078C381.725 301.591 382.642 298.837 383.488 297.145C385.454 293.211 388.179 289.122 391.457 286.187C395.197 282.836 399.29 280.299 403.991 278.551C406.91 277.464 410.293 276.467 413.475 276.593C415.765 276.684 417.951 277.365 419.756 279.066C420.867 280.11 421.398 281.595 421.398 283.079C421.398 284.593 420.846 286.116 419.75 287.184ZM496.568 306.535C496.429 306.761 496.238 306.917 496.025 307.01C495.802 307.109 495.555 307.137 495.318 307.097C495.08 307.057 494.852 306.949 494.673 306.785C494.503 306.627 494.373 306.418 494.315 306.161C492.873 299.837 490.08 295.131 484.114 292.097C481.179 290.604 477.805 289.655 474.611 288.899C473.682 288.68 472.701 288.537 471.713 288.393C468.617 287.941 465.5 287.423 463.481 284.919C462.265 283.411 461.753 281.483 462.043 279.719C462.315 278.059 463.284 276.536 465.049 275.623C469.438 273.353 474.892 275.581 479.327 277.479C479.654 277.62 479.978 277.758 480.293 277.891C484.63 279.722 488.583 282.139 491.833 285.594C494.414 288.336 496.802 292.389 497.765 296.558C498.565 300.027 498.376 303.568 496.568 306.535Z" fill="black"></path> <path fill-rule="evenodd" clip-rule="evenodd" d="M512.842 338.752C508.453 344.653 500.314 346.533 492.805 345.882C476.613 344.323 471.517 325.928 470.987 311.629C481.845 314.684 470.07 293.045 507.184 290.665C520.267 289.575 516.659 297.479 522.44 303.255C522.323 315.376 520.305 328.548 512.842 338.752ZM435.724 324.823C426.163 369.607 373.817 358.956 368.32 318.585C373.397 314.999 372.058 306.148 378.366 302.94C388.363 296.55 400.863 296.823 412.215 296.973C426.727 297.971 430.863 303.985 438.317 310.545C437.959 314.928 436.922 320.123 435.724 324.823ZM533.579 283.249C533.042 283.159 532.505 283.075 531.968 282.996C531.548 282.758 531.055 282.575 530.483 282.464C529.175 282.133 527.879 281.909 526.582 281.788C507.977 277.6 464.937 283.547 463.159 299.429C457.237 301.408 452.11 299.636 445.243 299.812C440.014 277.956 349.65 281.041 345.305 294.218C345.289 294.214 345.271 294.21 345.255 294.204C341.079 292.911 334.922 293.223 330.144 293.018C319.937 292.805 309.721 293.714 299.736 295.868C281.038 298.84 255.52 302.32 268.524 325.678C268.526 325.681 268.528 325.687 268.532 325.69H268.534C270.775 327.987 274.578 326.138 274.72 323.027C270.347 311.959 280.222 310.632 287.82 307.451C306.726 300.656 325.974 299.714 345.527 301.816C346.996 303.549 349.227 305.06 351.588 305.85C364.659 308.021 357.771 317.721 366.036 319.132C364.517 352.95 405.558 371.41 429.338 349.178C438.832 339.894 441.098 326.138 443.298 313.737C444.462 313.474 445.203 312.839 445.635 311.996C448.434 309.2 450.19 306.618 455.727 305.85C461.261 305.083 465.524 306.623 466.101 307.095C466.246 307.388 466.4 307.681 466.582 307.975C466.835 308.412 467.181 308.761 467.57 309.036C462.104 342.712 488.237 364.008 514.619 346.542C526.082 335.755 528.505 319.24 528.984 304.498C530.536 303.56 531.521 301.743 530.984 299.457C530.243 296.306 531.98 293.578 534.749 292.208C538.348 290.429 537.709 283.933 533.579 283.249Z" fill="black"></path> </svg> 