<?xml version="1.0" encoding="UTF-8"?> <svg xmlns="http://www.w3.org/2000/svg" width="593" height="462" viewBox="0 0 593 462" fill="none"> <path fill-rule="evenodd" clip-rule="evenodd" d="M395.494 142.84C389.654 157.763 383.816 172.686 377.976 187.608C375.817 193.126 377.058 199.811 376.865 205.664C376.475 217.58 375.92 229.427 370.053 240.047C364.577 249.963 357.838 259.281 350.947 268.257C341.595 254.977 327.099 244.593 313.156 236.754C303.551 231.354 293.054 226.554 282.043 224.999C278.62 224.515 274.843 224.187 271.448 225.081C271.907 219.83 271.992 214.497 271.596 209.241C270.975 201.005 268.824 195.413 262.571 189.913C259.39 187.116 255.964 184.595 252.474 182.2C251.229 181.345 247.56 179.83 246.81 178.499C246.151 177.329 246.747 173.959 246.66 172.575C246.351 167.727 245.6 162.867 244.179 158.215C241.492 149.42 236.73 141.296 233.755 132.56C238.186 131.927 242.618 131.295 247.049 130.661C250.049 130.232 252.035 128.969 253.959 131.164C260.622 138.763 266.306 147.515 272.396 155.58C276.411 160.897 280.319 166.241 284.866 171.129C292.132 178.941 305.208 191.588 315.929 181.745C321.434 176.691 322.27 168.012 322.38 161.005C322.528 151.467 321.075 141.927 319.422 132.56C335.639 131.016 352.349 133.669 368.252 136.672C377.395 138.4 386.513 140.399 395.494 142.84Z" fill="url(#paint0_linear_1079_3300)"></path> <path fill-rule="evenodd" clip-rule="evenodd" d="M305.312 86.314C317.252 86.314 322.431 102.11 308.041 101.962C296.816 101.845 290.895 86.314 305.312 86.314ZM309.882 104.982C327.802 104.982 321.229 83.4041 305.245 83.3479C285.522 83.278 294.237 104.979 309.882 104.982ZM114.89 382.653C122.158 384.157 129.46 385.719 136.533 387.996C140.872 389.392 145.793 393.392 148.14 387.541C149.113 385.119 149.506 382.551 150.681 380.2C152.034 377.492 153.812 375.009 155.695 372.65C159.984 367.279 164.47 361.629 169.347 356.807C178.816 347.444 187.696 337.117 199.192 330.338C202.146 328.596 204.599 325.805 207.446 323.798C210.506 321.641 213.577 319.503 216.716 317.461C223.142 313.279 229.692 309.28 236.333 305.45C232.99 301.397 228.377 298.667 224.096 295.733C219.517 292.593 215.012 289.311 210.493 286.09C208.513 284.679 207.551 284.316 205.342 285.528C203.309 286.645 201.319 288.045 199.377 289.316C194.614 292.432 190.381 296.102 186.589 300.345C178.421 309.484 168.864 316.862 159.77 325.016C150.543 333.29 141.349 341.986 133.51 351.611C129.309 356.767 125.172 362.146 121.531 367.715C119.606 370.657 117.974 373.761 116.295 376.845C115.643 378.045 112.178 382.092 114.89 382.653ZM240.667 297.507C240.889 298.039 241.387 298.508 241.961 298.116C242.116 298.01 241.676 295.499 241.652 295.197C241.478 293.033 241.445 290.859 241.477 288.689C241.54 284.596 241.889 280.516 242.153 276.432C242.687 268.16 242.776 259.855 243.737 251.614C241.684 252.63 238.885 254.105 237.452 255.971C236.276 257.503 236.453 258.842 236.433 260.722C236.37 266.4 235.483 272.049 235.074 277.707C234.909 279.992 234.808 282.273 234.211 284.493C233.706 286.369 232.564 288.453 233.064 290.442C233.92 293.836 238.259 295.428 240.667 297.507ZM229.392 262.012C226.904 263.712 224.058 264.699 223.546 268C223.051 271.198 223.731 274.13 222.628 277.271C221.973 279.133 220.572 281.413 221.716 283.233C222.91 285.132 225.907 286.101 227.649 287.423C227.993 283.28 227.702 279.116 228.004 274.971C228.32 270.637 229.392 266.37 229.392 262.012ZM217.024 271.542C214.857 273.281 212.69 275.02 210.523 276.759C212.691 277.94 214.857 279.12 217.024 280.301V271.542ZM249.155 304.812C250.754 306.106 253.495 304.583 254.865 303.641C256.999 302.174 257.375 300.859 257.171 298.318C256.667 292.027 257.821 285.957 258.857 279.748C261.182 265.815 263.073 251.78 264.199 237.697C260.153 239.64 254.81 241.82 252.28 245.751C250.645 248.289 251.124 251.536 251.202 254.422C251.309 258.359 251.638 262.29 251.63 266.23C251.614 273.98 250.745 281.725 250.527 289.473C250.436 292.723 250.447 296.058 248.892 299.007C248.542 299.67 246.733 301.638 246.683 302.182C246.591 303.196 248.405 304.193 249.155 304.812ZM268.837 295.289C273.984 292.611 274.63 285.73 275.845 280.697C277.539 273.682 279.166 266.521 280.146 259.367C281.111 252.333 280.934 245.205 282.032 238.182C282.273 236.641 283.807 233.216 283.162 231.685C282.345 229.749 279.293 229.8 277.574 229.505C276.001 229.235 273.048 227.555 272.033 228.973C271.188 230.152 272.002 232.844 272.202 234.108C273.126 239.998 272.202 245.939 271.53 251.832C269.812 266.892 268.411 281.955 265.852 296.908C266.847 296.368 267.833 295.811 268.837 295.289ZM277.617 310.612C277.767 307.934 277.916 305.256 278.066 302.58C276.502 303.168 274.939 303.757 273.374 304.346C274.605 306.546 275.705 308.9 277.617 310.612ZM283.082 317.279C284.541 318.797 285.833 320.787 287.848 321.624V300.036C286.139 300.289 284.218 299.837 283.518 301.711C282.984 303.144 283.701 305.368 283.495 306.938C283.156 309.527 280.934 315.047 283.082 317.279ZM293.112 285.526C294.611 273.46 295.05 261.291 297.004 249.278C297.446 246.559 297.952 243.921 298.616 241.248C299.037 239.559 299.911 237.501 298.822 235.915C297.146 233.471 292.443 233.541 289.876 232.935C290.185 251.853 289.298 271.145 282.681 289.072C284.862 288.82 292.743 288.497 293.112 285.526ZM293.956 326.907C296.757 328.935 299.292 331.874 302.733 332.82C302.947 324.238 303.074 315.651 303.407 307.073C303.484 305.078 303.537 303.063 303.74 301.075C303.827 300.229 304.395 298.487 303.986 297.637C302.941 295.46 299.105 296.945 297.52 297.93C295.335 299.288 295.579 301.525 295.613 303.923C295.655 306.981 295.607 309.92 295.382 312.98C295.182 315.693 294.93 318.32 294.452 320.992C294.292 321.888 293.015 326.225 293.956 326.907ZM307.401 336.209C310.799 338.071 312.053 334.518 313.611 332.177C314.679 330.571 316.385 329.046 316.817 327.097C317.25 325.137 316.28 323.155 316.115 321.22C315.719 316.571 317.226 311.776 317.812 307.195C318.476 301.99 318.72 296.711 318.72 291.467C316.152 292.633 311.557 292.68 310.634 295.841C310.224 297.245 310.773 299.056 310.857 300.489C310.999 302.901 310.919 305.336 310.949 307.753C311.067 317.333 310.676 326.686 305.352 335.01C306.029 335.419 306.712 335.819 307.401 336.209ZM318.3 342.036C324.049 344.47 329.578 347.573 335.647 349.176C341.718 350.778 347.908 352.226 354.063 353.473C366.942 356.084 380.173 357.613 393.328 357.193C399.766 356.986 406.102 356.139 412.463 355.165C418.904 354.179 424.481 351.86 430.577 349.727C442.427 345.58 454.573 342.891 465.808 337.101C468.519 335.703 471.157 334.174 473.85 332.744C475.28 331.985 477.037 331.658 477.115 329.849C477.196 327.975 475.172 324.534 474.369 322.854C473.126 320.253 471.207 318.186 469.261 316.088C465.959 312.532 462.86 307.243 458.856 304.502C456.648 302.99 455.74 303.914 453.802 305.261C451.251 307.036 448.205 308.299 445.349 309.51C433.598 314.492 420.241 317.51 407.6 318.985C395.155 320.437 382.85 321.848 370.459 318.888C363.445 317.212 356.863 314.394 350.234 311.616C348.043 310.697 345.579 308.678 343.576 310.256C341.431 311.945 340.154 315.432 338.402 317.57C334.208 322.687 329.002 326.668 324.808 331.771C323.79 333.011 315.35 340.787 318.3 342.036ZM483.072 317.551C484.932 320.294 486.607 323.261 487.138 326.577C490.711 323.712 493.15 322.741 490.276 318.213C487.591 313.981 485.204 309.667 482.758 305.285C481.759 303.495 480.277 301.396 480.601 299.225C480.97 296.753 483.174 295.643 485.317 296.758C486.839 297.551 487.985 299.645 488.989 300.987C490.799 303.406 492.374 305.976 493.912 308.573C495.054 310.503 496.135 313.629 497.73 315.108C498.804 316.104 500.161 316.157 500.446 314.209C500.7 312.477 498.129 309.423 497.363 308.046C496.114 305.8 494.739 303.608 493.758 301.225C492.74 298.755 492.075 290.577 496.979 294.643C498.672 296.046 500.097 298.755 501.372 300.532C503.333 303.264 505.174 306.083 506.871 308.987C509.865 306.986 512.715 303.825 516.328 302.965C519.762 302.146 522.846 305.263 525.777 306.699C530.341 308.935 534.649 311.648 538.995 314.271C542.873 316.611 546.998 318.444 550.803 320.92C557.42 325.228 565.48 330.904 573.792 328.344C577.085 327.33 580.721 325.244 582.511 322.191C584.928 318.067 584.311 312.57 585.867 308.105C581.461 310.542 576.817 307.728 572.931 305.629C568.576 303.275 564.059 301.264 559.489 299.365C550.043 295.442 540.249 292.016 530.952 287.784C512.786 279.513 497.471 266.177 479.243 258.092C474.955 270.524 467.872 281.977 458.486 291.206C467.448 299.226 476.287 307.545 483.072 317.551ZM339.569 268.025C342.001 266.876 344.961 266.636 343.274 263.463C342.075 261.21 339.47 259.642 337.823 257.726L335.794 269.971C337.05 269.319 338.289 268.63 339.569 268.025ZM325.8 274.771C326.11 268.668 326.874 262.375 329.124 256.658C329.784 254.982 330.915 253.006 329.971 251.263C329.007 249.481 326.169 248.506 324.418 247.762C323.084 258.162 322.441 268.744 319.348 278.824C321.629 278.197 325.641 277.892 325.8 274.771ZM323.907 316.622C323.895 316.806 323.884 316.99 323.872 317.174C326.214 316.018 328.833 314.23 330.051 311.829C331.329 309.31 330.646 306.415 330.629 303.722C330.612 300.613 331.141 297.606 331.716 294.565C332.366 291.135 331.961 287.919 331.742 284.47C329.861 285.741 327.036 286.638 325.797 288.663C324.5 290.782 325.245 293.544 325.502 295.845C326.264 302.688 325.698 309.972 323.907 316.622ZM301.993 284.976C306.514 284.342 308.919 283.427 309.714 278.73C310.691 272.962 311.72 267.227 312.509 261.429C313.243 256.044 315.767 250.462 316.019 245.091C316.196 241.311 309.847 239.965 306.971 238.558C305.434 254.041 304.67 269.626 301.993 284.976ZM348.165 259.896C348.667 261.049 349.085 262.236 349.541 263.408C352.733 258.671 355.879 254.034 359.595 249.687C363.038 245.658 365.907 241.545 367.671 236.516C369.584 231.065 371.337 225.28 371.914 219.514C372.496 213.701 371.961 207.738 371.828 201.91C371.75 198.523 369.853 189.974 372.509 187.215C373.484 186.201 375.026 186.544 376.129 185.606C377.641 184.321 378.129 181.688 378.754 179.921C382.69 168.794 386.16 157.329 391.957 146.983C384.226 143.675 375.477 142.012 367.331 139.988C358.778 137.863 349.894 136.551 341.115 135.82C336.876 135.468 332.631 135.318 328.377 135.35C324.926 135.376 321.473 134.799 322.643 139.195C324.41 145.838 325.69 152.644 325.607 159.55C325.485 169.634 322.904 183.018 312.628 187.614C296.623 194.771 283.999 177.572 275.804 166.668C270.076 159.047 264.552 151.51 259.607 143.329C257.991 140.655 256.609 136.532 253.528 135.198C249.706 133.543 244.193 134.69 240.154 134.69C240.46 139.561 240.771 143.639 242.882 148.12C244.929 152.461 246.604 156.832 247.981 161.431C249.298 165.829 249.895 169.937 250.442 174.429C250.928 178.421 255.015 177.011 257.937 178.155C264.793 180.84 268.487 188.972 271.198 195.243C272.931 199.251 274.72 203.353 275.459 207.684C276.343 212.866 275.707 218.139 275.507 223.349C276.69 223.601 277.987 222.645 279.102 222.381C280.802 221.979 282.658 221.967 284.391 222.08C288.208 222.33 292.079 223.012 295.803 223.862C303.857 225.7 311.473 229.015 318.767 232.84C330.59 239.038 342.649 247.233 348.165 259.896ZM387.807 180.176C399.897 184.336 412.169 188.215 424.778 190.468C430.98 191.576 437.185 191.339 443.45 191.153C446.329 191.068 448.83 190.593 451.621 190.001C453.745 189.55 457.287 188.45 459.259 189.718C460.408 185.935 466.476 185.865 469.588 185.255C472.119 184.76 474.348 183.483 476.835 182.883C477.769 182.659 478.678 182.697 479.504 182.225C480.297 181.773 480.744 180.746 481.569 180.345C482.755 179.769 484.195 179.731 485.069 178.911C487.095 177.012 489.361 175.321 491.367 173.392C493.393 171.444 494.354 168.928 495.735 166.513C497.35 163.688 499.858 160.908 501.048 157.902C500.525 158.261 500.006 158.624 499.489 158.993C499.772 155.456 500.742 152.347 500.496 148.682C500.374 146.873 500.557 145.714 500.786 144.003C500.961 142.697 500.791 141.621 500.772 140.159C500.72 136.253 499.43 132.678 498.817 128.865C498.612 127.598 498.505 126.239 498.449 124.985C498.399 123.84 499.112 122.316 498.977 121.082C498.442 121.354 497.959 121.7 497.53 122.121C498.732 119.181 494.873 115.686 494.445 112.88C493.802 108.659 497.821 107.588 501.219 108.093C505.792 108.773 510.016 111.475 514.11 113.453C519.715 116.161 525.289 118.882 530.781 121.814C537.224 125.254 542.849 129.816 549.192 133.327C549.995 133.772 552.952 135.693 553.488 134.091C553.964 132.671 550.66 130.1 549.857 129.361C545.735 125.566 541.113 122.203 536.488 119.047C533.294 116.866 529.947 114.917 526.676 112.854C523.162 110.637 518.238 108.137 516.859 103.902C515.724 100.418 517.042 97.252 520.97 98.2526C526.054 99.5479 531.145 103.11 535.812 105.477C540.475 107.842 545.208 110.077 549.842 112.497C550.875 113.036 554.843 115.827 554.175 113.597C553.635 111.794 550.516 109.619 549.17 108.387C547.178 106.56 545.079 104.853 542.917 103.231C538.349 99.8021 533.495 96.7661 528.565 93.8897C525.541 92.1257 522.286 90.2643 522.126 86.3407C521.852 79.61 527.963 83.182 531.489 84.5171C536.206 86.3017 541.094 87.5867 545.823 89.3418C550.135 90.9414 554.489 92.6787 559.086 93.2633C561.438 93.5628 564.937 93.6526 564.371 90.3678C563.763 86.8479 558.736 84.4307 555.99 82.8606C551.291 80.1734 546.475 79.1502 541.256 77.9789C535.574 76.7035 529.97 75.3308 524.223 74.3425C512.579 72.3393 501.372 71.6313 489.609 72.7012C484.218 73.1912 478.738 72.6662 473.406 73.1597C469.861 73.4872 467.201 75.694 465.273 78.5491C460.578 85.508 458.606 94.9965 459.361 103.219C460.456 115.132 465.653 125.172 470.095 136.019C473.475 144.27 475.996 155.734 466.934 161.353C462.655 164.007 457.823 163.821 453.031 163.124C446.564 162.182 440.195 160.685 433.877 159.041C421.391 155.793 409.029 152.145 396.702 148.344C396.159 150.492 384.387 178.999 387.807 180.176ZM320.761 161.394C320.304 155.009 320.077 148.713 318.953 142.397C318.587 140.341 318.424 138.058 316.632 136.698C314.861 135.354 312.231 135.311 310.215 134.482C304.864 132.279 300.49 127.218 296.446 123.23C292.269 119.112 289.555 114.421 287.586 108.92C286.011 104.52 283.512 97.572 286.429 93.2448C288.7 89.8764 292.401 88.6935 291.236 83.8413C290.24 79.6936 286.115 77.3587 282.533 80.1494C280.294 81.8929 277.778 86.1276 277.778 80.3708C268.231 82.4843 258.366 79.1447 250.024 74.6139C248.394 73.7278 246.395 72.3215 244.737 73.7175C243.642 74.64 243.285 76.4568 242.085 77.4807C240.832 78.5505 238.864 79.1447 238.477 80.9348C238.178 82.3144 239.049 84.4636 239.421 85.739C240.371 88.9889 241.65 92.3114 244.25 94.5846C245.375 95.5688 249.238 98.8975 250.685 97.4891C252.357 95.8628 248.729 90.5891 253.339 93.6087C254.989 94.6895 255.5 94.7416 256.203 96.7154C257.029 99.0339 257.405 101.495 257.733 103.922C259.525 103.336 262.371 101.429 264.203 102.816C265.938 104.129 265.022 106.878 263.595 108.021C262.129 109.193 259.143 109.413 257.43 108.659C254.691 107.453 254.678 104.372 254.092 101.841C252.545 102.963 251.509 104.953 249.286 104.571C256.044 112.585 264.944 118.135 275.515 118.153C280.294 118.161 282.099 119.998 283.053 124.658C284.026 129.418 283.999 134.607 284.005 139.435C284.011 143.375 283.868 147.407 282.664 151.193C281.867 153.702 280.312 156.146 279.329 152.043C278.8 149.841 279.175 147.311 279.197 145.057C279.209 143.64 279.686 141.052 278.759 139.885C277.729 138.589 275.339 139.304 273.905 139.29C270.895 139.261 268.014 138.137 265.002 138.137C269.453 144.693 274.494 150.823 278.755 157.511C283.111 164.35 288.406 170.774 294.823 175.794C300.183 179.989 307.647 182.154 313.733 178.068C318.953 174.564 321.192 167.431 320.761 161.394ZM237.824 101.3C235.88 104.072 242.152 109.531 244.557 109.489C243.943 108.502 239.04 99.565 237.824 101.3ZM233.552 139.259C232.839 137.209 228.806 137.378 227.133 137.324C223.483 137.204 219.827 137.195 216.174 137.082C206.188 136.777 196.208 136.056 186.213 136.215C175.865 136.381 165.509 135.396 155.18 135.756C145.367 136.098 135.59 137.01 125.943 138.859C108.269 142.246 89.8954 147.075 75.7686 158.942C63.0795 169.601 53.6246 185.026 55.6251 202.076C56.8594 212.589 57.3077 223.631 61.2902 233.57C64.675 242.016 71.7799 247.25 79.1178 252.115C79.2145 250.091 73.8215 236.987 79.577 238.991C81.4336 239.637 82.5102 242.192 83.5225 243.725C85.2975 246.413 87.1993 249.044 89.1244 251.628C92.6176 256.319 96.6281 260.754 101.781 263.653C103.777 264.776 110.127 268.081 111.255 264.456C112.19 261.454 106.128 255.374 104.7 253.076C103.435 251.038 102.422 249.07 102.898 246.645C103.081 245.711 103.645 244.852 103.855 243.917C104.025 243.161 103.828 242.003 104.17 241.312C106.459 236.69 108.898 244.695 109.622 246.14C112.126 251.141 117.958 254.396 122.495 257.264C128.138 260.83 133.721 264.694 140.273 266.38C136.173 259.359 131.982 252.384 128.259 245.152C124.792 238.418 122.6 230.626 118.55 224.378C117.866 223.322 117.401 222.179 116.859 220.915C116.521 220.127 116.014 217.444 115.567 216.974C115.313 216.707 113.896 216.605 113.34 216.065C112.655 215.4 112.27 214.347 111.922 213.482C111.509 212.454 109.925 208.875 110.341 207.711C110.428 207.468 111.56 207.573 111.756 207.124C111.987 206.598 111.819 206.214 111.843 205.678C111.897 204.44 111.114 203.505 112.039 202.322C107.361 202.322 111.721 189.742 112.52 187.455C113.409 184.913 114.899 183.087 115.585 180.607C116.422 177.582 118.748 174.931 120.825 172.647C122.902 170.361 125.07 167.635 127.407 165.647C129.829 163.586 133.098 162.421 135.849 160.861C137.075 160.165 138.388 159.241 139.796 158.959C140.253 159.095 140.708 159.237 141.162 159.383C141.69 159.106 142.16 158.751 142.57 158.316C145.2 156.949 147.777 156.456 150.738 156.098C165.369 154.33 181.051 154.012 195.74 155.253C203.372 155.897 211.131 156.632 218.648 158.128C226.432 159.679 234.09 161.658 241.96 162.798C240.183 154.616 236.292 147.124 233.552 139.259ZM191.206 38.8771C189.856 38.6975 190.423 40.5376 190.859 41.0914C191.426 40.4396 191.542 39.7015 191.206 38.8771ZM1.63983 428.026C2.74524 422.701 6.53723 417.21 10.9083 414.027C16.3019 410.098 22.3925 410.053 28.7298 410.373C35.993 410.741 43.0472 412.009 50.2 413.225C57.4694 414.461 64.6229 415.525 71.6778 417.737C74.5041 418.623 77.3764 419.37 80.1636 420.369C82.2423 421.115 84.645 422.544 85.6854 419.83C87.5776 414.897 80.3007 412.754 77.4037 410.673C75.8261 409.539 73.7297 407.901 75.709 406.146C78.0487 404.072 82.0147 406.067 84.4004 406.926C86.6024 407.719 88.8365 407.994 88.2766 404.476C87.9045 402.14 84.8719 400.625 83.175 399.261C81.0875 397.582 73.7592 392.638 78.4606 390.132C83.4656 387.465 86.2755 394.12 90.5513 394.463C94.3152 394.764 94.2911 385.507 95.3438 382.972C98.0016 376.569 104.656 383.575 107.646 379.714C108.879 378.122 108.453 375.257 108.913 373.391C109.671 370.318 111.429 367.302 112.849 364.486C115.992 358.256 119.622 352.27 123.684 346.596C127.741 340.928 132.236 336.055 137.352 331.342C142.482 326.615 146.954 321.244 151.999 316.432C162.043 306.853 173.618 298.97 183.91 289.625C186.285 287.468 188.55 285.219 191.324 283.563C193.871 282.045 198.081 281.226 200.111 279.065C201.43 277.661 201.213 275.686 201.853 273.957C202.938 271.029 205.543 269.046 207.774 266.999C218.146 257.483 228.997 248.029 241.177 240.873C247.084 237.402 253.068 233.082 259.405 230.468C261.453 229.623 264.222 229.274 265.907 227.727C267.673 226.106 268.006 223.272 268.674 221.08C272.819 207.486 264.282 193.407 253.918 184.961C252.075 183.458 249.418 182.219 248.233 180.115C246.935 177.811 246.873 174.855 245.488 172.513C242.923 168.174 235.943 168.772 231.537 167.787C204.928 161.834 173.349 159.529 147.267 169.025C136.307 173.015 126.893 179.732 122.701 190.917C120.809 195.965 119.813 201.44 119.971 206.836C120.145 212.848 122.346 218.425 124.359 224.024C126.779 230.757 129.487 237.39 132.622 243.824C135.451 249.63 139.037 254.857 142.161 260.477C144.101 263.967 147.179 270.403 142.739 273.292C139.199 275.595 133.578 274.248 130.086 272.564C124.862 270.044 120.999 265.521 116.428 262.076C116.408 265.489 119.443 268.546 118.06 271.998C116.687 275.429 112.959 274.984 110.014 274.147C106.651 273.191 103.165 271.706 100.088 270.057C96.1991 267.973 93.4023 264.777 90.0989 261.942C84.2955 256.964 76.5841 255.295 70.3688 250.978C63.9445 246.516 59.5062 239.762 56.7977 232.515C53.6616 224.121 52.3794 215.122 51.2986 206.271C50.2302 197.515 49.7066 188.885 52.6063 180.405C58.1205 164.278 69.3099 151.561 84.349 143.584C116.083 126.752 151.931 127.44 186.784 128.364C196.336 128.618 205.898 128.746 215.436 129.372C219.821 129.659 224.215 130.017 228.571 130.608C229.899 130.788 232.872 131.804 234.055 130.716C234.968 129.877 234.433 128.111 235.261 127.099C237.23 124.692 241.625 125.311 244.248 125.632C247.562 126.035 251.465 126.107 254.444 127.721C257.308 129.274 258.305 132.526 261.854 132.574C265.801 132.628 269.925 131.689 273.901 131.539C277.029 131.42 279.806 130.343 276.809 126.917C274.525 124.304 270.699 124.32 267.593 123.729C261.85 122.635 248.796 113.033 244.495 119.691C243.314 121.518 243.398 122.181 241.129 122.98C239.031 123.72 236.65 124.079 234.452 124.439C230.363 125.11 225.607 125.649 221.606 124.222C215.387 122.004 214.102 115.017 212.65 109.364C206.009 112.892 195.979 114.531 189.421 109.918C183.911 106.042 181.929 97.9161 182.166 91.5376C182.237 89.6406 182.488 87.695 183.164 85.9097C183.789 84.2546 185.477 82.5337 185.414 80.6929C185.359 79.0899 183.847 77.6973 183.153 76.3533C182.122 74.359 181.628 71.9905 181.423 69.7672C180.677 61.6056 186.775 57.0515 193.115 53.2965C189.391 48.8638 185.228 44.4399 185.553 38.2301C185.855 32.4354 190.434 28.4028 195.157 25.6848C199.381 23.2539 203.642 22.313 208.381 21.7236C210.445 21.4666 211.235 21.6783 210.905 19.5483C210.644 17.8569 209.428 16.3539 209.054 14.6797C206.869 4.9239 216.511 1.21075 224.312 0.360931C237.16 -1.03853 249.072 1.5774 259.507 9.1586C267.133 -6.89884 292.562 1.02365 299.648 13.468C300.578 15.0998 301.264 16.8727 301.585 18.7273C301.799 19.9684 301.127 22.8948 301.747 23.8378C302.954 25.6766 307.767 23.9358 309.463 24.0236C312.57 24.1832 315.898 25.7938 318.408 27.551C329.012 34.9773 328.475 50.2365 325.929 61.4452C332.746 62.3697 339.635 68.008 339.773 75.2568C339.842 78.8945 338.524 82.9983 336.396 85.9391C334.218 88.9505 330.244 90.9626 329.837 94.9664C329.408 99.1785 330.297 101.649 326.776 104.825C324.195 107.154 320.781 109.035 317.52 110.214C309.887 112.975 301.202 111.996 293.787 109.019C297.556 114.968 303.586 120.271 309.46 124.09C312.095 125.803 315.192 128.004 318.16 129.07C321.382 130.227 325.371 128.209 328.702 127.93C343.666 126.678 359.076 129.4 373.477 133.119C389.063 137.143 404.47 141.564 419.94 146.036C427.598 148.249 435.245 150.588 442.982 152.513C448.792 153.958 455.263 155.229 461.267 154.206C466.385 153.332 468.895 149.88 467.247 144.702C465.074 137.881 460.835 131.52 458.208 124.82C453.349 112.427 450.942 98.1888 455.191 85.286C456.912 80.061 459.36 73.9951 464.045 70.7411C466.522 69.0209 469.622 68.0066 472.309 66.6476C475.723 64.9205 479.393 63.6705 483.086 62.687C497.924 58.7361 513.579 60.583 528.398 63.6266C541.783 66.3762 562.578 70.2751 568.556 84.6178C570.6 89.5221 571.343 97.8126 566.261 101.234C561.886 104.177 555.282 102.273 551.028 100.05C555.174 104.819 560.323 109.366 562.323 115.557C563.027 117.736 563.569 120.744 562.147 122.764C560.08 125.7 556.566 123.974 553.789 123.285C557.046 127.486 561.736 134.182 558.411 139.551C554.733 145.49 547.319 141.509 542.741 139.029C535.949 135.349 528.867 132.247 522.062 128.589C518.417 126.63 514.842 124.552 511.663 121.886C509.031 119.678 506.798 117.335 503.165 117.068C507.906 126.018 512.579 135.327 512.493 145.705C512.412 155.369 508.618 166.857 503.492 175.041C498.128 183.604 489.468 188.876 480.329 192.663C470.377 196.788 460.226 199.572 449.416 200.02C428.345 200.892 405.629 195.984 387.445 185.211C386.085 184.405 386.036 184.123 384.763 185.057C383.131 186.252 381.821 190.558 380.801 192.365C377.809 197.665 378.694 202.122 379.259 207.932C380.262 218.252 378.007 228.678 374.832 238.448C371.661 248.21 366.39 255.938 359.791 263.702C356.829 267.186 353.75 269.936 349.75 272.171C345.4 274.602 341.692 276.72 340.004 281.667C338.597 285.792 338.825 289.316 340.781 293.199C341.286 294.203 342.257 297.274 343.184 297.973C344.066 298.641 344.3 298.044 345.118 298.261C346.612 298.657 347.038 298.879 348.245 300.024C351.473 303.087 356.25 303.898 360.431 305.148C366.183 306.869 372.104 308.539 378.128 308.843C388.504 309.368 400.36 309.308 410.35 306.319C420.411 303.307 430.837 301.575 440.517 297.368C444.918 295.455 446.947 294.477 447.881 289.687C448.377 287.146 449.088 286.947 451.217 286.216C453.662 285.376 454.642 284.221 456.083 281.997C458.662 278.021 461.118 273.984 463.514 269.897C466.517 264.778 470.274 260.078 473.099 254.871C474.787 251.76 476.07 246.289 480.467 246.167C483.078 246.095 485.921 247.994 488.266 248.959C491.126 250.137 494.008 251.257 496.861 252.449C507.844 257.041 517.651 263.938 527.687 270.262C538.641 277.164 551.168 282.044 562.765 287.858C568.177 290.57 573.344 293.685 578.29 297.176C581.489 299.432 587.733 301.895 587.265 306.377C588.848 305.513 590.828 304.004 592.342 305.801C593.592 307.283 592.734 310.009 592.42 311.696C591.386 317.244 590.156 322.898 586.774 327.549C581.418 334.917 571.21 340.959 561.908 339.632C550.537 338.011 541.417 329.922 531.646 324.609C528.076 322.668 524.493 320.861 521.113 318.607C519.12 317.28 515.611 314.417 512.994 314.761C509.001 315.287 512.34 320.011 513.433 321.853C514.591 323.803 515.558 325.858 516.591 327.878C517.75 330.14 519.677 332.666 520.341 335.118C520.761 336.67 520.556 339.023 518.625 339.411C516.661 339.806 514.98 337.263 513.983 336.003C512.341 333.925 510.974 331.651 509.564 329.414C508.629 327.929 507.474 325.098 505.894 324.169C501.802 321.764 506.277 329.476 507.012 330.528C507.934 331.85 509.27 333.446 509.493 335.078C509.821 337.479 507.865 339.797 505.351 339.222C503.414 338.779 502.108 336.761 501.019 335.275C500.318 334.32 498.225 330.595 496.868 330.559C496.029 330.538 493.912 333.453 493.258 334.084C491.357 335.922 489.103 337.175 486.74 338.321C475.795 343.623 465.844 350.415 454.428 354.821C443.521 359.032 432.148 362.35 420.796 365.086C414.809 366.528 409.213 368.102 403.039 368.61C396.793 369.123 390.635 368.866 384.381 368.737C371.619 368.473 359.593 365.824 347.332 362.446C325.558 356.446 305.1 346.598 288.247 331.349C283.891 327.409 279.948 323.081 276.22 318.549C274.6 316.581 272.904 314.631 271.534 312.48C270.617 311.041 269.785 308.576 268.171 307.754C265.686 306.488 259.956 310.497 257.714 311.607C255.259 312.825 252.746 314.415 250.072 315.05C249.066 315.288 248.088 315.309 247.103 315.651C246.12 315.993 244.96 317.072 243.839 316.831C239.665 315.931 246.508 307.892 240.384 311.964C230.603 318.468 221.459 326.246 212.239 333.515C209.931 335.334 207.566 336.934 205.098 338.529C202.789 340.022 201.019 342.056 198.808 343.672C193.969 347.209 189.406 350.986 185.004 355.058C180.642 359.094 176.46 363.363 171.852 367.12C167.335 370.803 163.815 375.055 160.013 379.444C156.303 383.726 153.534 388.65 150.901 393.637C153.103 392.87 154.951 391.56 156.161 394.43C156.942 396.277 156.275 398.811 155.772 400.649C154.157 406.542 150.768 411.832 148.732 417.582C146.412 424.132 142.986 430.42 141.055 437.085C139.347 442.982 139.75 449.51 137.307 455.224C135.302 459.916 127.997 458.829 123.779 459.249C117.035 459.919 110.371 460.678 103.59 460.888C89.4835 461.325 75.1942 462.393 61.088 461.849C48.2578 461.354 35.4564 460.566 22.668 459.463C19.1686 459.16 11.3798 458.459 10.5745 453.864C10.0537 450.896 12.6929 451.342 14.6927 451.527C17.541 451.791 20.4208 451.749 23.2793 451.797C36.973 452.032 50.4186 452.219 64.0863 451.177C78.0637 450.111 92.0316 449.847 106.018 449.327C112.322 449.093 118.446 448.981 124.731 449.267C126.608 449.352 128.913 449.577 129.963 447.76C131.017 445.934 130.87 441.592 131.347 439.537C133.007 432.388 136.65 426.055 139.101 419.185C141.573 412.255 144.034 405.351 147.19 398.693C137.075 396.916 126.975 394.915 117.002 392.458C112.943 391.457 108.658 390.788 104.718 389.429C100.363 387.927 100.265 388.748 99.4353 392.865C98.7123 396.453 97.8885 399.006 101.168 401.395C104.573 403.877 108.742 405.364 111.811 408.31C114.614 411 114.05 414.855 109.549 414.298C105.095 413.748 99.9904 410.392 95.9565 408.521C95.3932 410.961 94.8675 412.7 96.4459 414.807C98.1181 417.039 100.666 418.464 102.553 420.488C103.945 421.981 105.407 424.171 103.118 425.619C100.764 427.107 98.4135 425.162 96.6528 423.817C95.3199 422.798 93.1227 420.548 91.349 421.81C89.5027 423.124 90.48 426.454 89.3896 428.247C87.5475 431.275 86.2741 429.034 84.4792 427.754C81.5912 425.693 75.7014 426.266 72.261 425.981C68.1326 425.639 64.1048 424.879 60.0031 424.372C55.1159 423.769 50.1924 423.74 45.3108 423.043C37.8215 421.974 29.5988 418.925 22.0834 420.838C10.3662 423.82 4.68542 436.394 6.54474 447.727C6.91071 449.96 8.71594 454.889 6.63525 456.803C4.68274 458.6 3.27844 455.375 2.56915 453.831C-1.14398 445.748 -0.109192 436.456 1.63983 428.026Z" fill="black"></path> <path fill-rule="evenodd" clip-rule="evenodd" d="M137.664 105.284C121.566 103.649 104.901 107.279 89.3714 111.243C75.4289 114.802 61.8729 120.655 52.4454 131.924C50.963 133.696 49.31 137.584 47.3026 138.723C44.2248 140.472 44.5551 136.174 45.3248 134.428C47.8105 128.79 53.3692 122.854 57.8829 118.793C68.6365 109.118 82.9847 104.632 96.9039 101.864C105.361 100.182 114.058 99.2384 122.685 99.2247C126.985 99.2185 131.276 99.6948 135.471 100.646C136.806 100.949 138.746 101.225 139.447 102.612C140.233 104.169 139.532 105.473 137.664 105.284Z" fill="black"></path> <path fill-rule="evenodd" clip-rule="evenodd" d="M515.777 203.314C511.433 207.844 505.61 211.029 499.438 212.166C496.219 212.759 491.246 213.653 488.28 211.799C486.78 210.862 485.988 209.032 486.951 207.34C488.097 205.33 491.096 205.405 493.062 205.129C500.326 204.108 506.292 202.122 511.832 197.149C516.917 192.586 520.365 186.756 522.813 180.422C523.953 177.471 524.452 174.469 525.212 171.42C525.641 169.694 526.772 165.661 528.635 168.593C531.55 173.181 527.798 182.495 526.129 186.931C523.819 193.076 520.32 198.575 515.777 203.314Z" fill="black"></path> <path fill-rule="evenodd" clip-rule="evenodd" d="M341.486 37.3829C337.352 33.128 335.305 27.4898 330.588 23.6251C329.708 22.9055 326.33 21.3923 326.369 20.0847C326.42 18.3645 328.414 18.6619 329.45 18.9978C334.545 20.6494 344.206 31.941 341.486 37.3829Z" fill="black"></path> <path fill-rule="evenodd" clip-rule="evenodd" d="M263.424 98.9855C261.733 97.6183 257.642 94.1093 257.921 91.6579C258.182 89.3593 260.075 89.9384 261.557 90.8629C262.195 91.2611 263.655 92.9333 264.61 92.4954C265.583 92.0506 264.842 92.2055 265.219 91.3755C265.743 90.2187 264.886 87.0572 267.123 87.9633C268.453 88.5019 269.116 91.6504 269.207 92.8607C269.438 95.894 267.343 102.155 263.424 98.9855Z" fill="black"></path> <path fill-rule="evenodd" clip-rule="evenodd" d="M276.845 109.482C276.557 111.247 274.092 114.631 272.002 112.823C270.332 111.378 272.295 109.722 273.026 108.329C273.499 107.426 274.137 104.208 275.468 104.261C277.546 104.344 277.055 108.197 276.845 109.482Z" fill="black"></path> <path fill-rule="evenodd" clip-rule="evenodd" d="M284.298 88.6539C283.779 86.9282 285.695 80.2448 288.223 82.2714C290.287 83.9271 287.786 85.6597 286.837 86.7919C286.375 87.3442 284.883 90.6003 284.298 88.6539Z" fill="black"></path> <defs> <linearGradient id="paint0_linear_1079_3300" x1="233.755" y1="189.873" x2="392.645" y2="192.188" gradientUnits="userSpaceOnUse"> <stop stop-color="#ECB300"></stop> <stop offset="0.583333" stop-color="#FFDD00"></stop> <stop offset="0.979167" stop-color="#FCED50"></stop> </linearGradient> </defs> </svg> 