<?xml version="1.0" encoding="UTF-8"?> <svg xmlns="http://www.w3.org/2000/svg" width="752" height="290" viewBox="0 0 752 290" fill="none"> <path d="M40.3541 41.9645C87.8547 41.4883 135.325 38.7036 182.761 37.113C287.511 33.6007 392.4 28.603 497.284 27.5717C538.506 27.1664 676.825 27.5717 718.052 27.5717M36.6598 41.967C36.6598 93.9708 30.3368 145.776 24.8087 197.634C22.6076 218.282 20.0178 280.341 20.0178 259.645M20.0178 263.807H20.5767C70.4353 263.807 120.275 263.807 170.113 262.701C257.287 260.766 344.197 255.747 431.444 254.96C477.484 254.544 523.525 255.663 569.571 255.663C586.334 255.663 661.81 254.96 678.573 254.96M731.925 29.7765C715.6 98.714 681.999 166.603 681.999 236.995M718.042 28.6114C698.542 101.644 696.315 183.566 680.765 257.003M23.7183 269.982C49.7939 266.809 76.5142 266.007 102.943 265.214L104.367 265.172C193.874 262.484 283.576 263.133 373.143 263.461C458.866 263.775 544.933 264.964 630.581 261.858C646.401 261.284 662.229 260.396 677.852 258.597M49.6007 39.5285C83.7891 39.1402 118.107 36.321 152.165 34.5444C251.121 29.3826 350.175 27.0844 449.362 25.118C502.717 24.0603 556.347 24.35 609.649 22.4093C617.314 22.1302 624.822 21.6717 632.07 20.0256" stroke="black" stroke-width="10" stroke-linecap="round"></path> </svg> 