<?xml version="1.0" encoding="UTF-8"?> <svg xmlns="http://www.w3.org/2000/svg" width="262" height="248" viewBox="0 0 262 248" fill="none"> <path fill-rule="evenodd" clip-rule="evenodd" d="M138.272 99.7739C134.452 108.883 98.7879 105.815 98.0076 95.0757C96.846 79.0277 144.907 83.943 138.272 99.7739ZM176.153 93.8146C196.364 95.457 229.57 109.182 249.048 100.888C278.775 88.2307 247.558 68.8042 231.612 62.9974C215.385 57.0908 191.214 60.2288 182.871 43.2658C176.593 30.5083 192.105 -5.10691 172.862 0.617806C152.669 6.62407 158.541 57.6422 126.855 40.4445C111.742 32.2387 117.908 -17.7469 92.5927 7.79143C85.664 14.7772 85.0596 27.605 75.8839 32.8136C66.5205 38.1336 54.7751 32.5906 44.8895 33.054C18.7178 34.2799 10.3811 58.7566 36.899 68.464C46.7141 72.0596 83.7101 76.447 61.299 92.4832C47.1776 102.584 15.8079 81.3857 3.68126 98.9704C-12.9863 123.124 31.6599 123.67 43.6517 130.896C63.9742 143.132 47.1895 171.714 48.8087 192.068C51.2904 223.166 69.3602 216.667 75.9251 190.349C81.4927 168.019 74.5931 135.876 108.263 144.751C163.094 159.203 77.7732 228.797 117.937 246.605C143.546 257.96 147.171 196.578 149.16 186.008C156.523 146.997 178.441 156.1 211.647 157.297C250.439 158.693 259.802 130.005 218.723 121.787C205.616 119.165 187.588 122.479 176.206 114.133C169.471 109.2 160.213 92.5242 176.153 93.8146Z" fill="black"></path> </svg> 