<?xml version="1.0" encoding="UTF-8"?> <svg xmlns="http://www.w3.org/2000/svg" width="146" height="119" viewBox="0 0 146 119" fill="none"> <path fill-rule="evenodd" clip-rule="evenodd" d="M137.74 104.175C125.359 88.038 112.977 71.9008 100.597 55.7674C112.048 47.1882 144.623 29.9329 145.91 13.9672C147.994 -11.8786 113.442 11.5151 105.679 17.521C99.3027 22.4545 89.9779 32.7579 81.1125 32.5798C69.171 32.3513 61.7773 17.1155 54.1411 9.92649C35.2388 -7.86191 4.70664 -1.31619 23.9554 26.142C34.8507 41.6796 59.5942 58.5683 39.2402 76.4693C29.8501 84.733 -26.6696 111.466 15.3668 118.29C41.3917 122.509 57.1318 72.7672 82.096 90.4583C90.1295 96.1545 92.4098 104.31 97.6533 110.58C110.319 125.724 125.142 112.6 137.74 104.175Z" fill="black"></path> </svg> 