<?xml version="1.0" encoding="UTF-8"?> <svg xmlns="http://www.w3.org/2000/svg" width="249" height="248" viewBox="0 0 249 248" fill="none"> <path fill-rule="evenodd" clip-rule="evenodd" d="M156.361 198.96C177.001 172.995 191.535 122.756 155.838 102.455C140.895 93.9578 121.961 94.1696 106.593 101.259C88.7744 109.482 80.5921 129.445 104.411 136.331C120.896 141.093 140.242 130.443 134.28 158.706C130.567 176.294 109.432 196.987 90.4826 191.479C47.7678 179.073 69.2345 105.13 85.6375 80.7686C118.183 32.4143 169.049 65.857 182.07 111.092C185.437 122.778 186.35 153.336 199.593 159.22C217.155 167.03 221.075 143.361 222.423 131.565C232.306 44.8493 103.035 -18.7465 48.846 56.9453C24.2418 91.3201 17.8439 149.337 44.6894 184.227C69.8595 216.938 126.498 236.527 156.361 198.96Z" fill="black"></path> </svg> 