<?xml version="1.0" encoding="UTF-8"?> <svg xmlns="http://www.w3.org/2000/svg" width="25" height="24" viewBox="0 0 25 24" fill="none"> <path d="M21 9V21C21 22.1046 20.1046 23 19 23H3C1.89543 23 1 22.1046 1 21V5C1 3.89543 1.89543 3 3 3H16" stroke="black" stroke-linecap="round"></path> <path d="M9.24884 15.4518L7.20718 13.4101C6.98166 13.1846 6.61603 13.1846 6.39051 13.4101V13.4101C6.16499 13.6356 6.16499 14.0012 6.39051 14.2268L9.24884 17.0851L23.9417 1.22142C24.151 0.995419 24.1443 0.644385 23.9265 0.426561V0.426561C23.6945 0.19458 23.3155 0.204248 23.0957 0.447753L12.3405 12.3601L9.24884 15.4518Z" fill="#C3C3C3"></path> </svg> 