<?xml version="1.0" encoding="UTF-8"?> <svg xmlns="http://www.w3.org/2000/svg" width="740" height="256" viewBox="0 0 740 256" fill="none"> <path d="M719.985 35.7065C697.265 34.0306 674.58 31.5551 651.811 31.5551C631.337 31.5551 611.291 35.9283 590.918 36.7444C555.803 38.1511 520.485 38.0417 485.348 38.0417L484.58 38.0417C450.333 38.0416 415.848 38.0414 381.669 40.8958C355.509 43.0806 329.17 40.942 303 40.3121L302.415 40.298C279.781 39.7531 257.192 39.2093 234.542 39.2093C207.868 39.2093 181.433 36.6597 154.738 37.7823C120.974 39.2022 87.2281 35.8801 53.4705 35.7066M26.632 223.078C28.15 191.492 45.1976 137.972 47.5968 106.351C48.617 92.905 53.7967 81.5088 52.7319 68.3678M665.535 225.885C620.074 224.906 538.177 219.188 492.742 221.044C407.902 224.511 323.044 226.384 238.199 229.039C173.147 231.074 85.0578 235.328 20.0132 235.328M673.111 207.88C682.841 180.227 704.31 54.9669 713.07 26.9319M55.6093 122.704C60.4327 103.339 66.1552 84.1881 72.3099 65.7395M50.9026 167.145C62.7005 146.843 74.7147 126.483 85.5726 105.065C90.2111 95.9148 92.9139 84.7574 97.3517 75.3356C98.7298 72.4095 108.161 54.2244 109.832 55.8655M51.3537 219.386C68.9148 187.041 81.1714 150.303 95.4146 115.101C99.68 104.56 104.258 98.4841 110.174 90.3918C117.014 81.0352 123.499 68.3534 130.371 60.0613M186.476 219.386C204.037 187.041 216.294 150.303 230.537 115.101C234.802 104.56 239.381 98.4841 245.296 90.3918C252.136 81.0352 258.622 68.3534 265.493 60.0613M309.825 219.386C327.386 187.041 339.643 150.303 353.886 115.101C358.151 104.56 362.73 98.4841 368.645 90.3918C375.485 81.0352 381.971 68.3534 388.842 60.0613M442.33 219.378C459.892 187.034 472.148 150.295 486.391 115.094C490.657 104.552 495.235 98.4763 501.151 90.3839C507.99 81.0274 514.476 68.3455 521.348 60.0535M581.703 217.364C599.548 184.91 634.004 55.3143 648.487 20.021M80.1883 220.384C87.5641 210.666 94.8151 200.785 101.315 189.693C110.506 174.007 116.941 154.849 124.436 137.516C132.109 119.773 141.532 103.909 148.944 85.9865C150.669 81.8143 153.171 78.2953 155.511 74.8256C158.367 70.589 161.255 63.7313 164.511 60.767M215.311 220.147C222.578 210.47 229.722 200.63 236.124 189.575C245.176 173.943 251.505 154.825 258.882 137.538C266.434 119.841 275.715 104.032 283.008 86.1547C284.706 81.993 287.171 78.4882 289.476 75.0319C292.29 70.8116 295.132 63.9714 298.341 61.025M341.265 219.893C348.424 210.258 355.461 200.459 361.765 189.442C370.678 173.864 376.9 154.786 384.159 137.545C391.59 119.894 400.729 104.139 407.905 86.3073C409.575 82.1561 412.003 78.6655 414.273 75.2225C417.045 71.0185 419.841 64.196 423.004 61.2673M472.467 219.885C479.626 210.251 486.663 200.452 492.966 189.434C501.879 173.856 508.102 154.779 515.361 137.537C522.792 119.886 531.93 104.131 539.107 86.2994C540.777 82.1483 543.205 78.6577 545.475 75.2147C548.246 71.0107 551.043 64.1882 554.205 61.2595M624.797 218.392C633.71 202.814 647.722 154.676 654.981 137.434C662.411 119.784 672.879 66.8388 680.056 49.007M129.988 222.365C141.419 203.354 152.841 182.851 162.143 161.509C172.2 138.437 181.702 114.77 193.973 94.1971C198.735 86.2147 202.124 75.4813 208.458 70.1747C210.574 68.4022 213.876 66.7324 215.74 63.9431M265.123 222.112C276.383 203.166 287.634 182.729 296.792 161.442C306.692 138.43 316.044 114.82 328.133 94.3176C332.823 86.3625 336.157 75.6505 342.402 70.3779C344.489 68.6167 347.745 66.9643 349.582 64.1855M388.45 222.358C399.881 203.346 411.303 182.843 420.605 161.501C430.661 138.429 440.163 114.762 452.435 94.1893C457.196 86.2069 460.586 75.4735 466.92 70.1669C469.035 68.3943 472.337 66.7246 474.202 63.9353M520.963 222.112C532.224 203.166 543.475 182.729 552.632 161.442C562.532 138.43 571.885 114.82 583.974 94.3176C588.664 86.3625 591.998 75.6505 598.243 70.3779C600.329 68.6167 603.586 66.9643 605.423 64.1855" stroke="black" stroke-width="10" stroke-linecap="round"></path> </svg> 