<?xml version="1.0" encoding="UTF-8"?> <svg xmlns="http://www.w3.org/2000/svg" width="653" height="300" viewBox="0 0 653 300" fill="none"> <path fill-rule="evenodd" clip-rule="evenodd" d="M227.876 295.486C238.384 291.202 247.768 284.045 254.62 274.906C257.003 271.724 257.625 268.372 257.122 265.301C256.559 261.852 254.517 258.722 251.734 256.628C248.944 254.526 245.451 253.483 242.077 254.016C239.147 254.474 236.223 256.08 233.915 259.41L233.434 260.076C229.356 265.597 224.043 270.118 217.989 273.041C212.158 275.853 205.638 277.163 198.882 276.401C186.028 274.951 177.162 267.994 167.742 258.544C166.58 257.353 165.411 256.125 164.234 254.874C163.494 253.742 162.466 253.009 161.326 252.632C160.053 252.203 158.618 252.232 157.308 252.691C156.035 253.127 154.903 253.971 154.148 255.089C153.423 256.147 153.016 257.457 153.149 258.966C154.007 268.749 159.128 277.489 166.395 284.349C174.461 291.971 185.162 297.24 195.234 299.09C206.334 301.125 217.642 299.667 227.876 295.486ZM190.002 144.463C178.191 151.641 160.209 168.38 172.907 186.178C187.856 201.874 209.383 183.884 219.987 175.744C229.822 169.439 240.871 185.66 231.746 193.023C155.103 249.79 124 146.343 184.03 136.027C190.638 134.887 193.095 142.243 190.002 144.463ZM327.349 78.4304C326.047 62.2329 301.382 58.5542 298.933 74.583C296.735 88.9394 299.325 102.127 305.785 115.055C311.964 127.406 327.49 121.648 328.667 110.4C330.235 95.3258 328.163 88.5028 327.349 78.4304ZM139.636 71.2589C136.202 66.7551 131.237 63.6796 125.287 65.4179C106.705 70.8497 112.181 97.2425 118.708 110.082C122.253 117.06 133.716 118.829 138.896 112.687C147.34 102.674 151.38 82.6685 140.65 72.8033C140.361 72.2935 140.036 71.7784 139.636 71.2589ZM306.044 7.55509L303.114 7.04075C294.034 5.46969 282.741 3.96007 276.318 11.2633C272.914 15.1358 271.737 22.3332 276.318 26.04C284.376 32.5618 293.279 30.0346 302.929 30.5867C310.884 31.0433 318.528 32.3605 326.195 34.5517C343.001 39.3581 356.699 48.1318 371.055 57.7668C372.942 59.0301 374.866 56.6198 373.963 54.8571C365.675 38.6181 349.617 25.2785 333.529 17.1472C324.944 12.807 315.546 9.20608 306.044 7.55509ZM156.575 0.279956L154.333 0.740267C129.883 5.85232 98.121 16.0645 86.5397 40.087C86.1031 43.4837 86.5693 44.2119 86.9468 44.6878L87.0725 44.8461C87.3834 45.2524 87.6349 45.8119 89.1076 46.2744C89.5146 46.1767 89.929 46.0738 90.3434 45.9643C95.6494 44.5731 99.8453 42.6564 103.915 40.668L108.319 38.496C113.432 35.9881 118.59 33.5712 124.059 31.787C135.729 27.9796 147.725 25.2985 159.913 23.8666C162.555 23.5565 165.093 22.6648 167.106 21.1359C169.007 19.6855 170.458 17.677 171.124 15.0071C171.982 11.5526 171.738 8.93667 169.888 5.81971C168.489 3.47903 166.499 1.85618 164.205 0.924492C161.874 -0.0249525 159.217 -0.249158 156.575 0.279956Z" fill="black"></path> <path fill-rule="evenodd" clip-rule="evenodd" d="M8.4459 25.3926C9.73353 25.178 11.0212 24.9767 12.3088 24.7872C13.3152 24.2167 14.4993 23.7771 15.8683 23.5122C19.006 22.7167 22.114 22.1801 25.2221 21.8908C69.8305 11.848 173.026 26.1075 177.289 64.1881C191.49 68.9324 203.781 64.6839 220.247 65.1065C232.783 12.7035 449.446 20.1 459.865 51.6936C459.902 51.6825 459.946 51.6729 459.983 51.6603C469.996 48.5604 484.759 49.3078 496.215 48.8172C520.687 48.3043 545.182 50.4859 569.123 55.649C613.954 62.7762 675.139 71.1199 643.96 127.124C643.953 127.131 643.949 127.146 643.94 127.153H643.936C638.563 132.659 629.443 128.226 629.104 120.767C639.587 94.2299 615.91 91.0478 597.693 83.4212C552.365 67.1304 506.212 64.8719 459.332 69.9114C455.81 74.0651 450.459 77.6875 444.798 79.5835C413.458 84.788 429.976 108.046 410.158 111.428C413.799 192.512 315.399 236.772 258.38 183.469C235.617 161.209 230.185 128.226 224.909 98.4924C222.119 97.8634 220.343 96.3389 219.307 94.3187C212.595 87.6141 208.384 81.4239 195.108 79.5835C181.84 77.7438 171.62 81.4365 170.236 82.5672C169.889 83.2695 169.519 83.9733 169.082 84.677C168.475 85.7264 167.646 86.5633 166.714 87.2219C179.82 167.965 117.162 219.027 53.9053 177.149C26.421 151.285 20.6118 111.687 19.4648 76.3422C15.7425 74.0932 13.3819 69.7345 14.6695 64.2539C16.4455 56.6998 12.2792 50.1588 5.64124 46.8746C-2.98739 42.6092 -1.45556 27.0332 8.4459 25.3926ZM280.248 63.6982C288.099 61.9703 291.451 74.0807 283.578 75.8123C277.998 77.0393 273.269 79.8528 270.08 84.62L269.739 85.138C265.455 91.958 254.621 85.6627 258.935 78.7968C263.79 71.0695 271.33 65.6578 280.248 63.6982ZM50.2866 56.1885C53.0543 54.2378 57.2428 55.686 58.8486 58.4426C60.6173 61.4774 59.4628 64.8563 56.8654 66.8418L56.6063 67.0357C54.2235 68.7126 51.9072 71.7178 51.6186 74.797L51.5964 75.1818C51.2856 83.2406 38.7645 83.2813 39.0754 75.1818C39.3788 67.2592 43.9669 60.6397 50.2866 56.1885Z" fill="black"></path> </svg> 