<?xml version="1.0" encoding="UTF-8"?> <svg xmlns="http://www.w3.org/2000/svg" width="499" height="488" viewBox="0 0 499 488" fill="none"> <path fill-rule="evenodd" clip-rule="evenodd" d="M55.0861 116.813C62.6013 112.858 70.2648 109.21 77.9029 105.501C94.0792 97.6345 110.01 89.2362 126.37 81.7525C133.777 78.3665 141.513 76.2077 149.118 73.3639C157.197 70.3474 164.919 66.3627 172.673 62.6142C188.972 54.7277 205.632 47.9326 222.557 41.5264C227.741 39.5643 232.932 37.6351 238.133 35.7127C242.124 34.239 246.979 31.4086 251.128 30.9231C257.711 30.1513 262.656 36.8633 267.142 40.9014C291.347 62.6872 308.438 94.9871 318.834 125.53C324.509 142.198 327.087 159.407 330.112 176.69C333.214 194.401 336.507 211.737 336.63 229.747C336.753 248.058 338.632 266.108 337.823 284.462C337.523 291.307 338.755 303.616 334.992 309.584C331.168 315.628 321.596 317.316 315.44 319.55C281.757 331.761 248.11 344.908 213.939 355.655C178.388 366.828 142.908 378.19 107.45 389.688C108.896 379.603 110.584 369.525 111.719 359.403C112.782 349.871 111.987 340.006 111.904 330.427C111.723 309.378 111.033 288.445 106.807 267.758C99.129 230.193 86.7193 193.207 65.916 160.781C61.0396 153.184 55.227 146.256 49.4325 139.357C47.3612 136.889 40.4208 131.048 40.6666 127.25C40.9955 122.271 51.493 118.705 55.0861 116.813ZM459.244 112.732C467.016 113.088 472.048 114.874 472.587 123.196C473.277 133.803 473.129 144.546 473.509 155.176C474.239 175.509 474.969 195.848 474.434 216.197C473.494 251.843 469.702 287.436 458.785 321.502C453.511 337.968 447.196 354.155 440.375 370.038C433.76 385.452 424.405 399.311 416.127 413.828C412.049 420.967 407.477 426.769 401.856 432.766C399.195 435.611 397.973 437.126 394.21 437.614C390.393 438.102 385.589 437.115 381.757 436.84C363.723 435.542 345.699 433.753 327.636 432.882C309.732 432.021 291.748 432.777 273.866 431.946C265.465 431.552 257.548 428.822 249.289 427.492C240.967 426.151 232.559 425.562 224.191 424.618C219.878 424.13 219.983 425.15 219.329 421.228C218.978 419.138 219.578 416.438 219.694 414.298C219.907 410.177 220.121 406.053 220.37 401.935C220.594 398.255 219.85 391.792 221.339 388.307C222.669 385.21 225.518 384.671 228.485 383.858C245.139 379.289 261.228 373.631 277.246 367.172C293.592 360.585 310.133 354.364 326.291 347.323C333.257 344.29 341.112 341.51 346.39 335.788C350.717 331.092 353.204 325.059 355.116 319.055C365.642 286.03 362.338 247.968 359.255 213.948C356.085 178.978 351.085 143.089 338.278 110.214C378.576 110.214 418.982 110.882 459.244 112.732ZM9.44906 142.966C20.6405 147.16 27.6931 156.936 34.2142 166.358C42.3295 178.106 49.9892 189.984 56.3477 202.803C69.7008 229.737 78.5173 259.416 83.5455 289.016C88.3569 317.269 90.7427 348.779 85.2084 377.123C83.7264 384.703 79.862 390.784 77.7004 397.966C76.2472 402.792 77.2593 409.808 78.5679 414.605C80.444 421.484 86.9326 419.138 92.3368 418.025C100.228 416.398 108.119 414.79 115.999 413.127C145.706 406.859 175.123 395.953 205.368 393.748C202.791 401.791 201.352 409.089 196.151 415.982C191.289 422.431 184.811 428.02 182.013 435.788C179.682 442.262 179.233 451.325 181.605 457.896C184.095 464.793 190.193 464.891 196.588 465.668C214.568 467.848 232.263 470.808 250.391 471.799C254.288 472.009 258.177 472.446 262.024 471.708C265.122 471.112 267.294 470.187 270.424 470.765C274.571 471.528 278.225 473.527 282.577 473.971C286.673 474.391 290.801 474.261 294.908 474.105C310.086 473.538 324.932 475.121 340.129 473.639C344.557 473.209 352.875 470.696 357.014 473.227C361.388 475.902 357.961 481.299 360.137 485.011C363.007 489.891 372.861 487.39 377.625 487.126C384.429 486.753 390.462 485.55 396.556 482.412C408.883 476.068 420.024 467.624 429.086 457.09C438.575 446.069 445.454 433.2 452.239 420.414C459.317 407.09 466.409 394.073 471.762 379.917C477.228 365.455 482.589 350.536 485.687 335.365C488.781 320.215 490.74 304.827 493.661 289.634C496.708 273.785 497.243 257.633 498.05 241.555C498.885 224.884 499.25 208.504 498.205 191.83C497.182 175.452 495.374 159.387 493.455 143.112C492.963 138.952 493.216 134.644 492.555 130.523C492.107 127.756 490.664 125.128 490.505 122.318C490.187 116.73 495.31 113.137 495.179 107.294C494.868 93.7197 480.435 88.6673 469.706 85.4212C455.76 81.2005 440.201 78.656 425.619 79.7036C394.246 81.9585 362.172 82.2513 332.415 93.7063C316.994 67.2773 302.629 38.6064 277.394 20.07C274.549 17.9744 271.462 16.5477 269.618 13.4577C268.042 10.8066 267.348 8.14901 265.244 5.76106C260.064 -0.113017 253.68 -0.841402 246.433 0.695257C230.658 4.03463 215.588 7.69354 200.633 13.667C193.993 16.3181 186.947 17.5652 180.278 20.1563C173.869 22.6444 167.738 25.7676 161.575 28.8041C148.092 35.4564 134.146 41.1042 120.673 47.8097C93.6128 61.2803 66.8632 75.3994 41.9535 92.6024C29.9234 100.914 16.1292 109.509 5.92823 120.059C1.43863 124.706 -0.596595 130.566 0.151673 136.979C0.928858 143.648 4.34494 141.05 9.44906 142.966Z" fill="black"></path> </svg> 