<?xml version="1.0" encoding="UTF-8"?> <svg xmlns="http://www.w3.org/2000/svg" width="371" height="400" viewBox="0 0 371 400" fill="none"> <path fill-rule="evenodd" clip-rule="evenodd" d="M210.988 379.404C214.682 380.154 218.375 380.9 222.067 381.651C216.535 384.687 213.701 385.806 210.988 379.404ZM195.734 384.613C194.516 381.57 204.584 380.767 206.294 380.411C204.375 386.505 199.766 382.752 195.734 384.613ZM223.004 373.78C225.141 376.145 227.276 378.509 229.413 380.873C221.753 378.559 226.357 379.133 222.086 381.639C220.691 378.979 221.056 376.033 223.004 373.78ZM165.918 369.042C127.557 366.516 92.2726 340.422 70.3933 309.649C57.8239 291.965 51.7008 273.278 48.2626 252.065C46.9368 243.884 47.5522 233.802 45.4393 226.103C43.8118 220.176 43.6105 220.5 37.54 216.576C41.0919 213.538 44.2397 214.545 45.6538 209.643C47.417 203.526 43.5472 201.948 38.9424 200.058C41.8643 195.716 43.4742 193.853 44.6853 188.765C44.6462 188.926 43.8626 184.308 43.845 184.508C43.9248 183.627 46.0556 177.983 46.3074 176.302C47.3479 169.404 46.7797 161.799 48.9573 155.18C50.8561 149.392 58.328 143.391 50.6697 138.82C61.403 136.574 62.8057 121.037 66.9988 113.016C73.551 100.483 84.7836 89.262 96.253 81.3015C108.484 72.8126 120.951 68.2287 134.223 62.6804C143.497 58.8039 154.922 43.7102 166.198 48.9881C162.474 51.5839 158.116 51.64 155.013 55.3073C160.525 56.8747 166.382 57.1469 172.064 57.1891C174.848 57.2114 183.363 58.9289 185.604 58.0644C190.191 56.2996 189.209 50.3079 195.717 52.3847C189.788 60.7487 203.854 63.5634 207.925 57.3295C204.55 55.3759 201.124 55.1153 197.358 54.6758C209.372 45.1612 208.93 64.6454 220.193 58.0518C222.9 64.5639 225.405 68.1097 232.576 69.3034C240.555 70.6301 241.723 68.1847 247.96 73.6775C250.103 75.5675 253.836 81.3981 256.836 81.9813C262.633 83.1113 263.022 77.0752 269.058 81.0306C266.48 83.3301 262.05 91.1201 268.324 93.5693C269.575 94.0609 269.724 90.869 272.721 92.5427C277.155 95.0225 281.599 97.9053 281.962 103.589C291.864 96.961 298.549 124.706 302.594 131.325C306.645 137.959 309.593 143.69 311.772 151.166C313.95 158.634 316.23 158.552 322.096 164.035C315.737 165.931 317.488 167.207 317.316 172.094C319.447 172.815 319.9 173.916 318.673 175.396C317.818 176.792 317.601 178.326 318.014 179.996C318.415 182.576 319.349 185.403 319.854 188.089C321.043 194.393 322.914 200.762 324.068 206.949C324.662 208.483 325.519 209.853 326.642 211.07C325.68 211.877 324.717 212.687 323.752 213.491C324.029 216.839 320.034 217.937 325.298 221.026C319.918 223.388 323.559 226.189 322.786 230.112C322.077 233.69 319.959 234.678 319.038 238.037C317.853 240.366 318.088 242.548 319.739 244.59C318.597 247.098 317.509 249.63 316.473 252.183C315.028 256.793 314.63 261.953 313.716 266.682C313.139 269.822 312.51 272.954 311.832 276.072C308.441 276.869 307.56 278.665 309.189 281.456C307.51 284.636 307.757 285.38 304.483 288.809C297.062 296.576 291.435 303.268 285.262 312.412C258.423 352.153 212.923 372.14 165.918 369.042ZM311.176 349.197C327.669 330.341 345.723 304.756 354.165 283.39C358.447 272.559 366.909 256.845 367.794 244.508C368.004 241.584 367.459 238.716 367.717 235.83C367.916 233.601 369.808 232.015 369.693 229.544C369.612 227.816 365.869 228.405 365.838 226.558C365.78 222.694 368.936 219.578 370.67 216.479C359.886 212.852 375.406 206.421 362.816 200.418C376.04 187.383 367.872 164.954 363.819 149.395C362.619 144.78 360.52 142.933 358.44 139.054C356.506 135.443 356.717 135.002 355.871 130.795C353.767 120.317 350.527 111.301 343.961 102.58C332.931 87.9289 317.916 75.5008 305.489 61.9917C291.6 46.8932 275.259 34.0815 257.458 24.0289C193.092 -12.3095 111.012 -8.48463 55.8744 42.7143C-31.6955 124.035 -9.8736 282.092 76.5327 356.199C143.293 413.451 250.942 418.071 311.176 349.197Z" fill="black"></path> </svg> 