<?xml version="1.0" encoding="UTF-8"?> <svg xmlns="http://www.w3.org/2000/svg" width="1877" height="1341" viewBox="0 0 1877 1341" fill="none"> <path fill-rule="evenodd" clip-rule="evenodd" d="M1669.68 792.687C1628.69 844.707 1559.01 852.926 1497.13 852.417C1459.96 852.108 1422.73 849.309 1386.3 841.733C1366.66 837.646 1347.15 832.234 1328.17 825.732C1315.63 821.436 1296.97 819.29 1291.64 805.849C1277.57 770.391 1287.92 725.92 1293.71 689.928C1296.66 671.62 1298.88 653.204 1301.74 634.883C1303.58 623.159 1304.45 610.191 1309.36 599.224C1315.11 586.377 1322.37 588.942 1334.53 592.49C1351.28 597.384 1368.48 599.417 1385.71 602.049C1427.74 608.471 1464.41 621.422 1502.61 639.779C1540.38 657.926 1577.03 675.842 1610.72 701.077C1627.79 713.868 1642.5 727.749 1656.2 744.048C1666.79 756.641 1682.59 776.299 1669.68 792.687ZM1490.52 1023.74C1490.19 1029.34 1425.96 1012.43 1417.51 1010.54C1362.04 998.091 1305.48 983.914 1253.12 961.424C1204.25 940.434 1161.19 916.418 1122.73 879.124C1104.81 861.74 1088.68 843.434 1073.25 823.939C1065.52 814.167 1054.95 815.301 1046.33 807.035C1038.57 799.594 1032.62 793.783 1035.05 782.661C1054.43 787.771 1090.22 819.892 1110.31 803.671C1121.77 794.426 1105.88 784.767 1098.55 779.411C1084.77 769.336 1072.98 756.908 1062.02 743.863C1080.84 747.514 1098.35 754.563 1114.72 764.378C1122 768.738 1146.93 784.547 1152.74 769.476C1156.31 760.198 1139.4 748.539 1134.13 743.405C1121.18 730.803 1107.21 716.09 1100.34 699.146C1117.33 695.202 1133.35 708.342 1144.92 719.044C1157.76 730.928 1173.51 743.398 1184.28 757.09C1189.83 764.151 1191.04 772.493 1195.38 780.109C1200.27 788.678 1208.08 796.023 1215.55 802.363C1229.93 814.582 1246.76 823.578 1264.03 831.019C1303.49 848.019 1345.79 860.051 1387.85 868.491C1408.49 872.633 1428.62 874.54 1449.57 875.242C1465.85 875.79 1473.05 880.661 1479.27 895.668C1496.08 936.278 1493.03 980.951 1490.52 1023.74ZM1026.23 906.245C1017.31 909.017 1007.71 881.06 1016.26 876.597C1024.41 872.342 1034.3 903.736 1026.23 906.245ZM886.191 872.818C883.103 883.378 881.798 895.363 874.248 903.959C867.334 895.75 866.652 880.604 873.357 872.164C877.185 867.35 889.568 861.277 886.191 872.818ZM1171.51 687.781C1171.46 688.048 1182.24 693.207 1176.98 698.846C1169.79 706.549 1170.78 691.556 1171.51 687.781ZM1216.05 601.711C1215.93 612.388 1193.33 609.81 1193.49 599.07C1193.69 585.852 1216.18 590.39 1216.05 601.711ZM1189.08 512.466C1191.32 502.689 1230.61 489.088 1229.54 506.128C1229.01 514.67 1184.34 533.252 1189.08 512.466ZM786.225 844.015C781.821 849.314 775.563 851.402 770.285 855.471C764.747 859.733 760.789 865.263 755.954 870.269C742.673 884.007 726.686 895.296 712.357 907.918C686.016 931.118 660.783 956.061 631.579 975.737C579.389 1010.89 518.867 1030.13 458.787 1046.96C453.81 1048.36 439.472 1053.99 434.548 1049.79C429.237 1045.27 431.938 1029.36 432.182 1023.34C433.178 998.669 436.053 973.706 435.742 949.072C435.613 938.952 432.651 924.569 437.927 915.31C443.819 904.971 460.268 901.945 470.441 898.055C501.368 886.227 531.159 866.276 558.478 847.799C592.059 825.082 625.974 801.99 660.534 780.786C694.391 760.011 731.739 746.099 769.507 734.233C771.256 737.913 753.235 749.752 751.174 751.411C741.294 759.37 730.545 767.621 723.211 778.127C718.017 785.566 712.693 802.397 727.03 802.828C733.98 803.037 744.255 796.31 750.558 794.135C760.967 790.54 771.694 788.017 782.583 786.376C773.222 796.689 741.492 815.214 747.266 832.365C752.866 849.009 785.265 829.587 796.416 829.587C794.589 835.39 789.993 839.486 786.225 844.015ZM403.47 890.469C382.72 897.77 361.453 901.921 340.039 906.635C319.628 911.128 300.762 914.514 279.855 911.882C250.991 908.252 219.048 896.289 215.389 863.47C211.049 824.586 238.495 788.854 262.061 760.956C290.742 727.015 322.947 696.67 357.852 669.196C392.716 641.745 430.348 617.547 469.772 597.117C499.765 581.575 533.64 572.138 565.354 560.473C571.388 558.255 588.075 550.458 593.718 556.92C598.28 562.146 592.073 570.85 589.994 575.702C585.939 585.16 585.381 594.684 584.334 604.838C579.658 650.192 574.029 695.531 571.439 741.08C570.719 753.773 569.447 767.054 570.188 779.756C570.597 786.792 574.256 795.752 571.819 802.621C567.135 815.826 545.683 824.566 534.314 830.465C513.963 841.025 492.411 848.904 471.849 859.004C449.268 870.097 427.28 882.087 403.47 890.469ZM691.223 595.778C696.919 594.995 705.45 593.442 710.527 597.135C717.148 601.949 715.412 608.647 709.296 612.139C704.467 614.9 693.164 615.654 688.393 613.149C680.265 608.885 681.641 597.097 691.223 595.778ZM722.764 700.797C718.162 708.467 701.343 713.497 702.808 699.184C704.064 686.929 731.241 686.673 722.764 700.797ZM716.521 484.733C723.92 487.6 737.346 490.054 739.54 499.577C741.581 508.44 733.188 507.854 727.13 505.414C722.148 503.412 699.954 484.579 716.521 484.733ZM1875.69 822.833C1871.37 806.007 1874.66 787.381 1872.27 770.148C1869.96 753.442 1865.79 738.091 1859.82 722.348C1846.6 687.494 1831.44 656.12 1810.01 625.531C1769.63 567.927 1722.78 517.188 1666.22 475.114C1610.38 433.578 1548.54 399.821 1483.03 376.164C1413.57 351.074 1343.65 342.342 1270.39 337.533C1248.52 336.098 1226.66 334.396 1204.91 331.631C1189.01 329.612 1169.09 327.122 1153.37 331.994C1143.49 335.057 1137.98 343.673 1148.73 349.327C1156.36 353.336 1166.35 353.816 1174.77 354.882C1164.59 387.226 1148.04 419.684 1121.8 441.956C1096.18 463.7 1061.91 471.155 1029.58 476.669C1012.05 479.657 992.421 481.97 974.619 480.68C963.363 479.868 954.582 474.654 950.04 486.252C946.889 494.312 945.398 503.154 941.242 490.986C936.329 476.6 933.917 476.691 918.632 472.605C887.372 464.25 851.534 456.626 824.262 438.554C795.969 419.806 786.13 389.477 770.334 361.235C766.428 354.255 754.645 340.127 760.665 332.127C766.172 324.813 784.075 325.543 792.274 324.78C800.927 323.975 809.633 323.941 818.315 323.603C823.344 323.41 833.461 325.472 831.436 317.955C828.384 306.626 795.676 308.078 787.555 307.894C772.45 307.556 757.137 307.905 742.108 309.567C667.593 317.813 592.406 333.06 520.299 353.392C380.397 392.836 244.902 465.52 142.804 570.232C44.798 670.746 13.7486 838.009 73.9976 966.347C105.309 1033.05 173.259 1060.45 239.128 1082.58C273.872 1094.24 310.662 1103.38 347.596 1101.17C365.319 1100.12 382.136 1095.34 399.421 1091.74C406.96 1090.17 415.539 1087.67 423.283 1088.3C429.143 1088.78 434.775 1094.16 440.273 1091.3C444.174 1089.27 445.871 1083.45 450.639 1080.96C456.366 1077.98 463.307 1076.91 469.492 1075.41C486.68 1071.23 503.323 1064.45 520.123 1058.9C537.498 1053.15 553.894 1045.75 570.563 1038.27C578.98 1034.49 598.458 1019.14 603.945 1030.37C606.444 1035.49 605.379 1045.37 605.988 1050.75C607.055 1060.15 608.309 1069.53 609.681 1078.89C612.7 1099.5 616.315 1120.02 620.018 1140.52C626.704 1177.5 635.321 1212.91 649.727 1247.7C661.23 1275.48 671.328 1306.96 692.688 1329.06C702.012 1338.71 714.734 1343.05 728.108 1340.02C743.319 1336.57 750.892 1322.74 760.127 1311.56C780.445 1286.96 813.991 1268.11 844.967 1261.33C882.897 1253.02 919.846 1265.17 956.051 1275.5C994.35 1286.43 1033.34 1296.84 1070.93 1309.97C1105.96 1322.21 1143.78 1340.29 1181.77 1338.72C1214.9 1337.35 1245.84 1310.37 1269.73 1289.81C1293.73 1269.15 1323.73 1238.91 1358.24 1241.35C1375.37 1242.55 1390.98 1250.82 1407.67 1254.18C1425.99 1257.88 1445.49 1258.4 1464.12 1259.78C1487.24 1261.48 1538.98 1255.45 1547.54 1227.61C1548.81 1223.48 1548.81 1214.98 1543.37 1213.32C1538.35 1211.81 1535.79 1217.67 1531.04 1217.4C1521.38 1216.86 1513.82 1200 1508.51 1193.47C1487.09 1167.12 1457.7 1147.47 1433.66 1123.66C1406.51 1096.79 1383.34 1064.22 1362.88 1032.11C1372.13 1029.7 1382.1 1033.7 1391.05 1035.59C1401.93 1037.9 1412.53 1040.68 1423.24 1043.64C1435.06 1046.89 1447.04 1049.13 1459.02 1051.61C1467.97 1053.45 1479.84 1054.01 1487.91 1058.5C1494.96 1062.42 1498.9 1066.63 1507.64 1067.77C1516.54 1068.92 1525.68 1067.95 1534.62 1067.89C1558.79 1067.72 1582.92 1067.28 1606.98 1064.72C1692 1055.68 1782.13 1019.7 1833.26 948.282C1847.16 928.857 1858.36 907.34 1865.44 884.505C1870.97 866.676 1880.49 841.552 1875.69 822.833Z" fill="black"></path> <path fill-rule="evenodd" clip-rule="evenodd" d="M891.741 205.184C876.609 209.882 858.726 204.354 850.029 190.84C841.185 177.1 835.133 161.199 833.915 144.831C832.75 129.148 836.309 113.27 845.554 100.394C855.389 86.6979 875.438 71.3466 893.41 76.1026C897.196 77.1059 900.62 79.5194 904.017 81.9152C907.619 84.4556 911.191 86.976 915.133 87.7635C916.147 87.9659 916.856 88.1572 917.385 88.2974C918.099 88.4887 918.479 88.591 918.817 88.5131C919.206 88.4241 919.54 88.1016 920.255 87.4098C920.662 87.0138 921.196 86.4977 921.934 85.837C923.455 84.4779 924.924 82.4313 926.36 80.4293C927.325 79.0834 928.281 77.7554 929.224 76.6721C931.04 74.5877 932.852 72.4811 934.671 70.3701C946.36 56.8006 958.272 42.9708 972.559 32.2383C1002.16 9.99989 1041.5 -0.503559 1078.23 0.0185325C1100.57 0.33508 1121.52 6.96454 1142.34 14.5014C1144.08 15.1338 1145.84 15.7616 1147.6 16.3916L1147.61 16.3938C1164.33 22.3646 1181.58 28.5231 1194.97 40.4861C1221.6 64.2816 1228.53 103.68 1232.89 137.385C1237.61 173.887 1224.61 205.291 1211.14 237.824V237.829L1211.13 237.835C1209.09 242.787 1207.02 247.765 1205.01 252.788C1190.78 288.378 1164.64 317.21 1133.58 339.179C1117.3 350.687 1099.32 357.634 1080.5 363.724C1076.6 364.988 1072.72 366.34 1068.84 367.691H1068.84C1053.74 372.949 1038.7 378.19 1022.42 378.166C991.365 378.121 951.605 363.362 938.374 332.746C932.352 318.805 938.217 316.302 950.269 323.879C952.376 325.203 954.473 326.54 956.569 327.874L956.578 327.883C971.876 337.631 987.076 347.321 1005.04 351.608C1044.67 361.066 1092.13 346.413 1126.88 327.078C1161.61 307.749 1184.93 278.711 1200.51 242.556C1216.24 206.078 1222.35 170.135 1216.28 130.812C1211.15 97.4868 1200.92 67.0467 1170.91 48.957C1106.12 9.91025 1018.83 13.0564 961.209 63.8011C953.306 70.7571 945.495 77.5263 937.354 84.1709C932.176 88.393 926.08 93.4582 926.834 100.759C926.998 102.37 928.006 105.166 929.135 108.3C932.39 117.34 936.667 129.213 924.755 123.716C919.844 121.449 915.78 118.364 911.774 115.323C905.173 110.313 898.733 105.424 888.926 104.521C872.156 102.972 852.154 115.861 847.136 132.085C842.352 147.565 850.885 168.744 864.248 177.622C871.767 182.619 879.973 182.374 888.459 182.12C889.313 182.096 890.171 182.069 891.029 182.049C891.683 182.034 892.501 181.991 893.43 181.942C899.139 181.64 909.111 181.115 911.765 185.357C917.227 194.084 897.959 203.255 891.741 205.184ZM1093.6 274.239C1096.44 268.654 1099.25 263.13 1102.43 258.138C1103.91 255.823 1106.31 254.223 1108.62 252.69C1109.28 252.25 1109.93 251.814 1110.56 251.369C1118.33 263.484 1110.65 276.462 1104.04 287.637C1103.27 288.934 1102.52 290.207 1101.81 291.45C1099.71 295.098 1097.67 298.898 1095.61 302.731C1091.21 310.919 1086.73 319.254 1081.53 326.582C1068.87 344.44 1041.31 325.12 1040.49 306.766C1039.86 292.716 1049.81 298.831 1056.19 304.079C1062.77 309.484 1065.88 310.83 1072.77 304.926C1082.03 296.989 1087.88 285.486 1093.6 274.239ZM1019 224.751C1021.79 206.323 1009.18 220.633 1006.48 229.109C1003.15 239.566 1000.4 254.337 1005.43 264.714C1014.68 283.762 1040.74 274.684 1053.29 264.565C1059.17 259.82 1067.41 249.937 1067.13 241.699C1066.64 227.367 1055.61 235.96 1048.82 241.245C1047.96 241.919 1047.16 242.54 1046.46 243.052C1046.18 243.259 1045.88 243.479 1045.57 243.71C1039.27 248.364 1026.76 257.611 1019.43 253.035C1012.69 248.833 1015.39 238.852 1017.52 230.999C1018.15 228.657 1018.73 226.504 1019 224.751ZM1056.29 150.432C1071.18 147.467 1090.35 148.995 1103.3 157.439C1119.99 168.317 1098.05 176.15 1088.54 177.124C1077.04 178.299 1062.33 179.077 1051.76 173.429C1036.78 165.423 1041.78 153.329 1056.29 150.432ZM886.347 122.811C874.967 120.597 859.084 126.345 866.919 139.888C872.766 149.996 887.172 153.397 898.446 156.06C899.815 156.383 901.14 156.696 902.396 157.008C914.931 160.122 921.131 155.531 916.816 141.697C912.637 128.307 898.619 125.2 886.347 122.811ZM1123.99 264.465C1125.04 260.089 1131.15 243.641 1135.27 255.716C1135.91 257.571 1135.99 260.294 1136.07 263.201C1136.28 270.549 1136.52 279.089 1145.86 277.847C1150.68 277.209 1152.96 272.368 1155.08 267.884C1156.13 265.662 1157.14 263.526 1158.39 262.031C1171.13 246.853 1167.22 275.561 1163.89 282.746C1156.56 298.58 1136.02 309.491 1125.84 289.401C1122.05 281.929 1122.07 272.497 1123.99 264.465ZM1171.95 200.63C1177.86 207.497 1187.71 218.947 1194.17 210.654C1200.48 202.559 1189.63 190.015 1184.22 183.762C1183.98 183.491 1183.76 183.23 1183.54 182.983C1183.39 182.803 1183.23 182.612 1183.05 182.409C1178.16 176.701 1165.62 162.066 1159.25 173.029C1155.27 179.891 1164.61 192.827 1169.05 197.369C1169.84 198.177 1170.82 199.32 1171.95 200.63ZM998.377 335.335C992.278 328.328 992.916 315.341 996.371 307.233C999.186 300.631 1003.89 308.804 1006.62 313.535C1007.28 314.69 1007.83 315.637 1008.21 316.118C1009.43 317.691 1011.18 319.148 1012.98 320.645C1016.74 323.763 1020.7 327.051 1020.44 331.881C1019.81 343.679 1003.74 341.491 998.377 335.335Z" fill="black"></path> <path fill-rule="evenodd" clip-rule="evenodd" d="M1529.69 248.133C1523 246.315 1516.31 244.498 1509.66 242.627C1494.19 238.271 1508.81 228.47 1518 229.16C1525.12 229.692 1532.07 232.187 1538.9 234.641C1541.92 235.724 1544.92 236.801 1547.9 237.698C1577.65 246.633 1605.22 256.406 1633 270.275C1637.14 272.346 1655.4 282.163 1643.33 286.51C1636.98 288.792 1624.22 281.923 1615.29 277.114C1612.43 275.576 1609.97 274.251 1608.23 273.499C1583 262.616 1556.28 255.356 1529.69 248.133ZM1782.27 468.679C1682.78 406.92 1583.71 346.429 1471.18 311.048C1465.31 309.206 1463.49 303.972 1466.57 298.787C1469.81 293.321 1476.04 293.522 1481.57 293.699L1482.04 293.715C1496.6 294.175 1510.82 298.776 1524.58 303.231L1526.34 303.799C1557.82 313.971 1587.81 328.084 1617.37 342.834C1669.21 368.688 1719.1 399.969 1764.83 435.536C1774.39 442.968 1784.19 448.992 1794.58 455.07C1795.23 455.448 1795.9 455.833 1796.59 456.228C1803.01 459.914 1810.97 464.484 1813.28 471.651C1819.79 491.823 1786.93 471.575 1782.27 468.679ZM175.727 450.322C139.369 478.625 103.84 508.093 70.9696 540.393C59.2666 551.893 49.5135 565.047 39.7692 578.194C35.3072 584.213 30.8452 590.23 26.1987 596.085C25.7007 596.713 25.1516 597.447 24.5536 598.245C20.8137 603.233 15.2188 610.696 9.11453 609.871C1.34666 608.825 -0.223597 595.438 0.024068 589.592C0.872442 569.656 19.0691 550.403 32.0458 536.676C46.6433 521.24 62.2502 506.198 78.1883 492.143C95.7361 476.669 114.78 463.369 134.186 450.349C141.278 445.591 148.259 440.557 155.256 435.514C167.054 427.01 178.886 418.481 191.329 411.209C200.665 405.754 216.165 403.679 211.085 420.098C208.117 429.69 196.46 436.953 186.289 443.291C182.348 445.747 178.63 448.062 175.727 450.322ZM45.5006 411.084C65.9674 404.709 84.9446 394.812 103.922 384.915C116.287 378.466 128.655 372.018 141.432 366.545C150.62 362.608 159.942 359.006 169.262 355.405C177.646 352.164 186.027 348.925 194.313 345.444C195.093 345.114 195.938 344.803 196.807 344.48C201.147 342.874 206.071 341.05 206.658 335.934C207.463 328.851 203.33 329.062 198.281 329.32C197.957 329.336 197.625 329.354 197.292 329.367C185.785 329.885 173.617 334.988 162.119 339.811C157.372 341.804 152.737 343.749 148.31 345.301C144.369 346.685 140.422 348.035 136.478 349.383C124.126 353.61 111.81 357.825 99.7623 362.993C83.733 369.867 67.3636 376.978 52.9283 386.873C52.417 387.224 51.8834 387.582 51.3365 387.952C46.5566 391.171 40.7718 395.068 38.7042 400.385C36.6344 405.692 37.775 413.494 45.5006 411.084Z" fill="black"></path> <path fill-rule="evenodd" clip-rule="evenodd" d="M892.856 274.35C894.791 268.673 918.712 206.605 909.348 204.734C899.43 202.748 886.174 238.761 883.297 245.267C872.672 269.296 866.38 295.078 861.452 320.854C858.017 338.801 855 357.187 856.203 375.534C857.127 389.635 862.948 391.771 872.539 400.411C872.539 357.58 879.044 314.89 892.856 274.35Z" fill="black"></path> <path d="M942.944 545.807L822.205 594.564L804.111 723.386L833.422 746.266L851.3 617.468L937.568 582.569L1010.88 639.909L992.801 768.626L1027.27 754.768L1045.38 625.842L942.944 545.807Z" fill="white"></path> <path d="M929.041 759.697L911.796 766.68L897.086 755.26L915.195 626.442L880.713 640.356L862.664 769.129L906.625 803.47L958.35 782.573L976.451 653.807L947.142 630.931L929.041 759.697Z" fill="white"></path> </svg> 