<?xml version="1.0" encoding="UTF-8"?> <svg xmlns="http://www.w3.org/2000/svg" width="1260" height="1998" viewBox="0 0 1260 1998" fill="none"> <path fill-rule="evenodd" clip-rule="evenodd" d="M1102.88 1983.19C1084.16 1984.36 1065.44 1985.27 1046.72 1985.97C801.949 1995.09 557.37 1967.18 312.751 1961.07C227.565 1958.83 142.816 1959.94 57.8441 1966.78C49.5171 1967.46 39.9985 1958.49 41.0199 1949.96C56.7189 1814.4 76.3557 1679.21 86.533 1543.09C86.5404 1535.89 85.6153 1528.7 83.1431 1521.92C82.6768 1521.39 80.2564 1515.42 78.1099 1515.05C78.813 1515.58 75.6303 1514.66 77.651 1514.81C65.3715 1512.8 53.3216 1499.54 62.2333 1486.84C154.074 1346.02 279.451 1217.49 319.783 1050.24C329.316 1005.02 363.734 1002.22 400.402 983.571C411.845 976.761 439.824 957.909 444.376 944.801C455.249 897.548 436.101 851.265 492.05 832.147C528.992 821.903 594.283 813.228 631.654 824.034C677.249 839.215 673.836 890.613 700.283 925.971C713.954 946.422 737.269 974.422 758.801 977.561C769.237 979.078 776.922 957.961 787.341 959.412C949.742 998.87 1171 1268.04 1240.8 1417.04C1256.53 1463.94 1205.8 1449.8 1208.92 1496.93C1212.76 1586.35 1221.16 1700.82 1216.18 1790.35C1211.51 1842.31 1214.97 1896.76 1198.82 1946.76C1203.17 1952.04 1196.92 1957.37 1191.83 1959.66C1185.41 1970.59 1122.25 1981.68 1102.88 1983.19Z" fill="white"></path> <path fill-rule="evenodd" clip-rule="evenodd" d="M680.076 869.663C675.857 850.663 645.628 858.812 650.802 877.739C658.825 907.005 675.464 934.665 698.95 954.08C717.092 969.068 741.813 982.436 766.335 984.908C764.033 987.15 761.827 989.541 759.511 991.828C754.293 997.017 748.741 1001.84 743.02 1006.47C731.258 1015.98 719.031 1024.54 705.671 1031.7C652.334 1060.33 592.084 1066.93 532.508 1060.26C504.233 1057.1 475.537 1051.74 448.957 1041.4C436.633 1036.62 424.657 1030.32 414.08 1022.38L411.312 1020.3C405.753 1016.1 398.337 1010.18 394.866 1003.7C405.435 1006.08 418.803 994.811 426.138 988.261C434.161 981.066 440.919 971.785 445.908 962.273C455.678 943.614 460.852 919.536 452.658 899.529C452.11 898.197 450.364 898.419 450.208 899.862C447.78 923.185 441.496 945.05 424.761 962.325C417.337 969.971 408.44 976.388 398.729 980.844L397.36 981.473C393.222 983.383 388.87 985.633 387.123 989.726C386.45 989.652 385.776 989.711 385.14 989.889C384.562 990.045 384.029 990.215 383.511 990.4C384.666 988.135 385.28 985.463 385.169 982.295C384.762 970.053 367.953 969.675 365.621 980.578C366.043 979.142 366.606 980.533 365.547 980.97C365.562 980.844 365.592 980.704 365.621 980.578L365.592 980.696L365.525 980.97H365.547C365.503 981.17 365.466 981.37 365.444 981.577L365.422 981.851L365.436 981.621C365.451 981.459 365.473 981.303 365.496 981.17L365.533 980.97C365.37 981.044 365.155 981.096 364.903 981.096L364.8 981.133C364.407 981.303 363.023 981.947 362.616 982.11C359.818 983.146 356.695 983.472 353.83 984.36C347.62 986.27 342.151 989.43 338.368 994.811C335.644 998.675 334.127 1003.11 333.505 1007.71C306.03 1020.92 280.021 1038.1 258.237 1059.36C209.623 1106.79 175.723 1166.15 147.9 1227.6C133.741 1258.89 121.128 1290.84 108.782 1322.87L106.836 1327.93C93.6087 1362.36 81.9139 1397.17 79.0346 1434.18C78.7682 1437.49 79.8637 1440.61 81.7586 1443.19C81.085 1445.97 80.7371 1448.76 80.8333 1451.48C80.8481 1451.9 80.8778 1452.33 80.9148 1452.75C76.4737 1452.67 72.1215 1454.53 67.9987 1459.76C66.3259 1459.22 64.5052 1459.16 62.7288 1459.74C51.8557 1463.21 50.1088 1475.15 48.0585 1485.14C45.949 1495.47 45.0238 1506.05 45.009 1516.57C45.009 1520.34 47.1704 1525.1 50.8268 1526.71C57.703 1529.74 65.1195 1531.73 72.2325 1534.48C77.584 1536.55 82.9428 1538.5 88.3534 1540.34C85.3557 1545.57 84.3861 1552.86 82.7577 1558.39C80.2116 1567.01 78.1613 1575.66 76.4367 1584.48C64.7716 1644.47 56.689 1705.11 45.7715 1765.23C40.3164 1795.34 33.9657 1825.25 27.4966 1855.16C24.3064 1869.86 20.909 1884.54 17.2674 1899.15C15.3281 1906.94 13.315 1914.73 11.2351 1922.47C10.6281 1924.74 10.0138 1927 9.39945 1929.25L8.31138 1933.19C5.92803 1934.5 3.89999 1936.49 2.49367 1939.21C-2.65792 1949.17 0.302667 1960.38 10.1691 1965.98C20.8942 1972.08 33.6993 1966.32 39.6132 1956.42C43.773 1949.43 45.1349 1940.17 47.1851 1932.39C49.4945 1923.67 51.7001 1914.89 53.8318 1906.11C68.2726 1846.49 77.954 1785.82 85.2447 1724.93L85.7629 1720.58C89.4637 1689.23 93.0461 1657.8 95.3629 1626.31C96.5027 1610.84 97.4131 1595.37 97.9757 1579.86C98.2569 1571.89 97.798 1563.86 97.3465 1555.9C97.1466 1552.41 96.8431 1548.91 96.7395 1545.42L96.7026 1544.92C96.673 1544.57 96.6359 1544.11 96.5989 1543.62L96.562 1543.03C107.354 1546.41 118.301 1549.22 129.359 1551.6C152.874 1556.68 176.945 1559.52 200.948 1558.07C197.595 1597.84 193.236 1637.51 187.137 1676.92C181.26 1714.87 174.472 1752.74 166.812 1790.38C162.977 1809.3 158.832 1828.16 154.473 1846.96C152.127 1857.01 149.455 1866.98 147.338 1877.08C146.087 1883.08 145.694 1888.11 148.218 1893.73C145.443 1901.28 142.978 1908.86 140.558 1916.01L139.832 1918.14C135.547 1930.66 127.42 1943.45 135.909 1955.75C140.299 1962.1 147.464 1965.73 154.673 1965.95C154.799 1966.03 154.939 1966.12 155.08 1966.2C158.958 1968.28 163.429 1968.68 167.685 1967.8C174.139 1969.06 180.616 1970.28 187.107 1971.39C203.132 1974.16 219.238 1976.45 235.381 1978.37C266.105 1982.03 297.037 1984.03 327.954 1985.14C441.134 1989.22 554.446 1982.06 667.67 1984.12C725.359 1985.17 783.048 1987.77 840.641 1991.21C869.382 1992.93 898.14 1994.78 926.897 1996.2L935.798 1996.64C961.515 1997.87 987.251 1998.82 1012.95 1996.94C1013.45 1996.91 1013.84 1996.71 1014.11 1996.43C1022.97 1995.42 1031.88 1987.25 1031 1977.82C1027.16 1937.65 1023.33 1897.48 1019.49 1857.29C1012.65 1785.69 1005.76 1714.09 998.782 1642.51L997.774 1632.16C995.431 1608.05 993.193 1583.87 992.058 1559.65C997.781 1559.25 1003.49 1558.73 1009.2 1558.1C1071.05 1551.33 1130.35 1532.61 1187.28 1508.03L1189.59 1507.03C1194.72 1504.79 1200.33 1502.55 1206.09 1500.16C1205.99 1511.1 1206.35 1522.05 1206.4 1532.87C1206.48 1550.85 1206.34 1568.82 1206.29 1586.78C1206.18 1623.79 1204.77 1660.82 1202.93 1697.77C1199.69 1763.03 1195.89 1828.21 1190.14 1893.31C1188.68 1909.69 1186.71 1926.04 1185.32 1942.42C1184.49 1952.07 1186.48 1960.11 1195.31 1965.18C1199.66 1967.68 1203.02 1966.64 1207.34 1964.62C1217.88 1959.68 1218.17 1947.99 1219.18 1937.83C1219.94 1930.16 1220.65 1922.49 1221.33 1914.81C1222.8 1898.43 1224.07 1882.05 1225.1 1865.64C1229.18 1800.44 1230.37 1735.3 1227.56 1670.02C1226.25 1639.49 1224.36 1608.89 1221.86 1578.41L1221.27 1571.37C1219.21 1547.02 1217.88 1521.46 1213.61 1496.94C1230.83 1489.3 1247.89 1479.59 1255.8 1463.44C1266.05 1442.48 1254.78 1424.55 1238.72 1412.22C1238.88 1410.14 1238.72 1408.07 1238.28 1406.19C1233.67 1386.21 1225.95 1366.47 1218.49 1347.42C1210.97 1328.27 1202.66 1309.42 1193.53 1290.98C1156.88 1217.09 1106.8 1149.57 1047.12 1092.69C1017.47 1064.45 985.021 1038.33 950.384 1016.43C933.214 1005.6 915.606 995.581 897.373 986.662L894.678 985.352C881.985 979.186 867.748 972.636 853.634 969.209C852.165 968.113 850.68 967.077 849.179 966.093C843.627 962.399 836.09 965.071 832.806 970.349C831.21 969.113 829.366 968.017 827.255 967.033L825.168 966.078C812.503 960.371 797.296 955.035 783.549 958.787C775.011 961.119 768.289 967.41 765.269 975.419C758.341 971.755 751.539 967.988 744.892 963.369C734.212 955.989 724.53 946.819 715.841 937.196C698.402 917.848 685.738 895.184 680.076 869.663ZM75.0822 1479.76C76.2738 1480.11 77.5248 1480.23 78.8201 1480.07C76.4737 1480.35 81.1738 1481.74 82.4617 1482.41L82.558 1482.46C84.9043 1483.8 87.2654 1485.1 89.6562 1486.35C95.2371 1489.29 100.944 1491.93 106.747 1494.42C118.182 1499.29 129.988 1503.03 142.105 1505.77C153.955 1508.44 166.39 1510 178.543 1510.25C186.67 1510.41 196.322 1510.04 204.731 1507.64C203.761 1522.39 202.688 1537.13 201.481 1551.85L184.864 1548.04C168.247 1544.23 151.653 1540.32 135.258 1535.57C122.949 1532 110.818 1527.82 98.8194 1523.32C92.5354 1520.95 86.2958 1518.45 80.1302 1515.76C77.0659 1514.42 74.194 1512.83 71.3517 1511.21L68.9239 1509.83C69.4865 1503.24 70.5153 1496.79 72.0178 1490.27C72.795 1486.83 74.1273 1483.3 75.0822 1479.76ZM1212.83 1410.29C1214.94 1417.15 1218.18 1423.54 1225.56 1425.09C1228.17 1425.64 1230.35 1425.34 1232.17 1424.45L1232.61 1425.32C1238.67 1437.79 1240.46 1450.94 1226.49 1460.53C1220.19 1464.87 1213.33 1468.62 1206.23 1471.98C1193.53 1478.03 1180.01 1482.89 1167.26 1487.83L1164.73 1488.82C1141.93 1497.77 1118.77 1505.92 1095.25 1512.74C1071.39 1519.64 1047.1 1525.17 1022.52 1528.7C1012.15 1530.17 1001.71 1531.2 991.243 1531.87C991.073 1517.79 991.151 1503.7 991.198 1489.62C994.92 1489.15 998.61 1488.65 1002.17 1488.22C1013.03 1486.96 1023.85 1485.41 1034.61 1483.49C1057.08 1479.47 1079.31 1473.92 1101 1466.81C1141.19 1453.62 1178.58 1434.77 1212.83 1410.29ZM772.21 979.031C781.342 969.364 798.809 972.85 809.832 977.543C813.164 978.964 816.527 980.408 819.716 982.14L820.334 982.487C824.05 984.627 824.031 985.9 822.217 990.163C819.858 995.781 816.574 1001.21 813.446 1006.42C800.059 1028.78 782.437 1048.24 762.309 1064.68C691.038 1122.87 588.642 1143.39 499.511 1123.9C456.729 1114.56 415.465 1095.7 383.978 1064.76L381.106 1061.91C368.412 1049.19 350.981 1030.8 352.202 1011.96C352.787 1002.9 360.181 1002.38 367.731 1000.64C370.825 999.911 373.785 998.897 376.346 997.461C374.281 1006.36 385.273 1019.59 390.957 1025.14C402.852 1036.8 417.182 1045.91 432.333 1052.71C461.17 1065.68 492.531 1071.81 523.766 1075.69C559.198 1080.1 595.4 1079.71 630.566 1073.19C661.172 1067.51 691.334 1056.76 717.669 1040.02C729.741 1032.36 741.636 1023.61 751.709 1013.43L753.848 1011.27C761.117 1003.9 769.577 994.989 773.93 985.322C775.588 985.337 777.23 985.285 778.871 985.174C780.029 985.115 780.653 983.472 779.497 982.858C778.199 982.169 776.901 981.488 775.604 980.815C775.821 980.089 776.01 979.386 776.166 978.668C776.291 978.061 775.65 977.499 775.088 977.839C774.305 978.305 773.555 978.809 772.82 979.342C772.617 979.246 772.413 979.142 772.21 979.031Z" fill="black"></path> <path d="M517.214 1292.86C420.372 1311.95 291.248 1286.49 287.213 1286.49L290.727 1474.97C291.049 1492.24 300.619 1508 315.789 1516.25L408.266 1566.56C414.722 1559.77 487.624 1524.12 523.267 1507.15C518.425 1491.87 517.214 1357.92 517.214 1292.86Z" fill="white"></path> <path d="M403.299 1340.98L339.225 1377.97V1451.88L357.523 1462.43L357.403 1388.55L403.18 1362.09L448.956 1388.55V1462.4L467.254 1451.88V1377.91L403.299 1340.98Z" fill="black"></path> <path d="M412.39 1462.44L403.241 1467.73L394.062 1462.47V1388.55L375.763 1399.11L375.793 1472.99L403.241 1488.84L430.689 1472.99V1399.11L412.39 1388.55V1462.44Z" fill="black"></path> <path fill-rule="evenodd" clip-rule="evenodd" d="M308.191 533.054C311.907 484.96 306.156 434.55 324.69 388.836C357.006 312.989 447.639 287.699 517.896 258.823C546.045 250.503 640.757 249.34 673.717 238.328C748.304 213.405 766.128 183.71 825.397 231.164C835.402 239.271 841.662 248.081 846.228 260.118L846.04 260.17C847.344 265.189 845.947 270.196 843.008 274.021C868.707 300.299 879.46 339.696 866.275 374.676C823.246 465.704 825.269 514.924 839.133 612.785C857.238 704.145 815.866 737.512 747.349 787.221C750.14 792.632 750.717 799.826 747.083 804.601C667.848 915.982 518.459 969.155 390.461 912.629C338.509 889.491 315.312 834.141 302.077 784.194C286.66 728.274 281.923 669.342 294.476 612.378C299.539 586.028 306.134 559.872 308.191 533.054Z" fill="white"></path> <path fill-rule="evenodd" clip-rule="evenodd" d="M765.209 0.215819C755.587 -1.22825 748.326 4.74049 744.869 13.154L744.692 13.607C743.581 16.47 742.345 19.2545 741.013 21.9917C716.95 10.1815 682.614 13.2162 667.381 37.1348C656.515 54.218 663.14 74.492 667.24 92.6069L669.927 104.543C664.731 107.853 660.808 113.779 660.993 119.917L661.015 120.39L662.111 137.034C658.639 133.515 655.464 129.682 652.637 125.599C650.675 122.017 648.566 118.497 646.301 115.087C632.963 95.0162 603.016 112.458 614.022 133.953C616.139 138.099 618.515 142.025 621.061 145.81C623.94 151.395 626.301 157.136 628.115 163.034C622.904 165.302 618.907 170.34 618.478 177.943C617.493 195.698 626.819 210.512 641.638 219.82C646.005 222.558 650.505 223.089 654.591 222.072C655.309 223.043 656.027 224.012 656.715 224.998C650.801 229.8 645.472 235.276 640.89 241.346C627.101 239.281 613.23 238.311 599.359 238.279C582.409 229.973 562.106 230.145 543.891 233.258C532.166 235.26 520.901 239.156 509.362 241.956C497.201 244.896 484.847 245.006 472.538 247.009C457.024 249.527 443.42 256.692 434.864 268.127C425.471 268.409 415.589 272.257 407.388 277.482C388.314 289.653 369.344 301.995 350.314 314.244C343.008 318.947 340.277 326.454 341.624 334.828L341.713 335.363L342.357 338.836L340.847 340.973C335.029 349.201 328.686 357.819 324.919 366.901C317.946 376.959 311.647 387.503 306.059 398.375C298.539 412.986 292.329 428.473 288.125 444.367C287.081 448.388 286.03 452.439 285.342 456.538C284.357 462.326 285.875 466.816 286.704 472.369C287.732 479.409 288.11 486.542 289.205 493.597C289.938 498.275 293.913 500.574 298.073 500.699C296.503 512.604 295.378 524.588 294.305 536.476C292.788 553.465 291.752 570.501 290.863 587.537C286.267 594.217 276.867 599.504 270.079 601.334C260.679 603.853 250.828 601.115 241.946 597.909C236.365 595.89 231.783 602.915 234.507 607.607C243.056 622.344 261.353 622.278 275.209 615.757C281.071 613.003 286.215 609.015 290.034 603.822C289.798 608.765 289.546 613.706 289.302 618.665L289.065 623.158C286.245 675.614 280.168 729.876 290.02 781.814C307.081 871.782 381.497 940.285 472.412 945.599C520.116 948.397 559.849 934.297 579.604 926.436C599.359 918.568 591.676 902.536 577.961 907.117C554.342 915.015 510.938 926.776 472.102 921.699C380.557 909.73 302.936 863.958 310.907 666.821C312.04 638.865 315.526 610.894 316.273 582.938C316.991 555.608 316.725 528.263 317.931 500.95L318.331 491.631C318.805 480.741 319.308 469.802 320.122 458.9C321.107 454.676 321.921 450.39 323.12 446.244C326.392 434.965 330.662 423.999 335.962 413.534C337.131 414.426 338.449 415.067 339.87 415.318C350.677 417.257 360.809 416.709 370.928 412.205C375.65 410.124 379.81 407.355 383.688 403.929C385.531 402.317 386.767 400.753 387.737 399.126C392.629 399.204 397.522 397.734 400.586 394.214C404.087 390.202 404.665 386.059 403.295 382.222L403.155 381.84L403.495 381.715C407.625 392.4 415.849 401.801 424.871 408.153C439.134 418.227 456.98 421.137 474.085 421.403C492.974 421.684 512.9 418.774 531.537 415.802C536.46 415.02 541.359 414.128 546.156 412.924C546.348 413.111 546.533 413.33 546.74 413.518C562.736 428.833 585.237 432.775 605.532 424.031C617.264 418.978 627.101 410.843 635.79 401.519C635.916 406.401 636.168 411.281 636.59 416.115L636.767 418.035C637.633 427.037 639.299 436.587 646.094 443.084C657.092 453.613 673.043 449.389 685.722 442.537C685.707 442.865 685.707 443.21 685.707 443.554C682.28 455.193 678.839 466.847 675.404 478.502L674.664 480.984C672.162 489.259 669.416 497.545 668.661 506.206C667.225 522.757 678.232 539.105 696.625 533.551C706.269 530.649 713.997 522.535 721.413 516.036L726.084 511.994C713.997 551.525 705.611 592.465 704.833 633.713C704.782 635.956 706.706 637.643 708.838 637.725C713.804 637.925 719.156 636.94 724.159 634.949C724.441 634.935 724.722 634.92 725.018 634.875C733.56 633.639 741.487 630.56 748.474 626.008C746.868 631.123 746.142 636.607 746.564 642.351C746.675 643.742 748.851 644.231 749.162 642.699C753.196 622.847 776.419 607.842 796.435 611.641C817.92 615.727 833.746 634.217 837.624 655.26C841.784 677.864 833.824 704 819.078 721.446C812.291 729.484 803.362 736.197 792.761 737.885C787.912 738.655 782.877 738.388 778.17 737.011C776.169 736.419 774.293 735.59 772.384 734.806C769.598 733.681 766.349 733.503 763.721 732.319C757.763 729.639 751.775 735.131 754.795 741.253C757.423 746.582 759.784 750.179 764.143 752.932C760.613 757.255 757.4 763.258 756.216 764.871C750.147 773.073 743.989 780.815 737.075 788.305C730.036 795.907 722.361 802.857 714.248 809.282L710.836 811.983C703.013 818.186 696.21 823.93 690.696 832.827C686.344 839.851 691.977 849.377 700.126 849.266C725.61 848.91 744.144 826.505 757.341 806.935C759.221 804.137 760.983 801.184 762.626 798.142C763.218 799.097 763.877 799.993 764.61 800.807L763.159 804.715C758.844 816.232 777.435 823.752 782.83 813.005C786.756 805.218 791.306 797.802 796.373 790.792C799.359 790.37 802.284 788.557 803.91 786.211C808.022 780.252 812.636 774.227 816.529 767.877C818.687 765.826 820.908 763.857 823.175 761.933C823.831 762.51 824.504 763.088 825.145 763.702C827.991 770.193 831.51 776.122 835.873 781.703L836.808 782.895C845.166 793.435 856.053 804.219 869.524 806.795C873.637 807.579 877.593 802.465 873.95 799.193C864.52 790.718 853.371 784.945 844.676 775.478C840.393 770.815 836.46 765.678 833.078 760.297L832.307 759.054C831.745 758.129 831.166 757.203 830.571 756.271C834.497 753.591 838.422 750.904 842.346 748.21C853.151 757.448 867.222 761.674 879.173 769.32L880.361 770.097C891.166 777.321 902.551 761.333 893.887 752.562C884.337 742.925 876.366 731.431 867.906 720.713C871.884 713.385 873.766 704.718 874.472 695.954C874.75 693.475 874.968 690.995 875.185 688.515C881.252 688.612 887.351 686.532 892.511 682.949L894.466 681.558C900.737 683.556 907.32 684.526 913.622 684.356C928.446 683.919 934.514 666.977 925.24 656.259C915.78 645.312 899.22 642.914 886.1 648.235C885.678 648.013 885.24 647.784 884.818 647.547C885.443 644.668 885.304 642.055 884.593 639.76L884.799 638.362C887.684 633.935 889.581 628.88 890.3 623.536C890.869 619.309 890.754 615.113 889.775 610.931C889.45 609.543 888.773 608.102 888.254 606.652C889.321 603.958 889.948 601.173 890.142 598.373C890.441 598.018 890.738 597.654 891.02 597.259C897.53 588.116 896.214 577.098 890.019 569.699C889.991 569.228 889.946 568.757 889.883 568.289C890.245 567.472 890.579 566.648 890.882 565.814C896.935 559.706 901.379 552.354 900.55 543.245C900.064 537.886 897.863 533.062 894.53 529.456C895.121 527.707 895.177 525.681 894.461 523.99C899.78 509.839 899.107 492.795 895.279 476.969C896.123 474.559 896.561 471.947 896.467 469.178C896.03 457.43 885.865 446.636 873.825 446.776C872.375 446.789 871.017 446.978 869.713 447.255L869.696 446.975C869.235 443.449 868.265 440.19 866.85 437.267C867.546 437.015 868.191 436.654 868.755 436.173C876.47 440.29 884.635 443.438 893.194 445.583C899.489 447.16 905.936 440.003 902.024 434.093C900.208 431.35 898.205 428.888 896.047 426.639C899.115 426.656 902.23 426.864 905.381 427.269C911.041 428.004 917.359 424.141 921.034 418.916C925.6 423.358 930.182 427.785 934.764 432.212C946.367 443.46 963.896 435.185 965.726 420.355C969.182 419.432 972.403 417.867 975.233 415.63C993.529 423.577 1013.22 427.941 1033.34 428.771C1047.79 429.365 1056.23 412.532 1049.48 400.644C1044.94 392.665 1039.32 385.501 1032.83 379.274C1042.9 382.356 1053.29 384.578 1063.91 386.001C1069.65 386.768 1077.77 382.012 1080.07 376.741C1088.85 356.467 1088.1 335.332 1077.99 315.606C1077.6 314.823 1077.16 314.073 1076.74 313.321C1075.69 310.709 1074.55 308.128 1073.31 305.593C1085.76 292.609 1086.84 273.306 1080.13 257.145C1082.82 252.781 1083.85 247.525 1082.02 242.769C1076.81 229.081 1069.31 216.441 1059.83 205.584C1060.74 203.832 1061.54 201.971 1062.21 199.969C1067.54 183.777 1061.36 164.238 1048.9 152.96C1041.07 145.858 1032.06 141.603 1022.44 138.88C1018.39 131.716 1013.18 125.255 1007.12 119.811C1006.88 119.295 1006.65 118.779 1006.38 118.262C996.938 100.46 979.737 90.9171 961.3 88.7114C960.581 81.7501 955.89 75.1019 949.072 72.9428C947.195 66.92 944.396 61.1637 940.55 55.9381C934.497 47.7096 924.443 43.8304 914.966 49.2277C909.775 52.184 904.802 55.5784 900.142 59.3333C898.049 58.3511 895.676 57.716 892.999 57.5132L892.324 57.4717L876.905 56.6894C870.447 53.8264 864.004 50.8228 857.546 47.8976C853.668 44.6905 849.336 42.0155 844.614 40.0289C839.266 37.7921 833.793 36.5249 828.304 36.1023C823.848 34.6478 819.359 33.3651 814.793 32.3637C804.066 30.0173 792.838 28.7028 781.705 28.8123C781.477 25.9294 781.363 23.0123 781.386 20.0605L781.408 18.5817C781.658 9.11712 774.105 1.56145 765.209 0.215819ZM776.012 757.44C777.544 757.773 779.093 758.032 780.64 758.225C780.172 759.379 779.702 760.541 779.249 761.696C777.998 762.399 776.731 763.073 775.464 763.702C775.84 761.57 776.059 759.431 776.012 757.44ZM856.355 733.555L857.395 735.472C857.564 735.79 857.73 736.094 857.893 736.404C855.688 736.227 853.467 736.279 851.278 736.523L851.284 736.293C851.566 736.197 851.847 736.108 852.116 735.975C853.627 735.25 855.031 734.436 856.355 733.555ZM812.931 646.185C799.096 646.992 787.375 649.116 774.793 655.171L773.712 655.696C762.596 661.218 744.203 671.417 745.75 686.043C746.194 690.203 749.207 694.585 753.966 694.259C766.986 693.364 774.432 680.226 783.252 672.024C792.149 663.772 803.08 655.274 813.854 649.597C815.376 648.798 814.777 646.267 813.12 646.185H812.931ZM875.672 453.472C878.987 453.582 877.876 456.804 876.172 454.113C876.031 453.894 875.86 453.676 875.672 453.472ZM696.721 238.339C728.119 239.164 759.717 257.71 783.24 276.456C803.701 292.764 821.37 312.162 837.015 333.07C841.04 343.482 844.496 354.112 847.416 364.82C849.339 371.89 850.543 379.04 852.153 386.173L852.654 388.36C853.919 390.726 854.859 393.271 855.544 395.901C852.693 398.76 848.995 400.808 844.923 401.779C843.611 402.092 842.521 402.77 841.659 403.667C838.382 398.195 835.517 392.42 833.85 386.297L833.789 386.014C827.489 375.69 820.646 365.688 813.31 356.029C793.075 329.356 770.79 305.046 744.003 284.819C723.693 269.488 700.985 257.474 676.84 249.668C682.754 244.898 689.46 241.125 696.721 238.339Z" fill="black"></path> </svg> 