<?xml version="1.0" encoding="UTF-8"?> <svg xmlns="http://www.w3.org/2000/svg" width="1380" height="1065" viewBox="0 0 1380 1065" fill="none"> <path fill-rule="evenodd" clip-rule="evenodd" d="M347.886 639.461C354.911 634.675 369.277 617.542 376.803 613.582C393.539 604.778 468.099 587.47 470.523 586.447C474.215 584.891 498.201 579.448 512.176 576.011C544.992 567.936 662.59 515.787 693.586 502.416C697.544 512.825 730.21 558.777 724.607 563.487C706.156 578.991 673.085 598.296 651.713 609.407C634.427 618.393 616.119 625.83 597.635 631.901C576.65 638.796 562.247 646.188 541.332 653.24C520.756 660.179 545.347 681.881 555.914 686.365C567.766 691.395 586.125 693.948 598.236 698.307C576.913 731.438 559.006 771.648 555.423 811.334C554.561 820.884 547.279 829.641 535.432 826.781C529.32 825.305 472.919 817.796 463.723 815.699C402.328 801.702 292.113 728.402 320.495 653.24C326.997 656.243 341.842 643.58 347.886 639.461Z" fill="#FFDD00"></path> <path fill-rule="evenodd" clip-rule="evenodd" d="M382.234 240.678C386.82 240.292 398.68 231.132 392.457 226.499C386.179 221.826 381.668 237.489 382.234 240.678ZM143.314 275.807C144.513 275.594 143.989 269.036 142.103 268.198C136.144 265.554 135.641 275.492 135.495 278.152C135.315 281.508 134.894 290.962 142.139 288.37C146.251 286.899 143.699 278.322 143.314 275.807ZM495.037 306.448C494.876 312.302 506.707 323.56 511.118 316.808C514.828 311.134 495.341 294.793 495.037 306.448ZM76.7398 174.407C80.1674 183.15 97.1205 171.236 97.7509 164.824C99.0434 151.692 76.5622 165.671 76.7398 174.407ZM218.177 212.098C226.072 211.449 236.46 201.415 244.074 197.666C249.226 195.13 263.245 192.106 264.769 186.347C266.096 181.342 242.31 192.054 240.279 193.006C230.949 197.376 222.536 202.358 218.177 212.098ZM810.862 142.903C817.155 138.038 824.805 134.9 832.871 135.106C836.899 135.208 845.303 137.728 845.619 130.763C846.133 119.44 810.557 133.25 804.997 135.472C806.953 137.951 808.908 140.427 810.862 142.903ZM418.298 584.226C413.681 576.562 405.379 572.131 399.134 565.594C401.423 576.329 396.263 585.878 392.718 595.678C401.247 591.86 409.771 588.044 418.298 584.226ZM1219.99 747.606C1222.54 739.094 1225.09 730.629 1228.06 722.248C1231.39 712.861 1233.04 712.051 1225.08 705.488C1218.46 717.98 1211.85 730.475 1205.24 742.97C1209.95 744.971 1214.86 746.917 1219.99 747.606ZM535.662 131.418C526.908 121.553 485.878 120.933 490.955 142.706C492.728 150.308 502.815 142.232 509.133 140.46C515.404 138.7 533.162 138.467 535.662 131.418ZM534.157 271.086C533.096 268.568 530.978 259.481 527.833 258.765C524.769 258.067 512.681 267.598 510.409 269.053C499.074 276.314 488.025 284.125 476.98 291.822C481.209 291.822 485.049 290.316 489.253 290.285C494.249 290.241 497.831 292.293 502.702 291.123C513.167 288.611 525.313 277.017 534.157 271.086ZM545.498 45.9849C546.48 41.4727 597.777 55.018 603.942 57.4984C607.3 58.8474 624.631 67.8531 620.907 54.28C618.787 46.5495 598.761 40.6565 592.344 38.5377C576.029 33.1542 558.828 29.3249 541.456 30.213C538.083 30.3842 512.535 31.858 523.203 42.1238C526.879 45.6593 540.055 44.5449 545.498 45.9849ZM556.727 665.946C566.285 670.646 576.042 674.242 586.032 677.918C590.469 679.551 597.383 683.827 602.278 682.753C606.288 681.871 607.573 675.767 609.679 671.681C617.38 656.732 626.577 644.673 637.979 632.347C632.684 628.487 605.808 645.515 599.157 648.029C592.499 650.545 586.219 653.08 579.702 656.087C573.567 658.918 561.462 661.45 556.727 665.946ZM725.948 538.517C739.877 532.216 753.079 521.043 764.502 511.038C777.618 499.551 789.377 487.513 798.979 472.648C793.201 472.943 780.444 491.523 780.301 471.294C780.227 460.975 794.373 450.811 798.763 441.24C787.842 435.075 777.832 471.908 765.301 462.98C753.229 454.378 772.277 424.8 775.947 415.468C768.866 410.758 728.522 463.475 722.683 470.22C719.031 474.443 710.394 480.064 708.333 484.989C707.105 487.922 706.929 497.226 707.523 499.923C708.759 505.562 715.017 512.316 717.803 517.568C721.33 524.216 724.401 531.125 725.948 538.517ZM1301.77 728.581C1289.73 711.584 1302.17 704.171 1311.96 690.065C1319.8 678.78 1327 666.341 1331.97 653.739C1344.39 622.221 1355.59 592.918 1361.72 559.577C1353.28 563.429 1348.01 578.088 1343.79 585.812C1338.11 596.197 1333.11 607.097 1326.8 617.159C1314.99 635.986 1303.4 656.07 1288.38 672.39C1281.57 679.786 1275.81 688.106 1267.96 694.77C1264.37 697.814 1257.51 700.313 1254.87 704.12C1252.37 707.714 1255.16 710.011 1254.21 714.304C1253.24 718.708 1248.79 723.405 1246.87 727.645C1244.36 733.215 1242.02 738.799 1239.22 744.246C1236.16 750.186 1235.33 753.292 1234.5 759.097C1233.6 765.445 1236.36 766.104 1230.82 771.952C1240.87 776.382 1250.91 780.811 1260.96 785.239C1264.35 786.736 1267.74 788.23 1271.13 789.725C1271.85 788.385 1272.56 787.046 1273.28 785.706C1276.04 783.025 1278.58 776.414 1280.16 772.872C1286.76 758.094 1294.22 743.258 1301.77 728.581ZM331.51 657.23C302.98 732.32 403.234 795.546 464.948 809.53C473.496 811.466 481.838 814 490.347 816.081C499.625 818.348 507.863 817.896 517.124 818.845C524.491 819.599 528.003 825.29 534.946 826.859C546.546 829.479 545.838 820.762 546.668 811.424C550.191 771.825 570.406 733.618 591.801 700.576C582.028 697.08 572.344 693.266 562.696 689.439C554.44 686.163 541.799 676.954 532.923 676.466C526.36 676.108 516.357 681.712 509.982 684.171C499.365 688.267 488.716 691.755 477.651 694.549C458.301 699.433 436.769 706.091 416.746 706.595C410.973 706.741 395.138 709.429 390.985 705.862C383.064 699.061 394.057 693.394 400.689 690.966C440.209 676.498 482.169 670.347 521.801 655.514C542.195 647.88 562.379 639.355 582.901 631.834C600.591 625.352 619.12 619.614 636.216 611.64C658.793 601.113 681.467 587.999 701.017 572.549C704.931 569.458 713.13 564.865 715.811 560.386C718.173 556.442 717.878 560.375 717.388 555.593C717.036 552.159 712.832 547.503 711.103 544.259C704.66 532.16 698.837 519.732 693.942 506.928C662.756 520.301 633.087 538.502 602.361 552.792C571.434 567.177 536.548 577.325 503.462 585.418C489.38 588.863 473.191 589.952 460.276 596.758C454.789 599.649 449.365 602.995 443.487 604.668C441.751 607.997 440.043 608.649 438.359 606.625C437.305 605.441 435.941 604.941 434.268 605.125C430.674 605.734 427.007 607.431 423.645 608.735C406.629 615.33 390.335 623.588 374.181 632.015C366.524 636.005 358.669 639.937 351.342 644.497C347.414 646.941 343.895 649.405 340.681 652.761C336.828 656.785 337.745 660.093 331.51 657.23ZM973.49 211.391C980.7 211.508 987.271 207.603 994.79 207.821C1006.61 208.162 1015.97 217.326 1022.83 226.164C1036.41 243.649 1032.95 264.743 1026.13 284.312C1022.86 293.663 1018.38 302.641 1012.79 310.827C1007.83 318.074 998.968 324.929 995.509 332.998C989.805 346.306 1001.31 340.647 1008.36 337.805C1017.22 334.228 1025.53 329.783 1033.05 323.795C1066.57 297.107 1092.07 260.011 1100.61 217.408C1104.77 196.622 1104.45 172.323 1089.97 155.358C1076.73 139.845 1053.87 134.777 1034.33 137.653C1013.21 140.764 994.069 149.708 976.871 161.22C971.875 164.565 967.301 168.217 962.611 171.959C956.457 176.867 952.769 176.995 954.31 184.687C955.453 190.406 958.568 196.333 960.575 201.821C964.334 212.099 962.963 214.759 973.49 211.391ZM996.477 388.591L995.017 391.084C1005.07 391.562 1014.44 382.693 1023.01 378.364C1034.14 372.737 1044.03 365.061 1053.78 357.309C1070.98 343.637 1088.41 328.229 1101.21 310.281C1129.92 270.047 1155.99 219.037 1148.16 168.025C1139.71 113.047 1091.61 91.8831 1040.36 99.1612C1017.26 102.441 996.641 112.75 975.969 123.217C965.55 128.492 956.756 135.338 947.211 141.963C942.257 145.403 937.737 145.849 937.414 151.863C937.17 156.396 945.008 166.646 947.126 170.752C973.081 144.284 1001.05 122.386 1040.25 121.033C1086.88 119.423 1114.45 163.624 1114.24 205.95C1114.04 247.459 1096.14 287.388 1067.59 317.22C1054.61 330.777 1042.24 341.656 1026.31 351.551C1018.37 356.483 1012.51 360.912 1003.63 364.187C997.354 366.505 998.008 365.283 996.406 371.096C995.044 376.028 996.434 383.469 996.477 388.591ZM743.104 952.545C742.496 960.026 740.977 967.391 739.284 974.686C738.676 977.306 735.253 985.578 735.853 988.523C736.845 993.393 735.525 990.262 739.792 992.802C744.243 995.454 749.425 995.294 754.299 996.099C757.307 996.597 768.328 1001.78 770.182 1000.96C773.423 999.532 773.321 994.483 776.876 992.483C781.721 989.754 788.861 992.092 793.431 994.226C805.65 999.923 814.045 1011.72 825.867 1018.17C846.863 1029.64 871.777 1035.98 895.2 1038.6C907.891 1040.02 920.876 1042.51 933.408 1039.54C943.282 1037.2 956.115 1037.41 961.483 1026.82C913.783 1013.71 840.978 997.657 822.119 942.933C811.866 952.226 794.732 947.222 782.343 945.939C768.712 944.528 756.532 944.855 744.066 938.644C743.154 943.527 742.875 947.58 743.104 952.545ZM320.773 613.613C343.227 614.969 364.515 604.346 378.332 586.423C381.734 582.008 385.222 577.503 387.264 572.272C387.708 570.947 388.149 569.62 388.591 568.295C390.735 564.635 389.796 562.908 385.777 563.115C383.513 560.01 377.771 558.966 379.405 553.338C380.634 549.094 385.174 549.024 389.119 547.689C387.154 544.388 385.979 542.732 383.167 539.797C375.859 546.369 362.595 559.27 357.459 544.17C354.992 536.921 359.334 529.993 358.258 523.001C357.816 520.108 354.149 512.721 352.023 510.993C340.704 501.779 324.4 505.592 312.39 511.015C304.113 514.753 302.331 516.507 300.982 525.075C299.611 533.788 298.338 542.497 296.817 551.184C301.784 548.597 302.688 543.007 305.928 538.982C307.14 541.19 308.355 543.401 309.572 545.61C311.281 544.651 312.878 544.701 314.358 545.763C316.755 549.447 315.248 554.91 314.51 558.772C322.503 558.027 325.881 566.941 317.824 570.551C309.477 574.291 305.712 564.095 305.43 557.492C302.315 561.21 299.116 559.22 296.945 561.13C294.777 563.041 293.922 567.023 293.15 571.383C291.882 578.548 288.636 588.885 291.639 596.072C296.098 606.748 310.312 612.303 320.773 613.613ZM971.43 270.725C964.001 281.055 951.334 294.576 948.684 307.056C956.868 302.256 974.17 279.155 978.627 297.556C981.186 308.119 968.062 320.705 964.838 330.932C977.743 326.687 986.936 313.393 994.988 303.133C1005.26 290.05 1015.74 272.806 1018.36 256.17C1020.48 242.709 1011.14 230.162 997.26 228.843C990.17 228.169 982.768 229.294 975.918 230.938C972.795 231.686 968.136 232.615 965.348 234.288C961.848 236.39 961.37 241.308 958.071 237.217C953.691 245.471 949.311 253.724 944.931 261.975C949.29 260.394 958.186 253.682 962.95 254.376C969.907 255.391 971.337 265.494 971.43 270.725ZM275.777 68.6601C256.299 69.2341 235.94 73.3807 217.5 79.5448C212.921 81.0768 193.603 86.5255 197.671 94.4241C200.36 99.6448 214.858 92.2675 219.241 91.0372C238.025 85.7636 257.366 82.2859 276.606 79.1121C281.265 78.3439 297.068 78.4199 297.884 72.3149C298.883 64.8658 281.278 68.6517 275.777 68.6601ZM805.891 918.286C795.333 919.575 785.196 919.094 774.628 917.8C765.734 916.713 756.678 913.072 747.829 913.072C747.829 922.542 747.186 922.602 757.18 924.628C764.156 926.043 771.231 926.838 778.28 927.824C790.692 929.559 804.471 934.43 817.034 931.927C816.731 930.282 815.768 919.186 814.466 918.088C813.733 917.471 806.956 918.297 805.891 918.286ZM635.257 217.629C638.209 219.509 644.995 227.008 648.512 227.14C647.257 218.459 637.568 203.344 626.443 208.709C623.716 210.025 617.99 216.574 620.581 219.464C621.963 221.009 631.64 217.639 635.257 217.629ZM532.324 294.856C532.431 293.343 532.541 291.83 532.652 290.318C528.57 292.717 523.516 293.853 520.615 297.719C524.098 299.262 527.579 300.807 531.063 302.352C531.483 299.853 531.905 297.355 532.324 294.856ZM853.836 525.333C873.124 532.085 890.807 541.104 905.005 556.413C917.277 569.652 923.044 592.977 926.04 610.33C933.452 653.27 919.149 693.07 909.717 734.148C904.933 754.986 897.79 775.039 891.102 795.339C885.262 813.065 880.255 831.629 872.194 848.483C865.36 862.775 856.628 876.865 850.616 891.691C847.381 899.67 842.137 927.05 829.856 918.452C826.505 927.211 825.691 926.465 829.273 932.549C831.866 936.954 840.661 943.07 844.812 946.656C855.871 956.217 869.88 964.096 882.855 970.79C906.619 983.051 932.093 992.225 956.567 1003.4C967.387 1008.35 979.12 1014.19 976.692 1028.34C974.657 1040.2 967.793 1049.2 957.084 1054.48C947.03 1059.43 932.65 1063.26 921.589 1064.81C915.027 1065.74 913.523 1063.01 908.172 1062.06C902.218 1061.01 895.27 1063.04 889.126 1062.99C861.552 1062.75 837.409 1055.81 815.125 1039.83C807.162 1034.11 795.441 1018.62 785.02 1018.62C779.693 1018.62 780.817 1021.85 776.132 1023.75C770.349 1026.09 760.385 1021.67 754.701 1020.64C742.59 1018.43 730.274 1016.18 722.209 1005.75C713.489 994.483 716.589 980.522 720.335 968.007C724.559 953.899 731.666 939.586 734.686 925.264C735.421 921.78 736.098 915.287 735.352 911.743C734.191 906.243 728.637 902.962 728.47 897.007C728.419 895.196 731.011 892.807 731.466 890.938C732.466 886.831 732.311 882.571 732.723 878.392C733.459 870.937 735.159 863.795 736.333 856.427C738.999 839.663 744.258 824.707 749.349 808.555C754.287 792.878 758.987 781.211 768.536 767.637C773.479 760.607 790.015 735.56 781.94 728.352C770.888 750.055 757.964 766.981 741.049 784.259C728.113 797.475 715.465 815.24 699.273 824.652C681.471 835.001 659.717 841.089 640.059 846.561C630.709 849.162 622.95 854.932 612.871 856C601.947 857.154 590.829 855.793 580.129 853.357C577.118 852.673 568.432 848.046 565.707 848.341C561.692 848.777 555.918 855.931 551.512 857.244C540.788 860.442 533.465 854.333 525.331 848.688C516.503 842.56 513.832 841.037 503.645 840.299C491.169 839.398 479.035 835.001 466.763 832.308C445.186 827.576 426.846 817.985 407.234 807.944C384.753 796.438 365.523 780.57 348.577 761.824C323.668 734.265 288.976 657.899 329.668 631.162C305.712 627.91 283.773 617.451 280.852 590.346C279.327 576.162 282.199 560.451 285.767 546.778C287.395 540.536 289.336 534.332 291.195 528.155C292.596 526.068 293.338 523.786 293.415 521.304C294.274 518.09 293.036 516.488 289.697 516.503C283.388 509.127 278.643 502.617 277.369 492.145C276.967 488.826 276.608 483.739 278.97 480.917C280.062 479.783 281.382 479.025 282.921 478.644C286.62 478.856 287.664 477.035 286.057 473.182C287.852 467.725 285.189 463.472 291.955 461.195C294.124 461.655 296.283 462.161 298.433 462.707C301.177 463.958 302.962 463.051 303.793 459.996C310.166 457.502 307.226 453.815 315.887 457.024C321.128 458.966 326.114 462.31 329.932 466.383C334.719 463.31 323.83 444.319 323.468 438.26C322.605 423.977 328.513 412.169 336.197 400.437C351.134 377.639 371.983 358.036 392.542 340.397C431.922 306.618 473.293 274.46 517.759 247.548C499.416 234.812 477.985 231.359 456.158 237.279C436.036 242.736 419.726 252.647 401.203 261.316C384.044 269.344 365.83 272.643 360.359 250.734C354.229 226.192 373.787 217.081 391.33 206.076C386.949 202.81 372.529 205.145 367.074 205.532C354.926 206.391 343.307 209.133 331.501 211.558C325.839 212.719 320.637 212.457 315.028 213.596C306.689 215.288 297.982 217.183 289.545 219.595C269.473 225.333 249.549 234.043 232.205 245.779C217.214 255.918 206.814 270.233 194.736 283.418C180.962 298.451 167.763 313.244 147.343 318.747C137.781 321.325 126.564 323.664 119.785 315.126C113.478 307.186 113.126 297.618 113.333 287.911C113.789 266.468 124.15 243.298 136.203 225.777C149.286 206.758 166.809 195.865 183.365 180.557C159.435 182.267 136.308 194.877 114.301 203.594C109.669 205.429 104.994 207.492 100.337 209.188C95.3721 210.999 92.0829 209.891 87.3251 210.72C76.4689 212.614 67.1429 217.188 56.5823 209.895C36.6025 196.1 56.62 168.035 70.3765 159.424C89.537 147.43 109.03 137.332 130.139 128.778C118.711 116.386 128.47 98.7015 139.004 89.9106C152.331 78.7866 169.302 72.4123 185.362 66.4576C198.061 61.7478 210.535 57.2259 223.728 54.3917C237.598 51.4133 253.815 46.8622 267.888 47.2987C281.087 47.7082 292.79 45.3835 306.158 45.0117C317.28 44.7026 328.428 44.97 339.549 44.6818C369.471 43.9089 399.503 45.9266 428.746 48.0778C405.577 -19.6558 558.191 1.26168 590.751 10.109C620.34 18.1502 654.243 27.4778 679.097 46.5573C689.627 54.6382 699.627 63.8259 708.969 73.2539C722.752 87.164 730.382 105.381 737.672 123.361C756.165 114.306 773.845 104.437 794.078 99.9463C813.33 95.6752 833.052 89.8855 852.417 86.6586C867.14 84.2044 888.511 82.5399 900.902 92.9328C914.359 104.222 921.371 121.789 929.405 136.833C967.984 100.237 1011.02 73.5379 1066.02 75.3133C1119.85 77.051 1155.24 123.519 1161.77 173.872C1168.96 229.357 1144.23 287.334 1110.72 330.301C1095.69 349.57 1080.14 368.18 1059.92 382.556C1049.89 389.682 1039.31 397.489 1028.31 403.053C1022.82 405.827 1016.83 408.333 1011.07 410.467C1008.47 411.432 1005.8 412.397 1003.1 413.052C995.38 414.923 996.878 412.425 994.009 419.177C991.681 424.66 991.967 434.093 990.969 440.11C989.83 446.987 989.153 453.96 987.491 460.744C984.608 472.502 981.607 483.972 977.998 495.455C971.164 517.187 961.967 539.09 950.703 558.915C960.256 563.062 973.634 563.48 983.843 564.738C994.892 566.096 1005.96 568.954 1017.44 572.163C1040.43 578.59 1060.98 584.017 1082.85 593.642C1105.56 603.633 1125.79 618.552 1147.65 630.426C1167.75 641.345 1188.07 655.022 1206.74 668.13C1211.19 671.248 1213.94 673.959 1217.47 677.909C1221.09 681.943 1222.24 682.733 1226.56 686.229C1228.51 687.804 1234.18 695.754 1236.41 696.045C1240.39 696.573 1239.78 693.6 1242.91 689.448C1249.44 680.781 1258.55 674.066 1265.04 665.179C1270.45 657.767 1276.1 650.264 1281.88 643.891C1295.88 628.469 1307.47 611.375 1317.42 592.888C1322.6 583.262 1328.05 574.103 1333.68 565.019C1339.28 555.975 1349.23 544.039 1360.38 544.573C1359.48 539.969 1356.64 539.202 1361.55 536.386C1364.72 534.572 1370.88 537.496 1373.32 539.337C1379.79 544.217 1380.07 553.681 1379.66 560.792C1378.61 579.115 1374.78 597.202 1369.43 614.528C1363 635.356 1354.95 653.73 1346.16 673.608C1339.17 689.443 1330.48 710.384 1313.07 717.61C1324.76 734.301 1319.15 747.901 1311.33 765.621C1305.62 778.576 1298.07 791.96 1286.58 800.533C1273.63 810.196 1259.58 801.998 1246.03 795.611C1237.85 791.753 1212.83 782.647 1217.92 770.775C1211.67 769.941 1207.74 765.401 1202.05 764.005C1196.03 762.527 1197.06 764.971 1190.69 765.889C1185.8 766.591 1178.49 762.217 1173.89 760.651C1166.21 758.038 1158.55 755.358 1150.87 752.716C1129.27 745.278 1108.04 737.955 1086.22 731.997C1045.64 720.91 1004.55 714.621 964.11 704.722C956.003 702.738 947.942 700.823 939.501 699.233C937.758 698.905 928.714 698.401 927.615 696.536C925.691 693.267 931.607 674.976 932.114 671.248C935.449 646.777 934.359 619.988 929.663 595.797C927.713 585.74 919.003 572.718 919.078 562.901C919.131 556.315 924.967 549.125 928.395 543.159C936.872 528.41 945.754 512.474 952.035 497.125C961.648 473.644 967.537 447.139 971.785 421.991C973.995 408.881 976.57 394.668 977.172 381.406C977.632 371.296 976.802 360.692 978.27 350.339C972.673 350.87 964.754 353.768 959.713 350.665C953.347 346.749 951.637 335.568 952.45 328.891C930.653 332.694 931.377 312.03 932.727 295.87C893.333 295.87 943.783 237.349 950.086 224.783C952.983 219.005 952.897 225.494 951.618 216.559C951.057 212.632 948.371 208.278 946.851 204.667C943.541 196.783 939.961 189.02 936.138 181.371C928.061 165.215 918.911 149.606 908.924 134.554C899.936 140.816 891.833 148.229 884.326 156.182C889.141 143.592 903.855 127.994 897.561 113.698C891.729 100.446 872.248 101.364 860.744 103.787C829.481 110.377 799.499 119.974 769.717 131.085C778.942 136.374 793.067 132.289 802.233 128.245C813.583 123.236 825.789 117.982 838.022 115.328C848.69 113.015 862.701 113.805 859.618 128.17C857.119 139.81 845.732 151.02 838.217 159.723C821.661 178.898 800.901 193.741 780.51 208.573C758.59 224.517 737.469 241.839 715.272 257.321C675.147 285.309 632.004 309.632 590.547 335.756C569.005 349.331 544.595 360.254 521.232 370.315C495.532 381.382 470.892 393.23 444.229 401.972C429.422 406.827 414.745 410.822 400.195 416.348C391.075 419.809 375.193 426.745 369.167 416.466C356.93 395.591 401.217 368.137 413.353 355.373C421.725 363.502 380.439 393.793 383.671 405.628C386.209 414.929 396.03 402.919 400.773 400.385C408.436 396.287 417.512 394.228 425.215 389.553C441.012 379.965 459.742 368.907 463.349 349.086C460.839 346.438 460.871 343.994 463.444 341.752C464.589 340.391 465.498 338.896 466.167 337.265C467.291 334.15 467.743 330.249 468.344 326.946C470.123 317.185 465.659 308.045 469.831 298.492C445.484 316.934 422.082 337.766 398.97 357.73C378.24 375.638 356.609 399.088 348.991 425.809C348.016 429.233 346.394 433.117 346.572 436.73C346.918 443.824 347.626 442.294 353.343 444.575C359.06 446.856 367.386 446.659 373.534 446.902C377.038 447.037 392.69 443.328 389.578 451.016C387.785 455.449 376.934 455.282 373.049 455.691C363.299 456.72 358.012 455.664 362.631 466.23C364.701 470.965 368.896 474.173 372.187 477.838C381.346 488.035 386.321 503.675 393.525 515.654C401.733 529.302 410.756 542.281 420.343 554.992C424.298 560.235 429.586 570.093 435.07 573.835C440.191 577.33 434.166 577.041 442.672 575.621C446.379 575.004 449.739 572.593 453.286 571.729C474.491 566.565 496.288 560.744 518.217 554.369C546.267 546.214 575.702 539.262 602.464 527.52C626.438 516.998 650.235 504.472 674.46 493.816C681.535 490.707 688.601 488.644 694.099 482.921C700.736 476.013 706.231 466.97 712.352 459.545C722.763 446.914 732.358 434.067 743.563 422.098C751.905 413.192 766.687 396.636 778.455 393.08C800.816 386.327 788.846 420.376 785.956 428.982C791.213 430.175 793.975 423.434 800.145 425.373C807.531 427.695 808.295 437.515 809.219 443.669C809.464 445.309 807.245 448.373 807.919 449.835C808.149 450.333 812.969 453.182 813.899 454.503C817.274 459.3 816.61 465.133 815.331 470.306C808.714 497.104 785.193 516.671 767.895 536.438C775.634 534.975 781.371 530.566 788.676 528.38C795.533 526.33 802.426 526.437 809.337 525.849C816.573 525.233 823.523 522.526 830.926 522.389C838.694 522.244 846.132 524.456 853.836 525.333Z" fill="black"></path> <path fill-rule="evenodd" clip-rule="evenodd" d="M35.7152 284.302C31.4494 287.089 30.2471 289.824 30.0998 296.255C30.0408 298.892 30.2227 308.731 33.9097 308.359C37.3697 308.012 35.7152 287.685 35.7152 284.302ZM13.6796 300.327C15.6673 279.717 23.2096 258.762 40.9525 245.92C45.3404 242.744 50.3041 242.857 55.1132 240.854C58.0034 239.65 62.5696 234.054 65.8508 234.716C77.9292 237.159 63.9749 253.203 61.9314 257.424C55.5987 270.501 56.0264 281.99 56.2155 296.097C56.3595 306.817 58.5878 324.891 53.1813 334.595C47.4183 344.927 34.9186 338.217 27.9413 332.102C19.1355 324.381 12.4849 312.087 13.6796 300.327Z" fill="black"></path> <path fill-rule="evenodd" clip-rule="evenodd" d="M225.716 361.232C225.716 372.732 235.052 364.946 234.72 356.766C234.231 344.723 225.28 352.139 225.716 361.232ZM275.353 297.654C265.135 306.841 257.252 311.996 255.283 326.124C253.792 336.825 255.274 347.424 255.337 358.204C255.444 376.272 240.848 395.268 225.143 374.556C213.686 359.449 217.795 335.694 227.138 320.51C232.04 312.545 239.038 304.665 247.123 299.701C253.203 295.964 270.308 288.613 275.353 297.654Z" fill="black"></path> <path fill-rule="evenodd" clip-rule="evenodd" d="M132.64 576.123C131.456 578.925 128.674 590.367 134.35 587.779C139.359 585.493 136.113 577.909 132.64 576.123ZM102.657 540.799C101.781 536.497 102.138 509.526 109.569 511.549C115.406 513.135 116.37 526.94 118.748 531.745C127.603 549.638 147.926 560.78 154.935 579.247C162.758 599.87 139.106 600.511 126.555 592.16C111.695 582.271 103.098 558.057 102.657 540.799Z" fill="black"></path> <path fill-rule="evenodd" clip-rule="evenodd" d="M84.437 430.213C87.6615 425.859 87.988 423.534 86.1493 419.683C83.799 422.239 84.2158 425.891 84.437 430.213ZM86.7707 449.685C69.9576 451.567 69.116 420.593 71.9949 409.958C74.288 401.488 79.2173 392.387 84.2926 385.486C85.3172 384.093 95.0374 371.579 96.9423 371.549C104.255 371.433 102.246 379.693 101.456 382.767C98.9721 392.455 97.988 400.551 98.6561 411.291C99.3738 422.783 104.818 450.067 86.7707 449.685Z" fill="black"></path> <path fill-rule="evenodd" clip-rule="evenodd" d="M850.137 181.438C826.097 201.593 803.275 223.414 777.134 241.043C764.343 249.672 750.971 257.304 738.207 266.072C731.707 270.539 725.074 274.537 717.862 277.819C711.491 280.719 707.327 281.097 712.612 274.213C716.145 269.615 724.064 266.411 728.878 263.142C736.284 258.107 743.279 252.524 751.07 248.058C764.805 240.18 778.457 233.82 791.117 224.16C802.355 215.587 813.949 207.218 824.674 198.106C829.274 194.2 844.524 176.263 850.137 181.438Z" fill="black"></path> <path fill-rule="evenodd" clip-rule="evenodd" d="M850.622 254.216C861.433 263.461 834.383 288.789 828.214 294.529C821.71 300.584 814.546 305.984 807.471 311.347C804.981 313.236 791.393 325.876 787.945 324.856C781.141 322.842 790.074 314.641 792.397 312.503C799.91 305.578 807.584 298.857 814.929 291.745C821.554 285.337 828.729 279.403 835.136 272.787C840.325 267.428 844.686 258.346 850.622 254.216Z" fill="black"></path> <path fill-rule="evenodd" clip-rule="evenodd" d="M49.6535 626.9C46.8307 620.361 41.7753 627.621 44.3382 630.887C46.7621 633.978 49.2925 628.156 49.6535 626.9ZM33.1021 613.988C34.6154 604.373 38.1125 599.03 47.1352 607.237C53.3352 612.876 65.8047 628.913 64.6214 637.656C63.0683 649.122 50.4348 645.869 43.8859 639.873C37.1731 633.727 34.2097 622.514 33.1021 613.988Z" fill="black"></path> <path fill-rule="evenodd" clip-rule="evenodd" d="M52.8743 803.225C41.8213 802.384 32.3915 793.9 27.6977 783.958C23.7484 775.598 20.0104 762.121 33.885 766.515C42.9278 769.381 77.7872 804.572 52.8743 803.225Z" fill="black"></path> <path fill-rule="evenodd" clip-rule="evenodd" d="M186.828 748.72C178.286 750.665 169.837 745.04 164.584 738.698C161.316 734.748 153.71 720.902 157.542 715.202C162.884 707.252 170.949 723.232 173.731 726.395C178.094 731.349 192.365 740.822 186.828 748.72Z" fill="black"></path> <path fill-rule="evenodd" clip-rule="evenodd" d="M194.519 532.5C187.823 529.393 181.607 525.654 178.914 518.235C177.202 513.51 175.763 499.342 183.368 499.406C192.164 499.485 212.306 531.081 194.519 532.5Z" fill="black"></path> <path fill-rule="evenodd" clip-rule="evenodd" d="M147.577 385.09C156.542 384.928 158.665 389.871 159.911 396.972C160.758 401.792 164.864 418.154 160.6 421.505C154.506 426.295 144.812 415.321 142.853 411.013C138.814 402.144 144.398 393.421 147.577 385.09Z" fill="black"></path> <path fill-rule="evenodd" clip-rule="evenodd" d="M301.621 875.674C305.986 877.659 315.917 882.062 312.122 888.895C308.154 896.04 296.763 889.096 292.507 885.973C290.726 884.666 279.408 876.11 279.882 873.241C280.879 867.143 296.481 875.101 301.621 875.674Z" fill="black"></path> <path fill-rule="evenodd" clip-rule="evenodd" d="M14.0331 429.473C17.016 436.94 20.3736 462.593 4.66613 448.741C-0.127293 444.512 -0.850738 439.232 0.800784 433.428C3.18884 425.016 6.66417 426.684 14.0331 429.473Z" fill="black"></path> <path fill-rule="evenodd" clip-rule="evenodd" d="M846.434 333.941C842.955 326.837 851.542 322.255 856.132 317.676C859.127 314.686 871.726 298.466 875.856 299.382C884.353 301.266 850.611 330.774 846.434 333.941Z" fill="black"></path> <path fill-rule="evenodd" clip-rule="evenodd" d="M147.462 848.52C155.658 847.205 157.571 856.305 162.851 860.272C165.115 861.975 172.888 863.47 171.325 867.083C167.217 876.569 147.061 854.897 147.462 848.52Z" fill="black"></path> <path fill-rule="evenodd" clip-rule="evenodd" d="M216.671 633.573C222.305 631.216 238.564 643.882 233.895 649.354C226.917 657.541 217.068 638.053 216.671 633.573Z" fill="black"></path> <path fill-rule="evenodd" clip-rule="evenodd" d="M335.417 816.785C331.311 817.193 313.982 811.746 320.402 804.452C324.91 799.329 336.89 812.147 335.417 816.785Z" fill="black"></path> <path fill-rule="evenodd" clip-rule="evenodd" d="M127.896 781.797C123.82 783.426 109.116 780.074 113.738 773.688C118.143 767.609 127.902 776.75 127.896 781.797Z" fill="black"></path> <path fill-rule="evenodd" clip-rule="evenodd" d="M248.27 809.337C253.037 808.842 256.48 811.716 257.298 816.582C251.337 817.432 249.498 816.015 248.27 809.337Z" fill="black"></path> <path fill-rule="evenodd" clip-rule="evenodd" d="M868.193 103.025C870.206 103.034 872.216 103.045 874.211 103.054C872.195 103.043 870.195 103.034 868.193 103.025Z" fill="black"></path> <path fill-rule="evenodd" clip-rule="evenodd" d="M836.597 521.964C833.586 521.967 830.577 521.973 827.569 521.976C830.58 521.97 833.589 521.967 836.597 521.964Z" fill="black"></path> <path fill-rule="evenodd" clip-rule="evenodd" d="M426.031 31.5879C425.892 34.6007 425.754 37.6135 425.612 40.6159C425.748 37.6006 425.889 34.5929 426.031 31.5879Z" fill="black"></path> <path fill-rule="evenodd" clip-rule="evenodd" d="M1358.42 543.031C1359.38 546.379 1357.98 546.934 1354.2 544.695C1355.61 544.14 1357.01 543.586 1358.42 543.031Z" fill="black"></path> <path fill-rule="evenodd" clip-rule="evenodd" d="M1272.95 805.506C1274.46 805.515 1275.97 805.525 1277.46 805.534C1275.95 805.525 1274.45 805.515 1272.95 805.506Z" fill="black"></path> <path fill-rule="evenodd" clip-rule="evenodd" d="M987.062 563.376C984.539 565.299 982.029 565.57 979.539 563.274C982.047 563.31 984.554 563.343 987.062 563.376Z" fill="black"></path> <path fill-rule="evenodd" clip-rule="evenodd" d="M930.734 306.865C930.671 309.377 930.606 311.887 930.54 314.389C930.603 311.875 930.669 309.369 930.734 306.865Z" fill="black"></path> <path fill-rule="evenodd" clip-rule="evenodd" d="M1060.79 74.7615C1058.28 74.76 1055.77 74.757 1053.27 74.754C1055.78 73.8151 1058.29 74.1235 1060.79 74.7615Z" fill="black"></path> <path fill-rule="evenodd" clip-rule="evenodd" d="M419.8 47.0145C417.794 47.7623 415.788 48.2047 413.781 47.025C415.788 47.022 417.794 47.0175 419.8 47.0145Z" fill="black"></path> <path fill-rule="evenodd" clip-rule="evenodd" d="M932.245 663.368C932.176 664.876 932.107 666.382 932.04 667.882C932.111 666.373 932.177 664.87 932.245 663.368Z" fill="black"></path> <path fill-rule="evenodd" clip-rule="evenodd" d="M103.029 541.525C103.059 542.53 103.088 543.535 103.115 544.534C103.082 543.526 103.058 542.525 103.029 541.525Z" fill="black"></path> <path fill-rule="evenodd" clip-rule="evenodd" d="M1367.74 536.128L1360.22 536.167C1362.72 534.299 1365.23 534.536 1367.74 536.128Z" fill="black"></path> <path fill-rule="evenodd" clip-rule="evenodd" d="M302.439 875.447C299.93 874.96 297.424 874.469 294.915 873.982L302.439 875.447Z" fill="black"></path> <path fill-rule="evenodd" clip-rule="evenodd" d="M808.829 443.752C808.782 442.245 808.735 440.739 808.69 439.238C808.735 440.744 808.782 442.248 808.829 443.752Z" fill="black"></path> <path fill-rule="evenodd" clip-rule="evenodd" d="M758.354 1022.04C759.361 1022.1 760.369 1022.16 761.363 1022.22C760.352 1022.16 759.352 1022.1 758.354 1022.04Z" fill="black"></path> <path fill-rule="evenodd" clip-rule="evenodd" d="M67.7095 214.294C69.2202 214.333 70.7309 214.374 72.2235 214.414C70.7053 214.374 69.2074 214.333 67.7095 214.294Z" fill="black"></path> <path fill-rule="evenodd" clip-rule="evenodd" d="M284.381 69.1856C280.862 69.1917 277.347 69.1976 273.848 69.2037C277.375 69.1976 280.878 69.1917 284.381 69.1856Z" fill="black"></path> <path fill-rule="evenodd" clip-rule="evenodd" d="M995.266 379.069C995.311 381.58 995.36 384.091 995.41 386.592C995.365 384.079 995.32 381.573 995.266 379.069Z" fill="black"></path> <path fill-rule="evenodd" clip-rule="evenodd" d="M811.015 917.634C809.002 917.604 806.993 917.571 804.997 917.538C807.013 917.565 809.014 917.601 811.015 917.634Z" fill="black"></path> <path fill-rule="evenodd" clip-rule="evenodd" d="M1024.68 120.632C1027.69 120.298 1030.7 119.964 1033.71 119.63C1030.82 122.185 1027.7 120.485 1024.68 120.632Z" fill="black"></path> <path fill-rule="evenodd" clip-rule="evenodd" d="M794.465 918.419C792.956 918.362 791.448 918.306 789.951 918.252C791.466 918.309 792.965 918.364 794.465 918.419Z" fill="black"></path> <path fill-rule="evenodd" clip-rule="evenodd" d="M742.439 944.661C742.514 947.174 742.591 949.683 742.668 952.184C742.594 949.667 742.516 947.165 742.439 944.661Z" fill="black"></path> <path fill-rule="evenodd" clip-rule="evenodd" d="M972.017 212.998C974.024 212.812 976.03 212.625 978.036 212.44C976.204 213.851 974.054 213.025 972.017 212.998Z" fill="black"></path> <path fill-rule="evenodd" clip-rule="evenodd" d="M627.446 217.369C629.95 215.236 632.458 215.467 634.97 217.345C632.461 217.351 629.955 217.36 627.446 217.369Z" fill="black"></path> <path fill-rule="evenodd" clip-rule="evenodd" d="M533.294 293.327C533.366 292.323 533.437 291.319 533.514 290.317C533.444 291.322 533.369 292.324 533.294 293.327Z" fill="black"></path> <path fill-rule="evenodd" clip-rule="evenodd" d="M971.233 264.746C971.254 266.757 971.274 268.765 971.296 270.765C971.277 268.75 971.256 266.749 971.233 264.746Z" fill="black"></path> <path fill-rule="evenodd" clip-rule="evenodd" d="M307.38 579.179C310.681 580.298 317.321 583.678 321.169 583.23C324.249 582.871 326.787 579.128 329.757 579.133C337.755 579.143 336.271 588.385 332.407 593.346C321.957 606.767 298.606 592.215 307.38 579.179Z" fill="black"></path> <path fill-rule="evenodd" clip-rule="evenodd" d="M340.021 530.997C350.927 533.811 345.495 557.793 336.327 559.442C325.533 561.386 323.652 541.885 325.784 534.836C331.339 538.136 327.899 549.908 334.901 546.655C339.353 544.583 338.676 535.007 340.021 530.997Z" fill="black"></path> </svg> 