<?xml version="1.0" encoding="UTF-8"?> <svg xmlns="http://www.w3.org/2000/svg" width="305" height="322" viewBox="0 0 305 322" fill="none"> <path d="M241.275 116.891C226.673 85.034 182.028 67.7673 166.764 77.1474L140.739 80.3216C42.2788 111.148 67.0689 196.74 100.322 219.638C133.575 242.537 172.282 235.522 192.981 228.419C213.68 221.315 271.988 183.897 241.275 116.891Z" fill="white"></path> <path d="M240.625 321.93C244.571 322.466 248.204 319.702 248.74 315.756C249.276 311.81 246.512 308.177 242.566 307.641L240.625 321.93ZM191.574 309.105L193.635 316.014L191.574 309.105ZM239.422 280.022L238.146 272.926L239.422 280.022ZM167.066 265.508L169.632 272.246L167.066 265.508ZM223.031 205.199C219.503 203.354 215.146 204.718 213.301 208.247C211.456 211.775 212.82 216.131 216.348 217.977L223.031 205.199ZM166.764 77.1474L167.637 84.3042L169.198 84.1137L170.539 83.29L166.764 77.1474ZM241.275 116.891L247.829 113.887L241.275 116.891ZM192.981 228.419L190.64 221.599L192.981 228.419ZM100.322 219.638L96.233 225.576L100.322 219.638ZM140.739 80.3216L139.866 73.1649L139.213 73.2445L138.584 73.4412L140.739 80.3216ZM111.263 133.944C113.195 130.462 111.939 126.074 108.457 124.142C104.976 122.21 100.587 123.466 98.6549 126.948L111.263 133.944ZM115.846 207.059C118.935 209.572 123.476 209.104 125.988 206.015C128.501 202.926 128.034 198.385 124.945 195.873L115.846 207.059ZM267.828 79.3831C264.789 81.9559 264.411 86.5052 266.984 89.5442C269.557 92.5832 274.106 92.961 277.145 90.3882L267.828 79.3831ZM301.16 72.7731C304.532 70.6561 305.55 66.206 303.433 62.8336C301.316 59.4612 296.866 58.4434 293.493 60.5605L301.16 72.7731ZM197.449 36.1965C197.045 40.1578 199.929 43.6964 203.89 44.1002C207.852 44.5039 211.39 41.62 211.794 37.6586L197.449 36.1965ZM213.553 9.40441C213.89 5.43691 210.947 1.94699 206.98 1.60947C203.012 1.27196 199.522 4.21464 199.185 8.18215L213.553 9.40441ZM111.263 42.6205C112.922 46.2402 117.201 47.8296 120.821 46.1705C124.44 44.5114 126.03 40.232 124.371 36.6123L111.263 42.6205ZM107.762 15.4432L100.582 16.0925V16.0925L107.762 15.4432ZM100.93 1.37978C97.1883 2.74171 95.2591 6.879 96.621 10.6207C97.983 14.3624 102.12 16.2915 105.862 14.9296L100.93 1.37978ZM51.1036 97.2773C54.5633 99.2487 58.9659 98.0421 60.9372 94.5825C62.9085 91.1229 61.702 86.7203 58.2424 84.7489L51.1036 97.2773ZM27.7809 77.8522L30.4651 71.1607H30.4651L27.7809 77.8522ZM19.8302 66.7355C15.8522 66.5604 12.4855 69.6433 12.3105 73.6213C12.1354 77.5993 15.2183 80.966 19.1963 81.1411L19.8302 66.7355ZM34.2459 163.692C38.1672 163 40.785 159.261 40.0931 155.339C39.4012 151.418 35.6615 148.8 31.7402 149.492L34.2459 163.692ZM8.94076 148.719C5.07512 147.764 1.16728 150.124 0.212348 153.99C-0.742585 157.855 1.61701 161.763 5.48264 162.718L8.94076 148.719ZM61.2804 217.937C64.8638 216.2 66.3613 211.888 64.6251 208.305C62.889 204.721 58.5766 203.224 54.9932 204.96L61.2804 217.937ZM27.3889 218.633C23.9679 220.67 22.8466 225.095 24.8842 228.516C26.9219 231.937 31.347 233.059 34.7679 231.021L27.3889 218.633ZM242.566 307.641C233.067 306.351 215.328 306.248 203.371 305.82C196.854 305.586 192.579 305.27 191.007 304.89C190.499 304.766 191.289 304.862 192.285 305.596C192.839 306.004 194.199 307.156 194.754 309.29C195.384 311.71 194.571 313.725 193.806 314.845C193.146 315.811 192.43 316.298 192.256 316.413C192.012 316.576 191.882 316.627 191.973 316.585C192.158 316.502 192.658 316.306 193.635 316.014L189.514 302.196C188.257 302.571 187.052 302.984 186.012 303.456C185.49 303.693 184.868 304.008 184.246 304.424C183.695 304.792 182.714 305.519 181.898 306.714C180.977 308.062 180.116 310.294 180.799 312.921C181.408 315.261 182.924 316.609 183.729 317.202C185.227 318.307 186.904 318.732 187.616 318.904C190.927 319.706 196.889 320.016 202.855 320.23C215.863 320.696 232.071 320.767 240.625 321.93L242.566 307.641ZM193.635 316.014C205.502 312.475 224.401 303.779 237.06 296.606C240.26 294.792 243.178 293.011 245.554 291.371C247.717 289.878 250.111 288.051 251.626 286.089C252.201 285.344 253.973 282.959 253.627 279.666C253.153 275.161 249.539 273.321 247.765 272.779C246.04 272.251 244.276 272.247 242.985 272.315C241.546 272.39 239.919 272.608 238.146 272.926L240.699 287.118C242.135 286.86 243.118 286.747 243.74 286.714C244.509 286.674 244.256 286.784 243.546 286.567C242.786 286.334 239.689 285.002 239.286 281.175C239.135 279.737 239.502 278.657 239.72 278.149C239.945 277.625 240.175 277.326 240.215 277.274C240.286 277.182 240.149 277.37 239.573 277.852C239.044 278.296 238.312 278.848 237.362 279.504C235.461 280.817 232.94 282.367 229.951 284.06C217.852 290.917 199.987 299.072 189.514 302.196L193.635 316.014ZM238.146 272.926C226.141 275.085 197.201 275.882 176.991 273.919C171.99 273.433 167.752 272.798 164.565 272.037C162.971 271.657 161.787 271.279 160.968 270.94C160.06 270.564 160.02 270.405 160.307 270.685C160.725 271.092 161.786 272.467 161.559 274.554C161.373 276.265 160.453 276.95 160.792 276.632C161.514 275.956 163.944 274.413 169.632 272.246L164.499 258.771C158.641 261.002 153.869 263.356 150.929 266.114C149.438 267.512 147.571 269.798 147.224 272.999C146.836 276.577 148.519 279.331 150.242 281.011C151.836 282.564 153.785 283.572 155.45 284.262C157.204 284.988 159.175 285.575 161.218 286.063C165.307 287.039 170.272 287.754 175.597 288.271C196.694 290.32 227.026 289.577 240.699 287.118L238.146 272.926ZM169.632 272.246C196.04 262.186 213.374 253.806 224.329 246.719C229.807 243.175 233.953 239.789 236.86 236.464C239.758 233.151 241.785 229.481 242.182 225.457C243.038 216.777 236.255 211.753 232.433 209.512C230.223 208.216 227.963 207.229 226.225 206.512C225.421 206.18 224.48 205.807 223.97 205.6C223.668 205.477 223.438 205.381 223.26 205.303C223.071 205.22 223.012 205.189 223.031 205.199L216.348 217.977C217.492 218.575 219.576 219.368 220.728 219.843C222.271 220.479 223.8 221.166 225.14 221.951C226.528 222.765 227.32 223.461 227.692 223.939C227.852 224.143 227.868 224.224 227.854 224.181C227.847 224.161 227.839 224.128 227.835 224.089C227.83 224.05 227.833 224.031 227.832 224.041C227.83 224.06 227.723 225.008 226.006 226.972C224.298 228.925 221.346 231.475 216.497 234.612C206.799 240.886 190.561 248.843 164.499 258.771L169.632 272.246ZM170.539 83.29C172.34 82.183 176.058 81.3645 181.922 82.0773C187.566 82.7634 194.278 84.768 201.156 88.059C215.027 94.6955 228.323 105.936 234.721 119.895L247.829 113.887C239.626 95.989 223.298 82.6678 207.379 75.0517C199.363 71.2163 191.139 68.672 183.662 67.7632C176.406 66.8811 168.82 67.4218 162.989 71.0048L170.539 83.29ZM234.721 119.895C248.925 150.882 242.474 174.254 230.545 190.922C218.245 208.107 199.842 218.441 190.64 221.599L195.321 235.238C206.818 231.292 227.919 219.365 242.27 199.314C256.992 178.746 264.339 149.905 247.829 113.887L234.721 119.895ZM190.64 221.599C170.704 228.441 134.828 234.646 104.411 213.7L96.233 225.576C132.322 250.428 173.859 242.603 195.321 235.238L190.64 221.599ZM104.411 213.7C90.0042 203.78 76.5435 179.171 78.3304 153.453C79.2064 140.844 83.7502 128.048 93.662 116.592C103.605 105.099 119.262 94.6004 142.893 87.202L138.584 73.4412C112.985 81.4561 94.8185 93.2165 82.7572 107.158C70.6644 121.135 65.0228 136.948 63.9455 152.453C61.8258 182.962 77.3866 212.598 96.233 225.576L104.411 213.7ZM165.891 69.9907L139.866 73.1649L141.612 87.4783L167.637 84.3042L165.891 69.9907ZM98.6549 126.948C90.2412 142.11 81.8809 179.432 115.846 207.059L124.945 195.873C98.4473 174.32 104.775 145.636 111.263 133.944L98.6549 126.948ZM277.145 90.3882C284.646 84.0381 292.751 78.0515 301.16 72.7731L293.493 60.5605C284.472 66.2235 275.817 72.6192 267.828 79.3831L277.145 90.3882ZM211.794 37.6586C212.301 32.6825 212.545 27.8238 212.76 23.156C212.978 18.4338 213.167 13.9404 213.553 9.40441L199.185 8.18215C198.77 13.0606 198.569 17.8778 198.356 22.4909C198.141 27.1583 197.911 31.6595 197.449 36.1965L211.794 37.6586ZM124.371 36.6123C123.352 34.389 122.217 32.274 121.162 30.3397C120.072 28.3425 119.093 26.5839 118.188 24.7766C116.404 21.2139 115.24 18.0834 114.943 14.7938L100.582 16.0925C101.114 21.9783 103.165 26.9798 105.294 31.2327C106.346 33.333 107.498 35.4031 108.504 37.2462C109.544 39.1521 110.469 40.8892 111.263 42.6205L124.371 36.6123ZM114.943 14.7938C115.036 15.8307 114.852 16.5786 114.83 16.6713C114.784 16.8719 114.747 16.9612 114.78 16.8686C114.856 16.6508 114.97 16.3716 115.229 15.7245C115.597 14.8058 116.446 12.7406 116.724 10.6418C116.867 9.5612 116.969 7.76623 116.266 5.82936C115.446 3.57138 113.73 1.69401 111.335 0.719482C109.265 -0.122567 107.227 -0.0740741 105.742 0.120936C104.182 0.325897 102.563 0.785485 100.93 1.37978L105.862 14.9296C106.932 14.5401 107.472 14.4372 107.621 14.4176C107.845 14.3881 107.066 14.55 105.901 14.0759C105.262 13.8157 104.566 13.3854 103.947 12.7346C103.33 12.0871 102.941 11.3809 102.712 10.7499C102.297 9.60652 102.426 8.77618 102.429 8.74786C102.443 8.64321 102.44 8.73453 102.319 9.10046C102.206 9.4448 102.053 9.84158 101.844 10.3636C101.674 10.7857 101.383 11.4967 101.169 12.1064C101.057 12.4276 100.905 12.89 100.784 13.4126C100.688 13.8273 100.469 14.8461 100.582 16.0925L114.943 14.7938ZM58.2424 84.7489C49.1068 79.5435 40.3288 75.1174 30.4651 71.1607L25.0968 84.5437C34.2142 88.201 42.3931 92.3141 51.1036 97.2773L58.2424 84.7489ZM30.4651 71.1607C30.3531 71.1158 30.0402 70.9666 29.3829 70.5909C29.078 70.4166 28.7577 70.2279 28.3829 70.0071C28.023 69.795 27.6129 69.5533 27.1963 69.315C26.3873 68.8523 25.3598 68.2891 24.2696 67.8247C23.2544 67.3923 21.6707 66.8165 19.8302 66.7355L19.1963 81.1411C18.512 81.1109 18.2407 80.9298 18.6185 81.0908C18.9213 81.2197 19.3674 81.4487 20.0371 81.8317C20.3598 82.0163 20.6904 82.2109 21.0628 82.4304C21.4205 82.6412 21.8245 82.8793 22.2262 83.109C22.9822 83.5412 24.012 84.1086 25.0968 84.5437L30.4651 71.1607ZM31.7402 149.492C24.9311 150.694 16.4188 150.567 8.94076 148.719L5.48264 162.718C15.0079 165.071 25.5554 165.226 34.2459 163.692L31.7402 149.492ZM54.9932 204.96C46.2058 209.217 35.9992 213.504 27.3889 218.633L34.7679 231.021C42.681 226.308 51.4407 222.704 61.2804 217.937L54.9932 204.96Z" fill="black"></path> </svg> 