<?xml version="1.0" encoding="UTF-8"?> <svg xmlns="http://www.w3.org/2000/svg" width="1328" height="901" viewBox="0 0 1328 901" fill="none"> <path fill-rule="evenodd" clip-rule="evenodd" d="M509.074 485.111C508.522 487.953 507.142 489.292 508.589 491.902C509.817 494.12 513.337 495.572 515.701 495.011L509.074 485.111ZM445.046 384.009L433.388 388.005C436.574 391.132 439.611 394.418 443.124 397.194L445.046 384.009ZM637.336 394.244C631.776 391.442 625.548 391.125 619.453 390.766C620.379 395.77 621.307 400.775 622.236 405.779C627.268 401.934 632.304 398.089 637.336 394.244ZM503.83 781.607C502.72 779.642 495.153 764.461 493.58 765.241C492.745 765.654 492.68 774.106 492.557 775.307C492.124 779.583 491.689 783.858 491.255 788.134C495.732 786.553 500.513 785.242 503.83 781.607ZM450.955 658.88C452.099 662.234 453.245 665.59 454.39 668.945C454.934 670.54 455.253 672.893 456.216 674.301C457.468 676.126 456.524 677.201 458.194 675.202C459.988 673.055 460.525 667.328 461.304 664.698C462.487 660.702 463.669 656.708 464.852 652.714C459.278 652.667 455.899 657.257 450.955 658.88ZM333.817 461.302C326.962 465.987 320.024 470.634 314.06 476.457C319.306 476.13 326.611 479.74 331.552 478.044C333.834 478.531 334.587 477.665 333.817 475.444V470.83V461.302ZM435.447 494.443V521.796C441.847 516.343 448.582 511.277 454.74 505.543C448.309 501.843 441.879 498.143 435.447 494.443ZM664.224 565.317C662.205 577.494 662.093 590.025 661.539 602.348C661.442 604.535 660.599 607.828 662.056 609.744C663.518 611.664 667.684 612.728 669.801 613.754C675.758 616.642 681.675 619.612 687.615 622.535C679.818 603.462 672.021 584.389 664.224 565.317ZM815.462 490.43C830.158 483.206 844.854 475.982 859.551 468.757C845.142 462.656 830.732 456.557 816.324 450.457C816.037 463.781 815.749 477.107 815.462 490.43ZM664.193 524.442C666.879 524.634 667.304 514.404 667.748 511.698C668.594 506.563 669.461 501.431 670.35 496.302C672.13 486.05 674 475.813 675.969 465.595C679.906 445.163 684.249 424.807 689.061 404.564C683.889 403.632 679.138 402.961 674.087 401.456C670.008 400.24 665.15 400.901 661.508 398.373C661.035 407.858 663.404 417.943 664.28 427.429C665.296 438.404 665.841 449.322 665.751 460.347C665.574 481.712 664.763 503.083 664.193 524.442ZM325.935 813.919C328.482 813.241 325.015 778.328 324.86 773.293C324.417 758.716 324.331 744.129 324.591 729.548C310.87 738.152 296.83 746.077 282.335 753.224C286.06 758.056 289.551 763.267 293.673 767.764C297.921 772.396 302.793 776.192 306.729 781.18C314.654 791.225 320.082 802.629 325.935 813.919ZM656.126 607.386C656.764 596.884 657.356 586.405 658.416 575.935C658.867 571.479 663.173 547.804 656.279 548.36C652.357 548.676 645.478 554.416 641.882 556.427C637.132 559.083 632.375 561.732 627.602 564.348C618.182 569.509 608.701 574.556 599.248 579.656C618.207 588.9 637.167 598.143 656.126 607.386ZM615.192 389.027C607.339 388.442 599.748 387.858 592.001 386.396C587.824 385.607 583.647 385.716 579.448 385.184C576.44 384.802 570.561 382.332 567.759 383.141C564.238 384.156 562.96 401.801 562.475 406.229C561.695 413.362 561.169 422.016 564.356 428.716C570.496 441.633 587.042 431.551 595.091 426.133C601.991 421.487 609.807 416.783 615.927 411.143C621.348 406.147 616.482 395.483 615.192 389.027ZM655.917 529.49C661.833 527.096 661.74 524.091 661.998 517.901C662.31 510.38 662.492 502.85 662.707 495.326C663.09 481.917 663.452 468.501 663.332 455.085C663.216 441.979 662.574 428.895 661.074 415.87C660.544 411.264 661.072 403.399 658.645 399.47C656.43 395.887 649.555 395.849 645.804 396.07C641.574 396.319 638.149 400.336 635.028 402.875C631.57 405.689 624.468 409.65 623.901 413.845C623.266 418.53 625.84 425.215 626.837 429.759C630.485 446.344 634.922 462.766 639.596 479.086C644.445 496.018 649.36 513.121 655.917 529.49ZM505.594 489.792C505.975 486.065 507.362 482.953 505.487 479.404C503.876 476.352 501.254 473.285 499.284 470.396C493.646 462.12 487.323 454.193 481.181 446.287C475.556 439.046 469.793 431.882 463.897 424.859C460.613 420.949 457.228 417.124 453.863 413.283C451.399 410.471 449.063 406.521 445.577 405.05C443.008 421.192 440.886 437.404 439.229 453.666C438.43 461.526 437.74 469.399 437.16 477.279C436.996 479.503 435.271 487.014 436.374 489.086C437.534 491.262 444.624 494.173 446.794 495.507C452.862 499.236 457.577 504.854 463.348 498.724C467.32 494.503 470.52 488.552 474.96 484.869C477.274 482.949 479.452 483.039 482.047 481.9C485.064 480.577 485.159 479.302 488.764 481.103C494.839 484.136 498.529 488.617 505.594 489.792ZM201.494 572.845C201.494 584.021 200.729 593.208 208.305 602.255C214.925 610.162 221.804 611.991 231.115 615.111C236.598 616.947 236.981 615.254 241.423 612.153C245.646 609.207 250.244 606.844 254.408 603.805C263.383 597.255 272.352 590.5 281.074 583.611C284.007 581.294 283.574 582.085 283.129 579.305C282.722 576.772 280.904 573.548 279.91 571.139C278.113 566.781 275.996 562.564 273.878 558.354C271.473 553.578 269.378 548.391 266.391 543.938C265.151 542.09 263.68 540.418 262.233 538.733C259.188 535.185 259.296 535.317 255.654 538.216C247.965 544.34 240.811 550.969 232.158 555.757C221.919 561.423 211.706 567.128 201.494 572.845ZM433.328 486.276C434.439 470.232 435.692 454.276 437.615 438.305C438.603 430.104 439.753 421.926 440.871 413.742C441.327 410.41 443.085 404.818 442.106 401.581C441.143 398.395 436.896 395.362 434.565 393.057C433.939 392.438 432.013 389.837 431.185 389.72C430.298 389.596 426.961 392.041 425.999 392.591C422.595 394.543 419.253 396.595 415.961 398.731C409.758 402.755 403.748 407.074 397.866 411.555C385.533 420.949 373.771 431.059 361.699 440.783C372.759 450.475 386.373 458.003 398.738 465.853C406.05 470.495 413.399 475.086 420.843 479.512C424.617 481.754 428.995 485.182 433.328 486.276ZM282.138 773.18C273.207 779.085 264.679 785.318 254.578 789.107C244.524 792.88 234.586 794.332 224.194 796.574C218.953 797.706 214.028 798.943 208.679 799.734C205.681 800.177 201.042 800.007 198.309 801.272C195.875 800.754 195.008 801.583 195.71 803.762C195.736 804.439 195.762 805.116 195.788 805.793C196.477 815.211 202.53 826.544 207.81 834.201C210.892 838.672 214.819 842.832 218.722 846.59C223.128 850.833 225.668 853.826 231.81 852.048C242.163 849.051 251.3 843.018 261.793 840.358C270.094 838.254 276.988 833.844 285.084 831.561C295.067 828.746 304.946 825.538 315.067 823.186C310.546 814.46 306.503 805.374 300.715 797.38C294.779 789.177 288.233 781.294 282.138 773.18ZM336.913 479.537C355.59 483.254 375.834 486.695 392.55 496.337C399.073 500.1 407.343 505.917 409.253 513.699C411.537 523.001 402.557 528.763 395.057 531.667C386.052 535.152 376.25 536.488 366.709 537.587C361.658 538.169 356.584 538.487 351.509 538.775C347.403 539.009 340.438 538.107 336.684 539.734C334.332 539.266 333.517 540.219 334.238 542.595C334.194 543.448 334.151 544.302 334.108 545.155L333.719 552.824C333.46 557.931 333.201 563.039 332.94 568.146C332.376 579.271 331.811 590.397 331.248 601.522C341.03 595.461 348.914 586.783 358.475 580.317C363.021 577.242 367.534 574.162 372.061 571.098C373.96 569.814 375.12 568.013 376.988 566.817C379.466 565.229 381.663 564.275 383.987 562.195C393.479 553.706 404.035 546.367 414.103 538.574C418.676 535.033 423.682 531.777 428.034 527.979C432.591 524 431.961 520.724 431.849 515.004C431.732 508.948 433.955 501.429 432.923 495.589C433.789 493.607 433.124 492.374 430.93 491.889C429.464 490.952 427.999 490.014 426.533 489.077C423.61 487.207 420.686 485.337 417.763 483.469C406.134 476.033 394.507 468.595 382.878 461.159C377.069 457.444 371.261 453.729 365.451 450.014C363.828 448.978 358.537 444.291 356.716 444.429C354.86 444.569 351.638 448.194 350.246 449.348C348.111 451.116 346.038 452.977 343.731 454.525C342.581 455.322 341.38 456.033 340.13 456.659C338.132 456.852 337.438 457.949 338.046 459.951C336.291 465.581 337.255 473.623 336.913 479.537ZM595.913 744.961C591.684 725.189 586.229 701.776 569.733 688.327C553.003 674.686 528.543 679.957 515.456 695.975C508.901 703.999 504.837 713.484 501.819 723.314C498.72 733.402 494.154 746.547 494.99 757.216C495.356 761.893 499.363 766.921 501.654 771.001C504.017 775.216 505.586 781.259 511.156 779.8C519.793 777.535 528.577 772.337 536.659 768.617C544.833 764.853 553.44 761.757 561.917 758.121C567.544 755.708 573.387 753.872 579 751.425C584.323 749.106 591.346 748.546 595.913 744.961ZM845.823 627.197C857.62 631.419 863.751 624.66 872.052 617.051C879.916 609.843 888.435 602.91 895.676 595.076C903.145 586.998 909.048 577.451 914.791 568.12C920.595 558.69 928.442 548.505 932.016 538.003C933.833 532.66 934.609 526.741 935.755 521.219C936.031 519.889 937.882 514.943 937.294 513.824C936.484 512.287 931.333 512.124 929.919 511.9C918.663 510.12 906.734 510.031 895.444 511.623C873.599 514.701 855.33 526.952 848.425 548.374C840.331 573.486 844.22 601.397 845.823 627.197ZM769.335 409.382C769.152 413.729 779.574 414.938 782.276 415.952C788.518 418.293 794.725 420.766 800.787 423.537C813.27 429.242 826.581 432.96 838.534 439.858C864.301 454.729 892.274 465.212 918.305 479.436C922.361 481.654 930.287 486.994 934.919 486.542C937.382 486.302 935.547 488.284 937.145 484.37C937.719 482.961 937.91 481.129 938.232 479.62C939.197 475.098 939.943 470.534 941.026 466.037C942.809 458.634 944.629 451.767 945.38 444.159C945.699 440.935 946.048 437.715 946.086 434.473C946.125 431.186 946.882 422.952 945.398 420.107C944.414 418.22 944.218 418.867 941.759 418.335C940.35 418.03 938.872 417.396 937.514 416.973C934.326 415.981 931.134 415.027 927.791 414.736C924.487 414.447 922.379 413.442 919.281 412.858C916.031 412.246 912.693 412.988 909.382 412.134C905.807 411.211 904.102 410.369 900.367 410.722C896.746 411.063 895.705 410.261 892.159 409.274C889.199 408.451 885.673 409.026 882.589 408.776C878.856 408.471 875.134 408.005 871.399 407.71C854.602 406.38 837.606 408.352 820.77 408.195C811.615 408.111 802.656 409.462 793.514 409.044C785.525 408.68 777.266 408.766 769.335 409.382ZM813.031 497.909C804.861 501.021 797.284 506.076 789.708 510.429C780.973 515.448 772.612 520.781 764.527 526.801C750.935 536.923 735.073 549.06 731.495 566.723C727.824 584.85 743.567 599.703 758.326 607.12C775.158 615.577 794.74 619.951 813.177 623.181C811.206 581.451 811.669 539.651 813.031 497.909ZM568.589 596.154C563.632 597.524 559.435 600.457 554.836 602.628C550.718 604.572 546.732 606.038 542.884 608.54C536.615 612.62 529.346 616.112 522.792 619.267C506.573 627.07 490.827 636.762 474.77 645.41C470.515 647.703 469.12 649.151 467.679 653.87C466.113 658.995 464.638 664.155 463.13 669.298C461.724 674.095 459.479 679.224 460.07 684.288C460.586 688.693 462.865 692.848 464.582 696.866C468.908 706.978 473.597 716.928 478.442 726.8C482.789 735.661 486.757 745.064 492.337 753.21C496.675 730.587 500.567 705.24 517.38 688.001C534.181 670.776 560.985 670.533 577.175 688.314C584.866 696.761 589.547 707.398 593.227 718.087C595.159 723.703 596.457 729.426 597.701 735.225C599.029 741.421 598.702 744.708 605.538 742.831C610.966 741.34 616.721 740.15 622.043 738.449C624.804 737.568 627.496 736.577 627.621 734.396C627.78 731.642 624.072 726.003 622.977 723.411C617.322 710.038 611.666 696.663 606.009 683.289C599.867 668.767 593.724 654.245 587.58 639.724C584.515 632.478 581.448 625.233 578.382 617.988C575.585 611.384 573.255 601.577 568.589 596.154ZM813.491 483.22C813.582 476.617 813.692 470.014 813.777 463.41C813.83 459.475 815.583 451.866 812.156 449.055C810.031 447.313 803.728 445.977 801.04 444.784C795.737 442.432 789.995 441.383 784.66 439.047C763.767 429.895 742.024 422.272 720.512 414.896C715.874 413.305 711.133 412.003 706.464 410.436C703.943 409.591 694.606 404.625 692.274 405.925C690.231 407.061 688.69 420.603 688.037 423.414C686.488 430.07 685.008 436.744 683.586 443.429C678.064 469.382 673.432 495.517 669.125 521.697C680.568 517.352 691.535 509.823 702.346 504.003C713.577 497.957 724.768 491.926 736.076 486.02C739.267 484.352 750.495 476.688 753.123 479.695C757.337 484.522 747.294 490.184 744.658 492.251C734.46 500.25 723.686 507.223 712.78 514.199C701.479 521.431 689.719 527.819 678.359 534.918C674.259 537.481 667.714 540.6 666.102 544.929C664.029 550.496 665.525 557.263 667.413 562.582C672.048 575.654 677.125 588.564 682.494 601.35C684.935 607.164 687.439 612.952 689.99 618.718C693.027 625.585 697.013 627.037 703.632 630.197C731.827 643.66 761.113 656.438 788.195 672.017C783.663 677.241 772.616 668.663 768.143 666.491C759.86 662.468 751.568 658.457 743.29 654.422C727.87 646.905 712.527 639.238 697.02 631.902C706.958 654.508 718.688 676.288 731.693 697.271C728.409 698.383 729.21 698.442 727.149 696.466C725.413 694.803 724.248 691.546 723.072 689.457C720.641 685.143 718.242 680.813 715.793 676.509C710.712 667.578 705.447 658.783 700.807 649.608C697.318 642.71 694.615 630.65 687.443 627.172C678.507 622.836 669.452 618.616 660.516 614.219C660.516 648.587 662.986 682.193 666.611 716.349C666.794 718.072 668.445 723.155 665.116 722.658C663.615 722.432 663.108 713.008 662.845 711.04C661.634 702.018 660.607 692.974 659.767 683.912C658.094 665.827 657.184 647.669 657.067 629.508C654.922 647.166 652.778 664.823 650.633 682.481L647.585 707.581C647.051 711.975 646.517 716.37 645.983 720.764C645.738 722.784 645.893 725.423 645.184 727.349C644.068 730.379 644.443 730.147 640.944 731.529C644.289 708.535 647.379 685.503 650.112 662.429C651.447 651.169 652.697 639.901 653.849 628.623C654.159 625.59 654.462 622.555 654.759 619.521C654.909 617.974 656.244 613 655.503 611.715C654.77 610.442 649.909 609.113 648.509 608.464C645.445 607.042 642.382 605.621 639.32 604.192C629.383 599.547 619.453 594.865 609.625 589.994C605.326 587.862 600.817 584.569 596.141 583.432C591.486 582.301 588.1 585.541 584.12 587.6C581.022 589.203 573.724 591.337 571.655 594.06C569.729 596.594 575.71 606.734 577.281 610.473C581.712 621.02 586.145 631.568 590.577 642.115C599.563 663.5 608.55 684.886 617.537 706.272C619.733 711.499 621.93 716.727 624.126 721.955C625.534 725.305 627.884 734.852 631.3 735.225C632.811 735.391 635.293 733.746 636.754 733.274C638.934 732.569 640.947 732.58 643.134 732.208C647.142 731.529 651.304 729.461 655.24 728.011C665.356 724.281 675.843 721.874 686.041 718.391C696.285 714.892 706.363 710.961 716.568 707.461C725.836 704.284 735.188 700.663 744.091 696.525C753.494 692.154 763.137 688.3 772.298 683.453C788.986 674.626 805.492 666.383 820.237 655.557C823.703 653.012 827.396 650.456 830.826 647.731C833.832 645.339 839.569 642.385 841.616 639.241C842.396 638.042 843.067 635.69 842.155 634.267C841.177 632.738 836.846 632.878 834.823 632.606C828.442 631.749 822.061 630.891 815.681 630.034C816.171 634.231 816.665 638.423 817.021 642.635C817.27 645.608 819.027 653.465 816.658 655.794C813.4 652.698 814.447 643.439 814.155 639.314C813.999 637.109 814.56 632.794 813.573 630.839C812.491 628.695 809.501 628.724 806.792 628.138C795.302 625.652 783.917 623.567 772.798 619.628C754.016 612.975 731.564 601.742 727.369 580.076C722.995 557.488 742.214 537.918 758.395 525.32C768.083 517.779 778.391 511.249 789.051 505.186C794.034 502.354 799.013 499.521 804.027 496.749C805.852 495.741 811.84 493.664 812.802 491.901C813.787 490.098 813.283 485.275 813.491 483.22ZM411.643 830.102C410.732 830.547 409.819 830.992 408.909 831.438C419.046 802.551 429.089 773.794 437.564 744.365C441.655 730.16 445.8 715.97 450.03 701.806C451.857 695.697 456.343 687.283 455.097 680.953C453.748 674.103 450.513 666.817 448.011 660.302C431.991 670.373 415.636 679.926 399.349 689.539C384.749 698.16 369.901 705.827 355.198 714.357C347.664 718.727 339.892 721.678 332.029 725.249C325.64 728.151 328.12 737.022 328.212 742.948C328.535 763.87 328.52 784.866 329.789 805.758C330.252 813.369 329.655 822.107 334.5 828.442C340.697 836.54 346.444 844.797 352.095 853.323C354.212 856.517 363.107 873.81 366.423 873.431C368.589 873.185 370.582 866.182 371.666 864.522C374 860.943 377.413 857.863 380.52 854.982C393.936 842.534 408.824 833.766 424.297 824.668C440.017 815.426 456.104 806.823 472.121 798.059C475.74 796.078 479.637 794.65 483.232 792.626C484.653 791.827 487.469 790.557 488.363 789.129C489.701 786.991 489.248 781.068 489.526 778.512C490.097 773.29 491.121 767.866 491.176 762.606C491.229 757.41 488.106 752.945 485.841 748.415C475.901 728.522 466.244 708.581 457.595 688.085C450.776 711.884 443.617 735.572 436.929 759.406C433.436 771.852 429.227 784.094 425.128 796.348C423.035 802.607 420.93 808.861 418.84 815.121C417.212 819.996 416.367 827.134 411.643 830.102ZM554.405 381.577C549.136 381.636 544.36 380.861 539.206 379.761C537.315 379.358 535.654 379.188 533.737 379.018C531.564 378.827 529.59 377.65 527.685 377.419C526.245 377.246 523.731 377.85 522.356 378.311C519.168 379.379 519.27 378.84 519.137 382.541C518.929 388.258 518.772 393.977 518.458 399.689C517.223 422.175 514.835 444.442 511.563 466.71C510.9 471.211 509.046 477.115 510.065 481.585C510.985 485.615 514.466 489.919 516.766 493.3C521.496 500.251 532.637 503.686 540.474 505.658C548.738 507.737 557.319 508.503 565.171 510.357C567.346 510.871 569.844 509.965 572.163 510.481C574.307 510.957 575.973 512.134 577.955 512.986C582.81 515.07 588.234 515.455 593.249 517.064C603.192 520.255 613.837 520.064 623.789 523.129C626.333 523.912 628.531 525.886 630.979 526.561C633.218 527.179 635.522 526.452 637.865 526.797C642.828 527.528 647.456 529.224 648.6 534.552C651.636 532.15 652.057 532.781 651.533 529.065C651.197 526.682 649.87 523.781 649.143 521.484C647.292 515.628 645.43 509.775 643.58 503.918C639.919 492.328 636.281 480.729 632.908 469.054C629.888 458.61 627.143 448.086 624.745 437.482C623.525 432.09 622.505 426.675 621.46 421.254C621.155 419.681 621.457 417.181 619.876 416.134C618.443 415.185 615.097 418.591 613.582 419.689C603.005 427.35 578.746 450.011 565.522 436.643C558.401 429.445 558.818 416.791 559.591 407.491C560.065 401.775 561.069 396.133 562.192 390.513C562.471 389.111 564.186 384.606 563.559 383.607C562.88 382.533 555.82 381.892 554.405 381.577ZM926.044 506.649C928.861 506.964 931.675 507.28 934.49 507.597C934.232 505.322 934.464 501.901 933.603 499.783C932.412 496.854 929.496 496.527 926.289 495.314C921.216 493.396 916.043 491.728 911.026 489.663C900.138 485.182 889.301 480.638 878.406 476.158C873.632 474.193 868.021 470.978 862.836 472.582C857.245 474.314 851.727 477.84 846.5 480.422C840.582 483.347 834.667 486.277 828.753 489.208C825.979 490.583 823.205 491.957 820.431 493.332C816.073 495.491 815.494 495.71 815.15 500.641C813.399 525.865 813.529 552.068 814.292 577.326C814.682 590.215 814.245 603.175 815.169 616.042C815.241 617.031 815.167 622.616 815.787 623.378C816.659 624.451 822.801 624.813 824.268 625.082C829.99 626.128 835.751 626.475 841.533 626.992C840.171 597.654 835.168 562.97 850.234 536.134C865.369 509.173 897.718 503.333 926.044 506.649ZM662.951 218.016C664.647 214.151 667.569 210.888 670.067 207.498C671.417 205.664 673.753 203.473 674.617 201.328C675.848 198.276 675.841 198.93 674.003 196.257C672.265 193.731 672.3 193.541 669.612 193.089C667.349 192.708 664.939 193.354 662.628 192.94C660.291 192.521 653.867 190.552 655.34 186.833C655.276 186.996 658.992 185.164 659.281 184.847C660.215 183.83 660.511 181.662 660.971 180.432C662.456 176.492 662.977 173.942 661.323 169.746C658.852 163.482 649.083 161.628 643.003 163.736C639.962 164.788 638.229 167.02 636.863 169.824C635.995 171.606 635.793 174.18 634.671 175.731C632.978 178.065 632.874 177.806 629.365 177.393C624.897 176.869 621.233 175.153 617 173.956C612.39 172.651 609.391 175.305 605.362 177.444C598.089 181.309 591.064 182.65 582.917 183.263C573.844 183.947 565.435 181.759 556.452 181.195C558.783 191.931 564.81 200.647 569.628 210.369C570.474 212.078 571.843 213.826 571.875 215.804C571.909 217.667 569.211 220.202 569.514 221.744C570.164 225.033 577.403 227.666 580.145 228.591C587.901 231.207 596.733 236.328 605.27 234.271C609.951 233.143 612.469 225.753 616.874 225.21C622.783 224.478 618.362 232.087 617.264 234.705C625.651 235.979 636.281 234.899 644.309 232.055C648.332 230.63 651.741 228.504 655.413 226.396C659.986 223.771 660.936 223.05 662.951 218.016ZM516.186 377.794C501.235 378.043 486.064 375.891 471.078 377.869C467.607 378.326 464.181 379.063 460.77 379.847C458.318 380.41 450.53 380.887 448.895 382.71C447.405 384.373 447.395 392.027 447.087 394.185C446.404 398.99 446.586 400.649 449.65 404.363C459.731 416.587 470.229 428.447 480.163 440.806C489.705 452.679 497.537 465.944 507.181 477.649C512.332 462.655 512.641 444.662 514.055 428.94C514.809 420.557 515.495 412.168 516.14 403.777C516.753 395.785 518.839 385.414 516.186 377.794ZM322.659 535.811C324.388 535.811 327.146 536.353 328.827 535.811C331.138 536.547 331.91 535.68 331.146 533.211C331.182 532.348 331.219 531.483 331.257 530.619C331.498 525.05 331.763 519.482 332.021 513.913C332.258 508.822 332.488 503.729 332.689 498.637C332.827 495.16 334.584 486.542 333.179 483.403C332.235 481.292 329.999 481.771 327.279 481.462C324.692 481.169 322.097 480.899 319.524 480.498C316.258 479.988 312.638 478.819 309.315 479.551C305.977 480.287 303.55 483.369 300.93 485.33C296.784 488.43 292.548 491.416 288.367 494.468C280.768 500.017 273.246 505.668 265.711 511.302C262.599 513.628 262.002 512.82 263.518 516.164C264.457 518.229 266.591 520.567 267.891 522.432C270.478 526.149 273.055 531.781 276.374 534.797C281.203 539.185 294.603 536.399 301.018 536.367C308.334 536.331 315.386 536.444 322.659 535.811ZM341.594 535.448C347.938 534.827 354.347 535.095 360.651 534.242C367.505 533.314 374.31 531.94 381.151 530.91C387.972 529.886 408.72 525.738 406.672 515.559C404.508 504.798 388.624 498.353 379.835 494.736C366.108 489.086 351.778 486.061 337.339 482.867C335.528 492.513 335.788 502.869 335.457 512.643C335.278 517.952 335.12 523.267 335.123 528.581C335.123 529.86 334.684 532.513 335.206 533.702C336.433 536.5 337.86 535.448 341.594 535.448ZM320.732 540.07H280.242C286.235 552.474 291.899 565.109 298.358 577.279C304.792 589.401 313.076 600.823 320.375 612.458C322.224 610.447 325.173 608.264 326.43 605.87C327.822 603.221 327.783 599.324 328.011 596.258C328.602 588.3 328.871 580.271 329.072 572.294C329.248 565.309 329.555 558.37 330.091 551.401C330.209 549.873 331.895 541.934 330.93 540.629C330.069 539.468 322.503 540.082 320.732 540.07ZM487.483 296.531C494.314 296.53 501.153 296.444 507.982 296.559C514.18 296.664 522.255 295.585 527.932 298.776C539.499 305.276 516.378 321.97 511.689 326.172C519.27 328.919 531.102 323.466 538.524 320.968C547.701 317.879 557.059 315.805 566.419 313.386C568.758 312.781 578.797 311.598 580.065 309.806C581.323 308.029 578.505 297.306 578.223 295.044C577.958 292.918 578.181 289.603 577.296 287.603C577.839 285.201 576.995 284.358 574.764 285.08C573.994 285.077 573.225 285.073 572.455 285.07C566.759 285.116 561.059 285.38 555.367 285.569C535.805 286.22 516.718 287.089 497.322 290.142C488.305 291.561 479.209 293.307 470.238 295.05C462.688 296.516 463.958 297.746 471.011 297.764C476.526 297.779 481.995 296.96 487.483 296.531ZM1048.65 152.677C1049.82 151.343 1050.98 150.007 1052.14 148.671C1049.31 147.862 1046.48 147.052 1043.64 146.244C1040.63 145.384 1039.01 145.581 1040.35 142.216C1042.03 138.001 1049.69 137.518 1053.37 137.36C1066.05 136.811 1079.37 140.845 1091.41 144.399C1097.29 146.133 1101.9 148.817 1106.87 152.386C1109.04 153.944 1111.55 155.408 1113.45 157.28C1115.42 159.225 1116.24 161.718 1118.17 163.668C1121.34 166.866 1125.39 168.458 1126.94 173.074C1128.72 178.373 1126.59 184.438 1123.96 189.057C1121.28 193.746 1117.31 197.292 1114.08 201.552C1111.52 204.932 1106.17 214.168 1114.53 213.098C1118.95 212.531 1124.68 204.995 1127.86 201.992C1132.42 197.686 1136.91 193.281 1141.73 189.271C1146.02 185.715 1150.95 182.069 1156.67 181.444C1162.71 180.785 1165.72 184.647 1168.66 189.344C1171.44 193.774 1171.88 198.098 1173.83 202.632C1174.77 204.818 1175.97 206.037 1176.52 208.419C1177.38 212.085 1177.46 216.083 1177.9 219.82C1178.58 225.689 1179.22 230.304 1178.08 236.054C1177.02 241.435 1176.73 247.151 1175.83 252.626C1174.82 258.827 1173.97 265.056 1172.97 271.259C1172.12 276.514 1168.9 283.999 1172.06 288.886C1179.66 300.629 1188.78 283.341 1191.18 276.883C1195.41 265.534 1197.55 253.128 1201.28 241.546C1203.27 235.352 1205.01 229.099 1206.16 222.686C1207.1 217.383 1206.64 210.922 1209.54 206.198C1211.8 202.529 1215.82 199.742 1220.23 200.862C1225.75 202.264 1227.87 210.241 1229.49 215.09C1233.78 227.879 1232.2 239.397 1230.46 252.44C1229.65 258.479 1228.88 264.528 1227.49 270.466C1226.56 274.473 1222.68 282.582 1228.44 284.761C1236.61 287.852 1245.27 264.412 1247.6 259.119C1253.7 245.255 1256.03 231.507 1258.55 216.653C1259.12 213.237 1259.56 209.749 1260.43 206.392C1261.18 203.47 1263.42 200.517 1263.62 197.595C1263.83 194.671 1261.89 192.63 1263.88 189.759C1265.53 187.37 1268.51 187.225 1271.2 187.205C1277.54 187.155 1283.59 189.935 1289.48 191.952C1294.96 193.828 1303.07 197.945 1308.98 196.62C1290.44 177.796 1271.94 159.185 1249.83 144.525C1239.56 137.716 1229.29 131.173 1218.19 125.621C1206.95 119.998 1194.06 116.199 1182.02 112.797C1175.47 110.945 1168.96 108.848 1162.5 106.724C1156.74 104.834 1150.95 104.475 1145.31 102.331C1133.06 97.6733 1119.38 95.8687 1106.7 92.5666C1101.1 91.1095 1095.44 89.8596 1089.83 88.5093C1083.93 87.09 1075.64 84.6252 1069.63 84.8648C1064.5 85.0692 1062.77 90.9507 1060.3 95.0418C1056.72 100.981 1053.66 107.151 1050.84 113.486C1045.07 126.465 1038.97 139.874 1034.84 153.434C1032.58 160.879 1030.34 168.332 1028.11 175.789C1026.18 182.245 1021.36 191.557 1022.64 198.182C1032.14 183.548 1040.98 168.35 1048.65 152.677ZM606.554 284.818C601.516 285.047 596.477 285.275 591.439 285.504C596.462 302.014 595.762 319.595 595.762 336.708C619.237 333.942 642.901 333.47 666.516 333.662C662.177 325.292 663.86 314.434 665.095 305.472C665.819 300.225 666.223 295.172 666.117 289.879C666.018 284.914 667.449 280.74 662.189 279.205C658.016 277.987 655.378 280.016 651.403 280.942C646.641 282.05 641.455 282.184 636.607 282.787C626.517 284.04 616.788 284.776 606.554 284.818ZM471.281 316.972C486.41 312.775 502.487 314.322 517.692 311.132C514.233 307.975 507.718 309.845 503.125 310.108C497.904 310.405 492.686 310.623 487.465 310.876C482.373 311.125 468.248 310.74 466.41 317.219C468.033 317.137 469.658 317.054 471.281 316.972ZM1024.85 83.0132C1005.05 84.7502 984.319 84.4806 964.665 87.9351C942.156 91.8908 918.693 94.3726 896.869 101.344C875.461 108.184 853.628 112.972 832.524 121.003C812.008 128.81 792.248 137.116 772.927 147.559C763.471 152.669 754.27 158.087 745.255 163.957C736.455 169.688 726.811 174.386 718.284 180.46C710.693 185.867 704.145 190.827 697.525 197.452C690.449 204.535 683.565 211.81 676.483 218.882C670.572 224.781 674.314 239.206 674.689 247.057C675.208 257.943 676.106 268.675 677.44 279.488C678.71 289.793 680.017 300.869 678.339 311.151C677.634 315.474 675.202 322.942 676.363 327.257C677.292 330.712 683.456 333.246 686.6 334.373C690.447 335.75 694.375 335.169 698.322 336.922C702.729 338.882 706.445 341.324 711.126 342.354C716.896 343.624 723.383 344.692 729.313 344.731C734.796 344.766 740.297 346.542 745.764 347.636C754.658 349.417 763.339 349.972 762.785 360.697C762.146 373.072 757.236 383.69 754.311 395.438C758.266 395.438 761.022 395.69 764.642 394.288C768.869 392.653 773.378 392.218 777.819 391.512C787.632 389.951 797.198 389.451 807.076 388.455C825.169 386.629 843.577 386.848 861.685 387.041C870.853 387.137 880.798 387.845 889.84 389.272C899.116 390.737 908.723 391.652 917.712 394.461C925.296 396.831 933.126 398.445 940.862 400.539C944.349 401.482 948.525 402.248 951.819 403.302C956.593 404.832 959.143 408.094 964.655 408.02C963.104 397.811 959.461 388.341 957.263 378.218C954.969 367.645 950.391 358.291 945.339 348.317C943.085 343.867 941.417 339.146 939.244 334.659C936.827 329.668 933.43 325.534 930.512 320.867C924.542 311.322 918.169 302.139 912.305 292.526C907.185 284.133 901.336 276.087 895.731 267.986C889.569 259.078 881.007 252.356 874.013 244.184C871.061 240.732 868.251 237.525 864.944 234.357C861.898 231.44 857.578 224.985 852.915 224.682C850.236 224.508 845.593 226.016 843.035 226.824C838.303 228.323 833.284 229.3 828.397 230.619C823.05 232.063 817.794 233.942 812.438 235.314C810.294 235.862 807.749 235.602 805.716 236.223C803.591 236.874 801.895 238.307 799.57 238.965C788.104 242.218 776.707 245.91 765.156 248.871C753.264 251.921 741.19 254.517 729.665 258.836C727.468 259.66 725.022 261.608 723.333 260.328C722.074 259.373 721.262 256.673 721.594 255.098C722.699 249.853 731.089 247.958 735.128 245.853C745.952 240.21 756.706 236.231 768.339 232.399C774.069 230.513 779.779 228.5 785.589 226.871C790.445 225.511 795.5 223.208 800.466 222.512C804.883 221.892 808.02 220.153 812.404 218.612C818.862 216.343 825.504 214.479 832.068 212.541C843.285 209.225 855.176 207.832 866.654 205.61C893.245 200.46 920.853 197.882 947.987 198.201C961.667 198.362 975.977 197.962 989.496 200.212C992.757 200.754 999.609 200.65 1001.86 203.576C1003.06 205.146 1002.41 207.483 1002.72 209.185C1003.24 212.057 1004.81 213.396 1006.17 216.013C1009.05 201.852 1012.37 187.991 1016.1 174.037C1019.47 161.408 1022.59 148.55 1027.09 136.098C1031.85 122.923 1037.63 108.955 1044.75 96.8973C1046.22 94.4155 1049.87 90.4728 1050.18 87.6968C1050.51 84.8322 1046.5 82.6134 1043.74 82.2944C1037.55 81.5796 1030.93 82.8036 1024.85 83.0132ZM1157.84 285.363C1159.85 265.719 1165.74 245.171 1162.45 225.448C1161.06 217.099 1159.97 209.129 1155.8 201.593C1153.69 197.781 1152.84 194.982 1148.81 197.229C1144.73 199.504 1140.97 205.123 1137.59 208.379C1131.37 214.365 1124.86 220.529 1117.41 224.974C1111.55 228.474 1099.9 231.792 1095.49 224.22C1091.29 217.004 1096.89 206.934 1100.92 200.981C1105.52 194.169 1114.24 187.861 1109.35 179.457C1107.24 175.84 1104.21 174.892 1101.02 172.518C1098.27 170.464 1095.96 167.802 1093.2 165.711C1085.21 159.65 1076.45 157.054 1067.22 153.59C1062.96 151.99 1062.4 150.485 1059.94 154.142C1057.27 158.115 1055.81 163.682 1053.88 168.076C1050.01 176.876 1045.88 185.215 1040.89 193.421C1035.85 201.702 1031.39 210.353 1026.63 218.798C1024.84 221.985 1023.15 225.223 1021.02 228.214C1019.87 229.841 1018.44 231.292 1017.5 233.073C1016.11 235.707 1016.73 238.108 1015.86 240.731C1012.13 252.046 1006.69 236.25 1005.65 232.557C1004.47 228.357 1001.61 225.082 999.764 221.164C998.237 217.929 997.195 213.12 993.508 211.597C990.487 210.349 986.594 212.061 983.512 212.228C977.848 212.535 972.142 212.077 966.453 212.431C961.134 212.762 955.827 213.272 950.509 213.598C945.186 213.925 939.87 213.025 934.617 213.585C925.192 214.59 915.555 214.429 906.15 215.822C895.113 217.455 884.19 219.197 873.122 220.556C875.694 225.419 881.025 227.529 885.24 230.999C889.007 234.1 891.99 237.68 895.784 240.63C899.634 243.625 901.922 248.055 905.108 251.654C908.231 255.179 911.121 258.134 913.857 262.078C927.059 281.123 940.676 299.464 951.565 320.047C957.077 330.465 962.34 341.611 966.106 352.788C970.145 364.776 972.126 377.633 974.526 390.029C975.721 396.207 976.348 401.422 975.038 407.636C974.694 409.115 974.336 410.591 973.965 412.064C972.817 413.827 973.241 414.97 975.241 415.495C976.41 417.199 978.007 417.839 978.108 420.169C978.186 421.94 977.201 423.992 975.676 424.991C972.732 426.918 972.732 424.315 969.697 424.892C968.559 425.508 967.421 426.123 966.284 426.737C965.684 425.823 965.065 424.919 964.431 424.029C962.496 422.189 960.957 422.357 958.428 421.909C959.714 436.71 957.664 449.925 954.406 464.362C952.839 471.305 950.152 478.1 948.798 485.055C947.287 492.824 950.591 496.363 955.703 501.546C954.406 502.223 952.133 502.958 951.063 503.97C949.359 505.583 949.794 505.781 949.796 508.306C949.798 512.929 948.912 517.484 948.185 522.03C946.841 530.448 945.613 539.159 942.715 547.219C937.451 561.858 928.941 577.061 920.272 589.956C915.421 597.172 910.557 605.37 904.477 611.596C898.374 617.844 892.324 624.149 886.236 630.416C874.253 642.751 861.158 651.274 846.802 660.509C841.117 664.168 835.129 668.176 830.24 672.731C825.271 677.358 818.663 680.598 812.724 683.96C810.074 685.46 808.189 687.615 805.328 688.845C802.641 690 800.763 690.378 798.509 691.893C792.917 695.654 786.876 698.869 780.719 701.705C773.208 705.163 765.818 709.186 758.104 712.138C754.59 713.483 751.284 714.949 747.88 716.522C744.197 718.224 740.223 719.341 736.444 721.155C733.251 722.688 730.018 723.578 726.768 724.831C724.115 725.854 722.031 727.51 719.324 728.581C713.703 730.801 708.587 731.996 703.126 734.613C695.87 738.091 687.271 739.714 679.628 742.216C671.094 745.012 662.241 747.793 653.483 749.775C649.757 750.619 646.582 751.721 642.983 752.999C640.638 753.831 637.949 754.287 635.352 755.077C628.173 757.266 620.999 759.375 613.783 761.236C599.684 764.872 585.28 769.238 571.607 774.175C564.438 776.763 557.166 779.878 550.288 783.173C542.513 786.897 534.136 789.047 526.332 792.734C511.258 799.856 496.235 807.186 481.335 814.663C473.511 818.59 465.796 822.635 458.156 826.906C455.384 828.456 452.353 829.095 449.599 830.615C445.998 832.603 443.042 835.521 439.353 837.491C425.134 845.085 410.623 852.238 397.563 861.846C390.728 866.875 383.384 872.025 377.478 878.147C375.529 880.167 372.151 883.294 371.798 886.225C371.279 890.561 371.766 886.572 373.267 889.246C375.347 889.499 375.817 890.298 374.682 891.642C374.159 892.272 373.488 892.594 372.672 892.607C370.046 893.138 365.133 890.356 363.022 889.192C359.365 887.176 357.423 884.628 355.074 881.244C349.973 873.902 344.995 866.495 339.741 859.257C335.016 852.747 330.391 845.581 325.015 839.603C321.369 835.551 321.095 837.32 317.041 839.606C314.024 841.305 310.52 842.03 307.393 843.63C295.481 849.733 282.386 854.24 270.167 858.492C267.384 859.461 265.901 860.997 263.456 862.335C260.341 864.039 256.396 864.872 253.065 866.083C243.89 869.419 234.759 872.883 225.649 876.393C218.615 879.106 211.856 881.242 206.349 886.246C204.158 888.238 201.505 889.665 199.242 891.68C196.607 894.022 193.043 897.835 189.725 899.16L187.705 900.738C186.337 899.788 184.969 898.839 183.598 897.892C182.239 896.951 180.878 896.013 179.521 895.069C176.114 892.701 172.731 890.298 169.344 887.9C161.663 882.456 153.933 877.065 146.788 870.919C134.097 860.007 120.927 849.679 107.656 839.457C93.7277 828.729 80.1483 817.503 65.742 807.419C52.6847 798.28 38.4387 790.561 25.7785 780.915C19.4061 776.06 13.0493 771.173 6.54283 766.47C6.18866 766.215 0.894431 762.966 0.844952 762.606C0.751202 761.941 2.49339 760.208 3.00771 759.651C5.44261 757.004 8.14048 754.647 10.5663 751.971C21.8723 739.504 36.634 739.939 52.2368 739.35C59.3124 739.083 66.9855 742.346 73.7056 744.568C81.923 747.284 89.8501 751.271 97.7876 754.714C114.146 761.809 131.029 767.871 147.552 774.443C154.05 777.026 160.522 778.286 167.128 780.063C173.83 781.866 180.733 780.147 187.901 780.276C191.621 780.343 195.138 780.56 198.884 780.349C201.108 780.224 203.671 779.802 205.867 779.84C207.647 779.871 209.495 780.606 211.133 780.419C218.304 779.607 225.878 778.468 233.274 777.535C240.616 776.609 248.193 776.15 255.439 774.701C259.087 773.971 262.688 772.94 266.198 771.703C269.245 770.629 274.784 769.409 277.284 767.233C279.521 765.287 278.543 765.261 277.296 762.085C276.802 760.83 276.292 758.926 275.56 757.716C273.582 754.448 271.671 753.421 272.822 749.331C274.849 742.122 281.759 737.521 287.675 733.97C301 725.975 313.188 715.72 327.219 708.938C356.13 694.964 382.479 676.811 410.675 661.465C441.667 644.597 470.985 624.802 502.408 608.646C531.658 593.608 560.774 578.482 590.266 563.917C604.667 556.807 620.955 550.301 634.021 540.979C626.781 540.081 619.521 538.921 612.257 538.277C608.887 537.979 605.477 538.255 602.126 537.72C598.379 537.121 594.836 535.606 591.096 534.975C584.666 533.889 578.883 531.685 572.447 530.872C565.546 530 558.787 527.971 551.853 527.404C537.349 526.215 524.259 520.866 511.544 514.125C508.397 512.456 505.811 513.41 502.796 512.275C501.134 511.651 499.37 509.156 497.504 507.817C492.365 504.126 487.953 499.77 483.069 495.738C472.801 518.783 452.638 534.456 433.397 549.914C423.651 557.742 413.073 564.379 403.227 572.06C395.594 578.016 388.662 583.346 380.513 588.082C372.689 592.626 365.339 598.764 357.879 604.224C352.823 607.925 346.897 610.718 341.521 613.931C337.128 616.556 328.551 620.471 327.353 625.233C326.373 629.124 328.285 633.754 322.348 631.965C317.031 630.365 313.177 624.462 310.081 620.305C302.073 609.547 294.603 598.425 287.168 587.271C283.175 595.065 276.287 600.679 269.919 606.457C266.051 609.969 262.035 613.227 257.857 616.361C255.831 617.882 253.781 619.372 251.752 620.889C250.952 621.488 249.14 622.409 248.621 623.253C247.41 625.227 248.146 624.332 248.335 626.719C248.629 630.457 249.877 633.399 247.761 636.981C245.774 640.344 241.442 641.78 238.405 644.077C231.181 649.544 223.585 655.356 215.571 659.625C213.752 660.594 212.031 661.434 210.337 662.62C207.509 664.598 208.026 665.315 205.176 663.419C200.719 660.452 196.869 655.526 192.847 651.948C184.419 644.451 175.899 637.048 167.268 629.787C150.822 615.945 133.89 602.793 117.647 588.705C102.212 575.317 85.6652 563.792 69.7303 551.064C65.3592 547.573 61.0415 544.011 56.7277 540.448C52.8866 537.277 46.6535 533.783 43.8124 529.725C39.6861 523.832 55.8267 515.779 60.6965 514.58C69.0936 512.513 79.9517 513.695 88.3618 515.389C97.1899 517.167 106.18 523.112 114.423 526.815C123.715 530.988 133.179 534.596 142.539 538.537C146.714 540.293 151.14 541.695 155.015 544.063C159.127 546.574 162.797 549.438 167.169 551.544C172.209 553.969 177.444 556.232 182.744 558.026C185.145 558.839 187.729 559.655 190.253 559.983C193.826 560.448 193.341 558.802 196.309 557.883C198.831 557.102 199.43 559.166 201.698 559.74C203.834 560.281 205.43 559.733 207.279 558.585C211.401 556.026 215.071 552.498 219.194 549.833C223.02 547.361 227.237 545.051 230.823 542.251C232.422 541.004 233.604 539.294 235.18 538.028C237.705 535.996 238.706 536.802 241.654 535.404C244.064 534.259 246.25 532.129 248.543 530.718C249.966 529.841 253.418 528.734 254.336 527.317C256.748 523.594 252.632 521.008 248.946 522.106C248.393 518.891 245.559 511.258 246.783 508.244C247.866 505.577 250.71 506.076 253.102 504.664C262.091 499.357 268.725 489.714 277.136 483.478C285.064 477.599 292.059 470.581 299.913 464.594C306.641 459.465 313.994 454.457 320.12 448.926C327.363 442.387 336.637 437.3 344.512 431.462C352.647 425.434 360.207 418.725 368.255 412.628C375.999 406.762 383.604 400.634 391.561 395.05C398.712 390.03 406.209 385.447 413.211 380.358C417.047 377.572 421.241 375.124 425.62 373.294C429.974 371.474 433.783 369.34 438.034 367.38C446.483 363.486 457.486 360.794 466.673 359.679C476.775 358.452 486.918 357.352 497.116 357.343C502.548 357.339 507.824 358.373 513.224 358.701C518.185 359 523.55 360.255 528.475 360.09C530.706 360.016 532.645 359.072 534.805 359.376C536.608 359.63 538.177 360.719 540.112 360.909C544.421 361.333 548.753 360.91 553.11 361.468C563.119 362.746 573.141 364.569 583.171 365.585C593.857 366.667 604.451 366.871 615.081 368.694C625.469 370.474 635.922 372.319 646.25 374.378C668.199 378.753 690.378 383.025 711.979 389.521C717.029 391.039 722.108 392.483 726.962 394.565C729.318 395.574 731.581 396.798 734.038 397.554C737.556 398.634 738.249 399.044 740.061 396.093C743.181 391.012 744.9 384.292 747.164 378.764C749.403 373.294 752.121 367.781 753.419 362.069C749.645 361.471 744.883 362.633 740.988 362.766C736.227 362.93 731.517 362.827 726.76 362.798C717.173 362.741 709.677 359.909 700.606 356.936C692.96 354.43 682.78 352.992 676.948 347.253C673.82 344.176 672.78 343.634 668.08 344.186C663.337 344.742 658.654 345.701 653.866 345.86C635.822 346.458 617.86 349.607 599.733 350.229C594.83 350.397 582.565 352.722 583.369 344.405C583.535 342.679 584.858 341.181 585.116 339.404C585.392 337.499 584.916 335.565 584.617 333.703C583.908 329.298 583.167 324.896 582.46 320.49C565.931 325.794 549.194 330.093 532.35 334.294C525.366 336.037 514.145 340.043 506.927 337.846C499.949 335.723 503.991 325.892 506.164 321.186C492.301 324.35 477.514 329.525 463.378 330.712C459.077 331.074 454.891 332.026 453.889 326.827C453.093 322.684 456.085 317.617 457.611 313.978C446.762 313.009 435.528 313.102 437.569 299.195C439.44 286.436 450.039 283.896 461.324 281.565C475.253 278.686 489.478 277.727 503.498 275.397C515.695 273.37 529.004 271.11 541.461 272.133C548.056 272.673 554.69 272.797 561.283 273.408C564.393 273.695 567.384 274.177 570.395 275.026C573.172 275.807 577.056 278.231 579.902 278.274C584.199 278.341 589.379 272.531 594 271.189C599.724 269.525 605.892 269.223 611.806 268.815C618.509 268.356 625.223 268.099 631.921 267.556C633.448 267.432 639.22 267.81 640.426 266.916C642.181 265.612 641.013 258.927 640.891 256.181C640.776 253.641 641.266 248.883 639.505 247.887C637.852 246.952 633.031 248.235 631.404 248.495C624.658 249.576 618.248 249.452 611.526 249.177C608.422 249.051 605.44 249.878 602.366 249.47C599.068 249.034 595.748 247.925 592.462 247.307C585.347 245.97 578.863 244.306 572.732 240.319C567.349 236.82 560.979 234.452 557.971 228.324C555.768 223.837 554.873 215.179 561.35 213.903C556.939 207.539 553.895 200.391 551.556 193.038C551.132 191.705 550.85 189.697 550.216 188.534C547.977 184.422 550.055 188.069 546.86 186.425C543.702 184.801 541.426 183.516 538.958 180.692C535.025 176.188 533.369 170.645 532.871 164.776C532.197 156.806 530.936 147.819 532.1 139.889C534.115 126.154 544.154 115.834 554.354 107.526C559.892 103.016 567.182 101.336 573.677 98.5991C579.947 95.9559 586.951 93.1851 593.556 92.5653C599.518 92.0054 605.331 90.0588 611.3 89.2736C619.503 88.1929 627.715 88.5965 635.958 88.2684C639.753 88.1174 643.538 87.5822 647.315 87.1747C649.448 86.9442 653.055 87.1903 655.008 86.3452C658.205 84.9598 656.478 87.8687 657.62 83.6317C659.792 75.5718 661.565 68.0132 664.856 60.1813C667.921 52.8844 671.643 45.9079 676.564 39.6696C681.179 33.818 687.163 29.5381 692.599 24.5394C696.628 20.8362 701.197 17.4912 705.792 14.4964C708.419 12.7842 711.347 11.8584 713.913 10.3467C717.1 8.47166 719.913 7.04978 723.499 5.90135C731.194 3.43781 738.831 0.821923 747.004 0.950829C755.815 1.08885 764.649 -0.961931 773.227 1.63833C789.155 6.46776 796.96 23.7308 796.693 39.5836C802.141 38.2243 806.902 35.6071 812.673 35.3831C817.988 35.1774 824.304 35.6383 829.525 36.6253C839.658 38.5407 850.08 44.1735 856.121 52.7099C861.884 60.8519 862.746 71.6616 859.205 80.8986C857.509 85.3205 854.82 89.2541 851.956 92.9898C849.857 95.7293 845.172 98.7619 844.951 102.432C884.171 90.577 923.551 82.2202 964.122 76.8114C984.689 74.0705 1005.29 75.4429 1025.88 73.8765C1034.67 73.2072 1044.23 74.1434 1053.32 74.1786C1057.16 74.1942 1060.14 73.6603 1062.93 71.176C1065.74 68.6629 1068 65.5849 1071.28 69.2124C1072.12 70.1382 1072.29 72.3778 1073.42 73.0744C1074.79 73.9182 1078.76 73.3387 1080.4 73.439C1086.12 73.7879 1091.7 74.758 1097.31 75.8752C1107.61 77.9259 1117.84 79.9989 1128.02 82.6017C1147.4 87.5588 1166.52 92.353 1185.62 98.2372C1205.1 104.241 1224.8 111.649 1242.76 121.367C1251.47 126.074 1260.16 131.951 1268.16 137.774C1271.88 140.482 1275.21 143.412 1278.45 146.677C1281.91 150.168 1286.14 152.524 1289.57 156.041C1297.01 163.69 1304.44 171.805 1311.19 180.093C1314.72 184.419 1317.96 188.983 1321.1 193.595C1323.32 196.831 1329.12 202.755 1327.78 206.935C1327.08 209.167 1324.58 210.728 1322.3 210.181C1321.53 209.999 1320.91 209.009 1320.26 208.916C1318.04 208.603 1320.05 207.827 1317.48 208.87C1312.37 210.944 1310.74 215.104 1304.24 214.158C1293.2 212.547 1282.82 207.334 1272.78 202.788C1269.91 213.751 1269.51 225.117 1266.99 236.212C1264.55 247.037 1260.46 257.36 1255.54 267.288C1251.21 275.999 1245.66 285.283 1238.01 291.508C1232.17 296.258 1217.76 302.159 1213.47 292.046C1211.65 287.75 1214.36 281.076 1215.13 276.655C1216.16 270.723 1217.29 264.774 1217.91 258.781C1218.42 253.913 1218.67 249.016 1219.14 244.142C1219.54 239.949 1220.66 230.948 1218.3 227.245C1216.88 225.013 1216.76 227.203 1215.93 229.431C1214.93 232.133 1214.1 234.813 1213.36 237.595C1211.8 243.508 1210.4 249.461 1208.92 255.395C1206.29 265.996 1203.39 276.366 1197.89 285.899C1193.02 294.363 1186.15 303.65 1175.72 305.037C1170.83 305.685 1164.47 303.452 1160.74 300.162C1156.56 296.47 1157.81 290.382 1157.84 285.363Z" fill="black"></path> </svg> 