<?xml version="1.0" encoding="UTF-8"?> <svg xmlns="http://www.w3.org/2000/svg" width="340" height="248" viewBox="0 0 340 248" fill="none"> <path fill-rule="evenodd" clip-rule="evenodd" d="M265.911 74.0978C256.4 70.6188 244.632 63.825 234.059 66.1408C222.822 68.5999 218.298 79.8542 210.128 86.62C187.916 105.017 174.979 77.5977 162.774 62.571C151.248 48.3826 137.185 44.9386 120.922 53.657C114.442 57.1325 87.1449 73.0568 91.9058 83.2598C95.3289 90.602 108.815 84.0108 113.415 82.4075C123.402 78.932 132.675 75.8896 142.889 80.9579C162.048 90.4588 167.018 116.513 190.197 120.575C214.166 124.777 214.952 101.968 232.057 93.3824C243.524 87.6295 251.513 97.815 262.575 95.7856C273.117 93.854 277.993 78.5129 265.911 74.0978Z" fill="black"></path> <path fill-rule="evenodd" clip-rule="evenodd" d="M72.4009 166.021C80.8783 167.862 86.4113 151.421 91.7171 147.25C100.519 140.338 115.78 138.944 124.743 145.902C142.246 159.482 136.214 188.802 161.136 196.445C183.411 203.277 193.904 173.94 212.654 166.636C223.555 162.389 235.522 159.608 231.268 144.368C228.33 133.83 219.674 131.123 210.264 135.171C194.092 142.122 188.601 170.44 169.428 170.946C149.592 171.47 147.44 142.873 138.924 130.418C125.941 111.433 99.2514 106.847 84.085 125C79.5057 130.477 56.2565 162.525 72.4009 166.021Z" fill="black"></path> </svg> 