<?xml version="1.0" encoding="UTF-8"?> <svg xmlns="http://www.w3.org/2000/svg" width="40" height="217" viewBox="0 0 40 217" fill="none"> <path fill-rule="evenodd" clip-rule="evenodd" d="M2.36949 195.466C-0.245355 201.741 -1.51859 208.43 2.9697 214.323C11.118 225.018 24.0984 200.663 26.0694 193.865C30.3516 179.127 35.7187 164.279 38.1165 149.058C40.5614 133.534 39.3968 116.843 39.7838 101.106C38.4854 82.4321 36.0007 63.8041 31.545 45.6372C27.5992 29.5264 23.4111 12.918 10.2898 2.06035C4.83223 -2.4565 1.08538 0.959447 0.315032 7.4029C-0.520418 14.4735 1.32777 21.5871 4.55022 27.7821C12.0946 42.311 12.1091 59.2974 13.7981 75.5405C17.1579 107.842 19.0423 140.044 10.5829 171.735C8.41293 179.86 5.59556 187.73 2.36949 195.466Z" fill="black"></path> </svg> 