<?xml version="1.0" encoding="UTF-8"?> <svg xmlns="http://www.w3.org/2000/svg" width="1232" height="782" viewBox="0 0 1232 782" fill="none"> <path fill-rule="evenodd" clip-rule="evenodd" d="M628.588 313.191C677.938 309.277 725.02 327.613 764.462 356.191C815.298 393.024 858.384 445.701 887.549 501.207C890.651 503.59 893.708 506.032 896.743 508.498C912.975 521.682 928.833 535.607 942.89 551.107C950.737 559.758 971.321 580.796 962.385 594.066C960.488 596.884 957.374 598.502 954.255 599.617C945.509 602.739 936.391 604.321 927.766 607.974C917.118 612.481 906.076 618.794 899.255 628.419C897.315 631.157 896.809 634.387 894.2 635.593C891.435 636.873 886.22 636.374 883.197 636.669C877.12 637.264 871.042 637.858 864.964 638.451C850.686 639.847 835.76 640.001 821.792 643.439L757.534 659.258C744.391 662.494 729.286 664.277 716.822 669.594C698.223 677.531 680.479 689.151 662.682 698.727C654.077 703.357 645.471 707.988 636.865 712.618C632.662 714.881 629.786 714.911 624.861 715.289L589.32 718.015C583.586 718.455 580.834 720.756 580.082 715.036L567.455 618.89C567.195 616.912 567.271 607.115 565.645 605.932C564.626 605.191 558.643 606.787 557.536 606.923L541.404 608.893C529.786 610.311 518.169 611.729 506.55 613.147C505.607 613.262 500.383 613.203 499.797 613.972C499.11 614.874 500.416 620.044 500.534 621.157C501.766 632.834 503 644.512 504.232 656.19C504.376 657.544 506.026 663.824 505.157 664.935C504.552 665.707 500.175 665.8 499.286 665.945C488.078 667.769 476.872 669.593 465.664 671.418C457.638 672.724 447.148 672.659 439.56 675.667C435.203 677.395 430.892 681.813 427.128 684.575L372.468 724.678C364.178 730.759 353.004 729.211 342.908 729.977L226.449 738.824C226.546 735.207 226.643 731.591 226.74 727.974C227.252 708.82 227.763 689.667 228.276 670.513L228.947 645.462C228.989 643.876 228.354 639.237 229.393 638.065C230.775 636.51 236.949 635.835 238.866 635.269C245.294 633.372 251.72 631.475 258.147 629.579C277.003 624.014 295.857 618.449 314.712 612.885C333.348 607.386 351.981 601.886 370.615 596.387C376.992 594.505 383.367 592.623 389.742 590.741C391.215 590.307 396.359 589.729 397.383 588.487C398.673 586.922 398.096 580.247 398.302 578.264C399.313 568.587 400.756 558.953 402.512 549.383C415.181 480.357 444.791 410.242 499.693 364.193C535.984 333.753 581.508 316.924 628.588 313.191ZM637.292 451.612C632.406 445.893 624.199 436.563 615.568 438.112C608.554 439.371 604.731 448.041 602.287 453.805C592.459 476.971 589.411 503.525 586.355 528.283C584.437 543.818 582.894 559.421 581.908 575.043C616.915 572.358 651.923 569.673 686.931 566.988C685.278 555.866 683.954 544.641 681.965 533.573C680.967 528.025 678.21 523.03 675.852 517.905C665.307 494.981 653.797 470.934 637.292 451.612Z" fill="#FFDD00"></path> <path fill-rule="evenodd" clip-rule="evenodd" d="M1123.25 0L1124.11 0.0147486C1147.34 0.631034 1167.83 15.5364 1183.72 31.3107C1191.57 39.1104 1198.74 48.2849 1202.11 58.9606C1206 71.2928 1204.72 84.8577 1201.76 97.2347C1195.22 124.587 1187.22 152.08 1178.22 178.737C1173.8 191.85 1167.38 204.708 1164.04 218.129C1161.29 229.187 1172.88 237.241 1173.33 248.604C1173.77 260.067 1166.04 270.836 1155.41 274.933C1150.88 276.678 1145.4 275.22 1141.23 277.008C1137.41 278.642 1136.08 283.466 1135.34 287.169C1134.35 292.219 1134.53 297.265 1134.81 302.36C1134.98 305.477 1134.2 310.564 1135.73 313.344C1136.78 315.253 1138.69 315.878 1140.33 317.184C1142.57 318.967 1144.07 321.186 1146.04 323.235C1149.28 326.617 1152.4 328.448 1153.28 333.381C1153.75 332.261 1154.22 331.14 1154.69 330.021C1157.11 334.431 1158.9 336.546 1156.6 340.732C1163.73 340.034 1167.96 352.936 1169.83 357.83C1173.25 366.784 1175.61 376.089 1179.04 385.049C1183.74 397.334 1189.92 409.457 1192.93 422.311C1195.45 433.114 1197.44 444.21 1199.68 455.088C1200.95 461.213 1202.05 467.435 1204.36 473.275C1205.26 475.543 1206.92 477.069 1207.95 479.09C1209.37 481.857 1208.81 483.319 1208.88 486.349C1209 491.751 1212.42 495.257 1213.49 500.505C1214.64 506.111 1215.58 511.78 1216.74 517.398C1219.07 528.713 1223.39 540.013 1224.44 551.475C1225.64 564.784 1228.24 577.93 1229.54 591.244C1230.68 602.877 1228.74 615.366 1231.18 626.62C1233.34 636.608 1230.66 645.742 1229.71 655.659C1229.47 658.177 1233.36 673.167 1227.1 670.289C1228.28 673.823 1229.92 675.508 1230.01 679.384C1230.09 683.011 1229.16 686.739 1228.39 690.255C1226.91 697.05 1225.93 704.456 1223.03 710.822C1219.75 718.022 1214.76 718.885 1207.97 721.355C1203.37 723.027 1195.1 728.995 1191.48 722.611C1189.32 729.165 1185.1 724.635 1180.38 724.269C1180.41 724.271 1177.67 725.279 1177.16 725.349C1175.5 725.571 1173.53 724.791 1171.88 724.654C1167.76 724.313 1163.71 724.862 1159.68 725.694C1150.39 727.614 1141.4 730.269 1131.97 731.607C1113.55 734.219 1095.5 732.984 1077.06 734.128C1040.96 736.366 1004.27 734.488 968.147 733.519C964.27 733.415 960.091 733.956 956.265 733.362C952.14 732.721 951.24 730.774 948.027 728.825C942.685 725.589 936.757 728.737 931.215 729.92C914.944 733.392 897.951 733.649 881.55 737.008C848.228 743.831 817.526 757.296 785.607 768.654C771.77 773.577 755.529 781.551 740.607 781.897C722.523 782.287 726.794 764.528 730.117 753.112C719.669 755.877 703.262 768.514 692.641 761.18C679.985 752.442 696.089 737.914 696.847 727.643C674.226 732.324 648.567 742.592 625.607 734.246C621.189 732.64 617.344 729.245 612.602 728.694C607.671 728.12 602.46 729.857 597.475 729.826C586.119 729.754 575.093 728.247 563.741 729.642C538.431 732.75 513.481 734.451 487.967 735.121C462.281 735.796 436.594 737.313 410.896 737.249C397.853 737.216 384.567 735.674 371.55 736.366C366.439 736.637 355.438 740.339 351.847 735.159C348.241 739.47 345.179 736.59 340.553 737.068C341.411 736.979 338.144 738.862 337.653 739.044C335.222 739.945 332.949 739.671 330.41 739.645C323.648 739.576 317.331 742.731 310.603 742.426C308.902 742.35 307.615 741.856 306.172 741.274C305.83 741.135 305.912 739.668 305.363 739.546C302.072 738.811 302.923 740.821 300.833 741.835C298.517 742.956 295.089 741.141 296.408 744.593C290.122 744.318 284.167 746.43 278.448 742.714C281.152 748.672 271.707 743.723 269.238 743.626C265.136 743.461 261.544 745.506 257.452 745.977C252.546 746.541 247.615 744.272 242.814 745.657C239.053 746.741 237.765 749.35 233.85 748.016C230.525 746.883 228.447 744.422 226.833 741.732C224.607 738.02 224.321 736.363 218.951 736.297C214.969 736.249 210.966 737.103 206.946 737.095C202.339 737.086 197.276 736.599 193.071 738.782C188.541 741.134 185.88 744.714 180.856 746.557C158.263 754.84 133.462 752.647 109.889 752.506C99.9442 752.447 92.6458 753.358 89.8537 742.048C87.4949 732.492 86.5492 722.498 84.2986 712.863C81.5409 701.057 78.5098 690.104 72.3908 679.549C66.4559 669.313 61.4622 658.739 56.2941 648.107C45.5459 625.994 30.5845 607.18 13.9035 589.211C7.56659 582.383 0.303817 574.777 0.00889478 564.945C-0.207311 556.455 3.5436 547.66 8.46337 540.897C12.8562 534.86 20.0938 528.051 28.2811 529.459C33.2115 530.307 36.4433 534.272 40.1229 537.246C44.1446 540.496 48.5255 542.711 53.3726 544.484C64.6756 548.617 74.154 553.141 83.9421 560.275C93.8463 567.496 103.105 575.581 111.67 584.337C128.112 601.146 144.959 618.609 154.406 640.375C158.13 648.951 160.508 657.22 163.047 666.112C165.54 674.843 172.329 672.437 179.963 671.182C189.266 669.652 198.616 668.831 207.981 667.862C211.506 667.497 216.476 667.389 218.599 664.068C220.939 660.406 218.258 655.661 218.045 651.862C217.932 649.833 218.606 648.337 218.775 646.358C218.97 644.107 218.303 642.052 218.3 639.81C218.297 634.991 220.56 630.698 224.32 627.778C231.356 622.313 241.618 619.056 249.948 616.049C261.321 611.943 273.507 609.926 285.219 606.996C298.407 603.696 311.674 600.722 324.933 597.725C337.961 594.781 350.969 591.752 364.137 589.484C371.86 588.154 380.239 588.64 387.726 586.209C395.684 583.626 394.365 575.643 394.341 568.57C394.302 556.89 395.753 544.864 397.468 533.317C401.119 508.768 409.815 484.744 417.719 461.284C425.335 438.69 434.769 417.004 450.343 398.668C465.504 380.818 484.112 364.664 503.414 351.4C523.527 337.578 545.907 327.592 566.901 315.253C562.313 311.755 556.84 308.769 554.204 303.381C551.227 297.298 552.488 290.025 552.615 283.524C552.757 276.187 552.982 269.746 555.61 262.756C557.048 258.928 562.609 251.667 561.757 247.504C560.329 240.514 544.993 235.409 539.345 232.533C530.488 228.021 521.614 223.439 513.452 217.743C505.619 212.28 498.249 205.704 493.504 197.317C492.158 194.937 491.05 192.438 490.19 189.843C489.232 186.949 489.902 185.963 487 185.751C482.368 185.411 475.424 190.046 471.521 192.094C451.4 202.651 429.301 216.859 405.559 215.916C396.945 215.575 387.262 212.876 384.216 203.919C380.206 192.127 388.578 179.945 395.924 171.427C381.596 173.673 355.173 180.69 343.866 167.943C336.331 159.449 342.014 145.967 348.333 138.602C356.681 128.873 368.582 122.95 379.576 116.76C366.086 111.632 351.152 108.353 339.289 99.7723C327.943 91.567 329.346 78.9609 338.307 69.282C347.888 58.9356 364.64 53.6365 377.816 49.7953C393.976 45.0836 410.031 45.4615 426.684 45.7776C456.573 46.3438 482.247 57.329 506.761 73.9371C519.723 82.7191 532.499 92.1965 543.994 102.833C554.777 112.808 566.279 122.084 576.903 132.167C587.197 141.936 595.295 154.041 606.159 163.168C615.398 170.928 625.526 181.928 637.263 185.373C649.708 189.026 660.91 195.067 673.461 198.664C687.699 202.742 699.929 209.562 713.123 216.068C768.496 243.375 827.938 261.145 886.315 280.749C916.175 290.776 946.232 297.843 976.716 305.501C992.025 309.346 1006.24 311.398 1022.04 310.702C1025.68 310.543 1029.16 310.448 1032.75 310.953C1035.39 311.321 1037.39 312.314 1039.74 310.745C1043.13 308.49 1044.4 302.622 1046.41 299.281C1035.17 295.806 1024.17 292.047 1019.04 280.56C1015.8 273.321 1014.13 264.879 1012.71 257.112C1011.95 252.932 1011.93 248.714 1011.28 244.532C1010.93 242.222 1009.82 239.809 1009.91 237.449C1009.66 238.762 1001.28 234.444 1000.06 233.642C995.377 230.546 994.524 224.305 994.562 219.038C994.607 213.088 996.409 206.549 1000.46 202.037C1002.38 199.901 1004.66 198.3 1007.45 197.496C1009.43 196.924 1012.04 197.672 1013.78 197.097C1021.52 194.546 1022.39 175.45 1023.49 168.499C1025.9 153.181 1028.32 138.557 1033.54 123.875C1043.06 97.1057 1055.31 71.09 1069.91 46.7178C1082.41 25.8339 1094.91 0.297871 1122.4 0H1123.25ZM885.548 643.043C874.418 644.965 863.756 648.889 853.005 652.216C842.964 655.324 832.788 657.303 822.488 659.323C801.988 663.345 781.039 667.026 760.837 672.268C755.148 673.744 752.155 677.076 747.192 679.392C743.513 681.109 740.059 679.37 736.231 679.224C727.899 678.906 718.653 681.616 710.639 683.636C691.719 688.402 674.933 696.68 657.812 705.831C656.28 706.648 645.921 711.375 646.413 713.331C646.812 714.929 659.979 710.64 662.074 710.322C672.677 708.712 683.034 705.379 693.559 703.309C702.198 701.609 710.935 700.458 719.537 698.571C729.11 696.472 749.502 689.171 750.313 704.935C751.189 721.973 732.319 727.212 720.977 735.159C722.241 737.334 740.438 730.165 742.694 729.44C750.432 726.953 757.61 722.469 765.488 720.56C779.195 717.237 777.535 732.331 769.968 739.046C761.56 746.504 747.656 748.759 743 760.238C749.114 762.437 757.107 758.307 762.723 756.254C770.098 753.558 777.5 750.904 784.92 748.333C801.576 742.563 817.396 734.613 834.141 729.115C868.496 717.838 904.81 714.604 940.723 712.599C937.523 700.222 934.023 687.918 931.148 675.459C929.917 670.127 928.79 664.77 927.858 659.377C927.209 655.627 927.762 646.653 925.17 643.695C922.015 640.092 913.797 645.153 909.325 645.057C904.944 644.962 901.748 642.708 897.7 641.996C893.857 641.322 889.308 642.394 885.548 643.043ZM240.028 714.688C240.028 720.604 238.999 727.781 246.804 728.473C253.117 729.032 265.468 729.751 270.504 725.275C265.678 722.93 260.193 722.52 255.067 721.168C249.726 719.758 244.794 717.443 240.028 714.688ZM368.861 606.883C366.486 606.9 362.48 609.532 360.314 610.267C356.351 611.61 352.323 612.744 348.276 613.812C336.117 617.022 320.462 617.523 314.879 630.536C312.093 637.031 310.16 653.732 300.477 653.672C291.869 653.616 286.715 641.23 280.574 636.822C274.228 632.269 264.167 635.369 257.323 637.347C250.368 639.355 239.575 641.932 240.355 650.721C240.916 657.039 242.06 662.789 242.006 669.243C241.939 677.459 241.243 685.658 241.243 693.874C246.125 687.204 250.385 673.794 259.036 671.112C267.775 668.402 272.719 683.626 274.992 689.461C277.809 696.69 281.35 704.889 281.565 712.724C281.632 715.184 280.135 721.942 281.85 723.965C283.373 725.761 289.231 724.459 291.123 724.263C302.837 723.047 314.489 721.534 326.239 720.52C332.274 720 333.917 718.679 333.326 712.207C332.863 707.124 332.719 702.279 333.358 697.176C336.211 674.394 350.282 653.553 374.074 649.597C388.411 647.212 405.154 648.956 419.467 651.246C424.983 652.128 430.973 654.792 436.578 654.56C440.719 654.389 439.385 654.155 440.233 650.269C440.826 647.552 442.095 645.235 444.167 643.351C445.805 641.863 447.884 642.704 449.428 640.759C450.545 639.351 450.377 637.433 450.904 635.811C451.933 632.655 453.793 628.395 457.495 627.598C463.453 626.314 469.786 634.268 472.793 638.37C475.899 642.611 476.838 655.274 481.835 656.932C487.6 658.843 494.458 651.309 495.66 646.563C497.277 640.179 495.24 633.272 494.267 626.95C494.198 626.497 493.914 622.296 493.601 622.022C492.76 621.284 486.422 621.49 485.299 621.435C479.777 621.173 474.246 621.16 468.718 621.145C447.049 621.091 425.822 618.967 404.296 616.702C407.423 621.784 412.776 630.128 407.281 635.492C403.21 639.467 395.861 637.473 390.747 638.292C383.522 639.448 371.344 646.284 364.459 641.287C354.757 634.241 365.732 622.137 369.335 615.479C370.106 614.052 372.967 609.029 371.755 607.355C370.705 605.906 370.398 606.871 368.861 606.883ZM207.273 685.181C202.319 686.688 197.328 688.136 192.267 689.253C186.33 690.563 177.125 689.291 174.236 695.803C172.038 700.754 173.129 708.742 174.915 713.674C176.959 719.322 181.758 720.774 187.421 721.205C194.03 721.708 200.726 720.645 207.257 719.745C209.831 719.389 212.576 718.748 215.191 718.744C216.743 718.74 219.876 720.155 221.256 718.998C223.043 717.498 221.866 708.978 221.726 706.935C221.379 701.877 220.416 696.887 220.153 691.821C219.965 688.182 221.342 683.237 217.064 682.462C214.4 681.979 209.588 684.478 207.273 685.181ZM607.328 585.052C603.626 585.691 599.945 586.148 596.185 586.091C593.868 586.055 591.095 585.271 588.954 586.537C584.999 588.877 585.588 595.042 585.723 598.888C585.888 603.555 586.298 608.292 586.797 612.935C587.274 617.375 589.717 624.688 586.266 628.492C583.832 625.836 582.631 617.151 577.933 617.469C572.768 617.816 575.156 626.047 575.614 628.994C578.146 645.284 581.032 661.585 583.294 677.923C584.369 685.689 585.759 693.4 586.479 701.205C586.961 706.443 587.123 711.16 592.995 712.245C598.437 713.251 604.552 711.534 610.053 711.402C615.716 711.267 618.96 710.883 622.218 705.779C614.416 704.077 602.058 705.118 597.663 696.891C592.538 687.292 603.347 678.656 608.666 672.096C612.748 667.057 621.095 650.307 628.674 660.256C631.402 663.838 631.895 669.304 633.273 673.47C635.514 680.24 638.252 686.913 640.938 693.515C665.516 680.866 690.736 669.462 717.54 662.36C710.706 650.844 702.247 640.474 697.132 627.992C691.4 614.003 686.652 599.632 680.792 585.688C671.5 591.095 661.567 577.987 652.315 577.459C637.7 576.625 621.657 582.576 607.328 585.052ZM461.74 679.361C456.644 682.387 449.149 688.272 447.926 694.356C445.813 704.873 457.851 697.841 461.568 695.539C469.348 690.721 476.972 689.182 485.907 692.151C497.365 695.958 507.925 702.386 520.224 697.503C526.343 695.072 539.916 689.878 536.253 680.559C533.728 674.135 526.339 679.645 522.433 681.948C512.208 687.978 503.741 684.158 493.523 679.806C483.305 675.452 471.798 673.388 461.74 679.361ZM98.8585 625.386C94.7682 631.167 103.084 629.918 106.734 630.482C114.368 631.658 122.23 637.727 120.126 646.316C118.075 654.69 110.039 659.924 108.508 668.714C107.192 676.262 108.46 685.816 115.771 689.96C119.877 692.287 128.851 693.246 132.984 690.572C139.294 686.49 131.457 680.412 127.282 678.39C121.75 675.71 117.282 674.259 120.02 667.219C123.357 658.637 129.839 652.052 129.263 642.232C128.788 634.097 124.481 624.851 116.634 621.471C111.016 619.052 102.69 619.969 98.8585 625.386ZM657.358 600.446C664.429 600.144 664.71 608.664 664.354 612.855C663.866 618.584 664.91 624.69 665.03 630.438C665.19 638.051 666.788 662.982 653.286 659.279C644.603 656.898 637.459 648.602 630.479 643.271C624.058 638.365 607.733 632.479 606.675 623.177C605.482 612.67 618.353 610.704 625.729 609.034C636.258 606.651 646.48 600.912 657.358 600.446ZM622.91 323.526C611.697 324.604 600.546 326.265 589.874 329.978C582.654 332.491 571.563 334.292 566.446 340.458C562.021 345.79 563.939 353.391 562.5 359.69C560.555 368.213 554.654 367.048 548.931 361.726C542.082 355.355 540.101 350.742 530.566 356.721C510.828 369.097 495.178 387.368 479.521 404.295C491.628 407.95 515.379 408.835 519.401 423.917C521.598 432.163 514.972 438.161 509.018 442.661C501.33 448.472 493.305 453.846 485.785 459.891C478.768 465.531 463.033 487.987 458.582 468.244C455.825 456.022 460.989 443.392 458.798 431.319C449.278 446.624 439.612 461.891 430.883 477.664C423.454 491.092 419.134 505.455 415.57 520.301C421.125 520.663 426.908 517.852 432.399 519.512C437.688 521.111 440.163 526.099 440.534 531.267C441.165 540.028 437.108 548.945 435.066 557.359C433.665 563.137 432.056 576.251 424.997 578.132C416.951 580.274 411.901 567.934 408.314 562.92C404.899 568.154 404.956 575.812 404.456 581.812C404.114 585.938 401.806 593.651 406.46 595.932C410.816 598.068 420 595.392 424.658 595.196C433.301 594.83 442.112 594.132 450.758 594.386C458.926 594.627 470.945 598.98 474.136 588.971C476.309 582.156 478.223 557.665 489.811 570.952C494.959 576.853 498.985 583.58 503.957 589.592C508.973 595.657 513.534 596.054 521.025 595.747C535.854 595.142 550.335 597.981 564.845 600.273C577.577 602.284 575.906 591.51 575.717 581.918C575.428 567.049 578.385 551.501 579.998 536.714C583.833 501.553 591.705 466.815 603.815 433.56C593.685 430.121 575.524 443.998 568.034 433.459C561.877 424.795 569.787 412.861 573.007 404.762C577.023 394.658 579.055 384.102 585.606 375.148C587.673 372.32 590.614 368.532 594.616 369.484C598.05 370.302 599.418 374.668 601.35 377.132C607.484 384.952 615.318 390.815 620.77 399.345C624.105 404.562 626.699 410.138 627.782 416.264C628.081 417.948 627.703 421.397 628.892 422.81C632.578 427.188 644.191 427.124 649.353 429.809C666.974 438.978 673.167 465.668 680.01 482.497C681.938 487.236 683.849 491.988 684.874 497.011C685.558 500.369 685.525 504.639 687.352 507.65C691.339 514.225 703.728 508.353 709.807 507.335C719.997 505.629 730.136 504.001 740.366 502.569C746.608 501.695 755.694 499.44 760.45 504.953C765.38 510.67 762.544 519.673 760.069 525.806C756.029 535.815 750.868 545.378 746.604 555.296C743.203 563.208 741.51 573.4 734.975 579.496C729.314 584.779 719.946 586.294 713.282 581.994C709.478 579.541 699.713 555.809 697.136 556.869C701.787 575.199 708.608 593.891 715.814 611.385C718.026 616.759 721.826 627.716 727.417 630.631C732.051 633.047 742.567 628.482 747.308 627.597C751.804 626.757 760.68 623.117 764.979 625.783C770.189 629.018 770.824 637.643 771.409 642.997C771.844 646.967 771.055 649.93 775.9 649.733C779.312 649.595 782.757 647.935 786.033 647.1C793.636 645.166 801.527 643.886 809.268 642.64C827.171 639.758 845.067 636.883 862.962 633.928C878.346 631.388 893.529 631.402 907.43 624.127C914.476 620.44 922.554 619.314 930.057 616.847C937.498 614.402 944.915 612.815 952.704 611.896C969.727 609.889 986.292 607.923 1003.12 604.485C1012.32 602.603 1021.51 600.632 1030.67 598.523C1038.82 596.647 1046.7 593.665 1054.81 591.826C1061.56 590.296 1067.11 591.445 1070 583.807C1072.07 578.331 1071.59 572.193 1072.12 566.461C1074.56 540.27 1065.36 513.93 1063.47 487.883C1062.86 479.447 1062.68 470.985 1062.04 462.556C1061.75 458.694 1061.93 447.448 1057.41 445.366C1057 448.455 1057.32 453.652 1053.8 455.183C1055.52 454.435 1053.26 463.56 1053.14 464.476C1052.66 468.118 1053.86 472.016 1053.22 475.59C1053.72 476.848 1053.51 477.795 1052.57 478.432C1051.93 478.948 1051.46 479.601 1051.17 480.39C1051.13 482.938 1051.88 481.437 1051.91 482.317C1052.27 491.082 1050.78 500.168 1051.41 509.146C1052.09 518.637 1054.21 527.947 1055.83 537.307C1057.28 545.708 1058.84 554.127 1060.04 562.567C1060.89 568.49 1061.52 575.289 1058.33 580.68C1052.26 590.916 1034.69 589.803 1024.45 591.477C1007.44 594.261 990.412 596.772 973.342 599.137C966.788 600.044 960.155 602.117 953.525 602.221C946.442 602.332 942.652 599.479 938.186 594.267C929.189 583.768 923.387 571.843 915.893 560.422C911.684 554.006 908.183 552.315 901.097 550.357C894.516 548.538 889.234 543.75 883.88 539.768C872.632 531.404 858.108 522.308 850.728 509.989C842.961 497.026 853.906 492.722 864.386 489.185C861.835 482.427 856.834 476.999 852.713 471.185C848.028 464.575 843.781 457.709 838.737 451.347C828.456 438.38 818.187 425.48 808.21 412.271C799.682 400.982 791.063 390.287 780.179 381.142C769.247 371.956 757.077 364.427 745.072 356.737C738.801 352.719 727.793 342.454 719.867 343.504C712.179 344.523 709.139 358.8 707.218 364.801C705.014 371.687 704.236 381.288 699.101 386.71C691.554 394.676 683.718 382.127 680.117 376.343C673.522 365.749 666.773 355.25 660.188 344.647C657.187 339.813 652.853 335.213 651.071 329.732C651.05 329.666 650.216 324.953 651.058 325.613L651.116 325.666L651.059 325.603C649.176 323.742 642.218 323.356 639.616 323.131L639.378 323.11C633.905 322.595 628.367 323 622.91 323.526ZM549.404 620.587C543.1 620.549 536.815 621.28 530.54 621.792C525.028 622.241 519.977 621.401 514.474 621.07C507.667 620.662 504.301 621.373 505.868 628.383C507.008 633.483 508.378 640.277 513.63 642.432C520.725 645.345 530.282 644.953 537.842 646.056C543.392 646.866 548.927 647.597 554.453 648.52C558.124 649.134 560.008 649.775 561.727 645.628C563.164 642.153 562.238 637.51 561.748 633.92C561.37 631.165 561.596 626.321 560.291 623.87C558.343 620.212 553.239 620.611 549.404 620.587ZM843.289 550.69C852.55 559.131 858.783 569.923 865.776 580.157C870.046 586.406 878.4 596.368 872.335 603.943C867.166 610.403 855.148 608.924 847.919 609.234C836.558 609.723 827.278 614.842 816.466 617.482C789.237 624.133 811.852 578.498 815.624 568.973C818.271 562.293 821 555.64 824.202 549.199C825.646 546.297 828.526 537.828 832.116 536.721C837.32 535.112 839.995 547.688 843.289 550.69ZM609.331 454.741C605.003 462.989 604.301 474.406 602.248 483.415C595.976 510.961 592.308 539.015 589.425 567.09C603.767 561.418 618.906 561.026 634.049 559.638C645.021 558.632 655.095 557.48 666.069 557.947C667.94 558.026 673.319 558.973 674.86 557.388C676.93 555.26 674.423 549.322 673.812 547.083C670.486 534.925 669.024 522.361 665.244 510.277C661.39 497.954 656.705 485.648 651.721 473.735C648.076 465.021 643.069 456.524 634.234 452.25C626.5 448.511 614.132 445.591 609.331 454.741ZM550.266 508.352C556.175 517.234 563.66 525.004 569.432 533.969C573.523 540.328 578.315 552.09 568.486 556.133C565.036 557.551 560.963 556.937 557.348 557C551.758 557.097 546.221 557.576 540.621 557.443C535.325 557.316 530.079 556.676 524.796 556.401C521.466 556.229 517.283 556.484 514.35 554.577C506.488 549.464 512.174 539.023 514.705 532.342C517.394 525.246 521.025 518.535 524.529 511.81C526.958 507.146 530.59 497.642 536.115 495.741C542.658 493.489 547.54 504.255 550.266 508.352ZM836.801 407.715C849.787 422.771 861.064 439.195 871.683 455.969C876.865 464.155 881.897 472.436 886.922 480.719C890.209 486.139 892.677 493.073 896.682 497.982C905.817 509.179 908.359 484.748 909.704 479.437C914.672 459.854 920.822 440.429 926.294 420.969H920.686C898.333 420.957 876.901 420.628 855.136 414.06C848.975 412.202 843.358 408.169 836.801 407.715ZM789.585 411.511C796.657 416.718 841.92 447.289 822.88 459.085C818.94 461.526 812.502 460.419 808.049 460.769C802.344 461.218 796.548 461.769 790.911 462.776C783.614 464.082 776.524 466.359 769.193 467.513C763.365 468.431 755.641 469.501 750.433 465.882C741.843 459.912 747.057 448.187 749.893 440.596C753.925 429.811 757.743 415.373 767.745 408.95C770.073 407.455 772.924 402.118 775.428 401.629C779.349 400.863 786.717 409.4 789.585 411.511ZM1039.31 157.927C1035.89 160.53 1035.74 165.937 1034.85 169.754C1031.88 182.59 1027.72 195.086 1025.25 208.059C1022.85 220.713 1022.1 233.17 1023.28 245.994C1024.06 254.547 1024.15 265.071 1029.37 272.354C1035.61 281.069 1047.97 280.623 1057.31 283.204C1066.3 285.688 1075.22 293.379 1065.41 301.375C1061.92 304.216 1057.35 304.678 1053.9 307.414C1049.65 310.792 1047.21 316.844 1045.41 321.793C1043.92 325.867 1043.96 326.646 1048.4 328.085C1050.43 328.742 1052.48 329.159 1054.62 328.983C1059.48 328.58 1063.81 325.38 1067.88 322.975C1078.26 316.843 1090.25 308.656 1102.64 307.73C1106.6 307.435 1111.1 309.051 1114.95 307.768C1118.54 306.571 1117.44 305.839 1118.06 302.512C1120.53 289.322 1121.53 276.376 1128.28 264.444C1131.61 258.557 1140.41 246.513 1146.31 255.679C1148.77 259.507 1149.67 261.377 1155.13 260.203C1159.58 259.248 1164.46 255.741 1163.58 250.62C1162.75 245.788 1156.38 242.499 1152.52 240.381C1147.37 237.563 1143.76 237.889 1138.16 237.221C1122.77 235.387 1133.56 212.944 1135.78 204.522C1137.18 199.23 1138.81 192.389 1135.15 187.61C1129.57 180.341 1117.43 182.731 1109.79 183.762C1099.21 185.188 1087.67 185.948 1077.77 181.163C1067.3 176.101 1062.84 164.684 1053.02 159.133C1049.39 157.082 1043.03 155.08 1039.31 157.927ZM1085.26 250.642C1092.53 250.545 1089 260.889 1087.01 264.366C1082.81 271.701 1073.82 274.538 1065.92 271.833C1059.68 269.693 1052.93 260.241 1062.71 258.674C1067.4 257.923 1072.04 258.229 1076.48 256.004C1079.01 254.738 1082.29 250.682 1085.26 250.642ZM1067.01 195.638C1071.53 198.374 1063.81 215.851 1062.51 219.388C1060.4 225.161 1058.51 228.888 1063.9 233.338C1067.64 236.432 1075.02 239.103 1071.5 245.27C1068.23 250.975 1057.04 248.583 1052.49 245.791C1045.87 241.731 1047.82 233.955 1049.28 227.574C1050.24 223.393 1058.96 190.765 1067.01 195.638ZM355.126 80.8848C369.068 86.8224 383.324 92.186 398.076 95.7638C410.968 98.8914 423.644 102.264 436.931 101.529C449.223 100.851 450.689 112.891 443.668 121.229C439.854 125.759 435.428 125.646 429.869 125.821C423.361 126.026 417.451 127.826 411.175 129.438C401.617 131.893 391.94 133.977 382.677 137.442C377.897 139.23 373.181 141.333 368.918 144.159C366.238 145.937 360.258 149.14 363.421 151.623C367.993 155.212 381.565 150.296 387.007 149.972C399.677 149.219 412.321 148.078 424.92 146.497C431.09 145.721 437.715 144.955 443.56 142.72C447.383 141.258 451.616 137.629 455.946 138.551C465.08 140.496 460.554 154.149 456.406 158.591C450.248 165.187 440.898 168.1 432.943 171.847C427.383 174.468 421.857 177.242 416.458 180.175C413.908 181.56 402.021 186.75 402.397 190.69C402.792 194.832 412.175 192.743 414.495 192.366C429.982 189.855 443.957 183.885 458.266 177.775C464.529 175.1 470.88 172.533 477.013 169.568C481.296 167.495 485.506 164.337 490.239 163.396C501.396 161.174 500.908 173.599 505.3 180.311C518.357 200.258 543.585 208.768 563.214 220.296C570.639 224.656 577.722 229.677 584.536 234.93C589.403 238.68 591.348 243.842 596.783 238.896C601.312 234.773 603.496 228.726 606.399 223.482C609.779 217.377 614.293 211.988 617.758 205.933C622.877 196.987 624.41 188.455 613.168 185.163C601.366 181.708 592.026 176.555 581.995 169.203C557.377 151.16 536.951 128.119 512.405 109.937C489.664 93.0919 465.55 77.2845 437.042 72.7611C410.022 68.4722 380.378 69.5283 355.126 80.8848ZM1092.65 210.453C1092.07 215.421 1090.84 226.015 1083.92 226.411C1075.52 226.892 1081.16 201.433 1085.92 198.568C1093.55 193.98 1093.14 206.245 1092.65 210.453ZM1014.44 208.425C1003.94 209.292 1000.95 220.75 1011.44 224.807L1014.44 208.425ZM1053.34 198.37C1051.99 203.57 1052.47 211.915 1048.29 215.906C1042.39 221.531 1039.82 213.277 1039.86 208.57C1039.9 203.915 1042.22 192.272 1048.47 191.658C1053.81 191.134 1049.36 197.305 1053.34 198.37ZM1166.57 82.673C1162.73 90.6308 1166.86 98.4845 1169.15 106.307C1164.44 107.82 1158.1 106.675 1155.22 111.637C1153.41 114.765 1153.73 119.474 1154.27 122.861C1154.72 125.639 1157 129.38 1155.1 131.959C1152.61 135.334 1146.43 133.773 1143.68 137.528C1139.51 143.238 1141.85 156.28 1147.71 160.578C1155.94 166.616 1151.03 151.798 1150.52 149.1C1149.26 142.341 1156.28 143.26 1161.08 140.53C1163.66 139.066 1164.12 138.783 1164.71 135.656C1165.25 132.776 1164.96 130.492 1164.27 127.388C1161.94 116.857 1166.02 118.577 1174.41 116.257C1181.65 114.254 1181.07 108.487 1179.23 102.426C1177.79 97.6746 1173.49 89.8802 1178.15 85.8295C1179.99 84.2217 1182.8 85.2383 1183.2 81.8829C1183.47 79.618 1180.42 75.9044 1178.82 74.6021C1173.3 70.1116 1168.81 78.0193 1166.57 82.673Z" fill="black"></path> </svg> 