<?xml version="1.0" encoding="UTF-8"?> <svg xmlns="http://www.w3.org/2000/svg" width="410" height="407" viewBox="0 0 410 407" fill="none"> <path fill-rule="evenodd" clip-rule="evenodd" d="M207.803 85.6854C245.246 112.281 288.192 130.45 327.319 154.402C337.113 160.398 367.625 172.845 367.33 183.966C367.157 190.468 357.988 198.621 353.973 203.127C347.095 210.847 340.624 218.647 334.276 226.813C305.222 264.209 277.86 301.957 246.371 337.474C241.63 342.816 227.349 368.325 222.738 355.656C220.648 349.911 222.369 343.456 216.923 338.101C214.12 335.342 203.286 333.822 206.442 327.905C208.545 328.85 210.651 329.799 212.756 330.742C211.121 326.013 211.241 320.833 208.791 316.364C207.268 313.587 204.292 312.273 203.26 309.146C201.834 304.825 204.253 299.804 203.848 295.35C203.448 290.909 201.147 286.711 199.773 282.521C191.625 257.683 188.702 232.644 184.53 207.017C180.402 181.659 173.974 157.096 171.45 131.456C168.783 104.374 165.515 77.3469 161.155 50.4818C168.937 51.5737 174.919 60.0298 180.423 64.8103C189.075 72.3234 198.469 79.0553 207.803 85.6854ZM178.451 347.876C176.664 346.473 175.267 344.749 174.258 342.706C192.61 333.615 181.536 349.125 178.451 347.876ZM167.291 328.487C159.292 330.692 153.545 331.139 147.378 327.847C146.792 327.536 147.466 325.131 146.411 324.637C145.489 324.208 144.081 324.739 143.292 324.336C140.606 322.97 135.904 325.964 135.447 320.734C145.656 317.61 155.695 311.844 166.474 310.873C181.453 309.525 180.76 324.773 167.291 328.487ZM132.244 298.341C121.33 300.893 112.339 306.855 100.742 305.298C89.8569 303.84 80.3977 298.195 71.811 291.69C93.2921 285.609 115.818 284.512 137.281 278.629C144.269 276.714 153.451 271.664 160.983 273.699C169.35 275.961 169.877 283.798 172.385 290.93C158.995 293.339 145.502 295.243 132.244 298.341ZM63.9818 268.08C53.496 270.585 42.7777 276.063 34.0108 266.609C32.5949 265.084 31.3566 266.607 31.5238 261.907C31.6988 256.952 36.1973 253.759 40.0661 252.014C49.1622 247.913 61.9129 250.564 71.5732 249.961C86.9833 249.002 102.668 245.8 117.911 243.334C128.464 241.628 139.366 237.84 150.152 238.587C158.48 239.164 168.527 246.262 156.39 251.44C145.337 256.157 128.765 255.434 116.79 257.477C99.0888 260.497 81.4504 263.906 63.9818 268.08ZM53.739 218.749C54.4182 219.441 55.0974 220.134 55.7766 220.826C55.6642 220.8 59.7969 217.453 60.8915 217.357C66.2076 216.894 71.555 217.26 76.8789 216.96C89.1463 216.267 101.51 214.131 113.558 211.777C123.373 209.859 133.37 206.555 143.472 207.383C152.218 208.099 153.138 209.891 153.71 218.331C131.385 218.331 108.389 217.861 86.4479 222.587C72.1637 225.661 56.4218 234.82 49.2666 218.31C50.7583 218.456 52.2474 218.603 53.739 218.749ZM67.6965 183.015C73.232 187.231 88.3235 180.22 94.9588 179.52C102.164 178.757 108.943 177.966 115.925 176.171C122.116 174.577 142.6 166.62 147.349 174.23C154.629 185.889 125.149 188.028 120.476 188.605C100.876 191.027 80.5388 193.174 61.4663 198.316C63.5431 193.216 65.6197 188.117 67.6965 183.015ZM94.5827 143.415C96.0142 148.804 140.34 128.945 141.147 143.378C141.769 154.452 97.2915 159.969 89.2952 158.998C91.1682 153.898 96.1501 149.332 94.5827 143.415ZM109.465 109.541C110.408 98.6712 111.866 98.7339 120.583 97.7099C127.231 96.9288 136.369 93.0312 134.64 104.881C133.159 115.027 108.517 120.51 109.465 109.541ZM125.309 72.1405C127.406 66.3046 132.127 74.1599 132.226 77.1274C132.49 85.0245 126.503 83.316 120.74 83.316C122.344 79.6274 123.869 75.8971 125.309 72.1405ZM198.263 28.3345C197.087 26.9187 190.489 26.3779 188.61 25.6909C183.992 23.9981 184.647 20.3905 178.738 23.9484C178.443 23.6506 179.005 20.9756 178.684 20.8528C178.522 20.7902 174.381 19.228 173.036 18.3659C169.789 16.2865 166.863 14.2515 163.88 11.6418C160.708 8.87014 157.532 4.84717 153.908 2.63976C152.38 1.70978 151.131 0.390551 149.29 0.105808C144.512 -0.630866 145.881 2.69726 141.704 3.35817C139.13 3.76569 137.257 0.761524 133.893 2.05723C130.985 3.17531 129.298 7.25314 128.002 9.67998C123.292 18.5122 119.658 28.0184 115.048 36.9447C91.4687 82.5898 64.6689 126.503 41.8294 172.574C30.8289 194.768 19.3505 217.116 11.6076 240.703C6.02504 257.714 -6.5821 282.565 4.26425 299.564C12.1508 311.923 27.9424 317.26 40.5416 323.231C59.4992 332.218 76.9756 343.963 96.1422 352.675C118.997 363.064 141.192 373.931 163.47 385.533C172.971 390.48 181.544 397.607 191.014 402.293C196.805 405.159 205.75 400.269 207.636 406.839C214.896 398.046 226.646 403.908 235.044 397.716C239.984 394.075 243.594 386.901 247.714 382.416C253.895 375.692 260.603 369.454 266.909 362.847C291.938 336.606 315.049 309.276 337.821 281.092C359.571 254.177 384.981 228.749 403.354 199.287C410.65 187.592 411.972 175.327 407.157 162.407C403.641 152.981 395.172 138.749 383.074 144.99C387.661 137.373 369.965 129.238 364.597 127.749C364.516 127.728 363.458 133.58 361.961 133.433C362.494 133.486 357.463 120.468 355.253 118.799C348.691 113.833 340.707 108.039 333.547 103.951C326.98 100.202 320.049 98.3447 313.688 94.1493C305.977 89.0657 298.897 83.0365 291.157 77.9869C283.683 73.1123 275.352 67.3495 267.092 63.9979C259.929 61.0904 253.498 60.5209 247.053 55.7561C239.08 49.8601 232.126 45.8606 222.931 41.7984C214.977 38.2849 203.953 35.2154 198.263 28.3345Z" fill="black"></path> </svg> 