<?xml version="1.0" encoding="UTF-8"?> <svg xmlns="http://www.w3.org/2000/svg" width="801" height="1000" viewBox="0 0 801 1000" fill="none"> <path fill-rule="evenodd" clip-rule="evenodd" d="M41.1291 601.66C34.4501 598.172 27.9285 594.385 21.5118 590.441C16.9902 587.734 20.9933 580.919 25.6291 583.382C27.9995 584.642 30.3606 585.913 32.731 587.166C30.8637 585.558 29.1353 583.808 27.5859 581.904L27.6939 581.796C21.7186 576.441 29.3945 566.336 36.1877 570.734C42.1816 575.08 48.231 579.515 55.1106 582.376C69.3575 588.419 85.0735 589.419 100.367 589.595C105.966 589.176 111.311 590.145 116.74 591.225C114.611 582.682 109.283 576.228 106.456 567.953C104.373 559.598 116.428 553.907 120.7 561.938C121.75 563.91 122.749 565.907 123.725 567.91C132.959 576.314 148.379 575.574 157.694 584.595C162.999 589.305 165.595 595.697 166.62 602.111C167.317 606.466 166.234 610.833 168.867 614.691C181.595 632.7 201.703 661.166 211.919 680.984C219.148 633.889 238.456 575.639 258.404 532.574C264.999 518.802 272.546 505.345 282.453 493.669C281.33 489.777 285.293 482.867 287.814 484.993C295.57 475.515 309.283 473.058 320.311 468.345C335.194 461.978 347.546 448.743 353.614 433.703C361.416 405.058 380.617 401.419 407.246 402.685C432.731 402.654 451.586 413.558 457.148 439.512C468.444 459.21 495.117 455.95 514.307 461.166C528.371 464.379 542.019 469.348 554.99 475.657C569.419 461.966 621.098 519.432 625.796 534.219C623.03 534.756 620.282 535.401 617.558 536.188C615.133 536.889 616.151 540.555 618.598 539.969C621.642 539.237 624.706 538.734 627.784 538.385C627.879 538.679 627.961 538.972 628.022 539.262C628.367 539.237 628.712 539.206 629.058 539.185C628.292 539.583 627.554 540.046 626.836 540.645C625.099 542.086 627.36 544.87 629.206 543.722C630.945 542.419 633.223 542.626 635.308 542.188C635.433 546.478 650.738 541.679 653.116 540.256C663.682 538.935 674.553 540.355 684.417 535.256C697.542 532.49 710.766 529.432 723.744 525.91C727.18 527.25 730.409 532.046 727.68 535.564C726.145 537.166 728.118 539.781 730.051 538.642C736.533 534.824 741.546 528.867 745.796 522.447C747.797 520.429 751.348 520.864 754.036 520.024C754.395 520.669 754.607 521.392 754.604 522.129C766.005 524.006 757.872 536.463 752.14 540.345C755.181 542.327 755.296 546.203 755.03 549.444C755.674 550.595 755.89 552.027 755.329 553.318C753.185 558.262 748.548 562.422 745.022 566.429C741.129 570.851 737.659 575.296 732.922 578.882C714.868 592.651 693.08 600.345 670.729 603.358C662.793 604.577 651.377 606.444 646.463 613.157C647.669 621.123 649.883 628.765 651.891 636.534C654.699 646.848 654.508 657.645 654.546 668.157C654.938 667.842 655.692 667.907 655.804 668.509C656.458 672.867 656.943 677.324 659.591 680.984C661.913 687.796 663.458 695.058 664.325 702.213C667.802 736.129 668.632 771.049 660.793 804.438C657.768 816.824 652.848 828.595 646.145 839.435C644.147 842.669 640.933 843.617 638.048 842.981C628.391 848 616.225 849.608 605.816 848.333C570.331 838.284 582.695 862.484 532.941 855.074C447.061 844.129 360.268 865.635 274.57 853.009C272.459 869.318 244.83 864.639 235.231 857.743C206.453 836.342 192.163 768.583 177.722 734.21C167.793 707.114 151.169 659.129 129.401 640.947C122.873 635.839 114.981 633.151 107.086 630.981C77.6198 623.385 48.0427 616.203 18.5211 608.818C13.5149 607.583 14.413 599.043 19.7679 599.589C26.8729 600.318 34.0026 600.975 41.1291 601.66Z" fill="white"></path> <path fill-rule="evenodd" clip-rule="evenodd" d="M697.07 596.573C699.066 596.326 701.022 595.616 702.965 595.054C705.932 594.187 708.84 593.175 711.703 592.02C717.61 589.653 723.342 586.854 728.715 583.431C737.394 577.891 745.062 570.795 750.846 562.249L751.243 561.653C754.545 556.622 760.636 545.45 753.806 541.629C758.207 537.95 762.368 531.341 762.133 526.243C761.8 519.027 752.958 519.125 748.388 522.184C745.395 524.187 743.152 526.993 740.902 529.752C738.411 532.817 735.751 535.74 732.986 538.551C732.252 539.295 731.512 540.024 730.758 540.74L729.999 541.453C730.117 541.172 730.221 540.885 730.312 540.591C731.838 535.838 730.019 529.647 725.266 527.468C722.357 526.135 719.336 526.95 716.516 528.079L716.085 528.258C712.29 529.829 708.449 531.218 704.497 532.335C688.391 536.882 671.581 537.638 655.078 539.906C648.72 540.789 642.245 541.897 635.92 543.527C633.508 533.28 627.594 523.456 621.177 515.375C590.452 476.712 539.781 463.931 493.426 455.662C489.202 454.912 485.699 460.508 483.239 459.184C478.578 456.678 474.476 453.129 470.878 449.274C463.202 441.048 457.757 431.375 451.362 422.209C448.199 417.684 440.921 421.733 443.856 426.595L445.294 428.968C451.211 438.696 457.766 448.724 466.254 456.267C470.766 460.274 475.773 463.437 481.498 465.412C485.834 466.906 491.919 468.166 496.666 466.718L497.236 465.888C497.047 466.166 496.857 466.44 496.666 466.718C484.276 484.675 468.732 499.875 452.353 514.218C435.819 528.69 417.982 541.647 400.041 554.32L398.544 555.372C369.313 534.045 344.618 506.221 327.294 474.434C330.924 473.996 334.52 471.669 337.621 469.934C341.359 467.832 344.871 465.329 347.612 461.99C353.578 454.715 352.8 445.341 353.878 436.514C353.942 435.968 353.22 435.829 352.887 436.104C349.652 438.792 348.516 443.196 347.168 446.999C345.68 451.178 343.998 454.625 340.587 457.567C337.415 460.304 333.541 462.32 329.779 464.116C327.837 465.036 318.205 467.4 317.109 469.36C300.467 465.453 284.257 472.203 271.927 483.595C260.013 494.598 251.27 508.903 243.55 523.027C235.313 538.095 228.566 553.801 222.748 569.946C216.853 586.332 212.334 603.079 209.85 620.326C207.754 634.866 206.467 649.635 205.637 664.338L205.535 666.175C193.223 646.848 180.606 627.721 167.726 608.764C170.655 600.943 167.415 592.959 161.93 586.919C155.853 580.233 147.449 577.129 139.408 573.514L138.353 573.036C134.476 571.267 130.615 569.32 127.266 566.672C124.047 564.116 121.68 560.591 118.288 558.237C113.359 554.808 104.411 555.536 104.183 563.033C104.066 567.15 105.834 571.662 107.452 575.36C109.285 579.542 111.754 583.332 114.689 586.817C114.825 586.977 114.973 587.107 115.124 587.209L115.236 587.28C111.18 587.95 107.094 588.493 102.927 588.681C94.5195 589.067 86.0257 588.446 77.7942 586.672C69.3714 584.86 61.2078 581.909 53.6306 577.801C47.1553 574.292 41.1553 569.752 33.8004 568.681C33.1245 568.576 32.4393 568.511 31.7356 568.471C30.5597 568.406 29.3868 569.789 29.8498 570.95C30.1028 571.591 30.3714 572.224 30.6646 572.863C33.2078 578.465 37.109 583.9 41.9732 588.027L42.3498 588.341C40.6337 587.749 38.9455 587.082 37.2819 586.332C27.5072 581.931 18.6399 575.277 8.1615 572.601C7.66766 572.471 7.16461 572.354 6.6615 572.243C3.42078 571.545 1.71399 575.067 3.61829 577.48C3.92389 577.872 4.22943 578.258 4.55042 578.641C9.22327 584.446 14.3837 589.835 20.0689 594.675C22.0195 596.332 24.0257 597.937 26.0751 599.471C26.9362 600.119 27.8035 600.755 28.6801 601.382L29.1121 601.687C28.0905 600.965 27.0781 600.227 26.0751 599.471C19.6584 597.527 13.3344 595.224 7.14612 592.675C4.68622 591.662 2.77576 594.153 2.51648 596.203C1.63995 603.064 9.2572 608.03 14.214 611.329C19.1831 614.644 24.6522 617.162 30.2541 619.184C41.0226 623.076 52.3344 624.845 63.6276 626.428L69.1121 627.193C90.8251 630.23 113.501 633.863 129.081 650.761C137.813 660.233 143.72 672.002 149.125 683.579C154.523 695.147 159.263 707.017 163.763 718.956C168.427 731.311 172.489 743.894 176.804 756.372C180.77 767.829 185.504 779.141 190.195 790.338L190.933 792.107C200.893 815.903 212.785 838.317 229.359 858.184C232.094 861.465 236.507 856.811 233.983 853.561C216.646 831.2 204.581 804.814 194.624 778.493C190.094 766.514 186.297 754.252 181.942 742.209L179.35 735.058C175.89 725.52 172.399 715.996 168.757 706.536C164.149 694.564 159.081 682.74 153.285 671.295L152.671 670.091C146.995 659.054 140.251 648.175 130.97 639.823C114.266 624.78 92.0411 621.172 70.5473 618.314L63.788 617.422C54.7017 616.215 45.5905 614.882 36.7541 612.453C31.6553 611.054 26.6738 609.267 21.9918 606.801C20.1276 605.823 18.3066 604.749 16.5473 603.573C21.5689 605.048 26.6615 606.255 31.8436 607.2C34.3806 607.662 36.893 608.008 39.3961 608.252C45.8436 608.891 52.2418 608.863 58.8467 608.517C59.4084 608.483 59.5905 607.604 58.9886 607.493C54.3899 606.675 49.785 605.653 45.1985 604.542L43.822 604.206C43.7973 603.443 43.4979 602.635 42.8713 601.866C40.5874 599.085 36.2541 597.662 33.2479 595.7C30.0967 593.644 27.0443 591.428 24.1368 589.051C21.4763 586.882 18.9207 584.585 16.4639 582.184L15.7263 581.459C15.9702 581.703 16.217 581.943 16.4639 582.184C23.0997 585.252 29.393 589.184 36.3251 591.61C41.8344 593.548 47.6121 594.851 53.4424 595.314L53.8035 595.345L54.1646 595.366C60.2479 595.804 66.3713 595.628 72.3652 596.946C73.0349 597.095 73.2449 596.196 72.643 595.94C67.4084 593.761 61.9639 592.922 56.4609 591.903C56.3436 591.474 56.0442 591.088 55.5226 590.841L54.1121 590.169C49.9208 588.153 46.0103 586.119 42.5257 582.851C39.4485 579.959 36.8837 576.582 34.9609 572.835C42.6615 574.527 49.4239 580.363 56.4269 583.644C64.0566 587.227 72.1306 589.795 80.4238 591.258L81.3683 591.422C96.8683 594.008 115.507 593.678 129.393 585.616C129.837 585.354 129.516 584.761 129.06 584.832C125.121 585.477 121.223 586.243 117.322 586.919C118.087 586.221 118.427 584.968 117.544 583.965C114.044 579.95 111.273 575.36 109.504 570.338L109.165 569.357C108.35 567.027 106.97 563.412 108.378 561.311C109.72 559.308 112.884 559.582 114.773 560.428C118.705 562.203 121.322 566.635 124.634 569.308C128.245 572.23 132.353 574.394 136.56 576.332L137.449 576.737C144.723 580.011 152.495 582.764 158.214 588.545C161.291 591.65 163.939 595.53 164.825 599.882C165.229 601.879 165.229 603.931 164.695 605.909C164.273 607.456 163.384 608.406 163.893 609.98C164.56 612.008 166.911 614.434 168.124 616.243C169.535 618.329 170.936 620.422 172.337 622.517C175.134 626.706 177.921 630.906 180.705 635.101C186.273 643.502 191.782 651.943 197.248 660.409C199.026 663.166 200.797 665.928 202.563 668.69L205.208 672.835L206.606 675.024L208.989 678.77C208.905 679.119 208.911 679.483 209.023 679.801C209.43 680.962 210.189 681.752 211.137 682.326L211.303 682.425C225.22 704.428 238.915 726.573 252.745 748.629C253.479 755.36 254.171 762.098 254.773 768.838C256.134 784.088 257.066 799.379 257.365 814.687C257.51 822.101 256.918 829.554 256.597 836.959C256.439 840.493 256.226 844.021 255.945 847.551L255.742 850.051C255.467 853.487 255.31 856.9 256.544 860.175C257.64 863.051 260.979 863.696 262.955 861.505C288.729 860.468 314.526 859.678 340.322 859.19C386.495 858.301 432.686 858.44 478.865 859.332C502.059 859.783 525.259 860.416 548.446 861.199C559.87 861.576 571.301 862.113 582.732 862.267C588.89 862.354 598.583 860.11 599.08 853.178L599.092 852.968C599.861 853.175 600.657 853.345 601.472 853.468C601.835 853.524 602.183 853.508 602.505 853.434L602.665 853.391C611.845 856.19 623.458 852.196 632.181 849.869L632.901 849.678C641.228 847.508 647.918 844.4 653.376 837.499C662.928 825.413 666.189 809.184 667.884 794.224C669.475 780.147 669.566 765.811 667.63 751.761C668.771 740.314 667.656 728.499 666.358 717.116C665.719 711.487 664.97 705.863 664.07 700.267C663.567 697.141 662.909 694.048 662.237 690.965C661.969 689.73 661.746 688.403 661.406 687.119L661.253 686.573C662.296 686.712 663.437 686.483 664.539 685.875C667.16 684.434 667.923 681.517 667.969 678.727C668.112 670.311 667.108 661.656 666.221 653.292C665.328 644.943 664.102 636.561 662.498 628.317L662.083 626.19C660.868 620.02 659.477 613.653 657.027 607.86C666.228 606.295 675.402 604.632 684.329 601.798C688.685 600.409 692.975 598.681 697.07 596.573ZM216.853 684.147C216.998 684.181 217.134 684.218 217.273 684.258C220.949 685.289 224.665 686.163 228.368 687.104C234.773 688.715 241.032 690.514 246.986 693.314C248.232 709.061 250.081 724.755 251.841 740.459L252.189 743.601C249.489 738.588 246.726 733.619 243.837 728.709C235.041 713.737 226.041 698.885 216.853 684.147ZM659.01 685.706C658.991 687.579 659.382 689.524 659.59 691.323C659.929 694.246 660.203 697.181 660.549 700.104C661.253 705.974 661.853 711.851 662.29 717.749C662.57 721.511 662.753 725.289 662.916 729.067C659.219 715.243 654.322 701.721 649.666 688.178C650.444 688.098 651.24 687.906 652.06 687.687L653.442 687.317C654.256 687.107 656.899 686.456 659.01 685.706ZM205.208 672.835L205.183 673.456C205.084 675.653 206.402 676.894 207.998 677.212C207.072 675.752 206.14 674.292 205.208 672.835ZM628.266 568.65C624.373 568.993 620.558 569.823 616.92 571.258L616.569 571.394C613.878 572.434 609.943 573.74 609.063 576.613C608.815 577.428 609.48 578.101 610.243 578.166C613.164 578.4 616.607 575.27 619.313 574.212C622.326 573.039 625.482 572.162 628.677 571.7C635.856 570.65 643.341 571.446 650.097 574.064C650.495 574.218 650.742 573.585 650.384 573.397C643.576 569.69 636.006 567.965 628.266 568.65ZM710.757 587.304C711.207 586.906 711.657 586.49 712.1 586.073C715.596 582.764 718.692 578.903 720.984 574.659L721.587 573.511C723.454 569.894 725.747 564.743 721.359 562.138C718.738 560.579 715.582 560.971 712.661 561.916C712.472 561.974 712.283 562.042 712.094 562.107C710.789 562.564 709.531 563.11 708.409 563.632C703.539 565.869 699.241 569.125 694.742 571.996C689.867 575.107 685.053 577.098 679.427 578.261L678.897 578.369C673.616 579.412 667.891 580.082 664.206 584.428C663.28 585.524 664.128 587.579 665.725 587.036C675.911 583.601 686.689 582.841 696.04 577.199C699.913 574.866 703.578 572.184 707.536 569.971C709.635 568.798 711.803 567.77 714.113 567.067L715.375 566.693C716.115 566.477 716.997 566.264 717.591 566.477C718.72 566.869 718.359 567.474 718.01 568.527L717.975 568.635C715.23 577.129 707.405 584.24 700.154 588.943C698.491 590.024 696.79 591.017 695.055 591.937C683.315 598.196 670.178 601.11 657.275 604.57C657.275 604.57 649.815 606.653 647.344 607.434C644.592 607.206 641.456 608.178 639.382 609.341C637.367 610.468 635.744 611.983 634.518 613.764C634.518 613.764 633.337 614.749 633.122 616.274C632.503 617.69 632.086 619.215 631.877 620.808C631.76 621.74 631.994 622.459 632.438 622.965C631.104 643.443 636.633 663.808 642.867 683.267L643.484 685.187L643.881 686.403C650.604 707.036 658.318 727.52 661.761 749.033C664.062 763.403 663.991 778.277 662.302 792.712L662.183 793.709C660.519 807.357 657.317 822.669 648.641 833.653C644.216 839.258 638.973 841.749 632.27 843.555L631.903 843.653C625.839 845.249 619.579 847.514 613.326 848.2C607.522 848.832 602.658 846.672 597.435 844.65L597.429 844.644C586.428 834.903 581.433 820.724 577.743 806.409C568.177 769.372 569.364 730.925 574.789 693.345C577.619 673.712 581.466 654.246 585.3 634.786C587.217 625.061 589.284 615.354 590.999 605.595L592.018 599.854C592.58 596.662 593.123 593.468 593.588 590.261C594.214 585.949 594.403 581.709 594.618 577.369C599.887 568.635 607.536 561.44 616.397 556.28C622.741 552.582 629.458 550.017 636.389 548.159C656.205 542.817 677.808 543.196 697.748 539.085C704.447 537.706 710.805 535.659 717.161 533.206L718.027 532.869C720.942 531.733 723.915 531.101 725.363 534.539C726.393 536.987 725.78 539.53 724.235 541.585C720.446 546.619 712.83 548.956 707.099 550.767C703.649 551.863 700.128 552.733 696.568 553.379C693.008 554.024 689.434 554.187 686.018 555.446C684.7 555.928 684.44 558.024 686.018 558.394C690.347 559.406 694.703 558.539 699.007 557.696C703.734 556.761 708.39 555.44 712.915 553.761C713.75 553.456 714.614 553.132 715.493 552.786L716.156 552.524C715.471 553.021 714.787 553.508 714.095 553.999C713.913 554.129 714.024 554.474 714.265 554.388C724.905 550.419 734.587 543.252 742.087 534.777L742.46 534.351C745.101 531.323 751.119 522.166 756.192 524.715C760.956 527.107 752.836 536.329 749.749 540.098L749.391 540.539C745.883 540.632 742.486 542.817 739.643 544.579C734.707 547.638 729.549 550.274 724.293 552.74C713.847 557.65 702.756 561.113 692.421 566.274C692.284 566.348 692.388 566.52 692.519 566.502C699.098 565.453 705.605 563.777 711.963 561.696L712.247 561.607L712.53 561.511C716.501 560.206 720.42 558.733 724.274 557.159C728.558 555.412 732.744 553.449 736.807 551.224C740.484 549.215 744.566 545.595 748.83 545.061C749.287 545.002 749.691 544.996 750.043 545.03C754.94 545.44 750.891 553.554 749.522 555.98C747.285 559.965 744.586 563.644 741.488 567.005C735.209 573.829 727.599 579.237 719.364 583.443C716.553 584.878 713.678 586.144 710.757 587.304Z" fill="black"></path> <path fill-rule="evenodd" clip-rule="evenodd" d="M397.933 155.703C368.738 155.703 333.714 169.861 330.735 170.144L330.655 170.149C329.087 170.149 322.964 174.815 312.288 184.147L323.852 206.713L322.917 207.607C318.436 211.903 314.615 215.819 311.596 218.905C286.954 244.107 282.525 343.056 288.331 377.562C294.139 412.072 304.896 445.837 354.973 445.837C405.05 445.837 460.763 415.714 469.343 406.334C475.065 400.081 481.491 397.084 488.624 397.346C488.917 396.976 489.207 396.606 489.497 396.238L490.547 396.09C500.416 394.661 507.488 392.735 511.762 390.315C520.11 385.59 529.286 360.751 529.286 355.278C529.286 349.862 542.988 310.454 543.262 306.284L543.266 306.169C543.266 302.682 561.166 286.657 561.166 281.567C561.166 276.478 564.774 276.786 561.166 258.852L560.118 253.583C556.278 234.488 548.763 202.869 520.11 189.13C488.624 174.032 427.42 155.703 397.933 155.703Z" fill="white"></path> <path fill-rule="evenodd" clip-rule="evenodd" d="M524.97 188.419C509.266 171.745 420.115 145.953 375.01 151.421L373.658 151.596C370.06 152.052 366.513 152.744 363.01 153.683C351.695 156.327 340.007 160.33 330.655 167.017C322.85 172.488 298.226 181.421 305.486 195.731C302.794 200.832 301.788 207.133 303.609 212.157C303.837 213.892 304.371 215.49 305.057 217.147C299.307 225.634 294.754 235.232 291.069 244.362C284.631 267.337 280.624 291.247 280.035 314.687C278.084 359.224 282.964 412.421 321.739 441.217C345.161 459.467 381.85 460.079 408.174 437.452C409.668 435.687 416.692 430.912 414.347 430.076C413.649 430.813 412.933 431.529 412.202 432.236C412.236 432.156 412.242 432.079 412.226 431.992L412.915 431.372C414.208 430.174 415.884 428.437 413.976 428.779C413.89 428.875 413.8 428.961 413.708 429.057C413.303 429.301 412.998 429.511 412.76 429.696L412.64 429.795L412.677 429.755C413.776 428.582 414.436 427.387 412.791 428.15L412.575 428.255C411.844 429.026 411.1 429.764 410.344 430.48C410.356 430.397 410.344 430.31 410.297 430.221L411.004 429.538C411.692 428.863 411.587 428.859 411.251 428.313C412.714 426.264 409.982 427.483 409.791 428.282C408.081 427.878 406.581 431.088 405.479 431.48C357.226 468.588 287.205 435.659 288.337 332.251L288.356 330.23C288.689 297.163 291.47 263.178 305.14 233.246C306.47 230.363 307.958 227.558 309.594 224.844C310.72 222.809 311.927 220.826 313.226 218.895C316.859 218.602 320.445 217.936 323.979 216.906C325.192 216.599 326.39 216.26 327.59 215.862C345.118 216.818 362.254 217.859 379.831 218.845L385.322 219.187C400.211 220.145 415.609 221.678 427.624 230.891C439.411 239.279 439.467 255.818 449.56 265.027C463.948 274.798 464.053 283.609 466.825 298.008C466.621 308.863 459.097 324.634 472.902 329.202C470.572 332.523 473.819 330.927 474.075 329.764C474.103 329.77 474.128 329.776 474.146 329.776C472.072 333.634 475.124 331.205 475.393 329.964C475.557 329.918 475.72 329.801 475.881 329.64C473.791 333.02 477.171 330.653 476.97 330.035C481.01 323.822 489.328 322.859 495.19 324.505C495.262 324.727 495.522 324.745 495.685 324.628C520.611 330.032 514.18 381.656 488.637 376.665C487.544 376.44 487.569 376.967 487.353 377.017C487.942 375.467 486.279 376.097 486.297 376.424L486.195 376.418C486.115 376.412 486.146 376.403 486.087 376.424C486.658 373.255 483.448 377.847 483.702 378.035C483.603 377.977 483.492 377.943 483.393 377.93L483.504 377.628C484.038 376.208 483.992 376.798 483.989 375.986C484.387 374.98 484.418 375.421 484.322 374.767C482.918 373.674 482.501 376.983 482.032 377.227C482.837 376.103 482.195 375.187 481.436 375.795C475.683 387.903 468.254 399.276 458.649 408.236C457.597 409.066 456.535 409.881 455.433 410.65C451.35 414.208 445.081 416.498 441.257 419.653C441.257 419.705 441.285 419.77 441.322 419.835L441.236 419.915L441.146 419.998L439.816 420.637C439.424 420.971 439.072 421.341 438.76 421.751C438.427 422.137 438.134 422.56 437.887 423.011C437.763 423.56 438.035 423.788 438.557 423.554C438.788 423.474 439.013 423.384 439.242 423.298C439.229 423.319 439.223 423.332 439.211 423.344C439.134 423.458 438.628 424.631 439.211 424.44L439.282 424.415C439.603 424.298 439.921 424.165 440.232 424.042C439.862 424.505 439.523 425.008 439.223 425.43C438.902 425.764 438.708 426.156 438.631 426.6C438.643 426.847 438.779 426.952 439.029 426.918C439.405 426.795 439.779 426.665 440.149 426.526L440.044 426.73C439.782 427.248 439.408 428.116 440.072 427.826C440.64 427.65 441.186 427.446 441.732 427.227C441.779 427.316 441.871 427.35 442.053 427.264C443.794 426.643 445.476 425.887 447.087 424.995C448.501 423.964 449.93 422.952 451.353 421.927C452.689 421.125 453.979 420.233 455.211 419.227C463.458 413.9 470.677 407.131 476.402 399.594C485.982 407.89 505.132 399.964 516.978 393.467C527.456 387.662 531.574 376.927 532.639 365.353C534.853 349.773 547.581 344.44 546.696 310.251C546.715 310.258 546.736 310.258 546.761 310.258C547.224 310.122 547.674 309.94 548.098 309.705C548.535 309.495 548.945 309.248 549.331 308.946L549.807 308.288C550.054 308.151 550.275 308.008 550.445 307.864L550.533 307.978C550.811 308.314 550.624 307.809 550.608 307.708L551.435 306.583C553.396 303.905 555.547 300.9 557.299 298.497L557.354 298.595C557.394 298.669 557.415 298.722 557.396 298.745C561.566 292.752 565.487 285.512 566.577 278.504C567.864 273.105 567.361 267.542 566.239 262.542C561.427 245.03 545.665 205.403 524.97 188.419ZM411.807 430.594L412.069 430.359L411.837 430.65C411.717 430.798 411.594 430.93 411.393 431.066C411.405 431.023 411.405 430.977 411.399 430.924C411.535 430.822 411.671 430.711 411.807 430.594ZM375.211 160.219C405.797 157.589 435.881 164.33 465.069 172.489L467.084 173.068C483.68 177.806 501.228 182.069 515.253 192.209C534.848 207.223 544.967 231.109 553.797 253.161C561.508 269.546 557.566 288.022 545.946 299.463C544.737 288.093 542.676 277.057 539.455 266.109C538.783 264.399 539.291 263.839 537.843 263.615C535.654 293.118 546.432 314.915 525.103 349.881C515.848 366.381 526.562 378.452 500.427 387.134L499.72 387.403C494.275 389.458 488.328 391.082 482.998 389.934L483.473 389.156C483.961 388.353 484.109 387.964 483.402 387.622C483.421 387.585 483.445 387.545 483.473 387.498C484.044 386.415 484.6 385.319 485.128 384.211C485.344 384.282 485.56 384.335 485.782 384.393C485.637 384.662 485.618 384.93 486.023 385.02C487.458 385.514 488.933 385.711 490.445 385.619L490.769 385.594C492.475 385.489 493.55 385.177 494.512 384.89C494.831 384.838 495.15 384.785 495.464 384.721C498.558 384.035 501.833 382.288 503.953 380.56C528.117 366.829 525.619 320.091 495.835 315.671C495.224 286.246 481.232 236.599 458.013 208.558C437.026 182.765 379.726 171.585 339.862 175.527C339.279 175.72 338.698 175.914 338.118 176.11C331.967 176.657 326.106 179.398 319.952 180.672C324.371 177.358 329.384 175.151 334.547 173.276C344.834 166.981 356.631 163.574 368.026 161.172C370.384 160.591 372.779 160.272 375.211 160.219ZM497.199 339.313C495.597 338.443 495.781 339.282 495.412 339.038C483.893 338.097 471.473 348.187 465.032 356.6C465.541 357.128 466.918 355.563 467.158 355.313C467.192 355.347 467.229 355.372 467.269 355.384L467.09 355.64C464.479 359.384 469.655 354.977 470.137 354.069C470.223 354.113 470.307 354.14 470.405 354.119C469.995 354.523 468.742 355.572 468.529 356.319L468.195 356.594C465.063 359.276 465.325 361.295 468.881 357.486C468.794 357.662 468.763 357.826 468.822 357.955L468.698 358.038C466.952 359.261 465.513 362.665 469.168 359.168C468.788 361.724 472.788 356.785 472.915 356.819C479.84 351.384 490.032 346.097 498.718 345.384L499.017 345.35C500.611 345.147 501.364 344.674 500.805 343.631C502.767 343.165 502.308 342.196 501.378 342.23C502.763 341.319 501.517 340.446 500.713 340.785C501.266 339.258 499.051 340.276 498.848 340.063C497.699 338.288 497.389 339.77 497.199 339.313ZM521.344 244.499C515.812 242.471 499.469 248.54 500.777 256.578C501.555 258.424 504.12 259.481 505.923 258.439L508.276 256.858C512.372 254.114 516.065 251.709 520.461 249.316C522.855 248.128 523.885 245.606 521.344 244.499ZM489.865 232.554L492.003 231.163C503.534 223.613 519.835 212.174 490.927 224.009C487.631 225.423 483.254 226.259 481.455 229.398C478.631 235.183 486.063 235.572 489.865 232.554ZM488.572 198.68C489.495 195.167 477.982 199.289 474.631 200.376L474.121 200.569C470.859 201.784 467.121 202.911 465.174 205.726C462.887 209.615 467.513 210.421 470.378 208.664C476.251 204.825 482.689 201.928 488.572 198.68ZM459.291 182.317C465.773 175.237 448.43 182.019 445.831 183.901L445.757 183.957C443.819 185.322 444.211 188.263 446.032 189.127C451.214 189.225 455.029 184.904 459.291 182.317ZM429.8 174.56C440.103 167.153 426.532 170.676 421.819 173.579C418.606 176.413 421.915 181.198 429.8 174.56Z" fill="black"></path> <path fill-rule="evenodd" clip-rule="evenodd" d="M330.605 388.195C326.485 387.235 323.247 390.726 324.056 394.745C324.914 399.001 329.488 400.461 333.324 400.325C337.673 400.177 342.019 399.279 346.389 399.097C350.877 398.911 355.383 398.877 359.877 398.998C364.031 399.112 368.296 399.843 372.417 399.186C374.022 398.93 373.87 396.81 372.827 396.056C369.725 393.819 365.707 392.905 362.049 391.967C358.324 391.01 354.512 390.279 350.691 389.831C346.815 389.377 342.907 389.149 339.006 389.106C337.231 389.084 335.056 389.479 333.324 389.161C332.441 388.998 331.543 388.414 330.605 388.195ZM342.5 332.914C337.577 335.908 330.074 342.89 335.37 350.313C341.605 356.859 350.583 349.356 355.006 345.961C359.108 343.331 363.716 350.097 359.91 353.168C327.944 376.843 314.972 333.698 340.009 329.396C342.765 328.921 343.79 331.989 342.5 332.914ZM378.207 310.556C371.617 309.461 370.466 318.853 376.994 319.51C378.364 319.649 379.725 319.769 381.086 319.887C380.954 320.313 380.864 320.751 380.818 321.201C380.756 321.584 380.71 321.989 380.667 322.451C380.46 324.763 382.099 327.168 384.012 328.288C386.003 329.451 388.858 329.606 390.83 328.288C391.849 327.606 392.867 326.837 393.429 325.714C394.182 324.556 394.593 323.217 394.636 321.843C397.636 322.624 400.694 323.68 403.728 324.239C403.617 324.347 403.506 324.464 403.401 324.593C403.318 324.692 403.429 324.874 403.549 324.785L405.071 324.448C405.537 324.51 406.006 324.56 406.472 324.587L406.463 324.547C407.241 324.535 407.883 323.612 407.182 322.871C404.503 320.038 400.324 318.155 396.509 316.581L392.839 315.075C388.142 313.168 383.185 311.387 378.207 310.556ZM325.216 313.464C320.901 312.97 316.63 313.164 312.309 313.43C305.037 313.871 308.086 324.482 313.926 322.032C313.864 322.421 313.849 322.81 313.895 323.171C314.123 325.035 314.731 326.612 316.441 327.615C318.031 328.544 320.043 328.541 321.633 327.615C323.336 326.621 324.102 325.223 324.537 323.405C324.873 321.995 324.738 320.816 324.543 319.418C324.478 318.958 324.278 318.526 324 318.137C324.407 318.035 324.815 317.936 325.222 317.847C328.852 317.019 332.432 317.186 336.049 316.661C336.435 316.606 336.497 315.982 336.16 315.825C332.907 314.294 328.775 313.868 325.216 313.464ZM378.87 280.696C376.38 279.746 373.253 281.326 371.981 283.501C370.54 285.968 371.154 288.815 372.935 290.894C375.667 294.084 380.867 296.048 384.701 297.868L385.006 298.015C388.944 299.915 392.988 301.659 397.083 303.179C401.114 304.675 405.309 305.846 409.488 306.852C411.688 307.382 413.938 307.821 416.191 308.097C417.969 308.315 419.339 307.827 421.04 307.827C421.287 307.828 421.367 307.498 421.164 307.372C419.574 306.372 418.395 305.057 416.66 304.131C414.858 303.168 413.046 302.221 411.228 301.283C407.552 299.387 404.012 297.277 400.466 295.154C396.728 292.916 393.077 290.559 389.525 288.036C386.046 285.567 382.843 282.213 378.87 280.696ZM334.506 278.666C331.395 278.063 328.318 279.534 327.398 282.704C326.515 285.74 327.438 286.392 325.083 288.564C323.207 290.296 321.185 291.842 319.145 293.364L316.139 295.598C310.698 299.628 305.213 303.438 298.954 306.157C298.426 306.386 298.731 307.172 299.235 307.183C309.179 307.375 318.716 306.027 327.694 301.573C331.889 299.492 336.102 296.86 338.534 292.706C341.349 287.896 341.265 279.977 334.506 278.666Z" fill="black"></path> </svg> 