<?xml version="1.0" encoding="UTF-8"?> <svg xmlns="http://www.w3.org/2000/svg" width="117" height="111" viewBox="0 0 117 111" fill="none"> <path fill-rule="evenodd" clip-rule="evenodd" d="M61.874 44.6569C60.1649 48.734 44.2057 47.3609 43.8566 42.5541C43.3368 35.3713 64.8432 37.5713 61.874 44.6569ZM78.8253 41.9896C87.8694 42.7247 102.728 48.8678 111.444 45.1557C124.747 39.4903 110.778 30.7954 103.642 28.1964C96.3806 25.5527 85.5645 26.9572 81.8313 19.3649C79.0223 13.6549 85.9635 -2.28576 77.3526 0.276518C68.3164 2.96481 70.9442 25.7995 56.7651 18.1022C50.0023 14.4294 52.7616 -7.94318 41.4335 3.4873C38.333 6.614 38.0626 12.3555 33.9566 14.6867C29.7667 17.0679 24.5108 14.5869 20.0872 14.7943C8.37585 15.343 4.64533 26.2983 16.5116 30.6432C20.9037 32.2525 37.4587 34.2162 27.4301 41.3937C21.1111 45.9144 7.07375 36.4266 1.64729 44.2972C-5.81113 55.1081 14.1672 55.3523 19.5333 58.5866C28.6273 64.063 21.1164 76.856 21.841 85.9657C22.9515 99.885 31.0374 96.9761 33.9751 85.1965C36.4665 75.2021 33.379 60.8155 48.4455 64.7875C72.9814 71.2562 34.8021 102.405 52.7747 110.376C64.2341 115.458 65.8564 87.9845 66.7464 83.2538C70.0411 65.793 79.8491 69.8675 94.7082 70.403C112.067 71.0278 116.257 58.1876 97.8743 54.5096C92.0094 53.3361 83.9419 54.8193 78.8489 51.0836C75.8351 48.8757 71.6924 41.4121 78.8253 41.9896Z" fill="black"></path> </svg> 