<?xml version="1.0" encoding="UTF-8"?> <svg xmlns="http://www.w3.org/2000/svg" width="24" height="25" viewBox="0 0 24 25" fill="none"> <path fill-rule="evenodd" clip-rule="evenodd" d="M1.91667 1.5C1.40999 1.5 1 1.91039 1 2.41667V22.5833C1 23.0896 1.40999 23.5 1.91667 23.5H22.0833C22.59 23.5 23 23.0896 23 22.5833V2.41667C23 1.91039 22.59 1.5 22.0833 1.5H1.91667ZM5.08382 12.6666C5.09546 10.8527 6.56714 9.42656 8.33512 9.43803L11.4494 9.4495C11.7575 9.43803 12.0654 9.47227 12.3509 9.5751C13.9936 10.0086 14.9863 11.663 14.6668 13.2829L12.8299 13.2486C13.1038 12.5641 12.8531 11.7655 12.2372 11.2863C11.975 11.138 11.6893 11.0583 11.3814 11.0467H8.43807C7.54825 11.0467 6.87508 11.811 6.85181 12.6781C6.87508 13.5452 7.559 14.2754 8.42643 14.2754L9.03158 14.2868C9.29386 14.8686 9.63583 15.4847 10.446 15.9066L8.33512 15.9179C6.58952 15.9065 5.07218 14.4805 5.08382 12.6666ZM12.111 15.7926C10.4683 15.3362 9.47558 13.6821 9.78443 12.0736L11.6204 12.1078C11.3465 12.7923 11.5864 13.5796 12.214 14.0472C12.4646 14.2067 12.7502 14.3096 13.0697 14.2869L15.8994 14.3096C16.7892 14.3096 17.4624 13.5453 17.4848 12.6782C17.4848 11.834 16.7776 11.0809 15.9101 11.0809L15.3059 11.0696C15.0553 10.4764 14.7124 9.86028 13.8915 9.44966L16.0014 9.43836C17.7703 9.42695 19.2644 10.8759 19.2644 12.6784C19.242 14.5038 17.782 15.9184 16.0014 15.9184H12.9901C12.6821 15.907 12.3849 15.884 12.111 15.7926Z" fill="black"></path> </svg> 