<?xml version="1.0" encoding="UTF-8"?> <svg xmlns="http://www.w3.org/2000/svg" width="209" height="83" viewBox="0 0 209 83" fill="none"> <path fill-rule="evenodd" clip-rule="evenodd" d="M200.714 28.9706C189.778 24.9703 176.247 17.1586 164.089 19.8214C151.169 22.6489 145.967 35.5894 136.573 43.369C111.034 64.523 96.1573 32.9949 82.1243 15.7167C68.8705 -0.597584 52.7005 -4.55768 34.0006 5.46705C26.5503 9.46328 -4.83701 27.7736 0.637233 39.5053C4.57322 47.9476 20.0801 40.3689 25.3696 38.5254C36.8522 34.5291 47.5155 31.0309 59.2592 36.8586C81.2887 47.783 87.0039 77.7407 113.656 82.4117C141.216 87.2433 142.12 61.0167 161.788 51.1446C174.973 44.5298 184.159 56.2414 196.878 53.9079C209 51.6869 214.606 34.0472 200.714 28.9706Z" fill="black"></path> </svg> 